<?xml version="1.0" encoding="UTF-8" standalone="no"?>
<!-- Created with Inkscape (http://www.inkscape.org/) -->

<svg
   xmlns:dc="http://purl.org/dc/elements/1.1/"
   xmlns:cc="http://creativecommons.org/ns#"
   xmlns:rdf="http://www.w3.org/1999/02/22-rdf-syntax-ns#"
   xmlns:svg="http://www.w3.org/2000/svg"
   xmlns="http://www.w3.org/2000/svg"
   xmlns:sodipodi="http://sodipodi.sourceforge.net/DTD/sodipodi-0.dtd"
   xmlns:inkscape="http://www.inkscape.org/namespaces/inkscape"
   width="169.33333mm"
   height="169.33333mm"
   viewBox="0 0 599.99998 599.99998"
   id="svg2"
   version="1.1"
   inkscape:version="0.91 r13725"
   sodipodi:docname="10th armoured div.svg">
  <defs
     id="defs4" />
  <sodipodi:namedview
     id="base"
     pagecolor="#ffffff"
     bordercolor="#666666"
     borderopacity="1.0"
     inkscape:pageopacity="1"
     inkscape:pageshadow="2"
     inkscape:zoom="1.4"
     inkscape:cx="128.24635"
     inkscape:cy="393.65119"
     inkscape:document-units="px"
     inkscape:current-layer="layer1"
     showgrid="false"
     fit-margin-top="0"
     fit-margin-left="0"
     fit-margin-right="0"
     fit-margin-bottom="0"
     inkscape:window-width="1600"
     inkscape:window-height="837"
     inkscape:window-x="-8"
     inkscape:window-y="-8"
     inkscape:window-maximized="1" />
  <metadata
     id="metadata7">
    <rdf:RDF>
      <cc:Work
         rdf:about="">
        <dc:format>image/svg+xml</dc:format>
        <dc:type
           rdf:resource="http://purl.org/dc/dcmitype/StillImage" />
        <dc:title />
      </cc:Work>
    </rdf:RDF>
  </metadata>
  <g
     inkscape:label="Layer 1"
     inkscape:groupmode="layer"
     id="layer1"
     transform="translate(-74.342743,-202.27325)">
    <circle
       style="opacity:1;fill:#000000;fill-opacity:1;stroke:none;stroke-width:0.99900001;stroke-linecap:butt;stroke-miterlimit:4;stroke-dasharray:none;stroke-dashoffset:0;stroke-opacity:1"
       id="path4200"
       cx="374.34274"
       cy="502.77832"
       r="300" />
    <g
       id="g4393"
       transform="translate(39.39595,318.19806)">
      <path
         sodipodi:nodetypes="ccccc"
         inkscape:connector-curvature="0"
         id="path4147-4"
         d="m 151.93012,161.26874 c 1.00333,18.24031 18.71994,29.45558 35,45 -0.17752,7.5 2.81866,15 -2.5,22.5 -34.81961,-8.61496 -42.47194,-37.53527 -48.21428,-66.78571 3.93162,-9.81516 10.84274,-14.29462 15.71428,-0.71429 z"
         style="fill:#ff0000;fill-rule:evenodd;stroke:#000000;stroke-width:1px;stroke-linecap:butt;stroke-linejoin:miter;stroke-opacity:1" />
      <path
         sodipodi:nodetypes="cccc"
         inkscape:connector-curvature="0"
         id="path4149-9"
         d="m 286.21584,317.69731 c 7.03932,-1.69567 10.55276,-7.6224 12.85714,-15 -12.15973,-20.57274 -29.35391,-34.43288 -47.14286,-47.5 -11.29838,15.7829 22.34183,41.55215 34.28572,62.5 z"
         style="fill:#ff0000;fill-rule:evenodd;stroke:#000000;stroke-width:1px;stroke-linecap:butt;stroke-linejoin:miter;stroke-opacity:1" />
      <path
         sodipodi:nodetypes="cccccc"
         inkscape:connector-curvature="0"
         id="path4151-4"
         d="m 301.21584,335.19731 c 4.97363,14.08968 15.32723,28.49573 30,36.78572 16.32545,-10.21154 25.82965,-21.4402 30.53571,-38.21429 -7.78432,-2.77594 -18.86218,-6.32539 -22.63522,0.61106 -4.06207,6.74264 -8.48128,6.21482 -12.18621,-0.25392 -3.84509,-7.08537 -18.88429,-3.46515 -25.71428,1.07143 z"
         style="fill:#ff0000;fill-rule:evenodd;stroke:#000000;stroke-width:1px;stroke-linecap:butt;stroke-linejoin:miter;stroke-opacity:1" />
      <path
         sodipodi:nodetypes="ccccccc"
         inkscape:connector-curvature="0"
         id="path4157-3"
         d="m 319.07298,311.62588 c 0.0181,-29.04762 3.81756,-59.88095 -1.42857,-88.92857 -10.9192,-7.29113 -21.48127,-8.09363 -31.68618,0.33372 -17.16022,3.65999 -27.22762,-4.16927 -39.02811,-6.76229 -0.91973,5.71429 -2.19482,11.42857 4.28572,17.14286 12.1491,16.40566 28.06889,18.98549 42.85714,25.71428 12.60498,16.88977 18.92502,34.67738 25,52.5 z"
         style="fill:#ff0000;fill-rule:evenodd;stroke:#000000;stroke-width:1px;stroke-linecap:butt;stroke-linejoin:miter;stroke-opacity:1" />
      <path
         sodipodi:nodetypes="ccccccccc"
         inkscape:connector-curvature="0"
         id="path4163-8"
         d="m 271.21584,203.4116 c -1.05395,-19.48959 18.41693,-29.85702 33.57142,-42.14286 l 15,5.71429 7.85715,-7.85715 c -2.30725,-21.54762 -2.56743,-43.09524 -13.92857,-64.642849 -67.29149,-24.94167 -120.42149,-7.94024 -155.35715,57.499999 2.52854,18.16915 17.722,34.68636 42.14286,50 9.38359,-8.94644 21.84292,-8.47248 35,-8.92857 8.08653,11.15853 18.17887,16.2066 35.71429,10.35714 z"
         style="fill:#ff0000;fill-rule:evenodd;stroke:#000000;stroke-width:1px;stroke-linecap:butt;stroke-linejoin:miter;stroke-opacity:1" />
      <path
         sodipodi:nodetypes="ccccccccccc"
         inkscape:connector-curvature="0"
         id="path4167-8"
         d="m 191.21584,101.98303 c -0.17699,-10.238099 -3.45039,-20.476189 -15,-30.714289 -19.77289,-15.49305 -44.96552,-15.81085 -69.28572,-18.57143 -5.52177,6.77407 -5.42339,20.85436 -1.42857,40 11.88216,18.095239 27.66205,36.190479 33.57143,54.285719 11.80853,-3.00043 15.97847,-9.27453 21.42857,-15 -5.7612,-10.27113 -12.17652,-19.34305 -23.57143,-19.28572 -6.76314,-13.720379 -17.74595,-25.029519 -18.57143,-42.142849 15.47619,-1.63282 30.95238,1.88674 46.42857,13.57142 8.5641,7.779 12.82868,16.274589 15.71429,24.999999 3.57143,1.92992 7.14286,2.21848 10.71429,-7.14285 z"
         style="fill:#ff0000;fill-rule:evenodd;stroke:#000000;stroke-width:1px;stroke-linecap:butt;stroke-linejoin:miter;stroke-opacity:1" />
      <path
         sodipodi:nodetypes="ccccccc"
         inkscape:connector-curvature="0"
         id="path4169-9"
         d="m 169.78726,118.4116 c 2.89086,-6.19048 -1.05938,-12.38095 -3.57142,-18.571429 -10,-12.0895 -19.64286,-18.73234 -29.64286,-17.5 -5.05972,-0.774 -4.26933,7.15924 -1.78572,13.92857 6.66667,6.839879 13.33333,11.492739 20,13.571429 l 3.57143,11.42857 c 3.80952,-0.12792 7.61905,3.29049 11.42857,-2.85714 z"
         style="fill:#ff0000;fill-rule:evenodd;stroke:#000000;stroke-width:1px;stroke-linecap:butt;stroke-linejoin:miter;stroke-opacity:1" />
      <ellipse
         ry="11.607143"
         rx="11.25"
         cy="196.80444"
         cx="302.82294"
         id="path4171-6"
         style="opacity:1;fill:#ff0000;fill-opacity:1;stroke:none;stroke-width:0.99900001;stroke-linecap:butt;stroke-miterlimit:4;stroke-dasharray:none;stroke-dashoffset:0;stroke-opacity:1" />
      <path
         sodipodi:nodetypes="ccccc"
         inkscape:connector-curvature="0"
         id="path4147-4-6"
         d="m 510.30721,162.12837 c -1.00333,18.24031 -18.71994,29.45558 -35,45 0.17752,7.5 -2.81866,15 2.5,22.5 34.81961,-8.61496 42.47194,-37.53527 48.21428,-66.78571 -3.93162,-9.81516 -10.84274,-14.29462 -15.71428,-0.71429 z"
         style="fill:#ff0000;fill-rule:evenodd;stroke:#000000;stroke-width:1px;stroke-linecap:butt;stroke-linejoin:miter;stroke-opacity:1" />
      <path
         sodipodi:nodetypes="cccc"
         inkscape:connector-curvature="0"
         id="path4149-9-1"
         d="m 376.02149,318.55694 c -7.03932,-1.69567 -10.55276,-7.6224 -12.85714,-15 12.15973,-20.57274 29.35391,-34.43288 47.14286,-47.5 11.29838,15.7829 -22.34183,41.55215 -34.28572,62.5 z"
         style="fill:#ff0000;fill-rule:evenodd;stroke:#000000;stroke-width:1px;stroke-linecap:butt;stroke-linejoin:miter;stroke-opacity:1" />
      <path
         sodipodi:nodetypes="ccccccc"
         inkscape:connector-curvature="0"
         id="path4157-3-8"
         d="m 343.16435,312.48551 c -0.0181,-29.04762 -3.81756,-59.88095 1.42857,-88.92857 10.9192,-7.29113 21.48127,-8.09363 31.68618,0.33372 17.16022,3.65999 27.22762,-4.16927 39.02811,-6.76229 0.91973,5.71429 2.19482,11.42857 -4.28572,17.14286 -12.1491,16.40566 -28.06889,18.98549 -42.85714,25.71428 -12.60498,16.88977 -18.92502,34.67738 -25,52.5 z"
         style="fill:#ff0000;fill-rule:evenodd;stroke:#000000;stroke-width:1px;stroke-linecap:butt;stroke-linejoin:miter;stroke-opacity:1" />
      <path
         sodipodi:nodetypes="ccccccccc"
         inkscape:connector-curvature="0"
         id="path4163-8-7"
         d="m 391.02149,204.27123 c 1.05395,-19.48959 -18.41693,-29.85702 -33.57142,-42.14286 l -15,5.71429 -7.85715,-7.85715 c 2.30725,-21.54762 2.56743,-43.09524 13.92857,-64.642851 67.29149,-24.94167 120.42149,-7.94024 155.35715,57.500001 -2.52854,18.16915 -17.722,34.68636 -42.14286,50 -9.38359,-8.94644 -21.84292,-8.47248 -35,-8.92857 -8.08653,11.15853 -18.17887,16.2066 -35.71429,10.35714 z"
         style="fill:#ff0000;fill-rule:evenodd;stroke:#000000;stroke-width:1px;stroke-linecap:butt;stroke-linejoin:miter;stroke-opacity:1" />
      <path
         sodipodi:nodetypes="ccccccccccc"
         inkscape:connector-curvature="0"
         id="path4167-8-0"
         d="m 471.02149,102.84266 c 0.17699,-10.238101 3.45039,-20.476191 15,-30.714291 19.77289,-15.49305 44.96552,-15.81085 69.28571,-18.57143 5.52177,6.77407 5.42339,20.85436 1.42857,40 -11.88216,18.095241 -27.66204,36.190481 -33.57142,54.285721 -11.80853,-3.00043 -15.97847,-9.27453 -21.42857,-15 5.7612,-10.27113 12.17652,-19.34305 23.57143,-19.28572 6.76314,-13.720381 17.74594,-25.029521 18.57142,-42.142851 -15.47618,-1.63282 -30.95237,1.88674 -46.42856,13.57142 -8.5641,7.779 -12.82868,16.274591 -15.71429,25.000001 -3.57143,1.92992 -7.14286,2.21848 -10.71429,-7.14285 z"
         style="fill:#ff0000;fill-rule:evenodd;stroke:#000000;stroke-width:1px;stroke-linecap:butt;stroke-linejoin:miter;stroke-opacity:1" />
      <path
         sodipodi:nodetypes="ccccccc"
         inkscape:connector-curvature="0"
         id="path4169-9-1"
         d="m 492.45007,119.27123 c -2.89086,-6.19048 1.05938,-12.38095 3.57142,-18.57143 10,-12.089501 19.64286,-18.732341 29.64286,-17.500001 5.05972,-0.774 4.26933,7.15924 1.78572,13.92857 -6.66667,6.839881 -13.33333,11.492741 -20,13.571431 l -3.57143,11.42857 c -3.80952,-0.12792 -7.61905,3.29049 -11.42857,-2.85714 z"
         style="fill:#ff0000;fill-rule:evenodd;stroke:#000000;stroke-width:1px;stroke-linecap:butt;stroke-linejoin:miter;stroke-opacity:1" />
      <ellipse
         transform="scale(-1,1)"
         ry="11.607143"
         rx="11.25"
         cy="197.66406"
         cx="-359.41437"
         id="path4171-6-3"
         style="opacity:1;fill:#ff0000;fill-opacity:1;stroke:none;stroke-width:0.99900001;stroke-linecap:butt;stroke-miterlimit:4;stroke-dasharray:none;stroke-dashoffset:0;stroke-opacity:1" />
    </g>
  </g>
</svg>
