<?xml version="1.0" encoding="utf-8"?>
<!-- Generator: Adobe Illustrator 15.0.2, SVG Export Plug-In . SVG Version: 6.00 Build 0)  -->
<!DOCTYPE svg PUBLIC "-//W3C//DTD SVG 1.1//EN" "http://www.w3.org/Graphics/SVG/1.1/DTD/svg11.dtd">
<svg version="1.1" xmlns="http://www.w3.org/2000/svg" xmlns:xlink="http://www.w3.org/1999/xlink" x="0px" y="0px"
	 width="374px" height="562px" viewBox="0 0 374 562" enable-background="new 0 0 374 562"
	 xml:space="preserve">
<g id="shield">
	<g>
		<path fill="#FCC917" d="M191.629,550.915c-56.322,0-110.573-18.86-179.573-49.053V59.71c57-31.404,115.298-47.317,173.549-47.317
			c58.489,0,117.451,15.948,176.451,47.412v439.536c-66,35.431-118.391,51.574-170.408,51.574
			C191.642,550.915,191.636,550.915,191.629,550.915z"/>
		<path fill="#345935" d="M185.577,24.393c54.391,0,109.479,14.34,164.479,42.652V492.15c-61,32.072-110.025,46.477-158.304,46.477
			c-52.295,0-103.696-16.903-167.696-44.62V66.859c26-13.631,51.759-24.08,77.626-31.115
			C129.376,28.212,157.616,24.393,185.577,24.393 M185.605,0.393c-58.194,0-120.549,15.083-185.549,52.297v456.989
			c73,32.667,131.603,52.947,191.696,52.947c54.632,0,111.304-16.746,182.304-56.173c0-46.318,0-422.68,0-453.764
			C318.056,21.789,254.895,0.393,185.605,0.393L185.605,0.393z"/>
		<path fill="#347E35" d="M185.577,22.393c55.074,0,110.479,14.604,166.479,43.437v427.525
			c-62,32.631-111.399,47.272-160.304,47.272c-52.962,0-104.696-17.179-169.696-45.308V65.659
			c26-13.978,52.734-24.673,79.101-31.844C129.022,26.235,157.438,22.393,185.577,22.393 M185.605,0.393
			c-58.194,0-120.549,15.083-185.549,52.297v456.989c73,32.667,131.603,52.947,191.696,52.947
			c54.632,0,111.304-16.746,182.304-56.173c0-46.318,0-422.68,0-453.764C318.056,21.789,254.895,0.393,185.605,0.393L185.605,0.393z
			"/>
		<path fill="#345935" d="M185.605,2.393c61.922,0,124.451,17.315,186.451,51.474v451.406c-70,38.274-125.13,55.354-180.304,55.354
			c-59.687,0-116.696-19.977-189.696-52.248V53.851C62.056,19.704,123.873,2.393,185.605,2.393 M185.605,0.393
			c-58.194,0-120.549,15.083-185.549,52.297v456.989c73,32.667,131.603,52.947,191.696,52.947
			c54.632,0,111.304-16.746,182.304-56.173c0-46.318,0-422.68,0-453.764C318.056,21.789,254.895,0.393,185.605,0.393L185.605,0.393z
			"/>
	</g>
</g>
<g id="wave">
	<path fill="#347E35" d="M169,23c-8.889,97.037,56.666,104.445,74.814,135.186c14.387,24.369,19.967,80.212,36.263,100.953
		s63.01,37.95,72.27,74.973c0.621,37.157-0.228,154.074-0.755,160c-15.185,9.63-86.296,39.631-100.37,40.371
		c-45.555-24.815-44.567-75.803-58.519-112.964c-14.012-37.324-26.015-28.319-65.925-71.296
		c-32.729-35.244-10.491-66.104-39.666-100.556c-25.023-29.55-45.528-33.895-64.545-68.952c-0.84-43.062-0.059-85.862-0.152-114.752
		C33.657,59.874,80.241,26.507,169.13,22.804z"/>
</g>
<g id="flash">
	<polygon fill="#fff" points="64,115 248,240 191,239 299,347 247,347 306,444 142,306 179,306 93,213 131,211 	"/>
</g>
<g id="shield2">
	<g>
		<path fill="#345935" d="M185.577,24.393c54.391,0,109.479,14.34,164.479,42.652V492.15c-61,32.072-110.025,46.477-158.304,46.477
			c-52.295,0-103.696-16.903-167.696-44.62V66.859c26-13.631,51.759-24.08,77.626-31.115
			C129.376,28.212,157.616,24.393,185.577,24.393 M185.605,0.393c-58.194,0-120.549,15.083-185.549,52.297v456.989
			c73,32.667,131.603,52.947,191.696,52.947c54.632,0,111.304-16.746,182.304-56.173c0-46.318,0-422.68,0-453.764
			C318.056,21.789,254.895,0.393,185.605,0.393L185.605,0.393z"/>
		<path fill="#347E35" d="M185.577,22.393c55.074,0,110.479,14.604,166.479,43.437v427.525
			c-62,32.631-111.399,47.272-160.304,47.272c-52.962,0-104.696-17.179-169.696-45.308V65.659
			c26-13.978,52.734-24.673,79.101-31.844C129.022,26.235,157.438,22.393,185.577,22.393 M185.605,0.393
			c-58.194,0-120.549,15.083-185.549,52.297v456.989c73,32.667,131.603,52.947,191.696,52.947
			c54.632,0,111.304-16.746,182.304-56.173c0-46.318,0-422.68,0-453.764C318.056,21.789,254.895,0.393,185.605,0.393L185.605,0.393z
			"/>
		<path fill="#345935" d="M185.605,2.393c61.922,0,124.451,17.315,186.451,51.474v451.406c-70,38.274-125.13,55.354-180.304,55.354
			c-59.687,0-116.696-19.977-189.696-52.248V53.851C62.056,19.704,123.873,2.393,185.605,2.393 M185.605,0.393
			c-58.194,0-120.549,15.083-185.549,52.297v456.989c73,32.667,131.603,52.947,191.696,52.947
			c54.632,0,111.304-16.746,182.304-56.173c0-46.318,0-422.68,0-453.764C318.056,21.789,254.895,0.393,185.605,0.393L185.605,0.393z
			"/>
	</g>
</g>
</svg>
