<?xml version="1.0" encoding="UTF-8" standalone="no"?>
<!-- Created with Inkscape (http://www.inkscape.org/) -->
<svg
   xmlns:svg="http://www.w3.org/2000/svg"
   xmlns="http://www.w3.org/2000/svg"
   version="1.0"
   width="871"
   height="297"
   id="svg2">
  <defs
     id="defs4" />
  <g
     transform="translate(60.5,-383.86218)"
     id="layer1">
    <rect
       width="871"
       height="297"
       x="-60"
       y="383.36218"
       style="opacity:1;fill:#008000;fill-opacity:1;stroke:#000000;stroke-width:1;stroke-linecap:round;stroke-linejoin:miter;stroke-miterlimit:4;stroke-dasharray:none;stroke-dashoffset:0;stroke-opacity:1"
       id="rect2170" />
    <g
       id="g2184">
      <path
         d="M 62.261597 259.24564 A 23.18251 23.18251 0 1 1  15.896576,259.24564 A 23.18251 23.18251 0 1 1  62.261597 259.24564 z"
         transform="matrix(1.0285801,0,0,0.9714372,-60.954525,389.94224)"
         style="opacity:1;fill:#ffffff;fill-opacity:1;stroke:#000000;stroke-width:1;stroke-linecap:round;stroke-linejoin:miter;stroke-miterlimit:4;stroke-dasharray:none;stroke-dashoffset:0;stroke-opacity:1"
         id="path2172" />
      <text
         x="-20.724375"
         y="651.80457"
         style="font-size:28px;font-style:normal;font-weight:bold;text-align:center;text-anchor:middle;fill:#000000;fill-opacity:1;stroke:none;stroke-width:1px;stroke-linecap:butt;stroke-linejoin:miter;stroke-opacity:1;font-family:Arial"
         id="text2174"
         xml:space="preserve"><tspan
           x="-20.724375"
           y="651.80457"
           id="tspan2176">CB</tspan></text>
    </g>
    <g
       transform="translate(793.04388,7.5678537)"
       id="g2189">
      <path
         d="M 62.261597 259.24564 A 23.18251 23.18251 0 1 1  15.896576,259.24564 A 23.18251 23.18251 0 1 1  62.261597 259.24564 z"
         transform="matrix(1.0285801,0,0,0.9714372,-60.954525,389.94224)"
         style="opacity:1;fill:#ffffff;fill-opacity:1;stroke:#000000;stroke-width:1;stroke-linecap:round;stroke-linejoin:miter;stroke-miterlimit:4;stroke-dasharray:none;stroke-dashoffset:0;stroke-opacity:1"
         id="path2191" />
      <text
         x="-20.724375"
         y="651.80457"
         style="font-size:28px;font-style:normal;font-weight:bold;text-align:center;text-anchor:middle;fill:#000000;fill-opacity:1;stroke:none;stroke-width:1px;stroke-linecap:butt;stroke-linejoin:miter;stroke-opacity:1;font-family:Arial"
         id="text2193"
         xml:space="preserve"><tspan
           x="-20.724375"
           y="651.80457"
           id="tspan2195">CB</tspan></text>
    </g>
    <g
       transform="translate(270.90419,3.3117871)"
       id="g2197">
      <path
         d="M 62.261597 259.24564 A 23.18251 23.18251 0 1 1  15.896576,259.24564 A 23.18251 23.18251 0 1 1  62.261597 259.24564 z"
         transform="matrix(1.0285801,0,0,0.9714372,-60.954525,389.94224)"
         style="opacity:1;fill:#ffffff;fill-opacity:1;stroke:#000000;stroke-width:1;stroke-linecap:round;stroke-linejoin:miter;stroke-miterlimit:4;stroke-dasharray:none;stroke-dashoffset:0;stroke-opacity:1"
         id="path2199" />
      <text
         x="-20.724375"
         y="651.80457"
         style="font-size:28px;font-style:normal;font-weight:bold;text-align:center;text-anchor:middle;fill:#000000;fill-opacity:1;stroke:none;stroke-width:1px;stroke-linecap:butt;stroke-linejoin:miter;stroke-opacity:1;font-family:Arial"
         id="text2201"
         xml:space="preserve"><tspan
           x="-20.724375"
           y="651.80457"
           id="tspan2203">DE</tspan></text>
    </g>
    <g
       transform="translate(359.99126,3.3117871)"
       id="g2205">
      <path
         d="M 62.261597 259.24564 A 23.18251 23.18251 0 1 1  15.896576,259.24564 A 23.18251 23.18251 0 1 1  62.261597 259.24564 z"
         transform="matrix(1.0285801,0,0,0.9714372,-60.954525,389.94224)"
         style="opacity:1;fill:#ffffff;fill-opacity:1;stroke:#000000;stroke-width:1;stroke-linecap:round;stroke-linejoin:miter;stroke-miterlimit:4;stroke-dasharray:none;stroke-dashoffset:0;stroke-opacity:1"
         id="path2207" />
      <text
         x="-20.724375"
         y="651.80457"
         style="font-size:28px;font-style:normal;font-weight:bold;text-align:center;text-anchor:middle;fill:#000000;fill-opacity:1;stroke:none;stroke-width:1px;stroke-linecap:butt;stroke-linejoin:miter;stroke-opacity:1;font-family:Arial"
         id="text2209"
         xml:space="preserve"><tspan
           x="-20.724375"
           y="651.80457"
           id="tspan2211">DT</tspan></text>
    </g>
    <g
       transform="translate(449.07834,3.3117871)"
       id="g2213">
      <path
         d="M 62.261597 259.24564 A 23.18251 23.18251 0 1 1  15.896576,259.24564 A 23.18251 23.18251 0 1 1  62.261597 259.24564 z"
         transform="matrix(1.0285801,0,0,0.9714372,-60.954525,389.94224)"
         style="opacity:1;fill:#ffffff;fill-opacity:1;stroke:#000000;stroke-width:1;stroke-linecap:round;stroke-linejoin:miter;stroke-miterlimit:4;stroke-dasharray:none;stroke-dashoffset:0;stroke-opacity:1"
         id="path2215" />
      <text
         x="-20.724375"
         y="651.80457"
         style="font-size:28px;font-style:normal;font-weight:bold;text-align:center;text-anchor:middle;fill:#000000;fill-opacity:1;stroke:none;stroke-width:1px;stroke-linecap:butt;stroke-linejoin:miter;stroke-opacity:1;font-family:Arial"
         id="text2217"
         xml:space="preserve"><tspan
           x="-20.724375"
           y="651.80457"
           id="tspan2219">DE</tspan></text>
    </g>
    <g
       transform="translate(318.9251,-228.51331)"
       id="g2221">
      <path
         d="M 62.261597 259.24564 A 23.18251 23.18251 0 1 1  15.896576,259.24564 A 23.18251 23.18251 0 1 1  62.261597 259.24564 z"
         transform="matrix(1.0285801,0,0,0.9714372,-60.954525,389.94224)"
         style="opacity:1;fill:#ffffff;fill-opacity:1;stroke:#000000;stroke-width:1;stroke-linecap:round;stroke-linejoin:miter;stroke-miterlimit:4;stroke-dasharray:none;stroke-dashoffset:0;stroke-opacity:1"
         id="path2223" />
      <text
         x="-20.724375"
         y="651.80457"
         style="font-size:28px;font-style:normal;font-weight:bold;text-align:center;text-anchor:middle;fill:#000000;fill-opacity:1;stroke:none;stroke-width:1px;stroke-linecap:butt;stroke-linejoin:miter;stroke-opacity:1;font-family:Arial"
         id="text2225"
         xml:space="preserve"><tspan
           x="-20.724375"
           y="651.80457"
           id="tspan2227">FS</tspan></text>
    </g>
    <g
       transform="translate(514.98289,-186.78479)"
       id="g2229">
      <path
         d="M 62.261597 259.24564 A 23.18251 23.18251 0 1 1  15.896576,259.24564 A 23.18251 23.18251 0 1 1  62.261597 259.24564 z"
         transform="matrix(1.0285801,0,0,0.9714372,-60.954525,389.94224)"
         style="opacity:1;fill:#ffffff;fill-opacity:1;stroke:#000000;stroke-width:1;stroke-linecap:round;stroke-linejoin:miter;stroke-miterlimit:4;stroke-dasharray:none;stroke-dashoffset:0;stroke-opacity:1"
         id="path2231" />
      <text
         x="-20.724375"
         y="651.80457"
         style="font-size:28px;font-style:normal;font-weight:bold;text-align:center;text-anchor:middle;fill:#000000;fill-opacity:1;stroke:none;stroke-width:1px;stroke-linecap:butt;stroke-linejoin:miter;stroke-opacity:1;font-family:Arial"
         id="text2233"
         xml:space="preserve"><tspan
           x="-20.724375"
           y="651.80457"
           id="tspan2235">SS</tspan></text>
    </g>
    <g
       transform="translate(514.98289,-45.040303)"
       id="g2237">
      <path
         d="M 62.261597 259.24564 A 23.18251 23.18251 0 1 1  15.896576,259.24564 A 23.18251 23.18251 0 1 1  62.261597 259.24564 z"
         transform="matrix(1.0285801,0,0,0.9714372,-60.954525,389.94224)"
         style="opacity:1;fill:#ffffff;fill-opacity:1;stroke:#000000;stroke-width:1;stroke-linecap:round;stroke-linejoin:miter;stroke-miterlimit:4;stroke-dasharray:none;stroke-dashoffset:0;stroke-opacity:1"
         id="path2239" />
      <text
         x="-20.792183"
         y="648.25684"
         style="font-size:18.08080292px;font-style:normal;font-weight:bold;text-align:center;text-anchor:middle;fill:#000000;fill-opacity:1;stroke:none;stroke-width:1px;stroke-linecap:butt;stroke-linejoin:miter;stroke-opacity:1;font-family:Arial"
         id="text2241"
         xml:space="preserve"><tspan
           x="-20.792183"
           y="648.25684"
           id="tspan2243">SLB</tspan></text>
    </g>
    <g
       transform="translate(215.59734,-41.728516)"
       id="g2253">
      <path
         d="M 62.261597 259.24564 A 23.18251 23.18251 0 1 1  15.896576,259.24564 A 23.18251 23.18251 0 1 1  62.261597 259.24564 z"
         transform="matrix(1.0285801,0,0,0.9714372,-60.954525,389.94224)"
         style="opacity:1;fill:#ffffff;fill-opacity:1;stroke:#000000;stroke-width:1;stroke-linecap:round;stroke-linejoin:miter;stroke-miterlimit:4;stroke-dasharray:none;stroke-dashoffset:0;stroke-opacity:1"
         id="path2255" />
      <text
         x="-20.792183"
         y="648.25684"
         style="font-size:18.08080292px;font-style:normal;font-weight:bold;text-align:center;text-anchor:middle;fill:#000000;fill-opacity:1;stroke:none;stroke-width:1px;stroke-linecap:butt;stroke-linejoin:miter;stroke-opacity:1;font-family:Arial"
         id="text2257"
         xml:space="preserve"><tspan
           x="-20.792185"
           y="648.25684"
           id="tspan2259">WLB</tspan></text>
    </g>
    <g
       transform="translate(408.3311,-70.872243)"
       id="g2261">
      <path
         d="M 62.261597 259.24564 A 23.18251 23.18251 0 1 1  15.896576,259.24564 A 23.18251 23.18251 0 1 1  62.261597 259.24564 z"
         transform="matrix(1.0285801,0,0,0.9714372,-60.954525,389.94224)"
         style="opacity:1;fill:#ffffff;fill-opacity:1;stroke:#000000;stroke-width:1;stroke-linecap:round;stroke-linejoin:miter;stroke-miterlimit:4;stroke-dasharray:none;stroke-dashoffset:0;stroke-opacity:1"
         id="path2263" />
      <text
         x="-20.792183"
         y="648.25684"
         style="font-size:18.08080292px;font-style:normal;font-weight:bold;text-align:center;text-anchor:middle;fill:#000000;fill-opacity:1;stroke:none;stroke-width:1px;stroke-linecap:butt;stroke-linejoin:miter;stroke-opacity:1;font-family:Arial"
         id="text2265"
         xml:space="preserve"><tspan
           x="-20.792183"
           y="648.25684"
           id="tspan2267">MLB</tspan></text>
    </g>
    <g
       transform="translate(301.62436,-70.872243)"
       id="g2297">
      <path
         d="M 62.261597 259.24564 A 23.18251 23.18251 0 1 1  15.896576,259.24564 A 23.18251 23.18251 0 1 1  62.261597 259.24564 z"
         transform="matrix(1.0285801,0,0,0.9714372,-60.954525,389.94224)"
         style="opacity:1;fill:#ffffff;fill-opacity:1;stroke:#000000;stroke-width:1;stroke-linecap:round;stroke-linejoin:miter;stroke-miterlimit:4;stroke-dasharray:none;stroke-dashoffset:0;stroke-opacity:1"
         id="path2299" />
      <text
         x="-20.792183"
         y="648.25684"
         style="font-size:18.08080292px;font-style:normal;font-weight:bold;text-align:center;text-anchor:middle;fill:#000000;fill-opacity:1;stroke:none;stroke-width:1px;stroke-linecap:butt;stroke-linejoin:miter;stroke-opacity:1;font-family:Arial"
         id="text2301"
         xml:space="preserve"><tspan
           x="-20.792183"
           y="648.25684"
           id="tspan2303">MLB</tspan></text>
    </g>
  </g>
</svg>
