<?xml version="1.0" encoding="UTF-8"?>
<svg xmlns="http://www.w3.org/2000/svg" width="680" height="600" viewBox="20 20 680 600" style="background-color:#fff">
  <style type="text/css">
    <![CDATA[
    text {
	  font-family:'DejaVuSansCondensed-Bold', sans-serif;        
	  font-stretch: condensed;
	  font-weight: bold;
      font-size: 27px;
      text-anchor: middle;
    }
    rect {stroke:black; fill:white}
    path {stroke:black; fill:white}
    .io-right { text-anchor: start; }
    ]]>
  </style>
    
  <svg x="40" y="40" width="160" height="560"><rect width="100%" height="100%" stroke-width="4px"></rect>
  <switch>
  <g systemLanguage="en"><text x="50%" y="50%" text-anchor="middle" dy=".3em">Processor</text></g>
  <g systemLanguage="de"><text x="50%" y="50%" text-anchor="middle" dy=".3em">Prozessor</text></g>
  </switch>
  </svg>  

  <svg x="320" y="40" width="160" height="240"><rect width="100%" height="100%" stroke-width="4px"></rect>
  <text x="50%" y=".6em" text-anchor="middle" dy=".3em">Chipset</text></svg>  
    
  <svg x="330" y="70" width="140" height="60"><rect width="100%" height="100%" stroke-width="4px"></rect>
  <text x="50%" y="50%" text-anchor="middle" dy=".3em">Paula</text></svg>  
    
  <svg x="330" y="140" width="140" height="60"><rect width="100%" height="100%" stroke-width="4px"></rect>
  <text x="50%" y="50%" text-anchor="middle" dy=".3em">Denise</text></svg>  
    
  <svg x="330" y="210" width="140" height="60"><rect width="100%" height="100%" stroke-width="4px"></rect>
  <text x="50%" y="50%" text-anchor="middle" dy=".3em">Agnus</text></svg>  
    
  <svg x="320" y="360" width="160" height="100"><rect width="100%" height="100%" stroke-width="4px"></rect>
  <text x="50%" y="50%" text-anchor="middle" dy=".3em">Chip RAM</text></svg>  

  <svg x="320" y="500" width="160" height="100"><rect width="100%" height="100%" stroke-width="4px"></rect>
  <text x="50%" y="50%" text-anchor="middle" dy=".3em">Fast RAM</text></svg>  
    
  <path d="M485 85l30.0.0zM485 85l8.01-3.97-2.01 3.99 1.98 4.01zM518.08 85l-8.01 3.97 2.01-3.99-1.98-4.01z" stroke-width="4"/>
  <switch>
  <g systemLanguage="en"><text x="527" y="92" class="io-right">further I/O</text></g>
  <g systemLanguage="de"><text x="527" y="92" class="io-right">weitere I/O</text></g>
  </switch>  
  
  <path d="M480 115l31.12.13zM517.08 115l-8.01 3.97 2.01-3.99-1.98-4.01z" stroke-width="4"/>
  <text x="527" y="122" class="io-right">Audio</text>
  
  <path d="M480 145l31.12.13zM518.08 145l-8.01 3.97 2.01-3.99-1.98-4.01z" stroke-width="4"/>
  <text x="527" y="152" class="io-right">Video</text>

  <path d="M214 93.1h92V70l14 30-14 30v-23.1h-92V130l-14-30 14-30z" stroke-width="2px"/>
  <path d="M214 403.1h92V380l14 30-14 30v-23.1h-92V440l-14-30 14-30z" stroke-width="2px"/>
  <path d="M214 543.1h92V520l14 30-14 30v-23.1h-92V580l-14-30 14-30z" stroke-width="2px"/>
  <path d="M406.9 294v52H430l-30 14-30-14h23.1v-52H370l30-14 30 14z" stroke-width="2px"/>
</svg>