<?xml version="1.0" encoding="UTF-8" standalone="no"?>
<!-- Created with Inkscape (http://www.inkscape.org/) -->

<svg
   xmlns:dc="http://purl.org/dc/elements/1.1/"
   xmlns:cc="http://creativecommons.org/ns#"
   xmlns:rdf="http://www.w3.org/1999/02/22-rdf-syntax-ns#"
   xmlns:svg="http://www.w3.org/2000/svg"
   xmlns="http://www.w3.org/2000/svg"
   xmlns:xlink="http://www.w3.org/1999/xlink"
   xmlns:sodipodi="http://sodipodi.sourceforge.net/DTD/sodipodi-0.dtd"
   xmlns:inkscape="http://www.inkscape.org/namespaces/inkscape"
   width="1110"
   height="800"
   id="svg2913"
   sodipodi:version="0.32"
   inkscape:version="0.92.2 2405546, 2018-03-11"
   sodipodi:docname="Antarctic-seas-en.svg"
   inkscape:export-filename="D:\Wikipédia\Guatemala carte.svg"
   inkscape:export-xdpi="72.000000"
   inkscape:export-ydpi="72.000000"
   version="1.0"
   inkscape:output_extension="org.inkscape.output.svg.inkscape"
   style="display:inline"
   viewBox="-150 0 1110 800">
  <title
     id="title4246">Antarctic-seas-en</title>
  <defs
     id="defs2915">
    <linearGradient
       inkscape:collect="always"
       id="linearGradient1014">
      <stop
         id="stop1012"
         offset="0"
         style="stop-color:#27aaea;stop-opacity:0;" />
      <stop
         id="stop1010"
         offset="1"
         style="stop-color:#27aaea;stop-opacity:1;" />
    </linearGradient>
    <linearGradient
       inkscape:collect="always"
       id="linearGradient998">
      <stop
         id="stop996"
         offset="0"
         style="stop-color:#27aaea;stop-opacity:0;" />
      <stop
         id="stop994"
         offset="1"
         style="stop-color:#27aaea;stop-opacity:1;" />
    </linearGradient>
    <linearGradient
       id="linearGradient988"
       inkscape:collect="always">
      <stop
         style="stop-color:#27aaea;stop-opacity:0;"
         offset="0"
         id="stop986" />
      <stop
         style="stop-color:#27aaea;stop-opacity:1;"
         offset="1"
         id="stop984" />
    </linearGradient>
    <linearGradient
       id="linearGradient980"
       inkscape:collect="always">
      <stop
         style="stop-color:#27aaea;stop-opacity:0;"
         offset="0"
         id="stop978" />
      <stop
         style="stop-color:#27aaea;stop-opacity:1;"
         offset="1"
         id="stop976" />
    </linearGradient>
    <linearGradient
       id="linearGradient972"
       inkscape:collect="always">
      <stop
         style="stop-color:#27aaea;stop-opacity:0;"
         offset="0"
         id="stop970" />
      <stop
         style="stop-color:#27aaea;stop-opacity:1;"
         offset="1"
         id="stop968" />
    </linearGradient>
    <linearGradient
       inkscape:collect="always"
       id="linearGradient958">
      <stop
         id="stop956"
         offset="0"
         style="stop-color:#27aaea;stop-opacity:0;" />
      <stop
         id="stop954"
         offset="1"
         style="stop-color:#27aaea;stop-opacity:1;" />
    </linearGradient>
    <inkscape:perspective
       sodipodi:type="inkscape:persp3d"
       inkscape:vp_x="0 : 402 : 1"
       inkscape:vp_y="0 : 1000 : 0"
       inkscape:vp_z="804 : 402 : 1"
       inkscape:persp3d-origin="402 : 268 : 1"
       id="perspective27" />
    <radialGradient
       inkscape:collect="always"
       xlink:href="#linearGradient972"
       id="radialGradient960"
       cx="402.62448"
       cy="401.98376"
       fx="402.62448"
       fy="401.98376"
       r="579.97803"
       gradientTransform="matrix(1,0,0,0.58027404,0,168.72302)"
       gradientUnits="userSpaceOnUse" />
    <radialGradient
       inkscape:collect="always"
       xlink:href="#linearGradient980"
       id="radialGradient962"
       cx="402.01648"
       cy="400.87576"
       fx="402.01648"
       fy="400.87576"
       r="336.54623"
       gradientTransform="matrix(1,0,0,1.7233236,0,-289.9629)"
       gradientUnits="userSpaceOnUse" />
    <radialGradient
       inkscape:collect="always"
       xlink:href="#linearGradient988"
       id="radialGradient964"
       cx="402.81903"
       cy="402.33453"
       fx="402.81903"
       fy="402.33453"
       r="579.97809"
       gradientTransform="matrix(1,0,0,0.58027403,0,168.87025)"
       gradientUnits="userSpaceOnUse" />
    <radialGradient
       inkscape:collect="always"
       xlink:href="#linearGradient958"
       id="radialGradient966"
       cx="403.48404"
       cy="401.37579"
       fx="403.48404"
       fy="401.37579"
       r="336.54623"
       gradientTransform="matrix(1,0,0,1.7233235,0,-290.32455)"
       gradientUnits="userSpaceOnUse" />
    <radialGradient
       inkscape:collect="always"
       xlink:href="#linearGradient998"
       id="radialGradient1006"
       gradientUnits="userSpaceOnUse"
       gradientTransform="matrix(-1.681328e-5,0.15801427,-1.0095917,-1.0699988e-4,1036.368,337.19206)"
       cx="410.56454"
       cy="627.37036"
       fx="410.56454"
       fy="627.37036"
       r="567" />
    <radialGradient
       inkscape:collect="always"
       xlink:href="#linearGradient1014"
       id="radialGradient1018"
       gradientUnits="userSpaceOnUse"
       gradientTransform="matrix(30.148103,0,3.7708391e-8,1277.6036,-11746.694,-524480.11)"
       cx="403.00027"
       cy="410.84024"
       fx="403.00027"
       fy="410.84024"
       r="0.49984485" />
  </defs>
  <sodipodi:namedview
     id="base"
     pagecolor="#ffffff"
     bordercolor="#666666"
     borderopacity="1.0"
     inkscape:pageopacity="0.0"
     inkscape:pageshadow="2"
     inkscape:zoom="0.89179884"
     inkscape:cx="653.04059"
     inkscape:cy="382.7573"
     inkscape:document-units="px"
     inkscape:current-layer="layer7"
     inkscape:window-width="1600"
     inkscape:window-height="836"
     inkscape:window-x="0"
     inkscape:window-y="0"
     showguides="true"
     inkscape:guide-bbox="true"
     width="804px"
     height="804px"
     showgrid="false"
     inkscape:window-maximized="1"
     inkscape:snap-grids="true"
     viewbox-x="-150"
     viewbox-y="0" />
  <metadata
     id="metadata2918">
    <rdf:RDF>
      <cc:Work
         rdf:about="">
        <dc:format>image/svg+xml</dc:format>
        <dc:type
           rdf:resource="http://purl.org/dc/dcmitype/StillImage" />
        <dc:creator>
          <cc:Agent>
            <dc:title>Rooiratel</dc:title>
          </cc:Agent>
        </dc:creator>
        <dc:date>2008-03-23</dc:date>
        <cc:license
           rdf:resource="http://creativecommons.org/licenses/by-sa/4.0/" />
        <dc:rights>
          <cc:Agent>
            <dc:title>by-sa 3.0 + GPL</dc:title>
          </cc:Agent>
        </dc:rights>
        <dc:description>Antarctic seas - English version</dc:description>
        <dc:language>English</dc:language>
        <dc:title>Antarctic-seas-en</dc:title>
        <dc:publisher>
          <cc:Agent>
            <dc:title>Inkscape</dc:title>
          </cc:Agent>
        </dc:publisher>
        <dc:coverage />
        <dc:subject>
          <rdf:Bag>
            <rdf:li>map</rdf:li>
          </rdf:Bag>
        </dc:subject>
        <dc:source>https://commons.wikimedia.org/wiki/File:Antarctic_circle.svg</dc:source>
        <dc:contributor>
          <cc:Agent>
            <dc:title>Rooiratel - labels, minor edits
STyx - original map</dc:title>
          </cc:Agent>
        </dc:contributor>
      </cc:Work>
      <cc:License
         rdf:about="http://creativecommons.org/licenses/by-sa/4.0/">
        <cc:permits
           rdf:resource="http://creativecommons.org/ns#Reproduction" />
        <cc:permits
           rdf:resource="http://creativecommons.org/ns#Distribution" />
        <cc:requires
           rdf:resource="http://creativecommons.org/ns#Notice" />
        <cc:requires
           rdf:resource="http://creativecommons.org/ns#Attribution" />
        <cc:permits
           rdf:resource="http://creativecommons.org/ns#DerivativeWorks" />
        <cc:requires
           rdf:resource="http://creativecommons.org/ns#ShareAlike" />
      </cc:License>
    </rdf:RDF>
  </metadata>
  <g
     inkscape:groupmode="layer"
     id="layer6"
     inkscape:label="Miscellaneous"
     style="display:inline"
     sodipodi:insensitive="true"
     transform="translate(0,-4)">
    <rect
       y="-0.5"
       x="0.5"
       height="804"
       width="804"
       id="rect2175"
       style="display:inline;fill:none;stroke:#000000;stroke-width:1px" />
    <text
       id="note"
       y="-17.774195"
       x="32.45755"
       style="font-style:normal;font-weight:normal;line-height:0%;font-family:'Bitstream Vera Sans';display:inline;fill:#000000;fill-opacity:1;stroke:none;stroke-width:1px;stroke-linecap:butt;stroke-linejoin:miter;stroke-opacity:1"
       xml:space="preserve"><tspan
         y="-17.774195"
         x="32.45755"
         id="tspan3773"
         sodipodi:role="line"
         style="font-size:12px;line-height:1.25">Note : Les images sources sont mises en commentaire dans le code SVG</tspan></text>
  </g>
  <g
     inkscape:groupmode="layer"
     id="layer1"
     inkscape:label="Southern Ocean"
     style="display:inline"
     sodipodi:insensitive="true"
     transform="translate(0,-4)">
    <rect
       y="-228"
       x="-158"
       height="1278"
       width="1134"
       id="Océan (fond)"
       style="display:inline;fill:#daf0fd;fill-opacity:1;stroke:none" />
  </g>
  <g
     inkscape:groupmode="layer"
     id="layer2"
     inkscape:label="Southern Countries"
     style="display:inline"
     sodipodi:insensitive="true"
     transform="translate(0,-4)">
    <path
       id="Kerguelen"
       style="fill:#f4e2ba;fill-opacity:1;fill-rule:nonzero;stroke:#27aaea;stroke-width:1px;stroke-opacity:1"
       d="m 901.00004,205.9996 5,-1 11,-4 -2,7 -3,4 7,8 h -5 l -7,-4 z m -24,51 1,7 -4,-2 z"
       inkscape:connector-curvature="0" />
    <path
       id="Antarctique"
       style="fill:#fcf5e3;fill-opacity:1;fill-rule:nonzero;stroke:#27aaea;stroke-width:1px;stroke-linecap:round;stroke-linejoin:round;stroke-opacity:1"
       d="m 113.93764,286.41109 c -0.3003,0 -1.91275,-1.13338 -3.58322,-2.51862 l -3.03721,-2.51862 2.20616,-0.0426 2.20615,-0.0426 1.37706,2.56122 c 0.75738,1.40868 1.13136,2.56123 0.83106,2.56123 z m 394.5625,377.473 -5.1462,-0.011 -2.7245,-1.58189 c -1.4984,-0.87003 -4.3436,-2.71874 -6.3226,-4.10824 l -3.598,-2.52634 -15.4415,0.2903 -15.4415,0.29031 -2.4873,-2.24609 c -1.3681,-1.23536 -4.8898,-3.40365 -7.8261,-4.81843 l -5.3387,-2.57234 0.5764,-1.9098 c 0.317,-1.0504 0.471,-4.12577 0.342,-6.83418 l -0.2344,-4.92436 1.3114,-2.43915 1.3115,-2.43916 h 1.8861 1.8862 l 3.9921,-8.41052 3.9921,-8.41052 0.2593,-3.72824 0.2593,-3.72826 3.0352,-3.21589 3.0351,-3.21591 -1.6598,-3.53435 c -0.9128,-1.94389 -2.9984,-7.6788 -4.6346,-12.74426 l -2.9748,-9.2099 -6.6236,-8.38963 -6.6236,-8.38964 2.699,-4.34704 c 1.4845,-2.39088 3.5946,-5.08686 4.6891,-5.99108 l 1.9901,-1.64402 -0.8684,-5.11644 -0.8684,-5.11643 -2.4189,-3.94854 c -1.3305,-2.1717 -2.4211,-4.82149 -2.4238,-5.88843 -0.003,-1.06693 -1.1251,-4.0206 -2.4945,-6.56369 -1.3693,-2.54309 -4.9876,-7.19979 -8.0407,-10.34822 -3.0532,-3.14844 -8.5158,-8.84347 -12.1393,-12.65563 l -6.588,-6.9312 -10.1368,-5.05299 -10.1368,-5.05299 -6.0572,-6.28628 c -3.3315,-3.45746 -7.9307,-7.66215 -10.2205,-9.34375 l -4.1633,-3.05747 h -3.65 -3.6501 l -0.8324,2.15931 -0.8324,2.15932 2.4311,1.36237 c 1.3372,0.74929 4.1046,2.96145 6.1499,4.9159 l 3.7188,3.55353 -1.5741,1.88791 -1.5741,1.8879 1.6163,3.88406 1.6162,3.88405 -0.7062,0.70299 -0.7062,0.70301 -2.7655,-1.47323 -2.7655,-1.47324 -1.8475,1.52628 -1.8476,1.52629 v 4.32533 4.32534 h -0.9771 c -0.5373,0 -1.7225,-1.1882 -2.6336,-2.64047 l -1.6566,-2.64045 -3.4663,0.39938 -3.4662,0.3994 -3.0199,5.75596 -3.0199,5.75598 0.7971,4.96123 0.7969,4.96123 -2.291,-0.96558 c -1.2601,-0.53107 -3.449,-1.03174 -4.8641,-1.11261 l -2.5731,-0.14704 -0.4071,3.52168 -0.4071,3.52168 h -2.2469 -2.2469 l -3.4227,3.55612 -3.4227,3.55611 0.774,4.74736 0.7739,4.74736 1.7648,1.45791 1.7648,1.45792 v 3.54803 3.54801 l -1.9298,0.73713 -1.9298,0.73712 v 1.99281 1.9928 l 3.2163,1.21722 3.2164,1.21722 v 1.84787 c 0,1.01634 -0.3514,2.75943 -0.781,3.87353 l -0.7809,2.02566 h -4.1128 -4.1128 l -3.9576,-4.16199 c -2.1766,-2.28909 -4.635,-5.47471 -5.463,-7.07915 l -1.5054,-2.91717 -4.1654,0.27924 -4.1655,0.27925 -1.4082,-0.86631 -1.4082,-0.86631 -3.3675,2.63673 -3.3675,2.63671 v 1.762 1.76199 l -2.8947,3.02473 -2.8947,3.02474 -5.14613,-0.23827 c -2.83036,-0.13106 -7.02765,-0.88622 -9.32732,-1.67815 -2.29966,-0.79193 -6.06275,-2.10492 -8.36242,-2.91776 l -4.18121,-1.47789 -3.85958,0.13941 c -2.12277,0.0767 -5.16219,-0.13366 -6.75427,-0.46743 l -2.89468,-0.60683 v -2.70177 -2.70177 l -4.50031,-5.27765 c -2.47517,-2.90272 -5.22512,-5.98779 -6.11101,-6.85571 -0.88587,-0.86792 -2.97764,-2.88488 -4.64836,-4.48214 -1.67072,-1.59725 -7.10685,-8.09057 -12.08029,-14.42959 -4.97344,-6.33903 -9.83006,-11.98635 -10.79249,-12.5496 l -1.74987,-1.02409 v -2.89313 -2.89313 l -1.64341,-2.23716 -1.6434,-2.23715 -2.53782,-0.47085 c -1.39579,-0.25897 -2.78345,-0.51495 -3.08368,-0.56884 -0.30025,-0.0539 0.76529,-1.48726 2.36785,-3.18526 l 2.91375,-3.08729 -0.48848,-2.35531 -0.4885,-2.35531 -3.56871,0.25215 -3.56871,0.25216 0.41352,-2.17308 0.4135,-2.17307 4.81379,-0.39746 4.81377,-0.39745 v -5.55541 -5.55541 l -3.88449,-7.35057 -3.88449,-7.35058 0.81135,-4.30497 0.81135,-4.30496 h -1.1724 c -0.64482,0 -1.90318,0.72034 -2.79635,1.60076 l -1.62396,1.60077 -1.27033,-2.24107 -1.27033,-2.24107 h -2.50913 -2.50912 v 1.83372 1.8337 l -3.62886,2.5721 -1.62886,6.07209 -1.60052,-4.4058 -1.60053,-4.40581 h -1.75982 -1.75981 l -0.826,2.59051 c -0.4543,1.42478 -0.66431,4.45852 -0.4667,6.74165 l 0.35929,4.15114 -0.98245,1.58232 c -0.54034,-0.62972 -1.38678,1.58232 -1.88098,1.58232 h -0.89852 l -0.21509,-6.72321 c -0.11831,-3.69776 -0.20707,-9.02831 -0.19725,-11.84565 0.01,-2.81735 -0.0392,-7.13941 -0.10895,-9.60459 -0.0697,-2.46517 -0.28437,-8.90782 -0.47696,-14.31698 l -0.35017,-9.83484 -2.10773,-2.33097 -2.10772,-2.33097 2.46986,-3.02324 2.46987,-3.02325 v -2.42515 -2.42515 l 3.78158,-11.73363 5.78159,-8.23362 -0.65561,-1.68532 c -0.36061,-0.92692 -2.38339,-2.66699 -4.49508,-3.86682 l -3.83943,-2.18151 v -1.84164 -1.84165 l 3.21632,-0.80353 3.21631,-0.80354 v -1.20633 c 0,-0.66348 1.15429,-2.27676 2.56508,-3.58507 l 2.56508,-2.37874 -0.49597,-17.34568 -0.49596,-17.34569 -1.39684,-2.59803 c -0.76828,-1.42891 -3.19114,-4.10087 -5.38414,-5.93769 l -3.9873,-3.33966 h -5.43336 l -3.93335,-1 -1.32439,-1.3183 -1.3244,-1.31831 -9.73785,-1.08703 c -5.35581,-0.59787 -10.37553,-1.47933 -11.15491,-1.9588 l -1.41707,-0.87176 v -3.51015 -3.51013 l -1.54383,-1.53673 -1.54383,-1.53674 h -2.88309 -2.88309 l -0.72632,-1.16981 c -0.39947,-0.64339 -3.40735,-2.4617 -6.68419,-4.0407 l -5.95787,-2.87089 -2.33777,1.45325 -2.33779,1.45326 -0.81366,-1.31048 -0.81366,-1.31049 1.41978,-1.70287 1.41977,-1.70286 -3.2388,-2.1124 -3.23882,-2.11239 2,-1.4887 c 0,-0.81878 -1.19991,-2.76008 -2.66644,-4.31396 -1.46655,-1.55389 -2.78272,-3.60799 -2.92483,-4.56467 -0.14211,-0.95668 -1.03075,-3.59317 -1.97476,-5.85884 l -1.71638,-4.11939 -2.55231,-0.80635 -2.5523,-0.80635 0.64379,-2.45053 3.14378,-1.95054 -1.8372,-7.99105 c -1.01047,-4.39509 1.76502,-8.35547 1.27885,-9.41197 l -0.88393,-1.92092 2.44354,-9.28433 c -0.031,-5.10639 0.0388,-9.28438 0.1552,-9.28443 0.11639,-7e-5 1.60655,2.4842 3.31145,5.52058 l 3.09983,5.52068 -1.21374,2.70759 -1.21373,2.70758 -0.41653,6.08658 c 1.14593,3.34762 -0.9165,5.13203 -1.9165,7.9098 v 2.32322 l 3.65394,3.2407 c 2.00967,1.7824 2.24385,3.53402 3.57597,4.50361 l 2.42204,1.76289 -1.86422,3.46729 -1.8642,3.4673 3.18576,2.76642 1.18576,2.76642 2.82791,5.74067 2.8279,5.74066 4.50805,2.40972 4.50804,2.40971 4.88038,0.15151 4.88036,0.15151 1.13665,-2.56122 1.13664,-2.56123 8.05491,0.15612 8.0549,0.15612 4.05772,2.01494 4.05771,2.01496 4.55433,1.83042 c 3.32988,0.45673 7.61182,1.4781 9.51545,2.26969 l 3.46114,1.43927 0.61307,2.33358 0.61305,2.33359 3.21763,-0.80386 3.21762,-0.80385 1.38762,2.58086 1.38762,2.58088 -0.77629,2.01369 -0.7763,2.01368 h 1.21767 1.21766 l 1.46546,-3.20153 1.46544,-3.20152 h 1.31411 1.31411 v 3.06451 3.06452 l 2.04589,0.78148 2.04588,0.78147 1.36561,-0.84011 1.3656,-0.84011 1.41298,1.90738 c 0.77715,1.04907 2.7156,2.59807 4.30768,3.44224 l 2.89468,1.53485 v 3.84183 3.84184 l 2.07776,3.15646 2.07775,3.15648 h 2.26427 2.26428 l 0.80408,4.00191 c 0.44224,2.20105 0.80408,7.60537 0.80408,12.00961 v 8.0077 l 2.77317,1.83285 2.77317,1.83285 -2.27324,5.92506 -2.27325,5.92505 -4.89335,1.94893 c -2.69133,1.07191 -5.23737,2.50302 -5.65786,3.18024 l -0.7645,1.23132 2.1626,2.15266 2.1626,2.15266 4.60348,-0.75758 c 2.53193,-0.41666 6.80208,-1.37357 9.48923,-2.12644 l 4.88574,-1.36888 1.19342,-3.12449 1.19342,-3.1245 h 1.87494 1.87493 l 0.73018,2.29002 0.73018,2.29001 -2.29978,4.4332 c -1.26487,2.43826 -3.34116,5.9926 -4.61395,7.89855 l -2.31418,3.46537 0.83008,1.33692 c 0.45655,0.73532 1.55602,1.33694 2.44326,1.33694 h 1.61316 l 3.69771,-3.84184 3.69771,-3.84183 h 2.33236 2.33236 l -4e-5,2.88137 -4e-5,2.88138 -4.50281,3.57627 -4.5028,3.57628 v 1.86632 1.86633 h 2.59674 2.59672 l 6.7306,-3.42733 c 3.70181,-1.88503 6.98145,-3.62346 7.28807,-3.86318 0.30663,-0.23972 -0.12757,-1.11777 -0.9649,-1.95124 -0.83731,-0.83346 -1.52238,-2.48212 -1.52238,-3.66369 v -2.14829 l 1.76672,-1.45951 1.76672,-1.45952 2.09286,0.79943 2.09286,0.7994 v 3.70483 3.70482 h 1.88453 1.88451 l 1.37706,-2.56123 1.37706,-2.56122 h 6.94688 6.94688 l 3.50957,1.3282 3.5096,1.3282 1.3986,-1.43353 1.3987,-1.43352 -4.3003,-3.60858 -4.3003,-3.60857 0.4532,-2.34255 0.4532,-2.34253 3.4632,-1.21234 3.4632,-1.21234 5.1237,1.68318 5.1237,1.6832 5.5209,-1.39491 5.5209,-1.3949 2.0626,1.85805 2.0626,1.85805 h 2.1905 2.1905 l 0.6589,-1.7093 0.659,-1.70931 -4.5117,-6.67353 -4.5117,-6.67355 -0.8321,-4.41485 -0.832,-4.41485 0.8093,-3.20995 0.8094,-3.20995 h 4.4783 4.4784 v -3.53013 c 0,-1.94157 -0.5692,-5.50544 -1.2647,-7.9197 l -1.2648,-4.38955 1.7716,-6.75287 1.7716,-6.75287 2.7094,-3.42869 2.7095,-3.42871 v -4.23624 -4.23624 l -2.7001,-4.55534 -2.7002,-4.55534 h -1.2393 c -0.6816,0 -4.1448,0.94597 -7.6959,2.10214 l -6.4566,2.10212 -2.5461,-2.53439 -2.5461,-2.53439 -0.1415,-4.37004 -0.1416,-4.37002 2.0263,-8.32398 c 1.1145,-4.57818 2.6113,-10.0528 3.3263,-12.16581 0.715,-2.113 2.0083,-6.14693 2.8738,-8.96428 l 1.5738,-5.12244 3.9009,-5.44537 3.9008,-5.44535 4.3134,-2.53329 c 2.3724,-1.39331 4.544,-3.26496 4.8258,-4.15922 0.2818,-0.89427 0.8735,-3.789 1.315,-6.43274 l 0.8027,-4.8068 2.0272,-1.59626 c 1.1149,-0.87794 3.6935,-3.24196 5.7302,-5.25338 l 3.703,-3.6571 v -1.7855 -1.78548 h -2.3157 c -1.2737,0 -2.9601,0.64132 -3.7475,1.42516 l -1.4318,1.42515 -1.3986,-0.86043 -1.3986,-0.86041 v -3.09308 -3.09306 l 3.8596,-1.98669 3.8595,-1.98669 0.0235,-2.20818 0.0234,-2.20819 3.8361,-5.6353 c 2.1099,-3.09943 3.8273,-6.26894 3.8165,-7.04336 -0.0108,-0.77444 -0.5123,-2.18174 -1.1144,-3.12736 l -1.0947,-1.7193 2.7225,-4.99334 c 1.4975,-2.74635 3.142,-4.9981 3.6545,-5.00392 0.5125,-0.006 1.8486,1.7541 2.9691,3.91091 l 2.0372,3.92147 2.1259,-0.40752 2.1258,-0.40753 0.7927,-3.8341 c 0.4359,-2.10876 1.4925,-5.13072 2.3478,-6.71547 0.8554,-1.58476 2.0335,-2.88138 2.6181,-2.88138 h 1.0628 l -0.6118,3.1856 -0.6117,3.1856 1.7673,0.67508 1.7674,0.67509 6.226,-1.1578 6.226,-1.15779 3.4106,1.77136 c 1.8759,0.97425 4.693,1.77491 6.2602,1.77925 l 2.8494,0.008 1.3748,-2.55703 1.3748,-2.55705 5.3869,-2.73554 5.3869,-2.73555 8.4002,-0.63209 8.4003,-0.6321 1.9298,-1.57015 1.9298,-1.57016 5.553,0.19235 5.553,0.19236 3.2243,4.10095 3.2243,4.10095 h 1.679 c 0.9234,0 2.3465,-0.8006 3.1623,-1.7791 l 1.4834,-1.7791 3.4755,-0.66135 3.4756,-0.66133 3.6538,1.88076 3.6537,1.88074 6.7996,-0.84564 6.7996,-0.84564 4.3648,4.3249 c 2.4006,2.37868 6.641,6.00166 9.4231,8.05104 l 5.0582,3.72615 11.0234,1.81573 c 6.0628,0.99863 12.6795,1.77205 14.7037,1.71868 l 3.6803,-0.097 3.9235,2.01955 3.9234,2.01956 7.2115,-0.51923 7.2115,-0.51924 4.1451,-3.05054 4.1452,-3.05055 0.8077,0.80403 0.8078,0.80403 0.1804,9.9902 0.1804,9.9902 3.2016,4.25948 3.2016,4.25948 3.6734,-0.73129 3.6733,-0.7313 3.9352,-3.29597 3.9351,-3.29597 2.691,0.65664 c 1.48,0.36116 5.8751,1.05368 9.7669,1.53895 l 7.0759,0.8823 1.5717,1.2369 c 0.8644,0.68028 3.7591,1.81907 6.4326,2.53062 2.6735,0.71156 6.5978,1.4275 8.7205,1.59098 l 3.8596,0.29725 0.4449,3.08463 c 0.2447,1.69654 1.0393,3.80498 1.7657,4.6854 l 1.3208,1.60076 h 2.9087 2.9088 l 0.7067,-2.69007 0.7067,-2.69007 1.4852,0.91368 1.4852,0.91369 -0.5871,2.23481 -0.5871,2.23479 1.1822,2.10282 1.1822,2.1028 h 1.8328 1.8329 l 1.9958,-3.84183 c 1.0978,-2.11301 2.4736,-3.84184 3.0574,-3.84184 0.5838,0 3.0294,0.65469 5.4347,1.45485 l 4.3732,1.45487 3.6528,3.34743 c 2.009,1.84109 4.5156,4.99219 5.57,7.00244 l 1.9173,3.65501 -0.8663,6.26973 -0.8663,6.26974 h -3.2456 -3.2455 l 0.9312,3.52168 c 0.5122,1.93692 -0.9861,3.32678 -0.8851,6.14412 l -0.3164,8.62245 2.4588,3.06122 c 0.8023,1.40868 3.371,3.65446 3.875,6.82398 l 0.9163,5.76275 1.9083,2.99146 1.9083,2.99144 -0.4103,16.32875 c 1.9743,7.60579 7.9482,11.90626 8.3865,12.61215 l 0.7969,1.28343 -2.1181,1.74585 -2.1181,1.74587 -9.7681,0.2309 c -5.3725,0.12698 -11.7865,0.41512 -14.2533,0.6403 l -4.4853,0.40941 -0.4814,2.48822 -0.4814,2.48822 -3.0741,2.40702 -3.0742,2.40702 v 3.10859 3.10858 h -6.4326 -6.4327 v 1.23556 c 0,0.67955 1.2255,1.88837 2.7232,2.68627 l 2.7233,1.45073 12.897,0.27906 12.8971,0.27906 2.3911,2.93928 2.3911,2.93929 v 2.41934 2.41936 h 1.2082 c 0.6646,0 3.884,2.3051 7.1542,5.12244 l 5.9459,5.12245 h 3.2019 3.202 l 3.783,1.94731 3.7831,1.9473 2.4917,4.86157 c 1.3704,2.67386 3.3414,5.56359 4.38,6.4216 1.0386,0.85802 2.3835,1.47156 2.9887,1.36345 0.6052,-0.10812 1.87,-0.12834 2.8107,-0.0449 l 1.7104,0.15165 -0.8458,3.83308 -0.8458,3.83308 2.6015,3.29202 2.6015,3.29201 -0.7149,1.85424 -0.7148,1.85425 3.4387,7.22932 3.4388,7.22932 -0.8147,4.79992 -0.8147,4.79993 2.109,6.18345 2.1091,6.18347 -0.672,3.86278 -0.6721,3.86278 1.1066,5.71948 1.1067,5.71948 -1.6177,2.2989 -1.6176,2.29891 0.6178,6.70865 c 0.3398,3.68976 1.1429,7.71713 1.7848,8.94972 l 1.167,2.24107 h 1.8086 c 0.9947,0 2.206,0.64011 2.6918,1.42247 l 0.8832,1.42249 -3.5541,2.82083 -3.554,2.82083 1.4602,2.71586 1.4602,2.71587 v 4.36714 4.36714 l -11.4261,4.22469 c -4.6344,6.44858 -8.1775,15.71744 -8.5571,15.22469 -4.622,-6 -0.0395,3.90443 -1.15,5.00985 l -2.0191,3.00985 1.2839,2.38809 c 0.7062,1.31346 1.284,3.53738 1.284,4.94205 v 2.55394 l 2.129,2.11916 2.1289,2.11916 0.5817,6.02583 0.5817,6.02582 -1.8465,1.52541 c -1.0156,0.83896 -4.1138,1.99432 -6.885,2.56744 l -5.0386,1.04205 -0.4669,2.5053 c -0.2568,1.37792 -1.0544,3.22565 -1.7725,4.10607 l -1.3056,1.60077 h -2.8272 -2.8272 l -5.5178,4.70129 -5.5178,4.70129 -2.3625,5.48629 -2.3626,5.4863 -0.8582,8.06112 -0.8583,8.06113 -1.7796,2.82777 -1.7795,2.82777 0.316,2.84295 0.316,2.84293 -3.2163,0.92484 c -1.769,0.50867 -5.3725,0.98231 -8.0078,1.05251 l -4.7914,0.12765 -1.8871,3.63247 -1.8871,3.63247 1.854,3.55728 c 1.0198,1.95651 1.8541,4.53987 1.8541,5.74083 v 2.18356 l -4.8439,6.31418 c -2.6641,3.47281 -6.8232,8.47523 -9.2424,11.11649 l -4.3985,4.80229 h -2.9037 -2.9037 l -0.7935,1.27813 c -0.4365,0.70296 -4.089,2.7457 -8.1168,4.53943 -4.0277,1.79372 -10.0136,4.67622 -13.3021,6.40554 -3.2884,1.72933 -6.7165,3.14424 -7.6178,3.14424 -0.9014,0 -2.5529,0.761 -3.67,1.69112 -1.1171,0.93012 -4.3469,2.3667 -7.1772,3.19237 l -5.1461,1.50124 -1.5187,-2.03471 -1.5187,-2.03472 -7.487,0.32495 -7.487,0.32494 -2.1267,-0.93166 -2.1267,-0.93166 -5.4538,2.76953 -5.4538,2.76953 -2.9687,-1.58154 -2.9688,-1.58155 -3.9754,1.6391 -3.9754,1.63909 -1.7558,2.49519 -1.7558,2.49521 -2.6112,-1.39108 c -1.4362,-0.76508 -3.741,-1.39107 -5.1218,-1.39107 -1.3809,0 -4.1689,0.86086 -6.1956,1.91303 l -3.685,1.91302 z M 161.24309,334.29042 c -1.11927,0.42752 -2.09542,0.57158 -2.16926,0.32015 -0.0738,-0.25145 -0.26822,-2.56473 -0.43201,-5.14066 l -0.29778,-4.68349 -2.2118,-2.20162 -2.21179,-2.20162 0.39239,-3.35979 0.39239,-3.35977 -4.18121,-0.40129 -4.18122,-0.40129 v -2.48009 -2.48008 h -1.129 c -0.62094,0 -1.89953,0.92418 -2.84131,2.05372 l -1.7123,2.05371 -5.05486,-0.67488 -5.05486,-0.67487 -1.9639,-1.95488 -1.96389,-1.95486 1.51977,-1.82281 1.51977,-1.8228 12.50892,0.49798 12.50891,0.49796 7.31078,2.04187 7.31078,2.04188 3.95892,3.85278 3.95892,3.85277 v 3.13377 c 0,1.72358 -0.59931,4.24843 -1.33179,5.6108 -0.73248,1.36236 -1.91228,2.47703 -2.62175,2.47703 h -1.28996 l 0.37033,-3.52168 0.37032,-3.52168 -3.61574,-0.41269 -3.61575,-0.41269 -1.70952,1.41226 -1.70953,1.41225 -0.62671,3.26336 -0.62671,3.26335 1.77078,0.67639 1.77076,0.67638 v 1.7839 c 0,0.98114 -0.24213,1.78391 -0.53804,1.78391 -0.29593,0 -1.4538,0.34978 -2.57305,0.77732 z m 143.28745,-7.96099 h -2.2325 l -2.0434,-7.15018 -4.5435,-7.65018 -6.34445,-6.21646 -6.34445,-6.21644 -1.37744,-3.93313 -1.37742,-3.93312 3.07904,-2.00819 3.07904,-2.00818 2.96906,0.41892 2.96912,0.41892 0.4111,2.88138 0.4111,2.88137 h 2.4076 2.4077 l 0.8441,1.3596 c 0.4643,0.74779 2.2384,1.88725 3.9424,2.53213 l 3.0982,1.17253 2.1153,4.4153 2.1152,4.4153 -0.4267,9.56022 -2.9267,9.06021 z M 111.24131,209.29379 h -1.71536 l 0.85767,-0.85375 0.85769,-0.85373 0.85769,0.85373 0.85768,0.85375 z m 327.89353,358.4701 -2.4658,0.1011 0.7773,-0.7737 0.7772,-0.7737 1.6886,0.6726 1.6886,0.67261 z M 102.87889,202.89073 c -0.3538,0 -0.64326,-0.28814 -0.64326,-0.64031 0,-0.35216 0.28946,-0.6403 0.64326,-0.6403 0.35379,0 0.64326,0.28814 0.64326,0.6403 0,0.35217 -0.28947,0.64031 -0.64326,0.64031 z m 254.39155,341.63429 c -1.0959,0.20764 -2.3985,-0.0266 -2.8947,-0.52051 l -0.9021,-0.898 0.0462,-5.86948 0.0463,-5.86946 3.1928,3.84183 3.1928,3.84184 -0.3444,2.54813 -0.3444,2.54815 z m -137.24278,-8.17531 c -0.58331,0 -1.47264,-0.66371 -1.9763,-1.47488 l -0.91574,-1.4749 2.35405,-1.7134 c 1.29474,-0.94238 2.5181,-1.55013 2.71859,-1.35057 0.20048,0.19957 0.0305,1.6343 -0.37777,3.1883 l -0.74228,2.82545 z m 2.64717,-10.24489 h -1.71537 l 0.85768,-0.85375 0.85769,-0.85373 0.85769,0.85373 0.85767,0.85375 z m -6.46193,-7.68367 c -0.60796,0 -1.34897,-0.43221 -1.64669,-0.96046 -0.29773,-0.52825 -0.92186,-2.54522 -1.38696,-4.48214 l -0.84565,-3.52168 h 2.50566 2.50567 l 2.02169,2.01239 c 1.11193,1.1068 2.02168,2.77398 2.02168,3.70482 v 1.69243 l -2.03501,0.77732 c -1.11925,0.42753 -2.53243,0.77732 -3.14039,0.77732 z m -53.59573,-70.93739 -0.90836,1.63655 -0.89363,-0.88952 -0.89364,-0.88953 v -7.55443 -7.55441 l 1.35108,-2.51291 1.35108,-2.5129 1.35492,0.83353 5.35492,0.83355 -4.90401,8.48676 c 3.5028,5.66772 -1.31277,9.2232 -1.81236,10.12331 z m 105.63916,-92.74891 c -0.32295,0.32149 -2.12292,-0.61793 -3.99993,-2.0876 l -3.41271,-2.6721 v -1.82797 -1.82797 h 1.19892 c 0.6594,0 2.45938,1.76201 3.99993,3.91557 1.54055,2.15356 2.53676,4.17859 2.21379,4.50007 z m -89.03116,-10.97686 c -1.01963,0 -2.23547,-0.61462 -2.70189,-1.36581 l -0.84801,-1.36581 0.7166,-0.71331 0.7166,-0.71332 1.98528,0.75833 1.98528,0.75831 v 1.32081 1.3208 z m 111.20867,-1.28061 c -0.70763,0 -1.28656,-0.57628 -1.28656,-1.28061 0,-0.70434 0.57893,-1.28061 1.28656,-1.28061 0.7076,0 1.2865,0.57627 1.2865,1.28061 0,0.70433 -0.5789,1.28061 -1.2865,1.28061 z m -156.93532,-12.17872 -1.30751,0.80437 v -1.99649 c 0,-1.09807 0.2553,-1.9965 0.56733,-1.9965 0.31204,0 0.90042,0.53646 1.30751,1.19212 l 0.74018,1.19212 z M 80,224.4996 l 0.5,-3.5 3.5,-7 2,4 z m 5,-24 -3,4 2.5,8 v -6.5 l 2,-3 z m 21.5,80.5 13.5,14 5,-1 h -0.5 l -1.5,-4 -8,-6.5 -3.5,-3.5 z m 0,-77 -6,-3 3.5,-5 5.5,4.5 z m -20.5,-21.5 1,-4.5 -4.5,3.5 z m 45,-63.5 c -5,6 -3,8.5 -3,8.5 l 6,-7 z m 41.5,232.5 5.5,0.5 2,-5.5 -8,0.5 z m 567.50004,100.5 1,-10 7,2 h -10 z M 119,243.9996 l 6,12 4,-8 z m 271.00004,-111 -1,6 5,-1 z m -246.00004,190 -7,1 3,10 z"
       inkscape:connector-curvature="0" />
    <path
       id="Océanie"
       style="fill:#f4e2ba;fill-opacity:1;fill-rule:nonzero;stroke:#27aaea;stroke-width:1px;stroke-opacity:1"
       d="m 984.26524,1035.9876 -227.2745,4.2008 -1.2745,-8.7991 1.1072,-5.1234 1.1071,-5.1235 -2.2932,-7.9077 c -1.2612,-4.3491 -2.9521,-9.028 -3.7576,-10.3974 l -1.4645,-2.4896 0.7191,-1.9896 0.7191,-1.9895 7.0878,-5.1102 7.0879,-5.1104 5.0508,-11.5415 c 2.7779,-6.3479 5.0507,-12.1776 5.0507,-12.955 v -1.4131 l 3.1789,-1.2832 3.1788,-1.2832 2.8108,1.9552 2.8107,1.9553 h 5.3858 5.3857 l 1.3863,-7.0896 1.3863,-7.0897 2.6201,-3.0208 2.6201,-3.021 5.8649,-1.4715 5.8649,-1.4714 4.3896,-3.7244 4.3895,-3.7244 6.032,-1.4321 6.0321,-1.4322 5.2104,0.8196 5.2102,0.8195 2.6314,3.2325 c 1.4473,1.778 4.0002,3.989 5.6732,4.9133 l 3.042,1.6807 4.7997,-0.08 4.7998,-0.0802 2.8799,-2.6832 2.8799,-2.6834 0.6159,1.8484 c 0.3388,1.0168 1.902,3.2141 3.4739,4.8829 l 2.8578,3.0342 2.6943,-0.8927 c 1.482,-0.4909 3.0333,-1.452 3.4474,-2.1356 l 0.7528,-1.2432 -1.2064,-4.1734 -1.2065,-4.1737 1.3217,-2.416 1.3216,-2.4161 0.0367,3.1013 0.0368,3.1013 1.9572,2.2961 1.9572,2.2963 1.0655,6.0552 1.0655,6.0554 2.6164,2.9569 2.6163,2.9569 h 1.6954 1.6954 l -0.824,-8.1686 -0.8239,-8.1686 2.117,-3.4303 2.1169,-3.4303 0.002,-6.0129 c 10e-4,-3.3072 -0.2165,-7.1655 -0.4842,-8.574 l -0.4867,-2.5613 2.8138,-0.4236 2.8139,-0.4238 2.3321,2.2406 2.332,2.2408 6.4774,0.5703 6.4773,0.5703 2.1824,-1.2967 2.1826,-1.2968 4.2324,2.4085 4.2325,2.4085 0.9443,-1.5783 0.9442,-1.5783 10.0185,-4.2667 30.0185,-6.2665 z m -500.3901,15.2444 c -0.6913,0 -2.2052,-1.4407 -3.3643,-3.2015 l -2.1074,-3.2015 h -2.1678 c -1.1923,0 -2.8236,0.6528 -3.6251,1.4506 l -1.4574,1.4507 -2.0163,-0.7701 -2.0162,-0.7702 v -4.4492 -4.4491 l 2.7969,-4.8755 c 1.5383,-2.6816 4.7501,-7.3111 7.1373,-10.288 l 4.3404,-5.4126 -1.3307,-2.4749 -1.3306,-2.475 4.5591,-2.6776 c 2.5075,-1.4726 5.381,-2.6775 6.3857,-2.6775 h 1.8266 l 1.869,-2.8814 1.8691,-2.8813 2.2866,-9.6046 2.2866,-9.6046 4.5581,-6.0323 4.558,-6.0325 5.0167,-1.432 5.0168,-1.4321 5.6237,2.1379 5.6237,2.1378 3.9808,-1.3812 3.9807,-1.3813 1.1388,0.7005 1.1387,0.7005 v 2.4255 c 0,1.3339 -0.7235,4.0372 -1.6078,6.0072 -0.8843,1.9701 -3.9275,7.0396 -6.7626,11.2657 l -5.1548,7.6836 -7.0043,6.4031 c -3.8524,3.5217 -10.6512,9.9546 -15.1084,14.2953 l -8.104,7.8923 v 2.482 2.482 l -3.2163,6.0213 c -1.769,3.3117 -3.2163,6.8552 -3.2163,7.8744 v 1.8532 l -2.5731,2.5612 c -1.4152,1.4087 -3.1387,2.5612 -3.8299,2.5612 z m 263.1821,-99.1683 h -1.8045 l -1.4926,-2.8814 c -0.8209,-1.5847 -2.5018,-4.0339 -3.7354,-5.4426 l -2.2429,-2.5612 -0.8175,-6.2969 -0.8175,-6.2969 2.1991,-2.4188 2.1992,-2.4189 -1.7161,-2.7353 -1.7161,-2.7352 3.703,-2.962 3.703,-2.962 6.0526,0.4611 6.0526,0.461 3.4388,2.4265 c 1.8913,1.3345 6.6938,4.4911 10.6722,7.0147 l 7.2335,4.5883 v 2.254 2.2539 l -5.1461,1.7826 c -2.8304,0.9804 -6.0145,1.7916 -7.0759,1.8026 l -1.9298,0.02 -7.4775,8.3233 -7.4776,8.3232 z"
       inkscape:connector-curvature="0" />
    <path
       id="Amérique"
       style="fill:#f4e2ba;fill-opacity:1;fill-rule:nonzero;stroke:#27aaea;stroke-width:1px;stroke-opacity:1"
       d="m -161.5,142.4996 16,8 h 3 l 1,5 h 4 l 0.5,1.5 -3,6 0.5,8.5 4.5,7.5 2.5,3.5 5.5,-1 2,-2 5,-1 5,-7 -0.5,-2 h 4 l 4.5,4.5 h 2 l 3.5,5.5 -0.5,8.5 2.5,4 3.5,4.5 6.5,4 1,10 2,5.5 7,1.5 8.5,2 5,-2 h 3 l 3.5,4 7.5,-0.5 8,-2 10.5,-4.5 6,-5 1.5,-3 1,-2.5 2.5,2.5 -0.5,8.5 2,0.5 -3,8 -3,5 -3.5,2.5 10.5,-0.5 -5.5,4 -2.5,2 -3.5,1 3.5,1.5 -3,3.5 h -4 l -0.5,-5 -2.5,3 v 3 l 4.5,2 -4.5,4.5 -4,-2.5 -3,11 v -12 h -1.5 l -6,8.5 -3.5,-2 6,-5 1.5,-1.5 -5,-5 -0.5,-2 10,2 2.5,-7.5 -1.5,-0.5 -3.5,4.5 H -52 l 0.5,-5.5 -2,-3 -2.5,7 1,1.5 -3,0.5 -5,-4 2,-13 -2,-1.5 -3.5,5 1.5,3 3.5,-3 v 2.5 l -2.5,1.5 -1,9 8,5 5,2 -3.5,7 -5,2.5 -2.5,-2 2,-6 -3.5,-4 -0.5,4 v 5.5 l -2.5,6.5 -3,1.5 -3,-5.5 5,-1 -1,-2 v -7 l -1.5,8.5 -2,4.5 1.5,2 -7,2 1,-4 -3,-7.5 -2,2 3.5,8.5 -6,-2.5 -4.5,3 -0.5,-2.5 -2.5,-3.5 -3.5,4.5 -2.5,1 -2.5,-4 -5,1 -9,-2.5 2.5,5 3,-1 2.5,4.5 -8,-3 -3,-1 2,1 5,4 -1,1.5 -0.5,4.5 -2.5,-5 -2.5,2 -2.5,-0.5 3.5,-3 -3,-2 -4,-1.5 -4,-4 h 7 l -5.5,-4.5 -7,-0.5 -3,-0.5 0.5,4.5 -8,-8 2.5,-1.5 -2.5,-1 -5.5,5 -5,0.5 -9,4 m 134,-125 v 6.5 l 0.5,11.5 -3,1.5 -2.5,-4 v -4.5 l -1.5,-1 -2,-3 1.5,-4.5 5.5,0.5 -2,-2.5 z m -10,9.5 -1.5,5.5 -5,5 1,1.5 4.5,-2.5 3.5,3 -3,5 4.5,-2 v -10 l -2.5,-2 z m -1.5,9.5 -0.5,4.5 h 3 z m 20,45 -1,5.5 0.5,5 3,-6.5 z m -72.5,67 2,5.5 0.5,7 -5.5,-3 0.5,-3 -1.5,-6.5 z m 18,9.5 3.5,-2 4.5,-4.5 -4,8.5 z m 16,-12.5 2,-3.5 4,7 -1.5,0.5 -3,-1.5 -1.5,4 -3,-2.5 z m -74.5,3.5 6,-0.5 2,3 v 2 l -3.5,-1.5 h -5 z m 45,7 h 5.5 l 2.5,2.5 -3,1.5 -2,-1.5 -2,1.5 z m 9.5,-6.5 v 3 l -3.5,2 5,-1.5 z m 37.5,-11 z m 2.5,2 -1,-3.5 -1.5,3 z m -100,4.5 1,2.5 h 3 l -1.5,-1.5 z m 29.5,9.5 4,3.5 4.5,0.5 -3.5,-4 -1.5,-1 z m 216,-243.5 9,-5.5 h 4.5 5.5 l 2,1.5 v 4.5 l -5.5,-2.5 h -6 z m 87,-23 z m 2.5,-0.5 -3,0.5 v 1.5 z m 8,7 v 2.5 l 3.5,-1 z m 5,8 z m 3,0 h -3.5 l 1,1.5 z m 4.5,6.5 z m -2,1.5 3,-2.5 0.5,3 z m 2,11.5 -4,3 4.5,-0.5 z m 2,-6 z m 0,2 z m -0.5,-1.5 2.5,2 z m -18.5,-26 -1.5,3 h 2.5 z"
       sodipodi:nodetypes="cccccccccccccccccccccccccccccccccccccccccccccccccccccccccccccccccccccccccccccccccccccccccccccccccccccccccccccccccccccccccccccccccccccccccccccccccccccccccccccccccccccccccccccccccccccccccccccccccccccccccccccccccccccccccccccccccccccccccccccccccccccccccccccccccccccccccccccccccccc"
       inkscape:connector-curvature="0" />
  </g>
  <g
     inkscape:groupmode="layer"
     id="layer3"
     inkscape:label="Latitude And Longitude Lines"
     style="display:inline"
     sodipodi:insensitive="true"
     transform="translate(0,-4)">
    <circle
       id="latitude-80"
       style="display:inline;fill:none;stroke:#27aaea;stroke-width:1px;stroke-opacity:0.75"
       transform="translate(-157.99973,-246.00001)"
       cx="561"
       cy="648"
       r="136" />
    <circle
       id="latitude-70"
       style="display:inline;fill:none;stroke:#27aaea;stroke-width:1px;stroke-opacity:0.75"
       transform="translate(-157.99973,-246.00001)"
       cx="561"
       cy="648"
       r="271" />
    <circle
       id="latitude-60"
       style="display:inline;fill:none;stroke:#27aaea;stroke-width:1px;stroke-opacity:0.75"
       transform="translate(-157.99973,-246.00001)"
       cx="561"
       cy="648"
       r="402" />
    <circle
       id="latitude-50"
       style="display:inline;fill:none;stroke:#27aaea;stroke-width:1px;stroke-opacity:0.75"
       transform="translate(-157.99973,-246.00001)"
       cx="561"
       cy="648"
       r="532" />
    <path
       id="Méridien de Greenwitch"
       d="M 403.00027,-227.76332 V 1049.4438"
       style="display:inline;fill:none;stroke:url(#radialGradient1018);stroke-width:0.9996897px;stroke-opacity:0.75"
       inkscape:connector-curvature="0" />
    <path
       id="longitude-90"
       d="M -157.99973,401.99999 H 976.00029"
       style="display:inline;fill:none;stroke:url(#radialGradient1006);stroke-width:1px;stroke-opacity:0.75"
       inkscape:connector-curvature="0" />
    <path
       style="display:inline;fill:none;stroke:url(#radialGradient964);stroke-width:0.99526691px;stroke-opacity:0.75"
       d="M 982.54789,66.21907 C -176.6614,736.87801 -176.6614,738.48246 -176.6614,738.48246"
       id="path3315"
       inkscape:connector-curvature="0" />
    <path
       style="display:inline;fill:none;stroke:url(#radialGradient960);stroke-width:0.99526691px;stroke-opacity:0.75"
       d="M -177.10437,65.86829 C 982.10489,736.52723 982.10489,738.13168 982.10489,738.13168"
       id="path3325"
       inkscape:connector-curvature="0" />
    <path
       style="display:inline;fill:none;stroke:url(#radialGradient962);stroke-width:0.99526691px;stroke-opacity:0.75"
       d="M 738.13197,980.6046 C 67.473013,-178.60463 65.868563,-178.60463 65.868563,-178.60463"
       id="path3327"
       inkscape:connector-curvature="0" />
    <path
       style="display:inline;fill:none;stroke:url(#radialGradient966);stroke-width:0.99526691px;stroke-opacity:0.75"
       d="M 67.368563,981.1046 C 738.02753,-178.10462 739.63198,-178.10462 739.63198,-178.10462"
       id="path3329"
       inkscape:connector-curvature="0" />
  </g>
  <g
     inkscape:groupmode="layer"
     id="layer5"
     inkscape:label="land labels"
     sodipodi:insensitive="true"
     transform="translate(0,-4)"
     style="display:inline">
    <circle
       style="opacity:1;fill:#969696;fill-opacity:0.94240836;stroke:none;stroke-width:6.82888889;stroke-linejoin:round;stroke-miterlimit:4;stroke-dasharray:none;stroke-opacity:1"
       id="path1044"
       cx="402.99112"
       cy="402.09909"
       r="1.9822485" />
    <text
       xml:space="preserve"
       style="font-style:normal;font-weight:normal;font-size:12.616642px;line-height:1.25;font-family:sans-serif;letter-spacing:0px;word-spacing:0px;fill:#969696;fill-opacity:0.94117647;stroke:none;stroke-width:0.31541607"
       x="368.66406"
       y="397.81534"
       id="text1048"><tspan
         sodipodi:role="line"
         id="tspan1046"
         x="368.66406"
         y="397.81534"
         style="fill:#969696;fill-opacity:0.94117647;stroke-width:0.31541607">south pole</tspan></text>
    <text
       xml:space="preserve"
       style="font-style:normal;font-weight:normal;font-size:24.0876236px;line-height:1.25;font-family:sans-serif;text-align:start;letter-spacing:0px;word-spacing:0px;text-anchor:start;fill:#969696;fill-opacity:0.94117647;stroke:none;stroke-width:0.60219061"
       x="194.97716"
       y="444.35608"
       id="text1013"><tspan
         sodipodi:role="line"
         x="256.32532"
         y="444.35608"
         id="tspan1007"
         style="text-align:start;text-anchor:start;stroke-width:0.60219061"><tspan
           x="256.32532"
           y="444.35608"
           id="tspan1003"
           style="text-align:start;text-anchor:start;stroke-width:0.60219061">West </tspan><tspan
           dx="0"
           x="323.22491"
           y="444.35608"
           id="tspan1005"
           style="text-align:start;text-anchor:start;stroke-width:0.60219061" /></tspan><tspan
         sodipodi:role="line"
         x="224.49861"
         y="474.46561"
         id="tspan1011"
         style="text-align:start;text-anchor:start;stroke-width:0.60219061"><tspan
           x="224.49861"
           y="474.46561"
           id="tspan1009"
           style="text-align:start;text-anchor:start;stroke-width:0.60219061">Antarctica</tspan></tspan></text>
    <text
       xml:space="preserve"
       style="font-style:normal;font-weight:normal;font-size:24.0876236px;line-height:1.25;font-family:sans-serif;text-align:center;letter-spacing:0px;word-spacing:0px;text-anchor:middle;display:inline;fill:#969696;fill-opacity:0.94117647;stroke:none"
       x="554.05902"
       y="399.06088"
       id="text975"><tspan
         sodipodi:role="line"
         id="tspan973"
         x="557.89331"
         y="399.06088">East  </tspan><tspan
         sodipodi:role="line"
         x="554.05902"
         y="429.17041"
         id="tspan977">Antarctica</tspan></text>
  </g>
  <g
     inkscape:groupmode="layer"
     id="layer7"
     inkscape:label="Sea labels"
     transform="translate(0,-4)">
    <text
       xml:space="preserve"
       style="font-style:normal;font-weight:normal;font-size:21.33333397px;line-height:1.25;font-family:sans-serif;text-align:center;letter-spacing:0px;word-spacing:0px;text-anchor:middle;display:inline;fill:#0082ff;fill-opacity:1;stroke:none"
       x="512.64355"
       y="686.74091"
       id="text6054"><tspan
         sodipodi:role="line"
         x="512.64355"
         y="686.74091"
         id="tspan6052"><tspan
           x="512.64355"
           y="686.74091"
           id="tspan6048">Somov sea</tspan><tspan
           dx="0"
           x="629.81018"
           y="686.74091"
           id="tspan6050" /></tspan></text>
    <text
       xml:space="preserve"
       style="font-style:normal;font-weight:normal;font-size:21.33333397px;line-height:1.25;font-family:sans-serif;text-align:center;letter-spacing:0px;word-spacing:0px;text-anchor:middle;display:inline;fill:#0082ff;fill-opacity:1;stroke:none"
       x="681.38177"
       y="655.87646"
       id="text6114"><tspan
         sodipodi:role="line"
         id="tspan6112"
         x="684.77759"
         y="655.87646">D'Urville </tspan><tspan
         sodipodi:role="line"
         id="tspan6116"
         x="681.38177"
         y="682.54315"> sea</tspan></text>
    <text
       xml:space="preserve"
       style="font-style:normal;font-weight:normal;font-size:21.33333397px;line-height:1.25;font-family:sans-serif;text-align:center;letter-spacing:0px;word-spacing:0px;text-anchor:middle;display:inline;fill:#0082ff;fill-opacity:1;stroke:none"
       x="752.47729"
       y="559.28723"
       id="text6164"><tspan
         sodipodi:role="line"
         id="tspan6162"
         x="755.87311"
         y="559.28723">Mawson </tspan><tspan
         sodipodi:role="line"
         id="tspan6166"
         x="752.47729"
         y="585.95392"> sea</tspan></text>
    <text
       xml:space="preserve"
       style="font-style:normal;font-weight:normal;font-size:21.33333397px;line-height:1.25;font-family:sans-serif;text-align:center;letter-spacing:0px;word-spacing:0px;text-anchor:middle;display:inline;fill:#0082ff;fill-opacity:1;stroke:none"
       x="763.98511"
       y="395.71011"
       id="text6170"><tspan
         sodipodi:role="line"
         id="tspan6168"
         x="767.38092"
         y="395.71011">Davis </tspan><tspan
         sodipodi:role="line"
         id="tspan6172"
         x="763.98511"
         y="422.37677">sea</tspan></text>
    <text
       xml:space="preserve"
       style="font-style:normal;font-weight:normal;font-size:21.33333397px;line-height:1.25;font-family:sans-serif;text-align:center;letter-spacing:0px;word-spacing:0px;text-anchor:middle;display:inline;fill:#0082ff;fill-opacity:1;stroke:none"
       x="766.14941"
       y="253.62943"
       id="text6176"><tspan
         sodipodi:role="line"
         id="tspan6174"
         x="769.54523"
         y="253.62943">Cooperation </tspan><tspan
         sodipodi:role="line"
         x="766.14941"
         y="280.29608"
         id="tspan6178">sea</tspan></text>
    <text
       xml:space="preserve"
       style="font-style:normal;font-weight:normal;font-size:21.33333397px;line-height:1.25;font-family:sans-serif;text-align:center;letter-spacing:0px;word-spacing:0px;text-anchor:middle;display:inline;fill:#0082ff;fill-opacity:1;stroke:none"
       x="692.06769"
       y="150.84216"
       id="text6182"><tspan
         sodipodi:role="line"
         id="tspan6180"
         x="692.06769"
         y="150.84216">Cosmonauts</tspan><tspan
         sodipodi:role="line"
         x="692.06769"
         y="177.50883"
         id="tspan6184">sea</tspan></text>
    <text
       xml:space="preserve"
       style="font-style:normal;font-weight:normal;font-size:17.97977448px;line-height:1.25;font-family:sans-serif;text-align:center;letter-spacing:0px;word-spacing:0px;text-anchor:middle;display:inline;fill:#0082ff;fill-opacity:1;stroke:none"
       x="517.51532"
       y="129.76175"
       id="text6188"><tspan
         sodipodi:role="line"
         x="517.51532"
         y="129.76175"
         id="tspan6190">Riiser-Larsen sea</tspan></text>
    <text
       xml:space="preserve"
       style="font-style:normal;font-weight:normal;font-size:17.97977448px;line-height:1.25;font-family:sans-serif;text-align:center;letter-spacing:0px;word-spacing:0px;text-anchor:middle;display:inline;fill:#0082ff;fill-opacity:1;stroke:none"
       x="372.53238"
       y="119.65273"
       id="text6196"><tspan
         sodipodi:role="line"
         id="tspan6194"
         x="372.53238"
         y="119.65273">Lazarev sea</tspan></text>
    <text
       xml:space="preserve"
       style="font-style:normal;font-weight:normal;font-size:26.66666603px;line-height:1.25;font-family:sans-serif;text-align:center;letter-spacing:0px;word-spacing:0px;text-anchor:middle;fill:#0082ff;fill-opacity:1;stroke:none"
       x="252.16307"
       y="243.33936"
       id="text6200"><tspan
         sodipodi:role="line"
         id="tspan6198"
         x="252.16307"
         y="243.33936">Weddell</tspan><tspan
         sodipodi:role="line"
         x="252.16307"
         y="276.6727"
         id="tspan6202">sea</tspan></text>
    <text
       xml:space="preserve"
       style="font-style:normal;font-weight:normal;font-size:17.97977448px;line-height:1.25;font-family:sans-serif;text-align:center;letter-spacing:0px;word-spacing:0px;text-anchor:middle;display:inline;fill:#0082ff;fill-opacity:1;stroke:none"
       x="32.907013"
       y="150.22031"
       id="text6206"><tspan
         sodipodi:role="line"
         id="tspan6204"
         x="32.907013"
         y="150.22031">Scotia</tspan><tspan
         sodipodi:role="line"
         x="32.907013"
         y="172.69502"
         id="tspan6208">sea</tspan></text>
    <text
       xml:space="preserve"
       style="font-style:normal;font-weight:normal;font-size:16.85175705px;line-height:1.25;font-family:sans-serif;text-align:center;letter-spacing:0px;word-spacing:0px;text-anchor:middle;display:inline;fill:#0082ff;fill-opacity:1;stroke:none"
       x="104.50648"
       y="372.56039"
       id="text6212"><tspan
         sodipodi:role="line"
         id="tspan6210"
         x="104.50648"
         y="372.56039">Bellinghausen</tspan><tspan
         sodipodi:role="line"
         x="104.50648"
         y="393.62509"
         id="tspan6214">sea</tspan></text>
    <text
       xml:space="preserve"
       style="font-style:normal;font-weight:normal;font-size:16.34700394px;line-height:1.25;font-family:sans-serif;text-align:center;letter-spacing:0px;word-spacing:0px;text-anchor:middle;display:inline;fill:#0082ff;fill-opacity:1;stroke:none"
       x="151.34839"
       y="485.41644"
       id="text6218"><tspan
         sodipodi:role="line"
         id="tspan6216"
         x="151.34839"
         y="485.41644">Amundsen</tspan><tspan
         sodipodi:role="line"
         x="151.34839"
         y="505.85019"
         id="tspan6220">sea</tspan></text>
    <text
       xml:space="preserve"
       style="font-style:normal;font-weight:normal;font-size:26.66666603px;line-height:1.25;font-family:sans-serif;text-align:center;letter-spacing:0px;word-spacing:0px;text-anchor:middle;display:inline;fill:#0082ff;fill-opacity:1;stroke:none"
       x="387.29642"
       y="576.48071"
       id="text6224"><tspan
         sodipodi:role="line"
         id="tspan6222"
         x="387.29642"
         y="576.48071">Ross</tspan><tspan
         sodipodi:role="line"
         x="387.29642"
         y="609.81403"
         id="tspan6226">sea</tspan></text>
  </g>
  <g
     inkscape:groupmode="layer"
     id="layer4"
     inkscape:label="The Antarctic Circle"
     style="display:inline"
     sodipodi:insensitive="true"
     transform="translate(0,-4)">
    <circle
       id="cercle antarctique"
       style="display:inline;fill:none;stroke:#0000ff;stroke-width:2;stroke-linecap:round;stroke-miterlimit:4;stroke-dasharray:8, 8;stroke-dashoffset:0;stroke-opacity:0.21465969"
       transform="translate(-158,-246)"
       cx="561"
       cy="648"
       r="317" />
  </g>
</svg>
