<?xml version="1.0" encoding="UTF-8" standalone="no"?>
<!-- Created with Inkscape (http://www.inkscape.org/) -->

<svg
   xmlns:dc="http://purl.org/dc/elements/1.1/"
   xmlns:cc="http://creativecommons.org/ns#"
   xmlns:rdf="http://www.w3.org/1999/02/22-rdf-syntax-ns#"
   xmlns:svg="http://www.w3.org/2000/svg"
   xmlns="http://www.w3.org/2000/svg"
   xmlns:sodipodi="http://sodipodi.sourceforge.net/DTD/sodipodi-0.dtd"
   xmlns:inkscape="http://www.inkscape.org/namespaces/inkscape"
   version="1.0"
   width="806"
   height="806"
   id="svg1896"
   inkscape:version="0.47 r22583"
   sodipodi:docname="Antarctica,_New_Zealand_territorial_claim.svg">
  <metadata
     id="metadata25">
    <rdf:RDF>
      <cc:Work
         rdf:about="">
        <dc:format>image/svg+xml</dc:format>
        <dc:type
           rdf:resource="http://purl.org/dc/dcmitype/StillImage" />
      </cc:Work>
    </rdf:RDF>
  </metadata>
  <sodipodi:namedview
     pagecolor="#ffffff"
     bordercolor="#666666"
     borderopacity="1"
     objecttolerance="10"
     gridtolerance="10"
     guidetolerance="10"
     inkscape:pageopacity="0"
     inkscape:pageshadow="2"
     inkscape:window-width="1216"
     inkscape:window-height="693"
     id="namedview23"
     showgrid="false"
     inkscape:zoom="0.5"
     inkscape:cx="396.79227"
     inkscape:cy="421.4513"
     inkscape:window-x="0"
     inkscape:window-y="0"
     inkscape:window-maximized="0"
     inkscape:current-layer="g2942" />
  <defs
     id="defs1898">
    <inkscape:perspective
       sodipodi:type="inkscape:persp3d"
       inkscape:vp_x="0 : 403 : 1"
       inkscape:vp_y="0 : 1000 : 0"
       inkscape:vp_z="806 : 403 : 1"
       inkscape:persp3d-origin="403 : 268.66667 : 1"
       id="perspective27" />
    <clipPath
       id="clipPath3193">
      <path
         d="M 360.03125,996.09375 C 363.14601,997.89602 366.20811,999.74839 369.375,1001.4688 C 375.07107,1004.563 380.86059,1007.521 386.71875,1010.3438 C 392.57691,1013.1665 398.51942,1015.8635 404.53125,1018.4063 C 410.54308,1020.949 416.62417,1023.3393 422.78125,1025.5938 C 428.93833,1027.8482 435.17484,1029.9799 441.46875,1031.9375 C 447.76266,1033.8951 454.10893,1035.6914 460.53125,1037.3438 C 466.95357,1038.9961 473.42644,1040.505 479.96875,1041.8438 C 486.51106,1043.1825 493.12737,1044.3583 499.78125,1045.375 C 506.43513,1046.3917 513.14922,1047.2513 519.90625,1047.9375 C 526.66328,1048.6237 533.46074,1049.1214 540.3125,1049.4688 C 547.16426,1049.8161 554.06192,1050 561,1050 C 567.93808,1050 574.83574,1049.8161 581.6875,1049.4688 C 588.53926,1049.1214 595.33672,1048.6237 602.09375,1047.9375 C 608.85078,1047.2513 615.56487,1046.3917 622.21875,1045.375 C 628.87263,1044.3583 635.48894,1043.1825 642.03125,1041.8438 C 648.57356,1040.505 655.04643,1038.9961 661.46875,1037.3438 C 667.89107,1035.6914 674.23734,1033.8951 680.53125,1031.9375 C 686.5919,1030.0524 692.59733,1028.0042 698.53125,1025.8438 L 561,648 L 360.03125,996.09375 z"
         id="path3195" />
    </clipPath>
    <clipPath
       id="clipPath2399">
      <path
         id="path2401"
         d="M 391.09375,283.65625 C 389.64297,284.33398 388.16003,284.96177 386.71875,285.65625 C 380.86059,288.479 375.07107,291.43696 369.375,294.53125 C 363.67893,297.62554 358.08806,300.83009 352.5625,304.1875 C 347.03694,307.54491 341.59663,311.04413 336.25,314.65625 C 330.90337,318.26837 325.62804,322.0166 320.46875,325.875 C 315.30946,329.7334 310.24477,333.71624 305.28125,337.8125 C 300.31773,341.90876 295.47809,346.11179 290.71875,350.4375 C 285.95941,354.76321 281.29673,359.20327 276.75,363.75 C 272.20327,368.29673 267.76321,372.95941 263.4375,377.71875 C 259.11179,382.47809 254.90876,387.31773 250.8125,392.28125 C 246.71624,397.24477 242.7334,402.30946 238.875,407.46875 C 235.0166,412.62804 231.26837,417.90337 227.65625,423.25 C 224.04413,428.59663 220.54491,434.03694 217.1875,439.5625 C 213.83009,445.08806 210.62554,450.67893 207.53125,456.375 C 204.43696,462.07107 201.479,467.86059 198.65625,473.71875 C 195.8335,479.57691 193.13654,485.51942 190.59375,491.53125 C 188.05096,497.54308 185.66066,503.62417 183.40625,509.78125 C 181.15184,515.93833 179.02011,522.17484 177.0625,528.46875 C 176.16724,531.3471 175.42565,534.28182 174.59375,537.1875 L 561,648 L 391.09375,283.65625 z" />
    </clipPath>
    <inkscape:perspective
       id="perspective27-0"
       inkscape:persp3d-origin="403 : 268.66667 : 1"
       inkscape:vp_z="806 : 403 : 1"
       inkscape:vp_y="0 : 1000 : 0"
       inkscape:vp_x="0 : 403 : 1"
       sodipodi:type="inkscape:persp3d" />
  </defs>
  <path
     style="fill:#e6e6e6;fill-rule:nonzero;stroke:#27aaea;stroke-width:1px"
     id="Antarctica"
     d="m 113.93724,287.41149 c -0.3003,0 -1.91275,-1.13338 -3.58322,-2.51862 l -3.03721,-2.51862 2.20616,-0.0426 2.20615,-0.0426 1.37706,2.56122 c 0.75738,1.40868 1.13136,2.56123 0.83106,2.56123 z m 394.56245,377.473 -5.14611,-0.011 -2.72451,-1.58189 c -1.49848,-0.87003 -4.34365,-2.71874 -6.32259,-4.10824 l -3.59805,-2.52634 -15.4415,0.2903 -15.44149,0.29031 -2.48733,-2.24609 c -1.36803,-1.23536 -4.88974,-3.40365 -7.82604,-4.81843 l -5.33872,-2.57234 0.57642,-1.9098 c 0.31701,-1.0504 0.47092,-4.12577 0.34198,-6.83418 l -0.2344,-4.92436 1.31142,-2.43915 1.31143,-2.43916 1.88614,0 1.88615,0 3.99213,-8.41052 3.99213,-8.41052 0.25932,-3.72824 0.2593,-3.72826 3.03514,-3.21589 3.03514,-3.21591 -1.65977,-3.53435 c -0.91289,-1.94389 -2.99845,-7.6788 -4.63461,-12.74426 l -2.97484,-9.2099 -6.62361,-8.38963 -6.6236,-8.38964 2.69903,-4.34704 c 1.48447,-2.39088 3.59457,-5.08686 4.68912,-5.99108 l 1.99007,-1.64402 -0.8684,-5.11644 -0.86841,-5.11643 -2.41894,-3.94854 c -1.33041,-2.1717 -2.4211,-4.82149 -2.42374,-5.88843 -0.003,-1.06693 -1.12515,-4.0206 -2.49447,-6.56369 -1.3693,-2.54309 -4.98766,-7.19979 -8.04079,-10.34822 -3.05312,-3.14844 -8.51577,-8.84347 -12.13922,-12.65563 l -6.58808,-6.9312 -10.13677,-5.05299 -10.13676,-5.05299 -6.05722,-6.28628 c -3.33148,-3.45746 -7.93071,-7.66215 -10.22053,-9.34375 l -4.16331,-3.05747 -3.65,0 -3.65002,0 -0.83243,2.15931 -0.83244,2.15932 2.43114,1.36237 c 1.33714,0.74929 4.10459,2.96145 6.14989,4.9159 l 3.71875,3.55353 -1.57407,1.88791 -1.57405,1.8879 1.61626,3.88406 1.61625,3.88405 -0.70624,0.70299 -0.70625,0.70301 -2.76548,-1.47323 -2.76546,-1.47324 -1.84756,1.52628 -1.84755,1.52629 0,4.32533 0,4.32534 -0.97706,0 c -0.53738,0 -1.72253,-1.1882 -2.63367,-2.64047 l -1.65661,-2.64045 -3.46623,0.39938 -3.46622,0.3994 -3.01988,5.75596 -3.01989,5.75598 0.79701,4.96123 0.79699,4.96123 -2.29106,-0.96558 c -1.26009,-0.53107 -3.44895,-1.03174 -4.86413,-1.11261 l -2.57305,-0.14704 -0.40709,3.52168 -0.40708,3.52168 -2.2469,0 -2.24691,0 -3.4227,3.55612 -3.42272,3.55611 0.77395,4.74736 0.77395,4.74736 1.76479,1.45791 1.76481,1.45792 0,3.54803 0,3.54801 -1.92979,0.73713 -1.92979,0.73712 0,1.99281 0,1.9928 3.21632,1.21722 3.21631,1.21722 0,1.84787 c 0,1.01634 -0.3514,2.75943 -0.78091,3.87353 l -0.7809,2.02566 -4.11282,0 -4.11284,0 -3.95757,-4.16199 c -2.17666,-2.28909 -4.63501,-5.47471 -5.46299,-7.07915 l -1.50541,-2.91717 -4.16546,0.27924 -4.16547,0.27925 -1.40818,-0.86631 -1.40819,-0.86631 -3.36752,2.63673 -3.36754,2.63671 0,1.762 0,1.76199 -2.89469,3.02473 -2.89468,3.02474 -5.14611,-0.23827 c -2.83036,-0.13106 -7.02765,-0.88622 -9.32732,-1.67815 -2.29966,-0.79193 -6.06275,-2.10492 -8.36242,-2.91776 l -4.18121,-1.47789 -3.85958,0.13941 c -2.12277,0.0767 -5.16219,-0.13366 -6.75427,-0.46743 l -2.89468,-0.60683 0,-2.70177 0,-2.70177 -4.50031,-5.27765 c -2.47517,-2.90272 -5.22512,-5.98779 -6.11101,-6.85571 -0.88587,-0.86792 -2.97764,-2.88488 -4.64836,-4.48214 -1.67072,-1.59725 -7.10685,-8.09057 -12.08029,-14.42959 -4.97344,-6.33903 -9.83006,-11.98635 -10.79249,-12.5496 l -1.74987,-1.02409 0,-2.89313 0,-2.89313 -1.64341,-2.23716 -1.6434,-2.23715 -2.53782,-0.47085 c -1.39579,-0.25897 -2.78345,-0.51495 -3.08368,-0.56884 -0.30025,-0.0539 0.76529,-1.48726 2.36785,-3.18526 l 2.91375,-3.08729 -0.48848,-2.35531 -0.4885,-2.35531 -3.56871,0.25215 -3.56871,0.25216 0.41352,-2.17308 0.4135,-2.17307 4.81379,-0.39746 4.81377,-0.39745 0,-5.55541 0,-5.55541 -3.88449,-7.35057 -3.88449,-7.35058 0.81135,-4.30497 0.81135,-4.30496 -1.1724,0 c -0.64482,0 -1.90318,0.72034 -2.79635,1.60076 l -1.62396,1.60077 -1.27033,-2.24107 -1.27033,-2.24107 -2.50913,0 -2.50912,0 0,1.83372 0,1.8337 -3.62886,2.5721 -1.62886,6.07209 -1.60052,-4.4058 -1.60053,-4.40581 -1.75982,0 -1.75981,0 -0.826,2.59051 c -0.4543,1.42478 -0.66431,4.45852 -0.4667,6.74165 l 0.35929,4.15114 -0.98245,1.58232 c -0.54034,-0.62972 -1.38678,1.58232 -1.88098,1.58232 l -0.89852,0 -0.21509,-6.72321 c -0.11831,-3.69776 -0.20707,-9.02831 -0.19725,-11.84565 0.01,-2.81735 -0.0392,-7.13941 -0.10895,-9.60459 -0.0697,-2.46517 -0.28437,-8.90782 -0.47696,-14.31698 l -0.35017,-9.83484 -2.10773,-2.33097 -2.10772,-2.33097 2.46986,-3.02324 2.46987,-3.02325 0,-2.42515 0,-2.42515 3.78158,-11.73363 5.78159,-8.23362 -0.65561,-1.68532 c -0.36061,-0.92692 -2.38339,-2.66699 -4.49508,-3.86682 l -3.83943,-2.18151 0,-1.84164 0,-1.84165 3.21632,-0.80353 3.21631,-0.80354 0,-1.20633 c 0,-0.66348 1.15429,-2.27676 2.56508,-3.58507 l 2.56508,-2.37874 -0.49597,-17.34568 -0.49596,-17.34569 -1.39684,-2.59803 c -0.76828,-1.42891 -3.19114,-4.10087 -5.38414,-5.93769 l -3.9873,-3.33966 -5.43336,0 -3.93335,-1 -1.32439,-1.3183 -1.3244,-1.31831 -9.73785,-1.08703 c -5.35581,-0.59787 -10.37553,-1.47933 -11.15491,-1.9588 l -1.41707,-0.87176 0,-3.51015 0,-3.51013 -1.54383,-1.53673 -1.54383,-1.53674 -2.88309,0 -2.88309,0 -0.72632,-1.16981 c -0.39947,-0.64339 -3.40735,-2.4617 -6.68419,-4.0407 l -5.95787,-2.87089 -2.33777,1.45325 -2.33779,1.45326 -0.81366,-1.31048 -0.81366,-1.31049 1.41978,-1.70287 1.41977,-1.70286 -3.2388,-2.1124 -3.23882,-2.11239 2,-1.4887 c 0,-0.81878 -1.19991,-2.76008 -2.66644,-4.31396 -1.46655,-1.55389 -2.78272,-3.60799 -2.92483,-4.56467 -0.14211,-0.95668 -1.03075,-3.59317 -1.97476,-5.85884 l -1.71638,-4.11939 -2.55231,-0.80635 -2.5523,-0.80635 0.64379,-2.45053 3.14378,-1.95054 -1.8372,-7.99105 c -1.01047,-4.39509 1.76502,-8.35547 1.27885,-9.41197 l -0.88393,-1.92092 2.44354,-9.28433 c -0.031,-5.10639 0.0388,-9.28438 0.1552,-9.28443 0.11639,-7e-5 1.60655,2.4842 3.31145,5.52058 l 3.09983,5.52068 -1.21374,2.70759 -1.21373,2.70758 -0.41653,6.08658 c 1.14593,3.34762 -0.9165,5.13203 -1.9165,7.9098 l 0,2.32322 3.65394,3.2407 c 2.00967,1.7824 2.24385,3.53402 3.57597,4.50361 l 2.42204,1.76289 -1.86422,3.46729 -1.8642,3.4673 3.18576,2.76642 1.18576,2.76642 2.82791,5.74067 2.8279,5.74066 4.50805,2.40972 4.50804,2.40971 4.88038,0.15151 4.88036,0.15151 1.13665,-2.56122 1.13664,-2.56123 8.05491,0.15612 8.0549,0.15612 4.05772,2.01494 4.05771,2.01496 4.55433,1.83042 c 3.32988,0.45673 7.61182,1.4781 9.51545,2.26969 l 3.46114,1.43927 0.61307,2.33358 0.61305,2.33359 3.21763,-0.80386 3.21762,-0.80385 1.38762,2.58086 1.38762,2.58088 -0.77629,2.01369 -0.7763,2.01368 1.21767,0 1.21766,0 1.46546,-3.20153 1.46544,-3.20152 1.31411,0 1.31411,0 0,3.06451 0,3.06452 2.04589,0.78148 2.04588,0.78147 1.36561,-0.84011 1.3656,-0.84011 1.41298,1.90738 c 0.77715,1.04907 2.7156,2.59807 4.30768,3.44224 l 2.89468,1.53485 0,3.84183 0,3.84184 2.07776,3.15646 2.07775,3.15648 2.26427,0 2.26428,0 0.80408,4.00191 c 0.44224,2.20105 0.80408,7.60537 0.80408,12.00961 l 0,8.0077 2.77317,1.83285 2.77317,1.83285 -2.27324,5.92506 -2.27325,5.92505 -4.89335,1.94893 c -2.69133,1.07191 -5.23737,2.50302 -5.65786,3.18024 l -0.7645,1.23132 2.1626,2.15266 2.1626,2.15266 4.60348,-0.75758 c 2.53193,-0.41666 6.80208,-1.37357 9.48923,-2.12644 l 4.88574,-1.36888 1.19342,-3.12449 1.19342,-3.1245 1.87494,0 1.87493,0 0.73018,2.29002 0.73018,2.29001 -2.29978,4.4332 c -1.26487,2.43826 -3.34116,5.9926 -4.61395,7.89855 l -2.31418,3.46537 0.83008,1.33692 c 0.45655,0.73532 1.55602,1.33694 2.44326,1.33694 l 1.61316,0 3.69771,-3.84184 3.69771,-3.84183 2.33236,0 2.33236,0 -4e-5,2.88137 -4e-5,2.88138 -4.50281,3.57627 -4.5028,3.57628 0,1.86632 0,1.86633 2.59674,0 2.59672,0 6.7306,-3.42733 c 3.70181,-1.88503 6.98145,-3.62346 7.28807,-3.86318 0.30663,-0.23972 -0.12757,-1.11777 -0.9649,-1.95124 -0.83731,-0.83346 -1.52238,-2.48212 -1.52238,-3.66369 l 0,-2.14829 1.76672,-1.45951 1.76672,-1.45952 2.09286,0.79943 2.09286,0.7994 0,3.70483 0,3.70482 1.88453,0 1.88451,0 1.37706,-2.56123 1.37706,-2.56122 6.94688,0 6.94688,0 3.50957,1.3282 3.50957,1.3282 1.39866,-1.43353 1.39866,-1.43352 -4.3003,-3.60858 -4.3003,-3.60857 0.45322,-2.34255 0.45321,-2.34253 3.4632,-1.21234 3.46322,-1.21234 5.12368,1.68318 5.1237,1.6832 5.52088,-1.39491 5.52089,-1.3949 2.06261,1.85805 2.0626,1.85805 2.1905,0 2.19049,0 0.65895,-1.7093 0.65896,-1.70931 -4.51171,-6.67353 -4.51171,-6.67355 -0.83206,-4.41485 -0.83206,-4.41485 0.80937,-3.20995 0.80936,-3.20995 4.47834,0 4.47834,0 0,-3.53013 c 0,-1.94157 -0.56913,-5.50544 -1.26472,-7.9197 l -1.26474,-4.38955 1.77158,-6.75287 1.77156,-6.75287 2.70947,-3.42869 2.70948,-3.42871 0,-4.23624 0,-4.23624 -2.70014,-4.55534 -2.70012,-4.55534 -1.23935,0 c -0.68164,0 -4.1448,0.94597 -7.69593,2.10214 l -6.45657,2.10212 -2.54612,-2.53439 -2.5461,-2.53439 -0.14152,-4.37004 -0.14153,-4.37002 2.02628,-8.32398 c 1.11447,-4.57818 2.61131,-10.0528 3.32632,-12.16581 0.71501,-2.113 2.00823,-6.14693 2.87382,-8.96428 l 1.57379,-5.12244 3.90083,-5.44537 3.90082,-5.44535 4.31343,-2.53329 c 2.37238,-1.39331 4.54399,-3.26496 4.82579,-4.15922 0.28179,-0.89427 0.87354,-3.789 1.315,-6.43274 l 0.80265,-4.8068 2.02722,-1.59626 c 1.11497,-0.87794 3.69357,-3.24196 5.73021,-5.25338 l 3.70301,-3.6571 0,-1.7855 0,-1.78548 -2.31574,0 c -1.27367,0 -2.96003,0.64132 -3.74749,1.42516 l -1.43174,1.42515 -1.39862,-0.86043 -1.39862,-0.86041 0,-3.09308 0,-3.09306 3.85958,-1.98669 3.85958,-1.98669 0.0234,-2.20818 0.0234,-2.20819 3.83618,-5.6353 c 2.10989,-3.09943 3.8273,-6.26894 3.81646,-7.04336 -0.0108,-0.77444 -0.51232,-2.18174 -1.11441,-3.12736 l -1.09472,-1.7193 2.72257,-4.99334 c 1.49742,-2.74635 3.14191,-4.9981 3.65444,-5.00392 0.51252,-0.006 1.84861,1.7541 2.96909,3.91091 l 2.03724,3.92147 2.12586,-0.40752 2.12586,-0.40753 0.79264,-3.8341 c 0.43595,-2.10876 1.49249,-5.13072 2.34785,-6.71547 0.85534,-1.58476 2.03347,-2.88138 2.61804,-2.88138 l 1.06286,0 -0.61178,3.1856 -0.61178,3.1856 1.76737,0.67508 1.76735,0.67509 6.22599,-1.1578 6.22598,-1.15779 3.41069,1.77136 c 1.87588,0.97425 4.69292,1.77491 6.26011,1.77925 l 2.84941,0.008 1.37481,-2.55703 1.37481,-2.55705 5.38688,-2.73554 5.38689,-2.73555 8.40026,-0.63209 8.40026,-0.6321 1.92979,-1.57015 1.92979,-1.57016 5.553,0.19235 5.553,0.19236 3.2243,4.10095 3.22431,4.10095 1.67901,0 c 0.92346,0 2.34652,-0.8006 3.16236,-1.7791 l 1.48335,-1.7791 3.47555,-0.66135 3.47557,-0.66133 3.65377,1.88076 3.65377,1.88074 6.79956,-0.84564 6.79955,-0.84564 4.36484,4.3249 c 2.40064,2.37868 6.64103,6.00166 9.42307,8.05104 l 5.05825,3.72615 11.02334,1.81573 c 6.06283,0.99863 12.6795,1.77205 14.70371,1.71868 l 3.68038,-0.097 3.92343,2.01955 3.92342,2.01956 7.2115,-0.51923 7.21151,-0.51924 4.14513,-3.05054 4.14514,-3.05055 0.80775,0.80403 0.80774,0.80403 0.18044,9.9902 0.18042,9.9902 3.20159,4.25948 3.20158,4.25948 3.67337,-0.73129 3.67338,-0.7313 3.93513,-3.29597 3.93514,-3.29597 2.69097,0.65664 c 1.48005,0.36116 5.87515,1.05368 9.76689,1.53895 l 7.0759,0.8823 1.57168,1.2369 c 0.86443,0.68028 3.75912,1.81907 6.43264,2.53062 2.67351,0.71156 6.59776,1.4275 8.72052,1.59098 l 3.85959,0.29725 0.4449,3.08463 c 0.2447,1.69654 1.03926,3.80498 1.76568,4.6854 l 1.32079,1.60076 2.90873,0 2.90875,0 0.70672,-2.69007 0.70671,-2.69007 1.48521,0.91368 1.4852,0.91369 -0.58712,2.23481 -0.58712,2.23479 1.18223,2.10282 1.18223,2.1028 1.83282,0 1.83283,0 1.99586,-3.84183 c 1.09773,-2.11301 2.47354,-3.84184 3.05738,-3.84184 0.58383,0 3.02944,0.65469 5.4347,1.45485 l 4.37319,1.45487 3.65281,3.34743 c 2.00904,1.84109 4.51556,4.99219 5.57004,7.00244 l 1.91724,3.65501 -0.8663,6.26973 -0.86629,6.26974 -3.24558,0 -3.24556,0 0.93123,3.52168 c 0.51218,1.93692 -0.98613,3.32678 -0.88512,6.14412 l -0.31636,8.62245 2.45875,3.06122 c 0.80232,1.40868 3.37109,3.65446 3.87506,6.82398 l 0.91629,5.76275 1.90828,2.99146 1.90828,2.99144 -0.41031,16.32875 c 1.97434,7.60579 7.94829,11.90626 8.38657,12.61215 l 0.79686,1.28343 -2.11809,1.74585 -2.11808,1.74587 -9.76812,0.2309 c -5.37248,0.12698 -11.78648,0.41512 -14.25334,0.6403 l -4.48523,0.40941 -0.48141,2.48822 -0.48139,2.48822 -3.07417,2.40702 -3.07417,2.40702 0,3.10859 0,3.10858 -6.43263,0 -6.43264,0 0,1.23556 c 0,0.67955 1.22546,1.88837 2.72323,2.68627 l 2.72323,1.45073 12.89707,0.27906 12.89706,0.27906 2.39107,2.93928 2.39109,2.93929 0,2.41934 0,2.41936 1.20828,0 c 0.66456,0 3.88392,2.3051 7.15415,5.12244 l 5.94586,5.12245 3.20196,0 3.20196,0 3.78307,1.94731 3.78307,1.9473 2.49164,4.86157 c 1.37041,2.67386 3.34143,5.56359 4.38005,6.4216 1.03862,0.85802 2.38354,1.47156 2.98871,1.36345 0.60517,-0.10812 1.86998,-0.12834 2.8107,-0.0449 l 1.71038,0.15165 -0.84578,3.83308 -0.84577,3.83308 2.60146,3.29202 2.60146,3.29201 -0.71484,1.85424 -0.71482,1.85425 3.43874,7.22932 3.43873,7.22932 -0.8147,4.79992 -0.81469,4.79993 2.10904,6.18345 2.10904,6.18347 -0.67201,3.86278 -0.67202,3.86278 1.10661,5.71948 1.10661,5.71948 -1.61765,2.2989 -1.61765,2.29891 0.61781,6.70865 c 0.33982,3.68976 1.14297,7.71713 1.7848,8.94972 l 1.16699,2.24107 1.8086,0 c 0.99473,0 2.20603,0.64011 2.6918,1.42247 l 0.8832,1.42249 -3.55401,2.82083 -3.554,2.82083 1.4602,2.71586 1.4602,2.71587 0,4.36714 0,4.36714 -11.42617,4.22469 c -4.63439,6.44858 -8.17748,15.71744 -8.55706,15.22469 -4.62198,-6 -0.0395,3.90443 -1.15002,5.00985 l -2.01912,3.00985 1.28396,2.38809 c 0.70619,1.31346 1.28398,3.53738 1.28398,4.94205 l 0,2.55394 2.12895,2.11916 2.12895,2.11916 0.58168,6.02583 0.58168,6.02582 -1.84648,1.52541 c -1.01557,0.83896 -4.11383,1.99432 -6.88504,2.56744 l -5.03856,1.04205 -0.46687,2.5053 c -0.25678,1.37792 -1.0544,3.22565 -1.77249,4.10607 l -1.30562,1.60077 -2.82722,0 -2.8272,0 -5.51778,4.70129 -5.51778,4.70129 -2.36255,5.48629 -2.36257,5.4863 -0.85825,8.06112 -0.85826,8.06113 -1.77957,2.82777 -1.77956,2.82777 0.31599,2.84295 0.31601,2.84293 -3.21632,0.92484 c -1.76897,0.50867 -5.37245,0.98231 -8.00775,1.05251 l -4.79144,0.12765 -1.8871,3.63247 -1.88709,3.63247 1.85405,3.55728 c 1.01974,1.95651 1.85407,4.53987 1.85407,5.74083 l 0,2.18356 -4.84385,6.31418 c -2.66413,3.47281 -6.82321,8.47523 -9.24241,11.11649 l -4.39856,4.80229 -2.90367,0 -2.90367,0 -0.79357,1.27813 c -0.43647,0.70296 -4.08898,2.7457 -8.11672,4.53943 -4.02773,1.79372 -10.01369,4.67622 -13.30213,6.40554 -3.28844,1.72933 -6.71648,3.14424 -7.61785,3.14424 -0.90138,0 -2.55287,0.761 -3.66998,1.69112 -1.1171,0.93012 -4.34684,2.3667 -7.1772,3.19237 l -5.1461,1.50124 -1.51868,-2.03471 -1.51868,-2.03472 -7.48701,0.32495 -7.48701,0.32494 -2.12669,-0.93166 -2.12669,-0.93166 -5.4538,2.76953 -5.45378,2.76953 -2.96879,-1.58154 -2.96877,-1.58155 -3.97541,1.6391 -3.97539,1.63909 -1.75578,2.49519 -1.75578,2.49521 -2.61125,-1.39108 c -1.43619,-0.76508 -3.74101,-1.39107 -5.12182,-1.39107 -1.38082,0 -4.16882,0.86086 -6.19558,1.91303 l -3.68501,1.91302 -5.14611,-0.011 z m -347.257,-329.59367 c -1.11927,0.42752 -2.09542,0.57158 -2.16926,0.32015 -0.0738,-0.25145 -0.26822,-2.56473 -0.43201,-5.14066 l -0.29778,-4.68349 -2.2118,-2.20162 -2.21179,-2.20162 0.39239,-3.35979 0.39239,-3.35977 -4.18121,-0.40129 -4.18122,-0.40129 0,-2.48009 0,-2.48008 -1.129,0 c -0.62094,0 -1.89953,0.92418 -2.84131,2.05372 l -1.7123,2.05371 -5.05486,-0.67488 -5.05486,-0.67487 -1.9639,-1.95488 -1.96389,-1.95486 1.51977,-1.82281 1.51977,-1.8228 12.50892,0.49798 12.50891,0.49796 7.31078,2.04187 7.31078,2.04188 3.95892,3.85278 3.95892,3.85277 0,3.13377 c 0,1.72358 -0.59931,4.24843 -1.33179,5.6108 -0.73248,1.36236 -1.91228,2.47703 -2.62175,2.47703 l -1.28996,0 0.37033,-3.52168 0.37032,-3.52168 -3.61574,-0.41269 -3.61575,-0.41269 -1.70952,1.41226 -1.70953,1.41225 -0.62671,3.26336 -0.62671,3.26335 1.77078,0.67639 1.77076,0.67638 0,1.7839 c 0,0.98114 -0.24213,1.78391 -0.53804,1.78391 -0.29593,0 -1.4538,0.34978 -2.57305,0.77732 z m 143.2874,-7.96099 -2.23246,0 -2.04344,-7.15018 -4.54344,-7.65018 -6.34446,-6.21646 -6.34445,-6.21644 -1.37744,-3.93313 -1.37742,-3.93312 3.07904,-2.00819 3.07904,-2.00818 2.96906,0.41892 2.96907,0.41892 0.41111,2.88138 0.41111,2.88137 2.40765,0 2.40765,0 0.84416,1.3596 c 0.46429,0.74779 2.23836,1.88725 3.94238,2.53213 l 3.09823,1.17253 2.11523,4.4153 2.11524,4.4153 -0.42671,9.56022 -2.9267,9.06021 -2.23245,0 z m -193.28918,-117.03564 -1.71536,0 0.85767,-0.85375 0.85769,-0.85373 0.85769,0.85373 0.85768,0.85375 -1.71537,0 z m 327.89354,358.4701 -2.46583,0.1011 0.77727,-0.7737 0.77728,-0.7737 1.68856,0.6726 1.68857,0.67261 -2.46585,0.10109 z M 102.87849,203.89113 c -0.3538,0 -0.64326,-0.28814 -0.64326,-0.64031 0,-0.35216 0.28946,-0.6403 0.64326,-0.6403 0.35379,0 0.64326,0.28814 0.64326,0.6403 0,0.35217 -0.28947,0.64031 -0.64326,0.64031 z m 254.39157,341.63429 c -1.09589,0.20764 -2.39849,-0.0266 -2.89468,-0.52051 l -0.90217,-0.898 0.0463,-5.86948 0.0463,-5.86946 3.19278,3.84183 3.19277,3.84184 -0.34436,2.54813 -0.34436,2.54815 -1.99252,0.3775 z m -137.2428,-8.17531 c -0.58331,0 -1.47264,-0.66371 -1.9763,-1.47488 l -0.91574,-1.4749 2.35405,-1.7134 c 1.29474,-0.94238 2.5181,-1.55013 2.71859,-1.35057 0.20048,0.19957 0.0305,1.6343 -0.37777,3.1883 l -0.74228,2.82545 -1.06055,0 z m 2.64717,-10.24489 -1.71537,0 0.85768,-0.85375 0.85769,-0.85373 0.85769,0.85373 0.85767,0.85375 -1.71536,0 z m -6.46193,-7.68367 c -0.60796,0 -1.34897,-0.43221 -1.64669,-0.96046 -0.29773,-0.52825 -0.92186,-2.54522 -1.38696,-4.48214 l -0.84565,-3.52168 2.50566,0 2.50567,0 2.02169,2.01239 c 1.11193,1.1068 2.02168,2.77398 2.02168,3.70482 l 0,1.69243 -2.03501,0.77732 c -1.11925,0.42753 -2.53243,0.77732 -3.14039,0.77732 z m -53.59573,-70.93739 -0.90836,1.63655 -0.89363,-0.88952 -0.89364,-0.88953 0,-7.55443 0,-7.55441 1.35108,-2.51291 1.35108,-2.5129 1.35492,0.83353 5.35492,0.83355 -4.90401,8.48676 c 3.5028,5.66772 -1.31277,9.2232 -1.81236,10.12331 z m 105.63916,-92.74891 c -0.32295,0.32149 -2.12292,-0.61793 -3.99993,-2.0876 l -3.41271,-2.6721 0,-1.82797 0,-1.82797 1.19892,0 c 0.6594,0 2.45938,1.76201 3.99993,3.91557 1.54055,2.15356 2.53676,4.17859 2.21379,4.50007 z m -89.03116,-10.97686 c -1.01963,0 -2.23547,-0.61462 -2.70189,-1.36581 l -0.84801,-1.36581 0.7166,-0.71331 0.7166,-0.71332 1.98528,0.75833 1.98528,0.75831 0,1.32081 0,1.3208 -1.85386,0 z m 111.20863,-1.28061 c -0.70759,0 -1.28652,-0.57628 -1.28652,-1.28061 0,-0.70434 0.57893,-1.28061 1.28652,-1.28061 0.70759,0 1.28653,0.57627 1.28653,1.28061 0,0.70433 -0.57894,1.28061 -1.28653,1.28061 z m -156.93528,-12.17872 -1.30751,0.80437 0,-1.99649 c 0,-1.09807 0.2553,-1.9965 0.56733,-1.9965 0.31204,0 0.90042,0.53646 1.30751,1.19212 l 0.74018,1.19212 -1.30751,0.80438 z M 79.9996,225.5 l 0.5,-3.5 3.5,-7 2,4 -6,6.5 z m 5,-24 -3,4 2.5,8 0,-6.5 2,-3 -1.5,-2.5 z m 21.5,80.5 13.5,14 5,-1 -0.5,0 -1.5,-4 -8,-6.5 -3.5,-3.5 -5,1 z m 0,-77 -6,-3 3.5,-5 5.5,4.5 -3,3.5 z m -20.5,-21.5 1,-4.5 -4.5,3.5 3.5,1 z m 45,-63.5 c -5,6 -3,8.5 -3,8.5 l 6,-7 -3,-1.5 z m 41.5,232.5 5.5,0.5 2,-5.5 -8,0.5 0.5,4.5 z m 567.5,100.5 1,-10 7,2 -10,0 2,8 z m -621,-208 6,12 4,-8 -10,-4 z m 271,-111 -1,6 5,-1 -4,-5 z m -246,190 -7,1 3,10 4,-11 z" />
  <path
     style="fill:#fcf5e3;fill-rule:nonzero;stroke:#27aaea;stroke-width:1px"
     id="Peter-I-Island"
     d="m 123.79108,406.58567 c 8.6e-4,0.60434 -0.32106,1.16315 -0.8443,1.46557 -0.52324,0.30242 -1.16813,0.30242 -1.69137,0 -0.52324,-0.30242 -0.84516,-0.86123 -0.8443,-1.46557 -8.6e-4,-0.60434 0.32106,-1.16315 0.8443,-1.46557 0.52324,-0.30242 1.16813,-0.30242 1.69137,0 0.52324,0.30242 0.84516,0.86123 0.8443,1.46557 l 0,0 z" />
  <g
     style="fill:none;stroke:#27aaea;stroke-width:1px;stroke-opacity:0.75;display:inline"
     id="latitude-longitude"
     transform="translate(-158.0004,-245)">
    <path
       style="stroke-miterlimit:4;stroke-dasharray:4, 4;stroke-dashoffset:0"
       id="Antarctiq-circle"
       d="M 878,648 C 878,823.07427 736.07427,965 561,965 385.92573,965 244,823.07427 244,648 244,472.92573 385.92573,331 561,331 c 175.07427,0 317,141.92573 317,317 z" />
    <path
       id="latitude-60"
       d="m 963,648 c 0,222.01847 -179.98153,402 -402,402 -222.01847,0 -402,-179.98153 -402,-402 0,-222.01847 179.98153,-402 402,-402 222.01847,0 402,179.98153 402,402 l 0,0 z" />
    <path
       id="Greenwitch"
       d="m 561,0 0,1278" />
    <g
       style="fill:none;stroke:#ff0000;stroke-width:1px;stroke-opacity:0.75;display:inline"
       id="Claims">
      <path
         id="France"
         d="m 807.34375,965.5625 c 3.14014,-2.43929 6.31012,-4.84563 9.375,-7.375 4.96352,-4.09626 9.80316,-8.29929 14.5625,-12.625 2.8404,-2.58161 5.57847,-5.27657 8.34375,-7.9375 L 561,648 807.34375,965.5625 z" />
      <path
         id="Chile"
         d="m 239.96875,406.0625 c -0.35789,0.47417 -0.73792,0.93045 -1.09375,1.40625 -3.8584,5.15929 -7.60663,10.43462 -11.21875,15.78125 -3.61212,5.34663 -7.11134,10.78694 -10.46875,16.3125 -3.35741,5.52556 -6.56196,11.11643 -9.65625,16.8125 -3.09429,5.69607 -6.05225,11.48559 -8.875,17.34375 -2.82275,5.85816 -5.51971,11.80067 -8.0625,17.8125 -2.54279,6.01183 -4.93309,12.09292 -7.1875,18.25 -2.25441,6.15708 -4.38614,12.39359 -6.34375,18.6875 -1.95761,6.29391 -3.75386,12.64018 -5.40625,19.0625 -1.65239,6.42232 -3.16125,12.89519 -4.5,19.4375 -1.33875,6.54231 -2.51456,13.15862 -3.53125,19.8125 -1.01669,6.65388 -1.87629,13.36797 -2.5625,20.125 -0.68621,6.75703 -1.18393,13.55449 -1.53125,20.40625 C 159.18393,634.16426 159,641.06192 159,648 l 402,0 -321.03125,-241.9375 z" />
      <path
         id="Argentina"
         d="m 391.09375,283.65625 c -1.45078,0.67773 -2.93372,1.30552 -4.375,2 -5.85816,2.82275 -11.64768,5.78071 -17.34375,8.875 -5.69607,3.09429 -11.28694,6.29884 -16.8125,9.65625 -5.52556,3.35741 -10.96587,6.85663 -16.3125,10.46875 -5.34663,3.61212 -10.62196,7.36035 -15.78125,11.21875 -5.15929,3.8584 -10.22398,7.84124 -15.1875,11.9375 -4.96352,4.09626 -9.80316,8.29929 -14.5625,12.625 -4.75934,4.32571 -9.42202,8.76577 -13.96875,13.3125 -4.54673,4.54673 -8.98679,9.20941 -13.3125,13.96875 -4.32571,4.75934 -8.52874,9.59898 -12.625,14.5625 -4.09626,4.96352 -8.0791,10.02821 -11.9375,15.1875 -3.8584,5.15929 -7.60663,10.43462 -11.21875,15.78125 -3.61212,5.34663 -7.11134,10.78694 -10.46875,16.3125 -3.35741,5.52556 -6.56196,11.11643 -9.65625,16.8125 -3.09429,5.69607 -6.05225,11.48559 -8.875,17.34375 -2.82275,5.85816 -5.51971,11.80067 -8.0625,17.8125 -2.54279,6.01183 -4.93309,12.09292 -7.1875,18.25 -2.25441,6.15708 -4.38614,12.39359 -6.34375,18.6875 -0.89526,2.87835 -1.63685,5.81307 -2.46875,8.71875 L 561,648 391.09375,283.65625 z" />
      <path
         id="Australia"
         d="m 698.53125,1025.8438 c 0.22837,-0.083 0.45932,-0.1665 0.6875,-0.25 6.15708,-2.2545 12.23817,-4.6448 18.25,-7.1875 6.01183,-2.5428 11.95434,-5.2398 17.8125,-8.0625 5.85816,-2.8228 11.64768,-5.7808 17.34375,-8.875 5.69607,-3.09434 11.28694,-6.29889 16.8125,-9.6563 5.52556,-3.35741 10.96587,-6.85663 16.3125,-10.46875 5.34663,-3.61212 10.62196,-7.36035 15.78125,-11.21875 1.97352,-1.47591 3.86724,-3.05141 5.8125,-4.5625 L 561,648 698.53125,1025.8438 z M 839.625,937.625 c 1.86819,-1.79769 3.79178,-3.54178 5.625,-5.375 4.54673,-4.54673 8.98679,-9.20941 13.3125,-13.96875 4.32571,-4.75934 8.52874,-9.59898 12.625,-14.5625 4.09626,-4.96352 8.0791,-10.02821 11.9375,-15.1875 3.8584,-5.15929 7.60663,-10.43462 11.21875,-15.78125 3.61212,-5.34663 7.11134,-10.78694 10.46875,-16.3125 3.35741,-5.52556 6.56196,-11.11643 9.65625,-16.8125 3.09429,-5.69607 6.05225,-11.48559 8.875,-17.34375 2.82275,-5.85816 5.51971,-11.80067 8.0625,-17.8125 2.54279,-6.01183 4.93309,-12.09292 7.1875,-18.25 2.25441,-6.15708 4.38614,-12.39359 6.34375,-18.6875 1.95761,-6.29391 3.75386,-12.64018 5.40625,-19.0625 1.65239,-6.42232 3.16125,-12.89519 4.5,-19.4375 1.33875,-6.54231 2.51456,-13.15862 3.53125,-19.8125 1.01669,-6.65388 1.87629,-13.36797 2.5625,-20.125 0.68621,-6.75703 1.18393,-13.55449 1.53125,-20.40625 C 962.81607,661.83574 963,654.93808 963,648 c 0,-6.93808 -0.18393,-13.83574 -0.53125,-20.6875 -0.34732,-6.85176 -0.84504,-13.64922 -1.53125,-20.40625 -0.68621,-6.75703 -1.54581,-13.47112 -2.5625,-20.125 -1.01669,-6.65388 -2.1925,-13.27019 -3.53125,-19.8125 -1.33875,-6.54231 -2.84761,-13.01518 -4.5,-19.4375 -1.65239,-6.42232 -3.44864,-12.76859 -5.40625,-19.0625 -1.95761,-6.29391 -4.08934,-12.53042 -6.34375,-18.6875 -2.25441,-6.15708 -4.64471,-12.23817 -7.1875,-18.25 -2.54279,-6.01183 -5.23975,-11.95434 -8.0625,-17.8125 -2.82275,-5.85816 -5.78071,-11.64768 -8.875,-17.34375 -3.09429,-5.69607 -6.29884,-11.28694 -9.65625,-16.8125 -3.35741,-5.52556 -6.85663,-10.96587 -10.46875,-16.3125 -3.61212,-5.34663 -7.36035,-10.62196 -11.21875,-15.78125 -3.8584,-5.15929 -7.84124,-10.22398 -11.9375,-15.1875 -4.09626,-4.96352 -8.29929,-9.80316 -12.625,-14.5625 -4.32571,-4.75934 -8.76577,-9.42202 -13.3125,-13.96875 -1.02604,-1.02604 -2.11922,-1.98505 -3.15625,-3 L 561,648 839.625,937.625 z" />
      <path
         id="United-Kingdom"
         d="m 423.46875,270.15625 c -0.22837,0.0831 -0.45932,0.16645 -0.6875,0.25 -6.15708,2.25441 -12.23817,4.64471 -18.25,7.1875 -6.01183,2.54279 -11.95434,5.23975 -17.8125,8.0625 -5.85816,2.82275 -11.64768,5.78071 -17.34375,8.875 -5.69607,3.09429 -11.28694,6.29884 -16.8125,9.65625 -5.52556,3.35741 -10.96587,6.85663 -16.3125,10.46875 -5.34663,3.61212 -10.62196,7.36035 -15.78125,11.21875 -5.15929,3.8584 -10.22398,7.84124 -15.1875,11.9375 -4.96352,4.09626 -9.80316,8.29929 -14.5625,12.625 -4.75934,4.32571 -9.42202,8.76577 -13.96875,13.3125 -4.54673,4.54673 -8.98679,9.20941 -13.3125,13.96875 -4.32571,4.75934 -8.52874,9.59898 -12.625,14.5625 -4.09626,4.96352 -8.0791,10.02821 -11.9375,15.1875 -3.8584,5.15929 -7.60663,10.43462 -11.21875,15.78125 -3.61212,5.34663 -7.11134,10.78694 -10.46875,16.3125 -3.35741,5.52556 -6.56196,11.11643 -9.65625,16.8125 -3.09429,5.69607 -6.05225,11.48559 -8.875,17.34375 -2.82275,5.85816 -5.51971,11.80067 -8.0625,17.8125 -2.54279,6.01183 -4.93309,12.09292 -7.1875,18.25 -2.25441,6.15708 -4.38614,12.39359 -6.34375,18.6875 -1.95761,6.29391 -3.75386,12.64018 -5.40625,19.0625 -1.65239,6.42232 -3.16125,12.89519 -4.5,19.4375 -0.75807,3.70458 -1.34461,7.47781 -2,11.21875 L 561,648 423.46875,270.15625 z" />
      <path
         id="Norway"
         d="m 804.625,399.0625 c -0.11657,-0.0588 -0.1936,-0.1626 -0.3125,-0.21875 -1.31038,-0.61881 -2.76968,-1.08663 -4.3125,-1.4375 -3.08564,-0.70175 -6.53134,-0.957 -10,-1.1875 -3.46866,-0.2305 -6.93981,-0.44011 -10.0625,-1 -1.56134,-0.27995 -3.03683,-0.64383 -4.375,-1.15625 -1.33817,-0.51242 -2.53863,-1.15503 -3.5625,-2 -1.02387,-0.84497 -1.89839,-1.90764 -2.65625,-3.125 -0.75786,-1.21736 -1.39601,-2.61258 -1.96875,-4.09375 -1.14547,-2.96235 -2.01601,-6.32135 -2.90625,-9.6875 -0.89024,-3.36615 -1.81171,-6.72365 -3.09375,-9.625 -0.64102,-1.45068 -1.38971,-2.79714 -2.25,-3.96875 -0.86029,-1.17161 -1.83956,-2.18478 -3,-2.96875 -1.16043,-0.78398 -2.46668,-1.3265 -3.875,-1.6875 -1.40832,-0.361 -2.91409,-0.54008 -4.5,-0.59375 -3.17182,-0.10734 -6.63343,0.29065 -10.09375,0.71875 -3.46032,0.4281 -6.90739,0.89915 -10.09375,0.9375 -1.59318,0.0192 -3.14327,-0.0608 -4.5625,-0.3125 -1.41923,-0.25173 -2.73128,-0.67422 -3.90625,-1.3125 -1.17498,-0.63828 -2.23259,-1.5076 -3.21875,-2.5625 -0.98616,-1.0549 -1.89407,-2.30685 -2.75,-3.65625 -1.71186,-2.69881 -3.20756,-5.85591 -4.75,-9 -0.77122,-1.57204 -1.55826,-3.15607 -2.375,-4.65625 -0.81674,-1.50018 -1.6729,-2.91254 -2.59375,-4.21875 -0.92085,-1.30621 -1.91646,-2.47864 -3,-3.46875 -1.08354,-0.99011 -2.25769,-1.79186 -3.5625,-2.34375 -1.30481,-0.55189 -2.68891,-0.84874 -4.15625,-0.9375 -1.46734,-0.0888 -3.01055,0.0339 -4.59375,0.28125 -3.16639,0.49467 -6.52519,1.51691 -9.875,2.59375 -3.34981,1.07684 -6.68387,2.201 -9.84375,2.84375 -1.57994,0.32137 -3.1313,0.50895 -4.59375,0.53125 -1.46245,0.0223 -2.85796,-0.12744 -4.15625,-0.53125 -1.2983,-0.40381 -2.52334,-1.05735 -3.71875,-1.90625 -1.19541,-0.8489 -2.34248,-1.89972 -3.46875,-3.0625 -2.25253,-2.32555 -4.41536,-5.14372 -6.59375,-7.9375 -1.0892,-1.39689 -2.19123,-2.77662 -3.3125,-4.09375 -1.12127,-1.31713 -2.25041,-2.58135 -3.4375,-3.6875 -1.18709,-1.10615 -2.4321,-2.04854 -3.71875,-2.8125 -1.28665,-0.76396 -2.61131,-1.33444 -4.03125,-1.625 -1.41994,-0.29056 -2.88568,-0.321 -4.375,-0.125 -1.48932,0.196 -3.02455,0.60738 -4.5625,1.15625 -1.53795,0.54887 -3.09043,1.2632 -4.65625,2.03125 -1.56582,0.76805 -3.14582,1.58398 -4.71875,2.4375 -3.14586,1.70704 -6.26272,3.47199 -9.3125,4.71875 -1.52489,0.62338 -3.03026,1.12974 -4.5,1.4375 -1.46974,0.30776 -2.91867,0.4228 -4.3125,0.28125 -1.39383,-0.14155 -2.77254,-0.55881 -4.15625,-1.15625 -1.38371,-0.59744 -2.77577,-1.39447 -4.15625,-2.3125 -2.76096,-1.83605 -5.5231,-4.16224 -8.3125,-6.46875 -1.3947,-1.15326 -2.77535,-2.30709 -4.1875,-3.375 -1.41215,-1.06791 -2.84476,-2.059 -4.28125,-2.90625 -1.43649,-0.84725 -2.87603,-1.53997 -4.34375,-2.03125 C 564.00103,299.28997 562.50584,299 561,299 c -1.50584,0 -3.00103,0.28997 -4.46875,0.78125 -1.46772,0.49128 -2.90726,1.184 -4.34375,2.03125 -1.43649,0.84725 -2.8691,1.83834 -4.28125,2.90625 -1.41215,1.06791 -2.7928,2.22174 -4.1875,3.375 -2.7894,2.30651 -5.55154,4.6327 -8.3125,6.46875 -1.38048,0.91803 -2.77254,1.71506 -4.15625,2.3125 -1.38371,0.59744 -2.76242,1.0147 -4.15625,1.15625 -1.39383,0.14155 -2.84277,0.0265 -4.3125,-0.28125 -1.46973,-0.30776 -2.97511,-0.81412 -4.5,-1.4375 -3.04978,-1.24676 -6.16664,-3.01171 -9.3125,-4.71875 -1.57293,-0.85352 -3.15293,-1.66945 -4.71875,-2.4375 -1.56582,-0.76805 -3.1183,-1.48238 -4.65625,-2.03125 -1.53795,-0.54887 -3.07318,-0.96025 -4.5625,-1.15625 -1.48932,-0.196 -2.95506,-0.16556 -4.375,0.125 -1.41995,0.29056 -2.7446,0.86104 -4.03125,1.625 -1.28665,0.76396 -2.53166,1.70635 -3.71875,2.8125 -1.18709,1.10615 -2.31623,2.37037 -3.4375,3.6875 -1.12127,1.31713 -2.2233,2.69686 -3.3125,4.09375 -2.17839,2.79378 -4.34122,5.61195 -6.59375,7.9375 -1.12627,1.16278 -2.27334,2.2136 -3.46875,3.0625 -1.19541,0.8489 -2.42046,1.50244 -3.71875,1.90625 -1.29829,0.40381 -2.6938,0.55355 -4.15625,0.53125 -1.46245,-0.0223 -3.01381,-0.20988 -4.59375,-0.53125 -2.84879,-0.57947 -5.8569,-1.58954 -8.875,-2.5625 l 91.40625,251.125 c 1.33749,0.72985 2.71992,1.7106 4.125,2.78125 1.54462,1.17697 3.10155,2.38578 4.5,3.25 0.69923,0.43211 1.35081,0.75712 1.96875,0.96875 0.61794,0.21163 1.18068,0.29121 1.6875,0.1875 0.50682,-0.10371 1.011,-0.37451 1.5,-0.8125 0.489,-0.43799 0.98747,-1.0457 1.46875,-1.71875 0.96256,-1.3461 1.91404,-3.05891 2.90625,-4.75 0.99221,-1.69109 2.02238,-3.35136 3.125,-4.59375 0.55131,-0.6212 1.1247,-1.1398 1.71875,-1.5 0.59405,-0.3602 1.19686,-0.5625 1.84375,-0.5625 0.64689,0 1.2497,0.2023 1.84375,0.5625 0.59405,0.3602 1.16744,0.8788 1.71875,1.5 1.10262,1.24239 2.13279,2.90266 3.125,4.59375 0.99221,1.69109 1.94369,3.4039 2.90625,4.75 0.48128,0.67305 0.97975,1.28076 1.46875,1.71875 0.489,0.43799 0.99318,0.70879 1.5,0.8125 0.50682,0.10371 1.06956,0.0241 1.6875,-0.1875 0.61794,-0.21163 1.26952,-0.53664 1.96875,-0.96875 1.39846,-0.86422 2.95537,-2.07303 4.5,-3.25 1.54463,-1.17697 3.07909,-2.33165 4.53125,-3.0625 0.72608,-0.36542 1.43553,-0.6384 2.09375,-0.75 0.65822,-0.1116 1.28322,-0.0496 1.84375,0.1875 0.56053,0.23708 0.99824,0.63823 1.375,1.1875 0.37676,0.54927 0.69723,1.22622 0.9375,2 0.48055,1.54756 0.71923,3.45539 0.9375,5.375 0.21827,1.91961 0.41578,3.8472 0.75,5.4375 0.16711,0.79515 0.35799,1.51243 0.625,2.09375 0.26701,0.58132 0.5858,1.03268 1,1.3125 0.4142,0.27983 0.95616,0.439 1.59375,0.46875 0.63759,0.0298 1.39,-0.075 2.1875,-0.21875 1.59501,-0.28745 3.42746,-0.82196 5.28125,-1.34375 1.85379,-0.52179 3.70776,-1.0129 5.3125,-1.15625 0.80237,-0.0717 1.54261,-0.0753 2.1875,0.0625 0.34452,0.0736 0.58933,0.28731 0.875,0.4375 L 804.625,399.0625 z" />
      <path
         style="stroke:none"
         id="Brazil"
         d="m 372.28125,293.0625 c -0.95665,0.50968 -1.95423,0.95158 -2.90625,1.46875 -5.69607,3.09429 -11.28694,6.29884 -16.8125,9.65625 -5.52556,3.35741 -10.96587,6.85663 -16.3125,10.46875 -5.34663,3.61212 -10.62196,7.36035 -15.78125,11.21875 -5.15929,3.8584 -10.22398,7.84124 -15.1875,11.9375 -4.96352,4.09626 -9.80316,8.29929 -14.5625,12.625 -4.75934,4.32571 -9.42202,8.76577 -13.96875,13.3125 -4.54673,4.54673 -8.98679,9.20941 -13.3125,13.96875 -4.32571,4.75934 -8.52874,9.59898 -12.625,14.5625 -3.7185,4.50577 -7.32095,9.11383 -10.84375,13.78125 L 561,648 372.28125,293.0625 z" />
      <path
         style="stroke:none"
         id="Nazi-Germany"
         d="M 491.1875,252.15625 561,648 698.53125,270.15625 C 655.62354,254.53448 609.30942,246 561,246 c -23.82362,0 -47.12736,2.18196 -69.8125,6.15625 z" />
    </g>
  </g>
  <g
     id="g3633">
    <path
       id="path3623"
       d="m 288.75944,557.26926 c -4.11305,-0.26228 -7.78184,-1.14519 -14.79156,-3.55965 l -7.24485,-2.49546 -4.07523,0.003 c -2.24137,0.002 -5.12799,-0.17074 -6.41471,-0.38282 l -2.33948,-0.3856 0,-2.55796 0,-2.55796 -3.42367,-3.97195 c -4.75509,-5.51652 -9.84021,-11.05444 -10.15066,-11.05444 -0.45603,0 -6.6256,-7.14156 -13.43033,-15.54623 -7.93311,-9.79838 -10.1706,-12.35422 -11.86093,-13.54852 l -1.28294,-0.90646 0,-2.84806 0,-2.84806 -1.7302,-2.3311 -1.7302,-2.3311 -2.533,-0.42277 -2.533,-0.42277 2.55572,-2.84605 2.55573,-2.84605 -0.59487,-2.73852 c -0.32718,-1.50619 -0.61158,-2.75023 -0.63201,-2.76453 -0.0204,-0.0143 -1.51839,0.0893 -3.32881,0.23013 -1.81042,0.14088 -3.32684,0.2205 -3.36983,0.17694 -0.11666,-0.11822 0.37285,-2.64536 0.54595,-2.81846 0.0822,-0.0822 1.83143,-0.28569 3.88717,-0.45222 2.05575,-0.16652 4.17921,-0.37173 4.7188,-0.456 l 0.98107,-0.15323 0,-5.92654 0,-5.92654 -3.82097,-7.26329 -3.82097,-7.2633 0.68215,-3.7766 c 0.37518,-2.07713 0.75319,-4.15016 0.84002,-4.60674 0.14828,-0.77971 0.0926,-0.83014 -0.91676,-0.83014 -1.46031,0 -2.25227,0.34151 -3.80994,1.64291 l -1.32433,1.10644 -1.09951,-1.90295 -1.09952,-1.90294 -3.07862,-0.086 -3.07862,-0.086 0,1.9623 0,1.96231 -1.7895,1.26199 c -1.73547,1.22389 -1.80532,1.32649 -2.31287,3.39763 -0.5925,2.41773 -0.43261,2.57058 -2.16838,-2.07293 l -1.1284,-3.01869 -1.98842,-0.0882 c -2.28109,-0.10115 -2.35447,-0.0468 -3.1755,2.35219 -0.46997,1.3732 -0.56821,2.55772 -0.56821,6.85052 l 0,5.19024 -1.03591,1.06901 c -0.56975,0.58796 -1.09302,1.0119 -1.16283,0.94209 -0.0698,-0.0698 -0.23991,-6.41833 -0.37799,-14.10784 -0.13809,-7.6895 -0.41985,-19.27086 -0.62614,-25.73636 l -0.37507,-11.75545 -1.03844,-1.14944 -1.03845,-1.14943 114.62027,0 114.62027,0 -1.0607,1.88668 c -0.58339,1.03767 -7.65023,13.29731 -15.70408,27.24365 l -14.64337,25.35697 -1.36168,0.0914 -1.36166,0.0914 -0.92142,2.38931 c -1.0821,2.80598 -1.08593,2.83917 -0.36864,3.19281 0.4916,0.24237 -1.10305,3.13747 -14.40798,26.15777 -9.41898,16.29679 -15.13081,25.88696 -15.41982,25.8899 -0.25247,0.002 -2.05145,1.68567 -3.99772,3.74025 l -3.53867,3.7356 0.43028,2.44728 0.43027,2.44727 -5.4497,9.43418 c -2.99734,5.18879 -5.49752,9.48431 -5.55597,9.54559 -0.0585,0.0613 -0.48064,-0.65188 -0.93818,-1.58481 l -0.83192,-1.69624 -1.52192,0.0284 c -0.83706,0.0156 -2.7931,0.11785 -4.34675,0.22722 -2.73441,0.19249 -2.86484,0.1723 -4.07523,-0.6308 -0.68772,-0.45632 -1.40639,-0.83025 -1.59703,-0.83096 -0.19065,-6e-4 -1.92262,1.22777 -3.84883,2.72996 l -3.50219,2.73125 0,1.83745 0,1.83744 -2.77243,2.82709 -2.77243,2.8271 -1.5292,-0.0544 c -0.84106,-0.0299 -2.20841,-0.0977 -3.03855,-0.15065 z"
       style="fill:#ff5a7d;fill-opacity:1;fill-rule:nonzero;stroke:#000000;stroke-width:0.30186868000000000;stroke-miterlimit:4;stroke-opacity:1;stroke-dasharray:none" />
    <path
       id="path3625"
       d="m 161.00446,448.67265 -0.57426,-0.57517 0,-7.35605 0,-7.35605 1.17495,-2.1901 c 0.64623,-1.20456 1.18691,-2.20356 1.20153,-2.22 0.0146,-0.0164 0.24574,0.1044 0.51362,0.26855 l 0.48705,0.29844 2.26402,0.34781 c 1.24521,0.1913 2.29995,0.35911 2.34387,0.37292 0.0732,0.023 -0.11536,0.36279 -2.25253,4.05949 -2.04467,3.53672 -2.3272,4.04408 -2.29039,4.11296 0.0231,0.0432 0.12724,0.22292 0.23142,0.39932 1.26041,2.13417 1.40286,4.2392 0.41918,6.19436 -0.39661,0.78827 -0.81763,1.3833 -1.63775,2.31457 -0.59033,0.67034 -0.62853,0.72316 -0.98231,1.3584 -0.15026,0.2698 -0.28465,0.50295 -0.29866,0.51813 -0.014,0.0152 -0.28389,-0.23124 -0.59974,-0.54758 l 0,0 z"
       style="fill:#ff5a7d;fill-opacity:1;fill-rule:nonzero;stroke:#000000;stroke-width:0.03773358000000000;stroke-miterlimit:4;stroke-opacity:1;stroke-dasharray:none" />
    <path
       id="path3627"
       d="m 215.94363,518.87508 c -0.14879,-0.0384 -0.40806,-0.16125 -0.54312,-0.25726 -0.19311,-0.13728 -0.33754,-0.29568 -0.42182,-0.46264 -0.25186,-0.49889 -0.801,-2.2657 -1.2025,-3.86893 -0.0898,-0.35843 -0.7953,-3.29924 -0.7953,-3.31496 0,-0.009 0.67627,-0.0136 2.07386,-0.0136 l 2.07386,0 0.98337,0.97722 c 0.96864,0.96257 1.19221,1.19621 1.43782,1.50256 0.62338,0.77755 1.1144,1.68858 1.28492,2.38405 l 0.0357,0.14566 0.005,0.77588 0.005,0.77589 -0.0707,0.0266 c -0.0389,0.0146 -0.41892,0.1598 -0.84449,0.32266 -1.28981,0.49359 -1.67885,0.62397 -2.42941,0.81418 -0.82411,0.20883 -1.30433,0.26697 -1.59178,0.19272 z"
       style="fill:#ff5a7d;fill-opacity:1;fill-rule:nonzero;stroke:#000000;stroke-width:0.01334084000000000;stroke-miterlimit:4;stroke-opacity:1;stroke-dasharray:none" />
    <path
       id="path3629"
       d="m 219.90699,536.82561 c -0.43114,-0.11383 -1.02294,-0.60406 -1.37581,-1.13969 -0.11817,-0.17937 -0.71458,-1.14561 -0.71179,-1.15317 0.003,-0.009 1.94202,-1.42166 2.19137,-1.59705 0.4461,-0.3138 0.90191,-0.59756 1.30181,-0.81043 0.15113,-0.0805 0.37485,-0.1888 0.44456,-0.2153 l 0.0253,-0.01 -0.006,0.12531 c -0.0228,0.45033 -0.16344,1.26302 -0.35469,2.04973 -0.0315,0.1297 -0.20688,0.80571 -0.38966,1.50224 l -0.33233,1.2664 -0.36319,-4.9e-4 c -0.32212,-4.4e-4 -0.37065,-0.002 -0.42922,-0.0179 l 0,0 z"
       style="fill:#ff5a7d;fill-opacity:1;fill-rule:nonzero;stroke:#000000;stroke-width:0.00943340000000000;stroke-miterlimit:4;stroke-opacity:1;stroke-dasharray:none" />
    <path
       id="path3631"
       d="m 222.42482,526.35518 c 0.1366,-0.13588 0.24951,-0.24641 0.25089,-0.2456 0.001,8e-4 0.11378,0.11198 0.24975,0.24707 l 0.24723,0.2456 -0.49812,0 -0.49813,0 0.24838,-0.24707 z"
       style="fill:#ff5a7d;fill-opacity:1;fill-rule:nonzero;stroke:#000000;stroke-width:0.00390625000000000;stroke-miterlimit:4;stroke-opacity:1;stroke-dasharray:none" />
  </g>
  <g
     id="g2942"
     transform="translate(-268.9996,-87)">
    <g
       transform="translate(110.98786,-158.13678)"
       id="latitude-longitude-4"
       style="fill:none;stroke:#27aaea;stroke-width:1px;stroke-opacity:0.75;display:inline">
      <path
         d="M 878,648 C 878,823.07427 736.07427,965 561,965 385.92573,965 244,823.07427 244,648 244,472.92573 385.92573,331 561,331 c 175.07427,0 317,141.92573 317,317 z"
         id="Antarctiq-circle-8"
         style="stroke-miterlimit:4;stroke-dasharray:4, 4;stroke-dashoffset:0" />
      <path
         d="m 963,648 c 0,222.01847 -179.98153,402 -402,402 -222.01847,0 -402,-179.98153 -402,-402 0,-222.01847 179.98153,-402 402,-402 222.01847,0 402,179.98153 402,402 l 0,0 z"
         id="latitude-60-3" />
      <path
         d="m 561,0 0,1278"
         id="Greenwitch-9" />
      <g
         id="Claims-0"
         style="fill:none;stroke:#ff0000;stroke-width:1px;stroke-opacity:0.75;display:inline">
        <path
           d="m 807.34375,965.5625 c 3.14014,-2.43929 6.31012,-4.84563 9.375,-7.375 4.96352,-4.09626 9.80316,-8.29929 14.5625,-12.625 2.8404,-2.58161 5.57847,-5.27657 8.34375,-7.9375 L 561,648 807.34375,965.5625 z"
           id="France-5" />
        <path
           d="m 239.96875,406.0625 c -0.35789,0.47417 -0.73792,0.93045 -1.09375,1.40625 -3.8584,5.15929 -7.60663,10.43462 -11.21875,15.78125 -3.61212,5.34663 -7.11134,10.78694 -10.46875,16.3125 -3.35741,5.52556 -6.56196,11.11643 -9.65625,16.8125 -3.09429,5.69607 -6.05225,11.48559 -8.875,17.34375 -2.82275,5.85816 -5.51971,11.80067 -8.0625,17.8125 -2.54279,6.01183 -4.93309,12.09292 -7.1875,18.25 -2.25441,6.15708 -4.38614,12.39359 -6.34375,18.6875 -1.95761,6.29391 -3.75386,12.64018 -5.40625,19.0625 -1.65239,6.42232 -3.16125,12.89519 -4.5,19.4375 -1.33875,6.54231 -2.51456,13.15862 -3.53125,19.8125 -1.01669,6.65388 -1.87629,13.36797 -2.5625,20.125 -0.68621,6.75703 -1.18393,13.55449 -1.53125,20.40625 C 159.18393,634.16426 159,641.06192 159,648 l 402,0 -321.03125,-241.9375 z"
           id="Chile-2" />
        <path
           d="m 698.53125,1025.8438 c 0.22837,-0.083 0.45932,-0.1665 0.6875,-0.25 6.15708,-2.2545 12.23817,-4.6448 18.25,-7.1875 6.01183,-2.5428 11.95434,-5.2398 17.8125,-8.0625 5.85816,-2.8228 11.64768,-5.7808 17.34375,-8.875 5.69607,-3.09434 11.28694,-6.29889 16.8125,-9.6563 5.52556,-3.35741 10.96587,-6.85663 16.3125,-10.46875 5.34663,-3.61212 10.62196,-7.36035 15.78125,-11.21875 1.97352,-1.47591 3.86724,-3.05141 5.8125,-4.5625 L 561,648 698.53125,1025.8438 z M 839.625,937.625 c 1.86819,-1.79769 3.79178,-3.54178 5.625,-5.375 4.54673,-4.54673 8.98679,-9.20941 13.3125,-13.96875 4.32571,-4.75934 8.52874,-9.59898 12.625,-14.5625 4.09626,-4.96352 8.0791,-10.02821 11.9375,-15.1875 3.8584,-5.15929 7.60663,-10.43462 11.21875,-15.78125 3.61212,-5.34663 7.11134,-10.78694 10.46875,-16.3125 3.35741,-5.52556 6.56196,-11.11643 9.65625,-16.8125 3.09429,-5.69607 6.05225,-11.48559 8.875,-17.34375 2.82275,-5.85816 5.51971,-11.80067 8.0625,-17.8125 2.54279,-6.01183 4.93309,-12.09292 7.1875,-18.25 2.25441,-6.15708 4.38614,-12.39359 6.34375,-18.6875 1.95761,-6.29391 3.75386,-12.64018 5.40625,-19.0625 1.65239,-6.42232 3.16125,-12.89519 4.5,-19.4375 1.33875,-6.54231 2.51456,-13.15862 3.53125,-19.8125 1.01669,-6.65388 1.87629,-13.36797 2.5625,-20.125 0.68621,-6.75703 1.18393,-13.55449 1.53125,-20.40625 C 962.81607,661.83574 963,654.93808 963,648 c 0,-6.93808 -0.18393,-13.83574 -0.53125,-20.6875 -0.34732,-6.85176 -0.84504,-13.64922 -1.53125,-20.40625 -0.68621,-6.75703 -1.54581,-13.47112 -2.5625,-20.125 -1.01669,-6.65388 -2.1925,-13.27019 -3.53125,-19.8125 -1.33875,-6.54231 -2.84761,-13.01518 -4.5,-19.4375 -1.65239,-6.42232 -3.44864,-12.76859 -5.40625,-19.0625 -1.95761,-6.29391 -4.08934,-12.53042 -6.34375,-18.6875 -2.25441,-6.15708 -4.64471,-12.23817 -7.1875,-18.25 -2.54279,-6.01183 -5.23975,-11.95434 -8.0625,-17.8125 -2.82275,-5.85816 -5.78071,-11.64768 -8.875,-17.34375 -3.09429,-5.69607 -6.29884,-11.28694 -9.65625,-16.8125 -3.35741,-5.52556 -6.85663,-10.96587 -10.46875,-16.3125 -3.61212,-5.34663 -7.36035,-10.62196 -11.21875,-15.78125 -3.8584,-5.15929 -7.84124,-10.22398 -11.9375,-15.1875 -4.09626,-4.96352 -8.29929,-9.80316 -12.625,-14.5625 -4.32571,-4.75934 -8.76577,-9.42202 -13.3125,-13.96875 -1.02604,-1.02604 -2.11922,-1.98505 -3.15625,-3 L 561,648 839.625,937.625 z"
           id="Australia-2" />
        <path
           d="m 423.46875,270.15625 c -0.22837,0.0831 -0.45932,0.16645 -0.6875,0.25 -6.15708,2.25441 -12.23817,4.64471 -18.25,7.1875 -6.01183,2.54279 -11.95434,5.23975 -17.8125,8.0625 -5.85816,2.82275 -11.64768,5.78071 -17.34375,8.875 -5.69607,3.09429 -11.28694,6.29884 -16.8125,9.65625 -5.52556,3.35741 -10.96587,6.85663 -16.3125,10.46875 -5.34663,3.61212 -10.62196,7.36035 -15.78125,11.21875 -5.15929,3.8584 -10.22398,7.84124 -15.1875,11.9375 -4.96352,4.09626 -9.80316,8.29929 -14.5625,12.625 -4.75934,4.32571 -9.42202,8.76577 -13.96875,13.3125 -4.54673,4.54673 -8.98679,9.20941 -13.3125,13.96875 -4.32571,4.75934 -8.52874,9.59898 -12.625,14.5625 -4.09626,4.96352 -8.0791,10.02821 -11.9375,15.1875 -3.8584,5.15929 -7.60663,10.43462 -11.21875,15.78125 -3.61212,5.34663 -7.11134,10.78694 -10.46875,16.3125 -3.35741,5.52556 -6.56196,11.11643 -9.65625,16.8125 -3.09429,5.69607 -6.05225,11.48559 -8.875,17.34375 -2.82275,5.85816 -5.51971,11.80067 -8.0625,17.8125 -2.54279,6.01183 -4.93309,12.09292 -7.1875,18.25 -2.25441,6.15708 -4.38614,12.39359 -6.34375,18.6875 -1.95761,6.29391 -3.75386,12.64018 -5.40625,19.0625 -1.65239,6.42232 -3.16125,12.89519 -4.5,19.4375 -0.75807,3.70458 -1.34461,7.47781 -2,11.21875 L 561,648 423.46875,270.15625 z"
           id="United-Kingdom-7" />
        <path
           d="m 360.03125,996.09375 c 3.11476,1.80227 6.17686,3.65464 9.34375,5.37505 5.69607,3.0942 11.48559,6.0522 17.34375,8.875 5.85816,2.8227 11.80067,5.5197 17.8125,8.0625 6.01183,2.5427 12.09292,4.933 18.25,7.1875 6.15708,2.2544 12.39359,4.3861 18.6875,6.3437 6.29391,1.9576 12.64018,3.7539 19.0625,5.4063 6.42232,1.6523 12.89519,3.1612 19.4375,4.5 6.54231,1.3387 13.15862,2.5145 19.8125,3.5312 6.65388,1.0167 13.36797,1.8763 20.125,2.5625 6.75703,0.6862 13.55449,1.1839 20.40625,1.5313 6.85176,0.3473 13.74942,0.5312 20.6875,0.5312 6.93808,0 13.83574,-0.1839 20.6875,-0.5312 6.85176,-0.3474 13.64922,-0.8451 20.40625,-1.5313 6.75703,-0.6862 13.47112,-1.5458 20.125,-2.5625 6.65388,-1.0167 13.27019,-2.1925 19.8125,-3.5312 6.54231,-1.3388 13.01518,-2.8477 19.4375,-4.5 6.42232,-1.6524 12.76859,-3.4487 19.0625,-5.4063 6.06065,-1.8851 12.06608,-3.9333 18,-6.0937 L 561,648 360.03125,996.09375 z"
           id="New-Zealand" />
        <path
           d="m 804.625,399.0625 c -0.11657,-0.0588 -0.1936,-0.1626 -0.3125,-0.21875 -1.31038,-0.61881 -2.76968,-1.08663 -4.3125,-1.4375 -3.08564,-0.70175 -6.53134,-0.957 -10,-1.1875 -3.46866,-0.2305 -6.93981,-0.44011 -10.0625,-1 -1.56134,-0.27995 -3.03683,-0.64383 -4.375,-1.15625 -1.33817,-0.51242 -2.53863,-1.15503 -3.5625,-2 -1.02387,-0.84497 -1.89839,-1.90764 -2.65625,-3.125 -0.75786,-1.21736 -1.39601,-2.61258 -1.96875,-4.09375 -1.14547,-2.96235 -2.01601,-6.32135 -2.90625,-9.6875 -0.89024,-3.36615 -1.81171,-6.72365 -3.09375,-9.625 -0.64102,-1.45068 -1.38971,-2.79714 -2.25,-3.96875 -0.86029,-1.17161 -1.83956,-2.18478 -3,-2.96875 -1.16043,-0.78398 -2.46668,-1.3265 -3.875,-1.6875 -1.40832,-0.361 -2.91409,-0.54008 -4.5,-0.59375 -3.17182,-0.10734 -6.63343,0.29065 -10.09375,0.71875 -3.46032,0.4281 -6.90739,0.89915 -10.09375,0.9375 -1.59318,0.0192 -3.14327,-0.0608 -4.5625,-0.3125 -1.41923,-0.25173 -2.73128,-0.67422 -3.90625,-1.3125 -1.17498,-0.63828 -2.23259,-1.5076 -3.21875,-2.5625 -0.98616,-1.0549 -1.89407,-2.30685 -2.75,-3.65625 -1.71186,-2.69881 -3.20756,-5.85591 -4.75,-9 -0.77122,-1.57204 -1.55826,-3.15607 -2.375,-4.65625 -0.81674,-1.50018 -1.6729,-2.91254 -2.59375,-4.21875 -0.92085,-1.30621 -1.91646,-2.47864 -3,-3.46875 -1.08354,-0.99011 -2.25769,-1.79186 -3.5625,-2.34375 -1.30481,-0.55189 -2.68891,-0.84874 -4.15625,-0.9375 -1.46734,-0.0888 -3.01055,0.0339 -4.59375,0.28125 -3.16639,0.49467 -6.52519,1.51691 -9.875,2.59375 -3.34981,1.07684 -6.68387,2.201 -9.84375,2.84375 -1.57994,0.32137 -3.1313,0.50895 -4.59375,0.53125 -1.46245,0.0223 -2.85796,-0.12744 -4.15625,-0.53125 -1.2983,-0.40381 -2.52334,-1.05735 -3.71875,-1.90625 -1.19541,-0.8489 -2.34248,-1.89972 -3.46875,-3.0625 -2.25253,-2.32555 -4.41536,-5.14372 -6.59375,-7.9375 -1.0892,-1.39689 -2.19123,-2.77662 -3.3125,-4.09375 -1.12127,-1.31713 -2.25041,-2.58135 -3.4375,-3.6875 -1.18709,-1.10615 -2.4321,-2.04854 -3.71875,-2.8125 -1.28665,-0.76396 -2.61131,-1.33444 -4.03125,-1.625 -1.41994,-0.29056 -2.88568,-0.321 -4.375,-0.125 -1.48932,0.196 -3.02455,0.60738 -4.5625,1.15625 -1.53795,0.54887 -3.09043,1.2632 -4.65625,2.03125 -1.56582,0.76805 -3.14582,1.58398 -4.71875,2.4375 -3.14586,1.70704 -6.26272,3.47199 -9.3125,4.71875 -1.52489,0.62338 -3.03026,1.12974 -4.5,1.4375 -1.46974,0.30776 -2.91867,0.4228 -4.3125,0.28125 -1.39383,-0.14155 -2.77254,-0.55881 -4.15625,-1.15625 -1.38371,-0.59744 -2.77577,-1.39447 -4.15625,-2.3125 -2.76096,-1.83605 -5.5231,-4.16224 -8.3125,-6.46875 -1.3947,-1.15326 -2.77535,-2.30709 -4.1875,-3.375 -1.41215,-1.06791 -2.84476,-2.059 -4.28125,-2.90625 -1.43649,-0.84725 -2.87603,-1.53997 -4.34375,-2.03125 C 564.00103,299.28997 562.50584,299 561,299 c -1.50584,0 -3.00103,0.28997 -4.46875,0.78125 -1.46772,0.49128 -2.90726,1.184 -4.34375,2.03125 -1.43649,0.84725 -2.8691,1.83834 -4.28125,2.90625 -1.41215,1.06791 -2.7928,2.22174 -4.1875,3.375 -2.7894,2.30651 -5.55154,4.6327 -8.3125,6.46875 -1.38048,0.91803 -2.77254,1.71506 -4.15625,2.3125 -1.38371,0.59744 -2.76242,1.0147 -4.15625,1.15625 -1.39383,0.14155 -2.84277,0.0265 -4.3125,-0.28125 -1.46973,-0.30776 -2.97511,-0.81412 -4.5,-1.4375 -3.04978,-1.24676 -6.16664,-3.01171 -9.3125,-4.71875 -1.57293,-0.85352 -3.15293,-1.66945 -4.71875,-2.4375 -1.56582,-0.76805 -3.1183,-1.48238 -4.65625,-2.03125 -1.53795,-0.54887 -3.07318,-0.96025 -4.5625,-1.15625 -1.48932,-0.196 -2.95506,-0.16556 -4.375,0.125 -1.41995,0.29056 -2.7446,0.86104 -4.03125,1.625 -1.28665,0.76396 -2.53166,1.70635 -3.71875,2.8125 -1.18709,1.10615 -2.31623,2.37037 -3.4375,3.6875 -1.12127,1.31713 -2.2233,2.69686 -3.3125,4.09375 -2.17839,2.79378 -4.34122,5.61195 -6.59375,7.9375 -1.12627,1.16278 -2.27334,2.2136 -3.46875,3.0625 -1.19541,0.8489 -2.42046,1.50244 -3.71875,1.90625 -1.29829,0.40381 -2.6938,0.55355 -4.15625,0.53125 -1.46245,-0.0223 -3.01381,-0.20988 -4.59375,-0.53125 -2.84879,-0.57947 -5.8569,-1.58954 -8.875,-2.5625 l 91.40625,251.125 c 1.33749,0.72985 2.71992,1.7106 4.125,2.78125 1.54462,1.17697 3.10155,2.38578 4.5,3.25 0.69923,0.43211 1.35081,0.75712 1.96875,0.96875 0.61794,0.21163 1.18068,0.29121 1.6875,0.1875 0.50682,-0.10371 1.011,-0.37451 1.5,-0.8125 0.489,-0.43799 0.98747,-1.0457 1.46875,-1.71875 0.96256,-1.3461 1.91404,-3.05891 2.90625,-4.75 0.99221,-1.69109 2.02238,-3.35136 3.125,-4.59375 0.55131,-0.6212 1.1247,-1.1398 1.71875,-1.5 0.59405,-0.3602 1.19686,-0.5625 1.84375,-0.5625 0.64689,0 1.2497,0.2023 1.84375,0.5625 0.59405,0.3602 1.16744,0.8788 1.71875,1.5 1.10262,1.24239 2.13279,2.90266 3.125,4.59375 0.99221,1.69109 1.94369,3.4039 2.90625,4.75 0.48128,0.67305 0.97975,1.28076 1.46875,1.71875 0.489,0.43799 0.99318,0.70879 1.5,0.8125 0.50682,0.10371 1.06956,0.0241 1.6875,-0.1875 0.61794,-0.21163 1.26952,-0.53664 1.96875,-0.96875 1.39846,-0.86422 2.95537,-2.07303 4.5,-3.25 1.54463,-1.17697 3.07909,-2.33165 4.53125,-3.0625 0.72608,-0.36542 1.43553,-0.6384 2.09375,-0.75 0.65822,-0.1116 1.28322,-0.0496 1.84375,0.1875 0.56053,0.23708 0.99824,0.63823 1.375,1.1875 0.37676,0.54927 0.69723,1.22622 0.9375,2 0.48055,1.54756 0.71923,3.45539 0.9375,5.375 0.21827,1.91961 0.41578,3.8472 0.75,5.4375 0.16711,0.79515 0.35799,1.51243 0.625,2.09375 0.26701,0.58132 0.5858,1.03268 1,1.3125 0.4142,0.27983 0.95616,0.439 1.59375,0.46875 0.63759,0.0298 1.39,-0.075 2.1875,-0.21875 1.59501,-0.28745 3.42746,-0.82196 5.28125,-1.34375 1.85379,-0.52179 3.70776,-1.0129 5.3125,-1.15625 0.80237,-0.0717 1.54261,-0.0753 2.1875,0.0625 0.34452,0.0736 0.58933,0.28731 0.875,0.4375 L 804.625,399.0625 z"
           id="Norway-3" />
        <path
           d="m 372.28125,293.0625 c -0.95665,0.50968 -1.95423,0.95158 -2.90625,1.46875 -5.69607,3.09429 -11.28694,6.29884 -16.8125,9.65625 -5.52556,3.35741 -10.96587,6.85663 -16.3125,10.46875 -5.34663,3.61212 -10.62196,7.36035 -15.78125,11.21875 -5.15929,3.8584 -10.22398,7.84124 -15.1875,11.9375 -4.96352,4.09626 -9.80316,8.29929 -14.5625,12.625 -4.75934,4.32571 -9.42202,8.76577 -13.96875,13.3125 -4.54673,4.54673 -8.98679,9.20941 -13.3125,13.96875 -4.32571,4.75934 -8.52874,9.59898 -12.625,14.5625 -3.7185,4.50577 -7.32095,9.11383 -10.84375,13.78125 L 561,648 372.28125,293.0625 z"
           id="Brazil-7"
           style="stroke:none" />
        <path
           d="M 491.1875,252.15625 561,648 698.53125,270.15625 C 655.62354,254.53448 609.30942,246 561,246 c -23.82362,0 -47.12736,2.18196 -69.8125,6.15625 z"
           id="Nazi-Germany-9"
           style="stroke:none" />
      </g>
    </g>
  </g>
</svg>
