<svg height="660" width="600" xmlns="http://www.w3.org/2000/svg" xmlns:xlink="http://www.w3.org/1999/xlink"><radialGradient id="a" cx="221.44487" cy="226.33101" gradientTransform="matrix(1.35322 0 0 1.34893 -77.62935 -85.746928)" gradientUnits="userSpaceOnUse" r="300"><stop offset="0" stop-color="#fff" stop-opacity=".313726"/><stop offset=".19" stop-color="#fff" stop-opacity=".25098"/><stop offset=".60000002" stop-color="#6b6b6b" stop-opacity=".12549"/><stop offset="1" stop-opacity=".12549"/></radialGradient><clipPath id="b"><path d="m-.7785955 659.06608v-657.2262733l298.9975555.0004002v258.9071631c0 285.84397-298.9975555 398.31871-298.9975555 398.31871z"/></clipPath><path d="m300 658.49972s298.5-112.43608 298.5-398.18182v-258.81818h-597v258.81818c0 285.74574 298.5 398.18182 298.5 398.18182z" fill="#2b5df2" fill-rule="evenodd"/><g enable-background="new" transform="translate(0 .000021)"><g fill="#fcef3c" stroke="#000" stroke-width="1.111167" transform="matrix(1.7999732 0 0 1.7998432 234.51112 516.99282)"><g fill-rule="evenodd"><path d="m288.22656 628.45312c-.0173.0406-.0335 1.50643-.0508 1.54688-3.71103 8.68121-8.09061 13.40067-12.54492 17.65234 1.88963.90352 3.766 1.80397 5.46289 2.58985 3.36938-.99724 6.76536-2.72488 10.22461-5.61719.0267 4.04966.1898 7.45564.49219 10.4043 5.21171 2.23499 8.18945 3.36718 8.18945 3.36718s3.00426-1.14299 8.25195-3.39453c.30023-2.94939.45195-6.34938.44727-10.37695 3.45674 2.89022 6.84635 4.61765 10.20898 5.61523 1.69663-.78576 3.57361-1.68453 5.46289-2.58789-4.45137-4.25366-8.82152-8.97778-12.5332-17.66406-.0158-.037-.033-1.49802-.0488-1.53516z" stroke-width="1.994543" transform="matrix(.55617285 0 0 .5580355 -130.5655 -288.54867)"/><path d="m126.28125 7.9375c-34.941678 37.094566-47.110942 79.17815-20.625 133.34375 7.61231 15.5677 11.26935 32.81269 10.3329 51.85239-.007.13242-.0133 2.15323-.0204 2.28588h20.625c-.009-.16822-.0175-2.22452-.0256-2.39236-.91273-18.99537 2.73941-36.20749 10.33807-51.74591 26.48782-54.164676 14.31668-96.249184-20.625-133.34375z" stroke-width="3.69641" transform="matrix(.300607 0 0 .300607 -1.678333 0)"/><path d="m52.25 100c-35.235309.84534-58.7273133 60.01799 15.21875 88.875-24.344519-47.68797 20.543644-30.26926 26.803348 4.25053.02448.13498.04836 2.15849.07165 2.29399h17.531252c-.0214-.15621-.0429-2.20046-.0644-2.35621-9.73593-70.29628-37.037541-93.603667-59.5606-93.06331z" stroke-width="3.69641" transform="matrix(.300607 0 0 .300607 -1.678333 0)"/><path d="m198.96875 100c-22.24794.41661-48.6375 24.1701-58.18146 93.03384-.023.16554-.0458 2.21962-.0685 2.38568h17.5c.0365-.21207.0744-2.31178.11372-2.52257 6.41636-34.36787 51.08325-51.60454 26.79253-4.02195 74.89409-29.22698 49.82147-89.548708 13.84375-88.875z" stroke-width="3.69641" transform="matrix(.300607 0 0 .300607 -1.678333 0)"/></g><path d="m21.706974 58.178268h29.158859v4.771534h-29.158859z" stroke-width="1.111167"/></g><g fill="#fcef3c" fill-rule="evenodd" stroke="#000" stroke-width="1.994543" transform="matrix(1.00109622457 0 0 1.00437640003 -.50328060663 -2.34954156854)"><path d="m150.49414 521.35547c-8.60575 9.10548-14.64406 18.77239-17.32617 29.35547 11.20298 10.49662 22.53422 20.16754 33.74805 29.0332 6.63291-22.87787-.53981-41.58432-16.42188-58.38867z"/><path d="m189.78125 570.94727c-6.19609.11563-12.98352 3.58463-18.81641 11.98046 10.71452 8.31131 21.27556 15.87383 31.48047 22.74024 13.67261-15.98662 2.23499-34.99877-12.66406-34.7207z"/></g><g fill="#fcef3c" stroke="#000" stroke-width="1.994543" transform="matrix(1.00109622457 0 0 1.00437640003 -.50327796874 -2.34954155958)"><path d="m1.7421875 274.16602c.8839015 25.75088 4.2094056 50.04495 9.5117185 72.92968.285171-.64115.57717-1.27927.886719-1.91015 14.123582-28.78477 7.904147-51.23421-10.3984375-71.01953z" fill-rule="evenodd"/><path d="m40.28125 322.94727c-9.647259.18005-20.731035 8.46692-27.402344 30.88671 1.649236 6.55467 3.469007 12.98506 5.431641 19.30469.0023-.034.0035-.13604.0059-.14844 3.467992-18.51355 27.611363-27.79818 14.482422-2.16601 40.47966-15.74422 26.928094-48.23987 7.482422-47.87695z" fill-rule="evenodd"/><path d="m18.371094 373.33398c.893774 2.87228 1.810512 5.72674 2.765625 8.55079h6.078125v-8.55079z"/></g><g fill="#fcef3c" stroke="#000" stroke-width="1.111167" transform="matrix(1.7999732 0 0 1.7998432 -64.816639 18.822127)"><g fill-rule="evenodd"><path d="m1.5 132.45312v44.75196c5.6108314-5.50982 8.2187731-11.74117 8.1992188-28.58008 6.7204252 5.61902 13.1874142 6.86359 19.6933592 6.83398-5.785009-5.57385-11.726821-10.17226-16.554687-21.4707-.01582-.037-.03304-1.49802-.04883-1.53516z" stroke-width="1.994543" transform="matrix(.55617285 0 0 .5580355 35.730177 -11.763063)"/><path d="m1.5 25.904297v100.445313h5.0664062c-.00486-.0906-.00929-1.19865-.013672-1.28906-.4933231-10.23258 1.4827262-19.50482 5.5878908-27.875003 14.181626-28.915486 7.862561-51.425806-10.640625-71.28125z" stroke-width="1.994543" transform="matrix(.55617285 0 0 .5580355 35.730177 -11.763063)"/><path d="m198.96875 100c-22.24794.41661-48.6375 24.1701-58.18146 93.03384-.023.16554-.0458 2.21962-.0685 2.38568h17.5c.0365-.21207.0744-2.31178.11372-2.52257 6.41636-34.36787 51.08325-51.60454 26.79253-4.02195 74.89409-29.22698 49.82147-89.548708 13.84375-88.875z" stroke-width="3.69641" transform="matrix(.300607 0 0 .300607 -1.678333 0)"/></g><path d="m1.5 125.33398v8.55079h25.714844v-8.55079z" stroke-width="1.994543" transform="matrix(.55617285 0 0 .5580355 35.730177 -11.763063)"/></g><g fill="#fcef3c" stroke="#000" stroke-width="1.111167" transform="matrix(1.7999732 0 0 1.7998432 159.67918 392.45015)"><g fill-rule="evenodd"><path d="m29.738807 62.150872c-.0096.02267-.01921.839966-.02883.862538-2.684853 6.301712-5.998127 8.865525-9.214838 11.975207 3.618431.01652 7.225043-.678341 10.962762-3.813951.06366 9.674934 1.458013 12.982212 4.819106 16.232778 3.322963-3.148967 4.858497-6.547149 4.847287-16.232778 3.737718 3.135613 7.334938 3.830472 10.953368 3.813951-3.217465-3.110408-6.52279-5.676089-9.207918-11.98102-.0088-.02064-.01757-.836002-.02635-.856725z" stroke-width="1.111167"/><path d="m126.28125 7.9375c-34.941678 37.094566-47.110942 79.17815-20.625 133.34375 7.61231 15.5677 11.26935 32.81269 10.3329 51.85239-.007.13242-.0133 2.15323-.0204 2.28588h20.625c-.009-.16822-.0175-2.22452-.0256-2.39236-.91273-18.99537 2.73941-36.20749 10.33807-51.74591 26.48782-54.164676 14.31668-96.249184-20.625-133.34375z" stroke-width="3.69641" transform="matrix(.300607 0 0 .300607 -1.678333 0)"/><path d="m52.25 100c-35.235309.84534-58.7273133 60.01799 15.21875 88.875-24.344519-47.68797 20.543644-30.26926 26.803348 4.25053.02448.13498.04836 2.15849.07165 2.29399h17.531252c-.0214-.15621-.0429-2.20046-.0644-2.35621-9.73593-70.29628-37.037541-93.603667-59.5606-93.06331z" stroke-width="3.69641" transform="matrix(.300607 0 0 .300607 -1.678333 0)"/><path d="m198.96875 100c-22.24794.41661-48.6375 24.1701-58.18146 93.03384-.023.16554-.0458 2.21962-.0685 2.38568h17.5c.0365-.21207.0744-2.31178.11372-2.52257 6.41636-34.36787 51.08325-51.60454 26.79253-4.02195 74.89409-29.22698 49.82147-89.548708 13.84375-88.875z" stroke-width="3.69641" transform="matrix(.300607 0 0 .300607 -1.678333 0)"/></g><path d="m21.706974 58.178268h29.158859v4.771534h-29.158859z" stroke-width="1.111167"/></g><g id="c" stroke="#000" stroke-width="1.111167" transform="matrix(1.7999732 0 0 1.7998432 9.952892 -103.71179)"><path d="m29.738807 62.150872c-.0096.02267-.01921.839966-.02883.862538-2.684853 6.301712-5.998127 8.865525-9.214838 11.975207 3.618431.01652 7.225043-.678341 10.962762-3.813951.06366 9.674934 1.458013 12.982212 4.819106 16.232778 3.322963-3.148967 4.858497-6.547149 4.847287-16.232778 3.737718 3.135613 7.334938 3.830472 10.953368 3.813951-3.217465-3.110408-6.52279-5.676089-9.207918-11.98102-.0088-.02064-.01757-.836002-.02635-.856725z" fill="#fcef3c" fill-rule="evenodd" stroke="#000" stroke-width="1.111167"/><path d="m21.706974 58.178268h29.158859v4.771534h-29.158859z" fill="#fcef3c" stroke="#000" stroke-width="1.111167"/></g><use height="100%" stroke-width="1.994543" transform="translate(149.66388 -.000007)" width="100%" xlink:href="#c"/><g id="d" stroke="#000" stroke-width="1.111167" transform="matrix(1.7999732 0 0 1.7998432 84.84724 267.90747)"><path d="m29.738807 62.150872c-.0096.02267-.01921.839966-.02883.862538-2.684853 6.301712-5.998127 8.865525-9.214838 11.975207 3.618431.01652 7.225043-.678341 10.962762-3.813951.06366 9.674934 1.458013 12.982212 4.819106 16.232778 3.322963-3.148967 4.858497-6.547149 4.847287-16.232778 3.737718 3.135613 7.334938 3.830472 10.953368 3.813951-3.217465-3.110408-6.52279-5.676089-9.207918-11.98102-.0088-.02064-.01757-.836002-.02635-.856725z" fill="#fcef3c" fill-rule="evenodd" stroke="#000" stroke-width="1.111167"/><path d="m126.28125 7.9375c-34.941678 37.094566-47.110942 79.17815-20.625 133.34375 7.61231 15.5677 11.26935 32.81269 10.3329 51.85239-.007.13242-.0133 2.15323-.0204 2.28588h20.625c-.009-.16822-.0175-2.22452-.0256-2.39236-.91273-18.99537 2.73941-36.20749 10.33807-51.74591 26.48782-54.164676 14.31668-96.249184-20.625-133.34375z" fill="#fcef3c" fill-rule="evenodd" stroke="#000" stroke-width="3.69641" transform="matrix(.300607 0 0 .300607 -1.678333 0)"/><path d="m52.25 100c-35.235309.84534-58.7273133 60.01799 15.21875 88.875-24.344519-47.68797 20.543644-30.26926 26.803348 4.25053.02448.13498.04836 2.15849.07165 2.29399h17.531252c-.0214-.15621-.0429-2.20046-.0644-2.35621-9.73593-70.29628-37.037541-93.603667-59.5606-93.06331z" fill="#fcef3c" fill-rule="evenodd" stroke="#000" stroke-width="3.69641" transform="matrix(.300607 0 0 .300607 -1.678333 0)"/><path d="m198.96875 100c-22.24794.41661-48.6375 24.1701-58.18146 93.03384-.023.16554-.0458 2.21962-.0685 2.38568h17.5c.0365-.21207.0744-2.31178.11372-2.52257 6.41636-34.36787 51.08325-51.60454 26.79253-4.02195 74.89409-29.22698 49.82147-89.548708 13.84375-88.875z" fill="#fcef3c" fill-rule="evenodd" stroke="#000" stroke-width="3.69641" transform="matrix(.300607 0 0 .300607 -1.678333 0)"/><path d="m21.706974 58.178268h29.158859v4.771534h-29.158859z" fill="#fcef3c" stroke="#000" stroke-width="1.111167"/></g><use height="100%" stroke-width="1.994543" transform="translate(149.6639)" width="100%" xlink:href="#d"/><g id="e" stroke="#000" stroke-width="1.111167" transform="matrix(1.7999732 0 0 1.7998432 159.6792 143.36479)"><path d="m29.738807 62.150872c-.0096.02267-.01921.839966-.02883.862538-2.684853 6.301712-5.998127 8.865525-9.214838 11.975207 3.618431.01652 7.225043-.678341 10.962762-3.813951.06366 9.674934 1.458013 12.982212 4.819106 16.232778 3.322963-3.148967 4.858497-6.547149 4.847287-16.232778 3.737718 3.135613 7.334938 3.830472 10.953368 3.813951-3.217465-3.110408-6.52279-5.676089-9.207918-11.98102-.0088-.02064-.01757-.836002-.02635-.856725z" fill="#fcef3c" fill-rule="evenodd" stroke="#000" stroke-width="1.111167"/><path d="m126.28125 7.9375c-34.941678 37.094566-47.110942 79.17815-20.625 133.34375 7.61231 15.5677 11.26935 32.81269 10.3329 51.85239-.007.13242-.0133 2.15323-.0204 2.28588h20.625c-.009-.16822-.0175-2.22452-.0256-2.39236-.91273-18.99537 2.73941-36.20749 10.33807-51.74591 26.48782-54.164676 14.31668-96.249184-20.625-133.34375z" fill="#fcef3c" fill-rule="evenodd" stroke="#000" stroke-width="3.69641" transform="matrix(.300607 0 0 .300607 -1.678333 0)"/><path d="m52.25 100c-35.235309.84534-58.7273133 60.01799 15.21875 88.875-24.344519-47.68797 20.543644-30.26926 26.803348 4.25053.02448.13498.04836 2.15849.07165 2.29399h17.531252c-.0214-.15621-.0429-2.20046-.0644-2.35621-9.73593-70.29628-37.037541-93.603667-59.5606-93.06331z" fill="#fcef3c" fill-rule="evenodd" stroke="#000" stroke-width="3.69641" transform="matrix(.300607 0 0 .300607 -1.678333 0)"/><path d="m198.96875 100c-22.24794.41661-48.6375 24.1701-58.18146 93.03384-.023.16554-.0458 2.21962-.0685 2.38568h17.5c.0365-.21207.0744-2.31178.11372-2.52257 6.41636-34.36787 51.08325-51.60454 26.79253-4.02195 74.89409-29.22698 49.82147-89.548708 13.84375-88.875z" fill="#fcef3c" fill-rule="evenodd" stroke="#000" stroke-width="3.69641" transform="matrix(.300607 0 0 .300607 -1.678333 0)"/><path d="m21.706974 58.178268h29.158859v4.771534h-29.158859z" fill="#fcef3c" stroke="#000" stroke-width="1.111167"/></g><use id="f" height="100%" stroke-width="1.994543" transform="translate(-149.66388 .000003)" width="100%" xlink:href="#e"/><use id="g" height="100%" stroke-width="1.994543" transform="translate(74.831943 -124.54268)" width="100%" xlink:href="#f"/><g stroke-width="1.994543"><use height="100%" transform="translate(149.66385)" width="100%" xlink:href="#g"/><g fill="#fcef3c" stroke="#000" transform="matrix(1.00109622457 0 0 1.00437640003 -.50327858753 -2.34953356563)"><path d="m75.744141 397.35547c-18.885699 19.98239-25.463879 42.65172-11.148438 71.83008.500263 1.01965.967863 2.05312 1.404297 3.09961 4.90776 7.32729 9.996628 14.41752 15.234375 21.27343.06323-8.85677 2.023019-16.96829 5.65625-24.37304 14.316455-29.17786 7.739216-51.84769-11.146484-71.83008z" fill-rule="evenodd"/><path d="m115.03125 446.94727c-11.98282.22363-26.186954 12.93891-31.390625 49.73632.434374.55797.872324 1.11121 1.308594 1.66602h8.05664c.01973-.11424.03929-1.24583.06055-1.35938 3.467992-18.51355 27.611361-27.79818 14.482421-2.16601 40.47966-15.74422 26.92809-48.23987 7.48242-47.87695z" fill-rule="evenodd"/><path d="m84.152344 497.33398c2.260616 2.89244 4.546355 5.7432 6.855468 8.55079h10.957028v-8.55079z"/></g></g></g><path d="m299.99995 658.39715v-656.8971491l298.50006.0004v258.7775091c0 285.70083-298.50006 398.11924-298.50006 398.11924z" fill="#e20909" fill-rule="evenodd"/><g clip-path="url(#b)" stroke-width="1.001083" transform="matrix(.99833611 0 0 .99949923 300.77725 -.338885)"><g id="h" enable-background="new" fill="#fcef3c" stroke-width=".693886" transform="matrix(1.0820409 0 0 1.0820409 -322.29658 -125.11962)"><use height="660" stroke-width=".693886" transform="translate(-22.180308 9.241795)" width="600" xlink:href="#i"/><use height="660" stroke-width=".693886" transform="translate(22.180307 9.241795)" width="600" xlink:href="#i"/><g id="i" stroke-width=".693886"><g fill="#fcef3c" stroke="#000" stroke-width="1.495278" transform="matrix(.48285403 0 0 .4459808 330.35563 253.87814)"><path d="m237.19054 316.25646v86.50831l-9.5106-7.49028v-80.58584z" style="fill:#fcef3c;fill-rule:evenodd;stroke:#000;stroke-width:1.495278;stroke-linecap:round;stroke-linejoin:round"/><path d="m232.5327 315.52489 4.80099 3.0445 5.36842-5.08484-5.53814-3.11934z" style="fill:#fcef3c;fill-rule:evenodd;stroke:#000;stroke-width:1.495278;stroke-linecap:round;stroke-linejoin:round"/><path d="m237.16397 299.78526 5.51316 4.00768v9.68496l-5.51315-3.11269z" style="fill:#fcef3c;fill-rule:evenodd;stroke:#000;stroke-width:1.495278;stroke-linecap:round;stroke-linejoin:round"/><path d="m204.21375 316.25646v86.29396l9.23042-7.77045v-80.37149z" style="fill:#fcef3c;fill-rule:evenodd;stroke:#000;stroke-width:1.495278;stroke-linecap:round;stroke-linejoin:round"/><path d="m208.87159 315.52489-4.80099 3.0445-5.36842-5.08484 5.53814-3.11934z" style="fill:#fcef3c;fill-rule:evenodd;stroke:#000;stroke-width:1.495278;stroke-linecap:round;stroke-linejoin:round"/><path d="m204.24032 299.78526-5.51316 4.00768v9.68496l5.51315-3.11269z" style="fill:#fcef3c;fill-rule:evenodd;stroke:#000;stroke-width:1.495278;stroke-linecap:round;stroke-linejoin:round"/><path d="m204.15831 310.29354 4.43688 5.22072h24.16889l4.42752-5.24368-33.03329.023z" style="fill:#fcef3c;fill-rule:evenodd;stroke:#000;stroke-width:1.495278;stroke-linecap:round;stroke-linejoin:round"/><path d="m204.21325 299.78436h6.23811v4.8334h7.00055v-4.8334h6.39985v4.8334h6.83881v-4.8334h6.4461v10.44272h-32.92342z" style="fill:#fcef3c;fill-rule:evenodd;stroke:#000;stroke-width:1.495278;stroke-linecap:round;stroke-linejoin:round"/><path d="m208.76465 315.50003v83.62392h11.9063 11.9062v-83.62392z" style="fill:#fcef3c;fill-rule:evenodd;stroke:#000;stroke-width:1.495278;stroke-linecap:round;stroke-linejoin:round"/></g><g fill="#fcef3c" stroke="#000" stroke-width="1.495278" transform="matrix(.48285403 0 0 .4459808 330.37341 253.87814)"><path d="m232.68181 361.17309 4.50873 2.84918" style="fill:#fcef3c;fill-rule:evenodd;stroke:#000;stroke-width:1.495278;stroke-linecap:round;stroke-linejoin:round"/><path d="m232.68181 352.12251 4.50873 2.84917" style="fill:#fcef3c;fill-rule:evenodd;stroke:#000;stroke-width:1.495278;stroke-linecap:round;stroke-linejoin:round"/><path d="m232.68181 343.07194 4.50873 2.84919" style="fill:#fcef3c;fill-rule:evenodd;stroke:#000;stroke-width:1.495278;stroke-linecap:round;stroke-linejoin:round"/><path d="m232.68181 334.02135 4.50873 2.84919" style="fill:#fcef3c;fill-rule:evenodd;stroke:#000;stroke-width:1.495278;stroke-linecap:round;stroke-linejoin:round"/><path d="m232.68181 324.97077 4.50873 2.84919" style="fill:#fcef3c;fill-rule:evenodd;stroke:#000;stroke-width:1.495278;stroke-linecap:round;stroke-linejoin:round"/><path d="m208.72248 361.17309-4.50873 2.84918" style="fill:#fcef3c;fill-rule:evenodd;stroke:#000;stroke-width:1.495278;stroke-linecap:round;stroke-linejoin:round"/><path d="m208.72248 352.12251-4.50873 2.84917" style="fill:#fcef3c;fill-rule:evenodd;stroke:#000;stroke-width:1.495278;stroke-linecap:round;stroke-linejoin:round"/><path d="m208.72248 343.07194-4.50873 2.84919" style="fill:#fcef3c;fill-rule:evenodd;stroke:#000;stroke-width:1.495278;stroke-linecap:round;stroke-linejoin:round"/><path d="m208.72248 334.02135-4.50873 2.84919" style="fill:#fcef3c;fill-rule:evenodd;stroke:#000;stroke-width:1.495278;stroke-linecap:round;stroke-linejoin:round"/><path d="m208.72248 324.97077-4.50873 2.84919" style="fill:#fcef3c;fill-rule:evenodd;stroke:#000;stroke-width:1.495278;stroke-linecap:round;stroke-linejoin:round"/><path d="m220.50618 351.81081v-2.99705" style="fill:#fcef3c;fill-rule:evenodd;stroke:#000;stroke-width:1.495278;stroke-linecap:round;stroke-linejoin:round"/><path d="m208.69048 325.09857h23.71579" style="fill:#fcef3c;fill-rule:evenodd;stroke:#000;stroke-width:1.495278;stroke-linecap:round;stroke-linejoin:round"/><path d="m226.48014 334.01197h2.87617 2.87619" style="fill:#fcef3c;fill-rule:evenodd;stroke:#000;stroke-width:1.495278;stroke-linecap:round;stroke-linejoin:round"/><path d="m226.19295 343.32178h2.93944 2.93944" style="fill:#fcef3c;fill-rule:evenodd;stroke:#000;stroke-width:1.495278;stroke-linecap:round;stroke-linejoin:round"/><path d="m208.69048 351.91547h11.8579 11.85789" style="fill:#fcef3c;fill-rule:evenodd;stroke:#000;stroke-width:1.495278;stroke-linecap:round;stroke-linejoin:round"/><path d="m208.69048 361.22528h11.8579 11.85789" style="fill:#fcef3c;fill-rule:evenodd;stroke:#000;stroke-width:1.495278;stroke-linecap:round;stroke-linejoin:round"/><path d="m220.67499 369.3981v-6.17647-1.73623" style="fill:#fcef3c;fill-rule:evenodd;stroke:#000;stroke-width:1.495278;stroke-linecap:round;stroke-linejoin:round"/><path d="m216.72516 360.94412v-4.39451-4.39451" style="fill:#fcef3c;fill-rule:evenodd;stroke:#000;stroke-width:1.495278;stroke-linecap:round;stroke-linejoin:round"/><path d="m225.47117 361.03118v-4.48157-4.39451" style="fill:#fcef3c;fill-rule:evenodd;stroke:#000;stroke-width:1.495278;stroke-linecap:round;stroke-linejoin:round"/><path d="m216.72516 324.7044v-9.08031" style="fill:#fcef3c;fill-rule:evenodd;stroke:#000;stroke-width:1.495278;stroke-linecap:round;stroke-linejoin:round"/><path d="m225.30239 324.60838.16878-8.96295" style="fill:#fcef3c;fill-rule:evenodd;stroke:#000;stroke-width:1.495278;stroke-linecap:round;stroke-linejoin:round"/><path d="m232.68181 369.91303 4.50873 2.84917" style="fill:#fcef3c;fill-rule:evenodd;stroke:#000;stroke-width:1.495278;stroke-linecap:round;stroke-linejoin:round"/><path d="m208.72248 369.91303-4.50873 2.84917" style="fill:#fcef3c;fill-rule:evenodd;stroke:#000;stroke-width:1.495278;stroke-linecap:round;stroke-linejoin:round"/><path d="m208.69048 369.70599h11.8579 11.85789" style="fill:#fcef3c;fill-rule:evenodd;stroke:#000;stroke-width:1.495278;stroke-linecap:round;stroke-linejoin:round"/><path d="m232.68181 379.17795 4.50873 2.84918" style="fill:#fcef3c;fill-rule:evenodd;stroke:#000;stroke-width:1.495278;stroke-linecap:round;stroke-linejoin:round"/><path d="m208.72248 379.17795-4.50873 2.84918" style="fill:#fcef3c;fill-rule:evenodd;stroke:#000;stroke-width:1.495278;stroke-linecap:round;stroke-linejoin:round"/><path d="m208.69048 379.23014h11.8579 11.85789" style="fill:#fcef3c;fill-rule:evenodd;stroke:#000;stroke-width:1.495278;stroke-linecap:round;stroke-linejoin:round"/><path d="m216.72516 378.94898v-4.39451-4.39451" style="fill:#fcef3c;fill-rule:evenodd;stroke:#000;stroke-width:1.495278;stroke-linecap:round;stroke-linejoin:round"/><path d="m225.47117 379.03604v-4.48157-4.39451" style="fill:#fcef3c;fill-rule:evenodd;stroke:#000;stroke-width:1.495278;stroke-linecap:round;stroke-linejoin:round"/><path d="m220.67499 398.60054v-14.80114-4.16066" style="fill:#fcef3c;fill-rule:evenodd;stroke:#000;stroke-width:1.495278;stroke-linecap:round;stroke-linejoin:round"/><path d="m209.16281 334.01197h2.87617 2.87619" style="fill:#fcef3c;fill-rule:evenodd;stroke:#000;stroke-width:1.495278;stroke-linecap:round;stroke-linejoin:round"/><path d="m209.09955 343.32178h2.93944 2.93944" style="fill:#fcef3c;fill-rule:evenodd;stroke:#000;stroke-width:1.495278;stroke-linecap:round;stroke-linejoin:round"/><path d="m220.50618 326.52142v-1.3845" style="fill:#fcef3c;fill-rule:evenodd;stroke:#000;stroke-width:1.495278;stroke-linecap:round;stroke-linejoin:round"/></g><path d="m434.39443 409.30241s-.0859-4.60013-.0513-6.82271c.0345-2.22154 1.28685-2.90299 2.57268-2.87078 1.2858.0322 2.48469.57064 2.54081 2.92494.056 2.35346-.0158 6.7709-.0158 6.7709l-5.04635-.002z" style="fill:#2b5df2;fill-rule:evenodd;stroke:#000;stroke-width:.693886;stroke-linecap:round;stroke-linejoin:round"/></g><g fill="#fcef3c" stroke="#000" stroke-width="1.539396" transform="matrix(.48285403 0 0 .42078435 257.27064 166.22502)"><path d="m323.71875 636.90625-22.15625 5.9375 6.53125 6.53125v74.65625l-10.53125 10.5v23.625l23.59375 13.65625h41.09375c-.0892-7.99892-.25215-18.02753-.15625-26.21875.0335-2.85925.3853-5.22161.9375-7.15625.2761-.96732.58989-1.83265.96875-2.59375s.81757-1.42851 1.28125-2 .96945-1.03899 1.5-1.4375 1.07677-.7266 1.65625-.96875c1.15896-.48429 2.40927-.66645 3.65625-.625 1.24697.0415 2.45293.24617 3.59375.71875.57041.23629 1.13638.55392 1.65625.9375s1.01541.8178 1.46875 1.375.84794 1.21159 1.21875 1.96875.69648 1.64155.96875 2.625c.54455 1.9669.88307 4.40741.9375 7.4375.1552 8.63951.0374 18.14842-.0312 25.9375h41.03125l23.625-13.65625v-23.625l-10.53125-10.5v-74.65625l6.5-6.53125-22.125-5.9375h-96.6875z" style="fill:#fcef3c;fill-rule:evenodd;stroke:#000;stroke-width:1.539396;stroke-linecap:round;stroke-linejoin:round"/><path d="m297.65021 734.52618 23.58347 13.42214v23.69389" style="fill:#fcef3c;fill-rule:evenodd;stroke:#000;stroke-width:1.539396;stroke-linecap:round;stroke-linejoin:round"/><path d="m308.12407 724.04986 23.33301 6.20078m-10.33217 17.68966 10.29982-17.65318" style="fill:#fcef3c;fill-rule:evenodd;stroke:#000;stroke-width:1.539396;stroke-linecap:round;stroke-linejoin:round"/><path d="m331.43397 730.09241v-85.32063" style="fill:#fcef3c;fill-rule:evenodd;stroke:#000;stroke-width:1.539396;stroke-linecap:round;stroke-linejoin:round"/><path d="m323.92775 636.95322 7.4296 7.53305" style="fill:#fcef3c;fill-rule:evenodd;stroke:#000;stroke-width:1.539396;stroke-linecap:round;stroke-linejoin:round"/><path d="m308.07652 649.41921 23.4444-4.87876" style="fill:#fcef3c;fill-rule:evenodd;stroke:#000;stroke-width:1.539396;stroke-linecap:round;stroke-linejoin:round"/><path d="m446.47738 734.52618-23.58348 13.42214v23.69389" style="fill:#fcef3c;fill-rule:evenodd;stroke:#000;stroke-width:1.539396;stroke-linecap:round;stroke-linejoin:round"/><path d="m436.00351 724.04986-23.33301 6.20078m10.33217 17.68966-10.29981-17.65318" style="fill:#fcef3c;fill-rule:evenodd;stroke:#000;stroke-width:1.539396;stroke-linecap:round;stroke-linejoin:round"/><path d="m412.6936 730.09241v-85.32063" style="fill:#fcef3c;fill-rule:evenodd;stroke:#000;stroke-width:1.539396;stroke-linecap:round;stroke-linejoin:round"/><path d="m420.19983 636.95322-7.4296 7.53305" style="fill:#fcef3c;fill-rule:evenodd;stroke:#000;stroke-width:1.539396;stroke-linecap:round;stroke-linejoin:round"/><path d="m436.05106 649.41921-23.4444-4.87876" style="fill:#fcef3c;fill-rule:evenodd;stroke:#000;stroke-width:1.539396;stroke-linecap:round;stroke-linejoin:round"/><path d="m331.39574 730.27577h81.303" style="fill:#fcef3c;fill-rule:evenodd;stroke:#000;stroke-width:1.539396;stroke-linecap:round;stroke-linejoin:round"/><path d="m331.39574 644.55005h81.303" style="fill:#fcef3c;fill-rule:evenodd;stroke:#000;stroke-width:1.539396;stroke-linecap:round;stroke-linejoin:round"/><path d="m384.12904 747.92097h38.51463" style="fill:#fcef3c;fill-rule:evenodd;stroke:#000;stroke-width:1.539396;stroke-linecap:round;stroke-linejoin:round"/><path d="m321.45081 747.92097h38.51463" style="fill:#fcef3c;fill-rule:evenodd;stroke:#000;stroke-width:1.539396;stroke-linecap:round;stroke-linejoin:round"/><path d="m371.78125 724.96653c-8.3173-.21484-16.43305 4.32054-16.65625 19.14036-.22337 14.82675.34375 27.67467.34375 27.67468h6.78125c-.0892-7.92242-.25203-17.81672-.15625-25.91216.0335-2.82918.3853-5.16671.9375-7.081.2761-.95715.58989-1.81339.96875-2.56648.37886-.7531.81757-1.41349 1.28125-1.97898.46368-.56548.96945-1.02807 1.5-1.42239s1.07677-.71895 1.65625-.95856c1.15896-.47919 2.40927-.65944 3.65625-.61842 1.24697.041 2.45293.24358 3.59375.71118.57041.23381 1.13638.54811 1.65625.92765.51987.37955 1.01541.8092 1.46875 1.36054.45334.55135.84794 1.19886 1.21875 1.94805.37081.7492.69648 1.6243.96875 2.59741.54455 1.94621.88307 4.36106.9375 7.3593.1552 8.54867.0374 17.9576-.0312 25.66478h6.1875s.45669-11.63471.0937-27.33454c-.36306-15.70532-8.08902-19.29657-16.40625-19.51142z" style="fill:#fcef3c;fill-rule:evenodd;stroke:#000;stroke-width:1.539396;stroke-linecap:round;stroke-linejoin:round"/></g><g fill="#fcef3c" stroke="#000" stroke-width="1.539396" transform="matrix(.48285403 0 0 .42078435 257.278 166.22502)"><path d="m436.37382 623.77992-3.66803.98284v7.17806l5.32921-1.42796v-4.62071z" style="fill:#fcef3c;fill-rule:evenodd;stroke:#000;stroke-width:1.539396;stroke-linecap:round;stroke-linejoin:round"/><path d="m419.93405 616.54401 8.47304 3.74946v6.26747l7.95841 2.49964v-5.25659l6.48802 2.86723v15.91681l-22.96658-5.37823.0471-20.66579z" style="fill:#fcef3c;fill-rule:evenodd;stroke:#000;stroke-width:1.539396;stroke-linecap:round;stroke-linejoin:round"/><path d="m307.72066 623.77992 3.66804.98284v7.17806l-5.32921-1.42796v-4.62071z" style="fill:#fcef3c;fill-rule:evenodd;stroke:#000;stroke-width:1.539396;stroke-linecap:round;stroke-linejoin:round"/><path d="m324.16043 616.54401-8.47304 3.74946v6.26747l-7.9584 2.49964v-5.25659l-6.48803 2.86723v15.91681l22.96658-4.82016-.0471-21.22386z" style="fill:#fcef3c;fill-rule:evenodd;stroke:#000;stroke-width:1.539396;stroke-linecap:round;stroke-linejoin:round"/><path d="m343.46875 616.5625h-19.4375v20.96875h96.03125v-20.96875h-19.25v8.65625h-19.28125v-8.65625h-18.75v8.65625h-19.3125z" fill="#fcef3c" stroke="#000" stroke-linecap="round" stroke-linejoin="round" stroke-width="1.539396"/></g><g fill="#fcef3c" stroke="#000" stroke-width="1.537251" transform="matrix(.48285403 0 0 .42195911 257.28912 165.38006)"><g fill="#fcef3c" stroke="#000" stroke-width="1.537251"><path d="m435.59721 661.94815-23.05594-3.11048" style="fill:#fcef3c;fill-rule:evenodd;stroke:#000;stroke-width:1.537251;stroke-linecap:round;stroke-linejoin:round"/><path d="m435.62521 674.39964-22.75338-1.27435" style="fill:#fcef3c;fill-rule:evenodd;stroke:#000;stroke-width:1.537251;stroke-linecap:round;stroke-linejoin:round"/><path d="m435.64128 686.76245-22.58066.65046" style="fill:#fcef3c;fill-rule:evenodd;stroke:#000;stroke-width:1.537251;stroke-linecap:round;stroke-linejoin:round"/><path d="m435.68945 699.24322-23.14818 2.4573" style="fill:#fcef3c;fill-rule:evenodd;stroke:#000;stroke-width:1.537251;stroke-linecap:round;stroke-linejoin:round"/><path d="m435.5449 711.65173-23.00363 4.33641" style="fill:#fcef3c;fill-rule:evenodd;stroke:#000;stroke-width:1.537251;stroke-linecap:round;stroke-linejoin:round"/><path d="m422.94921 759.71361 23.44819-13.53782" style="fill:#fcef3c;fill-rule:evenodd;stroke:#000;stroke-width:1.537251;stroke-linecap:round;stroke-linejoin:round"/><path d="m424.35523 647.22675v13.05192" style="fill:#fcef3c;fill-rule:evenodd;stroke:#000;stroke-width:1.537251;stroke-linecap:round;stroke-linejoin:round"/><path d="m424.35523 673.79173v13.05192" style="fill:#fcef3c;fill-rule:evenodd;stroke:#000;stroke-width:1.537251;stroke-linecap:round;stroke-linejoin:round"/><path d="m424.35523 700.56169v13.05192" style="fill:#fcef3c;fill-rule:evenodd;stroke:#000;stroke-width:1.537251;stroke-linecap:round;stroke-linejoin:round"/><path d="m424.35523 727.24966 10.37181 13.78983" style="fill:#fcef3c;fill-rule:evenodd;stroke:#000;stroke-width:1.537251;stroke-linecap:round;stroke-linejoin:round"/><path d="m434.68564 764.80814v-11.6817" style="fill:#fcef3c;fill-rule:evenodd;stroke:#000;stroke-width:1.537251;stroke-linecap:round;stroke-linejoin:round"/><path d="m417.5383 659.61179v13.72371" style="fill:#fcef3c;fill-rule:evenodd;stroke:#000;stroke-width:1.537251;stroke-linecap:round;stroke-linejoin:round"/><path d="m432.09351 661.54133v12.4318" style="fill:#fcef3c;fill-rule:evenodd;stroke:#000;stroke-width:1.537251;stroke-linecap:round;stroke-linejoin:round"/><path d="m417.5383 687.41042v13.56216" style="fill:#fcef3c;fill-rule:evenodd;stroke:#000;stroke-width:1.537251;stroke-linecap:round;stroke-linejoin:round"/><path d="m432.09351 687.15417v12.59315" style="fill:#fcef3c;fill-rule:evenodd;stroke:#000;stroke-width:1.537251;stroke-linecap:round;stroke-linejoin:round"/><path d="m417.5383 714.99786v13.72314" style="fill:#fcef3c;fill-rule:evenodd;stroke:#000;stroke-width:1.537251;stroke-linecap:round;stroke-linejoin:round"/><path d="m432.09351 712.50961v12.73589" style="fill:#fcef3c;fill-rule:evenodd;stroke:#000;stroke-width:1.537251;stroke-linecap:round;stroke-linejoin:round"/><path d="m427.66399 745.1245v11.72217" style="fill:#fcef3c;fill-rule:evenodd;stroke:#000;stroke-width:1.537251;stroke-linecap:round;stroke-linejoin:round"/><path d="m442.2192 737.01245v11.73858" style="fill:#fcef3c;fill-rule:evenodd;stroke:#000;stroke-width:1.537251;stroke-linecap:round;stroke-linejoin:round"/></g><g fill="#fcef3c" stroke="#000" stroke-width="1.537251"><path d="m321.09189 759.79282-23.4408-13.67075" style="fill:#fcef3c;fill-rule:evenodd;stroke:#000;stroke-width:1.537251;stroke-linecap:round;stroke-linejoin:round"/><path d="m308.23201 661.94815 23.05594-3.11048" style="fill:#fcef3c;fill-rule:evenodd;stroke:#000;stroke-width:1.537251;stroke-linecap:round;stroke-linejoin:round"/><path d="m308.204 674.39964 23.27272-1.27435" style="fill:#fcef3c;fill-rule:evenodd;stroke:#000;stroke-width:1.537251;stroke-linecap:round;stroke-linejoin:round"/><path d="m308.18796 686.76245 23.09999.65046" style="fill:#fcef3c;fill-rule:evenodd;stroke:#000;stroke-width:1.537251;stroke-linecap:round;stroke-linejoin:round"/><path d="m308.13977 699.24322 23.14818 2.4573" style="fill:#fcef3c;fill-rule:evenodd;stroke:#000;stroke-width:1.537251;stroke-linecap:round;stroke-linejoin:round"/><path d="m308.28432 711.65173 23.00363 4.33641" style="fill:#fcef3c;fill-rule:evenodd;stroke:#000;stroke-width:1.537251;stroke-linecap:round;stroke-linejoin:round"/><path d="m321.13538 759.71361-23.44819-13.53782" style="fill:#fcef3c;fill-rule:evenodd;stroke:#000;stroke-width:1.537251;stroke-linecap:round;stroke-linejoin:round"/><path d="m319.72936 647.22675v13.05192" style="fill:#fcef3c;fill-rule:evenodd;stroke:#000;stroke-width:1.537251;stroke-linecap:round;stroke-linejoin:round"/><path d="m319.72936 673.79173v13.05192" style="fill:#fcef3c;fill-rule:evenodd;stroke:#000;stroke-width:1.537251;stroke-linecap:round;stroke-linejoin:round"/><path d="m319.72936 700.56169v13.05192" style="fill:#fcef3c;fill-rule:evenodd;stroke:#000;stroke-width:1.537251;stroke-linecap:round;stroke-linejoin:round"/><path d="m319.72936 727.24966-10.37182 13.78983" style="fill:#fcef3c;fill-rule:evenodd;stroke:#000;stroke-width:1.537251;stroke-linecap:round;stroke-linejoin:round"/><path d="m309.39895 764.80814v-11.6817" style="fill:#fcef3c;fill-rule:evenodd;stroke:#000;stroke-width:1.537251;stroke-linecap:round;stroke-linejoin:round"/><path d="m326.54629 659.61179v13.72371" style="fill:#fcef3c;fill-rule:evenodd;stroke:#000;stroke-width:1.537251;stroke-linecap:round;stroke-linejoin:round"/><path d="m311.99107 661.54133v12.4318" style="fill:#fcef3c;fill-rule:evenodd;stroke:#000;stroke-width:1.537251;stroke-linecap:round;stroke-linejoin:round"/><path d="m326.54629 687.41042v13.56216" style="fill:#fcef3c;fill-rule:evenodd;stroke:#000;stroke-width:1.537251;stroke-linecap:round;stroke-linejoin:round"/><path d="m311.99107 687.15417v12.59315" style="fill:#fcef3c;fill-rule:evenodd;stroke:#000;stroke-width:1.537251;stroke-linecap:round;stroke-linejoin:round"/><path d="m326.54629 714.99786v13.72314" style="fill:#fcef3c;fill-rule:evenodd;stroke:#000;stroke-width:1.537251;stroke-linecap:round;stroke-linejoin:round"/><path d="m311.99107 712.50961v12.73589" style="fill:#fcef3c;fill-rule:evenodd;stroke:#000;stroke-width:1.537251;stroke-linecap:round;stroke-linejoin:round"/><path d="m316.4206 745.1245v11.72217" style="fill:#fcef3c;fill-rule:evenodd;stroke:#000;stroke-width:1.537251;stroke-linecap:round;stroke-linejoin:round"/><path d="m301.86539 737.01245v11.73858" style="fill:#fcef3c;fill-rule:evenodd;stroke:#000;stroke-width:1.537251;stroke-linecap:round;stroke-linejoin:round"/></g><g fill="#fcef3c" stroke="#000" stroke-width="1.537251"><path d="m398.69104 662.64248v-3.45424" style="fill:#fcef3c;fill-rule:evenodd;stroke:#000;stroke-width:1.537251;stroke-linecap:round;stroke-linejoin:round"/><path d="m388.4639 759.77029h34.43434" style="fill:#fcef3c;fill-rule:evenodd;stroke:#000;stroke-width:1.537251;stroke-linecap:round;stroke-linejoin:round"/><path d="m331.03777 658.83767h81.303" style="fill:#fcef3c;fill-rule:evenodd;stroke:#000;stroke-width:1.537251;stroke-linecap:round;stroke-linejoin:round"/><path d="m352.53219 673.12529h39.43942" style="fill:#fcef3c;fill-rule:evenodd;stroke:#000;stroke-width:1.537251;stroke-linecap:round;stroke-linejoin:round"/><path d="m352.28687 687.41291h39.32414" style="fill:#fcef3c;fill-rule:evenodd;stroke:#000;stroke-width:1.537251;stroke-linecap:round;stroke-linejoin:round"/><path d="m331.03777 701.70052h81.303" style="fill:#fcef3c;fill-rule:evenodd;stroke:#000;stroke-width:1.537251;stroke-linecap:round;stroke-linejoin:round"/><path d="m331.03777 715.98814h81.303" style="fill:#fcef3c;fill-rule:evenodd;stroke:#000;stroke-width:1.537251;stroke-linecap:round;stroke-linejoin:round"/><path d="m358.16255 658.75575v-14.13386" style="fill:#fcef3c;fill-rule:evenodd;stroke:#000;stroke-width:1.537251;stroke-linecap:round;stroke-linejoin:round"/><path d="m385.24909 658.75575v-14.13386" style="fill:#fcef3c;fill-rule:evenodd;stroke:#000;stroke-width:1.537251;stroke-linecap:round;stroke-linejoin:round"/><path d="m358.16255 687.26233v-14.13386" style="fill:#fcef3c;fill-rule:evenodd;stroke:#000;stroke-width:1.537251;stroke-linecap:round;stroke-linejoin:round"/><path d="m385.24909 687.26233v-14.13386" style="fill:#fcef3c;fill-rule:evenodd;stroke:#000;stroke-width:1.537251;stroke-linecap:round;stroke-linejoin:round"/><path d="m358.16255 715.98085v-14.13385" style="fill:#fcef3c;fill-rule:evenodd;stroke:#000;stroke-width:1.537251;stroke-linecap:round;stroke-linejoin:round"/><path d="m385.24909 715.98085v-14.13385" style="fill:#fcef3c;fill-rule:evenodd;stroke:#000;stroke-width:1.537251;stroke-linecap:round;stroke-linejoin:round"/><path d="m344.6875 662.35436v-3.13775" style="fill:#fcef3c;fill-rule:evenodd;stroke:#000;stroke-width:1.537251;stroke-linecap:round;stroke-linejoin:round"/><path d="m372.02425 672.96137v-13.8784" style="fill:#fcef3c;fill-rule:evenodd;stroke:#000;stroke-width:1.537251;stroke-linecap:round;stroke-linejoin:round"/><path d="m344.6875 701.38333v-3.61228" style="fill:#fcef3c;fill-rule:evenodd;stroke:#000;stroke-width:1.537251;stroke-linecap:round;stroke-linejoin:round"/><path d="m372.02425 701.49619v-13.8784" style="fill:#fcef3c;fill-rule:evenodd;stroke:#000;stroke-width:1.537251;stroke-linecap:round;stroke-linejoin:round"/><path d="m398.69104 701.14947v-3.40425" style="fill:#fcef3c;fill-rule:evenodd;stroke:#000;stroke-width:1.537251;stroke-linecap:round;stroke-linejoin:round"/><path d="m344.6875 730.13183v-13.87839" style="fill:#fcef3c;fill-rule:evenodd;stroke:#000;stroke-width:1.537251;stroke-linecap:round;stroke-linejoin:round"/><path d="m372.02425 725.25253v-8.97171" style="fill:#fcef3c;fill-rule:evenodd;stroke:#000;stroke-width:1.537251;stroke-linecap:round;stroke-linejoin:round"/><path d="m398.69104 730.13183v-13.87839" style="fill:#fcef3c;fill-rule:evenodd;stroke:#000;stroke-width:1.537251;stroke-linecap:round;stroke-linejoin:round"/><path d="m339.53705 747.55776 5.22875-17.23566" style="fill:#fcef3c;fill-rule:evenodd;stroke:#000;stroke-width:1.537251;stroke-linecap:round;stroke-linejoin:round"/><path d="m403.81035 747.55776-5.22874-17.23566" style="fill:#fcef3c;fill-rule:evenodd;stroke:#000;stroke-width:1.537251;stroke-linecap:round;stroke-linejoin:round"/><path d="m339.41488 771.86218v-11.96498" style="fill:#fcef3c;fill-rule:evenodd;stroke:#000;stroke-width:1.537251;stroke-linecap:round;stroke-linejoin:round"/><path d="m403.86839 771.86218v-11.96498" style="fill:#fcef3c;fill-rule:evenodd;stroke:#000;stroke-width:1.537251;stroke-linecap:round;stroke-linejoin:round"/><path d="m329.58913 759.60523v-11.60065" style="fill:#fcef3c;fill-rule:evenodd;stroke:#000;stroke-width:1.537251;stroke-linecap:round;stroke-linejoin:round"/><path d="m346.51656 759.60523v-11.60065" style="fill:#fcef3c;fill-rule:evenodd;stroke:#000;stroke-width:1.537251;stroke-linecap:round;stroke-linejoin:round"/><path d="m396.86199 759.60523v-11.60065" style="fill:#fcef3c;fill-rule:evenodd;stroke:#000;stroke-width:1.537251;stroke-linecap:round;stroke-linejoin:round"/><path d="m413.78941 759.60523v-11.60065" style="fill:#fcef3c;fill-rule:evenodd;stroke:#000;stroke-width:1.537251;stroke-linecap:round;stroke-linejoin:round"/><path d="m321.19625 759.77029h33.76618" style="fill:#fcef3c;fill-rule:evenodd;stroke:#000;stroke-width:1.537251;stroke-linecap:round;stroke-linejoin:round"/><path d="m406.27454 673.12529h6.56588" style="fill:#fcef3c;fill-rule:evenodd;stroke:#000;stroke-width:1.537251;stroke-linecap:round;stroke-linejoin:round"/><path d="m331.61196 673.12529h5.88984" style="fill:#fcef3c;fill-rule:evenodd;stroke:#000;stroke-width:1.537251;stroke-linecap:round;stroke-linejoin:round"/><path d="m406.51269 687.41291h5.9526" style="fill:#fcef3c;fill-rule:evenodd;stroke:#000;stroke-width:1.537251;stroke-linecap:round;stroke-linejoin:round"/><path d="m331.73907 687.41291h5.9526" style="fill:#fcef3c;fill-rule:evenodd;stroke:#000;stroke-width:1.537251;stroke-linecap:round;stroke-linejoin:round"/></g></g><g fill="#fcef3c" stroke="#000" stroke-width="1.539396" transform="matrix(.48285403 0 0 .42078435 330.52849 267.73095)"><g fill="#fcef3c" stroke="#000" stroke-width="1.608098" transform="matrix(1 0 0 .9163801 -.257397 33.734821)"><path d="m1066.7245 149.68736a3.7457502 3.7457502 0 0 1 7.4915 0h-3.7458z" fill="#fcef3c" stroke="#000" stroke-linecap="round" stroke-linejoin="round" stroke-width="1.020914" transform="matrix(1.5434783 0 0 1.6074809 -1464.8369 162.31093)"/><path d="m1066.7245 149.68736a3.7457502 3.7457502 0 0 1 7.4915 0h-3.7458z" fill="#fcef3c" stroke="#000" stroke-linecap="round" stroke-linejoin="round" stroke-width="1.020914" transform="matrix(1.5434783 0 0 1.6074809 -1451.4174 162.31093)"/><path d="m1066.7245 149.68736a3.7457502 3.7457502 0 0 1 7.4915 0h-3.7458z" fill="#fcef3c" stroke="#000" stroke-linecap="round" stroke-linejoin="round" stroke-width="1.020914" transform="matrix(1.5434783 0 0 1.6074809 -1397.7391 162.31093)"/><path d="m1066.7245 149.68736a3.7457502 3.7457502 0 0 1 7.4915 0h-3.7458z" fill="#fcef3c" stroke="#000" stroke-linecap="round" stroke-linejoin="round" stroke-width="1.020914" transform="matrix(1.5434783 0 0 1.6074809 -1411.1587 162.31093)"/><path d="m1066.7245 149.68736a3.7457502 3.7457502 0 0 1 7.4915 0h-3.7458z" fill="#fcef3c" stroke="#000" stroke-linecap="round" stroke-linejoin="round" stroke-width="1.020914" transform="matrix(1.5434783 0 0 1.6074809 -1424.5782 162.31093)"/><path d="m1066.7245 149.68736a3.7457502 3.7457502 0 0 1 7.4915 0h-3.7458z" fill="#fcef3c" stroke="#000" stroke-linecap="round" stroke-linejoin="round" stroke-width="1.020914" transform="matrix(1.5434783 0 0 1.6074809 -1437.9977 162.31093)"/></g><g fill="#fcef3c" stroke="#000" stroke-width="1.539396" transform="translate(-.000005)"><path d="m158.47909 407.6111s-4.63843-5.15542-.19095-6.34955c4.32397-1.16098 8.76049 4.4976 8.76049 4.4976" fill="#fcef3c" fill-rule="evenodd" stroke="#000" stroke-width="1.539396"/><path d="m168.79712 405.09774s-4.63843-5.15542-.19095-6.34955c4.32397-1.16098 8.76049 4.4976 8.76049 4.4976" fill="#fcef3c" fill-rule="evenodd" stroke="#000" stroke-width="1.539396"/><path d="m282.92522 407.6111s4.63843-5.15542.19095-6.34955c-4.32398-1.16098-8.76049 4.4976-8.76049 4.4976" fill="#fcef3c" fill-rule="evenodd" stroke="#000" stroke-width="1.539396"/><path d="m272.60719 405.09774s4.63842-5.15542.19095-6.34955c-4.32397-1.16098-8.76049 4.4976-8.76049 4.4976" fill="#fcef3c" fill-rule="evenodd" stroke="#000" stroke-width="1.539396"/></g></g><g fill="#fcef3c" stroke="#000" stroke-width="1.443845" transform="matrix(.48285403 0 0 .47832031 330.40105 240.25429)"><path d="m220.70215 488.78864v-5.56442" fill="#fcef3c" fill-rule="evenodd" stroke="#000" stroke-width="1.443845"/><path d="m203.90854 524.13744h6.591" fill="#fcef3c" fill-rule="evenodd" stroke="#000" stroke-width="1.443845"/><path d="m203.90854 518.12983h6.591" fill="#fcef3c" fill-rule="evenodd" stroke="#000" stroke-width="1.443845"/><path d="m203.94412 500.107h7.06008" fill="#fcef3c" fill-rule="evenodd" stroke="#000" stroke-width="1.443845"/><path d="m203.90854 506.1146h6.591" fill="#fcef3c" fill-rule="evenodd" stroke="#000" stroke-width="1.443845"/><path d="m203.90854 512.12222h6.591" fill="#fcef3c" fill-rule="evenodd" stroke="#000" stroke-width="1.443845"/><path d="m214.95844 489.66265-3.16722-4.78147" fill="#fcef3c" fill-rule="evenodd" stroke="#000" stroke-width="1.443845"/><path d="m211.0488 494.35058-5.57249-2.83034" fill="#fcef3c" fill-rule="evenodd" stroke="#000" stroke-width="1.443845"/><path d="m236.85245 524.13744h-6.591" fill="#fcef3c" fill-rule="evenodd" stroke="#000" stroke-width="1.443845"/><path d="m236.85245 518.12983h-6.591" fill="#fcef3c" fill-rule="evenodd" stroke="#000" stroke-width="1.443845"/><path d="m236.85245 500.107h-6.591" fill="#fcef3c" fill-rule="evenodd" stroke="#000" stroke-width="1.443845"/><path d="m236.85245 506.1146h-6.591" fill="#fcef3c" fill-rule="evenodd" stroke="#000" stroke-width="1.443845"/><path d="m236.85245 512.12222h-6.591" fill="#fcef3c" fill-rule="evenodd" stroke="#000" stroke-width="1.443845"/><path d="m225.08644 490.58926 3.88333-5.70809" fill="#fcef3c" fill-rule="evenodd" stroke="#000" stroke-width="1.443845"/><path d="m228.82023 494.86334 6.46446-3.3431" fill="#fcef3c" fill-rule="evenodd" stroke="#000" stroke-width="1.443845"/></g><path d="m450.03433 445.0298c-1.70403-.0485-3.36221.96016-3.40792 4.30534-.0457 3.34677.0578 10.27286.0578 10.27286h6.7003s.10318-6.64729.0289-10.19111c-.0744-3.54509-1.67503-4.33858-3.37903-4.38709zm-26.2236.19075c-1.704-.0485-3.36221.98739-3.40791 4.33259-.0457 3.34675.0866 10.27285.0866 10.27285h6.67142s.10319-6.64727.0289-10.19111c-.0744-3.54508-1.67501-4.36583-3.37903-4.41433zm13.02516 28.58415c-2.40844-.0694-4.75846 1.39249-4.82306 6.18551-.0647 4.79527.0866 10.98133.0866 10.98133h9.47284s.13404-5.79468.0289-10.87233c-.10512-5.07941-2.35688-6.22497-4.7653-6.29451z" style="fill:#2b5df2;fill-rule:evenodd;stroke:#000;stroke-width:.693886;stroke-linecap:round;stroke-linejoin:round"/></g><g stroke-width="1.001083"><use height="660" transform="translate(-74.691139 -124.48521)" width="600" xlink:href="#h"/><use height="660" transform="translate(74.691145 -124.48521)" width="600" xlink:href="#h"/><use height="660" transform="translate(-74.691139 -373.45565)" width="600" xlink:href="#h"/><use height="660" transform="translate(74.691145 -373.45565)" width="600" xlink:href="#h"/><use height="660" transform="translate(-74.691139 124.48524)" width="600" xlink:href="#h"/><use height="660" transform="translate(74.691145 124.48524)" width="600" xlink:href="#h"/><use height="660" transform="translate(-149.38227 -248.97043)" width="600" xlink:href="#h"/><use height="660" transform="translate(-.000013 -248.97043)" width="600" xlink:href="#h"/><use height="660" transform="translate(149.38227 -248.97043)" width="600" xlink:href="#h"/><use height="660" transform="translate(-149.38227 .000005)" width="600" xlink:href="#h"/><use height="660" transform="translate(149.38227 .000005)" width="600" xlink:href="#h"/><use height="660" transform="translate(-149.38227 248.97048)" width="600" xlink:href="#h"/><use height="660" transform="translate(-.000013 248.97048)" width="600" xlink:href="#h"/></g></g><path d="m300 658.49971v-656.99971" fill="none" stroke="#000" stroke-width="3"/><path d="m300.00001 658.49999s298.5-112.43608 298.5-398.18182v-258.81817h-597.00001v258.81817c0 285.74574 298.50001 398.18182 298.50001 398.18182z" fill="url(#a)" fill-rule="evenodd"/><path d="m299.99999 658.39715s-298.49999-112.41841-298.49999-398.11925v-258.7775027h596.99999v258.7775027c0 285.70084-298.5 398.11925-298.5 398.11925z" fill="none" stroke="#000" stroke-width="3"/></svg>