<?xml version="1.0" encoding="utf-8"?>
<!-- Generator: Adobe Illustrator 15.1.0, SVG Export Plug-In . SVG Version: 6.00 Build 0)  -->
<!DOCTYPE svg PUBLIC "-//W3C//DTD SVG 1.1//EN" "http://www.w3.org/Graphics/SVG/1.1/DTD/svg11.dtd">
<svg version="1.1"
	 id="svg2" xmlns:inkscape="http://www.inkscape.org/namespaces/inkscape" xmlns:sodipodi="http://sodipodi.sourceforge.net/DTD/sodipodi-0.dtd" sodipodi:docname="Blason_Fr_famille_Arbouet_(Mixe).svg" inkscape:export-filename="/Users/olivier/Desktop/Blason Rouge/Blason_Vide_3D.png" inkscape:export-xdpi="144" inkscape:export-ydpi="144" xmlns:svg="http://www.w3.org/2000/svg" inkscape:version="0.48.2 r9819" xmlns:cc="http://creativecommons.org/ns#" xmlns:dc="http://purl.org/dc/elements/1.1/" xmlns:rdf="http://www.w3.org/1999/02/22-rdf-syntax-ns#" sodipodi:version="0.32"
	 xmlns="http://www.w3.org/2000/svg" xmlns:xlink="http://www.w3.org/1999/xlink" x="0px" y="0px" width="600px" height="660px"
	 viewBox="0 0 600 660" enable-background="new 0 0 600 660" xml:space="preserve">
<sodipodi:namedview  height="660px" bordercolor="#666666" pagecolor="#ffffff" borderopacity="1.0" id="base" inkscape:cx="215.52814" inkscape:pageopacity="0.0" inkscape:pageshadow="2" inkscape:zoom="1" inkscape:cy="332.94273" inkscape:current-layer="layer4" showgrid="true" inkscape:window-width="1280" inkscape:window-height="934" inkscape:window-x="-4" inkscape:window-y="-4" inkscape:window-maximized="1" guidetolerance="10.0" gridtolerance="10.0" objecttolerance="10.0" inkscape:snap-global="false">
	<inkscape:grid  type="xygrid" id="grid3010"></inkscape:grid>
</sodipodi:namedview>
<desc  id="desc4">Arms of Bampfylde of Poltimore and North Molton</desc>
<path id="path2855" inkscape:connector-curvature="0" sodipodi:nodetypes="cccccc" fill="#FCEF3C" d="M299.501,657
	c0,0,298.5-112.32,298.5-397.772c0-285.452,0-258.551,0-258.551h-597v258.551C1.001,544.68,299.501,657,299.501,657z"/>
<g id="layer1" inkscape:label="Contour final" sodipodi:insensitive="true" inkscape:groupmode="layer">
	
		<path id="path1411" inkscape:export-xdpi="144" inkscape:export-ydpi="144" sodipodi:nodetypes="cccccc" fill="none" stroke="#000000" stroke-width="3" d="
		M299.501,657c0,0-298.5-112.32-298.5-397.771c0-285.452,0-258.552,0-258.552h597v258.552C598.001,544.68,299.501,657,299.501,657z"
		/>
</g>
<path id="path3023_1_" inkscape:connector-curvature="0" fill="#E20909" stroke="#000000" stroke-width="3" d="M1.001,0v95.469
	L460.313,554.78c31.25-28.361,61.824-63.059,86.188-104.75L96.47,0H1.001z"/>
<g>
	<path id="path8347_5_" inkscape:connector-curvature="0" fill="#FFFFFF" stroke="#000000" stroke-width="3" d="M65.56,58.083
		l31.035,17.612l26.232-23.887l-7.159,34.958l30.824,17.567l-35.459,3.996l-7.182,34.743l-14.756-32.49l-35.263,3.906L80.17,90.414
		L65.56,58.083L65.56,58.083z"/>
	<g id="use3078_1_" transform="translate(181,180)">
		<path id="path8347_4_" inkscape:connector-curvature="0" fill="#FFFFFF" stroke="#000000" stroke-width="3" d="M226.062,229.836
			l31.031,17.609l26.234-23.886l-7.158,34.959l30.824,17.566l-35.461,3.993l-7.182,34.746l-14.756-32.491l-35.264,3.905
			l26.34-24.071L226.062,229.836z"/>
	</g>
	<g id="layer4_1_" inkscape:label="Meubles" inkscape:groupmode="layer">
		<g id="use3080_1_" transform="translate(164.99999,168.00002)">
			<path id="path8347_3_" inkscape:connector-curvature="0" fill="#FFFFFF" stroke="#000000" stroke-width="3" d="M71.31,65.959
				l31.034,17.611l26.232-23.886l-7.159,34.959l30.824,17.567l-35.458,3.993l-7.184,34.744l-14.756-32.49l-35.262,3.906
				L85.92,98.291L71.31,65.959z"/>
		</g>
	</g>
</g>
<g id="layer2" inkscape:label="Reflet final" sodipodi:insensitive="true" inkscape:groupmode="layer">
	
		<radialGradient id="path2875_1_" cx="-53.2305" cy="571.6074" r="299.9994" gradientTransform="matrix(1.3532 0 0 -1.3489 293.5646 989.1176)" gradientUnits="userSpaceOnUse">
		<stop  offset="0" style="stop-color:#FFFFFF;stop-opacity:0.3137"/>
		<stop  offset="0.19" style="stop-color:#FFFFFF;stop-opacity:0.251"/>
		<stop  offset="0.6" style="stop-color:#6B6B6B;stop-opacity:0.1255"/>
		<stop  offset="1" style="stop-color:#000000;stop-opacity:0.1255"/>
	</radialGradient>
	
		<path id="path2875" inkscape:export-xdpi="144" inkscape:export-ydpi="144" sodipodi:nodetypes="cccccc" fill="url(#path2875_1_)" d="
		M299.501,657c0,0,298.5-112.32,298.5-397.772c0-285.452,0-258.551,0-258.551h-597v258.551C1.001,544.68,299.501,657,299.501,657z"
		/>
</g>
</svg>
