<?xml version="1.0" encoding="utf-8"?>
<!-- Generator: Adobe Illustrator 19.2.0, SVG Export Plug-In . SVG Version: 6.00 Build 0)  -->
<svg version="1.1"
	 id="svg2" inkscape:export-filename="/Users/olivier/Desktop/Blason Rouge/Blason_Vide_3D.png" inkscape:export-xdpi="144" inkscape:export-ydpi="144" inkscape:version="0.48.2 r9819" sodipodi:docname="Blason_Vide_3D.svg" sodipodi:version="0.32" xmlns:cc="http://creativecommons.org/ns#" xmlns:dc="http://purl.org/dc/elements/1.1/" xmlns:inkscape="http://www.inkscape.org/namespaces/inkscape" xmlns:rdf="http://www.w3.org/1999/02/22-rdf-syntax-ns#" xmlns:sodipodi="http://sodipodi.sourceforge.net/DTD/sodipodi-0.dtd" xmlns:svg="http://www.w3.org/2000/svg"
	 xmlns="http://www.w3.org/2000/svg" xmlns:xlink="http://www.w3.org/1999/xlink" x="0px" y="0px" viewBox="0 0 600 660"
	 style="enable-background:new 0 0 600 660;" xml:space="preserve">
<style type="text/css">
	.st0{fill:#2B5DF2;stroke:#000000;stroke-width:3;stroke-linecap:round;stroke-linejoin:round;}
	.st1{fill:none;stroke:#000000;stroke-width:3;}
	.st2{fill:#FCEF3C;stroke:#000000;stroke-width:2;}
	.st3{fill:#E20909;stroke:#000000;stroke-width:2.5;stroke-linecap:round;stroke-linejoin:round;}
	.st4{fill:url(#path2875_1_);}
</style>
<sodipodi:namedview  bordercolor="#666666" borderopacity="1.0" gridtolerance="10.0" guidetolerance="10.0" height="660px" id="base" inkscape:current-layer="layer4" inkscape:cx="280.16784" inkscape:cy="355.49125" inkscape:pageopacity="0.0" inkscape:pageshadow="2" inkscape:window-height="738" inkscape:window-maximized="1" inkscape:window-width="1280" inkscape:window-x="-8" inkscape:window-y="-8" inkscape:zoom="0.44547727" objecttolerance="10.0" pagecolor="#ffffff" showgrid="false">
	</sodipodi:namedview>
<desc  id="desc4">Flag of Canton of Valais (Wallis)</desc>
<path id="path2855" inkscape:connector-curvature="0" sodipodi:nodetypes="cccccc" class="st0" d="M300.6,658.5
	c0,0,298.5-112.3,298.5-397.8s0-258.6,0-258.6H2.1v258.6C2.1,546.2,300.6,658.5,300.6,658.5z"/>
<g id="layer1" inkscape:groupmode="layer" inkscape:label="Contour final" sodipodi:insensitive="true">
	<path id="path1411" inkscape:export-xdpi="144" inkscape:export-ydpi="144" sodipodi:nodetypes="cccccc" class="st1" d="
		M300.6,658.5c0,0-298.5-112.3-298.5-397.8s0-258.6,0-258.6h597v258.6C599.1,546.2,300.6,658.5,300.6,658.5z"/>
</g>
<g id="g3703" transform="matrix(1.0845415,0,0,1.0845415,763.89866,101.08136)">
	<path id="path2476" inkscape:connector-curvature="0" class="st2" d="M-440.7,303.5c0-3-0.9-5-0.1-9.1c2.6,3.6,6.5,4.8,9.8,7"/>
	<path id="path3447" inkscape:connector-curvature="0" class="st3" d="M-412.9,274.1c-24.7,4.2-40.1,30.7-65.5,14.4
		c17.2,27.2,39.3-3.5,68.2-5L-412.9,274.1z"/>
	<path id="path2474" inkscape:connector-curvature="0" class="st2" d="M-451.9,278.2c0.8,3.6,3.3,6.2,7.1,7.8c-2.3-4.4,1.1-7.5,3-11
		"/>
	<path id="path2462" inkscape:connector-curvature="0" class="st2" d="M-424.8,368l-1.5,10.9l8.2-6.3c-11.1,25.4,5.2,27.5,22.3,29
		c-6.4-13.1,8.2-23.7,12.1-38.5c-3.9,14.6-0.2,22.8,22.4,14.8c-23.3-5.1,0.8-18.3-8.8-34.4c4.9,9.1,12.5,4,19.2,3.4
		c-21.5-6.3-10.3-20.6-9.6-32.3l-10.1-20c5,13,13,7.7,20.5,6.2c-15.3-3.1-5.1-23.3-23.6-32.2c6.7,2.7,13.6,6.4,19.7,2.8
		c-14.7-1.8-10.1-16.7-23.5-20.1c7.6,0.4,12.1-2.2,17.7-3.8c-6.4-1.1-12.2,0.6-19.3-3.9l-11.2-10.2l-27.5-0.3
		c-6.8,2-13.3,4.6-18.7,9.6c-5,2.7-11.3,4.8-10.9,10.2c-10.6,2.2-30.6,13.9-15.1,12.6c0.7,11,3.5,14.1,9.4,13.9
		c13.3,2.2,16.1-7.5,25.9-10.2c22,5.8,13.3,20.1,6.9,26c-6.9,6.4-19.7,3.5-19.7,3.5c-4,6.1-3.5,9.5,1.6,10.3c6.2,5.1,8,0.3,11.2-1.4
		c21.8-0.5,18.4-11.4,26.1-17.8c-5.7,9.2,3,20.8-20.4,26.6c-12.1,3-10.9-1.6-22.3,1.8c-11.4,3.4-14.3,10.9-23.3,11.6
		c-8.1,0.6-19.3,1.5-11.8-16.1c-16.1,16.8,1.4,30.8,22.9,23.3c-19.4,7-31.4,16-48.5,6c23.9,28.3,34.8,8.1,60.5,5.3
		c-25.5,4.4-21.9,25.2-49.6,24.2c8,10.1,16.6,8,27.8,4.6c-4.1,4.1-7.4,13.4-16.3,13.1c5.1,7.4,18.7,3.7,30.4,0.5
		C-438.2,386.8-431.7,376.9-424.8,368L-424.8,368z"/>
	<path id="path2472" inkscape:connector-curvature="0" class="st2" d="M-406.6,241.8c-2.6-10.2,6.9-12.4,13.7-16.4
		c-0.2,6.8,1.4,15.3-2.8,18"/>
	<path id="path3449" inkscape:connector-curvature="0" sodipodi:nodetypes="ccc" class="st2" d="M-445.9,253.5
		c3.7,3.9,5.8,0.6,8.3-1.1c5.9-8.3,11.1-3.3,16.5-1.1"/>
	<path id="path3451" inkscape:connector-curvature="0" class="st2" d="M-441.1,255.8c3.3,1.5,5.2,2,7.8,0.8c4.4-1.8,5.4-4.6,7.6-4.7
		c-0.4-1.8-1-3.5-4-3.8C-436.4,250.4-435.8,252.7-441.1,255.8z"/>
</g>
<g>
	<g id="g3718" transform="matrix(1.0774734,0,0,1.0774734,659.73544,-110.60853)">
		<path id="path3720" inkscape:connector-curvature="0" class="st2" d="M-500.1,237.6c0-3-0.9-5-0.1-9.1c2.6,3.6,6.5,4.8,9.8,7"/>
		<path id="path3722" inkscape:connector-curvature="0" class="st3" d="M-472.3,208.2c-24.7,4.2-40.1,30.7-65.5,14.4
			c17.2,27.2,39.3-3.5,68.2-5L-472.3,208.2z"/>
		<path id="path3724" inkscape:connector-curvature="0" class="st2" d="M-511.3,212.3c0.8,3.6,3.3,6.2,7.1,7.8
			c-2.3-4.4,1.1-7.5,3-11"/>
		<path id="path3726" inkscape:connector-curvature="0" class="st2" d="M-484.2,302l-1.5,10.9l8.2-6.3c-11.1,25.4,5.2,27.5,22.3,29
			c-6.4-13.1,8.2-23.7,12.1-38.5c-3.9,14.6-0.2,22.8,22.4,14.8c-23.3-5.1,0.8-18.3-8.8-34.4c4.9,9.1,12.5,4,19.2,3.4
			c-21.5-6.3-10.3-20.6-9.6-32.3l-10.1-20c5,13,13,7.7,20.5,6.2c-15.3-3.1-5.1-23.3-23.6-32.2c6.7,2.7,13.6,6.4,19.7,2.8
			c-14.7-1.8-10.1-16.7-23.5-20.1c7.6,0.4,12.1-2.2,17.7-3.8c-6.4-1.1-12.2,0.6-19.3-3.9l-11.2-10.2l-27.5-0.3
			c-6.8,2-13.3,4.6-18.7,9.6c-5,2.7-11.3,4.8-10.9,10.2c-10.6,2.2-30.6,13.9-15.1,12.6c0.7,11,3.5,14.1,9.4,13.9
			c13.3,2.2,16.1-7.5,25.9-10.2c22,5.8,13.3,20.1,6.9,26c-6.9,6.4-19.7,3.5-19.7,3.5c-4,6.1-3.5,9.5,1.6,10.3
			c6.2,5.1,8,0.3,11.2-1.4c21.8-0.5,18.4-11.4,26.1-17.8c-5.7,9.2,3,20.8-20.4,26.6c-12.1,3-10.9-1.6-22.3,1.8
			c-11.4,3.4-14.3,10.9-23.3,11.6c-8.1,0.6-19.3,1.5-11.8-16.1c-16.1,16.8,1.4,30.8,22.9,23.3c-19.4,7-31.4,16-48.5,6
			c23.9,28.3,34.8,8.1,60.5,5.3c-25.5,4.4-21.9,25.2-49.6,24.2c8,10.1,16.6,8,27.8,4.6c-4.1,4.1-7.4,13.4-16.3,13.1
			c5.1,7.4,18.7,3.7,30.4,0.5C-497.6,320.8-491.1,311-484.2,302L-484.2,302z"/>
		<path id="path3728" inkscape:connector-curvature="0" class="st2" d="M-465.9,175.9c-2.6-10.2,6.9-12.4,13.7-16.4
			c-0.2,6.8,1.4,15.3-2.8,18"/>
		<path id="path3730" inkscape:connector-curvature="0" sodipodi:nodetypes="ccc" class="st2" d="M-505.2,187.5
			c3.7,3.9,5.8,0.6,8.3-1.1c5.9-8.3,11.1-3.3,16.5-1.1"/>
		<path id="path3732" inkscape:connector-curvature="0" class="st2" d="M-500.5,189.9c3.3,1.5,5.2,2,7.8,0.8
			c4.4-1.8,5.4-4.6,7.6-4.7c-0.4-1.8-1-3.5-4-3.8C-495.8,184.5-495.2,186.8-500.5,189.9z"/>
	</g>
	<g id="g3734" transform="matrix(1.0774734,0,0,1.0774734,875.23012,-110.60853)">
		<path id="path3736" inkscape:connector-curvature="0" class="st2" d="M-393.6,237.6c0-3-0.9-5-0.1-9.1c2.6,3.6,6.5,4.8,9.8,7"/>
		<path id="path3738" inkscape:connector-curvature="0" class="st3" d="M-365.8,208.2c-24.7,4.2-40.1,30.7-65.5,14.4
			c17.2,27.2,39.3-3.5,68.2-5L-365.8,208.2z"/>
		<path id="path3740" inkscape:connector-curvature="0" class="st2" d="M-404.8,212.3c0.8,3.6,3.3,6.2,7.1,7.8
			c-2.3-4.4,1.1-7.5,3-11"/>
		<path id="path3742" inkscape:connector-curvature="0" class="st2" d="M-377.6,302l-1.5,10.9l8.2-6.3c-11.1,25.4,5.2,27.5,22.3,29
			c-6.4-13.1,8.2-23.7,12.1-38.5c-3.9,14.6-0.2,22.8,22.4,14.8c-23.3-5.1,0.8-18.3-8.8-34.4c4.9,9.1,12.5,4,19.2,3.4
			c-21.5-6.3-10.3-20.6-9.6-32.3l-10.1-20c5,13,13,7.7,20.5,6.2c-15.3-3.1-5.1-23.3-23.6-32.2c6.7,2.7,13.6,6.4,19.7,2.8
			c-14.7-1.8-10.1-16.7-23.5-20.1c7.6,0.4,12.1-2.2,17.7-3.8c-6.4-1.1-12.2,0.6-19.3-3.9l-11.2-10.2l-27.5-0.3
			c-6.8,2-13.3,4.6-18.7,9.6c-5,2.7-11.3,4.8-10.9,10.2c-10.6,2.2-30.6,13.9-15.1,12.6c0.7,11,3.5,14.1,9.4,13.9
			c13.3,2.2,16.1-7.5,25.9-10.2c22,5.8,13.3,20.1,6.9,26c-6.9,6.4-19.7,3.5-19.7,3.5c-4,6.1-3.5,9.5,1.6,10.3
			c6.2,5.1,8,0.3,11.2-1.4c21.8-0.5,18.4-11.4,26.1-17.8c-5.7,9.2,3,20.8-20.4,26.6c-12.1,3-10.9-1.6-22.3,1.8
			c-11.4,3.4-14.3,10.9-23.3,11.6c-8.1,0.6-19.3,1.5-11.8-16.1c-16.1,16.8,1.4,30.8,22.9,23.3c-19.4,7-31.4,16-48.5,6
			c23.9,28.3,34.8,8.1,60.5,5.3c-25.5,4.4-21.9,25.2-49.6,24.2c8,10.1,16.6,8,27.8,4.6c-4.1,4.1-7.4,13.4-16.3,13.1
			c5.1,7.4,18.7,3.7,30.4,0.5C-391,320.8-384.6,311-377.6,302L-377.6,302z"/>
		<path id="path3744" inkscape:connector-curvature="0" class="st2" d="M-359.4,175.9c-2.6-10.2,6.9-12.4,13.7-16.4
			c-0.2,6.8,1.4,15.3-2.8,18"/>
		<path id="path3746" inkscape:connector-curvature="0" sodipodi:nodetypes="ccc" class="st2" d="M-398.7,187.5
			c3.7,3.9,5.8,0.6,8.3-1.1c5.9-8.3,11.1-3.3,16.5-1.1"/>
		<path id="path3748" inkscape:connector-curvature="0" class="st2" d="M-393.9,189.9c3.3,1.5,5.2,2,7.8,0.8
			c4.4-1.8,5.4-4.6,7.6-4.7c-0.4-1.8-1-3.5-4-3.8C-389.2,184.5-388.7,186.8-393.9,189.9z"/>
	</g>
</g>
<path id="path10706" sodipodi:nodetypes="ccscssscccc" class="st2" d="M80.5,475.1l220-203.3c0,0,129.2,116.4,205.9,188.4
	c5.3,4.9,10.3,9.6,15,14.1c6.1-6.6,11.4-13.8,16.2-21.3c0.2-0.3,0.4-0.6,0.5-0.8c1.6-2.5,3.1-5.1,4.6-7.6
	c7.8-13.6,14.4-28.2,21.6-41.8L300.5,166.6L37,404C38.6,409.8,67.9,465.5,80.5,475.1z"/>
<path class="st2" d="M2.1,4.2c0,4.9,0,41,0,258.6c0,285.5,298.5,397.8,298.5,397.8s298.5-112.3,298.5-397.8V4.2H2.1z M571.9,279.2
	c-0.1,0-0.1,0-0.2,0c1.2,7.2,1.3,15.4-1.6,26.5c-8.4,31.5-26.7,27.6-34.8,57.9c-8.1,30.3,9.8,36.6,1.2,67.4
	c-0.2,0.8-0.4,1.5-0.6,2.2c0,0-0.1,0-0.1-0.1c-2.6,6.8-6.5,14-14.7,22.1c-23,23-37,10.5-59.1,32.7c-22.1,22.2-5.9,41-28.7,63.4
	c-22.8,22.4-40.8,5.3-63.1,28.4c-22.3,23-10.8,8.3-32.7,30.1c-13.7,13.7-24.3,14-36,18c-11.7-4-22.3-4.3-36-18
	c-21.9-21.9-10.4-7.1-32.7-30.1c-22.3-23-42.7-6-65.4-28.4c-22.8-22.4-4.2-41.2-26.3-63.4c-22.1-22.2-36.1-9.7-59.1-32.7
	c-7.6-7.6-11.5-14.4-14.1-20.8c-8.2-25,8.1-34.6,0.2-70.8c-8.1-30.3-26.4-26.4-34.8-57.9c-2.9-10.9-2.8-18.9-1.7-26
	c5.3-10.7,12.3-19,12.6-38.7c0.5-32-18.4-33-18.7-64.9c-0.3-31.9,18.6-33.5,18.7-64.8c0.1-31.3-14.1-26.6-14.1-59.2l0,0
	c0-8.9,6-19,15.5-19c30.7,0.1,30.8,13,60.3,12.9c29.5-0.1,32-19,64.9-18.7c32.4,0.4,32.3,18.6,64.9,18.7c32.6,0,33.9-18.6,64.9-18.7
	c30.9,0,32.8,18.1,64.9,18.7c32,0.5,33-18.4,64.9-18.7C462.4,27.1,464,46,495.3,46c31.3,0,22.8-11.5,55.4-11.5
	c13.2,0.1,19.1,3.2,18,19c0,32.6-9.2,26.4-9.1,57.8c0.1,31.3,18.9,32.9,18.7,64.8c-0.3,31.9-19.2,32.9-18.7,64.9
	C559.9,260.4,566.6,268.7,571.9,279.2z"/>
<g id="layer2" inkscape:groupmode="layer" inkscape:label="Reflet final" sodipodi:insensitive="true">
	
		<radialGradient id="path2875_1_" cx="221.2482" cy="451.3706" r="300" gradientTransform="matrix(1.3532 0 0 -1.3489 -75.8633 829.9237)" gradientUnits="userSpaceOnUse">
		<stop  offset="0" style="stop-color:#FFFFFF;stop-opacity:0.3137"/>
		<stop  offset="0.19" style="stop-color:#FFFFFF;stop-opacity:0.251"/>
		<stop  offset="0.6" style="stop-color:#6B6B6B;stop-opacity:0.1255"/>
		<stop  offset="1" style="stop-color:#000000;stop-opacity:0.1255"/>
	</radialGradient>
	<path id="path2875" inkscape:export-xdpi="144" inkscape:export-ydpi="144" sodipodi:nodetypes="cccccc" class="st4" d="M301.5,660
		c0,0,298.5-112.3,298.5-397.8s0-258.6,0-258.6H3v258.6C3,547.7,301.5,660,301.5,660z"/>
</g>
</svg>
