<?xml version="1.0" encoding="UTF-8" standalone="no"?>
<svg xmlns:svg="http://www.w3.org/2000/svg"
xmlns="http://www.w3.org/2000/svg" version="1.1"
width="360.0" height="196.7">
<!-- Created with the Wikimedia westminster parliament diagram creator (http://tools.wmflabs.org/parliamentdiagram/westminsterinputform.html) -->
<g id="diagram">
  <g id="headbench">
  <g style="fill:#0047AB" id="Party 4">
    <rect x="6.1667" y="87.8333" rx="0.00" ry="0.00" width="21.00" height="21.00"/>
  </g>
  </g>
  <g id="leftbench">
  <g style="fill:#DE3533" id="Party 5">
    <rect x="29.5000" y="52.8333" rx="0.00" ry="0.00" width="21.00" height="21.00"/>
    <rect x="29.5000" y="29.5000" rx="0.00" ry="0.00" width="21.00" height="21.00"/>
    <rect x="29.5000" y="6.1667" rx="0.00" ry="0.00" width="21.00" height="21.00"/>
    <rect x="52.8333" y="52.8333" rx="0.00" ry="0.00" width="21.00" height="21.00"/>
    <rect x="52.8333" y="29.5000" rx="0.00" ry="0.00" width="21.00" height="21.00"/>
    <rect x="52.8333" y="6.1667" rx="0.00" ry="0.00" width="21.00" height="21.00"/>
    <rect x="76.1667" y="52.8333" rx="0.00" ry="0.00" width="21.00" height="21.00"/>
    <rect x="76.1667" y="29.5000" rx="0.00" ry="0.00" width="21.00" height="21.00"/>
    <rect x="76.1667" y="6.1667" rx="0.00" ry="0.00" width="21.00" height="21.00"/>
    <rect x="99.5000" y="52.8333" rx="0.00" ry="0.00" width="21.00" height="21.00"/>
    <rect x="99.5000" y="29.5000" rx="0.00" ry="0.00" width="21.00" height="21.00"/>
    <rect x="99.5000" y="6.1667" rx="0.00" ry="0.00" width="21.00" height="21.00"/>
    <rect x="122.8333" y="52.8333" rx="0.00" ry="0.00" width="21.00" height="21.00"/>
    <rect x="122.8333" y="29.5000" rx="0.00" ry="0.00" width="21.00" height="21.00"/>
    <rect x="122.8333" y="6.1667" rx="0.00" ry="0.00" width="21.00" height="21.00"/>
    <rect x="146.1667" y="52.8333" rx="0.00" ry="0.00" width="21.00" height="21.00"/>
    <rect x="146.1667" y="29.5000" rx="0.00" ry="0.00" width="21.00" height="21.00"/>
    <rect x="146.1667" y="6.1667" rx="0.00" ry="0.00" width="21.00" height="21.00"/>
    <rect x="169.5000" y="52.8333" rx="0.00" ry="0.00" width="21.00" height="21.00"/>
    <rect x="169.5000" y="29.5000" rx="0.00" ry="0.00" width="21.00" height="21.00"/>
    <rect x="169.5000" y="6.1667" rx="0.00" ry="0.00" width="21.00" height="21.00"/>
    <rect x="192.8333" y="52.8333" rx="0.00" ry="0.00" width="21.00" height="21.00"/>
    <rect x="192.8333" y="29.5000" rx="0.00" ry="0.00" width="21.00" height="21.00"/>
    <rect x="192.8333" y="6.1667" rx="0.00" ry="0.00" width="21.00" height="21.00"/>
    <rect x="216.1667" y="52.8333" rx="0.00" ry="0.00" width="21.00" height="21.00"/>
    <rect x="216.1667" y="29.5000" rx="0.00" ry="0.00" width="21.00" height="21.00"/>
    <rect x="216.1667" y="6.1667" rx="0.00" ry="0.00" width="21.00" height="21.00"/>
  </g>
  </g>
  <g id="rightbench">
  <g style="fill:#0047AB" id="Party 1">
    <rect x="29.5000" y="122.8333" rx="0.00" ry="0.00" width="21.00" height="21.00"/>
    <rect x="29.5000" y="146.1667" rx="0.00" ry="0.00" width="21.00" height="21.00"/>
    <rect x="29.5000" y="169.5000" rx="0.00" ry="0.00" width="21.00" height="21.00"/>
    <rect x="52.8333" y="122.8333" rx="0.00" ry="0.00" width="21.00" height="21.00"/>
    <rect x="52.8333" y="146.1667" rx="0.00" ry="0.00" width="21.00" height="21.00"/>
    <rect x="52.8333" y="169.5000" rx="0.00" ry="0.00" width="21.00" height="21.00"/>
    <rect x="76.1667" y="122.8333" rx="0.00" ry="0.00" width="21.00" height="21.00"/>
    <rect x="76.1667" y="146.1667" rx="0.00" ry="0.00" width="21.00" height="21.00"/>
    <rect x="76.1667" y="169.5000" rx="0.00" ry="0.00" width="21.00" height="21.00"/>
    <rect x="99.5000" y="122.8333" rx="0.00" ry="0.00" width="21.00" height="21.00"/>
    <rect x="99.5000" y="146.1667" rx="0.00" ry="0.00" width="21.00" height="21.00"/>
    <rect x="99.5000" y="169.5000" rx="0.00" ry="0.00" width="21.00" height="21.00"/>
    <rect x="122.8333" y="122.8333" rx="0.00" ry="0.00" width="21.00" height="21.00"/>
    <rect x="122.8333" y="146.1667" rx="0.00" ry="0.00" width="21.00" height="21.00"/>
    <rect x="122.8333" y="169.5000" rx="0.00" ry="0.00" width="21.00" height="21.00"/>
    <rect x="146.1667" y="122.8333" rx="0.00" ry="0.00" width="21.00" height="21.00"/>
    <rect x="146.1667" y="146.1667" rx="0.00" ry="0.00" width="21.00" height="21.00"/>
    <rect x="146.1667" y="169.5000" rx="0.00" ry="0.00" width="21.00" height="21.00"/>
    <rect x="169.5000" y="122.8333" rx="0.00" ry="0.00" width="21.00" height="21.00"/>
    <rect x="169.5000" y="146.1667" rx="0.00" ry="0.00" width="21.00" height="21.00"/>
    <rect x="169.5000" y="169.5000" rx="0.00" ry="0.00" width="21.00" height="21.00"/>
    <rect x="192.8333" y="122.8333" rx="0.00" ry="0.00" width="21.00" height="21.00"/>
    <rect x="192.8333" y="146.1667" rx="0.00" ry="0.00" width="21.00" height="21.00"/>
    <rect x="192.8333" y="169.5000" rx="0.00" ry="0.00" width="21.00" height="21.00"/>
    <rect x="216.1667" y="122.8333" rx="0.00" ry="0.00" width="21.00" height="21.00"/>
    <rect x="216.1667" y="146.1667" rx="0.00" ry="0.00" width="21.00" height="21.00"/>
  </g>
  <g style="fill:#006644" id="Party 2">
    <rect x="216.1667" y="169.5000" rx="0.00" ry="0.00" width="21.00" height="21.00"/>
    <rect x="239.5000" y="122.8333" rx="0.00" ry="0.00" width="21.00" height="21.00"/>
    <rect x="239.5000" y="146.1667" rx="0.00" ry="0.00" width="21.00" height="21.00"/>
    <rect x="239.5000" y="169.5000" rx="0.00" ry="0.00" width="21.00" height="21.00"/>
    <rect x="262.8333" y="122.8333" rx="0.00" ry="0.00" width="21.00" height="21.00"/>
    <rect x="262.8333" y="146.1667" rx="0.00" ry="0.00" width="21.00" height="21.00"/>
  </g>
  <g style="fill:#F8981D" id="Party 3">
    <rect x="262.8333" y="169.5000" rx="0.00" ry="0.00" width="21.00" height="21.00"/>
  </g>
  </g>
  <g id="centerbench">
  <g style="fill:#F4940D" id="Party 6">
    <rect x="309.5000" y="76.1667" rx="0.00" ry="0.00" width="21.00" height="21.00"/>
    <rect x="332.8333" y="87.8333" rx="0.00" ry="0.00" width="21.00" height="21.00"/>
  </g>
  <g style="fill:#B3B3B3" id="Party 7">
    <rect x="309.5000" y="99.5000" rx="0.00" ry="0.00" width="21.00" height="21.00"/>
  </g>
  </g>
</g>
</svg>
