<?xml version="1.0" encoding="UTF-8"?>
<!DOCTYPE svg PUBLIC "-//W3C//DTD SVG 1.1//EN" "http://www.w3.org/Graphics/SVG/1.1/DTD/svg11.dtd">
<!-- Creator: CorelDRAW X8 -->
<svg xmlns="http://www.w3.org/2000/svg" xml:space="preserve" width="100mm" height="82.1918mm" version="1.1" style="shape-rendering:geometricPrecision; text-rendering:geometricPrecision; image-rendering:optimizeQuality; fill-rule:evenodd; clip-rule:evenodd"
viewBox="0 0 10000 8219"
 xmlns:xlink="http://www.w3.org/1999/xlink">
 <defs>
  <style type="text/css">
   <![CDATA[
    .fil0 {fill:black}
    .fil2 {fill:black;fill-rule:nonzero}
    .fil1 {fill:#EE1B24;fill-rule:nonzero}
   ]]>
  </style>
 </defs>
 <g id="Layer_x0020_1">
  <metadata id="CorelCorpID_0Corel-Layer"/>
  <g id="_1319976080">
   <path class="fil0" d="M2697 8203l-272 -246 0 246 -146 0 0 -602 146 0 0 213 266 -213 222 0 -350 279 305 277 323 -556 144 0 349 602 -161 0 -70 -124 -380 0 -70 124c-102,0 -204,0 -306,0zm-636 -302c0,-59 -25,-103 -69,-137 -45,-35 -99,-47 -154,-47 -59,0 -117,13 -164,54 -39,33 -60,75 -60,130 0,56 19,99 58,132 47,41 108,53 166,53 58,0 118,-12 164,-53 39,-34 59,-77 59,-132zm134 0c0,102 -41,182 -114,240 -72,57 -156,78 -243,78 -87,0 -172,-21 -244,-79 -74,-58 -115,-137 -115,-239 0,-101 43,-180 116,-238 72,-57 156,-79 243,-79 87,0 171,22 242,79 73,59 115,137 115,238zm-1773 -146l-113 193 225 0 -112 -193zm-190 324l-70 124 -162 0 349 -602 145 0 349 602 -162 0 -70 -124 -379 0zm7910 -7l363 0 0 131 -520 0 0 -602 157 0 0 471zm-789 89c-60,-37 -100,-89 -100,-161l0 -399 145 0 0 377c0,36 17,60 48,78 66,38 175,38 242,0 30,-18 47,-42 47,-78l0 -377 146 0 0 399c0,72 -41,124 -101,161 -123,75 -303,75 -427,0zm-2098 -143l0 185 -153 0 0 -602 397 0c297,0 303,417 -18,417l-226 0zm0 -285l0 181 235 0c124,0 117,-181 -7,-181l-228 0zm-912 470l-156 0 0 -602 156 0 0 602zm-575 0l0 -470 -237 0 0 -132 605 0 0 132 -211 0 0 470 -157 0zm-2686 -154c-114,-196 -156,-264 -260,-448l-162 0 350 602 144 0 349 -602 -161 0c-116,204 -141,244 -260,448zm2181 -294l-113 193 225 0 -112 -193zm1549 448l-156 0 0 -602 156 0 0 602zm1526 -302c0,-59 -25,-103 -69,-137 -45,-35 -99,-47 -154,-47 -58,0 -117,13 -164,54 -39,33 -60,75 -60,130 0,56 19,99 58,132 48,41 108,53 166,53 58,0 118,-12 165,-53 39,-34 58,-77 58,-132zm134 0c0,102 -40,182 -114,240 -72,57 -156,78 -243,78 -87,0 -172,-21 -244,-79 -73,-58 -115,-137 -115,-239 0,-101 43,-180 117,-238 71,-57 155,-79 242,-79 87,0 171,22 242,79 73,59 115,137 115,238zm252 117l0 185 -153 0 0 -602 397 0c297,0 303,417 -19,417l-225 0zm0 -285l0 181 234 0c125,0 118,-181 -6,-181l-228 0zm2020 339l363 0 0 131 -520 0 0 -602 157 0 0 471zm576 131l-156 0 0 -602 156 0 0 602zm312 0l0 -470 -237 0 0 -132 605 0 0 132 -211 0 0 470 -157 0z"/>
   <g>
    <path class="fil1" d="M8270 4634l1293 2233 -1710 0 -865 -1494c639,-32 1025,-280 1282,-739z"/>
    <path class="fil2" d="M5169 2231l-584 1009 584 0 584 0 -584 -1009zm-1449 2504l-1235 2132 -1709 0 3754 -6484c70,-121 164,-212 267,-280 103,-69 227,-103 371,-103l1 0 1 0c144,0 268,34 371,103 103,68 196,159 266,280l1849 3193c182,315 147,612 -50,875 -178,239 -476,284 -753,284l-1684 0 -1449 0z"/>
   </g>
  </g>
 </g>
</svg>
