<?xml version="1.0" encoding="UTF-8"?><svg preserveAspectRatio="xMidYMid" viewBox="23.77 22.31 122.1 211.64" xmlns="http://www.w3.org/2000/svg" xmlns:cc="http://creativecommons.org/ns#" xmlns:dc="http://purl.org/dc/elements/1.1/" xmlns:rdf="http://www.w3.org/1999/02/22-rdf-syntax-ns#"><clipPath id="a"><rect x=".3" y=".3" width="539.4" height="719.15"/></clipPath><g clip-path="url(#a)" transform="translate(2.2541 1.3303)"><path d="M76.485 229.5l2.749-7.158h1.0205l2.9297 7.158h-1.0791l-.835-2.168h-2.9932l-.7861 2.168zm2.0654-2.939h2.4267l-.747-1.983q-.3418-.903-.5078-1.484-.1368.688-.3858 1.367zM83.487 227.95l.8691-.137q.0733.523.4053.801.3369.279.9375.279.6055 0 .8985-.245.2929-.249.2929-.581 0-.298-.2588-.468-.1806-.118-.8984-.298-.9668-.244-1.3428-.42-.3711-.181-.5664-.493-.1904-.318-.1904-.699 0-.346.1562-.639.1612-.298.4346-.493.2051-.152.5567-.254.3564-.108.7617-.108.6103 0 1.0693.176.4639.176.6836.479.2197.297.3027.8l-.8593.118q-.0586-.401-.3418-.625-.2784-.225-.7911-.225-.6054 0-.8642.2t-.2588.469q0 .171.1074.307.1074.142.3369.235.1319.049.7764.224.9326.249 1.2988.411.3711.156.5811.459.2099.302.2099.752 0 .439-.2587.83-.2539.385-.7373.6-.4834.21-1.0938.21-1.0107 0-1.543-.42-.5273-.42-.6738-1.245zM88.839 229.5v-5.186h.791v.738q.5713-.855 1.6504-.855.4687 0 .8593.171.3956.166.5909.44.1953.273.2734.649.0488.244.0488.855v3.188h-.8789v-3.154q0-.537-.1025-.801-.1025-.269-.3662-.425-.2588-.161-.6104-.161-.5615 0-.9717.356-.4052.357-.4052 1.353v2.832zM94.064 227.35v-.884h2.7002v.884zM97.13 229.5l2.7685-3.73-2.4414-3.428h1.128l1.2988 1.836q.4052.571.5762.879.239-.391.566-.816l1.441-1.899h1.03l-2.515 3.374 2.71 3.784h-1.171l-1.802-2.554q-.152-.219-.313-.478-.239.39-.342.537l-1.7964 2.495zM104.08 227.35v-.884h2.7v.884zM107.56 227.2l.893-.078q.064.537.293.884.235.342.723.556.488.21 1.099.21.541 0 .957-.161.415-.161.615-.439.205-.283.205-.615 0-.337-.195-.586-.196-.254-.645-.425-.288-.112-1.274-.347-.987-.239-1.382-.449-.513-.269-.767-.664-.249-.4-.249-.894 0-.542.308-1.01.307-.474.898-.718t1.314-.244q.796 0 1.401.259.61.253.938.751.327.499.351 1.128l-.908.069q-.073-.679-.498-1.026-.42-.346-1.245-.346-.86 0-1.255.317-.391.313-.391.757 0 .386.279.635.273.249 1.425.512 1.158.259 1.587.454.625.289.923.733.298.439.298 1.016 0 .571-.327 1.079-.327.503-.943.786-.61.278-1.377.278-.971 0-1.63-.283-.655-.283-1.031-.85-.371-.571-.39-1.289zM117.99 227.83l.908.112q-.214.796-.796 1.236-.581.439-1.484.439-1.138 0-1.807-.698-.664-.703-.664-1.968 0-1.308.674-2.031t1.748-.723q1.04 0 1.699.708.66.708.66 1.992 0 .079-.005.235h-3.867q.048.854.483 1.308.435.455 1.084.455.483 0 .825-.254t.542-.811zm-2.886-1.421h2.896q-.059-.654-.332-.981-.42-.508-1.089-.508-.605 0-1.02.405-.411.405-.455 1.084zM120 229.5v-5.186h.791v.787q.303-.552.557-.728.258-.176.566-.176.444 0 .903.283l-.302.816q-.323-.191-.645-.191-.288 0-.517.176-.23.171-.328.479-.146.469-.146 1.025v2.715zM122.69 229.62l2.076-7.402h.703l-2.071 7.402zM128.06 229.5v-6.313h-2.359v-.845h5.674v.845h-2.368v6.313zM132.24 229.5v-7.158h.879v2.568q.615-.713 1.553-.713.576 0 1.001.23.425.224.605.625.186.4.186 1.162v3.286h-.879v-3.286q0-.659-.288-.957-.283-.303-.806-.303-.39 0-.737.205-.342.2-.488.547-.147.347-.147.957v2.837zM137.79 229.5v-5.186h.791v.787q.303-.552.557-.728.258-.176.566-.176.444 0 .903.283l-.302.816q-.323-.191-.645-.191-.288 0-.518.176-.229.171-.327.479-.146.469-.146 1.025v2.715z"/><path d="m85.13 218.12v-8.19" stroke="#000" stroke-width=".6"/><path d="m85.13 220.56 1.5-3.94c-0.84 0.93-2.16 0.93-3 0z" fill-rule="evenodd" shape-rendering="geometricPrecision" stroke-miterlimit="5.198" stroke-width="0"/><path d="M72.371 204.69v-.839l3.0322-.005v2.656q-.6982.557-1.4404.84-.7422.278-1.5234.278-1.0547 0-1.919-.449-.8594-.454-1.2988-1.309-.4395-.854-.4395-1.909 0-1.045.4346-1.948.4395-.908 1.2598-1.348.8203-.439 1.8896-.439.7764 0 1.4014.254.6299.249.9863.698.3565.449.542 1.172l-.8545.234q-.1611-.547-.4004-.859-.2392-.313-.6836-.498-.4443-.191-.9863-.191-.6494 0-1.1231.2-.4736.196-.7666.518-.288.322-.4492.708-.2734.664-.2734 1.44 0 .958.3271 1.602.3321.645.962.957.6298.313 1.3378.313.6153 0 1.2012-.235.586-.239.8887-.508v-1.333zM76.663 207.5v-7.158h.8789v7.158zM82.293 205.6l.8642.112q-.1416.893-.7275 1.401-.5811.503-1.4307.503-1.0644 0-1.7138-.693-.6446-.698-.6446-1.997 0-.84.2783-1.47.2784-.63.8448-.942.5713-.318 1.2402-.318.8447 0 1.3818.43.5372.425.6885 1.211l-.8545.132q-.122-.523-.4345-.786-.3077-.264-.7471-.264-.6641 0-1.0791.478-.4151.474-.4151 1.504 0 1.045.4004 1.519t1.045.474q.5175 0 .8642-.318.3467-.317.4395-.976zM84.012 207.5v-7.158h.9717l3.7598 5.62v-5.62h.9082v7.158h-.9717l-3.7598-5.625v5.625zM90.462 207.5l2.749-7.158h1.0205l2.9297 7.158h-1.0791l-.8349-2.168h-2.9932l-.7861 2.168zm2.0654-2.939h2.4268l-.7471-1.983q-.3418-.903-.5078-1.484-.1367.688-.3857 1.367zM101.2 205.6l.864.112q-.141.893-.727 1.401-.581.503-1.4307.503-1.0645 0-1.7139-.693-.6445-.698-.6445-1.997 0-.84.2783-1.47t.8447-.942q.5713-.318 1.2403-.318.8448 0 1.3818.43.537.425.688 1.211l-.854.132q-.122-.523-.435-.786-.307-.264-.7467-.264-.664 0-1.0791.478-.415.474-.415 1.504 0 1.045.4004 1.519t1.0449.474q.5175 0 .8645-.318.346-.317.439-.976z"/><path d="m85.13 196.12v-8.19" stroke="#000" stroke-width=".6"/><path d="m85.13 198.56 1.5-3.94c-0.84 0.93-2.16 0.93-3 0z" fill-rule="evenodd" shape-rendering="geometricPrecision" stroke-miterlimit="5.198" stroke-width="0"/><path d="M72.371 182.69v-.839l3.0322-.005v2.656q-.6982.557-1.4404.84-.7422.278-1.5234.278-1.0547 0-1.919-.449-.8594-.454-1.2988-1.309-.4395-.854-.4395-1.909 0-1.045.4346-1.948.4395-.908 1.2598-1.348.8203-.439 1.8896-.439.7764 0 1.4014.254.6299.249.9863.698.3565.449.542 1.172l-.8545.234q-.1611-.547-.4004-.859-.2392-.313-.6836-.498-.4443-.191-.9863-.191-.6494 0-1.1231.2-.4736.196-.7666.518-.288.322-.4492.708-.2734.664-.2734 1.44 0 .958.3271 1.602.3321.645.962.957.6298.313 1.3378.313.6153 0 1.2012-.235.586-.239.8887-.508v-1.333zM76.663 185.5v-7.158h.8789v7.158zM82.293 183.6l.8642.112q-.1416.893-.7275 1.401-.5811.503-1.4307.503-1.0644 0-1.7138-.693-.6446-.698-.6446-1.997 0-.84.2783-1.47.2784-.63.8448-.942.5713-.318 1.2402-.318.8447 0 1.3818.43.5372.425.6885 1.211l-.8545.132q-.122-.523-.4345-.786-.3077-.264-.7471-.264-.6641 0-1.0791.478-.4151.474-.4151 1.504 0 1.045.4004 1.519t1.045.474q.5175 0 .8642-.318.3467-.317.4395-.976zM84.012 185.5v-7.158h.9717l3.7598 5.62v-5.62h.9082v7.158h-.9717l-3.7598-5.625v5.625zM90.462 185.5l2.749-7.158h1.0205l2.9297 7.158h-1.0791l-.8349-2.168h-2.9932l-.7861 2.168zm2.0654-2.939h2.4268l-.7471-1.983q-.3418-.903-.5078-1.484-.1367.688-.3857 1.367zM101.2 183.6l.864.112q-.141.893-.727 1.401-.581.503-1.4307.503-1.0645 0-1.7139-.693-.6445-.698-.6445-1.997 0-.84.2783-1.47t.8447-.942q.5713-.318 1.2403-.318.8448 0 1.3818.43.537.425.688 1.211l-.854.132q-.122-.523-.435-.786-.307-.264-.7467-.264-.664 0-1.0791.478-.415.474-.415 1.504 0 1.045.4004 1.519t1.0449.474q.5175 0 .8645-.318.346-.317.439-.976z"/><path d="m85.13 174.25v-8.2" stroke="#000" stroke-width=".6"/><path d="m85.13 176.69 1.5-3.94c-0.84 0.93-2.16 0.93-3 0z" fill-rule="evenodd" shape-rendering="geometricPrecision" stroke-miterlimit="5.198" stroke-width="0"/><path d="M76.216 163.62v-7.158h1.4257l1.6944 5.068q.2344.708.3418 1.06.122-.391.3808-1.148l1.7139-4.98h1.2744v7.158h-.9131v-5.991l-2.0801 5.991h-.8544l-2.0704-6.094v6.094zM87.856 162.98q-.4883.415-.9424.586-.4492.171-.9668.171-.8545 0-1.3135-.415-.459-.42-.459-1.069 0-.381.1709-.694.1758-.317.4541-.507.2832-.191.6348-.288.2588-.069.7813-.132 1.0644-.127 1.5673-.303.0049-.181.0049-.23 0-.537-.249-.756-.3369-.298-1.001-.298-.6201 0-.9179.22-.293.214-.4346.766l-.8594-.117q.1172-.552.3858-.889.2685-.342.7763-.522.5078-.186 1.1768-.186.664 0 1.0791.157.415.156.6103.395.1953.234.2735.596.0439.224.0439.81v1.172q0 1.226.0537 1.553.0586.322.2246.62h-.9179q-.1368-.273-.1758-.64zm-.0733-1.963q-.4785.196-1.4355.332-.542.079-.7666.176-.2246.098-.3467.288-.1221.186-.1221.415 0 .352.2637.586.2686.235.7813.235.5078 0 .9033-.22.3955-.225.581-.61.1416-.298.1416-.879zM90.039 163.62v-5.186h.791v.738q.5713-.855 1.6504-.855.4688 0 .8594.171.3955.166.5908.44.1953.273.2734.649.0489.244.0489.855v3.188h-.8789v-3.154q0-.537-.1026-.801-.1025-.269-.3662-.425-.2588-.161-.6103-.161-.5616 0-.9717.356-.4053.357-.4053 1.353v2.832zM93.466 141.82v-7.158h1.4257l1.6944 5.068q.2344.708.3418 1.06.122-.391.3808-1.148l1.7139-4.98h1.2745v7.158h-.9132v-5.991l-2.0801 5.991h-.8544l-2.0704-6.094v6.094zM105.11 141.18q-.488.415-.942.586-.449.171-.967.171-.854 0-1.313-.415-.459-.42-.459-1.069 0-.381.171-.694.176-.317.454-.507.283-.191.635-.288.258-.069.781-.132 1.064-.127 1.567-.303.005-.181.005-.23 0-.537-.249-.756-.337-.298-1.001-.298-.62 0-.918.22-.293.214-.434.766l-.86-.117q.117-.552.386-.889.269-.342.776-.522.508-.186 1.177-.186.664 0 1.079.157.415.156.611.395.195.234.273.596.044.224.044.81v1.172q0 1.226.054 1.553.058.322.224.62h-.918q-.136-.273-.176-.64zm-.073-1.963q-.478.196-1.435.332-.542.079-.767.176-.225.098-.347.288-.122.186-.122.415 0 .352.264.586.269.235.781.235.508 0 .904-.22.395-.225.581-.61.141-.298.141-.879zM107.29 141.82v-5.186h.791v.738q.571-.855 1.651-.855.468 0 .859.171.395.166.591.44.195.273.273.649.049.244.049.855v3.188h-.879v-3.154q0-.537-.102-.801-.103-.269-.367-.425-.258-.161-.61-.161-.562 0-.972.356-.405.357-.405 1.353v2.832zM58.466 141.82v-7.158h1.4257l1.6944 5.068q.2344.708.3418 1.06.122-.391.3808-1.148l1.7139-4.98h1.2744v7.158h-.9131v-5.991l-2.0801 5.991h-.8544l-2.0704-6.094v6.094zM70.106 141.18q-.4883.415-.9424.586-.4492.171-.9668.171-.8545 0-1.3135-.415-.459-.42-.459-1.069 0-.381.1709-.694.1758-.317.4541-.507.2832-.191.6348-.288.2588-.069.7813-.132 1.0644-.127 1.5673-.303.0049-.181.0049-.23 0-.537-.249-.756-.3369-.298-1.001-.298-.6201 0-.9179.22-.293.214-.4346.766l-.8594-.117q.1172-.552.3858-.889.2685-.342.7763-.522.5078-.186 1.1768-.186.664 0 1.0791.157.415.156.6103.395.1953.234.2735.596.0439.224.0439.81v1.172q0 1.226.0537 1.553.0586.322.2246.62h-.9179q-.1368-.273-.1758-.64zm-.0733-1.963q-.4785.196-1.4355.332-.542.079-.7666.176-.2246.098-.3467.288-.1221.186-.1221.415 0 .352.2637.586.2686.235.7813.235.5078 0 .9033-.22.3955-.225.581-.61.1416-.298.1416-.879zM72.289 141.82v-5.186h.791v.738q.5713-.855 1.6504-.855.4688 0 .8594.171.3955.166.5908.44.1953.273.2734.649.0489.244.0489.855v3.188h-.8789v-3.154q0-.537-.1026-.801-.1025-.269-.3662-.425-.2588-.161-.6103-.161-.5616 0-.9717.356-.4053.357-.4053 1.353v2.832z"/><path d="m93.08 152.61 5.49-7.83" stroke="#000" stroke-width=".6"/><path d="m91.68 154.61 3.49-2.36c-1.23 0.27-2.3-0.48-2.46-1.72z" fill-rule="evenodd" shape-rendering="geometricPrecision" stroke-miterlimit="5.198" stroke-width="0"/><path d="m77.17 152.61-5.49-7.83" stroke="#000" stroke-width=".6"/><path d="m78.57 154.61-1.03-4.08c-0.16 1.24-1.23 1.99-2.46 1.72z" fill-rule="evenodd" shape-rendering="geometricPrecision" stroke-miterlimit="5.198" stroke-width="0"/><path d="M111.09 119.96v-7.158h1.426l1.694 5.068q.234.708.342 1.06.122-.391.381-1.148l1.714-4.98h1.274v7.158h-.913v-5.991l-2.08 5.991h-.855l-2.07-6.094v6.094zM122.73 119.32q-.488.415-.942.586-.449.171-.967.171-.854 0-1.313-.415-.459-.42-.459-1.069 0-.381.171-.694.176-.317.454-.507.283-.191.635-.288.258-.069.781-.132 1.064-.127 1.567-.303.005-.181.005-.23 0-.537-.249-.756-.337-.298-1.001-.298-.62 0-.918.22-.293.214-.434.766l-.86-.117q.117-.552.386-.889.269-.342.776-.522.508-.186 1.177-.186.664 0 1.079.157.415.156.611.395.195.234.273.596.044.224.044.81v1.172q0 1.226.054 1.553.058.322.224.62h-.918q-.136-.273-.176-.64zm-.073-1.963q-.478.196-1.435.332-.542.079-.767.176-.225.098-.347.288-.122.186-.122.415 0 .352.264.586.269.235.781.235.508 0 .904-.22.395-.225.581-.61.141-.298.141-.879zM124.91 119.96v-5.186h.791v.738q.571-.855 1.651-.855.468 0 .859.171.395.166.591.44.195.273.273.649.049.244.049.855v3.188h-.879v-3.154q0-.537-.102-.801-.103-.269-.367-.425-.258-.161-.61-.161-.562 0-.972.356-.405.357-.405 1.353v2.832z"/><path d="m110.71 130.74 5.48-7.82" stroke="#000" stroke-width=".6"/><path d="m109.31 132.74 3.49-2.36c-1.23 0.27-2.3-0.48-2.46-1.72z" fill-rule="evenodd" shape-rendering="geometricPrecision" stroke-miterlimit="5.198" stroke-width="0"/><path d="m94.1 130.74-5.48-7.82" stroke="#000" stroke-width=".6"/><path d="m95.5 132.74-1.03-4.08c-0.16 1.24-1.23 1.99-2.46 1.72z" fill-rule="evenodd" shape-rendering="geometricPrecision" stroke-miterlimit="5.198" stroke-width="0"/><path d="M75.736 119.96v-7.158h1.4257l1.6944 5.068q.2344.708.3418 1.06.122-.391.3808-1.148l1.7139-4.98h1.2744v7.158h-.9131v-5.991l-2.08 5.991h-.8545l-2.0704-6.094v6.094zM87.376 119.32q-.4883.415-.9424.586-.4492.171-.9668.171-.8545 0-1.3135-.415-.459-.42-.459-1.069 0-.381.1709-.694.1758-.317.4541-.507.2833-.191.6348-.288.2588-.069.7813-.132 1.0644-.127 1.5673-.303.0049-.181.0049-.23 0-.537-.249-.756-.3369-.298-1.001-.298-.6201 0-.9179.22-.293.214-.4346.766l-.8594-.117q.1172-.552.3858-.889.2685-.342.7763-.522.5078-.186 1.1768-.186.664 0 1.0791.157.415.156.6103.395.1953.234.2735.596.0439.224.0439.81v1.172q0 1.226.0537 1.553.0586.322.2246.62h-.9179q-.1367-.273-.1758-.64zm-.0733-1.963q-.4785.196-1.4355.332-.542.079-.7666.176-.2246.098-.3467.288-.1221.186-.1221.415 0 .352.2637.586.2686.235.7813.235.5078 0 .9033-.22.3955-.225.581-.61.1416-.298.1416-.879zM89.559 119.96v-5.186h.791v.738q.5713-.855 1.6504-.855.4688 0 .8594.171.3955.166.5908.44.1953.273.2734.649.0489.244.0489.855v3.188h-.8789v-3.154q0-.537-.1026-.801-.1025-.269-.3662-.425-.2588-.161-.6103-.161-.5616 0-.9717.356-.4053.357-.4053 1.353v2.832z"/><path d="m59.6 130.74-5.48-7.82" stroke="#000" stroke-width=".6"/><path d="m61 132.74-1.03-4.08c-0.16 1.24-1.23 1.99-2.46 1.72z" fill-rule="evenodd" shape-rendering="geometricPrecision" stroke-miterlimit="5.198" stroke-width="0"/><path d="M41.236 119.96v-7.158h1.4257l1.6944 5.068q.2344.708.3418 1.06.122-.391.3808-1.148l1.7139-4.98h1.2744v7.158h-.9131v-5.991l-2.0801 5.991h-.8544l-2.0704-6.094v6.094zM52.876 119.32q-.4883.415-.9424.586-.4492.171-.9668.171-.8545 0-1.3135-.415-.459-.42-.459-1.069 0-.381.1709-.694.1758-.317.4541-.507.2832-.191.6348-.288.2588-.069.7813-.132 1.0644-.127 1.5673-.303.0049-.181.0049-.23 0-.537-.249-.756-.3369-.298-1.001-.298-.6201 0-.9179.22-.293.214-.4346.766l-.8594-.117q.1172-.552.3858-.889.2685-.342.7763-.522.5078-.186 1.1768-.186.664 0 1.0791.157.415.156.6103.395.1953.234.2735.596.0439.224.0439.81v1.172q0 1.226.0537 1.553.0586.322.2246.62h-.9179q-.1368-.273-.1758-.64zm-.0733-1.963q-.4785.196-1.4355.332-.542.079-.7666.176-.2246.098-.3467.288-.1221.186-.1221.415 0 .352.2637.586.2686.235.7813.235.5078 0 .9033-.22.3955-.225.581-.61.1416-.298.1416-.879zM55.059 119.96v-5.186h.791v.738q.5713-.855 1.6504-.855.4688 0 .8594.171.3955.166.5908.44.1953.273.2734.649.0489.244.0489.855v3.188h-.8789v-3.154q0-.537-.1026-.801-.1025-.269-.3662-.425-.2588-.161-.6103-.161-.5616 0-.9717.356-.4053.357-.4053 1.353v2.832z"/><path d="m33.38 86.45v-8.2" stroke="#000" stroke-width=".6"/><path d="m33.38 88.89 1.5-3.94c-0.84 0.93-2.16 0.93-3 0z" fill-rule="evenodd" shape-rendering="geometricPrecision" stroke-miterlimit="5.198" stroke-width="0"/><path d="M30.081 73.012v-.8399l3.0322-.0048v2.6562q-.6982.5566-1.4404.8398-.7422.2784-1.5234.2784-1.0547 0-1.919-.4492-.8594-.4542-1.2988-1.3086-.4395-.8545-.4395-1.9092 0-1.0449.4346-1.9483.4394-.9082 1.2598-1.3476.8203-.4395 1.8896-.4395.7764 0 1.4014.2539.6299.2491.9863.6983.3565.4492.542 1.1718l-.8545.2344q-.1611-.5469-.4004-.8594-.2392-.3125-.6836-.498-.4443-.1904-.9863-.1904-.6494 0-1.1231.2002-.4736.1953-.7666.5175-.288.3223-.4492.7081-.2734.664-.2734 1.4404 0 .957.3271 1.6015.3321.6446.962.9571.6298.3125 1.3378.3125.6153 0 1.2012-.2344.586-.2393.8887-.5078v-1.333zM34.373 75.82v-7.1582h.8789v7.1582zM40.003 73.921l.8642.1123q-.1416.8935-.7275 1.4014-.5811.5029-1.4307.5029-1.0644 0-1.7138-.6934-.6446-.6982-.6446-1.997 0-.8399.2783-1.4698.2784-.6299.8448-.9424.5713-.3173 1.2402-.3173.8447 0 1.3818.4297.5372.4248.6885 1.2109l-.8545.1318q-.122-.5224-.4345-.7861-.3077-.2637-.7471-.2637-.6641 0-1.0791.4785-.4151.4737-.4151 1.5039 0 1.045.4004 1.5186t1.045.4736q.5175 0 .8642-.3174.3467-.3173.4395-.9765z"/><path d="m42.88 108.71-5.48-7.83" stroke="#000" stroke-width=".6"/><path d="m44.28 110.71-1.03-4.08c-0.16 1.24-1.23 1.99-2.46 1.72z" fill-rule="evenodd" shape-rendering="geometricPrecision" stroke-miterlimit="5.198" stroke-width="0"/><path d="M24.516 97.93v-7.1582h1.4257l1.6944 5.0684q.2343.708.3418 1.0595.122-.3906.3808-1.1474l1.7139-4.9805h1.2744v7.1582h-.9131v-5.9912l-2.0801 5.9912h-.8544l-2.0704-6.0937v6.0937zM36.156 97.29q-.4883.415-.9424.5859-.4492.1709-.9668.1709-.8545 0-1.3135-.4151-.459-.4199-.459-1.0693 0-.3808.1709-.6933.1758-.3174.4541-.5079.2832-.1904.6348-.288.2588-.0684.7813-.1319 1.0644-.1269 1.5673-.3027.0049-.1807.0049-.2295 0-.5371-.249-.7568-.3369-.2979-1.001-.2979-.6201 0-.9179.2197-.293.2149-.4346.7666l-.8594-.1172q.1172-.5517.3858-.8886.2685-.3418.7763-.5225.5078-.1855 1.1768-.1855.664 0 1.0791.1562.415.1563.6103.3955.1953.2344.2735.5957.0439.2246.0439.8106v1.1718q0 1.2256.0537 1.5528.0586.3222.2246.6201h-.9179q-.1368-.2734-.1758-.6396zm-.0733-1.9629q-.4785.1953-1.4355.332-.542.0781-.7666.1758-.2246.0976-.3467.2881-.1221.1855-.1221.415 0 .3516.2637.5859.2686.2344.7813.2344.5078 0 .9033-.2197.3955-.2246.581-.6104.1416-.2978.1416-.8789zM38.339 97.93v-5.1855h.791v.7373q.5713-.8545 1.6504-.8545.4688 0 .8594.1709.3955.166.5908.4394.1953.2735.2734.6494.0489.2442.0489.8545v3.1885h-.8789v-3.1543q0-.5371-.1026-.8008-.1025-.2685-.3662-.4248-.2588-.1611-.6103-.1611-.5616 0-.9717.3564-.4053.3565-.4053 1.3526v2.832z"/><path d="m33.38 64.2v-8.2" stroke="#000" stroke-width=".6"/><path d="m33.38 66.64 1.5-3.94c-0.84 0.93-2.16 0.93-3 0z" fill-rule="evenodd" shape-rendering="geometricPrecision" stroke-miterlimit="5.198" stroke-width="0"/><path d="M30.081 50.762v-.8399l3.0322-.0048v2.6562q-.6982.5566-1.4404.8398-.7422.2784-1.5234.2784-1.0547 0-1.919-.4492-.8594-.4542-1.2988-1.3086-.4395-.8545-.4395-1.9092 0-1.0449.4346-1.9483.4394-.9082 1.2598-1.3476.8203-.4395 1.8896-.4395.7764 0 1.4014.2539.6299.2491.9863.6983.3565.4492.542 1.1718l-.8545.2344q-.1611-.5469-.4004-.8594-.2392-.3125-.6836-.498-.4443-.1904-.9863-.1904-.6494 0-1.1231.2002-.4736.1953-.7666.5175-.288.3223-.4492.7081-.2734.664-.2734 1.4404 0 .957.3271 1.6015.3321.6446.962.9571.6298.3125 1.3378.3125.6153 0 1.2012-.2344.586-.2393.8887-.5078v-1.333zM34.373 53.57v-7.1582h.8789v7.1582zM40.003 51.671l.8642.1123q-.1416.8935-.7275 1.4014-.5811.5029-1.4307.5029-1.0644 0-1.7138-.6934-.6446-.6982-.6446-1.997 0-.8399.2783-1.4698.2784-.6299.8448-.9424.5713-.3173 1.2402-.3173.8447 0 1.3818.4297.5372.4248.6885 1.2109l-.8545.1318q-.122-.5224-.4345-.7861-.3077-.2637-.7471-.2637-.6641 0-1.0791.4785-.4151.4737-.4151 1.5039 0 1.045.4004 1.5186t1.045.4736q.5175 0 .8642-.3174.3467-.3173.4395-.9765z"/><path d="m33.38 41.88v-8.19" stroke="#000" stroke-width=".6"/><path d="m33.38 44.32 1.5-3.94c-0.84 0.93-2.16 0.93-3 0z" fill-rule="evenodd" shape-rendering="geometricPrecision" stroke-miterlimit="5.198" stroke-width="0"/><path d="M30.081 28.452v-.8399l3.0322-.0048v2.6562q-.6982.5566-1.4404.8399-.7422.2783-1.5234.2783-1.0547 0-1.919-.4492-.8594-.4541-1.2988-1.3086-.4395-.8545-.4395-1.9092 0-1.0449.4346-1.9483.4394-.9082 1.2598-1.3476.8203-.4395 1.8896-.4395.7764 0 1.4014.2539.6299.2491.9863.6983.3565.4492.542 1.1719l-.8545.2343q-.1611-.5468-.4004-.8593-.2392-.3125-.6836-.4981-.4443-.1904-.9863-.1904-.6494 0-1.1231.2002-.4736.1953-.7666.5175-.288.3223-.4492.7081-.2734.664-.2734 1.4404 0 .957.3271 1.6015.3321.6446.962.9571.6298.3125 1.3378.3125.6153 0 1.2012-.2344.586-.2393.8887-.5078v-1.333zM34.373 31.26v-7.1582h.8789v7.1582zM40.003 29.361l.8642.1123q-.1416.8935-.7275 1.4014-.5811.5029-1.4307.5029-1.0644 0-1.7138-.6934-.6446-.6982-.6446-1.997 0-.8399.2783-1.4698.2784-.6299.8448-.9424.5713-.3173 1.2402-.3173.8447 0 1.3818.4297.5372.4248.6885 1.2109l-.8545.1318q-.122-.5224-.4345-.7861-.3077-.2637-.7471-.2637-.6641 0-1.0791.4785-.4151.4737-.4151 1.5039 0 1.045.4004 1.5186t1.045.4736q.5175 0 .8642-.3174.3467-.3173.4395-.9765zM42.863 36.809h.5674l-.4443 1.5552q-.0445.147-.1402.4614.1299.5264.1949.6289.123.188.311.188.1367 0 .2529-.1128t.1538-.352h.1368q-.0479.4922-.2085.6802-.1573.188-.3658.188-.1948 0-.3554-.1641-.1573-.1641-.2837-.7041-.1504.2974-.294.4512-.2016.2119-.4375.3144-.2358.106-.5366.106-.7554 0-1.1108-.5025-.3555-.5024-.3555-1.145 0-.7519.417-1.2168.417-.4682.9775-.4682.3897 0 .6871.2392.2973.2359.54.8818zm-.4135 1.4117q-.1846-.7041-.4751-.981-.2906-.2803-.5913-.2803-.335 0-.5572.3692-.2221.3657-.2221 1.1689 0 .4751.0957.7486.0957.27.2871.4204.1948.1469.4101.1469.2632 0 .482-.2426.2973-.3282.5708-1.3501zM46.684 39.94h-.6152v-3.9204q-.2222.2119-.5845.4238-.3589.2119-.646.3179v-.5947q.5161-.2427.9024-.5879.3862-.3452.5468-.67h.3965zM48.195 38.436v-.6187h1.8901v.6187zM53.834 39.349v.5913h-3.312q-.0068-.2222.0718-.4272.1264-.3384.4033-.6666.2803-.3281.8066-.7587.8169-.67 1.104-1.0596.2872-.3931.2872-.7417 0-.3657-.2632-.6152-.2598-.253-.6802-.253-.4443 0-.7109.2666t-.2701.7383l-.6323-.0649q.065-.7076.4888-1.0767.4238-.3726 1.1382-.3726.7212 0 1.1416.4.4204.3999.4204.9912 0 .3007-.1231.5913-.123.2905-.4101.6118-.2837.3213-.9468.8818-.5537.4649-.7109.6323-.1573.1641-.2598.3316zM42.863 59.499h.5674l-.4443 1.5552q-.0445.147-.1402.4614.1299.5264.1949.6289.123.188.311.188.1367 0 .2529-.1128.1162-.1127.1538-.352h.1368q-.0479.4922-.2085.6802-.1573.188-.3658.188-.1948 0-.3554-.1641-.1573-.1641-.2837-.7041-.1504.2974-.294.4512-.2016.2119-.4375.3144-.2358.106-.5366.106-.7554 0-1.1108-.5025-.3555-.5024-.3555-1.145 0-.7519.417-1.2168.417-.4682.9775-.4682.3897 0 .6871.2392.2973.2359.54.8819zm-.4135 1.4117q-.1846-.7041-.4751-.981-.2906-.2803-.5913-.2803-.335 0-.5572.3692-.2221.3657-.2221 1.1689 0 .4751.0957.7486.0957.27.2871.4204.1948.1469.4101.1469.2632 0 .482-.2426.2973-.3282.5708-1.3501zM46.684 62.63h-.6152v-3.9204q-.2222.2119-.5845.4238-.3589.2119-.646.3179v-.5947q.5161-.2427.9024-.5879.3862-.3452.5468-.6699h.3965zM48.195 61.126v-.6187h1.8901v.6187zM50.604 61.307l.6153-.082q.1059.523.3589.7554.2563.229.622.229.4341 0 .7315-.3008.3008-.3008.3008-.7451 0-.4238-.2769-.6973-.2769-.2768-.7041-.2768-.1743 0-.4341.0683l.0684-.54q.0615.0068.0991.0068.3931 0 .7075-.2051.3145-.205.3145-.6323 0-.3384-.229-.5605-.229-.2222-.5913-.2222-.3589 0-.5982.2256-.2392.2256-.3076.6768l-.6152-.1094q.1128-.6187.5127-.9571.3999-.3417.9946-.3417.4101 0 .7554.1777.3452.1743.5263.4785.1846.3042.1846.646 0 .3247-.1743.5913t-.5161.4238q.4443.1026.6904.4273.2461.3213.2461.8066 0 .6563-.4785 1.1143-.4785.4546-1.21.4546-.6597 0-1.0972-.3931-.434-.3931-.4956-1.0186zM42.863 81.339h.5674l-.4443 1.5552q-.0445.147-.1402.4614.1299.5264.1949.6289.123.188.311.188.1367 0 .2529-.1128.1162-.1127.1538-.352h.1368q-.0479.4922-.2085.6802-.1573.188-.3658.188-.1948 0-.3554-.1641-.1573-.1641-.2837-.7041-.1504.2974-.294.4512-.2016.2119-.4375.3144-.2358.106-.5366.106-.7554 0-1.1108-.5025-.3555-.5024-.3555-1.145 0-.7519.417-1.2168.417-.4682.9775-.4682.3897 0 .6871.2392.2973.2359.54.8819zm-.4135 1.4117q-.1846-.7041-.4751-.981-.2906-.2803-.5913-.2803-.335 0-.5572.3692-.2221.3657-.2221 1.1689 0 .4751.0957.7486.0957.27.2871.4204.1948.1469.4101.1469.2632 0 .482-.2426.2973-.3282.5708-1.3501zM46.684 84.47h-.6152v-3.9204q-.2222.2119-.5845.4238-.3589.2119-.646.3179v-.5947q.5161-.2427.9024-.5879.3862-.3452.5468-.6699h.3965zM48.195 82.966v-.6187h1.8901v.6187zM50.604 83.147l.6153-.082q.1059.523.3589.7554.2563.229.622.229.4341 0 .7315-.3008.3008-.3008.3008-.7451 0-.4238-.2769-.6973-.2769-.2768-.7041-.2768-.1743 0-.4341.0683l.0684-.54q.0615.0068.0991.0068.3931 0 .7075-.2051.3145-.205.3145-.6323 0-.3384-.229-.5605-.229-.2222-.5913-.2222-.3589 0-.5982.2256-.2392.2256-.3076.6768l-.6152-.1094q.1128-.6187.5127-.9571.3999-.3417.9946-.3417.4101 0 .7554.1777.3452.1743.5263.4785.1846.3042.1846.646 0 .3247-.1743.5913t-.5161.4238q.4443.1026.6904.4273.2461.3213.2461.8066 0 .6563-.4785 1.1143-.4785.4546-1.21.4546-.6597 0-1.0972-.3931-.434-.3931-.4956-1.0186zM49.703 103.37h.5674l-.4443 1.555q-.0444.147-.1402.462.1299.526.1949.629.123.188.311.188.1367 0 .2529-.113t.1538-.352h.1368q-.0479.492-.2085.68-.1573.188-.3658.188-.1948 0-.3554-.164-.1573-.164-.2837-.704-.1504.297-.294.451-.2016.212-.4375.314-.2358.106-.5366.106-.7554 0-1.1108-.502-.3555-.503-.3555-1.145 0-.752.417-1.217.417-.468.9775-.468.3897 0 .6871.239.2973.236.54.882zm-.4135 1.412q-.1846-.704-.4751-.981-.2906-.28-.5913-.28-.335 0-.5572.369-.2221.365-.2221 1.169 0 .475.0957.748.0957.27.2871.421.1948.147.4101.147.2632 0 .482-.243.2973-.328.5708-1.35zM53.524 106.5h-.6152v-3.92q-.2222.212-.5845.423-.3589.212-.646.318v-.594q.5161-.243.9024-.588.3862-.346.5468-.67h.3965zM55.035 105v-.619h1.8901v.619zM60.674 105.91v.591h-3.312q-.0068-.222.0718-.427.1264-.339.4033-.667.2803-.328.8066-.759.8169-.669 1.104-1.059.2872-.393.2872-.742 0-.366-.2632-.615-.2598-.253-.6802-.253-.4443 0-.7109.267-.2666.266-.2701.738l-.6323-.065q.065-.708.4888-1.077.4238-.372 1.1382-.372.7212 0 1.1416.4t.4204.991q0 .301-.1231.591-.123.291-.4101.612-.2837.321-.9468.882-.5537.465-.7109.632-.1573.164-.2598.332zM42.013 127.65h.5674l-.4443 1.555q-.0444.147-.1402.462.1299.526.1949.629.123.188.311.188.1367 0 .2529-.113t.1538-.352h.1368q-.0479.492-.2085.68-.1573.188-.3658.188-.1948 0-.3554-.164-.1572-.164-.2837-.704-.1504.297-.294.451-.2016.212-.4375.314-.2358.106-.5366.106-.7554 0-1.1108-.502-.3555-.503-.3555-1.145 0-.752.417-1.217.417-.468.9775-.468.3897 0 .6871.239.2973.236.54.882zm-.4135 1.412q-.1846-.704-.4751-.981-.2906-.28-.5913-.28-.335 0-.5572.369-.2221.365-.2221 1.169 0 .475.0957.748.0957.27.2871.421.1948.147.4101.147.2632 0 .482-.243.2973-.328.5708-1.35zM45.834 130.78h-.6152v-3.92q-.2222.212-.5845.423-.3589.212-.646.318v-.594q.5161-.243.9024-.588.3862-.346.5468-.67h.3965zM47.345 129.28v-.619h1.8901v.619zM52.984 130.19v.591h-3.312q-.0068-.222.0718-.427.1264-.339.4033-.667.2803-.328.8066-.759.8169-.669 1.104-1.059.2872-.393.2872-.742 0-.366-.2632-.615-.2598-.253-.6802-.253-.4443 0-.7109.267-.2666.266-.2701.738l-.6323-.065q.065-.708.4888-1.077.4238-.372 1.1382-.372.7212 0 1.1416.4t.4204.991q0 .301-.1231.591-.123.291-.4101.612-.2837.321-.9468.882-.5537.465-.7109.632-.1573.164-.2598.332zM58.893 149.21h.5674l-.4443 1.555q-.0445.147-.1402.462.1299.526.1949.629.123.188.311.188.1367 0 .2529-.113t.1538-.352h.1368q-.0479.492-.2085.68-.1573.188-.3658.188-.1948 0-.3554-.164-.1573-.164-.2837-.704-.1504.297-.294.451-.2016.212-.4375.314-.2358.106-.5366.106-.7554 0-1.1108-.502-.3555-.503-.3555-1.145 0-.752.417-1.217.417-.468.9775-.468.3897 0 .6871.239.2973.236.54.882zm-.4135 1.412q-.1846-.704-.4751-.981-.2906-.28-.5913-.28-.335 0-.5572.369-.2221.365-.2221 1.169 0 .475.0957.748.0957.27.2871.421.1948.147.4101.147.2632 0 .482-.243.2973-.328.5708-1.35zM62.714 152.34h-.6152v-3.92q-.2222.212-.5845.423-.3589.212-.646.318v-.594q.5161-.243.9024-.588.3862-.346.5468-.67h.3965zM64.225 150.84v-.619h1.8901v.619zM66.634 151.02l.6153-.082q.1059.523.3589.756.2563.229.622.229.4341 0 .7315-.301.3008-.301.3008-.745 0-.424-.2769-.698-.2769-.276-.7041-.276-.1743 0-.4341.068l.0684-.54q.0615.007.0991.007.3931 0 .7075-.205.3145-.205.3145-.633 0-.338-.229-.56t-.5913-.222q-.3589 0-.5982.225-.2392.226-.3076.677l-.6152-.109q.1128-.619.5127-.957.3999-.342.9946-.342.4101 0 .7554.177.3452.175.5263.479.1846.304.1846.646 0 .325-.1743.591-.1743.267-.5161.424.4443.103.6904.427.2461.322.2461.807 0 .656-.4785 1.114-.4785.455-1.21.455-.6597 0-1.0972-.393-.434-.393-.4956-1.019zM102.2 149.21h.567l-.444 1.555q-.045.147-.14.462.129.526.194.629.123.188.311.188.137 0 .253-.113.117-.113.154-.352h.137q-.048.492-.209.68-.157.188-.365.188-.195 0-.356-.164-.157-.164-.284-.704-.15.297-.293.451-.202.212-.438.314-.236.106-.537.106-.755 0-1.1104-.502-.3555-.503-.3555-1.145 0-.752.417-1.217.4169-.468.9779-.468.389 0 .687.239.297.236.54.882zm-.414 1.412q-.185-.704-.475-.981-.291-.28-.591-.28-.335 0-.557.369-.2226.365-.2226 1.169 0 .475.0956.748.096.27.287.421.195.147.41.147.264 0 .482-.243.298-.328.571-1.35zM106.02 152.34h-.615v-3.92q-.222.212-.585.423-.359.212-.646.318v-.594q.516-.243.903-.588.386-.346.546-.67h.397zM107.54 150.84v-.619h1.89v.619zM113.13 148.56l-.612.048q-.082-.362-.232-.526-.249-.263-.615-.263-.294 0-.516.164-.291.212-.458.618-.168.407-.175 1.159.223-.338.544-.502t.673-.164q.615 0 1.046.454.434.451.434 1.169 0 .472-.205.878-.202.404-.557.619-.356.215-.807.215-.769 0-1.254-.564-.485-.567-.485-1.866 0-1.452.536-2.112.468-.574 1.261-.574.592 0 .968.331.379.332.454.916zm-2.512 2.16q0 .318.133.609.137.29.38.444.242.151.509.151.39 0 .67-.315.28-.314.28-.854 0-.52-.277-.817-.276-.301-.697-.301-.417 0-.707.301-.291.297-.291.782zM77.083 127.65h.5674l-.4443 1.555q-.0445.147-.1402.462.1299.526.1949.629.123.188.311.188.1367 0 .2529-.113t.1538-.352h.1368q-.0479.492-.2085.68-.1573.188-.3658.188-.1948 0-.3554-.164-.1573-.164-.2837-.704-.1504.297-.294.451-.2016.212-.4375.314-.2358.106-.5366.106-.7554 0-1.1108-.502-.3555-.503-.3555-1.145 0-.752.417-1.217.417-.468.9775-.468.3897 0 .687.239.2974.236.5401.882zm-.4135 1.412q-.1846-.704-.4751-.981-.2906-.28-.5913-.28-.335 0-.5572.369-.2221.365-.2221 1.169 0 .475.0957.748.0957.27.2871.421.1948.147.4101.147.2632 0 .482-.243.2973-.328.5708-1.35zM80.904 130.78h-.6152v-3.92q-.2222.212-.5845.423-.3589.212-.646.318v-.594q.5161-.243.9024-.588.3862-.346.5468-.67h.3965zM82.415 129.28v-.619h1.8901v.619zM84.824 129.46l.6153-.082q.1059.523.3589.756.2563.229.622.229.4341 0 .7315-.301.3008-.301.3008-.745 0-.424-.2769-.698-.2769-.276-.7041-.276-.1743 0-.4341.068l.0684-.54q.0615.007.0991.007.3931 0 .7075-.205.3145-.205.3145-.633 0-.338-.229-.56t-.5913-.222q-.3589 0-.5982.225-.2392.226-.3076.677l-.6152-.109q.1127-.619.5127-.957.3999-.342.9946-.342.4101 0 .7554.177.3452.175.5263.479.1846.304.1846.646 0 .325-.1743.591-.1743.267-.5161.424.4443.103.6904.427.2461.322.2461.807 0 .656-.4785 1.114-.4785.455-1.21.455-.6597 0-1.0972-.393-.434-.393-.4956-1.019zM119.26 127.65h.567l-.444 1.555q-.045.147-.14.462.129.526.194.629.123.188.311.188.137 0 .253-.113.117-.113.154-.352h.137q-.048.492-.209.68-.157.188-.365.188-.195 0-.356-.164-.157-.164-.284-.704-.15.297-.293.451-.202.212-.438.314-.236.106-.537.106-.755 0-1.11-.502-.356-.503-.356-1.145 0-.752.417-1.217.417-.468.978-.468.389 0 .687.239.297.236.54.882zm-.414 1.412q-.185-.704-.475-.981-.291-.28-.591-.28-.335 0-.557.369-.223.365-.223 1.169 0 .475.096.748.096.27.287.421.195.147.41.147.264 0 .482-.243.298-.328.571-1.35zM123.08 130.78h-.615v-3.92q-.222.212-.585.423-.359.212-.646.318v-.594q.516-.243.903-.588.386-.346.546-.67h.397zM124.6 129.28v-.619h1.89v.619zM130.19 127l-.612.048q-.082-.362-.232-.526-.249-.263-.615-.263-.294 0-.516.164-.291.212-.458.618-.168.407-.175 1.159.223-.338.544-.502t.673-.164q.615 0 1.046.454.434.451.434 1.169 0 .472-.205.878-.202.404-.557.619-.356.215-.807.215-.769 0-1.254-.564-.485-.567-.485-1.866 0-1.452.536-2.112.468-.574 1.261-.574.592 0 .968.331.379.332.454.916zm-2.512 2.16q0 .318.133.609.137.29.38.444.242.151.509.151.39 0 .67-.315.28-.314.28-.854 0-.52-.277-.817-.276-.301-.697-.301-.417 0-.707.301-.291.297-.291.782zM90.568 172.7v.578q0 .554-.1367 1.2h-.5776q.0923-.424.1094-.578.0444-.478.0444-.701v-3.493q0-.612.1196-.906.1231-.297.4375-.495.3179-.198.7588-.198.6118 0 .9775.328.3658.328.3658.779 0 .291-.1504.554-.147.26-.458.451.916.437.916 1.36 0 .41-.1914.766-.1914.355-.5264.543-.335.185-.6904.185-.229 0-.4546-.079-.2222-.078-.5435-.294zm0-.27q.3316.233.5777.335.1845.076.3691.076.3452 0 .5776-.284.2359-.287.2359-.906 0-.39-.1128-.68-.1094-.294-.3897-.643-.2358.079-.4067.079-.2051 0-.2905-.062-.0821-.061-.0821-.133 0-.065.065-.116.0649-.051.2085-.051.1675 0 .5058.089.2393-.476.2393-.899 0-.431-.2119-.667t-.5264-.236q-.3965 0-.6152.335-.1436.222-.1436.715zM95.89 172.97h-.6152v-3.92q-.2222.212-.5845.423-.3589.212-.646.318v-.594q.5161-.243.9024-.588.3862-.346.5468-.67h.3965zM97.4 171.47v-.619h1.8901v.619zM101.78 172.97v-1.2h-2.174v-.564l2.287-3.247h.502v3.247h.677v.564h-.677v1.2zm0-1.764v-2.259l-1.569 2.259zM90.568 194.82v.578q0 .554-.1367 1.2h-.5776q.0923-.424.1094-.578.0444-.478.0444-.701v-3.493q0-.612.1196-.906.1231-.297.4375-.495.3179-.198.7588-.198.6118 0 .9775.328.3658.328.3658.779 0 .291-.1504.554-.147.26-.458.451.916.437.916 1.36 0 .41-.1914.766-.1914.355-.5264.543-.335.185-.6904.185-.229 0-.4546-.079-.2222-.078-.5435-.294zm0-.27q.3316.233.5777.335.1845.076.3691.076.3452 0 .5776-.284.2359-.287.2359-.906 0-.39-.1128-.68-.1094-.294-.3897-.643-.2358.079-.4067.079-.2051 0-.2905-.062-.0821-.061-.0821-.133 0-.065.065-.116.0649-.051.2085-.051.1675 0 .5058.089.2393-.476.2393-.899 0-.431-.2119-.667t-.5264-.236q-.3965 0-.6152.335-.1436.222-.1436.715zM95.89 195.09h-.6152v-3.92q-.2222.212-.5845.423-.3589.212-.646.318v-.594q.5161-.243.9024-.588.3862-.346.5468-.67h.3965zM97.4 193.59v-.619h1.8901v.619zM101.78 195.09v-1.2h-2.174v-.564l2.287-3.247h.502v3.247h.677v.564h-.677v1.2zm0-1.764v-2.259l-1.569 2.259zM90.568 216.39v.578q0 .554-.1367 1.2h-.5776q.0923-.424.1094-.578.0444-.478.0444-.701v-3.493q0-.612.1196-.906.1231-.297.4375-.495.3179-.198.7588-.198.6118 0 .9775.328.3658.328.3658.779 0 .291-.1504.554-.147.26-.458.451.916.437.916 1.36 0 .41-.1914.766-.1914.355-.5264.543-.335.185-.6904.185-.229 0-.4546-.079-.2222-.078-.5435-.294zm0-.27q.3316.233.5777.335.1845.076.3691.076.3452 0 .5776-.284.2359-.287.2359-.906 0-.39-.1128-.68-.1094-.294-.3897-.643-.2358.079-.4067.079-.2051 0-.2905-.062-.0821-.061-.0821-.133 0-.065.065-.116.0649-.051.2085-.051.1675 0 .5058.089.2393-.476.2393-.899 0-.431-.2119-.667t-.5264-.236q-.3965 0-.6152.335-.1436.222-.1436.715zM95.89 216.66h-.6152v-3.92q-.2222.212-.5845.423-.3589.212-.646.318v-.594q.5161-.243.9024-.588.3862-.346.5468-.67h.3965zM97.4 215.16v-.619h1.8901v.619zM100.05 216.66v-5.011h.681l2.631 3.934v-3.934h.636v5.011h-.68l-2.632-3.937v3.937z"/></g></svg>