<?xml version="1.0" encoding="UTF-8" standalone="no"?>
<!-- Created with Inkscape (http://www.inkscape.org/) -->

<svg
   xmlns:dc="http://purl.org/dc/elements/1.1/"
   xmlns:cc="http://creativecommons.org/ns#"
   xmlns:rdf="http://www.w3.org/1999/02/22-rdf-syntax-ns#"
   xmlns:svg="http://www.w3.org/2000/svg"
   xmlns="http://www.w3.org/2000/svg"
   xmlns:sodipodi="http://sodipodi.sourceforge.net/DTD/sodipodi-0.dtd"
   xmlns:inkscape="http://www.inkscape.org/namespaces/inkscape"
   id="svg1890"
   sodipodi:version="0.32"
   inkscape:version="0.48.2 r9819"
   width="666.99481"
   height="532.01996"
   version="1.0"
   sodipodi:docname="BattlesofKissoue+Damascus1941_en.svg">
  <metadata
     id="metadata1895">
    <rdf:RDF>
      <cc:Work
         rdf:about="">
        <dc:format>image/svg+xml</dc:format>
        <dc:type
           rdf:resource="http://purl.org/dc/dcmitype/StillImage" />
      </cc:Work>
    </rdf:RDF>
  </metadata>
  <defs
     id="defs1893" />
  <sodipodi:namedview
     inkscape:window-height="900"
     inkscape:window-width="1280"
     inkscape:pageshadow="2"
     inkscape:pageopacity="0.0"
     guidetolerance="10.0"
     gridtolerance="10.0"
     objecttolerance="10.0"
     borderopacity="1.0"
     bordercolor="#666666"
     pagecolor="#ffffff"
     id="base"
     width="744.09448px"
     height="524.40942px"
     inkscape:zoom="0.88164577"
     inkscape:cx="258.95734"
     inkscape:cy="262.85825"
     inkscape:window-x="-4"
     inkscape:window-y="-4"
     inkscape:current-layer="svg1890"
     showgrid="false"
     inkscape:window-maximized="1" />
  <text
     xml:space="preserve"
     style="font-size:47.69299316px;font-style:normal;font-variant:normal;font-weight:normal;font-stretch:normal;text-align:start;line-height:100%;writing-mode:lr-tb;text-anchor:start;fill:#000000;fill-opacity:1;stroke:none;font-family:Arial"
     x="296.83218"
     y="169.22992"
     id="text4001"
     sodipodi:linespacing="100%"><tspan
       sodipodi:role="line"
       id="tspan4003"
       x="296.83218"
       y="169.22992" /></text>
  <g
     id="g3301">
    <rect
       y="8.4713564"
       x="9.5615759"
       height="516.90851"
       width="649.28351"
       id="rect3947"
       style="fill:#d4d396;fill-opacity:1;stroke:#2b2b2b;stroke-width:0;stroke-linecap:butt;stroke-linejoin:round;stroke-miterlimit:4;stroke-opacity:1;stroke-dasharray:none;stroke-dashoffset:0" />
    <path
       sodipodi:nodetypes="cccccc"
       id="path2808"
       d="m 406.8548,100.46025 c -0.79296,1.35508 12.86866,12.66922 15.04513,16.41696 3.36272,5.2919 8.97606,7.64938 14.69016,10.28973 6.12326,6.05556 10.09825,8.51866 16.77251,11.64422 5.7102,2.75602 11.07856,7.21647 17.2328,8.69337 3.65976,0.63782 14.97779,7.82236 18.0378,9.78414"
       style="fill:none;stroke:#e71513;stroke-width:4.47121811;stroke-linecap:butt;stroke-linejoin:round;stroke-miterlimit:4;stroke-opacity:1;stroke-dasharray:8.942436, 17.884872;stroke-dashoffset:0"
       inkscape:connector-curvature="0" />
    <path
       id="path3704"
       d="m 661.93612,421.65358 c -1.14482,-0.11486 -2.28963,-0.22973 -3.43445,-0.3446 -1.99639,-0.20031 -4.00953,-0.0719 -6.01029,-0.1723 -1.78579,-0.0896 -3.02963,-0.75142 -4.63651,-1.37843 -0.99635,-0.38878 -3.59835,-0.46167 -4.12135,-0.5169 -1.28983,-0.13623 -3.11081,-1.27239 -4.12134,-1.72303 -1.63799,-0.73046 -2.72108,-0.76207 -4.29308,-1.55073 -1.17694,-0.59046 -2.0618,-1.09523 -2.91928,-1.55073 -1.1042,-0.58654 -1.81733,-0.79776 -2.74756,-1.20611 -1.50276,-0.65968 -2.89617,0.13435 -4.29307,0.3446 -1.35386,0.20377 -3.06172,1.34785 -4.46479,1.89533 -1.3792,0.53817 -2.91162,1.89148 -3.94962,2.41224 -2.52952,1.26903 -4.08096,1.35762 -7.21235,0.86152 -2.94984,-0.46735 -6.51801,-1.10479 -9.44475,-1.72303 -1.72483,-0.36435 -3.69966,-1.13404 -5.32341,-1.37842 -1.71357,-0.25791 -2.72906,-0.75688 -3.7779,-1.03382 -1.05342,-0.27815 -1.79711,-0.10018 -3.09101,-0.17231 -2.35354,-0.13119 -4.59708,0.006 -7.04063,-0.3446 -2.94533,-0.42218 -5.91926,-0.51691 -8.92958,-0.51691 -1.8921,0 -1.97284,0.69283 -3.43445,1.20613 -1.73536,0.60942 -3.23693,2.003 -5.3234,2.58453 -1.65354,0.46087 -3.4347,-0.0725 -5.15169,-0.3446 -2.49829,-0.39581 -4.40287,-0.31112 -7.04063,-0.68922 -2.41104,-0.34559 -4.48625,-0.71895 -6.52546,-1.20611 -1.82853,-0.43684 -3.7844,-1.09902 -5.49513,-1.55073 -1.93553,-0.51107 -3.87524,-0.7544 -6.01029,-0.86151 -2.18093,-0.10942 -0.66605,-0.44554 -2.06068,-1.37842 -1.00456,-0.67198 -3.71735,0.40976 -4.46478,0.5169 -1.24317,0.17819 -2.41137,0.70081 -3.60618,1.03382 -1.15917,0.32308 -2.45353,0.73854 -3.43445,1.03382 -1.25422,0.37753 -3.27097,0.1723 -4.80824,0.1723 -2.67917,0 -5.18569,-0.68553 -7.38408,-1.03381 -1.64194,-0.26014 -3.41186,-0.43053 -4.63651,-0.68922 -0.11958,-0.0252 -1.78177,-1.95032 -1.88895,-2.06764 -1.17029,-1.28098 -2.41863,-1.01874 -4.12134,-1.37841 -1.8151,-0.38343 -3.92487,-0.1723 -5.83858,-0.1723 -2.31907,0 -4.80721,0.40802 -6.8689,0.5169 -1.87582,0.0991 -3.78855,0 -5.66685,0 -1.63176,0 -3.29623,0.1723 -4.97996,0.1723 -1.69904,0 -3.42708,-0.7733 -4.97996,-1.20612 -1.96685,-0.54819 -3.20612,-0.97644 -5.49513,-1.20611 -1.7138,-0.17197 -3.60966,-0.88983 -5.15168,-1.37843 -2.0214,-0.6405 -3.78247,-1.09279 -5.66685,-1.72303 -2.56357,-0.85741 -4.37356,-1.74322 -7.04063,-2.41224 -2.08519,-0.52306 -3.79651,-1.27081 -5.83857,-2.06763 -1.48841,-0.58078 -2.51226,-1.21318 -4.12134,-1.72303 -1.44704,-0.45851 -2.67801,-1.06798 -4.12135,-1.55073 -1.31873,-0.44106 -3.12108,-0.1723 -4.63652,-0.1723 -1.69665,0 -4.11506,0.3446 -6.18201,0.3446 -1.72294,0 -3.25615,0.10849 -4.46479,0.17231 -1.96137,0.10358 -3.36504,0.8326 -5.3234,1.37842 -1.91564,0.53392 -3.90973,1.06227 -6.0103,1.37843 -2.30011,0.34618 -4.21851,0.73543 -6.52546,1.37842 -2.39995,0.6689 -3.68075,0.82902 -5.83857,1.55072 -2.12345,0.71021 -4.69251,0.77182 -6.86891,1.37843 -1.90193,0.5301 -3.56957,1.02714 -5.49512,1.37842 -1.97281,0.3599 -3.08477,1.21192 -4.97997,2.06764 -1.78078,0.80405 -1.89543,1.47061 -3.09101,2.58454 -1.35429,1.2618 -2.14145,2.67111 -3.26273,4.30757 -0.89485,1.30599 -1.99137,2.515 -3.09101,3.61836 -0.53516,0.53696 -2.28362,0.63648 -3.091,0.86151 -1.85255,0.51633 -2.70805,0.66938 -4.46479,1.55072 -1.61665,0.81106 -1.54166,1.55953 -2.57584,2.75686 -0.97313,1.12662 -1.42156,2.75703 -1.88895,3.96295 -0.61627,1.59006 -1.34364,1.79757 -2.06068,2.75685 -0.66072,0.88395 -1.60003,1.39138 -2.57584,2.23994 -1.36831,1.18987 -2.75185,1.98445 -4.12135,2.92914 -1.67176,1.15324 -2.68739,2.4369 -4.29306,3.61837 -1.73624,1.27754 -4.49456,1.91524 -6.52547,3.27375 -1.06282,0.71095 -2.42952,1.87137 -3.60617,2.75685 -1.26183,0.94957 -2.64752,1.67835 -3.7779,2.41223 -0.77375,0.50236 -2.08645,0.93045 -3.09101,1.37843 -1.222,0.54494 -2.08673,0.81425 -3.09101,1.20612 -0.97937,0.38216 -2.19743,1.10243 -3.091,1.55072 -1.15553,0.57972 -2.52357,0.87216 -4.12135,1.37843 -1.33684,0.42359 -3.01064,0.74053 -4.12134,1.03382 -1.73301,0.45759 -3.3555,0.98386 -4.80824,1.55072 -1.61916,0.6318 -3.07707,1.11453 -4.63651,1.72303 -1.33656,0.52153 -2.51951,1.57539 -3.7779,2.23993 -1.33531,0.70518 -2.88236,0.92914 -4.12134,1.55073 -0.9018,0.45242 -3.63741,0.28196 -4.80824,0.51691 -1.27812,0.25648 -3.2898,-0.85052 -4.63652,-1.20612 -1.67283,-0.44171 -3.32068,-1.24788 -4.97996,-1.89533 -2.04375,-0.79748 -4.11819,-0.57674 -6.01029,-0.86152 -1.51838,-0.22852 -3.0806,-0.1723 -4.63652,-0.1723 -1.60274,0 -3.20548,0 -4.80823,0 -2.27018,0 -3.21034,-0.44944 -5.15168,-1.03381 -2.42695,-0.73055 -5.53436,-0.44681 -8.07097,-0.68921 -2.73009,-0.2609 -5.25986,-0.72214 -7.89924,-0.86152 -1.84302,-0.0974 -3.15186,-0.40547 -4.63651,-0.68921 -1.42305,-0.27197 -1.65771,-1.18807 -2.40413,-1.72303 -1.68679,-1.20892 -2.21618,-1.74482 -4.12134,-2.75684 -2.08938,-1.10988 -4.22651,-2.0627 -6.18201,-3.10146 -1.84241,-0.97868 -4.8624,-1.19321 -6.86892,-1.72303 -2.21752,-0.58553 -5.20269,0.13616 -7.38407,0.34461 -1.73338,0.16564 -3.60191,0.73388 -5.49513,1.03382 -1.20818,0.19141 -2.08655,1.0468 -2.74755,1.37843 -1.28728,0.6458 -2.85993,0.98819 -4.12135,1.55071 -1.47262,0.65672 -2.65466,1.32303 -4.12134,1.89534 -1.4214,0.55463 -3.18561,1.35897 -4.63652,1.89533 -1.74855,0.64638 -4.21376,0.92556 -5.83857,1.37842 -1.26313,0.35205 -2.7909,0.4907 -4.12134,0.86151 -1.01692,0.28344 -2.36603,0.87394 -3.43447,1.37843 -1.31402,0.62046 -2.76306,0.65524 -4.12134,1.03381 -2.26655,0.63173 -5.25164,1.27427 -7.04062,1.72303 -1.18588,0.29748 -1.86559,-1.28691 -2.74757,-1.89533 -1.27828,-0.88178 -1.81558,-1.84932 -3.26274,-2.75684 -1.32677,-0.83204 -2.08845,0.36979 -2.91928,0.5169 -1.34273,0.23776 -1.64131,2.26552 -2.23239,3.27376 -0.85727,1.46229 -1.79793,3.01506 -2.40412,4.30757 -0.52883,1.12757 -1.0528,1.05636 -1.88895,1.89533 -1.0278,1.03128 -3.56897,1.30855 -5.3234,1.89533 -1.26584,0.42337 -2.89935,1.4805 -3.7779,1.89534 -1.00881,0.47633 -2.34236,0.914 -3.09101,1.20611 -1.31475,0.51302 -2.51988,0.95455 -3.60618,1.37843 -0.75626,0.29509 -1.7023,1.83944 -2.2324,2.41223 -0.81252,0.87799 -1.43283,1.54828 -2.23239,2.41225 -1.00487,1.08583 -2.35049,1.37664 -4.12135,2.06764 -2.02257,0.78921 -3.47785,1.4692 -5.49512,1.89533 -1.46061,0.30853 -2.76035,0.57861 -4.12135,1.03381 -1.41142,0.47206 -1.92933,0.75283 -3.09101,1.20612 -1.25398,0.48931 -2.09469,0.93412 -3.091,1.37842 -1.15462,0.5149 -2.94161,0.34461 -4.46479,0.34461 -1.30989,0 -2.94152,0.16397 -3.091014,0.17231 -1.262583,0.0703 1.952584,0.81631 2.060674,0.86151"
       style="fill:none;stroke:#3c53dc;stroke-width:2.48400998;stroke-linecap:butt;stroke-linejoin:round;stroke-miterlimit:4;stroke-opacity:1;stroke-dasharray:none;stroke-dashoffset:0"
       inkscape:connector-curvature="0" />
    <path
       id="path3706"
       d="m 379.96744,525.55221 c -1.06199,0.0592 0.16671,-5.51997 0.17173,-5.686 0.0261,-0.86656 1.54579,-2.25602 1.88895,-2.75685 0.74117,-1.0817 1.31301,-2.42307 2.06067,-3.44605 0.77939,-1.0664 1.70663,-2.18358 2.57584,-3.27376 0.93347,-1.17078 1.34421,-3.01242 1.88895,-4.65217 0.63335,-1.90645 1.08637,-3.3691 1.71723,-4.99679 0.57749,-1.49 0.97755,-2.68074 1.5455,-3.96297 0.56808,-1.28249 1.63786,-2.05301 2.40413,-3.10144 0.89894,-1.22998 1.98793,-1.99466 3.26272,-3.27376 2.02341,-2.03024 4.25919,-2.28769 6.52547,-4.13527 1.91008,-1.55718 4.44848,-2.80519 6.52546,-3.96296 1.36401,-0.76035 2.61042,-1.30963 4.12134,-2.06764 1.13078,-0.5673 2.8124,-0.70779 3.94963,-1.03381 1.99368,-0.57155 3.176,-0.98371 5.3234,-1.55073 1.467,-0.38736 2.67295,-1.01242 3.94963,-1.37842 1.47885,-0.42396 2.79276,-1.67165 4.12134,-2.41224 1.809,-1.0084 2.48858,-2.07781 3.94962,-3.44606 1.79809,-1.68388 5.25451,-2.59535 7.55579,-3.44605 2.58051,-0.95393 4.94077,-1.47591 7.72753,-1.89533 1.75456,-0.26408 3.38054,-0.25034 5.15168,-0.51692 1.22501,-0.18437 2.33335,0.1115 3.60617,0.1723 1.69537,0.081 2.84734,0.8143 4.29308,1.37843 2.08784,0.81468 3.47393,1.55359 5.3234,2.58454 0.9686,0.53993 2.35689,0.99572 3.26273,1.37842 1.52192,0.64298 3.51312,0.77347 5.15168,1.20613 1.80837,0.47749 3.11963,0.73547 4.80823,1.20611 1.93047,0.53806 3.70918,0.19644 5.66686,0 1.9753,-0.19819 3.71843,-0.50302 5.66685,-0.68921 2.08628,-0.19936 4.32304,-0.0753 6.35374,-0.1723 1.77265,-0.0847 3.53791,-0.77956 5.3234,-1.20612 2.01858,-0.48223 4.08555,-1.22561 6.35374,-1.55073 1.81016,-0.25946 3.11644,0.20596 4.63651,0.34461 0.94208,0.0859 2.4062,1.39777 3.26273,1.89534 1.7816,1.03493 3.01606,2.09267 4.46479,3.27374 0.76613,0.62458 1.23862,2.20942 1.54551,2.75686 0.54017,0.96355 1.30552,1.30992 2.06067,2.06763 1.0941,1.0978 4.83429,0.79221 6.35374,0.86151 2.01812,0.092 4.52241,-0.7467 6.52546,-1.03381 2.09491,-0.30029 4.1535,-1.13127 5.83858,-1.72303 2.08424,-0.73196 5.17224,-0.54448 7.38407,-0.86152 1.90883,-0.27361 3.67152,-0.7177 5.66685,-1.03381 2.23142,-0.35353 4.09933,0.33907 6.18202,0.86151 1.34581,0.33759 2.74971,1.53254 3.94962,2.06763 0.78367,0.34947 -0.12203,3.31696 -0.17173,3.79066 -0.14355,1.36844 -0.7184,3.31574 -0.85861,4.65218 -0.0478,0.4552 0.2535,2.03482 0.34345,2.75685 0.0571,0.45868 -1.3184,2.82757 -1.5455,3.44605 -0.4284,1.16671 -0.85472,1.96024 -1.20206,2.75685 -0.13664,0.31335 -1.63784,2.09155 -1.88896,2.41224 -0.56432,0.72066 -1.71065,1.48758 -2.57583,2.23993 -1.00945,0.87781 -1.82392,1.48434 -2.91929,2.23994 -1.5477,1.06764 -4.43703,0.43676 -6.18202,0.3446 -2.10303,-0.11105 -4.56516,-1.16007 -6.69719,-1.72302 -2.07502,-0.54791 -4.86722,0 -7.04062,0 -2.97004,0 -4.98489,1.7255 -7.04063,2.75685 -2.04631,1.0266 -3.27065,1.81191 -4.63652,3.27375 -0.5938,0.63553 -1.01708,2.85782 -1.37378,3.61836 -0.55426,1.18178 -1.91311,1.85517 -2.74757,2.75685 -0.54384,0.58764 -3.73966,0.54713 -4.63651,0.68921 -1.55538,0.24641 -3.15774,0.66287 -4.63651,1.03382 -1.28386,0.32204 -2.89662,0.61588 -3.7779,0.86151 -2.05727,0.57339 -3.66931,0.76776 -5.49512,1.37842 -0.75779,0.25345 -2.71525,1.82939 -3.94963,2.41224 -1.10729,0.52284 -1.50624,1.29543 -2.40411,2.06764 -0.97573,0.83916 -1.40612,1.97383 -2.06068,2.92914 -0.82073,1.19783 -0.0136,0.008 0.85861,-0.51691"
       style="fill:#f7d277;fill-opacity:0.62732915;stroke:#2b2b2b;stroke-width:2.48400998;stroke-linecap:butt;stroke-linejoin:round;stroke-miterlimit:4;stroke-opacity:1;stroke-dasharray:none;stroke-dashoffset:0"
       inkscape:connector-curvature="0" />
    <path
       id="path3708"
       d="m 511.67876,291.90954 c -1.35889,1.98324 4.82153,-0.25252 7.21235,0 1.04642,0.11052 1.85088,0.74285 2.57585,1.03382 1.13922,0.45723 2.63156,-0.25147 3.60617,-0.34461 1.66583,-0.15919 2.89398,-0.95964 4.29307,-1.55072 1.74233,-0.73609 4.8043,-0.87882 6.35374,-1.20613 1.58383,-0.33456 3.12085,-0.59103 4.97995,-0.68921 0.72033,-0.038 2.45786,-0.90858 3.26274,-1.20611 1.53103,-0.56597 4.09948,-0.73901 5.49513,-1.03382 1.19459,-0.25235 3.90306,1.71443 4.80823,2.06763 0.71277,0.27813 1.66581,2.81216 2.06067,3.44606 0.62621,1.00532 1.49483,1.846 2.2324,2.75684 0.68308,0.84356 1.5963,1.6017 2.40411,2.41224 0.0904,0.0907 0.22897,0.11487 0.34345,0.1723 1.17615,0.59008 2.09171,1.27329 3.26273,1.89534 0.94417,0.50154 1.94765,1.56968 2.91929,2.23993 1.7898,1.23465 4.55267,1.72385 6.69719,2.58455 1.94368,0.7801 3.73797,1.88197 5.83856,2.58454 1.87509,0.62714 2.96067,1.1519 4.63652,2.23994 1.33291,0.86538 2.33131,1.41223 3.60617,2.23993 2.29893,1.49256 6.57857,1.79255 9.10131,2.75685 3.21915,1.23049 4.56069,2.05033 6.69719,4.47988 1.12967,1.28462 3.07753,1.48368 4.63651,1.89533 2.3523,0.62111 4.60549,1.35652 7.04063,1.72303 2.07991,0.31303 3.06471,0.96917 4.80824,1.89533 1.34684,0.71544 2.44323,1.61658 3.43445,2.41224 1.8816,1.51037 2.44028,2.70474 3.43445,4.82447 1.14552,2.44244 -0.63355,3.28409 -1.71723,4.82449 -1.12272,1.59589 -2.28653,3.01605 -3.09101,4.30757 -1.03616,1.66346 -2.10029,1.77515 -3.43445,2.75684 -1.76696,1.30015 -4.82786,1.10373 -6.8689,1.20612 -1.77906,0.0892 -3.11507,0.89635 -4.63652,1.37842 -1.67852,0.53186 -2.71151,1.14643 -4.12135,1.89533 -1.43948,0.76466 -2.36263,1.52993 -3.77789,2.23994 -2.10124,1.05417 -4.78588,0.80194 -7.21236,1.03382 -1.56568,0.14962 -3.46498,-0.93305 -5.15168,-1.37843 -1.92506,-0.5083 -2.0189,-1.35047 -3.091,-2.06763 -1.55388,-1.03942 -2.30144,-0.36521 -4.12135,0 -1.93311,0.38794 -3.4219,1.68146 -5.15168,2.41224 -2.36974,1.00116 -2.53084,-0.65843 -3.7779,-1.03381 -1.26949,-0.38213 -1.67336,-3.13595 -2.06068,-4.13527 -0.43596,-1.12485 -1.97446,-2.74067 -2.57583,-3.61836 -0.67177,-0.98042 -1.8569,-0.93158 -2.74757,-1.37843 -1.16557,-0.58474 -3.59041,0 -4.80824,0 -1.74948,0 -3.7826,1.51269 -5.15167,2.23995 -1.59363,0.84653 -3.51661,1.55372 -4.97997,2.06763 -1.82856,0.64215 -3.54711,1.34879 -5.3234,2.23994 -1.90619,0.95631 -3.95227,1.47914 -6.01029,2.23993 -2.28911,0.8462 -4.99694,0.90775 -7.38408,1.03381 -2.13199,0.1126 -2.63034,-0.69075 -4.29306,-2.23993 -1.32587,-1.23532 -2.95396,-2.44702 -4.29308,-3.79067 -1.40923,-1.41399 -3.45204,-2.31424 -5.15168,-3.61836 -1.60661,-1.23274 -3.16887,-2.62648 -4.80823,-3.96295 -1.84044,-1.50042 -3.2771,-4.47684 -4.12134,-6.54752 -1.08897,-2.6709 -2.52474,-4.36296 -4.12135,-6.5475 -1.11044,-1.51935 -2.42492,-3.20379 -3.43446,-4.82448 -1.0482,-1.68279 -1.93586,-2.47501 -2.91928,-3.79066 -0.97245,-1.301 -1.29518,-3.53691 -2.06067,-5.16909 -0.72514,-1.54613 -0.85918,-3.79351 -1.20206,-5.5137 -0.3896,-1.95461 1.04578,-1.57395 1.71722,-2.58454 0.52291,-0.787 2.16653,-1.71088 2.91929,-2.41223 0.73166,-0.6817 1.51019,-1.28217 2.23239,-1.89534 0.65551,-0.55653 1.53521,-1.02692 2.06068,-1.37842 0.88519,-0.59212 2.45476,-0.91583 3.43445,-1.37842 5.07659,-2.39705 1.88469,-0.71461 5.49513,-2.23994 z"
       style="fill:#f7d277;fill-opacity:0.62732915;stroke:#2b2b2b;stroke-width:2.48400998;stroke-linecap:butt;stroke-linejoin:round;stroke-miterlimit:4;stroke-opacity:1;stroke-dasharray:none;stroke-dashoffset:0"
       inkscape:connector-curvature="0" />
    <path
       id="path3710"
       d="m 422.7264,295.18329 c 1.98656,-0.93801 6.55446,1.50138 8.58614,2.06764 1.32542,0.36941 2.34559,1.17676 3.43445,1.72303 1.27184,0.63806 2.67617,1.12083 3.7779,1.55073 1.35851,0.53009 2.98623,0.63897 4.46479,0.86151 1.85438,0.2791 3.78381,0.24516 5.66685,0.3446 1.56331,0.0826 3.16302,0.1723 4.80823,0.1723 1.77368,0 3.66276,-0.089 5.32341,-0.1723 1.4414,-0.0723 3.43795,-0.37218 4.80823,-0.51691 2.01319,-0.21263 3.99386,-0.30393 6.0103,-0.5169 1.13771,-0.12017 2.41316,-0.50021 3.60618,-0.68921 1.00446,-0.15914 2.09038,-0.74028 2.91928,-1.03382 0.61024,-0.21611 2.04918,-2.72547 2.57584,-3.44606 0.70512,-0.96478 1.36252,-1.6157 1.88895,-2.23994 0.70065,-0.83084 1.29803,-1.41095 2.06067,-2.23993 1.04154,-1.13214 2.02302,-1.76179 3.09101,-2.75685 1.22346,-1.13991 1.6199,-2.05228 2.40412,-3.10145 1.06878,-1.42985 1.85936,-2.2459 3.09101,-3.79067 0.85669,-1.07448 0.17172,-3.24419 0.17172,-4.13526 0,-1.34786 -0.37375,-2.59672 -0.68689,-3.79067 -0.40869,-1.55826 -1.7508,-2.23896 -2.57584,-3.27375 -0.61705,-0.77392 -3.67949,-1.14518 -5.15168,-1.37842 -1.51989,-0.24079 -3.56987,-0.37513 -4.46479,-0.51691 -0.96413,-0.15275 -2.36204,-1.26401 -2.57584,-1.37842 -1.49436,-0.79968 -2.17892,-0.72609 -4.12135,-1.03381 -1.44227,-0.2285 -3.37123,0.60664 -4.97995,0.86151 -1.9895,0.31518 -3.52797,0.95022 -5.3234,1.55072 -1.83346,0.61321 -4.04302,-0.25452 -5.83858,-0.3446 -2.2562,-0.1132 -4.0731,-0.76461 -6.01029,-1.37843 -2.04153,-0.64687 -4.2486,-1.97194 -5.83858,-2.92915 -1.68658,-1.01537 -3.08085,-0.90738 -4.80824,-1.72302 -1.35185,-0.63833 -3.8329,-0.26984 -5.3234,-0.34461 -1.62402,-0.0815 -3.43768,0.25862 -5.15168,0.34461 -2.08175,0.10443 -3.78912,0.34685 -5.49512,0.68921 -0.95009,0.19065 -2.65853,1.92171 -3.09102,2.23993 -1.17159,0.86208 -2.53472,1.68555 -3.7779,2.23994 -0.97085,0.43294 -2.19349,0.31329 -4.12134,0.51691 -1.39577,0.14742 -3.06346,1.26849 -4.29306,1.72302 -1.8089,0.66869 -3.96675,0.80379 -5.49513,1.03383 -1.47543,0.22206 -3.02613,1.04046 -4.63651,1.55072 -1.53808,0.48735 -1.32961,1.43673 -2.2324,2.41224 -0.41179,0.44496 -0.7509,1.88358 -1.03034,2.58454 -0.41309,1.03623 0.12272,1.8469 0.17172,2.58454 0.10354,1.55816 1.15649,1.47687 1.88896,2.41225 1.09681,1.40066 3.74641,1.7487 5.15167,2.41224 1.72268,0.8134 3.87131,1.78382 5.66685,2.58454 1.85154,0.82568 3.45374,2.58806 5.15169,3.79066 1.08333,0.76729 1.84517,1.27285 2.74757,1.89533 0.94082,0.649 2.04194,0.96417 2.91927,1.37843 1.44406,0.68185 3.11417,0.72375 4.63652,1.20611 z"
       style="fill:#f7d277;fill-opacity:0.62732915;stroke:#2b2b2b;stroke-width:2.48400998;stroke-linecap:butt;stroke-linejoin:round;stroke-miterlimit:4;stroke-opacity:1;stroke-dasharray:none;stroke-dashoffset:0"
       inkscape:connector-curvature="0" />
    <path
       id="path3712"
       d="m 410.53409,362.38141 c 0.96823,0.45717 4.57061,5.54611 6.01029,6.71981 1.52324,1.24181 3.13772,1.69339 4.97997,2.41224 2.02807,0.79136 3.4967,2.13679 5.3234,3.10145 1.49133,0.78756 2.9657,0.76912 4.63651,1.03381 1.61491,0.25585 3.95591,1.93885 5.3234,2.58454 1.75679,0.82952 2.73682,1.05026 4.80823,1.37843 2.65287,0.42029 4.56408,-0.0107 7.21237,-0.51691 2.54972,-0.4873 3.8917,-1.07811 5.66684,-2.06763 1.54209,-0.85962 2.98651,-1.97159 4.46479,-2.75685 0.98438,-0.5229 2.19403,-2.08112 2.91928,-2.75684 0.84196,-0.78446 3.03719,-1.75525 3.94963,-2.23994 1.98209,-1.05289 0.35285,-3.78892 0.17172,-4.65217 -0.34355,-1.63739 -0.77449,-3.36652 -1.20206,-4.99679 -0.43983,-1.677 -2.51433,-2.38607 -3.43445,-2.92915 -1.20226,-0.7096 -4.60913,-0.37632 -6.0103,-0.51691 -1.46797,-0.14729 -3.35993,-2.01779 -4.46479,-2.75684 -1.73072,-1.15772 -2.64188,-1.73551 -3.94961,-2.58454 -1.90425,-1.23632 -3.78531,-2.35536 -5.83858,-3.44606 -1.69662,-0.90125 -3.42395,-1.56597 -4.80824,-2.58454 -1.04032,-0.76548 -0.87134,-2.18571 -1.37378,-3.44606 -0.49966,-1.25338 -0.92972,-2.279 -1.54551,-3.44606 -0.51438,-0.9749 -3.57389,-0.63023 -4.80823,-0.68921 -2.69068,-0.12856 -4.56944,0.36561 -7.04062,0.86151 -1.77241,0.35568 -3.12272,0.33056 -4.97997,0.51692 -1.20765,0.12117 -1.91672,-0.48081 -2.74756,-0.68922 -1.16534,-0.29231 -2.86362,-1.81865 -3.7779,-2.41224 -1.90993,-1.24001 -1.85962,-2.10221 -3.26273,-3.61836 -0.72308,-0.78134 -0.0335,-4.01346 0,-4.65218 0.0958,-1.8262 0.67203,-3.48684 1.03034,-4.99677 0.44171,-1.86149 0.32648,-3.44821 0.51516,-5.3414 0.20705,-2.07749 -1.97791,-3.46265 -2.91929,-4.47987 -0.70328,-0.75994 -3.62013,-1.57249 -4.29306,-2.06763 -1.36196,-1.00215 -2.4564,-2.2924 -3.60618,-3.44606 -0.95227,-0.95549 -1.81883,-1.89153 -2.74756,-2.75684 -1.13561,-1.05806 -2.10753,-1.10693 -3.43445,-1.55073 -1.27174,-0.42534 -2.93432,-0.10055 -4.29308,-0.1723 -1.09832,-0.058 -2.65291,-0.3981 -3.77789,-0.51692 -1.94777,-0.20571 -4.04691,0 -6.0103,0 -2.43319,0 -2.37566,1.19184 -3.7779,1.89533 -1.17481,0.58939 -1.39941,1.9892 -2.06067,2.92916 -0.54978,0.78148 -1.30094,1.54267 -1.88895,2.23993 -0.82541,0.97878 -1.24035,2.15137 -2.06067,3.27376 -0.70719,0.9676 -1.34073,2.35911 -1.71723,3.61835 -0.45559,1.52378 -0.2602,3.06529 -0.34345,4.65219 -0.0985,1.87721 0.33086,3.47223 0.6869,5.16908 0.27015,1.28756 1.68603,2.64866 2.23239,3.44606 0.80669,1.17732 2.19015,2.12067 3.26273,3.27375 1.00842,1.0841 1.9438,2.47096 2.74756,3.79067 0.49345,0.81016 1.62002,2.03186 2.06068,2.58454 1.16972,1.46708 2.63292,1.59214 4.29306,2.23993 1.10142,0.42978 2.2681,0.95821 3.26274,1.37843 0.96296,0.40682 2.3944,0.36037 3.43445,0.51691 1.24365,0.18717 2.5248,0.10613 3.7779,0.1723 0.98973,0.0523 2.28715,0.60391 3.26273,0.86151 0.61436,0.16222 1.66038,0.64077 2.2324,0.86152 1.04442,0.40305 1.61443,1.27276 2.40411,1.89533 1.12774,0.88907 0.82409,1.46999 1.54552,2.75684 0.8327,1.48536 1.49631,2.39506 2.40411,3.44606 1.27789,1.47948 2.35269,2.26389 3.60618,3.61836 0.7224,0.7806 1.38499,1.27387 2.06067,1.89533 1.07707,0.99065 1.20919,2.66705 1.88895,3.96297 z"
       style="fill:#f7d277;fill-opacity:0.62732915;stroke:#2b2b2b;stroke-width:2.48400998;stroke-linecap:butt;stroke-linejoin:round;stroke-miterlimit:4;stroke-opacity:1;stroke-dasharray:none;stroke-dashoffset:0"
       inkscape:connector-curvature="0" />
    <path
       id="path3714"
       d="m 328.79408,358.59075 c 2.07842,1.91165 4.75667,1.76564 7.21236,1.89533 1.53779,0.0812 2.82677,0.3439 4.46479,0.5169 2.00803,0.21209 3.48418,-0.33697 5.15168,-0.6892 1.41125,-0.29812 2.69256,-3.85262 3.26272,-4.99679 0.8263,-1.65818 0.51518,-4.64255 0.51518,-6.54751 0,-1.20501 0.12101,-2.99617 0.17172,-3.96296 0.0373,-0.71059 -1.94696,-2.03768 -2.57585,-2.58454 -1.25875,-1.09462 -1.77924,-1.918 -2.91928,-2.75685 -1.24254,-0.91427 -2.34547,-1.73732 -3.26273,-2.41224 -1.01697,-0.74829 -2.47617,-0.71331 -3.94962,-1.20613 -1.79485,-0.6003 -3.39394,0.0885 -4.97996,0.17231 -1.28662,0.068 -2.38365,1.53703 -3.43445,2.23994 -1.37467,0.91954 -1.79135,1.72359 -2.74757,2.75684 -0.92264,0.99697 -1.06916,2.37067 -1.5455,3.44606 -0.43083,0.97266 -0.92978,1.98246 -1.37378,2.92915 -0.55408,1.18139 -0.43928,2.09359 -0.68689,3.27375 -0.20798,0.99126 0.12252,2.2128 0.17172,3.10145 0.0382,0.68971 1.35494,1.76738 1.71723,2.23994 1.10708,1.44408 3.27125,1.61054 4.80823,2.58455 z"
       style="fill:#f7d277;fill-opacity:0.62732915;stroke:#2b2b2b;stroke-width:2.48400998;stroke-linecap:butt;stroke-linejoin:round;stroke-miterlimit:4;stroke-opacity:1;stroke-dasharray:none;stroke-dashoffset:0"
       inkscape:connector-curvature="0" />
    <path
       id="path3716"
       d="m 263.19601,383.74696 c 2.40027,3.13089 6.97159,-3.73501 10.64681,-5.16908 2.72906,-1.0649 5.48441,-1.87211 8.07096,-3.10146 1.46991,-0.69862 3.45871,-3.37019 4.46479,-4.30757 1.79745,-1.67469 3.73569,-2.52312 5.3234,-3.61836 1.46809,-1.01272 2.87828,-1.17932 4.63652,-1.55073 1.37221,-0.28986 2.27792,-0.54418 3.60617,-0.86151 1.32602,-0.31678 1.9408,-1.82281 2.74757,-2.75684 0.81093,-0.93885 1.51117,-1.86619 2.2324,-2.75685 0.96284,-1.18903 1.08301,-3.01036 1.5455,-4.47987 0.62589,-1.9887 1.0265,-4.20125 1.37379,-6.0306 0.35901,-1.89124 0.17171,-3.92499 0.17171,-5.8583 0,-1.93176 0.15821,-3.74797 0.34345,-5.51369 0.1912,-1.82257 0.0595,-3.51831 0,-4.65218 -0.11176,-2.13064 -1.55948,-3.12669 -2.40411,-4.65217 -0.54896,-0.99146 -2.79599,-2.33325 -3.94963,-3.27376 -1.41928,-1.15706 -2.91306,-1.63258 -4.29306,-2.58454 -1.69023,-1.16596 -5.16004,-1.27545 -7.38408,-1.89533 -2.15118,-0.59957 -4.24345,-0.86266 -6.52547,-1.20613 -2.04612,-0.30795 -4.32682,0.0707 -6.35374,0.17231 -1.96152,0.0984 -3.9704,0 -5.83857,0 -1.74303,0 -3.09725,0.69129 -4.63652,1.20612 -1.64161,0.54905 -3.14785,1.23147 -4.6365,1.89533 -1.69048,0.75386 -3.19066,2.27637 -4.63651,3.27375 -1.29628,0.8942 -2.34389,2.62548 -3.26274,3.61836 -1.60367,1.73287 -2.36927,3.03211 -4.12134,4.47987 -1.65741,1.36955 -3.84223,2.13788 -5.66685,3.10146 -1.82009,0.96117 -3.4398,2.2643 -4.97997,3.44606 -1.32514,1.01676 -2.52075,2.19849 -3.94961,3.27375 -1.12872,0.8494 -2.07124,2.05537 -3.26274,3.10145 -1.28947,1.1321 -2.59219,2.08936 -3.77789,2.92915 -1.60879,1.13945 -2.28467,3.77289 -3.26274,5.85829 -1.01086,2.15535 0.0563,4.37156 0.68689,6.37521 0.5545,1.76184 2.43014,3.63523 3.60618,4.99679 1.31139,1.51824 2.12689,1.65685 3.60617,2.58454 1.19812,0.75135 3.53012,0.71603 4.97997,0.86152 1.71124,0.17169 3.1178,-0.10231 4.80824,-0.34462 2.21997,-0.31821 2.8801,1.09595 4.46478,2.06765 1.69576,1.03978 2.72005,2.33595 4.29307,3.61835 0.90486,0.73768 1.95625,2.0428 2.74756,3.10145 0.57429,0.7683 1.7886,1.55536 2.57584,2.23994 0.74241,0.64559 1.66903,0.83733 2.40413,1.20612 1.13292,0.56838 2.41729,0.76663 3.60617,1.20612 z"
       style="fill:#f7d277;fill-opacity:0.62732915;stroke:#2b2b2b;stroke-width:2.48400998;stroke-linecap:butt;stroke-linejoin:round;stroke-miterlimit:4;stroke-opacity:1;stroke-dasharray:none;stroke-dashoffset:0"
       inkscape:connector-curvature="0" />
    <path
       id="path3718"
       d="m 322.78379,389.60525 c 0,-1.14868 0,-2.29737 0,-3.44606 0,-1.75609 -1.50015,-1.84981 -2.40412,-2.75684 -0.62783,-0.62995 -4.46164,-0.58006 -5.49513,-0.68921 -1.39556,-0.14739 -2.7569,-0.68921 -4.63651,-0.68921 -1.01818,0 -2.44332,0.75758 -3.43445,1.03382 -2.00121,0.55777 -3.57057,1.48532 -5.32341,2.58454 -1.30787,0.82018 -2.26514,3.64305 -2.91928,4.82448 -1.09568,1.97888 -1.59599,3.83617 -2.2324,5.85829 -0.3833,1.21789 -1.59441,2.51039 -2.06068,3.44606 -0.46072,0.92458 -1.49076,1.8404 -2.40411,2.75685 -0.50103,0.50272 -0.58148,4.8438 -0.68689,5.51369 -0.20782,1.32067 0.11285,2.66845 0.17173,3.79066 0.0511,0.97338 0.11319,2.0444 0.17171,3.10146 0.0437,0.78873 2.0298,3.15216 2.40412,3.79066 0.77671,1.32487 2.99901,1.84029 4.46479,2.41224 1.32278,0.51615 3.27925,0.48322 4.63652,0.86151 1.58734,0.44242 2.72442,0 4.29306,0 0.5763,0 3.19935,-3.52336 3.60618,-3.96297 0.99711,-1.07743 3.55481,-2.41665 4.46479,-3.10144 0.9041,-0.68037 1.73192,-1.97802 2.74756,-2.92916 1.32544,-1.24125 2.0934,-2.28918 3.09101,-3.79066 1.17612,-1.77013 1.11734,-3.98994 1.54551,-6.0306 0.38446,-1.83236 0.56049,-4.0928 0.85861,-5.51368 0.83659,-3.98725 2.12206,-2.69335 -0.85861,-7.06443 z"
       style="fill:#f7d277;fill-opacity:0.62732915;stroke:#2b2b2b;stroke-width:2.48400998;stroke-linecap:butt;stroke-linejoin:round;stroke-miterlimit:4;stroke-opacity:1;stroke-dasharray:none;stroke-dashoffset:0"
       inkscape:connector-curvature="0" />
    <path
       id="path3720"
       d="m 441.10073,7.2652365 c 0.60126,-2.8656159 -5.09998,2.8854445 -7.5558,4.4798735 -1.62083,1.052313 -3.11482,2.08257 -4.46479,2.929149 -1.79003,1.122547 -3.72921,1.928426 -5.3234,3.101452 -1.16874,0.859966 -3.00586,1.515707 -4.12134,2.239936 -0.84194,0.546616 -1.63313,1.890739 -2.2324,2.584543 -0.97457,1.128298 -2.08065,1.668804 -3.09102,2.41224 -1.13652,0.836271 -2.1476,1.260641 -3.43445,2.067634 -1.47089,0.922416 -3.57593,1.621702 -5.15168,2.41224 -1.63847,0.822002 -3.49869,1.290919 -4.63651,1.895331 -1.77069,0.94059 -4.2398,1.184741 -6.01029,1.895332 -1.71535,0.688454 -3.24412,1.540345 -4.80824,2.41224 -2.1885,1.21994 -4.22933,2.615257 -6.35374,3.618359 -2.20669,1.041945 -3.88915,2.632383 -6.18202,3.61836 -1.84205,0.792119 -3.05204,2.353051 -4.63651,3.446057 -1.48971,1.027638 -2.34953,2.618335 -3.43445,3.790663 -0.8615,0.930894 -2.6587,1.47311 -3.7779,2.067634 -2.33179,1.238648 -5.205,2.005915 -7.89925,2.756846 -1.3492,0.376042 -2.93537,1.50764 -4.12134,2.067633 -1.43267,0.676474 -3.74673,0.344606 -5.49513,0.344606 -2.66241,0 -5.10532,0.438634 -7.72753,0.689211 -2.02347,0.193363 -3.37122,0.456768 -5.49512,0.344606 -3.01657,-0.159303 -4.07786,-0.519378 -6.18202,-2.067634 -1.92156,-1.41391 -2.37501,-2.260391 -3.43445,-4.652177 -0.91445,-2.064472 -1.71021,-3.624873 -2.57584,-5.858297 -0.67773,-1.748608 -1.29261,-3.015618 -2.06067,-4.479874 -0.56673,-1.080407 -1.06211,-2.376734 -1.71723,-3.618359 -0.98519,-1.867205 -2.57296,-4.172196 -3.60618,-6.375206 -0.79223,-1.689172 -0.57371,-2.841757 -0.85861,-4.652177 -0.21098,-1.340718 -0.10823,-3.251088 -0.34345,-4.82448 -0.15629,-1.04549 0.60147,-1.931197 0.85861,-2.756845 0.17081,-0.54842 2.33394,-1.763279 2.74757,-2.067634 0.84568,-0.622259 1.26489,-1.961447 1.88895,-2.929148 0.62999,-0.976916 0.90367,-1.926779 1.37378,-2.929149 1.43942,-3.069088 0.1742,-0.0437 0.68689,-0.172303"
       style="fill:#f7d277;fill-opacity:0.62732915;stroke:#2b2b2b;stroke-width:2.48400998;stroke-linecap:butt;stroke-linejoin:round;stroke-miterlimit:4;stroke-opacity:1;stroke-dasharray:none;stroke-dashoffset:0"
       inkscape:connector-curvature="0" />
    <path
       sodipodi:nodetypes="cccccccccccccccc"
       id="path3726"
       d="m 9.90502,239.35716 c 17.365263,-4.85016 45.43172,-1.3227 62.644259,-7.0513 12.232373,-2.72546 24.891112,-0.83316 37.298351,-1.90843 13.4851,1.17537 26.86064,1.123 39.66795,-3.61837 15.24096,-6.96016 9.0595,-26.49936 15.17242,-39.27777 3.10579,-15.96335 25.01654,-4.60369 33.38505,-16.37472 9.64553,-8.25656 17.00645,-19.64743 29.3828,-24.20355 11.92735,-5.30227 22.12409,-13.44437 33.38125,-19.9569 9.17953,-9.74428 15.92834,-22.14753 18.2063,-35.316581 4.3431,-8.100758 8.72032,-28.510769 -4.90329,-29.340109 -10.36808,-3.269307 -14.61985,16.543848 -22.87931,3.626886 -9.41723,-5.099111 -21.42555,2.76634 -29.81977,-2.036519 1.53139,-11.088504 -3.15679,-23.373054 -12.56408,-28.63674 C 198.80077,30.557319 196.07103,16.616871 184.54701,20.015648 175.74993,19.639768 154.5827,6.275526 156.24201,8.787822 163.0504,9.0239973 12.872448,10.890345 10.248466,9.6774765"
       style="fill:#f7d277;fill-opacity:0.62732915;stroke:#2b2b2b;stroke-width:2.48400998;stroke-linecap:butt;stroke-linejoin:round;stroke-miterlimit:4;stroke-opacity:1;stroke-dasharray:none;stroke-dashoffset:0"
       inkscape:connector-curvature="0" />
    <path
       sodipodi:nodetypes="ccccccccccccccccccccccccc"
       id="path1919"
       d="m 506.91003,12.006948 c -22.89318,13.540917 -45.921,26.611383 -69.84582,37.317439 -30.51863,20.564772 -56.44851,54.089443 -54.41751,92.596973 -1.74658,31.77092 -1.11584,64.32605 -13.09264,94.48118 -6.41362,28.79406 -26.29299,59.23821 -11.97351,88.21734 2.68913,37.17544 -12.59439,55.10674 -25.84288,82.18389 -10.88404,28.3979 -10.60255,59.75504 -25.32264,86.8358 -4.34414,8.63916 -7.33236,23.78742 -8.3582,30.56805 M 384.1933,93.762841 c -18.74836,6.702889 -43.8277,-8.160881 -53.93018,14.910709 -34.56326,54.89676 -35.42451,29.24355 -52.40018,51.1553 -7.92133,26.56919 -44.63282,30.45241 -49.92281,59.53018 -11.58466,28.68315 -24.15644,57.19665 -39.81533,83.80168 -21.61004,22.22191 -44.48328,44.62678 -56.95909,74.02687 -14.87554,28.93763 -32.97809,55.96496 -46.941112,85.26993 -13.006916,20.24243 -21.07381,44.75711 -37.513109,62.06839 l -0.249926,-1.04927 M 332.38239,100.91594 C 296.29376,36.484885 294.99827,74.447041 275.54235,40.753324 269.4454,22.599279 220.30944,29.516209 193.01716,26.252866 163.31785,19.113336 133.61926,24.914506 104.20798,29.643468 77.339598,32.296757 21.84286,24.751926 14.039264,19.964543 M 200.7426,278.98683 C 172.09657,274.7411 145.89445,266.87499 117.97226,259.6889 97.193376,256.60996 75.424748,251.11967 54.606587,256.41516"
       style="fill:none;stroke:#e71513;stroke-width:3.97441602;stroke-linecap:butt;stroke-linejoin:round;stroke-miterlimit:4;stroke-opacity:1;stroke-dasharray:none;stroke-dashoffset:0"
       inkscape:connector-curvature="0" />
    <path
       id="path3729"
       d="m 72.75553,206.27503 c 1.144818,-0.57434 2.289637,-1.14869 3.434454,-1.72303 1.986211,-0.99647 3.859655,-1.93635 5.495127,-2.75685 2.052263,-1.0296 3.820594,-2.13636 5.666849,-3.61836 1.408593,-1.13068 2.627049,-3.49209 3.7779,-4.82448 0.616424,-0.71366 2.152967,-1.89021 2.747563,-2.41224 1.720634,-1.51064 4.234842,-2.41154 6.182017,-3.79066 2.67481,-1.89448 4.69783,-3.79717 7.38408,-5.8583 1.51463,-1.16216 3.90039,-2.04019 5.49512,-2.92915 1.97646,-1.10174 3.19985,-2.06338 4.80824,-3.27375 2.23771,-1.68396 4.28923,-2.4185 7.21236,-3.61836 2.58539,-1.06123 3.55675,-2.23956 5.15167,-3.96296 1.35987,-1.46942 2.33299,-3.24152 3.43446,-5.34139 2.06456,-3.93591 2.45971,-7.51643 5.15167,-11.19969 2.81787,-3.85553 5.8773,-6.01853 7.38408,-10.33817 0.90299,-2.58867 3.89635,-3.50548 5.83858,-4.47987 2.67457,-1.34181 6.24348,-2.00819 8.92958,-2.75685 3.18345,-0.88728 6.27208,-1.82471 9.61647,-2.75685 2.60556,-0.7262 5.18842,-1.33446 7.89924,-1.72303 1.57262,-0.22541 3.38286,0 4.97996,0 1.78588,0 3.57768,0.0927 5.32341,0.17231 2.25938,0.10304 3.96316,-2.85175 5.3234,-4.30758 1.65173,-1.76779 2.75246,-4.03803 3.60618,-5.85829 0.92927,-1.98137 1.08787,-4.89242 1.71722,-6.89211 0.69195,-2.19858 0.40683,-5.12618 0.51517,-7.40903 0.15553,-3.27714 0.23268,-6.561659 0.51517,-9.821257 0.24796,-2.861144 0.45575,-5.230156 1.20205,-7.925931 0.73273,-2.646704 1.42976,-4.449383 1.54552,-7.23672 0.10218,-2.460716 0.43781,-5.082152 0.68688,-7.581325 0.2691,-2.700067 0.68689,-5.1462 0.68689,-7.925931 0,-2.582873 -0.88908,-4.979426 -1.88895,-7.23672 -0.87499,-1.975369 -1.35221,-3.951895 -2.06066,-6.202902 -0.51448,-1.634679 -2.67831,-2.859659 -3.60619,-3.790663 -0.92423,-0.927356 -4.11822,-0.453264 -5.3234,-0.516908 -2.21517,-0.116982 -4.4511,-0.172303 -6.69718,-0.172303 -2.29622,0 -4.06426,1.533565 -6.0103,2.41224 -2.02562,0.91461 -4.53579,1.429203 -6.35374,2.067634 -2.18311,0.76667 -4.09178,1.969106 -6.01029,3.101452 -1.67539,0.98885 -3.23544,2.307255 -4.63652,3.273753 -1.97741,1.364064 -3.4259,3.573478 -5.3234,5.341388 -1.69228,1.57671 -2.68588,3.306385 -3.7779,5.169086 -1.35231,2.306703 -2.23556,3.629478 -2.91929,6.0306 -0.55277,1.941252 -1.33801,3.695906 -1.88895,5.685993 -0.52503,1.896493 -1.66166,3.311173 -2.74756,4.652178 -1.1803,1.457593 -3.84439,2.414595 -5.3234,3.273754 -1.94589,1.130369 -3.86264,2.110146 -5.83857,3.101451 -2.15322,1.080243 -3.88199,1.826911 -5.83858,2.756846 -3.10238,1.474512 -5.2792,2.918108 -8.07096,4.652176 -2.58915,1.608219 -4.89963,3.340999 -7.38408,5.169089 -2.52546,1.85825 -4.6557,3.60409 -6.8689,5.68599 -2.90306,2.7308 -5.11888,5.29381 -7.72753,8.09823 -1.87112,2.01155 -3.460296,4.63108 -5.151681,6.71982 -1.259453,1.55532 -2.145177,2.84163 -3.434454,4.13527 -1.368548,1.37317 -2.301765,3.09749 -3.7779,4.47987 -1.179006,1.10412 -2.893464,1.53921 -4.464789,2.23993 -2.474688,1.10359 -4.06564,2.46151 -6.353741,3.79067 -2.948661,1.71288 -5.160608,5.42006 -7.212353,8.27053 -1.576552,2.1903 -3.529804,4.10648 -4.808235,6.0306 -1.436645,2.16225 -3.037077,3.73655 -4.808237,5.5137 -0.939241,0.94241 -1.484316,1.40756 -2.747562,2.58454 -1.623076,1.51223 -2.438322,3.23899 -3.262733,4.99678 -0.866849,1.84828 -1.768018,3.24403 -2.575839,5.16908 -0.600419,1.43082 -1.089245,2.76187 -1.545505,4.13527 -0.514711,1.54936 -1.58637,2.84911 -2.232395,4.30757 -0.846352,1.91073 -1.078162,3.66862 -1.202059,6.0306 -0.122761,2.34036 0,4.72033 0,7.06442 0,1.63399 1.682269,3.53283 2.404118,4.65218 0.972712,1.50836 2.195368,1.6352 3.434454,2.41223 1.358005,0.85163 3.215949,1.01818 4.808236,1.55073 1.258287,0.42085 3.309473,2.26925 4.636513,3.10146 1.182239,0.74139 2.710914,1.22398 3.606177,1.72303 0.903655,0.50372 2.16608,1.84543 2.919286,2.41224 0.688236,0.51791 1.78311,0.71565 2.575839,1.03381 1.446767,0.58066 2.587119,-1.7507 3.7779,-2.75684 z"
       style="fill:#e9dec4;fill-opacity:0.62732915;stroke:#2b2b2b;stroke-width:2.48400998;stroke-linecap:butt;stroke-linejoin:round;stroke-miterlimit:4;stroke-opacity:1;stroke-dasharray:none;stroke-dashoffset:0"
       inkscape:connector-curvature="0" />
    <path
       id="path3731"
       d="m 282.60067,327.74853 c 0.86345,0.34655 5.21401,5.36894 6.52547,6.3752 1.21357,0.93117 2.26964,1.20151 3.60617,1.72303 1.20381,0.46974 2.60299,1.44352 3.7779,2.06764 1.24316,0.66036 1.70253,1.60151 2.74757,2.58455 0.74476,0.70057 0.68952,1.96025 1.03033,2.92914 0.38552,1.09601 0.11699,2.58247 0.17173,3.79066 0.0715,1.57992 -0.61888,2.7244 -1.03034,3.96297 -0.51006,1.53535 -3.30793,2.76648 -4.29307,3.44606 -1.88351,1.29928 -3.60928,1.70561 -5.49512,2.75684 -1.50587,0.83942 -2.55877,1.4754 -3.7779,2.23994 -1.07154,0.67198 -2.91948,1.14269 -4.46479,1.55073 -1.905,0.503 -3.50245,1.37086 -5.15169,2.06763 -1.65375,0.69867 -3.57066,1.45072 -5.15168,2.06763 -0.55035,0.21476 -1.93599,1.80151 -2.74756,2.41224 -1.20715,0.90842 -2.28719,0.70021 -3.94963,1.03382 -2.2833,0.45821 -4.18753,0.12788 -6.18201,-0.1723 -2.43779,-0.3669 -5.07856,-1.50942 -7.38408,-2.23993 -2.48427,-0.78717 -3.08494,-2.12736 -4.46479,-3.61837 -1.15741,-1.25065 -1.19169,-2.78839 -1.5455,-4.65218 -0.31059,-1.63609 0.27296,-2.94071 0.51516,-4.47987 0.29033,-1.8449 0.72628,-3.57776 1.20207,-5.16908 0.54165,-1.81161 2.46347,-2.90788 3.7779,-3.96297 1.60186,-1.28582 3.51185,-1.7285 5.15168,-2.75685 1.86476,-1.16941 3.85369,-2.4262 5.66685,-3.79066 1.58109,-1.18983 3.0189,-2.09501 4.46479,-3.27375 1.36359,-1.11166 2.69285,-1.83606 3.7779,-2.58455 1.39718,-0.96381 3.9047,-1.32761 5.3234,-1.72302 2.68376,-0.74801 5.02858,-1.14437 7.89924,-2.58455 z"
       style="fill:#e9dec4;fill-opacity:0.62732915;stroke:#2b2b2b;stroke-width:2.48400998;stroke-linecap:butt;stroke-linejoin:round;stroke-miterlimit:4;stroke-opacity:1;stroke-dasharray:none;stroke-dashoffset:0"
       inkscape:connector-curvature="0" />
    <path
       id="path3733"
       d="m 428.22152,281.39906 c 0.48537,-0.13528 4.88446,5.15619 5.66686,6.20291 0.10841,0.14503 0.34345,0.11486 0.51516,0.1723 1.30209,0.43549 2.12688,1.50568 4.29307,1.72303 2.59598,0.26048 4.35175,-0.45976 6.35374,-0.86151 1.95449,-0.39223 2.79962,-1.36873 4.63652,-1.89533 0.96325,-0.27615 2.00689,-1.34246 2.57584,-1.72303 0.80649,-0.53948 1.73598,1.47387 2.23239,1.89533 0.9915,0.8418 1.01918,2.27249 1.54551,3.44606 0.39977,0.89137 1.31686,1.08107 1.88894,1.55072 0.85781,0.70421 1.54629,0.41373 2.57585,0.68921 1.07326,0.28717 2.01938,0.31993 3.26273,0.51691 1.62066,0.25676 3.24766,0.42543 4.97996,0.51691 1.4032,0.0741 2.78432,-0.11641 4.12134,-0.17231 0.91807,-0.0383 2.99738,-2.61277 3.60617,-3.10144 1.32521,-1.06376 1.79778,-3.82041 2.40412,-5.34139 0.62712,-1.57308 1.13304,-2.5303 1.88895,-3.96297 0.58067,-1.10052 -0.27166,-2.45328 -0.34344,-3.10145 -0.004,-0.0396 -2.46233,-1.38974 -2.74756,-1.55072 -0.53794,-0.30362 -1.84814,-1.32456 -2.40413,-1.72303 -1.06105,-0.76046 -2.06226,-1.08534 -3.26272,-1.72303 -1.3123,-0.69709 -2.81824,-0.55158 -4.12134,-0.68921 -1.78207,-0.18822 -2.88253,-0.10558 -4.63652,0.1723 -1.36596,0.21641 -2.60455,0.53448 -3.7779,0.86151 -1.18368,0.32991 -1.44462,1.0035 -2.2324,1.55073 -1.01243,0.70328 -1.4482,1.03792 -2.40411,1.72303 -0.93582,0.67069 -3.11453,-0.39122 -3.94963,-0.51691 -1.31048,-0.19723 -1.20195,-1.68843 -1.71723,-2.41225 -0.76498,-1.07459 -1.58683,-1.47846 -2.40411,-2.23993 -1.32834,-1.23762 -2.61289,-1.1791 -4.46479,-1.55072 -1.66246,-0.33362 -3.45978,0.089 -5.3234,0 -1.76638,-0.0844 -3.3628,0.63094 -4.80824,1.03381 -1.57032,0.43767 -2.82329,1.12472 -3.94963,1.72303 -0.93468,0.49651 -2.11819,1.98169 -2.91928,2.58454 -0.43373,0.3264 -0.25744,1.93732 -0.34344,2.58454 -0.22106,1.66349 2.88372,3.23808 3.26272,3.61836 z"
       style="fill:#e9dec4;fill-opacity:0.62732915;stroke:#2b2b2b;stroke-width:2.48400998;stroke-linecap:butt;stroke-linejoin:round;stroke-miterlimit:4;stroke-opacity:1;stroke-dasharray:none;stroke-dashoffset:0"
       inkscape:connector-curvature="0" />
    <path
       id="path3735"
       d="m 532.45721,323.44096 c -0.33597,2.52827 5.01942,-0.93823 7.55579,-1.20611 1.77806,-0.18781 2.70258,-0.86282 3.7779,-1.20613 1.49274,-0.47656 2.64304,-3.25263 3.43446,-4.47987 1.35558,-2.10207 1.12326,-2.99109 0.85861,-5.51369 -0.18331,-1.74741 -2.55884,-3.30026 -3.77789,-4.30757 -1.82625,-1.50905 -2.83703,-2.02381 -4.97996,-2.92916 -1.61301,-0.68145 -4.60556,-0.1723 -6.35374,-0.1723 -2.11792,0 -4.23583,0 -6.35374,0 -2.23016,0 -2.90269,0.77754 -4.63652,1.55073 -1.6918,0.75445 -1.95418,1.44388 -3.09101,2.58454 -1.25733,1.26158 -1.13567,4.01362 -1.37378,5.68599 -0.22728,1.5964 -0.51594,3.19494 -0.68689,4.82449 -0.17845,1.70099 0.68788,2.73491 1.20206,4.13527 0.41762,1.13736 1.42265,0.98824 2.2324,1.55072 0.68219,0.47388 2.12574,0.50186 2.91928,0.68921 1.54088,0.36379 2.95779,0.54318 4.46479,0.86151 2.86449,0.6051 -0.98753,3.13558 4.80824,-2.06763 z"
       style="fill:#e9dec4;fill-opacity:0.62732915;stroke:#2b2b2b;stroke-width:2.48400998;stroke-linecap:butt;stroke-linejoin:round;stroke-miterlimit:4;stroke-opacity:1;stroke-dasharray:none;stroke-dashoffset:0"
       inkscape:connector-curvature="0" />
    <path
       id="path3737"
       d="m 405.03896,343.08349 c 2.3024,0.48635 2.81461,3.91885 4.80823,5.16909 0.95884,0.60129 2.06427,1.17761 3.09102,1.72302 0.60869,0.32334 2.43396,0.54271 3.09101,0.68921 1.15628,0.25782 2.89011,-0.12542 3.77789,-0.1723 1.24504,-0.0658 2.31844,-0.69788 3.43446,-1.03382 1.4937,-0.44962 0.62062,-2.17952 0.68689,-2.41224 0.16205,-0.56909 -2.21465,-1.36953 -2.91929,-1.72303 -0.82706,-0.41493 -1.33557,-1.21826 -1.88895,-1.72303 -0.64955,-0.59249 -2.23037,-1.44805 -2.91929,-1.89533 -0.61918,-0.402 -1.29873,-1.54004 -1.88895,-2.23993 -0.8106,-0.96122 -0.78296,-1.79567 -1.20205,-2.75685 -0.52258,-1.19848 -1.59161,-1.59699 -2.40412,-2.41223 -1.48934,-1.49437 -1.38451,-0.84896 -3.09101,-1.89534 -0.86845,-0.53252 -3.16685,1.06692 -3.60617,1.20612 -1.28915,0.40847 -1.34072,1.15307 -2.40413,2.06763 -0.84605,0.72765 -0.56588,1.93054 -0.85861,2.92916 -0.34474,1.17607 4.06018,4.29292 4.29307,4.47987 z"
       style="fill:#e9dec4;fill-opacity:0.62732915;stroke:#2b2b2b;stroke-width:2.48400998;stroke-linecap:butt;stroke-linejoin:round;stroke-miterlimit:4;stroke-opacity:1;stroke-dasharray:none;stroke-dashoffset:0"
       inkscape:connector-curvature="0" />
    <path
       id="path3739"
       d="m 338.754,11.572808 c -0.80028,2.730122 -4.95909,2.885094 -7.04064,4.82448 -0.79999,0.745363 -1.47261,2.093249 -2.06066,2.929148 -0.64081,0.91087 -0.30361,1.624697 -0.51517,2.756845 -0.24675,1.32043 -0.80927,2.656431 -1.03034,4.135269 -0.28055,1.876653 -0.24756,3.761809 -0.34344,5.685994 -0.0939,1.884623 0.567,3.667753 1.03033,5.341388 0.21991,0.794362 1.5613,2.088759 2.06067,2.756845 0.89476,1.19704 1.9927,1.75803 3.09101,2.584543 0.91267,0.68681 2.00419,1.064627 2.91929,1.550726 1.13206,0.601352 2.62315,0.539667 3.77789,0.861514 1.14401,0.318853 2.40128,0.108672 3.60618,0.172303 1.47803,0.07806 2.81522,-0.206654 4.12135,-0.344606 1.25722,-0.132786 2.39959,-0.48154 3.43445,-0.689211 1.78359,-0.357922 3.9809,-1.500459 5.3234,-2.067635 1.54774,-0.653878 2.56548,-1.853031 4.12135,-2.756845 1.55141,-0.901218 2.49153,-1.83188 3.94962,-2.929148 1.53735,-1.156909 3.16718,-2.211106 4.80824,-3.446057 1.22852,-0.924501 1.98182,-2.59723 3.26274,-3.790663 1.32889,-1.238144 2.63246,-1.995341 3.77789,-2.929148 1.79025,-1.459492 4.71606,-1.323345 6.86891,-1.550726 1.24985,-0.132008 2.48609,-0.113385 3.7779,-0.172303 1.1708,-0.0534 2.33048,0.116918 3.43445,0.172303 1.18613,0.05951 2.20006,0.232368 3.26273,0.344606 1.35835,0.143466 2.76938,0.276779 4.12135,0.344605 1.98656,0.09967 3.25718,-0.04446 5.15168,-0.344605 1.2383,-0.196182 2.71303,-0.473426 3.94962,-0.689212 1.33103,-0.232264 1.9785,-0.882302 3.09101,-1.378423 1.32657,-0.591579 2.2881,-1.176438 3.43446,-1.895331 0.91753,-0.575396 1.88739,-1.065248 2.74756,-1.550725 0.85159,-0.480641 1.72241,-1.604792 2.40412,-2.239937 1.07181,-0.998619 1.74201,-2.036734 2.57583,-2.929149 0.5895,-0.630914 1.48568,-1.146691 2.2324,-1.723028 0.98592,-0.760961 1.15554,-1.971045 1.71723,-2.9291487 0.59068,-1.0075503 0.74428,-1.0455129 0.85861,-1.2061199 0.14856,-0.208685 0.45793,-0.2297372 0.68689,-0.3446057"
       style="fill:#e9dec4;fill-opacity:0.62732915;stroke:#2b2b2b;stroke-width:2.48400998;stroke-linecap:butt;stroke-linejoin:round;stroke-miterlimit:4;stroke-opacity:1;stroke-dasharray:none;stroke-dashoffset:0"
       inkscape:connector-curvature="0" />
    <path
       transform="matrix(2.4094291,0,0,2.1419111,585.64251,-226.08835)"
       d="m -68.025824,150.3087 a 11.754023,11.754023 0 1 1 -23.508045,0 11.754023,11.754023 0 1 1 23.508045,0 z"
       sodipodi:ry="11.754023"
       sodipodi:rx="11.754023"
       sodipodi:cy="150.3087"
       sodipodi:cx="-79.779846"
       id="path6650"
       style="fill:#f14e21;fill-opacity:1;stroke:#06060f;stroke-width:4.41363144;stroke-linecap:butt;stroke-linejoin:round;stroke-miterlimit:4;stroke-opacity:1;stroke-dasharray:none;stroke-dashoffset:0"
       sodipodi:type="arc" />
    <path
       transform="matrix(1.1827475,0,0,1.0514298,417.19146,288.35658)"
       d="m -68.025824,150.3087 a 11.754023,11.754023 0 1 1 -23.508045,0 11.754023,11.754023 0 1 1 23.508045,0 z"
       sodipodi:ry="11.754023"
       sodipodi:rx="11.754023"
       sodipodi:cy="150.3087"
       sodipodi:cx="-79.779846"
       id="path18939"
       style="fill:#fffaff;fill-opacity:1;stroke:#06060f;stroke-width:6.568645;stroke-linecap:butt;stroke-linejoin:round;stroke-miterlimit:4;stroke-opacity:1;stroke-dasharray:none;stroke-dashoffset:0"
       sodipodi:type="arc" />
    <path
       transform="matrix(1.1827475,0,0,1.0514298,425.43459,-54.434976)"
       d="m -68.025824,150.3087 a 11.754023,11.754023 0 1 1 -23.508045,0 11.754023,11.754023 0 1 1 23.508045,0 z"
       sodipodi:ry="11.754023"
       sodipodi:rx="11.754023"
       sodipodi:cy="150.3087"
       sodipodi:cx="-79.779846"
       id="path3933"
       style="fill:#fffaff;fill-opacity:1;stroke:#06060f;stroke-width:6.568645;stroke-linecap:butt;stroke-linejoin:round;stroke-miterlimit:4;stroke-opacity:1;stroke-dasharray:none;stroke-dashoffset:0"
       sodipodi:type="arc" />
    <path
       transform="matrix(1.1827475,0,0,1.0514298,148.49639,96.18934)"
       d="m -68.025824,150.3087 a 11.754023,11.754023 0 1 1 -23.508045,0 11.754023,11.754023 0 1 1 23.508045,0 z"
       sodipodi:ry="11.754023"
       sodipodi:rx="11.754023"
       sodipodi:cy="150.3087"
       sodipodi:cx="-79.779846"
       id="path3935"
       style="fill:#fffaff;fill-opacity:1;stroke:#06060f;stroke-width:6.568645;stroke-linecap:butt;stroke-linejoin:round;stroke-miterlimit:4;stroke-opacity:1;stroke-dasharray:none;stroke-dashoffset:0"
       sodipodi:type="arc" />
    <path
       transform="matrix(0.7375602,0,0,0.65567034,270.10597,190.2668)"
       d="m -68.025824,150.3087 a 11.754023,11.754023 0 1 1 -23.508045,0 11.754023,11.754023 0 1 1 23.508045,0 z"
       sodipodi:ry="11.754023"
       sodipodi:rx="11.754023"
       sodipodi:cy="150.3087"
       sodipodi:cx="-79.779846"
       id="path3937"
       style="fill:#fffaff;fill-opacity:1;stroke:#06060f;stroke-width:6.568645;stroke-linecap:butt;stroke-linejoin:round;stroke-miterlimit:4;stroke-opacity:1;stroke-dasharray:none;stroke-dashoffset:0"
       sodipodi:type="arc" />
    <path
       transform="matrix(0.7375602,0,0,0.65567034,284.31312,364.45333)"
       d="m -68.025824,150.3087 a 11.754023,11.754023 0 1 1 -23.508045,0 11.754023,11.754023 0 1 1 23.508045,0 z"
       sodipodi:ry="11.754023"
       sodipodi:rx="11.754023"
       sodipodi:cy="150.3087"
       sodipodi:cx="-79.779846"
       id="path3941"
       style="fill:#fffaff;fill-opacity:1;stroke:#06060f;stroke-width:6.568645;stroke-linecap:butt;stroke-linejoin:round;stroke-miterlimit:4;stroke-opacity:1;stroke-dasharray:none;stroke-dashoffset:0"
       sodipodi:type="arc" />
    <path
       transform="matrix(0.7375602,0,0,0.65567034,434.92739,91.116385)"
       d="m -68.025824,150.3087 a 11.754023,11.754023 0 1 1 -23.508045,0 11.754023,11.754023 0 1 1 23.508045,0 z"
       sodipodi:ry="11.754023"
       sodipodi:rx="11.754023"
       sodipodi:cy="150.3087"
       sodipodi:cx="-79.779846"
       id="path3943"
       style="fill:#fffaff;fill-opacity:1;stroke:#06060f;stroke-width:6.568645;stroke-linecap:butt;stroke-linejoin:round;stroke-miterlimit:4;stroke-opacity:1;stroke-dasharray:none;stroke-dashoffset:0"
       sodipodi:type="arc" />
    <path
       transform="matrix(0.7375602,0,0,0.65567034,318.57984,107.05435)"
       d="m -68.025824,150.3087 a 11.754023,11.754023 0 1 1 -23.508045,0 11.754023,11.754023 0 1 1 23.508045,0 z"
       sodipodi:ry="11.754023"
       sodipodi:rx="11.754023"
       sodipodi:cy="150.3087"
       sodipodi:cx="-79.779846"
       id="path3945"
       style="fill:#fffaff;fill-opacity:1;stroke:#06060f;stroke-width:6.568645;stroke-linecap:butt;stroke-linejoin:round;stroke-miterlimit:4;stroke-opacity:1;stroke-dasharray:none;stroke-dashoffset:0"
       sodipodi:type="arc" />
    <text
       sodipodi:linespacing="100%"
       id="text3967"
       y="101.68719"
       x="439.38351"
       style="font-size:35.76974487px;font-style:normal;font-variant:normal;font-weight:bold;font-stretch:normal;text-align:start;line-height:100%;writing-mode:lr-tb;text-anchor:start;fill:#000000;fill-opacity:1;stroke:none;font-family:Arial"
       xml:space="preserve"><tspan
         y="101.68719"
         x="439.38351"
         id="tspan3969"
         sodipodi:role="line">Damascus</tspan></text>
    <text
       sodipodi:linespacing="100%"
       id="text3971"
       y="200.93362"
       x="394.90732"
       style="font-size:21.85928726px;font-style:normal;font-variant:normal;font-weight:normal;font-stretch:normal;text-align:start;line-height:100%;writing-mode:lr-tb;text-anchor:start;fill:#000000;fill-opacity:1;stroke:none;font-family:Arial"
       xml:space="preserve"><tspan
         y="200.93362"
         x="394.90732"
         id="tspan3973"
         sodipodi:role="line">Qadim</tspan></text>
    <text
       sodipodi:linespacing="100%"
       id="text3975"
       y="105.65015"
       x="237.12834"
       style="font-size:21.85928726px;font-style:normal;font-variant:normal;font-weight:normal;font-stretch:normal;text-align:start;line-height:100%;writing-mode:lr-tb;text-anchor:start;fill:#000000;fill-opacity:1;stroke:none;font-family:Arial"
       xml:space="preserve"><tspan
         y="105.65015"
         x="237.12834"
         id="tspan3977"
         sodipodi:role="line">Mezzeh</tspan></text>
    <text
       sodipodi:linespacing="100%"
       id="text3979"
       y="287.60196"
       x="38.067543"
       style="font-size:21.85928726px;font-style:normal;font-variant:normal;font-weight:normal;font-stretch:normal;text-align:start;line-height:100%;writing-mode:lr-tb;text-anchor:start;fill:#000000;fill-opacity:1;stroke:none;font-family:Arial"
       xml:space="preserve"><tspan
         y="287.60196"
         x="38.067543"
         id="tspan3981"
         sodipodi:role="line">Qatana</tspan></text>
    <text
       sodipodi:linespacing="100%"
       id="text3983"
       y="295.41312"
       x="227.10945"
       style="font-size:21.85928726px;font-style:normal;font-variant:normal;font-weight:normal;font-stretch:normal;text-align:start;line-height:100%;writing-mode:lr-tb;text-anchor:start;fill:#000000;fill-opacity:1;stroke:none;font-family:Arial"
       xml:space="preserve"><tspan
         y="295.41312"
         x="227.10945"
         id="tspan3985"
         sodipodi:role="line">Aartouz</tspan></text>
    <text
       sodipodi:linespacing="100%"
       id="text3987"
       y="489.12732"
       x="126.35414"
       style="font-size:21.85928726px;font-style:normal;font-variant:normal;font-weight:normal;font-stretch:normal;text-align:start;line-height:100%;writing-mode:lr-tb;text-anchor:start;fill:#000000;fill-opacity:1;stroke:none;font-family:Arial"
       xml:space="preserve"><tspan
         y="489.12732"
         x="126.35414"
         id="tspan3989"
         sodipodi:role="line">Monkelbe</tspan></text>
    <text
       sodipodi:linespacing="100%"
       id="text3991"
       y="453.85132"
       x="346.7019"
       style="font-size:21.85928726px;font-style:normal;font-variant:normal;font-weight:normal;font-stretch:normal;text-align:start;line-height:100%;writing-mode:lr-tb;text-anchor:start;fill:#000000;fill-opacity:1;stroke:none;font-family:Arial"
       xml:space="preserve"><tspan
         y="453.85132"
         x="346.7019"
         id="tspan3993"
         sodipodi:role="line">Kissou</tspan></text>
    <text
       sodipodi:linespacing="100%"
       id="text3995"
       y="233.15427"
       x="238.1245"
       style="font-size:21.85928726px;font-style:normal;font-variant:normal;font-weight:normal;font-stretch:normal;text-align:start;line-height:100%;writing-mode:lr-tb;text-anchor:start;fill:#000000;fill-opacity:1;stroke:none;font-family:Arial"
       xml:space="preserve"><tspan
         y="233.15427"
         x="238.1245"
         id="tspan3997"
         sodipodi:role="line">Mouaddamiya</tspan></text>
    <text
       sodipodi:linespacing="100%"
       id="text23618"
       y="398.56445"
       x="141.3947"
       style="font-size:21.85928726px;font-style:normal;font-variant:normal;font-weight:normal;font-stretch:normal;text-align:start;line-height:100%;writing-mode:lr-tb;text-anchor:start;fill:#000000;fill-opacity:1;stroke:none;font-family:Arial"
       xml:space="preserve"><tspan
         y="398.56445"
         x="141.3947"
         id="tspan23620"
         sodipodi:role="line">Jebel Madani</tspan></text>
    <text
       sodipodi:linespacing="100%"
       id="text23622"
       y="423.96249"
       x="174.76396"
       style="font-size:21.85928726px;font-style:normal;font-variant:normal;font-weight:normal;font-stretch:normal;text-align:start;line-height:100%;writing-mode:lr-tb;text-anchor:start;fill:#000000;fill-opacity:1;stroke:none;font-family:Arial"
       xml:space="preserve"><tspan
         y="423.96249"
         x="174.76396"
         id="tspan23624"
         sodipodi:role="line">Tel Kissou </tspan></text>
    <text
       sodipodi:linespacing="100%"
       id="text23626"
       y="378.57788"
       x="329.28778"
       style="font-size:21.85928726px;font-style:normal;font-variant:normal;font-weight:normal;font-stretch:normal;text-align:start;line-height:100%;writing-mode:lr-tb;text-anchor:start;fill:#000000;fill-opacity:1;stroke:none;font-family:Arial"
       xml:space="preserve"><tspan
         y="378.57788"
         x="329.28778"
         id="tspan23628"
         sodipodi:role="line">Tel Afar</tspan></text>
    <text
       sodipodi:linespacing="100%"
       id="text23630"
       y="385.10193"
       x="465.07455"
       style="font-size:21.85928726px;font-style:normal;font-variant:normal;font-weight:normal;font-stretch:normal;text-align:start;line-height:100%;writing-mode:lr-tb;text-anchor:start;fill:#000000;fill-opacity:1;stroke:none;font-family:Arial"
       xml:space="preserve"><tspan
         y="385.10193"
         x="465.07455"
         id="tspan23632"
         sodipodi:role="line">Jebel el Kelb</tspan></text>
    <text
       sodipodi:linespacing="100%"
       id="text23634"
       y="256.05911"
       x="372.28732"
       style="font-size:21.85928726px;font-style:normal;font-variant:normal;font-weight:normal;font-stretch:normal;text-align:start;line-height:100%;writing-mode:lr-tb;text-anchor:start;fill:#000000;fill-opacity:1;stroke:none;font-family:Arial"
       xml:space="preserve"><tspan
         y="256.05911"
         x="372.28732"
         id="tspan23636"
         sodipodi:role="line">Jebel Tannouriye</tspan></text>
    <text
       sodipodi:linespacing="100%"
       id="text23638"
       y="263.28464"
       x="547.89081"
       style="font-size:21.85928726px;font-style:normal;font-variant:normal;font-weight:normal;font-stretch:normal;text-align:start;line-height:100%;writing-mode:lr-tb;text-anchor:start;fill:#000000;fill-opacity:1;stroke:none;font-family:Arial"
       xml:space="preserve"><tspan
         y="263.28464"
         x="547.89081"
         id="tspan23640"
         sodipodi:role="line">Jebel Abou</tspan><tspan
         id="tspan23642"
         y="285.14392"
         x="547.89081"
         sodipodi:role="line">Atriz</tspan></text>
    <text
       transform="matrix(0.79532294,-0.60618596,0.60618596,0.79532294,0,0)"
       sodipodi:linespacing="100%"
       id="text23644"
       y="187.84479"
       x="-48.025703"
       style="font-size:21.85929298px;font-style:normal;font-variant:normal;font-weight:normal;font-stretch:normal;text-align:start;line-height:100%;writing-mode:lr-tb;text-anchor:start;fill:#000000;fill-opacity:1;stroke:none;font-family:Arial"
       xml:space="preserve"><tspan
         y="187.84479"
         x="-48.025703"
         id="tspan23646"
         sodipodi:role="line">Jebel Aannter</tspan></text>
    <text
       sodipodi:linespacing="100%"
       id="text23648"
       y="439.68784"
       x="456.36258"
       style="font-size:21.85928726px;font-style:normal;font-variant:normal;font-weight:normal;font-stretch:normal;text-align:start;line-height:100%;writing-mode:lr-tb;text-anchor:start;fill:#1526d7;fill-opacity:1;stroke:none;font-family:Arial"
       xml:space="preserve"><tspan
         y="439.68784"
         x="456.36258"
         id="tspan23650"
         sodipodi:role="line">Nahr el Aouaj</tspan></text>
    <g
       transform="matrix(0.993604,0,0,0.993604,535.09181,-51.76702)"
       id="g3049">
      <path
         style="fill:#0f140f;fill-opacity:1;stroke:#170404;stroke-width:0.73201323;stroke-linecap:butt;stroke-linejoin:round;stroke-miterlimit:4;stroke-opacity:1;stroke-dasharray:none;stroke-dashoffset:0"
         d="m -238.20395,241.28992 c -0.36253,-2.07017 9.77983,-19.22011 23.02233,-33.8381 1.96577,-1.77177 4.44816,-4.30314 7.14444,-3.22438 1.95471,1.21784 5.17384,3.41198 5.39801,5.72633 0.37326,2.08268 -1.20502,4.16815 -2.70969,5.64331 -13.65957,15.22136 -33.79083,27.86887 -32.85509,25.69284 z"
         id="path2126"
         sodipodi:nodetypes="cccccc"
         inkscape:connector-curvature="0" />
      <path
         sodipodi:type="arc"
         style="fill:#0f140f;fill-opacity:1;stroke:#170404;stroke-width:2;stroke-linecap:butt;stroke-linejoin:round;stroke-miterlimit:4;stroke-opacity:1;stroke-dasharray:none;stroke-dashoffset:0"
         id="path3017"
         sodipodi:cx="-54.501617"
         sodipodi:cy="203.77773"
         sodipodi:rx="17.758089"
         sodipodi:ry="59.436962"
         d="m -36.743528,203.77773 c 0,32.82612 -7.950568,59.43696 -17.758089,59.43696 -9.807522,0 -17.758089,-26.61084 -17.758089,-59.43696 0,-32.82613 7.950567,-59.43697 17.758089,-59.43697 9.807521,0 17.758089,26.61084 17.758089,59.43697 z"
         transform="matrix(0.260337,-0.300163,0.291244,0.269315,-259.8115,145.7346)" />
      <path
         sodipodi:type="arc"
         style="fill:#0f140f;fill-opacity:1;stroke:#170404;stroke-width:2;stroke-linecap:butt;stroke-linejoin:round;stroke-miterlimit:4;stroke-opacity:1;stroke-dasharray:none;stroke-dashoffset:0"
         id="path3019"
         sodipodi:cx="-78.351898"
         sodipodi:cy="196.32101"
         sodipodi:rx="12.832488"
         sodipodi:ry="28.049391"
         d="m -65.51941,196.32101 c 0,15.49126 -5.745301,28.0494 -12.832488,28.0494 -7.087188,0 -12.832488,-12.55814 -12.832488,-28.0494 0,-15.49125 5.7453,-28.04939 12.832488,-28.04939 7.087187,0 12.832488,12.55814 12.832488,28.04939 z"
         transform="matrix(0.251959,-0.265476,0.265476,0.251959,-265.5099,165.682)" />
      <path
         sodipodi:type="arc"
         style="fill:#0f140f;fill-opacity:1;stroke:#170404;stroke-width:2;stroke-linecap:butt;stroke-linejoin:round;stroke-miterlimit:4;stroke-opacity:1;stroke-dasharray:none;stroke-dashoffset:0"
         id="path3021"
         sodipodi:cx="-86.690857"
         sodipodi:cy="211.40785"
         sodipodi:rx="6.7402964"
         sodipodi:ry="2.1242969"
         d="m -79.950561,211.40785 c 0,1.17322 -3.017733,2.1243 -6.740296,2.1243 -3.722563,0 -6.740296,-0.95108 -6.740296,-2.1243 0,-1.17321 3.017733,-2.12429 6.740296,-2.12429 3.722563,0 6.740296,0.95108 6.740296,2.12429 z"
         transform="matrix(0.251959,-0.265476,0.265476,0.251959,-239.1427,129.0492)" />
      <path
         style="fill:#0f140f;fill-opacity:1;stroke:#170404;stroke-width:0.77103925;stroke-linecap:butt;stroke-linejoin:round;stroke-miterlimit:4;stroke-opacity:1;stroke-dasharray:none;stroke-dashoffset:0"
         d="m -210.99079,199.0346 12.13982,11.47344"
         id="path3023"
         inkscape:connector-curvature="0" />
    </g>
    <text
       sodipodi:linespacing="100%"
       id="text3056"
       y="169.32315"
       x="235.41681"
       style="font-size:21.85928726px;font-style:normal;font-variant:normal;font-weight:normal;font-stretch:normal;text-align:start;line-height:100%;writing-mode:lr-tb;text-anchor:start;fill:#000000;fill-opacity:1;stroke:none;font-family:Arial"
       xml:space="preserve"><tspan
         y="169.32315"
         x="235.41681"
         id="tspan3058"
         sodipodi:role="line">Airfield</tspan></text>
    <path
       sodipodi:nodetypes="cccccccc"
       id="path9626"
       d="m 94.174415,418.21894 -41.953217,57.47317 5.874868,4.32679 -20.7735,17.97808 6.91679,-28.7284 5.513777,4.40907 32.73745,-64.72799 c 0.794016,5.74782 2.427788,8.25789 11.683832,9.26928 z"
       style="fill:#0a0a12;fill-opacity:0.98757761;fill-rule:evenodd;stroke:#000000;stroke-width:0.62424296px;stroke-linecap:butt;stroke-linejoin:miter;stroke-opacity:1"
       inkscape:connector-curvature="0" />
    <path
       sodipodi:nodetypes="cccccccc"
       id="path4152"
       d="m 304.07022,456.31218 -15.86248,47.56534 4.87029,1.64721 -10.09787,16.51645 -1.50611,-20.76749 4.64552,1.77974 8.12246,-50.46312 c 1.76347,3.68883 3.39762,5.02424 9.82819,3.72187 z"
       style="fill:#0a0a12;fill-opacity:0.98757761;fill-rule:evenodd;stroke:#000000;stroke-width:0.4398748px;stroke-linecap:butt;stroke-linejoin:miter;stroke-opacity:1"
       inkscape:connector-curvature="0" />
    <path
       sodipodi:nodetypes="cccccccc"
       id="path4154"
       d="m 126.37378,59.862552 -68.837863,-18.016307 -1.87731,7.050597 -24.332075,-12.755409 29.267172,-4.07381 -2.086007,6.744642 72.217843,6.785167 c -5.05879,2.841942 -6.79706,5.28081 -4.35176,14.26512 z"
       style="fill:#0a0a12;fill-opacity:0.98757761;fill-rule:evenodd;stroke:#000000;stroke-width:0.62424296px;stroke-linecap:butt;stroke-linejoin:miter;stroke-opacity:1"
       inkscape:connector-curvature="0" />
    <text
       transform="matrix(0.97320058,0.2299579,-0.2299579,0.97320058,0,0)"
       sodipodi:linespacing="100%"
       id="text4156"
       y="55.308121"
       x="52.054966"
       style="font-size:21.85930634px;font-style:normal;font-variant:normal;font-weight:normal;font-stretch:normal;text-align:start;line-height:100%;writing-mode:lr-tb;text-anchor:start;fill:#000000;fill-opacity:1;stroke:none;font-family:Arial"
       xml:space="preserve"><tspan
         y="55.308121"
         x="52.054966"
         id="tspan4158"
         sodipodi:role="line">Beirut</tspan></text>
    <text
       transform="matrix(0.47846092,-0.87810885,0.87810885,0.47846092,0,0)"
       sodipodi:linespacing="100%"
       id="text4160"
       y="256.74139"
       x="-398.92361"
       style="font-size:21.85929871px;font-style:normal;font-variant:normal;font-weight:normal;font-stretch:normal;text-align:start;line-height:100%;writing-mode:lr-tb;text-anchor:start;fill:#000000;fill-opacity:1;stroke:none;font-family:Arial"
       xml:space="preserve"><tspan
         y="256.74139"
         x="-398.92361"
         id="tspan4162"
         sodipodi:role="line">Quneitra</tspan></text>
    <text
       transform="matrix(0.20824206,-0.97807732,0.97807732,0.20824206,0,0)"
       sodipodi:linespacing="100%"
       id="text4164"
       y="371.61981"
       x="-452.44064"
       style="font-size:21.85926628px;font-style:normal;font-variant:normal;font-weight:normal;font-stretch:normal;text-align:start;line-height:100%;writing-mode:lr-tb;text-anchor:start;fill:#000000;fill-opacity:1;stroke:none;font-family:Arial"
       xml:space="preserve"><tspan
         y="371.61981"
         x="-452.44064"
         id="tspan4166"
         sodipodi:role="line">Deraa</tspan></text>
    <path
       sodipodi:nodetypes="cccccccc"
       id="path4168"
       d="m 452.20946,51.507821 49.01244,-22.75481 -2.31187,-5.035501 20.41428,-4.304147 -15.16185,16.543174 -2.04171,-4.957359 -45.55778,30.964487 c 1.5865,-4.110897 1.42423,-6.379495 -4.35351,-10.455844 z"
       style="fill:#0a0a12;fill-opacity:0.98757761;fill-rule:evenodd;stroke:#000000;stroke-width:0.47405738px;stroke-linecap:butt;stroke-linejoin:miter;stroke-opacity:1"
       inkscape:connector-curvature="0" />
    <text
       transform="matrix(0.83737888,-0.54662292,0.54662292,0.83737888,0,0)"
       sodipodi:linespacing="100%"
       id="text4170"
       y="324.13028"
       x="371.78644"
       style="font-size:21.85929871px;font-style:normal;font-variant:normal;font-weight:normal;font-stretch:normal;text-align:start;line-height:100%;writing-mode:lr-tb;text-anchor:start;fill:#000000;fill-opacity:1;stroke:none;font-family:Arial"
       xml:space="preserve"><tspan
         y="324.13028"
         x="371.78644"
         id="tspan4172"
         sodipodi:role="line">Homs</tspan></text>
    <rect
       y="7.3771424"
       x="6.2429004"
       height="520.66833"
       width="654.77991"
       id="rect4258"
       style="fill:none;stroke:#998d8d;stroke-width:7.94883204;stroke-linecap:butt;stroke-linejoin:round;stroke-miterlimit:4;stroke-opacity:1;stroke-dasharray:none;stroke-dashoffset:0" />
    <rect
       y="121.13846"
       x="473.87839"
       height="105.21225"
       width="171.70454"
       id="rect4260"
       style="fill:#f5f5f5;fill-opacity:0.98757761;stroke:#998d8d;stroke-width:4.06883097;stroke-linecap:butt;stroke-linejoin:round;stroke-miterlimit:4;stroke-opacity:1;stroke-dasharray:none;stroke-dashoffset:0" />
    <path
       id="path4262"
       d="m 507.68389,193.57965 109.87955,0.25947"
       style="fill:none;stroke:#0e100d;stroke-width:1.49040604;stroke-linecap:butt;stroke-linejoin:round;stroke-miterlimit:4;stroke-opacity:1;stroke-dasharray:none;stroke-dashoffset:0"
       inkscape:connector-curvature="0" />
    <path
       id="path4264"
       d="m 507.88919,188.39541 0,10.14289"
       style="fill:none;stroke:#0e100d;stroke-width:1.49040604;stroke-linecap:butt;stroke-linejoin:round;stroke-miterlimit:4;stroke-opacity:1;stroke-dasharray:none;stroke-dashoffset:0"
       inkscape:connector-curvature="0" />
    <path
       id="path4266"
       d="m 616.92526,193.7486 0,-5.07144"
       style="fill:none;stroke:#0e100d;stroke-width:1.49040604;stroke-linecap:butt;stroke-linejoin:round;stroke-miterlimit:4;stroke-opacity:1;stroke-dasharray:none;stroke-dashoffset:0"
       inkscape:connector-curvature="0" />
    <path
       id="path4268"
       d="m 576.91719,193.46686 0,4.50795"
       style="fill:none;stroke:#0e100d;stroke-width:1.49040604;stroke-linecap:butt;stroke-linejoin:round;stroke-miterlimit:4;stroke-opacity:1;stroke-dasharray:none;stroke-dashoffset:0"
       inkscape:connector-curvature="0" />
    <text
       sodipodi:linespacing="100%"
       id="text4270"
       y="185.0444"
       x="503.06958"
       style="font-size:17.88487244px;font-style:normal;font-variant:normal;font-weight:normal;font-stretch:normal;text-align:start;line-height:100%;writing-mode:lr-tb;text-anchor:start;fill:#000000;fill-opacity:1;stroke:none;font-family:Arial"
       xml:space="preserve"><tspan
         y="185.0444"
         x="503.06958"
         id="tspan4272"
         sodipodi:role="line">0</tspan></text>
    <text
       sodipodi:linespacing="100%"
       id="text4274"
       y="213.86772"
       x="502.44351"
       style="font-size:17.88487244px;font-style:normal;font-variant:normal;font-weight:normal;font-stretch:normal;text-align:start;line-height:100%;writing-mode:lr-tb;text-anchor:start;fill:#000000;fill-opacity:1;stroke:none;font-family:Arial"
       xml:space="preserve"><tspan
         y="213.86772"
         x="502.44351"
         id="tspan4276"
         sodipodi:role="line">0</tspan></text>
    <text
       sodipodi:linespacing="100%"
       id="text4278"
       y="185.0444"
       x="612.1355"
       style="font-size:17.88487244px;font-style:normal;font-variant:normal;font-weight:normal;font-stretch:normal;text-align:start;line-height:100%;writing-mode:lr-tb;text-anchor:start;fill:#000000;fill-opacity:1;stroke:none;font-family:Arial"
       xml:space="preserve"><tspan
         y="185.0444"
         x="612.1355"
         id="tspan4280"
         sodipodi:role="line">5</tspan></text>
    <text
       sodipodi:linespacing="100%"
       id="text4282"
       y="213.16545"
       x="571.93073"
       style="font-size:17.88487244px;font-style:normal;font-variant:normal;font-weight:normal;font-stretch:normal;text-align:start;line-height:100%;writing-mode:lr-tb;text-anchor:start;fill:#000000;fill-opacity:1;stroke:none;font-family:Arial"
       xml:space="preserve"><tspan
         y="213.16545"
         x="571.93073"
         id="tspan4284"
         sodipodi:role="line">5</tspan></text>
    <text
       sodipodi:linespacing="100%"
       id="text4286"
       y="149.08562"
       x="507.05896"
       style="font-size:17.88487244px;font-style:normal;font-variant:normal;font-weight:normal;font-stretch:normal;text-align:start;line-height:100%;writing-mode:lr-tb;text-anchor:start;fill:#000000;fill-opacity:1;stroke:none;font-family:Arial"
       xml:space="preserve"><tspan
         y="149.08562"
         x="507.05896"
         id="tspan4288"
         sodipodi:role="line">Approx Scale</tspan></text>
    <text
       sodipodi:linespacing="100%"
       id="text4290"
       y="183.32396"
       x="538.65955"
       style="font-size:17.88487244px;font-style:normal;font-variant:normal;font-weight:normal;font-stretch:normal;text-align:start;line-height:100%;writing-mode:lr-tb;text-anchor:start;fill:#000000;fill-opacity:1;stroke:none;font-family:Arial"
       xml:space="preserve"><tspan
         y="183.32396"
         x="538.65955"
         id="tspan4292"
         sodipodi:role="line">miles</tspan></text>
    <text
       sodipodi:linespacing="100%"
       id="text4294"
       y="212.37386"
       x="530.16217"
       style="font-size:17.88487244px;font-style:normal;font-variant:normal;font-weight:normal;font-stretch:normal;text-align:start;line-height:100%;writing-mode:lr-tb;text-anchor:start;fill:#000000;fill-opacity:1;stroke:none;font-family:Arial"
       xml:space="preserve"><tspan
         y="212.37386"
         x="530.16217"
         id="tspan4296"
         sodipodi:role="line">Km</tspan></text>
  </g>
</svg>
