<?xml version="1.0" encoding="utf-8"?>
<!-- Generator: Adobe Illustrator 21.0.0, SVG Export Plug-In . SVG Version: 6.00 Build 0)  -->
<svg version="1.1" id="Слой_1" xmlns="http://www.w3.org/2000/svg" xmlns:xlink="http://www.w3.org/1999/xlink" x="0px" y="0px"
	 viewBox="0 0 377.5 403.8" style="enable-background:new 0 0 377.5 403.8;" xml:space="preserve">
<style type="text/css">
	.st0{fill:#2A5FFF;}
</style>
<g>
	<path d="M243.4,23.5c0,2-0.5,3.6-1.6,4.9s-2.6,2.2-4.7,2.8v0.1c0.5,0.2,0.9,0.4,1.3,0.8c0.4,0.4,0.8,0.9,1.3,1.7s1.1,1.8,1.8,3.2
		l3.6,7.2h-4.2l-3-6.2c-0.8-1.6-1.5-2.8-2.1-3.7c-0.7-0.9-1.4-1.5-2.3-1.9c-0.9-0.4-1.9-0.6-3.2-0.6H227v12.4h-4V15.6h10.6
		c3.3,0,5.7,0.7,7.3,2C242.6,19,243.4,20.9,243.4,23.5z M239.5,23.6c0-1.6-0.5-2.8-1.5-3.5s-2.5-1.1-4.5-1.1h-6.7v9.4h6.6
		c2,0,3.5-0.4,4.5-1.2C239,26.4,239.5,25.2,239.5,23.6z"/>
	<path d="M254.5,30.9h-2v-13c-0.5,0.5-1.1,1-1.8,1.4s-1.5,0.8-2.3,1.1v-2c1.1-0.5,2.1-1.2,3-1.9c0.9-0.8,1.5-1.5,1.8-2.3h1.3V30.9z"
		/>
</g>
<g>
	<rect x="112.1" y="132.3" width="2.4" height="45.6"/>
	<rect x="149.7" y="188.2" transform="matrix(0.8661 -0.4998 0.4998 0.8661 -71.5754 111.581)" width="45.6" height="2.4"/>
	<rect x="171.3" y="98.1" transform="matrix(0.5004 -0.8658 0.8658 0.5004 -18.5331 209.7702)" width="2.4" height="45.6"/>
	<rect x="250.8" y="203.4" transform="matrix(0.9749 -0.2225 0.2225 0.9749 -38.8065 64.7128)" width="34" height="2.4"/>
	<polygon points="326.9,153.9 326.9,153.9 327.5,155.1 326.9,156.4 326.9,156.4 312.7,185.9 314.8,187 329.9,155.7 329.9,155.7 
		330.2,155.1 329.9,154.6 329.9,154.6 307.7,108.6 329.8,81 327.9,79.5 306.6,106.2 305.8,104.5 305.8,104.5 305,102.8 304.9,102.7 
		304.9,102.7 304.7,102.2 304.1,102.1 304.1,102.1 304.1,102.1 302.2,101.6 302.2,101.6 300.4,101.2 321.7,74.5 319.8,73 
		297.8,100.6 265.2,93.2 264.6,95.5 303,104.3 	"/>
	<polygon points="177.3,345.4 179.6,345.9 189.8,301.4 187.4,300.9 	"/>
	<polygon points="211.5,375.5 212.2,377.8 255.8,364.3 255.1,362 	"/>
	<rect x="247.7" y="280.4" transform="matrix(0.6806 -0.7327 0.7327 0.6806 -142.6477 279.2432)" width="2.4" height="45.6"/>
	<rect x="239.5" y="50.2" transform="matrix(0.975 -0.2222 0.2222 0.975 -7.2931 54.981)" width="2.4" height="19.4"/>
	<path d="M314.7,302.3l-37.3,11.5l-41.2-38.2l12.5-54.7l38.2-8.7l-0.5-2.3l-38.4,8.8l-44.1-35.2v-56.4l28.6-22.8l-1.5-1.9L202.6,125
		l-49-28.3l-0.7-0.4l-0.8,0.5L104,124.3l0,0l-2.3,1.3v0.7v2v54.9l-49.3,28.5l1.2,2.1l49.3-28.5l49.3,28.5l0,0l0.6,0.3l0.6-0.3l0,0
		l49.2-28.4l43.8,34.9L233.9,275l-52.5,16.2l0,0l-1.5,0.5l-0.4,0.1l0,0l-0.7,0.2l-0.2,0.8l-12.3,54.1l0,0l-0.6,2.6l0.5,0.5
		l40.7,37.8l0,0l1.4,1.3l0.1,0.1l0,0l0.5,0.5l0.7-0.2l0,0l0.3-0.1l1.6-0.5l0,0l51.3-15.8l0,0l1.6-0.5l0.3-0.1l0,0l0.7-0.2l0.2-0.7
		l0,0l12.6-55.5l37.3-11.5L314.7,302.3z M263.6,369.1l-0.3,1.3L209.6,387l-40.3-37.3l0,0l-1-0.9l12.2-53.5l0,0l0.3-1.3l53.7-16.6
		l41.2,38.2L263.6,369.1L263.6,369.1z M104.1,127l47.6-27.5l0,0l1.1-0.6l1.1,0.6l0,0l47.6,27.5v56.2l-47.6,27.5l0,0l-1.1,0.7
		l-1.1-0.7l0,0l-47.6-27.5v-54.9L104.1,127L104.1,127z"/>
	<polygon class="st0" points="311.2,214.6 311.1,214.6 296.8,192.2 292.9,192.2 292.9,220.9 296.5,220.9 296.5,198.5 296.5,198.5 
		310.9,220.9 314.8,220.9 314.8,192.2 311.2,192.2 	"/>
	<polygon class="st0" points="236.7,75.6 236.7,104.3 240.3,104.3 240.3,81.9 240.4,81.9 254.8,104.3 258.7,104.3 258.7,75.6 
		255.1,75.6 255.1,98 255,98 240.6,75.6 	"/>
</g>
<g>
	<path d="M349.2,51.3c0,2-0.5,3.6-1.6,4.9s-2.6,2.2-4.7,2.8v0.1c0.5,0.2,0.9,0.4,1.3,0.8s0.8,0.9,1.3,1.7s1.1,1.8,1.8,3.2l3.6,7.2
		h-4.2l-3-6.2c-0.8-1.6-1.5-2.8-2.1-3.7c-0.7-0.9-1.4-1.5-2.3-1.9s-1.9-0.6-3.2-0.6h-3.3V72H329V43.4h10.6c3.3,0,5.7,0.7,7.3,2
		C348.4,46.8,349.2,48.8,349.2,51.3z M345.3,51.5c0-1.6-0.5-2.8-1.5-3.5s-2.5-1.1-4.5-1.1h-6.7v9.4h6.6c2,0,3.5-0.4,4.5-1.2
		C344.8,54.3,345.3,53.1,345.3,51.5z"/>
	<path d="M355.2,56.7h8.2v2h-11.1c0-1,0.3-1.9,1-2.8s1.6-1.9,3-3l1.3-1.1c1.3-1.1,2.2-2,2.8-2.8c0.6-0.8,0.9-1.6,0.9-2.4
		c0-0.5-0.1-1-0.4-1.5c-0.3-0.4-0.6-0.8-1.1-1s-1-0.4-1.6-0.4c-1,0-1.8,0.3-2.3,0.9S355,46,355,47.1l-2.1-0.3c0.1-1,0.4-1.8,0.8-2.5
		s1.1-1.3,1.9-1.6c0.8-0.4,1.7-0.6,2.7-0.6c1.1,0,2,0.2,2.8,0.6c0.8,0.4,1.4,1,1.8,1.6c0.4,0.7,0.6,1.5,0.6,2.3c0,1-0.4,2.1-1.1,3.1
		s-1.8,2.1-3.2,3.3l-1.5,1.3c-0.6,0.5-1.1,0.9-1.4,1.3C355.7,55.9,355.4,56.3,355.2,56.7z"/>
</g>
<g>
	<path d="M341.5,291.4c0,2-0.5,3.6-1.6,4.9s-2.6,2.2-4.7,2.8v0.1c0.5,0.2,0.9,0.4,1.3,0.8s0.8,0.9,1.3,1.7s1.1,1.8,1.8,3.2l3.6,7.2
		H339l-3-6.2c-0.8-1.6-1.5-2.8-2.1-3.7s-1.4-1.5-2.3-1.9s-1.9-0.6-3.2-0.6H325V312h-3.8v-28.6h10.6c3.3,0,5.7,0.7,7.3,2
		S341.5,288.8,341.5,291.4z M337.6,291.5c0-1.6-0.5-2.8-1.5-3.5s-2.5-1.1-4.5-1.1H325v9.4h6.6c2,0,3.5-0.4,4.5-1.2
		S337.6,293.1,337.6,291.5z"/>
	<path d="M347.5,296.7h8.2v2h-11.1c0-1,0.3-1.9,1-2.8c0.6-0.9,1.6-1.9,3-3l1.3-1.1c1.3-1.1,2.2-2,2.8-2.8c0.6-0.8,0.9-1.6,0.9-2.4
		c0-0.5-0.1-1-0.4-1.5c-0.3-0.4-0.6-0.8-1.1-1s-1-0.4-1.6-0.4c-1,0-1.8,0.3-2.3,0.9s-0.9,1.4-0.9,2.5l-2.1-0.3
		c0.1-1,0.4-1.8,0.8-2.5s1.1-1.3,1.9-1.6s1.7-0.6,2.7-0.6c1.1,0,2,0.2,2.8,0.6s1.4,1,1.8,1.6c0.4,0.7,0.6,1.5,0.6,2.3
		c0,1-0.4,2.1-1.1,3.1s-1.8,2.1-3.2,3.3l-1.5,1.3c-0.6,0.5-1.1,0.9-1.4,1.3C348,295.9,347.7,296.3,347.5,296.7z"/>
	<path d="M360.5,283.1l-0.5,3.5h-1.3l-0.7-3.5v-3h2.5L360.5,283.1L360.5,283.1z"/>
</g>
<g>
	<path d="M34.5,215.4c0,2-0.5,3.6-1.6,4.9s-2.6,2.2-4.7,2.8v0.1c0.5,0.2,0.9,0.4,1.3,0.8s0.8,0.9,1.3,1.7s1.1,1.8,1.8,3.2l3.6,7.2
		H32l-3-6.2c-0.8-1.6-1.5-2.8-2.1-3.7s-1.4-1.5-2.3-1.9s-1.9-0.6-3.2-0.6H18V236h-3.8v-28.6h10.6c3.3,0,5.7,0.7,7.3,2
		S34.5,212.8,34.5,215.4z M30.6,215.5c0-1.6-0.5-2.8-1.5-3.5s-2.5-1.1-4.5-1.1H18v9.4h6.6c2,0,3.5-0.4,4.5-1.2
		S30.6,217.1,30.6,215.5z"/>
	<path d="M48.8,207.9c-1.1,1.3-2.2,2.7-3.1,4.4c-0.9,1.6-1.7,3.4-2.2,5.2c-0.6,1.8-0.9,3.6-1,5.3h-2.1c0.1-1.6,0.3-3.3,0.8-5.1
		c0.5-1.7,1.2-3.4,2-5c0.9-1.6,1.8-3.1,3-4.4H38v-2h10.8V207.9z"/>
</g>
</svg>
