<?xml version="1.0" encoding="utf-8"?>
<!-- Generator: Adobe Illustrator 19.2.0, SVG Export Plug-In . SVG Version: 6.00 Build 0)  -->
<svg version="1.1"
	 id="svg2" inkscape:export-filename="/Users/olivier/Desktop/Blason Rouge/Blason_Vide_3D.png" inkscape:export-xdpi="144" inkscape:export-ydpi="144" inkscape:output_extension="org.inkscape.output.svg.inkscape" inkscape:version="0.91 r13725" sodipodi:docname="Template.svg" sodipodi:version="0.32" xmlns:cc="http://creativecommons.org/ns#" xmlns:dc="http://purl.org/dc/elements/1.1/" xmlns:inkscape="http://www.inkscape.org/namespaces/inkscape" xmlns:rdf="http://www.w3.org/1999/02/22-rdf-syntax-ns#" xmlns:sodipodi="http://sodipodi.sourceforge.net/DTD/sodipodi-0.dtd" xmlns:svg="http://www.w3.org/2000/svg"
	 xmlns="http://www.w3.org/2000/svg" xmlns:xlink="http://www.w3.org/1999/xlink" x="0px" y="0px" viewBox="0 0 600 659.5"
	 style="enable-background:new 0 0 600 659.5;" xml:space="preserve">
<style type="text/css">
	.st0{fill:#E20909;}
	.st1{display:none;fill:#FFFFFF;stroke:#000000;stroke-width:3;stroke-miterlimit:10;}
	.st2{fill:#FFFFFF;stroke:#000000;stroke-width:2;stroke-miterlimit:10;}
	.st3{fill:#FFFFFF;stroke:#000000;stroke-width:3;stroke-miterlimit:10;}
	.st4{fill:url(#path2875_1_);stroke:#000000;stroke-width:3;stroke-miterlimit:10;}
</style>
<g id="path2875_9_">
	<g>
		<path class="st0" d="M300,657.9c0,0,298.5-112.3,298.5-397.8V1.5H1.5v258.6C1.5,545.6,300,657.9,300,657.9z"/>
	</g>
</g>
<path class="st1" d="M300,284.4l214.4,214.4c26.6-33.6,49.8-73.1,65-118.8L300,100.6L20.6,380c15.2,45.7,38.4,85.2,65,118.8
	L300,284.4z"/>
<sodipodi:namedview  bordercolor="#666666" borderopacity="1.0" gridtolerance="10.0" guidetolerance="10.0" height="660px" id="base" inkscape:current-layer="svg2" inkscape:cx="300" inkscape:cy="329.99986" inkscape:guide-bbox="true" inkscape:pageopacity="0.0" inkscape:pageshadow="2" inkscape:window-height="856" inkscape:window-maximized="0" inkscape:window-width="1280" inkscape:window-x="-4" inkscape:window-y="0" inkscape:zoom="1.1560601" objecttolerance="10.0" pagecolor="#ffffff" showgrid="false" showguides="true">
	</sodipodi:namedview>
<desc  id="desc4">SVG coat of arms</desc>
<g id="g9370" transform="matrix(0.6072994,0,0,0.6935206,-525.20603,251.96104)">
</g>
<g>
	<path class="st2" d="M87.3,95.3C79.7,87.9,73.8,79,70,70c9,3.9,18,9.8,25.4,17.3c3.2,3.2,6.1,6.6,8.7,10.2V28.1
		c-2.6,3.6-5.5,7-8.7,10.2C87.9,45.8,79,51.7,70,55.6c3.9-9,9.8-18,17.3-25.4c3.2-3.2,6.6-6.1,10.2-8.7H28.1c3.6,2.6,7,5.5,10.2,8.7
		c7.6,7.4,13.4,16.3,17.3,25.4c-9-3.9-18-9.8-25.4-17.3c-3.2-3.2-6.1-6.6-8.7-10.2v69.4c2.6-3.6,5.5-7,8.7-10.2
		c7.4-7.6,16.3-13.4,25.4-17.3c-3.9,9-9.8,18-17.3,25.4c-3.2,3.2-6.6,6.1-10.2,8.7h69.4C93.9,101.5,90.5,98.6,87.3,95.3z"/>
	<path class="st2" d="M561.7,95.3c-7.6-7.4-13.4-16.3-17.3-25.4c9,3.9,18,9.8,25.4,17.3c3.2,3.2,6.1,6.6,8.7,10.2V28.1
		c-2.6,3.6-5.5,7-8.7,10.2c-7.4,7.6-16.3,13.4-25.4,17.3c3.9-9,9.8-18,17.3-25.4c3.2-3.2,6.6-6.1,10.2-8.7h-69.4
		c3.6,2.6,7,5.5,10.2,8.7c7.6,7.4,13.4,16.3,17.3,25.4c-9-3.9-18-9.8-25.4-17.3c-3.2-3.2-6.1-6.6-8.7-10.2v69.4
		c2.6-3.6,5.5-7,8.7-10.2C512.1,79.7,521,73.8,530,70c-3.9,9-9.8,18-17.3,25.4c-3.2,3.2-6.6,6.1-10.2,8.7h69.4
		C568.3,101.5,564.9,98.6,561.7,95.3z"/>
	<path class="st2" d="M403.6,95.3C396,87.9,390.1,79,386.2,70c9,3.9,18,9.8,25.4,17.3c3.2,3.2,6.1,6.6,8.7,10.2V28.1
		c-2.6,3.6-5.5,7-8.7,10.2c-7.4,7.6-16.3,13.4-25.4,17.3c3.9-9,9.8-18,17.3-25.4c3.2-3.2,6.6-6.1,10.2-8.7h-69.4
		c3.6,2.6,7,5.5,10.2,8.7c7.6,7.4,13.4,16.3,17.3,25.4c-9-3.9-18-9.8-25.4-17.3c-3.2-3.2-6.1-6.6-8.7-10.2v69.4
		c2.6-3.6,5.5-7,8.7-10.2c7.4-7.6,16.3-13.4,25.4-17.3c-3.9,9-9.8,18-17.3,25.4c-3.2,3.2-6.6,6.1-10.2,8.7h69.4
		C410.2,101.5,406.7,98.6,403.6,95.3z"/>
	<path class="st2" d="M245.4,95.3C237.9,87.9,232,79,228.1,70c9,3.9,18,9.8,25.4,17.3c3.2,3.2,6.1,6.6,8.7,10.2V28.1
		c-2.6,3.6-5.5,7-8.7,10.2c-7.4,7.6-16.3,13.4-25.4,17.3c3.9-9,9.8-18,17.3-25.4c3.2-3.2,6.6-6.1,10.2-8.7h-69.4
		c3.6,2.6,7,5.5,10.2,8.7c7.6,7.4,13.4,16.3,17.3,25.4c-9-3.9-18-9.8-25.4-17.3c-3.2-3.2-6.1-6.6-8.7-10.2v69.4
		c2.6-3.6,5.5-7,8.7-10.2c7.4-7.6,16.3-13.4,25.4-17.3c-3.9,9-9.8,18-17.3,25.4c-3.2,3.2-6.6,6.1-10.2,8.7h69.4
		C252,101.5,248.6,98.6,245.4,95.3z"/>
</g>
<g>
	<path class="st2" d="M332.6,347c-7.4,7.6-16.3,13.4-25.4,17.3c3.9-9,9.8-18,17.3-25.4c3.2-3.2,6.6-6.1,10.2-8.7h-69.4
		c3.6,2.6,7,5.5,10.2,8.7c7.6,7.4,13.4,16.3,17.3,25.4c-9-3.9-18-9.8-25.4-17.3c-3.2-3.2-6.1-6.6-8.7-10.2v69.4
		c2.6-3.6,5.5-7,8.7-10.2c7.4-7.6,16.3-13.4,25.4-17.3c-3.9,9-9.8,18-17.3,25.4c-3.2,3.2-6.6,6.1-10.2,8.7h69.4
		c-3.6-2.6-7-5.5-10.2-8.7c-7.6-7.4-13.4-16.3-17.3-25.4c9,3.9,18,9.8,25.4,17.3c3.2,3.2,6.1,6.6,8.7,10.2v-69.4
		C338.7,340.4,335.8,343.8,332.6,347z"/>
	<path class="st2" d="M332.6,551.7c-7.4,7.6-16.3,13.4-25.4,17.3c3.9-9,9.8-18,17.3-25.4c3.2-3.2,6.6-6.1,10.2-8.7h-69.4
		c3.6,2.6,7,5.5,10.2,8.7c7.6,7.4,13.4,16.3,17.3,25.4c-9-3.9-18-9.8-25.4-17.3c-3.2-3.2-6.1-6.6-8.7-10.2v69.4
		c2.6-3.6,5.5-7,8.7-10.2c7.4-7.6,16.3-13.4,25.4-17.3c-3.9,9-9.8,18-17.3,25.4c-3.2,3.2-6.6,6.1-10.2,8.7h69.4
		c-3.6-2.6-7-5.5-10.2-8.7c-7.6-7.4-13.4-16.3-17.3-25.4c9,3.9,18,9.8,25.4,17.3c3.2,3.2,6.1,6.6,8.7,10.2v-69.4
		C338.7,545.1,335.8,548.5,332.6,551.7z"/>
</g>
<g>
	<path class="st3" d="M300,263.2l223.6,223.6c19.8-26.9,37.2-57.2,50.2-91.2L300,121.8L26.2,395.6c13.1,34,30.5,64.3,50.2,91.2
		L300,263.2z"/>
</g>
<g>
	<path class="st2" d="M569.8,196.4c-7.4,7.6-16.3,13.4-25.4,17.3c3.9-9,9.8-18,17.3-25.4c3.2-3.2,6.6-6.1,10.2-8.7h-69.4
		c3.6,2.6,7,5.5,10.2,8.7c7.6,7.4,13.4,16.3,17.3,25.4c-9-3.9-18-9.8-25.4-17.3c-3.2-3.2-6.1-6.6-8.7-10.2v69.4
		c2.6-3.6,5.5-7,8.7-10.2c7.4-7.6,16.3-13.4,25.4-17.3c-3.9,9-9.8,18-17.3,25.4c-3.2,3.2-6.6,6.1-10.2,8.7h69.4
		c-3.6-2.6-7-5.5-10.2-8.7c-7.6-7.4-13.4-16.3-17.3-25.4c9,3.9,18,9.8,25.4,17.3c3.2,3.2,6.1,6.6,8.7,10.2v-69.4
		C575.9,189.8,573,193.3,569.8,196.4z"/>
	<path class="st2" d="M95.3,196.4C87.9,204,79,209.9,70,213.8c3.9-9,9.8-18,17.3-25.4c3.2-3.2,6.6-6.1,10.2-8.7H28.1
		c3.6,2.6,7,5.5,10.2,8.7c7.6,7.4,13.4,16.3,17.3,25.4c-9-3.9-18-9.8-25.4-17.3c-3.2-3.2-6.1-6.6-8.7-10.2v69.4
		c2.6-3.6,5.5-7,8.7-10.2c7.4-7.6,16.3-13.4,25.4-17.3c-3.9,9-9.8,18-17.3,25.4c-3.2,3.2-6.6,6.1-10.2,8.7h69.4
		c-3.6-2.6-7-5.5-10.2-8.7c-7.6-7.4-13.4-16.3-17.3-25.4c9,3.9,18,9.8,25.4,17.3c3.2,3.2,6.1,6.6,8.7,10.2v-69.4
		C101.5,189.8,98.6,193.3,95.3,196.4z"/>
</g>
<g>
	<path class="st2" d="M173.2,441.3c7.6,7.4,13.4,16.3,17.3,25.4c-9-3.9-18-9.8-25.4-17.3c-3.2-3.2-6.1-6.6-8.7-10.2v69.4
		c2.6-3.6,5.5-7,8.7-10.2c7.4-7.6,16.3-13.4,25.4-17.3c-3.9,9-9.8,18-17.3,25.4c-3.2,3.2-6.6,6.1-10.2,8.7h69.4
		c-3.6-2.6-7-5.5-10.2-8.7c-7.6-7.4-13.4-16.3-17.3-25.4c9,3.9,18,9.8,25.4,17.3c3.2,3.2,6.1,6.6,8.7,10.2v-69.4
		c-2.6,3.6-5.5,7-8.7,10.2c-7.4,7.6-16.3,13.4-25.4,17.3c3.9-9,9.8-18,17.3-25.4c3.2-3.2,6.6-6.1,10.2-8.7h-69.4
		C166.5,435.1,170,438.1,173.2,441.3z"/>
	<path class="st2" d="M377.8,441.3c7.6,7.4,13.4,16.3,17.3,25.4c-9-3.9-18-9.8-25.4-17.3c-3.2-3.2-6.1-6.6-8.7-10.2v69.4
		c2.6-3.6,5.5-7,8.7-10.2c7.4-7.6,16.3-13.4,25.4-17.3c-3.9,9-9.8,18-17.3,25.4c-3.2,3.2-6.6,6.1-10.2,8.7h69.4
		c-3.6-2.6-7-5.5-10.2-8.7c-7.6-7.4-13.4-16.3-17.3-25.4c9,3.9,18,9.8,25.4,17.3c3.2,3.2,6.1,6.6,8.7,10.2v-69.4
		c-2.6,3.6-5.5,7-8.7,10.2c-7.4,7.6-16.3,13.4-25.4,17.3c3.9-9,9.8-18,17.3-25.4c3.2-3.2,6.6-6.1,10.2-8.7h-69.4
		C371.2,435.1,374.7,438.1,377.8,441.3z"/>
</g>
<radialGradient id="path2875_1_" cx="-150.8229" cy="-75.3693" r="299.8217" gradientTransform="matrix(1.3532 0 0 1.3491 426.0664 321.1112)" gradientUnits="userSpaceOnUse">
	<stop  offset="0" style="stop-color:#FFFFFF;stop-opacity:0.3137"/>
	<stop  offset="0.19" style="stop-color:#FFFFFF;stop-opacity:0.251"/>
	<stop  offset="0.6" style="stop-color:#6B6B6B;stop-opacity:0.1255"/>
	<stop  offset="1" style="stop-color:#000000;stop-opacity:0.1255"/>
</radialGradient>
<path id="path2875_3_" class="st4" d="M300,657.9c0,0,298.5-112.3,298.5-397.8V1.5H1.5v258.6C1.5,545.6,300,657.9,300,657.9z"/>
</svg>
