<?xml version="1.0" encoding="UTF-8" standalone="no"?>
<svg
   xmlns:dc="http://purl.org/dc/elements/1.1/"
   xmlns:cc="http://creativecommons.org/ns#"
   xmlns:rdf="http://www.w3.org/1999/02/22-rdf-syntax-ns#"
   xmlns:svg="http://www.w3.org/2000/svg"
   xmlns="http://www.w3.org/2000/svg"
   xmlns:xlink="http://www.w3.org/1999/xlink"
   id="svg2"
   version="1.0"
   width="600"
   height="660">
  <metadata
     id="metadata49">
    <rdf:RDF>
      <cc:Work
         rdf:about="">
        <dc:format>image/svg+xml</dc:format>
        <dc:type
           rdf:resource="http://purl.org/dc/dcmitype/StillImage" />
        <dc:title></dc:title>
        <dc:date>03-AUG-2006</dc:date>
        <dc:creator>
          <cc:Agent>
            <dc:title>Jérôme BLUM (wagner51)</dc:title>
          </cc:Agent>
        </dc:creator>
        <cc:license
           rdf:resource="http://web.resource.org/cc/PublicDomain" />
        <dc:language>fr</dc:language>
        <dc:subject>
          <rdf:Bag>
            <rdf:li>gabarit modèle blason projet wikipédia</rdf:li>
          </rdf:Bag>
        </dc:subject>
      </cc:Work>
      <cc:License
         rdf:about="http://web.resource.org/cc/PublicDomain">
        <cc:permits
           rdf:resource="http://web.resource.org/cc/Reproduction" />
        <cc:permits
           rdf:resource="http://web.resource.org/cc/Distribution" />
        <cc:permits
           rdf:resource="http://web.resource.org/cc/DerivativeWorks" />
      </cc:License>
    </rdf:RDF>
  </metadata>
  <desc
     id="desc4">Flag of Canton of Valais (Wallis)</desc>
  <defs
     id="defs6">
    <linearGradient
       id="linearGradient2893">
      <stop
         id="stop2895"
         offset="0"
         style="stop-color:white;stop-opacity:0.3137255;" />
      <stop
         style="stop-color:white;stop-opacity:0.25098041;"
         offset="0.19"
         id="stop2897" />
      <stop
         id="stop2901"
         offset="0.60000002"
         style="stop-color:#6b6b6b;stop-opacity:0.1254902;" />
      <stop
         id="stop2899"
         offset="1"
         style="stop-color:black;stop-opacity:0.1254902;" />
    </linearGradient>
    <radialGradient
       r="300"
       fy="226.33101"
       fx="221.44487"
       cy="226.33101"
       cx="221.44487"
       gradientTransform="matrix(1.353218,0,0,1.348928,-77.62935,-85.74693)"
       gradientUnits="userSpaceOnUse"
       id="radialGradient3163"
       xlink:href="#linearGradient2893" />
    <g
       id="s">
      <g
         id="c">
        <path
           transform="matrix(0.951057,0.309017,-0.309017,0.951057,0,-1)"
           d="M 0,0 L 0,1 L 0.5,1 L 0,0 z "
           id="t" />
        <use
           height="540"
           width="810"
           y="0"
           x="0"
           id="use2144"
           transform="scale(-1,1)"
           xlink:href="#t" />
      </g>
      <g
         id="a">
        <use
           height="540"
           width="810"
           y="0"
           x="0"
           id="use2147"
           transform="matrix(0.309017,0.951057,-0.951057,0.309017,0,0)"
           xlink:href="#c" />
        <use
           height="540"
           width="810"
           y="0"
           x="0"
           id="use2149"
           transform="matrix(-0.809017,0.587785,-0.587785,-0.809017,0,0)"
           xlink:href="#c" />
      </g>
      <use
         height="540"
         width="810"
         y="0"
         x="0"
         id="use2151"
         transform="scale(-1,1)"
         xlink:href="#a" />
    </g>
  </defs>
  <g
     style="display:inline"
     id="layer3">
    <path
       d="m 299.99993,658.5 c 0,0 298.50001,-112.32031 298.50001,-397.77183 0,-285.451524 0,-258.5516935 0,-258.5516935 H 1.5 V 260.72817 C 1.5,546.17969 299.99993,658.5 299.99993,658.5 Z"
       style="fill:#fcef3c;fill-opacity:1;fill-rule:evenodd;stroke:none;stroke-width:1px;stroke-linecap:butt;stroke-linejoin:miter;stroke-opacity:1"
       id="path2855" />
    <g
       style="stroke:#313131;stroke-width:3;stroke-miterlimit:4;stroke-dasharray:none;stroke-opacity:1"
       transform="translate(-38.144066,-6.3492064)"
       id="g4519">
      <g
         style="fill:#000000;stroke:#313131;stroke-width:1.1063143;stroke-miterlimit:4;stroke-dasharray:none;stroke-opacity:1"
         transform="matrix(-1.9174662,-1.9174662,-1.9174662,1.9174662,634.87344,144.7647)"
         id="g4485">
        <g
           style="fill:#000000;stroke:#313131;stroke-width:1.11605859;stroke-miterlimit:4;stroke-dasharray:none;stroke-opacity:1"
           transform="matrix(0.991269,0,0,0.991269,96.88623,-3.225443)"
           id="g4487">
          <path
             d="m -78.760528,3.4097594 c -10.387489,0.7180749 -18.593749,9.4249286 -18.59375,19.9999996 0,1.725665 0.213646,3.403268 0.625,5 h 5.78125 c -0.568383,-1.549244 -0.875,-3.252766 -0.875,-5 -3e-6,-7.73775 6.081605,-14.0809641 13.71875,-14.4687496 0.246356,-0.012509 0.500551,0 0.75,0 7.982362,-1e-7 14.4375,6.4813946 14.4375,14.4687496 10e-7,3.993677 -1.613784,7.610864 -4.225365,10.229633 -2.61158,2.618768 -5.708584,4.789038 -7.685399,6.22441 -1.995607,1.449016 -2.775502,3.453133 -2.766208,5.531249 0.0093,2.078116 0.270722,14.639708 0.270722,14.639708 h 6 c 0,0 0,-4.390625 0,-8.78125 0,-4.390625 -0.507363,-6.958184 1.173127,-8.330047 1.735206,-1.416529 6.365415,-4.261845 8.846014,-7.589878 2.480599,-3.328033 3.949609,-7.453591 3.949609,-11.923825 0,-11.044256 -8.96265,-19.9999996 -20,-19.9999996 -0.301802,0 -0.607698,-0.013263 -0.90625,0 -0.08297,0.00369 -0.167296,-0.0047 -0.25,0 -0.08206,0.00466 -0.168209,-0.00565 -0.25,0 z"
             style="fill:#000000;fill-opacity:1;fill-rule:nonzero;stroke:#313131;stroke-width:1.11605859;stroke-miterlimit:4;stroke-dasharray:none;stroke-opacity:1"
             id="path4489" />
          <g
             transform="translate(0.270722,-0.09024056)"
             style="fill:#000000;fill-opacity:1;stroke:#313131;stroke-width:1.11605859;stroke-miterlimit:4;stroke-dasharray:none;stroke-opacity:1"
             id="g4491">
            <path
               d="m -84.220228,41.896074 c 2.597268,1.524453 1.408194,5.095966 -1.480355,4.195504 0,0 3.873725,5.041033 6.894778,2.01998 2.404701,-2.417433 1.078454,-4.973854 -1.553125,-6.257914 2.062323,-1.528681 4.344329,-0.482691 4.344329,-0.482691 -0.418735,-5.948392 -8.448044,-4.573665 -12.438012,-7.340937 2.412494,1.462822 6.522069,2.095519 7.609774,1.804069 6.611175,-1.771459 7.788193,-4.750206 8.652282,-7.975029 0.388894,-1.451372 1.125793,-2.02067 2.32884,-2.421797 1.203054,-0.401134 4.085076,-4.424798 3.159504,-5.8129 -1.376767,1.319121 -2.957323,2.116039 -5.303811,2.146032 1.894818,-1.774831 1.348472,-3.455865 2.135038,-4.180865 0.78658,-0.725003 2.013561,-2.178154 2.013561,-2.178154 0,0 -2.821233,-1.861767 -5.783281,1.165766 0.647573,-2.838104 -0.04744,-5.699976 -1.26601,-6.42481 -1.218569,-0.7248344 -5.213511,-1.6036734 -5.213511,-1.6036734 2.802162,2.7090564 2.769678,4.8781074 0.238884,7.5308614 l -0.423591,-2.996134 c -1.803145,-0.227923 -3.930177,0.775891 -3.946273,2.926521 0.317544,2.025489 3.178376,4.559764 4.288009,6.136705 -2.02067,-1.125793 -7.36502,0.352108 -6.239051,0.336593 3.276003,1.052576 7.356471,3.730675 4.808156,7.371833 -3.161504,3.128828 -7.158264,1.135946 -9.120398,-2.210366 0,0 -1.34206,-1.711968 0,0 2.705053,2.738534 6.267076,0.06551 6.259669,-3.228083 -9.363431,2.252975 -10.335877,-7.888382 -11.710902,-9.234283 -7.580046,18.898038 9.90989,25.06354 11.745496,26.713772 z"
               style="fill:#000000;fill-opacity:1;fill-rule:evenodd;stroke:#313131;stroke-width:1.11605859;stroke-linecap:butt;stroke-linejoin:miter;stroke-miterlimit:4;stroke-dasharray:none;stroke-opacity:1"
               id="path4493" />
            <g
               style="fill:#000000;fill-opacity:1;stroke:#313131;stroke-width:1.11605859;stroke-miterlimit:4;stroke-dasharray:none;stroke-opacity:1"
               id="g4495">
              <path
                 d="m -89.953409,31.502403 c 4.418709,2.5782 9.508518,3.394224 12.22461,-1.254862 0.476097,-0.877293 0.925196,-1.920752 1.247213,-3.077392 0.37899,-1.591232 0.660219,-3.241308 0.679518,-4.880606 -0.05853,-1.61026 -0.345863,-3.040773 -0.596432,-4.012415 -0.374057,-3.194655 2.112834,-4.638169 -0.215734,-7.177414 m -5.63363,4.93262 c 0.336031,1.51193 1.506512,2.403196 2.712993,3.372214 1.312364,1.054061 1.813981,2.337748 3.732803,2.884995 m 5.233952,-6.316839 c -3.054246,2.144443 -1.656333,4.870386 -5.233952,6.316839 m 7.192094,0.09024 c -1.432053,1.481779 -3.086784,1.865271 -4.263374,2.075307 -1.35709,0.09823 -2.824068,0.743198 -3.553734,2.379117 m -5.782066,-4.003221 c 3.376275,0.917837 5.448908,3.576019 4.674056,7.0858 m -16.044366,-7.0858 c 1.620394,2.138394 4.456034,4.79401 7.426283,3.496876 m 7.192687,13.73907 c -1.338831,-2.114825 -4.131138,-1.191857 -7.046324,-2.420833 -1.094007,-0.502897 -2.14285,-1.173502 -3.2411,-1.910714 m 6.046118,11.370311 c 2.736617,0.423144 2.900471,-1.291901 2.281384,-3.128621 -0.509018,-1.324816 -1.422758,-2.272538 -2.425381,-3.264863 -1.239644,-0.992105 -3.040981,-3.223105 -3.040981,-3.223105"
                 style="fill:none;fill-opacity:1;fill-rule:evenodd;stroke:#313131;stroke-width:1.11605859;stroke-linecap:butt;stroke-linejoin:miter;stroke-miterlimit:4;stroke-dasharray:none;stroke-opacity:1"
                 id="path4497" />
            </g>
          </g>
          <g
             transform="translate(0.46875,-2)"
             style="fill:#000000;fill-opacity:1;stroke:#313131;stroke-width:1.11605859;stroke-miterlimit:4;stroke-dasharray:none;stroke-opacity:1"
             id="g4499">
            <path
               d="m -79.37224,202.36688 c -1.263368,1.80481 -0.550472,6.86864 -5.0625,8.3125 7.90842,4.56593 9.497528,21.24401 9.53125,21.40625 0.04381,-0.16351 1.908207,-16.98704 9.5625,-21.40625 -4.512028,-1.44386 -3.799127,-6.50769 -5.0625,-8.3125 -0.194377,-4.09356 -3.722656,-3.40625 -4.84375,-3.40625 -1.121095,0 -4.125,-0.19629 -4.125,3.40625 z"
               style="fill:#000000;fill-opacity:1;fill-rule:evenodd;stroke:#313131;stroke-width:1.11605859;stroke-linecap:butt;stroke-linejoin:miter;stroke-miterlimit:4;stroke-dasharray:none;stroke-opacity:1"
               id="path4501" />
            <path
               d="M -74.887865,229.22198 V 205.875"
               style="fill:#000000;fill-opacity:1;fill-rule:evenodd;stroke:#313131;stroke-width:1.11605859;stroke-linecap:butt;stroke-linejoin:miter;stroke-miterlimit:4;stroke-dasharray:none;stroke-opacity:1"
               id="path4503" />
          </g>
          <rect
             width="5.9558768"
             height="137.12163"
             x="-77.397057"
             y="60.032104"
             style="fill:#000000;fill-opacity:1;fill-rule:nonzero;stroke:#313131;stroke-width:1.11605859;stroke-miterlimit:4;stroke-dasharray:none;stroke-opacity:1"
             id="rect4505" />
          <g
             transform="translate(-0.150979)"
             style="fill:#000000;fill-opacity:1;stroke:#313131;stroke-width:1.11605859;stroke-miterlimit:4;stroke-dasharray:none;stroke-opacity:1"
             id="g4507">
            <path
               d="m -68.384549,59.244157 c 0.06447,2.851436 -0.920274,2.815124 -5.883182,2.815124 -4.879362,0 -5.810452,-0.108239 -5.883181,-2.815124 -0.07673,-2.855684 1.011335,-2.815123 5.883181,-2.815123 4.601125,0 5.815344,-0.185059 5.883182,2.815123 z"
               style="fill:#000000;fill-opacity:1;fill-rule:nonzero;stroke:#313131;stroke-width:1.11605859;stroke-miterlimit:4;stroke-dasharray:none;stroke-opacity:1"
               id="path4509" />
            <path
               d="m -67.335386,59.243743 c 0.07597,1.78239 -3.105751,1.759691 -6.932481,1.759691 -3.826728,0 -6.846779,-0.06766 -6.932479,-1.759691 -0.09041,-1.785045 3.105751,-1.759691 6.932479,-1.759691 3.82673,0 6.852543,-0.115677 6.932481,1.759691 z"
               style="fill:#000000;fill-opacity:1;fill-rule:nonzero;stroke:#313131;stroke-width:1.11605859;stroke-miterlimit:4;stroke-dasharray:none;stroke-opacity:1"
               id="path4511" />
          </g>
          <g
             transform="translate(-0.150979,138.7596)"
             style="fill:#000000;fill-opacity:1;stroke:#313131;stroke-width:1.11605859;stroke-miterlimit:4;stroke-dasharray:none;stroke-opacity:1"
             id="g4513">
            <path
               d="m -68.384549,59.244157 c 0.06447,2.851436 -0.920274,2.815124 -5.883182,2.815124 -4.879362,0 -5.810452,-0.108239 -5.883181,-2.815124 -0.07673,-2.855684 1.011335,-2.815123 5.883181,-2.815123 4.601125,0 5.815344,-0.185059 5.883182,2.815123 z"
               style="fill:#000000;fill-opacity:1;fill-rule:nonzero;stroke:#313131;stroke-width:1.11605859;stroke-miterlimit:4;stroke-dasharray:none;stroke-opacity:1"
               id="path4515" />
            <path
               d="m -67.335386,59.243743 c 0.07597,1.78239 -3.105751,1.759691 -6.932481,1.759691 -3.826728,0 -6.846779,-0.06766 -6.932479,-1.759691 -0.09041,-1.785045 3.105751,-1.759691 6.932479,-1.759691 3.82673,0 6.852543,-0.115677 6.932481,1.759691 z"
               style="fill:#000000;fill-opacity:1;fill-rule:nonzero;stroke:#313131;stroke-width:1.11605859;stroke-miterlimit:4;stroke-dasharray:none;stroke-opacity:1"
               id="path4517" />
          </g>
        </g>
      </g>
      <use
         transform="matrix(-1,0,0,1,675.76717,0)"
         height="100%"
         width="100%"
         id="use895"
         xlink:href="#g4485"
         y="0"
         x="0" />
    </g>
    <g
       style="fill:#000000;stroke:#313131;stroke-width:3;stroke-miterlimit:4;stroke-dasharray:none;stroke-opacity:1"
       transform="translate(149.19525,30.404364)"
       id="g6729">
      <g
         style="fill:#000000;stroke:#313131;stroke-width:6.33386183;stroke-miterlimit:4;stroke-dasharray:none;stroke-opacity:1"
         id="g1892"
         transform="matrix(0.469225,0,0,0.478106,-25.55671,-141.5733)">
        <path
           id="path9932"
           style="fill:#000000;fill-opacity:1;fill-rule:evenodd;stroke:#313131;stroke-width:6.33386183;stroke-linecap:butt;stroke-linejoin:miter;stroke-miterlimit:4;stroke-dasharray:none;stroke-opacity:1"
           d="m 225.06956,598.83523 c 0.85136,-2.82131 -4.26341,-13.57758 25.4632,-55.07503 -68.67222,-69.63281 -94.37141,-165.13559 -41.53249,-233.46641 l -3.91386,-7.82772 -37.57308,34.44199 h -21.13486 c -12.65978,-7.49414 -20.23556,-22.61427 -28.96259,-36.00754 -4.44788,5.01298 -9.72805,8.71809 0,36.00754 43.52808,39.39955 38.43619,78.79911 42.26972,118.19866 -23.57779,6.47137 -44.97896,-21.88313 -66.535665,-47.74913 -8.68929,-15.11875 -20.840791,-18.11977 -33.65922,-18.78654 25.17054,47.02398 46.859495,97.89601 110.370935,102.54321 l 58.70794,76.71171 c -45.65843,8.22628 -99.44303,-0.92869 -126.02638,-35.22477 -5.453091,-0.91624 -9.095812,-1.73308 -6.262185,6.67324 46.227885,56.10231 62.464165,62.98965 122.735775,63.01847 8.9908,0.004 5.30072,-0.96551 6.05276,-3.45768 z m 24.39431,-4.1106 c 2.68908,-0.60162 8.50967,-2.00401 11.19939,-2.63271 3.64371,4.43802 6.1657,9.15647 1.56555,15.65545 -8.95926,4.66907 -10.23755,-3.46346 -13.30714,-8.6105 0.7081,-11.97739 12.4261,-26.69952 21.13486,-42.26972 20.31709,-37.71787 11.30172,-50.99202 7.82773,-68.88398 -2.8693,-3.12761 -2.00766,-6.98697 -3.91386,-6.26218 -7.00554,37.52996 -26.10049,66.73075 -40.1171,88.45329 -8.00731,14.82729 -20.15958,45.46502 12.72006,62.62181 18.422,1.71519 32.15385,0.0803 36.00753,-8.6105 11.28364,-4.04166 19.48207,-1.9129 26.61427,2.34832 l 21.13486,-24.26595 C 308.51909,591.18313 286.535,575.8794 268.70548,560.91605" />
        <path
           id="path1890"
           style="fill:#000000;fill-opacity:1;fill-rule:evenodd;stroke:#313131;stroke-width:6.33386183;stroke-linecap:butt;stroke-linejoin:miter;stroke-miterlimit:4;stroke-dasharray:none;stroke-opacity:1"
           d="m 525.63565,598.83523 c -0.85136,-2.82131 4.26341,-13.57758 -25.4632,-55.07503 68.67222,-69.63281 94.37141,-165.13559 41.53249,-233.46641 l 3.91386,-7.82772 37.57308,34.44199 h 21.13486 c 12.65977,-7.49414 20.23555,-22.61427 28.96259,-36.00754 4.44788,5.01298 9.72804,8.71809 0,36.00754 -43.52808,39.39955 -38.43619,78.79911 -42.26972,118.19866 23.57779,6.47137 44.97896,-21.88313 66.53566,-47.74913 8.68929,-15.11875 20.84079,-18.11977 33.65922,-18.78654 -25.17054,47.02398 -46.85949,97.89601 -110.37093,102.54321 l -58.70794,76.71171 c 45.65843,8.22628 99.44302,-0.92869 126.02638,-35.22477 5.45309,-0.91624 9.09581,-1.73308 6.26218,6.67324 -46.22788,56.10231 -62.46416,62.98965 -122.73577,63.01847 -8.9908,0.004 -5.30072,-0.96551 -6.05276,-3.45768 z m -24.39431,-4.1106 c -2.68908,-0.60162 -8.50967,-2.00401 -11.19939,-2.63271 -3.64371,4.43802 -6.1657,9.15647 -1.56555,15.65545 8.95926,4.66907 10.23755,-3.46346 13.30714,-8.6105 -0.7081,-11.97739 -12.42611,-26.69952 -21.13486,-42.26972 -20.31709,-37.71787 -11.30172,-50.99202 -7.82773,-68.88398 2.8693,-3.12761 2.00766,-6.98697 3.91386,-6.26218 7.00554,37.52996 26.10049,66.73075 40.1171,88.45329 8.00731,14.82729 20.15958,45.46502 -12.72006,62.62181 -18.422,1.71519 -32.15385,0.0803 -36.00753,-8.6105 -11.28364,-4.04166 -19.48207,-1.9129 -26.61427,2.34832 l -21.13486,-24.26595 c 21.81093,-11.08483 43.79501,-26.38856 61.62453,-41.35191" />
      </g>
      <g
         style="fill:#000000;stroke:#313131;stroke-width:3;stroke-miterlimit:4;stroke-dasharray:none;stroke-opacity:1"
         id="g6709">
        <path
           style="fill:#000000;fill-opacity:1;fill-rule:evenodd;stroke:#313131;stroke-width:3;stroke-linecap:butt;stroke-linejoin:miter;stroke-miterlimit:4;stroke-dasharray:none;stroke-opacity:1"
           d="m 117.9581,165.06156 c -7.59223,-2.47531 -11.42421,-6.71822 -17.72192,-8.9175 -6.297729,-2.19927 -11.876452,1.75002 -15.585232,0.10277 -3.708753,-1.64723 1.962026,9.83948 8.085059,12.85798 6.12306,3.01848 20.865993,4.59966 25.066133,3.78226 1.32963,-4.19857 -0.0187,-7.0063 0.15596,-7.82551 z"
           id="path1974" />
        <path
           style="display:inline;fill:#000000;fill-opacity:1;fill-rule:evenodd;stroke:#313131;stroke-width:3;stroke-linecap:butt;stroke-linejoin:miter;stroke-miterlimit:4;stroke-dasharray:none;stroke-opacity:1"
           d="m 182.72617,165.95296 c 7.50119,-2.73876 11.18275,-7.11284 17.39987,-9.53057 6.21714,-2.41773 11.93031,1.33445 15.57932,-0.44123 3.64901,-1.77567 -1.61742,9.90196 -7.63136,13.13232 -6.01399,3.23034 -21.12599,5.28161 -25.35211,4.6113 0.1962,-4.14961 0.20743,-6.95919 0.004,-7.77182 z"
           id="path1976" />
        <path
           d="m 148.21373,142.88122 c -7.35188,-0.0473 -13.80503,3.15689 -18.69631,4.82149 -3.65397,0.81754 -6.5567,4.16329 -10.26928,10.23267 -1.04711,12.9687 -1.6801,22.00774 0.46247,28.65571 2.41627,15.78154 7.66727,22.14021 12.26929,31.25047 3.47001,6.86929 3.52176,17.3432 5.0701,24.64992 4.81069,9.21645 8.78828,7.64058 12.7459,5.91748 3.91818,1.811 7.84482,3.47508 12.86002,-5.63169 1.71104,-7.27034 1.35411,-17.85981 4.97657,-24.64993 4.80422,-9.00529 10.83824,-15.12587 13.60613,-30.84956 2.2904,-6.59848 1.85933,-15.64941 1.10191,-28.63824 -3.57619,-6.15074 -6.40354,-9.56043 -10.03834,-10.45932 -5.34172,-1.95198 -12.59777,-5.2501 -20.88605,-5.24821 -0.3201,-0.009 -2.46191,-0.046 -3.20241,-0.0508 z"
           style="fill:#000000;fill-opacity:1;fill-rule:evenodd;stroke:#313131;stroke-width:3;stroke-linecap:butt;stroke-linejoin:miter;stroke-miterlimit:4;stroke-dasharray:none;stroke-opacity:1"
           id="path2114" />
        <path
           d="m 141.3775,231.00438 1.93633,7.69181 6.22182,5.91987 0.15191,3.58115 0.20662,0.002 0.2318,-3.57685 6.35238,-5.77954 2.1075,-7.64668 -8.63035,2.24986 z"
           style="fill:#000000;fill-opacity:1;fill-rule:evenodd;stroke:#313131;stroke-width:3;stroke-linecap:butt;stroke-linejoin:miter;stroke-miterlimit:4;stroke-dasharray:none;stroke-opacity:1"
           id="path2116" />
        <path
           id="path2118"
           style="fill:#000000;fill-opacity:1;fill-rule:evenodd;stroke:#313131;stroke-width:3;stroke-linecap:butt;stroke-linejoin:miter;stroke-miterlimit:4;stroke-dasharray:none;stroke-opacity:1"
           d="m 155.18314,189.10311 c 3.82185,-15.73722 15.10765,-17.10182 21.85838,-19.77389" />
        <path
           d="m 132.32814,149.43453 c 6.24624,2.49779 14.03282,24.692 17.45409,31.13659 2.91668,-6.81727 10.33929,-27.92801 17.69604,-30.79705 -4.73801,1.5554 -14.21926,11.61631 -17.52549,17.22111 -4.29869,-4.44149 -11.8542,-15.63638 -17.62464,-17.56065 z"
           style="fill:#000000;fill-opacity:1;fill-rule:evenodd;stroke:#313131;stroke-width:3;stroke-linecap:butt;stroke-linejoin:miter;stroke-miterlimit:4;stroke-dasharray:none;stroke-opacity:1"
           id="path2126" />
        <path
           d="m 157.69384,227.7461 c -3.57449,-17.98557 -2.47835,-34.11953 -2.47835,-34.11953"
           style="fill:#000000;fill-opacity:1;fill-rule:evenodd;stroke:#313131;stroke-width:3;stroke-linecap:butt;stroke-linejoin:miter;stroke-miterlimit:4;stroke-dasharray:none;stroke-opacity:1"
           id="path2128" />
        <path
           id="path1958"
           style="display:inline;fill:#000000;fill-opacity:1;fill-rule:evenodd;stroke:#313131;stroke-width:3;stroke-linecap:butt;stroke-linejoin:miter;stroke-miterlimit:4;stroke-dasharray:none;stroke-opacity:1"
           d="M 144.27156,188.9155 C 140.4497,173.17829 129.1639,171.81368 122.41317,169.14161" />
        <path
           d="m 141.76085,227.55849 c 3.5745,-17.98556 2.47836,-34.11952 2.47836,-34.11952"
           style="display:inline;fill:#000000;fill-opacity:1;fill-rule:evenodd;stroke:#313131;stroke-width:3;stroke-linecap:butt;stroke-linejoin:miter;stroke-miterlimit:4;stroke-dasharray:none;stroke-opacity:1"
           id="path1960" />
        <path
           style="fill:#000000;fill-opacity:1;fill-rule:evenodd;stroke:#313131;stroke-width:3;stroke-linecap:butt;stroke-linejoin:miter;stroke-miterlimit:4;stroke-dasharray:none;stroke-opacity:1"
           d="m 132.30749,148.23751 -4.35632,-4.3476 -0.34183,4.90889 -7.08307,-2.30453 3.14899,6.01916 -7.57264,0.37587 4.17886,3.4358 -6.95632,1.99673 7.00701,2.37623"
           id="path1980" />
        <path
           style="display:inline;fill:#000000;fill-opacity:1;fill-rule:evenodd;stroke:#313131;stroke-width:3;stroke-linecap:butt;stroke-linejoin:miter;stroke-miterlimit:4;stroke-dasharray:none;stroke-opacity:1"
           d="m 169.8514,148.68284 4.35631,-4.3476 0.34183,4.90888 7.08307,-2.30452 -3.14898,6.01916 7.57264,0.37587 -4.17887,3.4358 6.95632,1.99672 -7.00701,2.37624"
           id="path1984" />
        <path
           style="fill:#000000;fill-opacity:1;fill-rule:evenodd;stroke:#313131;stroke-width:3;stroke-linecap:butt;stroke-linejoin:miter;stroke-miterlimit:4;stroke-dasharray:none;stroke-opacity:1"
           d="m 136.65349,145.95236 -4.13686,-2.36391 7.97823,0.59098 -2.65941,-2.06843 6.20529,0.29549 v -2.06843 l 5.61432,1.18196 0.59097,1.18196 0.88647,-1.18196 6.79628,-0.59097 -1.18196,2.06842 6.20529,-0.88647 -0.88647,2.36392 h 7.09176 l -0.59098,2.65941"
           id="path1986" />
        <g
           style="fill:#000000;stroke:#313131;stroke-width:3;stroke-miterlimit:4;stroke-dasharray:none;stroke-opacity:1"
           id="g5816">
          <path
             d="m 137.85604,186.62094 -2.17915,-3.42306 c -4.01195,-6.22489 -7.39175,-8.31693 -13.22782,-8.76964 0.74707,3.80305 -3.12632,17.36136 12.49442,12.30611 z"
             style="fill:#000000;fill-opacity:1;fill-rule:evenodd;stroke:#313131;stroke-width:3;stroke-linecap:butt;stroke-linejoin:miter;stroke-miterlimit:4;stroke-dasharray:none;stroke-opacity:1"
             id="path1970" />
          <path
             d="m 125.31466,182.12085 c 0.56615,2.58845 2.62779,4.33639 4.60334,3.9029 1.97555,-0.43348 3.11593,-2.88404 2.54632,-5.47172 -0.56616,-2.58845 -2.6278,-4.33639 -4.60335,-3.9029 -1.97555,0.43348 -3.11593,2.88403 -2.54631,5.47172 z"
             style="display:inline;overflow:visible;visibility:visible;fill:#000000;fill-opacity:1;fill-rule:nonzero;stroke:#313131;stroke-width:3;stroke-linecap:butt;stroke-linejoin:miter;stroke-miterlimit:4;stroke-dasharray:none;stroke-dashoffset:0;stroke-opacity:1;marker:none;marker-start:none;marker-mid:none;marker-end:none"
             id="path1972" />
        </g>
        <g
           style="fill:#000000;stroke:#313131;stroke-width:3;stroke-miterlimit:4;stroke-dasharray:none;stroke-opacity:1"
           id="g5820">
          <path
             d="m 161.7598,186.62094 2.17915,-3.42306 c 4.01195,-6.22489 7.39175,-8.31693 13.22782,-8.76964 -0.74707,3.80305 3.12632,17.36136 -12.49442,12.30611 z"
             style="fill:#000000;fill-opacity:1;fill-rule:evenodd;stroke:#313131;stroke-width:3;stroke-linecap:butt;stroke-linejoin:miter;stroke-miterlimit:4;stroke-dasharray:none;stroke-opacity:1"
             id="path4899" />
          <path
             d="m 174.30118,182.12085 c -0.56615,2.58845 -2.62779,4.33639 -4.60334,3.9029 -1.97555,-0.43348 -3.11593,-2.88404 -2.54632,-5.47172 0.56616,-2.58845 2.6278,-4.33639 4.60335,-3.9029 1.97555,0.43348 3.11593,2.88403 2.54631,5.47172 z"
             style="display:inline;overflow:visible;visibility:visible;fill:#000000;fill-opacity:1;fill-rule:nonzero;stroke:#313131;stroke-width:3;stroke-linecap:butt;stroke-linejoin:miter;stroke-miterlimit:4;stroke-dasharray:none;stroke-dashoffset:0;stroke-opacity:1;marker:none;marker-start:none;marker-mid:none;marker-end:none"
             id="path4901" />
        </g>
      </g>
    </g>
    <path
       d="m 177.17887,404.84676 c -29.59617,9.56938 -62.86764,-6.15782 -72.43702,-35.75399 -9.569323,-29.59617 6.68424,-61.3827 36.2804,-70.95208 29.59618,-9.56938 61.38271,6.68424 70.95209,36.28041 9.22868,28.54244 -6.81351,59.61598 -34.79547,70.42566 z m 282.84271,0 c -29.59616,9.56938 -62.86763,-6.15782 -72.43701,-35.75399 -9.56939,-29.59617 6.68424,-61.3827 36.2804,-70.95208 29.59617,-9.56938 61.3827,6.68424 70.95208,36.28041 9.22868,28.54244 -6.81351,59.61598 -34.79547,70.42566 z M 318.60022,550.19649 c -29.59617,9.56938 -62.86764,-6.15782 -72.43702,-35.75399 -9.56939,-29.59617 6.68424,-61.3827 36.2804,-70.95208 29.59617,-9.56938 61.38271,6.68424 70.95209,36.28041 9.22868,28.54244 -6.81351,59.61598 -34.79547,70.42566 z"
       style="fill:#e20909;stroke:#000000;stroke-width:3;stroke-miterlimit:4;stroke-dasharray:none;stroke-opacity:1"
       id="path4702" />
  </g>
  <g
     style="display:inline"
     id="layer2">
    <path
       id="path2875"
       style="opacity:1;fill:url(#radialGradient3163);fill-opacity:1;fill-rule:evenodd;stroke:none;stroke-width:1px;stroke-linecap:butt;stroke-linejoin:miter;stroke-opacity:1"
       d="m 300.00001,658.5 c 0,0 298.5,-112.32031 298.5,-397.77183 0,-285.451504 0,-258.5516835 0,-258.5516835 H 1.5 V 260.72817 C 1.5,546.17969 300.00001,658.5 300.00001,658.5 Z" />
  </g>
  <g
     id="layer1">
    <path
       id="path1411"
       style="opacity:1;fill:none;fill-opacity:1;fill-rule:evenodd;stroke:#000000;stroke-width:3.00000048;stroke-linecap:butt;stroke-linejoin:miter;stroke-miterlimit:4;stroke-dasharray:none;stroke-opacity:1"
       d="M 299.99999,658.39715 C 299.99999,658.39715 1.5,545.97874 1.5,260.2779 1.5,-25.422918 1.5,1.5003973 1.5,1.5003973 H 598.49999 V 260.2779 c 0,285.70084 -298.5,398.11925 -298.5,398.11925 z" />
  </g>
</svg>
