<?xml version="1.0" encoding="utf-8"?>
<!-- Generator: Adobe Illustrator 19.2.0, SVG Export Plug-In . SVG Version: 6.00 Build 0)  -->
<svg version="1.1"
	 id="svg2" inkscape:export-filename="/Users/olivier/Desktop/Blason Rouge/Blason_Vide_3D.png" inkscape:export-xdpi="144" inkscape:export-ydpi="144" inkscape:output_extension="org.inkscape.output.svg.inkscape" inkscape:version="0.91 r13725" sodipodi:docname="Template.svg" sodipodi:version="0.32" xmlns:cc="http://creativecommons.org/ns#" xmlns:dc="http://purl.org/dc/elements/1.1/" xmlns:inkscape="http://www.inkscape.org/namespaces/inkscape" xmlns:rdf="http://www.w3.org/1999/02/22-rdf-syntax-ns#" xmlns:sodipodi="http://sodipodi.sourceforge.net/DTD/sodipodi-0.dtd" xmlns:svg="http://www.w3.org/2000/svg"
	 xmlns="http://www.w3.org/2000/svg" xmlns:xlink="http://www.w3.org/1999/xlink" x="0px" y="0px" viewBox="0 0 600 659.5"
	 style="enable-background:new 0 0 600 659.5;" xml:space="preserve">
<style type="text/css">
	.st0{fill:#FFFFFF;}
	.st1{fill:#E20909;stroke:#000000;stroke-width:3;}
	.st2{fill:#FCEF3C;stroke:#000000;stroke-width:2;}
	.st3{fill:url(#path2875_1_);stroke:#000000;stroke-width:3;}
</style>
<g>
	<path id="path2875_2_" class="st0" d="M300,657.9c0,0,298.5-112.3,298.5-397.8V1.5H1.5v258.6C1.5,545.6,300,657.9,300,657.9z"/>
	<g>
		<path d="M9.3,197.3c-1-0.6,3.5-4.6-3.2-9.1c6,8-10.8,11.4-1.7,19C8.3,209.9,17.3,204.1,9.3,197.3z"/>
		<path d="M16.2,207.5c-1.4,0.1-3.1,1-4.5,3.8c-1.7,4.3,5.9,11.8,11,2.7c0.4-1,5.3,2.5,8-5.1C25.9,214.4,20.9,207.1,16.2,207.5z"/>
		<path d="M2.6,211.3c-0.4-0.7-0.7-1.3-1.1-1.8v6.8C2.7,214.8,3.2,212.9,2.6,211.3z"/>
		<path d="M7.5,271.3c1.4-6.2,2.4-10.4,3.6-19.8c3.4,4.2,6.6,8.3,11.2,12L15.7,249c3.4,2.3,6.9,5.5,10.5,6.6
			c-8.2-10-15.2-23.5-18.6-42.8c-1.5,7.7-3.6,14.5-6.1,20.6v20.8c0.7-0.8,1.4-1.7,2.1-2.6C4.4,260.7,5.8,265.2,7.5,271.3z"/>
		<path d="M204.3,197.3c-1-0.6,3.5-4.6-3.2-9.1c6,8-10.8,11.4-1.7,19C203.3,209.9,212.3,204.1,204.3,197.3z"/>
		<path d="M211.2,207.5c-1.4,0.1-3.1,1-4.5,3.8c-1.7,4.3,5.9,11.8,11,2.7c0.4-1,5.3,2.5,8-5.1C220.9,214.4,215.9,207.1,211.2,207.5z
			"/>
		<path d="M186.8,214c5.1,9.3,12.5,1.7,10.8-2.7c-1.6-3.1-3.2-3.9-4.9-3.8c-4.5,0.3-9.4,6.8-13.9,1.3
			C181.4,216.6,186.5,213,186.8,214z"/>
		<path d="M202.6,212.8c-3.9,19.3-11.2,33.2-19,42.9c3.4-0.8,6.9-3.8,10.5-6.3c-2.1,5.1-4.5,9.5-6.5,13.9c1.3-0.6,5.5-4.9,11.1-11.7
			c0.8,9.1,2.1,13.5,3.9,19.6c1.4-6.2,2.4-10.4,3.6-19.8c3.4,4.2,6.6,8.3,11.2,12l-6.5-14.4c3.4,2.3,6.9,5.5,10.5,6.6
			C213,245.7,206.1,232.1,202.6,212.8z"/>
		<path d="M399.3,197.3c-1-0.6,3.5-4.6-3.2-9.1c6,8-10.8,11.4-1.7,19C398.3,209.9,407.3,204.1,399.3,197.3z"/>
		<path d="M406.2,207.5c-1.4,0.1-3.1,1-4.5,3.8c-1.7,4.3,5.9,11.8,11,2.7c0.4-1,5.3,2.5,8-5.1C415.9,214.4,410.9,207.1,406.2,207.5z
			"/>
		<path d="M381.8,214c5.1,9.3,12.5,1.7,10.8-2.7c-1.6-3.1-3.2-3.9-4.9-3.8c-4.5,0.3-9.4,6.8-13.9,1.3
			C376.4,216.6,381.5,213,381.8,214z"/>
		<path d="M397.6,212.8c-3.9,19.3-11.2,33.2-19,42.9c3.4-0.8,6.9-3.8,10.5-6.3c-2.1,5.1-4.5,9.5-6.5,13.9c1.3-0.6,5.5-4.9,11.1-11.7
			c0.8,9.1,2.1,13.5,3.9,19.6c1.4-6.2,2.4-10.4,3.6-19.8c3.4,4.2,6.6,8.3,11.2,12l-6.5-14.4c3.4,2.3,6.9,5.5,10.5,6.6
			C408,245.7,401.1,232.1,397.6,212.8z"/>
		<path d="M594.3,197.3c-1-0.6,3.5-4.6-3.2-9.1c6,8-10.8,11.4-1.7,19C593.3,209.9,602.3,204.1,594.3,197.3z"/>
		<path d="M596.8,211.3c-0.7,1.7,0.1,4,1.7,5.5v-7.9C597.9,209.4,597.3,210.2,596.8,211.3z"/>
		<path d="M582.7,207.5c-4.5,0.3-9.4,6.8-13.9,1.3c2.6,7.7,7.7,4.2,8,5.2c5.1,9.3,12.5,1.7,10.8-2.7
			C586,208.2,584.5,207.4,582.7,207.5z"/>
		<path d="M573.6,255.7c3.4-0.8,6.9-3.8,10.5-6.3c-2.1,5.1-4.5,9.5-6.5,13.9c1.3-0.6,5.5-4.9,11.1-11.7c0.8,9.1,2.1,13.5,3.9,19.6
			c1.4-6.2,2.4-10.4,3.6-19.8c0.8,1,1.6,2,2.4,3v-20.6c-2.5-6.2-4.5-13.1-5.9-21.1C588.7,232.1,581.4,246,573.6,255.7z"/>
		<path d="M4.4,12.5c3.9,2.6,12.8-3.2,4.9-10C9.1,2.4,9.2,2,9.3,1.5H5.5C2.9,4.9-1,8,4.4,12.5z"/>
		<path d="M16.2,12.7c-1.4,0.1-3.1,1-4.5,3.8c-1.7,4.3,5.9,11.8,11,2.7c0.4-1,5.3,2.5,8-5.1C25.9,19.6,20.9,12.3,16.2,12.7z"/>
		<path d="M2.6,16.5c-0.4-0.7-0.7-1.3-1.1-1.8v6.8C2.7,20.1,3.2,18.1,2.6,16.5z"/>
		<path d="M7.5,76.5c1.4-6.2,2.4-10.4,3.6-19.8c3.4,4.2,6.6,8.3,11.2,12l-6.5-14.4c3.4,2.3,6.9,5.5,10.5,6.6
			C18,50.9,11.1,37.3,7.6,18C6.1,25.7,4,32.6,1.5,38.6v20.8c0.7-0.8,1.4-1.7,2.1-2.6C4.4,65.9,5.8,70.4,7.5,76.5z"/>
		<path d="M199.4,12.5c3.9,2.6,12.8-3.2,4.9-10c-0.3-0.2-0.2-0.5,0-1.1h-3.8C197.9,4.9,194,8,199.4,12.5z"/>
		<path d="M211.2,12.7c-1.4,0.1-3.1,1-4.5,3.8c-1.7,4.3,5.9,11.8,11,2.7c0.4-1,5.3,2.5,8-5.1C220.9,19.6,215.9,12.3,211.2,12.7z"/>
		<path d="M186.8,19.2c5.1,9.3,12.5,1.7,10.8-2.7c-1.6-3.1-3.2-3.9-4.9-3.8c-4.5,0.3-9.4,6.8-13.9,1.3
			C181.4,21.8,186.5,18.2,186.8,19.2z"/>
		<path d="M194.1,54.6c-2.1,5.1-4.5,9.5-6.5,13.9c1.3-0.6,5.5-4.9,11.1-11.7c0.8,9.1,2.1,13.5,3.9,19.6c1.4-6.2,2.4-10.4,3.6-19.8
			c3.4,4.2,6.6,8.3,11.2,12l-6.5-14.4c3.4,2.3,6.9,5.5,10.5,6.6c-8.2-10-15.2-23.5-18.6-42.8c-3.9,19.3-11.2,33.2-19,42.9
			C186.9,60.1,190.5,57.2,194.1,54.6z"/>
		<path d="M394.4,12.5c3.9,2.6,12.8-3.2,4.9-10c-0.3-0.2-0.2-0.5,0-1.1h-3.8C392.9,4.9,389,8,394.4,12.5z"/>
		<path d="M406.2,12.7c-1.4,0.1-3.1,1-4.5,3.8c-1.7,4.3,5.9,11.8,11,2.7c0.4-1,5.3,2.5,8-5.1C415.9,19.6,410.9,12.3,406.2,12.7z"/>
		<path d="M381.8,19.2c5.1,9.3,12.5,1.7,10.8-2.7c-1.6-3.1-3.2-3.9-4.9-3.8c-4.5,0.3-9.4,6.8-13.9,1.3
			C376.4,21.8,381.5,18.2,381.8,19.2z"/>
		<path d="M389.1,54.6c-2.1,5.1-4.5,9.5-6.5,13.9c1.3-0.6,5.5-4.9,11.1-11.7c0.8,9.1,2.1,13.5,3.9,19.6c1.4-6.2,2.4-10.4,3.6-19.8
			c3.4,4.2,6.6,8.3,11.2,12l-6.5-14.4c3.4,2.3,6.9,5.5,10.5,6.6c-8.2-10-15.2-23.5-18.6-42.8c-3.9,19.3-11.2,33.2-19,42.9
			C381.9,60.1,385.5,57.2,389.1,54.6z"/>
		<path d="M589.4,12.5c3.9,2.6,12.8-3.2,4.9-10c-0.3-0.2-0.2-0.5,0-1.1h-3.8C587.9,4.9,584,8,589.4,12.5z"/>
		<path d="M596.8,16.5c-0.7,1.7,0.1,4,1.7,5.5v-7.9C597.9,14.6,597.3,15.4,596.8,16.5z"/>
		<path d="M576.8,19.2c5.1,9.3,12.5,1.7,10.8-2.7c-1.6-3.1-3.2-3.9-4.9-3.8c-4.5,0.3-9.4,6.8-13.9,1.3
			C571.4,21.8,576.5,18.2,576.8,19.2z"/>
		<path d="M573.6,60.9c3.4-0.8,6.9-3.8,10.5-6.3c-2.1,5.1-4.5,9.5-6.5,13.9c1.3-0.6,5.5-4.9,11.1-11.7c0.8,9.1,2.1,13.5,3.9,19.6
			c1.4-6.2,2.4-10.4,3.6-19.8c0.8,1,1.6,2,2.4,3V39.1C596,33,594,26,592.6,18C588.7,37.3,581.4,51.2,573.6,60.9z"/>
		<path d="M101.9,109.9c3.9,2.6,12.8-3.2,4.9-10c-1-0.6,3.5-4.6-3.2-9.1C109.7,98.9,92.9,102.3,101.9,109.9z"/>
		<path d="M113.7,110.1c-1.4,0.1-3.1,1-4.5,3.8c-1.7,4.3,5.9,11.8,11,2.7c0.4-1,5.3,2.5,8-5.1C123.4,117,118.4,109.7,113.7,110.1z"
			/>
		<path d="M89.3,116.6c5.1,9.3,12.5,1.7,10.8-2.7c-1.6-3.1-3.2-3.9-4.9-3.8c-4.5,0.3-9.4,6.8-13.9,1.3
			C83.9,119.2,89,115.6,89.3,116.6z"/>
		<path d="M105.1,115.4c-3.9,19.3-11.2,33.2-19,42.9c3.4-0.8,6.9-3.8,10.5-6.3c-2.1,5.1-4.5,9.5-6.5,13.9c1.3-0.6,5.5-4.9,11.1-11.7
			c0.8,9.1,2.1,13.5,3.9,19.6c1.4-6.2,2.4-10.4,3.6-19.8c3.4,4.2,6.6,8.3,11.2,12l-6.5-14.4c3.4,2.3,6.9,5.5,10.5,6.6
			C115.5,148.3,108.6,134.7,105.1,115.4z"/>
		<path d="M296.9,109.9c3.9,2.6,12.8-3.2,4.9-10c-1-0.6,3.5-4.6-3.2-9.1C304.7,98.9,287.9,102.3,296.9,109.9z"/>
		<path d="M308.7,110.1c-1.4,0.1-3.1,1-4.5,3.8c-1.7,4.3,5.9,11.8,11,2.7c0.4-1,5.3,2.5,8-5.1C318.4,117,313.4,109.7,308.7,110.1z"
			/>
		<path d="M284.3,116.6c5.1,9.3,12.5,1.7,10.8-2.7c-1.6-3.1-3.2-3.9-4.9-3.8c-4.5,0.3-9.4,6.8-13.9,1.3
			C278.9,119.2,284,115.6,284.3,116.6z"/>
		<path d="M300.1,115.4c-3.9,19.3-11.2,33.2-19,42.9c3.4-0.8,6.9-3.8,10.5-6.3c-2.1,5.1-4.5,9.5-6.5,13.9c1.3-0.6,5.5-4.9,11.1-11.7
			c0.8,9.1,2.1,13.5,3.9,19.6c1.4-6.2,2.4-10.4,3.6-19.8c3.4,4.2,6.6,8.3,11.2,12l-6.5-14.4c3.4,2.3,6.9,5.5,10.5,6.6
			C310.5,148.3,303.6,134.7,300.1,115.4z"/>
		<path d="M491.9,109.9c3.9,2.6,12.8-3.2,4.9-10c-1-0.6,3.5-4.6-3.2-9.1C499.7,98.9,482.9,102.3,491.9,109.9z"/>
		<path d="M503.7,110.1c-1.4,0.1-3.1,1-4.5,3.8c-1.7,4.3,5.9,11.8,11,2.7c0.4-1,5.3,2.5,8-5.1C513.4,117,508.4,109.7,503.7,110.1z"
			/>
		<path d="M479.3,116.6c5.1,9.3,12.5,1.7,10.8-2.7c-1.6-3.1-3.2-3.9-4.9-3.8c-4.5,0.3-9.4,6.8-13.9,1.3
			C473.9,119.2,479,115.6,479.3,116.6z"/>
		<path d="M495.1,115.4c-3.9,19.3-11.2,33.2-19,42.9c3.4-0.8,6.9-3.8,10.5-6.3c-2.1,5.1-4.5,9.5-6.5,13.9c1.3-0.6,5.5-4.9,11.1-11.7
			c0.8,9.1,2.1,13.5,3.9,19.6c1.4-6.2,2.4-10.4,3.6-19.8c3.4,4.2,6.6,8.3,11.2,12l-6.5-14.4c3.4,2.3,6.9,5.5,10.5,6.6
			C505.5,148.3,498.6,134.7,495.1,115.4z"/>
		<path d="M101.9,304.7c3.9,2.6,12.8-3.2,4.9-10c-1-0.6,3.5-4.6-3.2-9.1C109.7,293.7,92.9,297.1,101.9,304.7z"/>
		<path d="M113.7,304.9c-1.4,0.1-3.1,1-4.5,3.8c-1.7,4.3,5.9,11.8,11,2.7c0.4-1,5.3,2.5,8-5.1C123.4,311.8,118.4,304.5,113.7,304.9z
			"/>
		<path d="M89.3,311.4c5.1,9.3,12.5,1.7,10.8-2.7c-1.6-3.1-3.2-3.9-4.9-3.8c-4.5,0.3-9.4,6.8-13.9,1.3
			C83.9,313.9,89,310.4,89.3,311.4z"/>
		<path d="M105,368.7c1.4-6.2,2.4-10.4,3.6-19.8c3.4,4.2,6.6,8.3,11.2,12l-6.5-14.4c3.4,2.3,6.9,5.5,10.5,6.6
			c-8.2-10-15.2-23.5-18.6-42.8c-3.9,19.3-11.2,33.2-19,42.9c3.4-0.8,6.9-3.8,10.5-6.3c-2.1,5.1-4.5,9.5-6.5,13.9
			c1.3-0.6,5.5-4.9,11.1-11.7C101.9,358.1,103.3,362.6,105,368.7z"/>
		<path d="M301.8,294.7c-1-0.6,3.5-4.6-3.2-9.1c6,8-10.8,11.4-1.7,19C300.8,307.3,309.8,301.5,301.8,294.7z"/>
		<path d="M308.7,304.9c-1.4,0.1-3.1,1-4.5,3.8c-1.7,4.3,5.9,11.8,11,2.7c0.4-1,5.3,2.5,8-5.1C318.4,311.8,313.4,304.5,308.7,304.9z
			"/>
		<path d="M284.3,311.4c5.1,9.3,12.5,1.7,10.8-2.7c-1.6-3.1-3.2-3.9-4.9-3.8c-4.5,0.3-9.4,6.8-13.9,1.3
			C278.9,313.9,284,310.4,284.3,311.4z"/>
		<path d="M300.1,310.2c-3.9,19.3-11.2,33.2-19,42.9c3.4-0.8,6.9-3.8,10.5-6.3c-2.1,5.1-4.5,9.5-6.5,13.9c1.3-0.6,5.5-4.9,11.1-11.7
			c0.8,9.1,2.1,13.5,3.9,19.6c1.4-6.2,2.4-10.4,3.6-19.8c3.4,4.2,6.6,8.3,11.2,12l-6.5-14.4c3.4,2.3,6.9,5.5,10.5,6.6
			C310.5,343,303.6,329.5,300.1,310.2z"/>
		<path d="M491.9,304.7c3.9,2.6,12.8-3.2,4.9-10c-1-0.6,3.5-4.6-3.2-9.1C499.7,293.7,482.9,297.1,491.9,304.7z"/>
		<path d="M503.7,304.9c-1.4,0.1-3.1,1-4.5,3.8c-1.7,4.3,5.9,11.8,11,2.7c0.4-1,5.3,2.5,8-5.1C513.4,311.8,508.4,304.5,503.7,304.9z
			"/>
		<path d="M479.3,311.4c5.1,9.3,12.5,1.7,10.8-2.7c-1.6-3.1-3.2-3.9-4.9-3.8c-4.5,0.3-9.4,6.8-13.9,1.3
			C473.9,313.9,479,310.4,479.3,311.4z"/>
		<path d="M495.1,310.2c-3.9,19.3-11.2,33.2-19,42.9c3.4-0.8,6.9-3.8,10.5-6.3c-2.1,5.1-4.5,9.5-6.5,13.9c1.3-0.6,5.5-4.9,11.1-11.7
			c0.8,9.1,2.1,13.5,3.9,19.6c1.4-6.2,2.4-10.4,3.6-19.8c3.4,4.2,6.6,8.3,11.2,12l-6.5-14.4c3.4,2.3,6.9,5.5,10.5,6.6
			C505.5,343,498.6,329.5,495.1,310.2z"/>
		<path d="M106.8,489.5c-1-0.6,3.5-4.6-3.2-9.1c6,8-10.8,11.4-1.7,19C105.8,502.1,114.8,496.3,106.8,489.5z"/>
		<path d="M113.7,499.7c-1.4,0.1-3.1,1-4.5,3.8c-1.7,4.3,5.9,11.8,11,2.7c0.4-1,5.3,2.5,8-5.1C123.4,506.6,118.4,499.3,113.7,499.7z
			"/>
		<path d="M100.1,503.4c-1.6-3.1-3.2-3.9-4.9-3.8c-2.2,0.1-4.5,1.8-6.7,2.8c2.2,2.8,4.5,5.5,6.7,8.1
			C98.6,510.4,101.2,506.3,100.1,503.4z"/>
		<path d="M101.7,518.1c3.6,4.1,7.3,8.1,10.9,11.9c-3.2-7.1-5.8-15.3-7.6-25C104.2,509.6,103,514,101.7,518.1z"/>
		<path d="M296.9,499.5c3.9,2.6,12.8-3.2,4.9-10c-1-0.6,3.5-4.6-3.2-9.1C304.7,488.5,287.9,491.8,296.9,499.5z"/>
		<path d="M308.7,499.7c-1.4,0.1-3.1,1-4.5,3.8c-1.7,4.3,5.9,11.8,11,2.7c0.4-1,5.3,2.5,8-5.1C318.4,506.6,313.4,499.3,308.7,499.7z
			"/>
		<path d="M284.3,506.2c5.1,9.3,12.5,1.7,10.8-2.7c-1.6-3.1-3.2-3.9-4.9-3.8c-4.5,0.3-9.4,6.8-13.9,1.3
			C278.9,508.7,284,505.2,284.3,506.2z"/>
		<path d="M300.1,505c-3.9,19.3-11.2,33.2-19,42.9c3.4-0.8,6.9-3.8,10.5-6.3c-2.1,5.1-4.5,9.5-6.5,13.9c1.3-0.6,5.5-4.9,11.1-11.7
			c0.8,9.1,2.1,13.5,3.9,19.6c1.4-6.2,2.4-10.4,3.6-19.8c3.4,4.2,6.6,8.3,11.2,12l-6.5-14.4c3.4,2.3,6.9,5.5,10.5,6.6
			C310.5,537.8,303.6,524.3,300.1,505z"/>
		<path d="M496.8,489.5c-1-0.6,3.5-4.6-3.2-9.1c6,8-10.8,11.4-1.7,19C495.8,502.1,504.8,496.3,496.8,489.5z"/>
		<path d="M503.7,499.7c-1.4,0.1-3.1,1-4.5,3.8c-1.2,2.9,1.9,7.2,5.6,7c2.2-2.6,4.4-5.2,6.6-7.9
			C508.8,501.4,506.2,499.5,503.7,499.7z"/>
		<path d="M485.2,499.7c-4.5,0.3-9.4,6.8-13.9,1.3c2.6,7.7,7.7,4.2,8,5.2c5.1,9.3,12.5,1.7,10.8-2.7
			C488.5,500.4,487,499.6,485.2,499.7z"/>
		<path d="M486.8,530.5c3.8-4,7.6-8.2,11.4-12.4c-1.2-4.1-2.3-8.4-3.1-13.2C493.1,514.9,490.2,523.3,486.8,530.5z"/>
		<path d="M29.8,404.6c0.1,0.2,0.2,0.5,0.3,0.7c0.2-0.5,0.5-1,0.7-1.6C30.5,404.1,30.1,404.4,29.8,404.6z"/>
		<path d="M199.4,402.1c3.9,2.6,12.8-3.2,4.9-10c-1-0.6,3.5-4.6-3.2-9.1C207.2,391.1,190.4,394.5,199.4,402.1z"/>
		<path d="M211.2,402.3c-1.4,0.1-3.1,1-4.5,3.8c-1.7,4.3,5.9,11.8,11,2.7c0.4-1,5.3,2.5,8-5.1C220.9,409.2,215.9,401.9,211.2,402.3z
			"/>
		<path d="M186.8,408.8c5.1,9.3,12.5,1.7,10.8-2.7c-1.6-3.1-3.2-3.9-4.9-3.8c-4.5,0.3-9.4,6.8-13.9,1.3
			C181.4,411.3,186.5,407.8,186.8,408.8z"/>
		<path d="M202.5,466.1c1.4-6.2,2.4-10.4,3.6-19.8c3.4,4.2,6.6,8.3,11.2,12l-6.5-14.4c3.4,2.3,6.9,5.5,10.5,6.6
			c-8.2-10-15.2-23.5-18.6-42.8c-3.9,19.3-11.2,33.2-19,42.9c3.4-0.8,6.9-3.8,10.5-6.3c-2.1,5.1-4.5,9.5-6.5,13.9
			c1.3-0.6,5.5-4.9,11.1-11.7C199.4,455.5,200.8,460,202.5,466.1z"/>
		<path d="M394.4,402.1c3.9,2.6,12.8-3.2,4.9-10c-1-0.6,3.5-4.6-3.2-9.1C402.2,391.1,385.4,394.5,394.4,402.1z"/>
		<path d="M406.2,402.3c-1.4,0.1-3.1,1-4.5,3.8c-1.7,4.3,5.9,11.8,11,2.7c0.4-1,5.3,2.5,8-5.1C415.9,409.2,410.9,401.9,406.2,402.3z
			"/>
		<path d="M381.8,408.8c5.1,9.3,12.5,1.7,10.8-2.7c-1.6-3.1-3.2-3.9-4.9-3.8c-4.5,0.3-9.4,6.8-13.9,1.3
			C376.4,411.3,381.5,407.8,381.8,408.8z"/>
		<path d="M397.6,407.6c-3.9,19.3-11.2,33.2-19,42.9c3.4-0.8,6.9-3.8,10.5-6.3c-2.1,5.1-4.5,9.5-6.5,13.9c1.3-0.6,5.5-4.9,11.1-11.7
			c0.8,9.1,2.1,13.5,3.9,19.6c1.4-6.2,2.4-10.4,3.6-19.8c3.4,4.2,6.6,8.3,11.2,12l-6.5-14.4c3.4,2.3,6.9,5.5,10.5,6.6
			C408,440.4,401.1,426.9,397.6,407.6z"/>
		<path d="M568.8,403.6c0.3,0.8,0.6,1.5,0.9,2.1c0.1-0.3,0.2-0.6,0.4-0.9C569.7,404.5,569.2,404.1,568.8,403.6z"/>
		<path d="M204.3,586.9c-1-0.6,3.5-4.6-3.2-9.1c6,8-10.8,11.4-1.7,19C203.3,599.5,212.3,593.7,204.3,586.9z"/>
		<path d="M211.2,597.1c-1.4,0.1-3.1,1-4.5,3.8c-1.7,4.3,5.9,11.8,11,2.7c0.4-1,5.3,2.5,8-5.1C220.9,604,215.9,596.7,211.2,597.1z"
			/>
		<path d="M192.7,597.1c-0.5,0-1.1,0.2-1.6,0.3c2.3,1.6,4.5,3.2,6.8,4.7c0-0.4-0.1-0.9-0.3-1.3C196,597.8,194.5,597,192.7,597.1z"/>
		<path d="M202,605c0.4,0.3,0.8,0.5,1.2,0.8c-0.2-1.1-0.5-2.3-0.7-3.4C202.4,603.2,202.2,604.1,202,605z"/>
		<path d="M399.3,586.9c-1-0.6,3.5-4.6-3.2-9.1c6,8-10.8,11.4-1.7,19C398.3,599.5,407.3,593.7,399.3,586.9z"/>
		<path d="M406.2,597.1c-1.4,0.1-3.1,1-4.5,3.8c-0.2,0.5-0.3,1.1-0.2,1.7c2.4-1.6,4.8-3.3,7.3-5.1
			C407.9,597.2,407.1,597,406.2,597.1z"/>
		<path d="M387.7,597.1c-4.5,0.3-9.4,6.8-13.9,1.3c2.6,7.7,7.7,4.2,8,5.2c5.1,9.3,12.5,1.7,10.8-2.7
			C391,597.8,389.5,597,387.7,597.1z"/>
		<path d="M396.9,605.7c0.4-0.3,0.8-0.5,1.2-0.8c-0.2-0.8-0.3-1.7-0.5-2.5C397.4,603.5,397.1,604.6,396.9,605.7z"/>
	</g>
</g>
<sodipodi:namedview  bordercolor="#666666" borderopacity="1.0" gridtolerance="10.0" guidetolerance="10.0" height="660px" id="base" inkscape:current-layer="svg2" inkscape:cx="300" inkscape:cy="329.99986" inkscape:guide-bbox="true" inkscape:pageopacity="0.0" inkscape:pageshadow="2" inkscape:window-height="856" inkscape:window-maximized="0" inkscape:window-width="1280" inkscape:window-x="-4" inkscape:window-y="0" inkscape:zoom="1.1560601" objecttolerance="10.0" pagecolor="#ffffff" showgrid="false" showguides="true">
	</sodipodi:namedview>
<desc  id="desc4">SVG coat of arms</desc>
<g id="g9370" transform="matrix(0.6072994,0,0,0.6935206,-525.20603,251.96104)">
</g>
<g>
	<polygon class="st1" points="101.6,1.5 37.4,1.5 69.5,33.6 	"/>
	<path class="st1" d="M495.2,459.3l28,28c9.9-13.4,19.2-27.8,27.7-43l-20.4-20.4L495.2,459.3z"/>
	<path class="st1" d="M300,654.4l2.5,2.5c6.3-2.5,23.9-10,47.7-23L335.3,619L300,654.4z"/>
	<polygon class="st1" points="232.6,1.5 264.7,33.6 296.8,1.5 	"/>
	<polygon class="st1" points="491.9,1.5 427.7,1.5 459.8,33.6 	"/>
	<polygon class="st1" points="362.2,131.2 300,193.4 264.7,228.8 202.4,291 237.8,326.3 300,264.1 335.4,228.8 397.6,166.5 	"/>
	<polygon class="st1" points="237.8,326.3 202.4,291 140.2,228.8 104.9,264.1 167.1,326.3 202.4,361.7 264.7,423.9 300,388.6 	"/>
	<path class="st1" d="M167.1,326.3l-62.2,62.2l-35.4,35.4l-20.4,20.4c8.5,15.2,17.8,29.5,27.7,43l28-28l35.4-35.4l62.2-62.2
		L167.1,326.3z"/>
	<polygon class="st1" points="433,131.2 397.6,95.8 335.4,33.6 300,69 362.2,131.2 397.6,166.5 459.8,228.8 495.2,193.4 	"/>
	<polygon class="st1" points="498.4,1.5 491.9,1.5 459.8,33.6 397.6,95.8 433,131.2 495.2,69 530.5,33.6 562.6,1.5 	"/>
	<polygon class="st1" points="237.8,131.2 202.4,95.8 140.2,33.6 104.9,69 167.1,131.2 202.4,166.5 264.7,228.8 300,193.4 	"/>
	<polygon class="st1" points="167.1,131.2 104.9,193.4 69.5,228.8 7.3,291 42.6,326.3 104.9,264.1 140.2,228.8 202.4,166.5 	"/>
	<path class="st1" d="M42.6,326.3L7.3,291l-4.9-4.9c0.2,3.1,0.4,6.1,0.7,9.1c1.9,21.2,5.4,41.3,10.3,60.4c1.5,5.8,3.1,11.5,4.9,17.1
		l51.2,51.2l35.4-35.4L42.6,326.3z"/>
	<polygon class="st1" points="303.3,1.5 296.8,1.5 264.7,33.6 202.4,95.8 237.8,131.2 300,69 335.4,33.6 367.5,1.5 	"/>
	<polygon class="st1" points="1.5,160.8 1.5,172.3 7.3,166.5 	"/>
	<polygon class="st1" points="108.1,1.5 101.6,1.5 69.5,33.6 7.3,95.8 42.6,131.2 104.9,69 140.2,33.6 172.3,1.5 	"/>
	<polygon class="st1" points="42.6,131.2 7.3,95.8 1.5,90.1 1.5,101.6 1.5,160.8 7.3,166.5 69.5,228.8 104.9,193.4 	"/>
	<polygon class="st1" points="598.5,101.6 598.5,90.1 592.8,95.8 	"/>
	<path class="st1" d="M167.1,521.5l-31.3,31.3c12.8,11.8,25.7,22.6,38.5,32.3l28.2-28.2L167.1,521.5z"/>
	<polygon class="st1" points="433,326.3 397.6,291 335.4,228.8 300,264.1 362.2,326.3 397.6,361.7 459.8,423.9 495.2,388.6 	"/>
	<polygon class="st1" points="362.2,326.3 300,388.6 264.7,423.9 202.4,486.1 237.8,521.5 300,459.3 335.4,423.9 397.6,361.7 	"/>
	<polygon class="st1" points="237.8,521.5 202.4,486.1 140.2,423.9 104.9,459.3 167.1,521.5 202.4,556.9 264.7,619.1 300,583.7 	"/>
	<polygon class="st1" points="557.4,131.2 495.2,193.4 459.8,228.8 397.6,291 433,326.3 495.2,264.1 530.5,228.8 592.8,166.5 	"/>
	<polygon class="st1" points="592.8,95.8 530.5,33.6 495.2,69 557.4,131.2 592.8,166.5 598.5,172.3 598.5,160.8 598.5,101.6 	"/>
	<path class="st1" d="M597,295.2c0.3-3,0.5-6.1,0.7-9.1l-4.9,4.9L597,295.2z"/>
	<path class="st1" d="M557.4,326.3l-62.2,62.2l-35.4,35.4l-62.2,62.2l35.4,35.4l62.2-62.2l35.4-35.4l51.2-51.2
		c1.7-5.6,3.4-11.3,4.9-17.1L557.4,326.3z"/>
	<path class="st1" d="M433,521.5l-35.4-35.4l-62.2-62.2L300,459.3l62.2,62.2l35.4,35.4l28.2,28.2c12.7-9.7,25.7-20.4,38.5-32.3
		L433,521.5z"/>
	<path class="st1" d="M362.2,521.5L300,583.7l-35.4,35.4L249.8,634c23.8,13,41.5,20.4,47.7,23l2.5-2.5l35.4-35.4l62.2-62.2
		L362.2,521.5z"/>
	<path class="st1" d="M592.8,291l-62.2-62.2l-35.4,35.4l62.2,62.2l29.2,29.2c4.9-19.1,8.5-39.2,10.3-60.4L592.8,291z"/>
</g>
<g>
	<ellipse transform="matrix(0.7071 -0.7071 0.7071 0.7071 6.6108 83.4181)" class="st2" cx="104" cy="33.7" rx="9.4" ry="9.4"/>
	<ellipse transform="matrix(0.7071 -0.7071 0.7071 0.7071 63.8714 221.6575)" class="st2" cx="299.5" cy="33.7" rx="9.4" ry="9.4"/>
	<ellipse transform="matrix(0.7071 -0.7071 0.7071 0.7071 121.132 359.8969)" class="st2" cx="495" cy="33.7" rx="9.4" ry="9.4"/>
	<ellipse transform="matrix(0.7071 -0.7071 0.7071 0.7071 23.4097 319.189)" class="st2" cx="397" cy="131.3" rx="9.4" ry="9.4"/>
	<ellipse transform="matrix(0.7071 -0.7071 0.7071 0.7071 -33.9974 180.596)" class="st2" cx="201" cy="131.3" rx="9.4" ry="9.4"/>
	
		<ellipse transform="matrix(0.7071 -0.7071 0.7071 0.7071 -131.4269 140.5952)" class="st2" cx="104" cy="228.9" rx="9.4" ry="9.4"/>
	
		<ellipse transform="matrix(0.7071 -0.7071 0.7071 0.7071 -74.1662 278.8346)" class="st2" cx="299.5" cy="228.9" rx="9.4" ry="9.4"/>
	<ellipse transform="matrix(0.7071 -0.7071 0.7071 0.7071 -16.9056 417.0739)" class="st2" cx="495" cy="228.9" rx="9.4" ry="9.4"/>
	
		<ellipse transform="matrix(0.7071 -0.7071 0.7071 0.7071 -269.4645 197.7722)" class="st2" cx="104" cy="424.2" rx="9.4" ry="9.4"/>
	
		<ellipse transform="matrix(0.7071 -0.7071 0.7071 0.7071 -212.2038 336.0116)" class="st2" cx="299.5" cy="424.2" rx="9.4" ry="9.4"/>
	<ellipse transform="matrix(0.7071 -0.7071 0.7071 0.7071 -154.9432 474.251)" class="st2" cx="495" cy="424.2" rx="9.4" ry="9.4"/>
	
		<ellipse transform="matrix(0.7071 -0.7071 0.7071 0.7071 -350.2415 393.1887)" class="st2" cx="299.5" cy="619.4" rx="9.4" ry="9.4"/>
	<ellipse transform="matrix(0.7071 -0.7071 0.7071 0.7071 -114.628 376.366)" class="st2" cx="397" cy="326.6" rx="9.4" ry="9.4"/>
	<ellipse transform="matrix(0.7071 -0.7071 0.7071 0.7071 -172.035 237.7731)" class="st2" cx="201" cy="326.6" rx="9.4" ry="9.4"/>
	
		<ellipse transform="matrix(0.7071 -0.7071 0.7071 0.7071 -252.6656 433.5431)" class="st2" cx="397" cy="521.8" rx="9.4" ry="9.4"/>
	
		<ellipse transform="matrix(0.7071 -0.7071 0.7071 0.7071 -310.0726 294.9501)" class="st2" cx="201" cy="521.8" rx="9.4" ry="9.4"/>
	<path class="st2" d="M586.4,124.7c-3.7,3.7-3.7,9.6,0,13.2c3.3,3.3,8.5,3.6,12.1,0.9v-15.1C594.8,121.1,589.7,121.4,586.4,124.7z"
		/>
	<path class="st2" d="M11.6,137.9c3.7-3.7,3.7-9.6,0-13.2c-2.7-2.7-6.7-3.4-10.1-2.1V140C4.9,141.4,8.9,140.7,11.6,137.9z"/>
	<path class="st2" d="M586.4,319.9c-3.7,3.7-3.7,9.6,0,13.2c1.4,1.4,3,2.2,4.8,2.6c1.2-6,2.3-12.2,3.2-18.4
		C591.5,316.9,588.6,317.8,586.4,319.9z"/>
	<path class="st2" d="M11.6,319.9c-1.7-1.7-3.8-2.6-6-2.7c0.9,6.1,1.9,12,3.1,17.9c1-0.5,2-1.1,2.9-2
		C15.3,329.5,15.3,323.6,11.6,319.9z"/>
</g>
<radialGradient id="path2875_1_" cx="-54.3438" cy="698.0845" r="299.8217" gradientTransform="matrix(1.3532 0 0 -1.3491 295.6207 1161.2163)" gradientUnits="userSpaceOnUse">
	<stop  offset="0" style="stop-color:#FFFFFF;stop-opacity:0.3137"/>
	<stop  offset="0.19" style="stop-color:#FFFFFF;stop-opacity:0.251"/>
	<stop  offset="0.6" style="stop-color:#6B6B6B;stop-opacity:0.1255"/>
	<stop  offset="1" style="stop-color:#000000;stop-opacity:0.1255"/>
</radialGradient>
<path id="path2875_3_" class="st3" d="M300,657.9c0,0,298.5-112.3,298.5-397.8V1.5H1.5v258.6C1.5,545.6,300,657.9,300,657.9z"/>
</svg>
