<?xml version="1.0" encoding="UTF-8" standalone="no"?><svg height="660" width="600" xmlns="http://www.w3.org/2000/svg" xmlns:xlink="http://www.w3.org/1999/xlink"><radialGradient id="a" cx="221.44487" cy="226.33101" gradientTransform="matrix(1.353218 0 0 1.348928 -77.62935 -85.74693)" gradientUnits="userSpaceOnUse" r="300"><stop offset="0" stop-color="#fff" stop-opacity=".313726"/><stop offset=".19" stop-color="#fff" stop-opacity=".25098"/><stop offset=".60000002" stop-color="#6b6b6b" stop-opacity=".12549"/><stop offset="1" stop-opacity=".12549"/></radialGradient><g fill-rule="evenodd"><path d="m300 658.5s298.50001-112.32031 298.50001-397.77183v-259.22817h-597.00001v259.22817c0 285.45152 298.5 397.77183 298.5 397.77183z" fill="#fcef3c"/><g stroke="#000" stroke-linecap="round" stroke-linejoin="round" stroke-width="3"><path d="m211.5 1.5v610.15234c49.65761 32.11011 88.5 46.74414 88.5 46.74414s38.84239-14.63403 88.5-46.74414v-610.15234z" fill="#fff"/><path d="m344.37305 278.5-44.37305-76 44.37305-76.00195 44.12695 76.00195zm0 152-44.37305-76 44.37305-76 44.12695 76zm0 152 24.11524 41.5293c-39.43449 23.34899-68.05737 34.20613-68.40625 34.33789zm-44.37305-76 44.37305-76 44.12695 76-44.12695 76zm60.05274-505 28.44726 49-44.12695 75.99805-44.37305-75.99805 28.60938-49zm-104.41797 277 44.36523-76-44.36523-76.00195-44.13477 76.00195zm0 152 44.36523-76-44.36523-76-44.13477 76zm0 152-24.11524 41.5293c39.43449 23.34899 68.05737 34.20613 68.40625 34.33789zm44.36523-76-44.36523-76-44.13477 76 44.13477 76zm-60.04492-505-28.45508 49 44.13477 75.99805 44.36523-75.99805-28.60156-49z" fill="#2b5df2"/></g></g><path d="m300.00001 658.5s298.5-112.32031 298.5-397.77183v-259.22817h-597.00001v259.22817c0 285.45152 298.50001 397.77183 298.50001 397.77183z" fill="url(#a)" fill-rule="evenodd"/><path d="m299.99999 658.39715s-298.49999-112.41841-298.49999-398.11925v-258.7775027h596.99999v258.7775027c0 285.70084-298.5 398.11925-298.5 398.11925z" fill="none" stroke="#000" stroke-width="3"/></svg>