<?xml version="1.0" encoding="UTF-8" standalone="no"?>
<!-- Created with Arkyan's SVGCensus script -->
<svg
   xmlns:dc="http://purl.org/dc/elements/1.1/"
   xmlns:cc="http://web.resource.org/cc/"
   xmlns:rdf="http://www.w3.org/1999/02/22-rdf-syntax-ns#"
   xmlns:svg="http://www.w3.org/2000/svg"
   xmlns="http://www.w3.org/2000/svg"
   xmlns:sodipodi="http://sodipodi.sourceforge.net/DTD/sodipodi-0.dtd"
   xmlns:inkscape="http://www.inkscape.org/namespaces/inkscape"
   version="1.0"
   width="900"
   height="400"
   id="svg6360"
   sodipodi:version="0.32"
   inkscape:version="0.45"
   sodipodi:docname="outputmap.svg"
   inkscape:output_extension="org.inkscape.output.svg.inkscape"
   sodipodi:docbase="C:\files\wikibot"
   sodipodi:modified="true">
  <metadata
     id="metadata6442">
    <rdf:RDF>
      <cc:Work
         rdf:about="">
        <dc:format>image/svg+xml</dc:format>
        <dc:type
           rdf:resource="http://purl.org/dc/dcmitype/StillImage" />
      </cc:Work>
    </rdf:RDF>
  </metadata>
  <defs
     id="defs6440" />
  <sodipodi:namedview
     inkscape:window-height="579"
     inkscape:window-width="748"
     inkscape:pageshadow="2"
     inkscape:pageopacity="0.0"
     guidetolerance="10.0"
     gridtolerance="10.0"
     objecttolerance="10.0"
     borderopacity="1.0"
     bordercolor="#666666"
     pagecolor="#ffffff"
     id="base"
     width="900px"
     height="400px"
     inkscape:zoom="0.73777778"
     inkscape:cx="450"
     inkscape:cy="200"
     inkscape:window-x="88"
     inkscape:window-y="88"
     inkscape:current-layer="g6370" />
  <path
     id="009"
     style="fill:#ffffff;fill-opacity:1;fill-rule:evenodd;stroke:#000000;stroke-width:3px;stroke-linecap:butt;stroke-linejoin:miter;stroke-opacity:1"
     d="M 320.53253,29.108434 L 326.83253,29.108434 L 326.83253,29.108434 L 330.13253,29.108434 L 330.13253,29.108434 L 332.63253,29.208434 L 332.63253,29.208434 L 333.03253,29.208434 L 333.03253,29.208434 L 342.83253,29.308434 L 342.83253,29.308434 L 343.13253,41.808434 L 343.13253,41.808434 L 343.23253,79.808434 L 343.23253,79.808434 L 343.23253,79.908434 L 343.23253,79.908434 L 343.33253,83.908434 L 343.33253,83.908434 L 343.63253,105.10843 L 343.83253,117.70843 L 344.23253,143.00843 L 344.23253,143.00843 L 344.23253,143.00843 L 344.23253,143.00843 L 344.53253,155.60843 L 344.53253,155.60843 L 344.53253,155.70843 L 344.53253,155.70843 L 344.43253,155.70843 L 344.43253,155.70843 L 344.63253,173.50843 L 344.63253,173.50843 L 344.83253,180.60843 L 344.83253,206.50843 L 344.93253,232.00843 L 344.93253,232.00843 L 344.93253,232.30843 L 344.93253,232.30843 L 345.03253,244.70843 L 345.03253,244.70843 L 345.03253,248.50843 L 345.03253,248.50843 L 345.13253,257.30843 L 345.23253,270.10843 L 345.23253,270.10843 L 345.23253,272.50843 L 345.23253,272.50843 L 345.23253,273.60843 L 345.23253,273.60843 L 345.33253,275.60843 L 345.33253,275.60843 L 345.13253,297.10843 L 345.13253,297.10843 L 345.23253,307.60843 L 345.23253,307.60843 L 338.03253,311.10843 L 330.93253,313.70843 L 329.43253,314.00843 L 324.23253,315.10843 L 312.73253,315.70843 L 303.43253,314.50843 L 291.13253,311.30843 L 272.03253,309.50843 L 269.83253,310.00843 L 262.93253,309.90843 L 256.73253,309.30843 L 247.83253,306.20843 L 240.63253,302.60843 L 239.63253,302.10843 L 237.43253,301.40843 L 229.63253,298.80843 L 224.03253,293.80843 L 222.33253,292.70843 L 219.13253,292.70843 L 218.73253,292.70843 L 217.23253,292.90843 L 212.83253,293.40843 L 211.73253,293.60843 L 209.73253,294.20843 L 207.33253,294.80843 L 203.63253,295.90843 L 198.73253,297.90843 L 194.63253,300.30843 L 192.53253,301.50843 L 191.53253,305.30843 L 191.63253,306.80843 L 192.33253,308.90843 L 192.23253,311.20843 L 190.23253,314.70843 L 189.73253,322.00843 L 186.53253,330.00843 L 184.13253,337.90843 L 183.13253,339.80843 L 180.43253,342.80843 L 173.73253,354.10843 L 171.13253,357.50843 L 166.73253,361.90843 L 163.23253,363.30843 L 155.93253,372.20843 L 153.53253,374.30843 L 144.93253,379.70843 L 142.83253,380.20843 L 137.33253,380.50843 L 127.43253,379.40843 L 117.93253,383.70843 L 112.93253,385.30843 L 111.63253,385.30843 L 109.53253,384.50843 L 104.93253,386.10843 L 102.23253,386.00843 L 90.93253,384.40843 L 89.53253,383.10843 L 88.93253,382.80843 L 86.73253,381.80843 L 86.43253,381.70843 L 84.73253,381.10843 L 80.33253,380.40843 L 77.13253,378.60843 L 75.13253,376.90843 L 74.23253,372.30843 L 73.13253,369.50843 L 70.33253,366.30843 L 60.53253,357.90843 L 57.33253,356.60843 L 53.03253,353.50843 L 46.63253,345.50843 L 44.73253,343.60843 L 32.13253,335.20843 L 31.13253,334.20843 L 25.53253,324.10843 L 19.83253,317.90843 L 19.03253,317.70843 L 15.83253,318.60843 L 15.83253,318.60843 L 15.53253,315.00843 L 15.53253,315.00843 L 15.53253,312.00843 L 11.83253,309.60843 L 9.6325301,309.30843 L 11.03253,307.20843 L 14.43253,305.30843 L 17.43253,306.00843 L 17.83253,307.40843 L 20.13253,306.40843 L 23.93253,303.50843 L 24.83253,300.60843 L 23.73253,299.10843 L 24.63253,296.00843 L 25.43253,295.60843 L 29.53253,295.30843 L 29.23253,292.50843 L 30.13253,291.70843 L 37.53253,291.90843 L 41.03253,283.40843 L 40.53253,280.00843 L 40.73253,275.20843 L 42.23253,270.00843 L 39.23253,261.70843 L 37.83253,260.10843 L 36.53253,260.30843 L 35.53253,259.70843 L 35.23253,259.20843 L 35.53253,257.20843 L 35.53253,257.20843 L 35.33253,257.00843 L 35.33253,257.00843 L 34.83253,256.00843 L 35.03253,255.60843 L 39.13253,254.00843 L 42.73253,253.30843 L 42.53253,252.20843 L 41.83253,251.30843 L 41.93253,249.30843 L 44.63253,245.40843 L 45.73253,244.80843 L 45.43253,241.70843 L 44.73253,240.90843 L 43.63253,241.10843 L 41.43253,239.90843 L 41.23253,239.10843 L 41.23253,239.10843 L 41.73253,238.40843 L 42.63253,235.20843 L 42.53253,232.30843 L 44.23253,231.90843 L 46.13253,232.50843 L 47.53253,231.70843 L 47.03253,229.30843 L 45.83253,229.50843 L 44.33253,227.50843 L 45.03253,223.30843 L 47.33253,218.20843 L 47.93253,218.10843 L 49.43253,216.80843 L 51.33253,213.10843 L 51.83253,208.00843 L 50.83253,205.40843 L 53.53253,202.30843 L 54.43253,200.30843 L 53.73253,195.90843 L 49.83253,190.20843 L 48.73253,187.20843 L 45.63253,181.10843 L 43.13253,179.80843 L 41.63253,176.30843 L 40.93253,172.10843 L 42.43253,166.80843 L 43.33253,166.20843 L 44.33253,161.40843 L 44.43253,157.50843 L 47.13253,154.70843 L 51.23253,154.30843 L 52.23253,153.70843 L 53.03253,152.10843 L 53.23253,150.70843 L 48.93253,143.50843 L 47.43253,138.60843 L 48.83253,137.80843 L 46.13253,125.50843 L 44.53253,120.60843 L 43.73253,112.50843 L 44.93253,108.50843 L 44.13253,105.00843 L 45.23253,104.30843 L 45.13253,102.00843 L 43.93253,100.60843 L 45.13253,93.108434 L 44.93253,91.808434 L 45.23253,87.908434 L 46.83253,81.508434 L 48.23253,78.508434 L 51.43253,77.108434 L 52.83253,75.408434 L 54.63253,72.508434 L 55.23253,62.208434 L 55.13253,59.308434 L 56.93253,49.808434 L 56.73253,44.408434 L 56.73253,44.408434 L 56.63253,43.608434 L 62.83253,29.708434 L 62.83253,29.708434 L 106.83253,29.708434 L 106.83253,29.708434 L 118.93253,29.708434 L 119.13253,29.708434 L 119.13253,29.708434 L 125.13253,29.608434 L 125.13253,29.608434 L 193.43253,29.308434 L 193.53253,29.308434 L 218.03253,29.208434 L 218.03253,29.208434 L 218.23253,29.208434 L 218.23253,29.208434 L 267.93253,28.608434 L 320.53253,29.108434 z " />
  <path
     id="64860"
     style="fill:#cccccc;fill-opacity:1;fill-rule:evenodd;stroke:#000000;stroke-width:1px;stroke-linecap:butt;stroke-linejoin:miter;stroke-opacity:1"
     d="M 200.33253,177.90843 L 206.93253,177.90843 L 206.93253,177.90843 L 206.93253,181.20843 L 206.93253,186.90843 L 206.93253,186.90843 L 210.13253,186.80843 L 210.13253,188.70843 L 206.93253,188.70843 L 206.93253,188.70843 L 206.93253,194.50843 L 206.93253,194.50843 L 203.73253,194.30843 L 203.73253,194.30843 L 201.93253,194.40843 L 201.93253,194.40843 L 200.53253,194.40843 L 200.53253,194.40843 L 195.33253,194.20843 L 195.33253,194.20843 L 194.43253,194.20843 L 194.43253,194.20843 L 191.43253,194.10843 L 191.43253,194.10843 L 191.13253,181.20843 L 191.13253,181.20843 L 194.23253,181.20843 L 194.23253,181.20843 L 194.33253,178.00843 L 194.33253,178.00843 L 200.33253,177.90843 z " />
  <path
     id="60660"
     style="fill:#cccccc;fill-opacity:1;fill-rule:evenodd;stroke:#000000;stroke-width:1px;stroke-linecap:butt;stroke-linejoin:miter;stroke-opacity:1"
     d="M 181.93253,298.90843 L 186.03253,298.80843 L 186.63253,304.00843 L 185.73253,303.80843 L 185.73253,303.80843 L 185.33253,303.70843 L 185.33253,303.70843 L 185.33253,305.70843 L 185.33253,305.70843 L 178.33253,311.60843 L 176.53253,313.70843 L 175.73253,315.50843 L 175.73253,315.50843 L 175.73253,302.70843 L 175.73253,302.70843 L 175.73253,302.30843 L 175.73253,302.30843 L 178.73253,302.10843 L 178.73253,302.10843 L 178.73253,301.70843 L 178.73253,301.70843 L 178.83253,299.80843 L 178.83253,299.80843 L 178.73253,299.20843 L 178.73253,299.20843 L 182.03253,298.00843 L 182.03253,298.00843 L 181.93253,298.90843 z " />
  <path
     id="57940"
     style="fill:#cccccc;fill-opacity:1;fill-rule:evenodd;stroke:#000000;stroke-width:1px;stroke-linecap:butt;stroke-linejoin:miter;stroke-opacity:1"
     d="M 296.73253,41.408434 L 296.73253,45.508434 L 295.53253,45.808434 L 295.63253,54.208434 L 295.63253,54.208434 L 293.23253,54.208434 L 293.23253,54.208434 L 287.03253,54.208434 L 287.13253,47.908434 L 287.13253,47.908434 L 284.23253,47.808434 L 284.23253,47.808434 L 283.93253,47.808434 L 283.93253,47.808434 L 284.13253,41.408434 L 284.13253,41.408434 L 287.63253,41.508434 L 287.63253,41.508434 L 294.03253,41.508434 L 294.03253,41.508434 L 294.83253,41.408434 L 294.83253,41.408434 L 296.63253,41.408434 L 296.63253,41.408434 L 296.73253,41.408434 z " />
  <path
     id="02900"
     style="fill:#ff0000;fill-opacity:1;fill-rule:evenodd;stroke:#000000;stroke-width:1px;stroke-linecap:butt;stroke-linejoin:miter;stroke-opacity:1"
     d="M 80.03253,168.70843 L 81.73253,168.70843 L 81.73253,168.70843 L 81.53253,175.20843 L 81.53253,175.20843 L 81.43253,178.20843 L 81.43253,178.20843 L 75.13253,178.20843 L 75.13253,178.20843 L 75.13253,177.00843 L 75.13253,177.00843 L 74.63253,176.10843 L 74.63253,176.10843 L 74.23253,176.10843 L 74.23253,176.10843 L 69.03253,175.10843 L 69.03253,175.10843 L 69.03253,168.80843 L 69.03253,168.80843 L 80.03253,168.70843 z " />
  <path
     id="62820"
     style="fill:#cccccc;fill-opacity:1;fill-rule:evenodd;stroke:#000000;stroke-width:1px;stroke-linecap:butt;stroke-linejoin:miter;stroke-opacity:1"
     d="M 334.03253,219.30843 L 334.03253,221.00843 L 334.03253,221.00843 L 332.43253,221.40843 L 332.43253,221.40843 L 332.43253,221.70843 L 332.43253,221.70843 L 332.43253,222.20843 L 332.43253,222.20843 L 332.43253,222.50843 L 332.43253,222.50843 L 332.43253,223.10843 L 332.43253,223.10843 L 333.13253,223.20843 L 333.13253,223.20843 L 332.43253,224.10843 L 332.43253,224.10843 L 332.43253,224.50843 L 332.43253,224.50843 L 332.43253,225.20843 L 332.43253,225.20843 L 332.43253,226.00843 L 332.43253,226.00843 L 332.73253,226.20843 L 332.73253,226.20843 L 332.43253,226.30843 L 332.43253,226.30843 L 332.43253,226.40843 L 332.43253,226.40843 L 332.83253,226.40843 L 332.43253,226.70843 L 332.43253,226.70843 L 332.43253,226.60843 L 332.43253,226.60843 L 332.43253,229.30843 L 331.33253,229.20843 L 330.13253,228.10843 L 330.13253,227.10843 L 330.13253,227.10843 L 329.93253,227.10843 L 329.93253,227.10843 L 329.93253,226.50843 L 329.93253,226.50843 L 326.23253,226.20843 L 326.23253,226.20843 L 326.23253,225.80843 L 326.23253,225.80843 L 326.23253,222.20843 L 326.23253,222.20843 L 324.93253,219.40843 L 324.93253,219.40843 L 325.23253,219.40843 L 325.23253,219.40843 L 325.83253,219.40843 L 325.83253,219.40843 L 326.13253,219.40843 L 326.13253,219.40843 L 334.03253,219.30843 z " />
  <path
     id="path6368"
     style="fill:none;fill-opacity:1;fill-rule:evenodd;stroke:#000000;stroke-width:3px;stroke-linecap:butt;stroke-linejoin:miter;stroke-opacity:1"
     d="M 320.53253,29.108434 L 326.83253,29.108434 L 326.83253,29.108434 L 330.13253,29.108434 L 330.13253,29.108434 L 332.63253,29.208434 L 332.63253,29.208434 L 333.03253,29.208434 L 333.03253,29.208434 L 342.83253,29.308434 L 342.83253,29.308434 L 343.13253,41.808434 L 343.13253,41.808434 L 343.23253,79.808434 L 343.23253,79.808434 L 343.23253,79.908434 L 343.23253,79.908434 L 343.33253,83.908434 L 343.33253,83.908434 L 343.63253,105.10843 L 343.83253,117.70843 L 344.23253,143.00843 L 344.23253,143.00843 L 344.23253,143.00843 L 344.23253,143.00843 L 344.53253,155.60843 L 344.53253,155.60843 L 344.53253,155.70843 L 344.53253,155.70843 L 344.43253,155.70843 L 344.43253,155.70843 L 344.63253,173.50843 L 344.63253,173.50843 L 344.83253,180.60843 L 344.83253,206.50843 L 344.93253,232.00843 L 344.93253,232.00843 L 344.93253,232.30843 L 344.93253,232.30843 L 345.03253,244.70843 L 345.03253,244.70843 L 345.03253,248.50843 L 345.03253,248.50843 L 345.13253,257.30843 L 345.23253,270.10843 L 345.23253,270.10843 L 345.23253,272.50843 L 345.23253,272.50843 L 345.23253,273.60843 L 345.23253,273.60843 L 345.33253,275.60843 L 345.33253,275.60843 L 345.13253,297.10843 L 345.13253,297.10843 L 345.23253,307.60843 L 345.23253,307.60843 L 338.03253,311.10843 L 330.93253,313.70843 L 329.43253,314.00843 L 324.23253,315.10843 L 312.73253,315.70843 L 303.43253,314.50843 L 291.13253,311.30843 L 272.03253,309.50843 L 269.83253,310.00843 L 262.93253,309.90843 L 256.73253,309.30843 L 247.83253,306.20843 L 240.63253,302.60843 L 239.63253,302.10843 L 237.43253,301.40843 L 229.63253,298.80843 L 224.03253,293.80843 L 222.33253,292.70843 L 219.13253,292.70843 L 218.73253,292.70843 L 217.23253,292.90843 L 212.83253,293.40843 L 211.73253,293.60843 L 209.73253,294.20843 L 207.33253,294.80843 L 203.63253,295.90843 L 198.73253,297.90843 L 194.63253,300.30843 L 192.53253,301.50843 L 191.53253,305.30843 L 191.63253,306.80843 L 192.33253,308.90843 L 192.23253,311.20843 L 190.23253,314.70843 L 189.73253,322.00843 L 186.53253,330.00843 L 184.13253,337.90843 L 183.13253,339.80843 L 180.43253,342.80843 L 173.73253,354.10843 L 171.13253,357.50843 L 166.73253,361.90843 L 163.23253,363.30843 L 155.93253,372.20843 L 153.53253,374.30843 L 144.93253,379.70843 L 142.83253,380.20843 L 137.33253,380.50843 L 127.43253,379.40843 L 117.93253,383.70843 L 112.93253,385.30843 L 111.63253,385.30843 L 109.53253,384.50843 L 104.93253,386.10843 L 102.23253,386.00843 L 90.93253,384.40843 L 89.53253,383.10843 L 88.93253,382.80843 L 86.73253,381.80843 L 86.43253,381.70843 L 84.73253,381.10843 L 80.33253,380.40843 L 77.13253,378.60843 L 75.13253,376.90843 L 74.23253,372.30843 L 73.13253,369.50843 L 70.33253,366.30843 L 60.53253,357.90843 L 57.33253,356.60843 L 53.03253,353.50843 L 46.63253,345.50843 L 44.73253,343.60843 L 32.13253,335.20843 L 31.13253,334.20843 L 25.53253,324.10843 L 19.83253,317.90843 L 19.03253,317.70843 L 15.83253,318.60843 L 15.83253,318.60843 L 15.53253,315.00843 L 15.53253,315.00843 L 15.53253,312.00843 L 11.83253,309.60843 L 9.6325301,309.30843 L 11.03253,307.20843 L 14.43253,305.30843 L 17.43253,306.00843 L 17.83253,307.40843 L 20.13253,306.40843 L 23.93253,303.50843 L 24.83253,300.60843 L 23.73253,299.10843 L 24.63253,296.00843 L 25.43253,295.60843 L 29.53253,295.30843 L 29.23253,292.50843 L 30.13253,291.70843 L 37.53253,291.90843 L 41.03253,283.40843 L 40.53253,280.00843 L 40.73253,275.20843 L 42.23253,270.00843 L 39.23253,261.70843 L 37.83253,260.10843 L 36.53253,260.30843 L 35.53253,259.70843 L 35.23253,259.20843 L 35.53253,257.20843 L 35.53253,257.20843 L 35.33253,257.00843 L 35.33253,257.00843 L 34.83253,256.00843 L 35.03253,255.60843 L 39.13253,254.00843 L 42.73253,253.30843 L 42.53253,252.20843 L 41.83253,251.30843 L 41.93253,249.30843 L 44.63253,245.40843 L 45.73253,244.80843 L 45.43253,241.70843 L 44.73253,240.90843 L 43.63253,241.10843 L 41.43253,239.90843 L 41.23253,239.10843 L 41.23253,239.10843 L 41.73253,238.40843 L 42.63253,235.20843 L 42.53253,232.30843 L 44.23253,231.90843 L 46.13253,232.50843 L 47.53253,231.70843 L 47.03253,229.30843 L 45.83253,229.50843 L 44.33253,227.50843 L 45.03253,223.30843 L 47.33253,218.20843 L 47.93253,218.10843 L 49.43253,216.80843 L 51.33253,213.10843 L 51.83253,208.00843 L 50.83253,205.40843 L 53.53253,202.30843 L 54.43253,200.30843 L 53.73253,195.90843 L 49.83253,190.20843 L 48.73253,187.20843 L 45.63253,181.10843 L 43.13253,179.80843 L 41.63253,176.30843 L 40.93253,172.10843 L 42.43253,166.80843 L 43.33253,166.20843 L 44.33253,161.40843 L 44.43253,157.50843 L 47.13253,154.70843 L 51.23253,154.30843 L 52.23253,153.70843 L 53.03253,152.10843 L 53.23253,150.70843 L 48.93253,143.50843 L 47.43253,138.60843 L 48.83253,137.80843 L 46.13253,125.50843 L 44.53253,120.60843 L 43.73253,112.50843 L 44.93253,108.50843 L 44.13253,105.00843 L 45.23253,104.30843 L 45.13253,102.00843 L 43.93253,100.60843 L 45.13253,93.108434 L 44.93253,91.808434 L 45.23253,87.908434 L 46.83253,81.508434 L 48.23253,78.508434 L 51.43253,77.108434 L 52.83253,75.408434 L 54.63253,72.508434 L 55.23253,62.208434 L 55.13253,59.308434 L 56.93253,49.808434 L 56.73253,44.408434 L 56.73253,44.408434 L 56.63253,43.608434 L 62.83253,29.708434 L 62.83253,29.708434 L 106.83253,29.708434 L 106.83253,29.708434 L 118.93253,29.708434 L 119.13253,29.708434 L 119.13253,29.708434 L 125.13253,29.608434 L 125.13253,29.608434 L 193.43253,29.308434 L 193.53253,29.308434 L 218.03253,29.208434 L 218.03253,29.208434 L 218.23253,29.208434 L 218.23253,29.208434 L 267.93253,28.608434 L 320.53253,29.108434 z " />
  <g
     id="g6370"
     transform="matrix(0.5,0,0,0.5,444.7488,0.84795)">
    <path
       id="105"       style="opacity:1;color:#000000;fill:#e8e2b7;fill-opacity:1;fill-rule:evenodd;stroke:#000000;stroke-width:2;stroke-linecap:butt;stroke-linejoin:miter;marker:none;marker-start:none;marker-mid:none;marker-end:none;stroke-miterlimit:4;stroke-dasharray:none;stroke-dashoffset:0;stroke-opacity:1;visibility:visible;display:inline;overflow:visible;enable-background:accumulate"
       d="M 71.473988,67.453534 C 98.678458,68.222602 125.82397,68.874278 153.04518,69.392835 C 151.88288,123.68226 151.38965,178.48389 149.95067,232.45264 C 109.46223,231.61505 68.881408,230.70077 28.480968,229.50254 C 29.183738,187.02397 32.106328,147.12953 32.978268,104.64954 C 35.709608,94.175642 33.788008,78.589707 35.082578,66.525235 C 47.211768,66.857061 59.341398,67.27266 71.473988,67.453534 z "
 />    <path
       id="063"       style="opacity:1;color:#000000;fill:#e8e2b7;fill-opacity:1;fill-rule:evenodd;stroke:#000000;stroke-width:2;stroke-linecap:butt;stroke-linejoin:miter;marker:none;marker-start:none;marker-mid:none;marker-end:none;stroke-miterlimit:4;stroke-dasharray:none;stroke-dashoffset:0;stroke-opacity:1;visibility:visible;display:inline;overflow:visible;enable-background:accumulate"
       d="M 17.980269,66.009435 C 32.707598,63.271357 38.347868,69.349705 34.504978,83.998834 C 33.197878,111.44462 31.387168,138.59587 31.100978,167.05544 C 27.512928,175.07506 32.971898,192.60432 26.988908,198.19402 C -17.813242,196.84042 -62.945736,195.15571 -107.73922,193.52375 C -106.10899,149.6115 -104.37434,105.70722 -103.13872,61.780335 C -62.769321,63.38338 -22.399812,64.829766 17.980269,66.009435 z "
 />    <path
       id="031"       style="opacity:1;color:#000000;fill:#e8e2b7;fill-opacity:1;fill-rule:evenodd;stroke:#000000;stroke-width:2;stroke-linecap:butt;stroke-linejoin:miter;marker:none;marker-start:none;marker-mid:none;marker-end:none;stroke-miterlimit:4;stroke-dasharray:none;stroke-dashoffset:0;stroke-opacity:1;visibility:visible;display:inline;overflow:visible;enable-background:accumulate"
       d="M 153.06578,69.392835 C 215.78636,70.633306 278.52735,71.330784 341.23238,71.538334 C 346.86489,79.091214 358.31161,83.405908 356.70497,94.540835 C 358.1178,103.21761 372.61201,117.83935 359.32497,122.47393 C 347.09374,121.16404 353.13766,138.41569 343.19228,142.03114 C 340.39923,154.33161 358.50644,144.71703 360.19139,154.78054 C 351.65635,158.35594 333.07761,155.33845 320.58045,156.20586 C 264.2306,155.98059 207.88377,155.23227 151.53917,154.32664 C 152.00915,126.02025 152.46489,97.6638 153.06578,69.392835 z "
 />    <path
       id="021"       style="opacity:1;color:#000000;fill:#e8e2b7;fill-opacity:1;fill-rule:evenodd;stroke:#000000;stroke-width:2;stroke-linecap:butt;stroke-linejoin:miter;marker:none;marker-start:none;marker-mid:none;marker-end:none;stroke-miterlimit:4;stroke-dasharray:none;stroke-dashoffset:0;stroke-opacity:1;visibility:visible;display:inline;overflow:visible;enable-background:accumulate"
       d="M 350.59847,71.579635 C 380.11147,71.782738 409.626,71.899584 439.14257,71.889034 C 439.23965,92.726656 439.40079,113.56049 439.55516,134.39803 C 409.61613,134.60686 379.67283,134.45038 349.73198,134.31554 C 348.49961,123.89964 357.47297,122.97624 364.19368,119.58573 C 366.36564,107.69456 354.23748,97.249624 355.28148,84.968434 C 351.56156,80.723262 333.6885,69.383663 348.13016,71.558935 L 349.81447,71.558935 L 350.59847,71.579635 z "
 />    <path
       id="089"       style="opacity:1;color:#000000;fill:#e8e2b7;fill-opacity:1;fill-rule:evenodd;stroke:#000000;stroke-width:2;stroke-linecap:butt;stroke-linejoin:miter;marker:none;marker-start:none;marker-mid:none;marker-end:none;stroke-miterlimit:4;stroke-dasharray:none;stroke-dashoffset:0;stroke-opacity:1;visibility:visible;display:inline;overflow:visible;enable-background:accumulate"
       d="M 455.33721,71.744634 C 491.45589,71.818624 527.57018,71.14121 563.68621,70.940034 C 564.03563,91.769112 564.21355,112.60098 564.61449,133.42844 C 522.92858,133.73014 481.24353,134.39363 439.55516,134.39803 C 439.40003,113.56031 439.245,92.726574 439.14257,71.889034 C 444.54077,71.8427 449.93877,71.773675 455.33721,71.744634 z "
 />    <path
       id="013"       style="opacity:1;color:#000000;fill:#e8e2b7;fill-opacity:1;fill-rule:evenodd;stroke:#000000;stroke-width:2;stroke-linecap:butt;stroke-linejoin:miter;marker:none;marker-start:none;marker-mid:none;marker-end:none;stroke-miterlimit:4;stroke-dasharray:none;stroke-dashoffset:0;stroke-opacity:1;visibility:visible;display:inline;overflow:visible;enable-background:accumulate"
       d="M 563.68621,70.940034 C 594.84898,70.823571 626.00638,70.288893 657.16088,69.578435 C 658.09784,111.29766 659.00647,153.01837 659.82219,194.74094 C 628.5222,195.3401 597.21863,195.8045 565.91417,195.97873 C 565.55493,153.95665 563.99517,112.958 563.68621,70.940034 z "
 />    <path
       id="109"       style="opacity:1;color:#000000;fill:#e8e2b7;fill-opacity:1;fill-rule:evenodd;stroke:#000000;stroke-width:2;stroke-linecap:butt;stroke-linejoin:miter;marker:none;marker-start:none;marker-mid:none;marker-end:none;stroke-miterlimit:4;stroke-dasharray:none;stroke-dashoffset:0;stroke-opacity:1;visibility:visible;display:inline;overflow:visible;enable-background:accumulate"
       d="M 817.22936,64.709735 C 824.31315,65.238809 837.18648,60.806402 834.16655,70.733734 C 834.36703,78.563468 833.50047,86.760931 827.15239,92.168334 C 823.62789,104.85277 808.07719,108.24909 801.22051,118.61603 C 796.18151,130.27439 814.62168,135.42956 815.08391,147.08553 C 817.60479,154.50417 822.88925,161.49098 831.50536,159.25724 C 837.14481,161.45841 857.43964,170.70567 846.00301,173.26133 C 825.47972,174.06435 804.96278,175.08246 784.4276,175.53434 C 783.38768,186.55255 767.97387,178.85373 760.63524,181.60625 C 749.57862,182.46309 756.74541,163.83638 754.20458,155.66764 C 753.29015,126.14328 752.19475,96.624219 751.19255,67.102835 C 773.21334,66.247151 795.20646,65.619102 817.22936,64.709735 z "
 />    <path
       id="091"       style="opacity:1;color:#000000;fill:#e8e2b7;fill-opacity:1;fill-rule:evenodd;stroke:#000000;stroke-width:2;stroke-linecap:butt;stroke-linejoin:miter;marker:none;marker-start:none;marker-mid:none;marker-end:none;stroke-miterlimit:4;stroke-dasharray:none;stroke-dashoffset:0;stroke-opacity:1;visibility:visible;display:inline;overflow:visible;enable-background:accumulate"
       d="M 659.65709,69.516535 C 690.17734,68.950183 720.68473,68.051285 751.19255,67.102835 C 751.93307,89.700518 752.81947,112.29403 753.52379,134.89313 C 745.78404,134.70152 735.88948,137.53856 733.71898,130.16894 C 708.66726,130.93212 683.59159,131.56387 658.52251,132.04623 C 658.06424,111.22278 657.66003,90.400695 657.16088,69.578435 L 659.51933,69.519951 L 659.65709,69.516535 z "
 />    <path
       id="129"       style="opacity:1;color:#000000;fill:#e8e2b7;fill-opacity:1;fill-rule:evenodd;stroke:#000000;stroke-width:2;stroke-linecap:butt;stroke-linejoin:miter;marker:none;marker-start:none;marker-mid:none;marker-end:none;stroke-miterlimit:4;stroke-dasharray:none;stroke-dashoffset:0;stroke-opacity:1;visibility:visible;display:inline;overflow:visible;enable-background:accumulate"
       d="M 355.05458,134.37743 C 383.63462,134.40147 412.21517,134.63134 440.79296,134.39803 C 440.79536,155.26913 440.92079,176.13944 440.93736,197.01024 C 417.78196,196.55225 393.14935,198.073 370.98088,196.24694 C 364.4977,190.08856 362.00689,182.29997 368.81478,175.36934 C 370.19643,167.70848 360.37908,162.73202 360.19139,154.78054 C 358.47509,144.71419 340.44457,154.3664 343.19228,142.03114 C 347.18066,138.6507 349.23521,132.64609 355.05458,134.37743 z "
 />    <path
       id="045"       style="opacity:1;color:#000000;fill:#e8e2b7;fill-opacity:1;fill-rule:evenodd;stroke:#000000;stroke-width:2;stroke-linecap:butt;stroke-linejoin:miter;marker:none;marker-start:none;marker-mid:none;marker-end:none;stroke-miterlimit:4;stroke-dasharray:none;stroke-dashoffset:0;stroke-opacity:1;visibility:visible;display:inline;overflow:visible;enable-background:accumulate"
       d="M 440.79296,134.39803 C 482.19248,134.38253 523.5887,133.71896 564.98589,133.42844 C 565.25698,154.28133 565.63836,175.1383 565.91417,195.97873 C 524.25555,196.28989 482.59969,196.97786 440.93736,197.01024 C 440.92226,176.13946 440.79673,155.26904 440.79296,134.39803 z "
 />    <path
       id="037"       style="opacity:1;color:#000000;fill:#e8e2b7;fill-opacity:1;fill-rule:evenodd;stroke:#000000;stroke-width:2;stroke-linecap:butt;stroke-linejoin:miter;marker:none;marker-start:none;marker-mid:none;marker-end:none;stroke-miterlimit:4;stroke-dasharray:none;stroke-dashoffset:0;stroke-opacity:1;visibility:visible;display:inline;overflow:visible;enable-background:accumulate"
       d="M 658.52251,132.04623 C 683.87655,131.91394 710.21236,130.28471 735.03929,130.56084 C 734.3208,142.54583 756.27228,127.41723 753.70946,140.07133 C 753.86826,162.50748 756.38869,186.95041 755.11229,208.04734 C 723.47571,209.15195 691.79761,210.02666 660.13158,210.41974 C 659.56705,184.29591 659.15571,158.16868 658.52251,132.04623 z "
 />    <path
       id="041"       style="opacity:1;color:#000000;fill:#e8e2b7;fill-opacity:1;fill-rule:evenodd;stroke:#000000;stroke-width:2;stroke-linecap:butt;stroke-linejoin:miter;marker:none;marker-start:none;marker-mid:none;marker-end:none;stroke-miterlimit:4;stroke-dasharray:none;stroke-dashoffset:0;stroke-opacity:1;visibility:visible;display:inline;overflow:visible;enable-background:accumulate"
       d="M 301.37517,156.03894 C 321.19038,156.32681 341.33476,156.19047 360.93407,156.45154 C 363.04234,165.96788 375.77238,174.38884 364.17299,183.45634 C 364.12445,191.73245 376.66592,196.61403 369.28929,205.73675 C 371.17234,216.34284 354.88705,227.04392 368.34029,235.36155 C 368.7953,245.1999 350.88506,228.27302 350.41277,242.89144 C 347.77319,253.12638 361.20671,266.81945 346.95526,272.20213 C 339.77256,277.2128 334.75288,291.15965 324.70684,281.20835 C 322.01831,273.95728 311.0589,267.5555 311.3395,279.88114 C 317.3221,286.92684 297.09861,282.17507 308.28627,282.19164 C 306.63467,289.42613 306.06301,279.26556 302.53047,283.92464 C 301.86951,282.9882 298.9324,279.00365 296.13518,281.40774 C 292.89841,285.07232 288.12905,278.38267 287.59429,282.45984 C 282.42932,283.9358 280.81132,284.63611 278.00139,289.47414 C 275.65346,289.94285 270.71232,289.35472 266.42787,288.17444 C 253.58099,288.50778 261.42533,271.69368 259.47972,263.22549 C 260.20862,251.23621 262.55231,237.69939 246.72618,241.96314 C 235.64417,241.82461 224.40357,241.63366 213.40868,241.52984 C 214.53025,232.54911 216.45369,224.41222 215.64591,213.41058 C 216.60649,197.83003 214.13504,178.68028 218.25975,166.27782 C 213.65338,152.26013 225.44366,155.14865 234.86388,155.50263 C 257.03527,155.57372 279.20285,156.22701 301.37517,156.03894 z "
 />    <path
       id="137"       style="opacity:1;color:#000000;fill:#e8e2b7;fill-opacity:1;fill-rule:evenodd;stroke:#000000;stroke-width:2;stroke-linecap:butt;stroke-linejoin:miter;marker:none;marker-start:none;marker-mid:none;marker-end:none;stroke-miterlimit:4;stroke-dasharray:none;stroke-dashoffset:0;stroke-opacity:1;visibility:visible;display:inline;overflow:visible;enable-background:accumulate"
       d="M 171.34398,154.59484 C 186.98174,154.96023 203.05426,154.97735 218.42177,155.50263 C 219.39042,168.97271 214.46723,176.38874 215.92531,190.32781 C 215.22223,204.45215 216.55703,220.63552 214.68779,233.56664 C 207.17124,243.75318 221.75002,241.83099 228.55834,241.69673 C 238.94264,241.87655 249.31448,242.05132 259.70247,242.06624 C 258.00544,257.65349 262.19122,276.14952 257.08248,289.82483 C 252.16995,296.15496 246.27302,294.42264 241.91939,297.35474 C 235.64328,299.12369 234.84928,295.3164 233.66738,297.60235 C 229.43266,295.23768 227.07562,301.26876 229.08748,300.61434 C 231.56208,304.58542 224.60366,300.63808 223.45549,305.11164 C 218.96558,303.03838 216.43887,309.01281 217.82347,310.84684 C 214.21853,310.27472 210.48424,315.60294 211.90267,315.34414 C 210.16507,317.6174 203.57686,317.36608 205.52797,317.63414 C 202.68782,315.08698 196.17981,319.64178 195.50179,314.70464 C 193.54593,316.65454 190.82405,313.35612 188.17818,317.40714 C 185.77483,313.99298 183.38297,318.37784 180.60689,318.62433 C 181.90904,321.1795 172.03913,320.67592 174.02587,322.54404 C 173.47791,328.14075 171.0198,322.95497 168.97158,325.63855 C 162.87178,322.08909 154.89822,323.68818 148.89858,326.19553 C 147.46552,323.14631 149.21067,304.67056 148.87996,296.37124 C 149.73103,249.02162 150.74417,201.67647 151.53917,154.32664 C 158.14023,154.41993 164.745,154.47773 171.34398,154.59484 z "
 />    <path
       id="051"       style="opacity:1;color:#000000;fill:#e8e2b7;fill-opacity:1;fill-rule:evenodd;stroke:#000000;stroke-width:2;stroke-linecap:butt;stroke-linejoin:miter;marker:none;marker-start:none;marker-mid:none;marker-end:none;stroke-miterlimit:4;stroke-dasharray:none;stroke-dashoffset:0;stroke-opacity:1;visibility:visible;display:inline;overflow:visible;enable-background:accumulate"
       d="M 831.95915,173.84274 C 839.64699,174.53431 853.61275,168.75295 853.02251,180.67124 C 853.61075,198.99705 855.12798,218.27133 854.8792,235.95974 C 836.80195,236.7939 818.72191,237.4616 800.64281,238.08465 C 797.87662,228.68666 804.26165,209.73662 795.38219,206.99514 C 782.21462,207.54191 769.08308,207.53151 755.91686,208.02665 C 757.45818,197.12732 748.23881,176.16918 766.86339,181.45202 C 772.84775,179.65988 784.45266,185.17819 784.4276,175.53434 C 800.2798,175.22483 816.11675,174.44613 831.95915,173.84274 z "
 />    <path
       id="107"       style="opacity:1;color:#000000;fill:#e8e2b7;fill-opacity:1;fill-rule:evenodd;stroke:#000000;stroke-width:2;stroke-linecap:butt;stroke-linejoin:miter;marker:none;marker-start:none;marker-mid:none;marker-end:none;stroke-miterlimit:4;stroke-dasharray:none;stroke-dashoffset:0;stroke-opacity:1;visibility:visible;display:inline;overflow:visible;enable-background:accumulate"
       d="M 371.16658,196.98964 C 399.87667,197.569 430.45891,196.1269 458.10155,197.58783 C 458.317,218.28216 458.53347,238.96894 458.65856,259.66364 C 423.35521,259.94793 388.05201,259.89243 352.74398,259.91124 C 348.574,252.19943 348.70102,230.33259 362.44114,237.99582 C 376.44834,241.43259 360.10067,229.90054 362.87328,223.56115 C 369.23087,215.90294 369.86023,206.08363 371.16658,196.98964 z "
 />    <path
       id="049"       style="opacity:1;color:#000000;fill:#e8e2b7;fill-opacity:1;fill-rule:evenodd;stroke:#000000;stroke-width:2;stroke-linecap:butt;stroke-linejoin:miter;marker:none;marker-start:none;marker-mid:none;marker-end:none;stroke-miterlimit:4;stroke-dasharray:none;stroke-dashoffset:0;stroke-opacity:1;visibility:visible;display:inline;overflow:visible;enable-background:accumulate"
       d="M 460.90727,196.92774 C 496.12064,196.85798 531.32317,196.14356 566.53307,195.99933 C 566.81425,216.8239 567.40037,237.64245 567.6884,258.46714 C 531.33484,259.02076 494.99276,259.45011 458.65856,259.66364 C 458.53426,238.75573 458.30847,217.85576 458.10155,196.94834 C 459.03876,197.05997 459.97172,196.91606 460.90727,196.92774 z "
 />    <path
       id="115"       style="opacity:1;color:#000000;fill:#e8e2b7;fill-opacity:1;fill-rule:evenodd;stroke:#000000;stroke-width:2;stroke-linecap:butt;stroke-linejoin:miter;marker:none;marker-start:none;marker-mid:none;marker-end:none;stroke-miterlimit:4;stroke-dasharray:none;stroke-dashoffset:0;stroke-opacity:1;visibility:visible;display:inline;overflow:visible;enable-background:accumulate"
       d="M 589.78319,195.79303 C 613.1304,195.53968 636.47763,195.20304 659.82219,194.74094 C 660.00822,232.07349 662.31184,267.3736 662.89598,304.43084 C 631.8785,305.08434 600.85682,305.55857 569.83391,305.87494 C 569.60646,286.03043 569.62138,265.9773 567.52336,248.04894 C 567.21948,230.69875 566.76298,213.35098 566.53307,195.99933 C 574.28311,195.9333 582.03301,195.83327 589.78319,195.79303 z "
 />    <path
       id="019"       style="opacity:1;color:#000000;fill:#e8e2b7;fill-opacity:1;fill-rule:evenodd;stroke:#000000;stroke-width:2;stroke-linecap:butt;stroke-linejoin:miter;marker:none;marker-start:none;marker-mid:none;marker-end:none;stroke-miterlimit:4;stroke-dasharray:none;stroke-dashoffset:0;stroke-opacity:1;visibility:visible;display:inline;overflow:visible;enable-background:accumulate"
       d="M -91.37952,194.08074 C -51.252363,195.68311 -10.774702,197.01401 29.347478,198.24804 C 28.080358,234.79007 27.599418,272.12946 25.407079,307.87604 C -11.352732,307.15768 -48.594076,304.79774 -85.04612,304.78154 C -85.00905,307.86998 -89.70567,307.31724 -92.76182,304.88474 C -96.97135,308.38816 -104.15422,308.82847 -108.87382,308.02054 C -115.63207,309.42952 -114.48536,305.6003 -113.89128,297.3273 C -113.05499,275.62685 -112.12928,253.93304 -111.51452,232.22574 C -105.68268,224.6559 -109.87175,206.62605 -107.80489,195.20276 C -106.59452,191.5815 -95.14647,195.14217 -91.37952,194.08074 z "
 />    <path
       id="025"       style="opacity:1;color:#000000;fill:#e8e2b7;fill-opacity:1;fill-rule:evenodd;stroke:#000000;stroke-width:2;stroke-linecap:butt;stroke-linejoin:miter;marker:none;marker-start:none;marker-mid:none;marker-end:none;stroke-miterlimit:4;stroke-dasharray:none;stroke-dashoffset:0;stroke-opacity:1;visibility:visible;display:inline;overflow:visible;enable-background:accumulate"
       d="M 663.94817,210.37854 C 683.28943,210.19232 702.62319,209.54272 721.95976,209.14074 C 722.23026,245.64896 726.1167,283.81882 724.291,318.66565 C 709.12688,319.05668 693.96949,319.46573 678.80181,319.82084 C 687.52347,297.49589 661.3165,311.53089 662.73512,296.87325 C 662.42891,267.44089 660.18229,239.99886 660.13158,210.41974 L 662.49062,210.39428 L 663.94817,210.37854 z "
 />    <path
       id="029"       style="opacity:1;color:#000000;fill:#e8e2b7;fill-opacity:1;fill-rule:evenodd;stroke:#000000;stroke-width:2;stroke-linecap:butt;stroke-linejoin:miter;marker:none;marker-start:none;marker-mid:none;marker-end:none;stroke-miterlimit:4;stroke-dasharray:none;stroke-dashoffset:0;stroke-opacity:1;visibility:visible;display:inline;overflow:visible;enable-background:accumulate"
       d="M 755.11229,208.04734 C 769.88658,207.51293 784.62909,207.50164 799.40496,206.85074 C 800.25304,227.73526 801.06554,248.50217 801.44737,269.15354 C 775.69131,270.25908 749.91736,270.97381 724.14659,271.71164 C 723.17767,251.07023 722.54404,230.22102 721.95976,209.14074 C 733.00236,208.61574 744.08383,208.61377 755.11229,208.04734 z "
 />    <path
       id="093"       style="opacity:1;color:#000000;fill:#e8e2b7;fill-opacity:1;fill-rule:evenodd;stroke:#000000;stroke-width:2;stroke-linecap:butt;stroke-linejoin:miter;marker:none;marker-start:none;marker-mid:none;marker-end:none;stroke-miterlimit:4;stroke-dasharray:none;stroke-dashoffset:0;stroke-opacity:1;visibility:visible;display:inline;overflow:visible;enable-background:accumulate"
       d="M 32.483188,229.58504 C 71.490768,231.04255 111.57732,231.13302 150.09508,232.82404 C 149.1991,264.4788 149.35694,296.54812 147.92888,327.94913 C 139.77411,328.95619 140.29912,336.24532 134.76699,339.00684 C 134.0486,344.0184 126.35905,335.55636 127.54648,342.03943 C 121.1248,344.67386 121.59192,335.04591 115.51908,338.55295 C 112.10338,337.05799 110.29092,345.16574 109.20638,343.29783 C 109.52977,347.87105 110.06648,353.21919 105.92618,353.63355 C 103.56061,355.80939 104.00742,361.64851 102.00649,364.23734 C 99.308248,369.59001 101.3554,372.73956 101.18128,377.81193 C 98.886128,380.73108 95.082178,383.04061 95.879268,387.69373 C 99.732838,385.51936 96.557488,389.37519 95.858678,390.54065 C 99.076368,397.2325 84.313678,391.6838 79.410068,393.11687 C 39.658998,392.09023 -0.084881759,390.87196 -39.825119,389.57105 C -37.702337,375.84584 -37.66255,363.77017 -54.80252,368.21894 C -53.449374,347.60597 -52.537642,326.7448 -51.687324,305.44175 C -25.980787,306.23876 -0.29850176,307.10386 25.407079,307.87604 C 27.107598,282.40788 27.460408,255.52939 28.480968,229.50254 L 30.839648,229.55116 L 32.483188,229.58504 z "
 />    <path
       id="039"       style="opacity:1;color:#000000;fill:#e8e2b7;fill-opacity:1;fill-rule:evenodd;stroke:#000000;stroke-width:2;stroke-linecap:butt;stroke-linejoin:miter;marker:none;marker-start:none;marker-mid:none;marker-end:none;stroke-miterlimit:4;stroke-dasharray:none;stroke-dashoffset:0;stroke-opacity:1;visibility:visible;display:inline;overflow:visible;enable-background:accumulate"
       d="M 854.8792,235.95974 C 856.92346,261.00185 857.25706,288.22756 858.4688,314.10634 C 839.98245,314.75794 821.50088,315.50761 803.01531,316.16935 C 802.13955,290.07151 801.24985,263.91089 800.64281,238.08465 C 818.72198,237.427 836.8008,236.81434 854.8792,235.95974 z "
 />    <path
       id="119"       style="opacity:1;color:#000000;fill:#e8e2b7;fill-opacity:1;fill-rule:evenodd;stroke:#000000;stroke-width:2;stroke-linecap:butt;stroke-linejoin:miter;marker:none;marker-start:none;marker-mid:none;marker-end:none;stroke-miterlimit:4;stroke-dasharray:none;stroke-dashoffset:0;stroke-opacity:1;visibility:visible;display:inline;overflow:visible;enable-background:accumulate"
       d="M 362.70827,259.82874 C 390.38884,260.01691 418.07056,259.89008 445.74419,259.72555 C 445.86503,280.74061 445.82881,301.7556 445.86797,322.77094 C 408.33317,322.08397 369.735,324.70909 332.83599,321.88386 C 321.04344,322.84847 319.9441,309.44853 324.99657,301.85215 C 328.8489,294.05236 323.43985,287.11399 316.93019,285.55434 C 306.24672,283.97772 313.7878,264.7919 320.58177,275.92014 C 324.71982,286.18884 338.80897,287.48857 342.18138,276.12644 C 354.89968,273.00146 350.37889,257.57829 360.55649,259.85301 L 362.52257,259.82874 L 362.70827,259.82874 z "
 />    <path
       id="069"       style="opacity:1;color:#000000;fill:#e8e2b7;fill-opacity:1;fill-rule:evenodd;stroke:#000000;stroke-width:2;stroke-linecap:butt;stroke-linejoin:miter;marker:none;marker-start:none;marker-mid:none;marker-end:none;stroke-miterlimit:4;stroke-dasharray:none;stroke-dashoffset:0;stroke-opacity:1;visibility:visible;display:inline;overflow:visible;enable-background:accumulate"
       d="M 449.54009,259.70495 C 463.67876,259.71523 477.82671,259.4783 491.93486,259.43674 C 492.17664,280.4584 492.239,301.47936 492.45061,322.50275 C 496.10651,332.31896 493.12446,348.87852 494.36919,361.26664 C 494.54579,369.56298 494.51358,377.86839 494.69927,386.16715 C 479.48643,385.22018 463.32938,390.20668 449.93205,382.41245 C 444.7875,377.29332 449.16902,362.58351 447.72466,354.00483 C 447.81981,339.58184 447.50231,325.85912 445.85303,313.37696 C 445.82714,295.49304 445.85381,277.6093 445.74419,259.72555 L 448.10334,259.71274 L 449.54009,259.70495 z "
 />    <path
       id="059"       style="opacity:1;color:#000000;fill:#e8e2b7;fill-opacity:1;fill-rule:evenodd;stroke:#000000;stroke-width:2;stroke-linecap:butt;stroke-linejoin:miter;marker:none;marker-start:none;marker-mid:none;marker-end:none;stroke-miterlimit:4;stroke-dasharray:none;stroke-dashoffset:0;stroke-opacity:1;visibility:visible;display:inline;overflow:visible;enable-background:accumulate"
       d="M 491.93486,259.43674 C 517.66304,259.13379 543.38575,258.86031 569.11186,258.44654 C 569.39282,301.1414 571.3202,342.1042 571.75249,384.80555 C 546.10421,385.39035 519.95861,385.31117 494.69927,386.16715 C 493.80111,362.39168 495.49831,335.97925 492.38866,314.64274 C 492.20779,296.23935 492.14978,277.83883 491.93486,259.43674 z "
 />    <path
       id="057"       style="opacity:1;color:#000000;fill:#e8e2b7;fill-opacity:1;fill-rule:evenodd;stroke:#000000;stroke-width:2;stroke-linecap:butt;stroke-linejoin:miter;marker:none;marker-start:none;marker-mid:none;marker-end:none;stroke-miterlimit:4;stroke-dasharray:none;stroke-dashoffset:0;stroke-opacity:1;visibility:visible;display:inline;overflow:visible;enable-background:accumulate"
       d="M 801.44737,269.15354 C 801.76708,284.72055 803.09354,301.47786 802.4583,316.21064 C 776.77479,317.19806 751.10419,318.05418 725.40508,318.64493 C 724.93488,303.00146 724.56809,287.35622 724.14659,271.71164 C 749.91776,270.97723 775.69091,270.25019 801.44737,269.15354 z "
 />    <path
       id="117"       style="opacity:1;color:#000000;fill:#e8e2b7;fill-opacity:1;fill-rule:evenodd;stroke:#000000;stroke-width:2;stroke-linecap:butt;stroke-linejoin:miter;marker:none;marker-start:none;marker-mid:none;marker-end:none;stroke-miterlimit:4;stroke-dasharray:none;stroke-dashoffset:0;stroke-opacity:1;visibility:visible;display:inline;overflow:visible;enable-background:accumulate"
       d="M 312.80419,282.64554 C 317.40518,288.30536 327.2913,286.67864 326.15187,296.67394 C 324.618,304.90504 316.38242,319.47557 330.07158,321.47123 C 337.63155,319.25631 341.73589,329.1998 332.83599,330.48664 C 323.6431,341.21195 339.14704,343.34832 346.45177,338.67673 C 362.68978,336.23568 349.55578,362.65888 365.61708,360.75083 C 377.67483,364.44394 390.87123,362.59017 401.32768,370.75644 C 405.72305,376.7752 417.98757,370.12807 418.20305,379.04975 C 411.04998,392.95392 393.47116,384.51549 380.30568,386.76532 C 372.9476,388.68719 356.76955,381.676 357.36507,391.51023 C 323.06324,391.55656 288.75901,391.27254 254.46248,391.01514 C 254.51316,377.34027 254.42277,363.64135 256.30552,351.85211 C 256.49427,333.51421 256.72203,315.17669 256.93807,296.83904 C 256.96726,288.23566 264.40267,283.4812 273.48339,290.81504 C 278.5721,288.68714 277.41013,287.6782 282.47808,285.45124 C 280.80209,282.4852 293.39223,281.49259 290.13179,281.34585 C 292.53244,285.17998 299.58707,276.5248 301.21007,283.18194 C 302.19516,284.3539 306.82827,280.75285 305.33617,284.41974 C 308.42714,286.54928 309.82086,278.26581 310.39049,283.92464 C 311.42927,284.05005 312.13582,283.25438 312.80419,282.64554 z "
 />    <path
       id="055"       style="opacity:1;color:#000000;fill:#e8e2b7;fill-opacity:1;fill-rule:evenodd;stroke:#000000;stroke-width:2;stroke-linecap:butt;stroke-linejoin:miter;marker:none;marker-start:none;marker-mid:none;marker-end:none;stroke-miterlimit:4;stroke-dasharray:none;stroke-dashoffset:0;stroke-opacity:1;visibility:visible;display:inline;overflow:visible;enable-background:accumulate"
       d="M 256.42229,340.34775 C 256.96123,356.65705 253.62186,368.96518 254.52437,385.61005 C 250.95899,398.32103 275.49737,383.34641 269.83589,398.17508 C 269.31874,410.28382 274.69983,428.58899 256.0643,422.35159 C 219.26543,421.90365 182.4789,421.50161 145.68028,420.84623 C 146.13233,388.62339 146.79703,357.18272 148.89858,326.19553 C 155.15267,323.44984 163.55046,322.21114 169.77617,325.92734 C 171.593,322.11486 173.45635,328.78894 174.45919,322.25525 C 177.34696,325.12404 181.53505,319.74221 181.51457,317.75785 C 184.49662,318.11666 186.06773,313.98167 188.75579,317.57224 C 191.20198,312.61938 193.72961,316.81656 196.07949,314.97284 C 196.05383,319.76376 203.23499,314.91284 205.52797,317.63414 C 207.42196,317.75412 213.46693,313.10478 211.90267,315.34414 C 213.32109,315.08533 214.21853,310.27472 217.82347,310.84684 C 216.29374,308.54383 219.36884,303.30215 223.90938,304.78154 C 226.10263,300.5888 231.49266,304.66608 229.43819,299.45904 C 231.06092,297.81056 231.353,297.23128 234.74019,296.42644 C 235.98616,299.53248 242.18202,297.28234 244.82817,295.10615 C 249.29006,298.70393 256.54663,290.1427 259.24858,286.56524 C 257.54699,299.34172 255.92494,312.29353 256.57452,327.50624 C 256.52378,331.78675 256.47303,336.06725 256.42229,340.34775 z "
 />    <path
       id="005"       style="opacity:1;color:#000000;fill:#e8e2b7;fill-opacity:1;fill-rule:evenodd;stroke:#000000;stroke-width:2;stroke-linecap:butt;stroke-linejoin:miter;marker:none;marker-start:none;marker-mid:none;marker-end:none;stroke-miterlimit:4;stroke-dasharray:none;stroke-dashoffset:0;stroke-opacity:1;visibility:visible;display:inline;overflow:visible;enable-background:accumulate"
       d="M 648.74376,304.71975 C 658.2934,307.28365 679.99982,297.18655 678.58692,311.23796 C 679.91509,334.48154 680.00472,358.98831 680.74095,382.82505 C 644.51895,383.52572 607.37214,384.49445 571.75249,384.43415 C 571.21108,358.0527 571.02378,331.48975 569.83391,305.87494 C 596.13884,305.61412 622.44224,305.21402 648.74376,304.71975 z "
 />    <path
       id="081"       style="opacity:1;color:#000000;fill:#e8e2b7;fill-opacity:1;fill-rule:evenodd;stroke:#000000;stroke-width:2;stroke-linecap:butt;stroke-linejoin:miter;marker:none;marker-start:none;marker-mid:none;marker-end:none;stroke-miterlimit:4;stroke-dasharray:none;stroke-dashoffset:0;stroke-opacity:1;visibility:visible;display:inline;overflow:visible;enable-background:accumulate"
       d="M -84.05592,304.16263 C -73.274488,304.63519 -62.489802,305.00195 -51.708023,305.46235 C -52.544526,326.73977 -53.40388,347.67354 -54.80252,368.21894 C -37.313141,363.44271 -37.750121,375.88941 -39.825119,389.57105 C -65.659779,388.76801 -91.48301,387.64172 -117.31152,386.66224 C -115.80274,360.72403 -116.57732,333.56172 -113.43312,308.39184 C -108.82002,307.41869 -102.17507,309.38965 -96.88782,307.40165 C -93.7684,302.84379 -89.19512,308.3375 -85.85072,306.41134 C -86.56888,305.05456 -84.79147,307.85355 -84.05592,304.16263 z "
 />    <path
       id="065"       style="opacity:1;color:#000000;fill:#e8e2b7;fill-opacity:1;fill-rule:evenodd;stroke:#000000;stroke-width:2;stroke-linecap:butt;stroke-linejoin:miter;marker:none;marker-start:none;marker-mid:none;marker-end:none;stroke-miterlimit:4;stroke-dasharray:none;stroke-dashoffset:0;stroke-opacity:1;visibility:visible;display:inline;overflow:visible;enable-background:accumulate"
       d="M 422.90679,322.83283 C 437.36118,321.8662 453.23772,319.58305 447.53899,338.86243 C 447.83716,353.38472 447.51408,367.91162 447.86907,382.43305 C 431.49708,389.97995 456.48338,390.08083 456.32738,399.30845 C 451.11818,411.78308 438.00064,392.40457 428.70378,398.33884 C 419.78157,403.43949 413.33843,392.00319 412.83928,384.86744 C 423.28026,379.49209 415.76089,371.50997 407.33896,373.6057 C 396.17339,368.00044 385.37434,361.91293 372.40438,362.73133 C 364.29339,361.01665 354.56627,359.75391 355.92098,348.99173 C 357.89099,335.95713 342.22926,337.71663 334.69268,341.58555 C 324.1649,338.09689 333.84873,329.6166 338.26168,326.15433 C 336.43948,319.36862 352.5752,324.87836 358.04589,323.01853 C 379.66591,322.98656 401.28872,323.01649 422.90679,322.83283 z "
 />    <path
       id="077"       style="opacity:1;color:#000000;fill:#e8e2b7;fill-opacity:1;fill-rule:evenodd;stroke:#000000;stroke-width:2;stroke-linecap:butt;stroke-linejoin:miter;marker:none;marker-start:none;marker-mid:none;marker-end:none;stroke-miterlimit:4;stroke-dasharray:none;stroke-dashoffset:0;stroke-opacity:1;visibility:visible;display:inline;overflow:visible;enable-background:accumulate"
       d="M 694.58379,319.42893 C 720.37589,318.76718 746.17776,318.15686 771.96709,317.34524 C 772.61384,338.23053 773.25228,359.1129 773.84441,379.99875 C 742.81473,381.07315 711.78576,382.21339 680.74095,382.82505 C 680.235,361.82162 679.70605,340.82336 679.19377,319.82084 C 684.32378,319.69213 689.45445,319.57486 694.58379,319.42893 z "
 />    <path
       id="011"       style="opacity:1;color:#000000;fill:#e8e2b7;fill-opacity:1;fill-rule:evenodd;stroke:#000000;stroke-width:2;stroke-linecap:butt;stroke-linejoin:miter;marker:none;marker-start:none;marker-mid:none;marker-end:none;stroke-miterlimit:4;stroke-dasharray:none;stroke-dashoffset:0;stroke-opacity:1;visibility:visible;display:inline;overflow:visible;enable-background:accumulate"
       d="M 819.43675,315.55044 C 832.44955,315.11098 845.45639,314.54099 858.4688,314.10634 C 859.30277,334.95785 860.10452,355.80727 860.86186,376.65665 C 831.87797,378.28962 802.85309,378.92144 773.84441,379.99875 C 773.91659,359.37483 771.18639,336.18409 773.06047,317.30404 C 788.51641,316.66139 803.98111,316.1932 819.43675,315.55044 z "
 />    <path
       id="103"       style="opacity:1;color:#000000;fill:#e8e2b7;fill-opacity:1;fill-rule:evenodd;stroke:#000000;stroke-width:2;stroke-linecap:butt;stroke-linejoin:miter;marker:none;marker-start:none;marker-mid:none;marker-end:none;stroke-miterlimit:4;stroke-dasharray:none;stroke-dashoffset:0;stroke-opacity:1;visibility:visible;display:inline;overflow:visible;enable-background:accumulate"
       d="M 132.60079,340.55405 C 137.20465,340.05942 137.7605,334.26398 141.28609,332.48774 C 150.36574,319.43132 148.24319,339.51845 147.84353,347.24462 C 146.21071,370.81199 146.18827,396.13817 145.68028,420.84623 C 141.90305,431.63605 144.60663,448.81977 143.39062,462.16109 C 144.21285,468.32975 142.576,472.87856 140.74968,475.90775 C 138.43402,473.00615 130.60214,478.24791 131.65178,474.25733 C 131.96895,470.2565 127.09008,474.11946 125.33898,473.32905 C 120.51245,479.28116 104.42235,473.89734 95.342968,475.30954 C 76.972908,474.48025 57.441578,475.30011 39.765578,473.26713 C 41.814138,470.09118 43.418108,468.21296 45.995878,466.41794 C 46.431338,463.86901 51.017488,461.10898 51.132778,458.47544 C 57.336908,455.90751 55.276238,448.59278 57.342378,444.01374 C -1.6077418,442.06665 -60.56686,440.4525 -119.51892,438.56745 C -118.73219,421.2679 -118.04019,403.96439 -117.31152,386.66224 C -46.126984,389.43911 26.620488,392.09496 96.910778,393.30503 C 92.862348,389.63569 99.805458,389.65701 96.250668,386.86854 C 93.885808,388.97295 99.528178,375.83043 99.345188,379.27665 C 102.94396,376.63564 99.985068,372.2138 100.72737,369.82813 C 101.06866,364.74431 103.66851,361.58082 104.54398,357.14063 C 104.64437,355.62709 106.01194,351.62979 107.98918,353.30344 C 112.27673,348.78523 105.33662,341.30326 111.68198,339.48133 C 112.84461,337.58379 120.346,336.79837 121.08928,339.83204 C 122.82645,343.54032 128.85267,342.65714 128.43358,339.10993 C 130.17202,338.77731 130.8758,340.89891 132.60079,340.55405 z "
 />    <path
       id="085"       style="opacity:1;color:#000000;fill:#e8e2b7;fill-opacity:1;fill-rule:evenodd;stroke:#000000;stroke-width:2;stroke-linecap:butt;stroke-linejoin:miter;marker:none;marker-start:none;marker-mid:none;marker-end:none;stroke-miterlimit:4;stroke-dasharray:none;stroke-dashoffset:0;stroke-opacity:1;visibility:visible;display:inline;overflow:visible;enable-background:accumulate"
       d="M 405.70128,386.70344 C 417.49947,382.22302 415.52568,406.06208 428.70378,398.33884 C 437.98613,392.45131 451.09643,411.7555 456.32738,399.30845 C 456.58114,389.9596 431.28463,390.42589 447.86907,382.43305 C 459.48336,381.91681 467.43548,394.11666 461.1342,404.03275 C 465.54616,415.81489 480.83232,410.04812 486.63298,421.01124 C 494.38093,427.44409 480.21943,440.24416 493.02831,443.97245 C 495.85488,451.55078 486.10169,458.97717 480.85649,462.99335 C 478.93042,469.17824 485.94352,477.2577 475.32768,478.11515 C 469.51414,487.87276 484.47284,481.00189 487.82945,485.10874 C 490.98062,492.75036 490.30296,501.32469 498.16521,506.39893 C 496.61782,517.8635 478.97912,509.31932 470.76119,512.03014 C 463.78303,510.86502 450.07638,516.51847 453.83814,504.51431 C 453.30183,493.24617 454.66377,476.42731 452.67589,469.07923 C 451.63117,469.78263 447.79967,459.3391 448.34355,467.30503 C 447.09595,474.3766 444.84156,468.60213 444.79515,465.09763 C 442.95435,467.40217 438.35871,477.2013 438.60619,468.60474 C 435.36206,464.63985 435.33644,473.15047 437.57469,474.21613 C 431.70589,471.90754 430.2186,477.02617 425.21727,477.66135 C 420.43934,473.14535 426.86804,479.93467 421.29759,478.07395 C 425.39427,481.49365 417.97625,481.49144 418.94579,477.66135 C 417.28407,473.58571 413.3881,481.40057 410.61125,476.52665 C 409.7991,480.15904 405.49742,476.06309 404.9793,476.69175 C 403.55394,477.29749 403.3278,473.61832 400.50249,475.86655 C 398.67549,476.04546 390.8521,481.71185 394.23101,478.50715 C 390.16091,477.50229 390.19241,478.83644 386.32967,475.43323 C 388.42067,479.71447 376.67014,470.3005 377.52068,479.14673 C 376.05864,472.66231 373.87019,474.28573 369.66057,475.26825 C 366.23975,480.81002 366.60602,467.46275 361.63549,473.30835 C 361.00423,461.89614 360.96887,450.71751 357.40062,442.52694 C 357.3251,423.94673 357.42534,405.36638 357.36507,386.78605 C 373.47724,386.76828 389.58817,386.81966 405.70128,386.70344 z "
 />    <path
       id="101"       style="opacity:1;color:#000000;fill:#e8e2b7;fill-opacity:1;fill-rule:evenodd;stroke:#000000;stroke-width:2;stroke-linecap:butt;stroke-linejoin:miter;marker:none;marker-start:none;marker-mid:none;marker-end:none;stroke-miterlimit:4;stroke-dasharray:none;stroke-dashoffset:0;stroke-opacity:1;visibility:visible;display:inline;overflow:visible;enable-background:accumulate"
       d="M 810.71025,378.71964 C 827.43184,378.15653 844.1603,377.70582 860.86186,376.65665 C 861.65703,397.55519 862.45418,418.48964 863.29625,439.35135 C 844.59464,440.84279 825.79917,440.77613 807.05876,441.72385 C 806.15482,420.80341 805.65154,399.8653 804.74816,378.94654 C 806.73708,378.89439 808.72394,378.83775 810.71025,378.71964 z "
 />    <path
       id="073"       style="opacity:1;color:#000000;fill:#e8e2b7;fill-opacity:1;fill-rule:evenodd;stroke:#000000;stroke-width:2;stroke-linecap:butt;stroke-linejoin:miter;marker:none;marker-start:none;marker-mid:none;marker-end:none;stroke-miterlimit:4;stroke-dasharray:none;stroke-dashoffset:0;stroke-opacity:1;visibility:visible;display:inline;overflow:visible;enable-background:accumulate"
       d="M 577.94145,384.68174 C 591.70327,384.49851 605.46331,384.23842 619.22216,383.93903 C 619.54365,399.52669 619.84929,415.11558 620.19176,430.70734 C 594.55698,431.38997 568.92493,432.1481 543.28307,432.50214 C 543.11065,416.75078 542.9982,401.00084 542.726,385.25934 C 554.46651,385.14855 566.20214,384.86887 577.94145,384.68174 z "
 />    <path
       id="111"       style="opacity:1;color:#000000;fill:#e8e2b7;fill-opacity:1;fill-rule:evenodd;stroke:#000000;stroke-width:2;stroke-linecap:butt;stroke-linejoin:miter;marker:none;marker-start:none;marker-mid:none;marker-end:none;stroke-miterlimit:4;stroke-dasharray:none;stroke-dashoffset:0;stroke-opacity:1;visibility:visible;display:inline;overflow:visible;enable-background:accumulate"
       d="M 642.5136,383.58835 C 655.43552,383.30668 668.36309,383.42699 681.27739,382.80445 C 681.50546,403.58839 682.18126,424.37706 682.6184,445.16904 C 661.91,445.50998 641.20175,445.83334 620.50127,446.36554 C 620.08096,425.55475 619.6417,404.7434 619.22216,383.93903 C 626.98705,383.84621 634.74745,383.55783 642.5136,383.58835 z "
 />    <path
       id="017"       style="opacity:1;color:#000000;fill:#e8e2b7;fill-opacity:1;fill-rule:evenodd;stroke:#000000;stroke-width:2;stroke-linecap:butt;stroke-linejoin:miter;marker:none;marker-start:none;marker-mid:none;marker-end:none;stroke-miterlimit:4;stroke-dasharray:none;stroke-dashoffset:0;stroke-opacity:1;visibility:visible;display:inline;overflow:visible;enable-background:accumulate"
       d="M 542.726,385.25934 C 543.00094,401.00217 543.10863,416.74997 543.28307,432.50214 C 524.81651,432.74565 506.36228,433.4961 487.89141,433.43055 C 493.88085,420.22406 477.2685,411.85876 466.78685,410.92313 C 454.68779,405.44123 469.2044,393.29277 459.29515,387.14651 C 486.17104,385.91848 514.96609,385.73803 542.726,385.25934 z "
 />    <path
       id="079"       style="opacity:1;color:#000000;fill:#e8e2b7;fill-opacity:1;fill-rule:evenodd;stroke:#000000;stroke-width:2;stroke-linecap:butt;stroke-linejoin:miter;marker:none;marker-start:none;marker-mid:none;marker-end:none;stroke-miterlimit:4;stroke-dasharray:none;stroke-dashoffset:0;stroke-opacity:1;visibility:visible;display:inline;overflow:visible;enable-background:accumulate"
       d="M 756.26757,380.53513 C 772.24341,380.59876 790.46767,378.242 804.76879,379.95743 C 805.5145,400.44127 806.53089,421.68103 806.79058,441.72385 C 786.16368,442.52152 765.53734,443.15145 744.90038,443.70423 C 744.23186,422.84771 743.48895,401.9935 742.9406,381.13334 C 747.3827,380.92899 751.82455,380.71892 756.26757,380.53513 z "
 />    <path
       id="097"       style="opacity:1;color:#000000;fill:#e8e2b7;fill-opacity:1;fill-rule:evenodd;stroke:#000000;stroke-width:2;stroke-linecap:butt;stroke-linejoin:miter;marker:none;marker-start:none;marker-mid:none;marker-end:none;stroke-miterlimit:4;stroke-dasharray:none;stroke-dashoffset:0;stroke-opacity:1;visibility:visible;display:inline;overflow:visible;enable-background:accumulate"
       d="M 683.71166,382.72184 C 703.45883,382.35827 723.19927,381.71337 742.9406,381.13334 C 743.48815,401.99352 744.23246,422.8477 744.90038,443.70423 C 724.14383,444.36848 703.37783,444.69804 682.6184,445.16904 C 682.17685,424.37772 681.50818,403.58733 681.27739,382.80445 L 683.63522,382.72443 L 683.71166,382.72184 z "
 />    <path
       id="075"       style="opacity:1;color:#000000;fill:#e8e2b7;fill-opacity:1;fill-rule:evenodd;stroke:#000000;stroke-width:2;stroke-linecap:butt;stroke-linejoin:miter;marker:none;marker-start:none;marker-mid:none;marker-end:none;stroke-miterlimit:4;stroke-dasharray:none;stroke-dashoffset:0;stroke-opacity:1;visibility:visible;display:inline;overflow:visible;enable-background:accumulate"
       d="M 337.04448,391.51023 C 354.21085,387.7873 361.37918,394.31057 357.38579,411.79836 C 358.81276,423.72547 354.29085,441.65687 359.78617,449.60444 C 361.06389,452.73547 362.90947,475.63651 359.07738,470.81214 C 356.16345,467.09839 355.16992,474.57915 350.74288,469.76005 C 352.93596,476.98967 346.6693,467.37565 345.50279,472.46253 C 342.08721,471.24222 345.50505,470.8699 341.99568,469.92505 C 339.22251,471.31623 338.30514,470.36107 336.67317,467.96525 C 330.68283,472.46678 334.88917,466.08873 332.01079,466.62424 C 329.02955,462.78742 326.81038,464.30109 324.41887,468.17154 C 319.53732,471.55819 323.96936,464.95116 318.76628,468.41904 C 318.97369,470.56808 321.36478,470.13297 316.97148,472.33875 C 316.31312,476.48367 314.21731,469.57442 312.47417,472.46253 C 310.85606,475.7912 308.75,469.4571 310.45238,474.23673 C 305.70489,473.46609 310.43668,469.6164 306.22319,469.05863 C 308.48101,471.35102 299.14557,472.12905 304.20149,470.33765 C 302.14101,469.65923 299.99617,467.8884 301.70528,466.14975 C 300.70707,464.05087 296.42004,463.08118 295.88759,464.74695 C 296.19561,459.42732 289.76655,463.06319 291.78218,458.51664 C 291.3013,456.80178 286.78967,460.90057 289.07967,457.85645 C 284.45217,457.4822 291.52881,455.64902 286.15019,455.25715 C 285.47733,447.54925 279.65837,459.11771 281.07518,454.47315 C 276.17843,455.03552 284.15324,449.93621 277.81569,451.75004 C 278.75936,445.80523 271.07458,452.91064 271.93608,448.73804 C 272.26543,446.63727 267.18281,447.46422 267.19118,450.12024 C 268.16364,440.30057 264.96707,426.18811 269.66677,419.95914 C 271.48714,407.45235 262.93679,384.60733 283.53878,391.22499 C 301.37429,391.41601 319.20821,391.43417 337.04448,391.51023 z "
 />    <path
       id="071"       style="opacity:1;color:#000000;fill:#e8e2b7;fill-opacity:1;fill-rule:evenodd;stroke:#000000;stroke-width:2;stroke-linecap:butt;stroke-linejoin:miter;marker:none;marker-start:none;marker-mid:none;marker-end:none;stroke-miterlimit:4;stroke-dasharray:none;stroke-dashoffset:0;stroke-opacity:1;visibility:visible;display:inline;overflow:visible;enable-background:accumulate"
       d="M 223.12538,421.91895 C 237.88164,422.18814 252.63882,422.33432 267.39748,422.43473 C 266.52892,430.05923 268.6034,447.039 266.1184,449.60444 C 263.9013,450.74488 263.62071,447.62547 261.95119,449.95514 C 262.15118,451.41831 254.67459,448.48176 258.09337,452.34824 C 255.20494,458.25835 254.74103,450.54846 254.15297,453.15284 C 253.8167,458.63267 254.11267,456.08348 252.77077,454.86515 C 251.57694,458.89289 248.53544,452.74365 246.31359,457.95963 C 245.01648,481.96918 245.62366,507.22252 245.07579,531.73264 C 206.75419,531.3883 168.46564,530.80849 130.18708,529.89664 C 130.34146,522.71704 131.80193,514.1255 126.87536,511.756 C 127.82429,499.12078 126.15978,484.89066 128.49538,473.06083 C 132.60043,468.64117 130.95292,480.18724 133.30217,474.69065 C 138.849,475.18163 140.96408,477.62818 142.11128,472.81324 C 144.89708,463.28732 142.85494,446.93622 143.86479,434.89524 C 139.84599,420.04895 149.70808,419.566 161.48357,421.11529 C 182.0329,421.39646 202.58538,421.78076 223.12538,421.91895 z "
 />    <path
       id="003"       style="opacity:1;color:#000000;fill:#e8e2b7;fill-opacity:1;fill-rule:evenodd;stroke:#000000;stroke-width:2;stroke-linecap:butt;stroke-linejoin:miter;marker:none;marker-start:none;marker-mid:none;marker-end:none;stroke-miterlimit:4;stroke-dasharray:none;stroke-dashoffset:0;stroke-opacity:1;visibility:visible;display:inline;overflow:visible;enable-background:accumulate"
       d="M 620.19176,430.70734 C 621.94574,456.30403 621.46994,483.48968 623.16258,510.02985 C 602.66954,510.42552 581.92852,510.83379 561.60247,510.91694 C 561.33803,486.30953 561.28612,460.83252 558.84083,438.03735 C 557.39739,426.24609 576.90023,434.41619 584.97486,431.59677 C 596.7154,431.35572 608.45428,431.1055 620.19176,430.70734 z "
 />    <path
       id="015"       style="opacity:1;color:#000000;fill:#e8e2b7;fill-opacity:1;fill-rule:evenodd;stroke:#000000;stroke-width:2;stroke-linecap:butt;stroke-linejoin:miter;marker:none;marker-start:none;marker-mid:none;marker-end:none;stroke-miterlimit:4;stroke-dasharray:none;stroke-dashoffset:0;stroke-opacity:1;visibility:visible;display:inline;overflow:visible;enable-background:accumulate"
       d="M 548.4406,432.41965 C 562.6198,427.02206 556.88459,442.12442 560.32347,447.89213 C 560.99895,468.92889 561.39707,489.97483 561.60247,511.02015 C 540.54172,510.82782 514.81626,512.73282 496.96855,510.87574 C 501.8722,502.99253 486.44652,499.8923 490.07817,490.82334 C 490.4159,478.83838 478.4355,487.28265 474.35808,482.30304 C 472.59516,475.55701 488.02544,476.47305 480.07256,467.61454 C 480.07232,458.84745 491.5451,457.99568 493.11077,449.00623 C 497.17956,443.25764 477.57118,434.3485 492.60953,433.38334 C 511.22701,433.4469 529.82502,432.56027 548.4406,432.41965 z "
 />    <path
       id="095"       style="opacity:1;color:#000000;fill:#e8e2b7;fill-opacity:1;fill-rule:evenodd;stroke:#000000;stroke-width:2;stroke-linecap:butt;stroke-linejoin:miter;marker:none;marker-start:none;marker-mid:none;marker-end:none;stroke-miterlimit:4;stroke-dasharray:none;stroke-dashoffset:0;stroke-opacity:1;visibility:visible;display:inline;overflow:visible;enable-background:accumulate"
       d="M 267.19118,450.12024 C 267.37177,447.02345 273.85885,446.41759 271.46157,449.95514 C 274.34788,451.06381 277.81395,446.69614 277.81569,451.75004 C 284.15324,449.93621 276.17843,455.03552 281.07518,454.47315 C 279.65837,459.11771 285.47733,447.54925 286.15019,455.25715 C 290.97189,455.99255 285.33694,457.2015 288.72899,458.53724 C 287.48765,460.4431 293.95413,455.48611 291.26647,460.47654 C 293.35186,459.65631 297.89809,465.13425 296.73339,464.72635 C 297.57511,460.97203 304.16274,467.49614 300.63249,467.77955 C 302.65314,469.35922 304.88128,470.71461 302.69548,471.41044 C 307.13777,471.84642 306.36016,466.84959 308.53377,470.95655 C 306.12512,473.35888 312.38264,475.21429 310.14299,472.23563 C 311.52537,476.31381 314.17743,468.46419 316.04308,473.76224 C 315.92341,472.5372 323.20378,469.60967 318.16799,469.38865 C 320.5666,465.33881 322.25691,468.93526 322.37657,469.12055 C 326.53435,468.57931 328.19163,459.79115 331.08238,466.60364 C 336.35298,465.03785 329.52602,471.51798 335.72417,468.97605 C 338.56622,465.64632 337.98135,474.7285 341.41808,469.34745 C 344.07833,472.26011 343.94759,469.45655 344.38878,472.31815 C 347.2039,468.87102 348.62884,473.09168 351.17607,472.29755 C 348.99229,466.48224 356.41831,474.55623 356.99379,469.22364 C 360.02666,471.52365 361.64173,474.71144 365.72029,472.52445 C 366.24496,480.9604 369.94116,473.02749 372.38378,475.47455 C 378.56997,474.97891 373.06407,497.58531 374.95172,505.44409 C 374.10793,515.78291 378.87072,520.88373 377.10808,532.18653 C 333.30945,531.81761 287.94134,532.93293 245.09639,531.17563 C 245.60923,506.85347 245.0262,481.77998 246.31359,457.95963 C 248.53544,452.74365 251.57694,458.89289 252.77077,454.86515 C 251.42887,453.64681 253.8167,458.63267 254.15297,453.15284 C 255.24979,450.01653 254.13877,458.07336 257.68077,453.27665 C 256.19885,449.90685 259.34769,449.5291 262.11617,450.63593 C 261.79889,447.43056 267.04395,450.04149 265.58208,449.99643 C 267.53488,447.41314 265.33966,451.55605 267.19118,450.12024 z "
 />    <path
       id="033"       style="opacity:1;color:#000000;fill:#e8e2b7;fill-opacity:1;fill-rule:evenodd;stroke:#000000;stroke-width:2;stroke-linecap:butt;stroke-linejoin:miter;marker:none;marker-start:none;marker-mid:none;marker-end:none;stroke-miterlimit:4;stroke-dasharray:none;stroke-dashoffset:0;stroke-opacity:1;visibility:visible;display:inline;overflow:visible;enable-background:accumulate"
       d="M 57.342378,444.01374 C 55.804128,449.38017 56.424228,456.39814 50.307568,459.56873 C 50.160238,462.54792 45.198598,465.4021 44.572368,468.19214 C 41.647328,468.37936 39.719178,473.10678 40.363878,475.30954 C 39.749728,479.97646 35.906968,479.16718 33.659078,478.17704 C 31.408558,475.38605 25.729859,475.47293 25.716589,480.73523 C 26.248339,485.43912 21.922509,486.98587 18.434179,486.71793 C 10.905079,489.53805 17.300559,504.29995 14.823889,511.35013 C -30.809894,509.97803 -76.484926,508.09333 -122.13892,506.46085 C -121.27067,483.8296 -120.35415,461.20014 -119.51892,438.56745 C -60.567006,440.4556 -1.6076618,442.06577 57.342378,444.01374 z "
 />    <path
       id="035"       style="opacity:1;color:#000000;fill:#e8e2b7;fill-opacity:1;fill-rule:evenodd;stroke:#000000;stroke-width:2;stroke-linecap:butt;stroke-linejoin:miter;marker:none;marker-start:none;marker-mid:none;marker-end:none;stroke-miterlimit:4;stroke-dasharray:none;stroke-dashoffset:0;stroke-opacity:1;visibility:visible;display:inline;overflow:visible;enable-background:accumulate"
       d="M 636.73711,445.99424 C 646.95018,446.00538 657.74387,445.18614 667.57909,445.66413 C 667.94324,466.75556 668.74384,487.83132 669.47698,508.91584 C 654.26221,509.03392 637.25753,510.818 623.18315,509.30784 C 621.70562,488.34608 621.78385,467.3441 621.3059,446.34495 C 626.44505,446.10418 631.5936,446.0206 636.73711,445.99424 z "
 />    <path
       id="061"       style="opacity:1;color:#000000;fill:#e8e2b7;fill-opacity:1;fill-rule:evenodd;stroke:#000000;stroke-width:2;stroke-linecap:butt;stroke-linejoin:miter;marker:none;marker-start:none;marker-mid:none;marker-end:none;stroke-miterlimit:4;stroke-dasharray:none;stroke-dashoffset:0;stroke-opacity:1;visibility:visible;display:inline;overflow:visible;enable-background:accumulate"
       d="M 682.6184,445.16904 C 693.08338,444.94431 703.54948,444.6777 714.01726,444.52945 C 714.53384,465.56903 715.60346,486.58446 715.9359,507.63675 C 700.45127,508.12177 684.96252,508.45783 669.47698,508.91584 C 668.74607,487.7556 667.92584,466.60465 667.57909,445.43723 C 672.59133,445.2871 677.60376,445.18061 682.6184,445.16904 z "
 />    <path
       id="099"       style="opacity:1;color:#000000;fill:#e8e2b7;fill-opacity:1;fill-rule:evenodd;stroke:#000000;stroke-width:2;stroke-linecap:butt;stroke-linejoin:miter;marker:none;marker-start:none;marker-mid:none;marker-end:none;stroke-miterlimit:4;stroke-dasharray:none;stroke-dashoffset:0;stroke-opacity:1;visibility:visible;display:inline;overflow:visible;enable-background:accumulate"
       d="M 858.98461,439.70203 C 868.32173,441.69517 861.77244,461.5443 864.55467,470.89463 C 863.03191,480.41255 868.97736,496.71787 863.49691,502.52852 C 834.98137,503.58012 806.488,504.77534 777.97038,505.78003 C 777.74378,484.96321 775.94743,462.79242 776.4644,442.83783 C 803.96609,441.70733 831.50271,441.02725 858.98461,439.70203 z "
 />    <path
       id="087"       style="opacity:1;color:#000000;fill:#e8e2b7;fill-opacity:1;fill-rule:evenodd;stroke:#000000;stroke-width:2;stroke-linecap:butt;stroke-linejoin:miter;marker:none;marker-start:none;marker-mid:none;marker-end:none;stroke-miterlimit:4;stroke-dasharray:none;stroke-dashoffset:0;stroke-opacity:1;visibility:visible;display:inline;overflow:visible;enable-background:accumulate"
       d="M 729.44847,444.13755 C 744.95559,443.68996 760.46341,443.28559 775.96929,442.79654 C 775.6638,463.31106 779.19254,487.21117 776.77385,505.82136 C 756.49528,506.46307 736.21896,507.09969 715.9359,507.63675 C 715.60822,486.58443 714.52696,465.56897 714.01726,444.52945 C 719.161,444.39882 724.30474,444.26818 729.44847,444.13755 z "
 />    <path
       id="123"       style="opacity:1;color:#000000;fill:#e8e2b7;fill-opacity:1;fill-rule:evenodd;stroke:#000000;stroke-width:2;stroke-linecap:butt;stroke-linejoin:miter;marker:none;marker-start:none;marker-mid:none;marker-end:none;stroke-miterlimit:4;stroke-dasharray:none;stroke-dashoffset:0;stroke-opacity:1;visibility:visible;display:inline;overflow:visible;enable-background:accumulate"
       d="M 448.21977,466.54175 C 449.32171,458.47566 450.96413,473.48367 453.58361,468.06833 C 453.60331,482.75716 453.86402,497.44483 453.87248,512.13413 C 463.35856,510.25589 468.98437,512.41131 465.61089,523.52195 C 465.7085,549.90918 466.18823,576.73244 466.02349,602.84443 C 437.07841,603.14731 408.13957,603.05988 379.19167,603.09192 C 379.69819,592.05546 379.16389,581.96339 377.16997,573.38474 C 376.93931,554.41519 377.42566,535.0974 376.86049,516.34263 C 372.29524,509.00312 376.28217,493.18525 374.92128,482.58455 C 373.88505,464.40285 375.99329,484.11109 379.08858,475.74274 C 381.71781,472.20672 387.96396,479.78584 386.59789,475.41263 C 389.88509,478.5341 391.22977,478.62211 394.49919,477.76444 C 398.70005,479.63073 398.68914,473.53955 400.95641,476.52665 C 404.38907,471.28471 403.58008,480.57543 405.18559,475.84583 C 408.10673,481.65687 411.07802,473.36406 414.24205,478.56904 C 420.01731,469.94847 418.57868,485.8741 422.78301,479.31174 C 419.10879,476.33899 426.841,479.53516 423.0305,475.86655 C 425.36554,480.16965 430.49148,475.99074 431.5714,473.96854 C 435.60159,474.27196 439.93044,474.9477 435.47051,470.54395 C 438.41233,462.81115 442.19341,473.46521 440.02965,472.50385 C 442.06727,470.81118 445.05774,460.72256 445.72356,468.08893 C 442.40879,473.16169 451.05285,470.8287 448.21977,466.54175 z "
 />    <path
       id="113"       style="opacity:1;color:#000000;fill:#e8e2b7;fill-opacity:1;fill-rule:evenodd;stroke:#000000;stroke-width:2;stroke-linecap:butt;stroke-linejoin:miter;marker:none;marker-start:none;marker-mid:none;marker-end:none;stroke-miterlimit:4;stroke-dasharray:none;stroke-dashoffset:0;stroke-opacity:1;visibility:visible;display:inline;overflow:visible;enable-background:accumulate"
       d="M 126.57678,473.20524 C 128.96265,485.31405 126.21399,500.79059 126.82437,514.11463 C 134.12341,515.22862 128.54482,528.50022 130.14578,535.11603 C 130.29743,548.96101 129.13513,563.8746 129.93949,577.07752 C 137.31334,578.6691 130.50444,593.88083 132.51827,600.51325 C 92.682398,599.94679 52.332888,598.78115 12.306979,597.52186 C 13.530679,561.00135 14.081939,524.02196 15.793468,487.83194 C 19.364779,485.10013 25.298829,487.85581 25.943479,481.89045 C 25.755459,478.02627 28.053348,473.69121 32.545078,477.47565 C 34.274228,478.18436 40.747088,475.92365 38.795978,478.05335 C 40.667218,470.14922 52.887598,475.75495 60.380548,474.48498 C 81.491638,474.30091 103.41977,476.78812 124.10118,475.04133 C 124.18343,474.81169 125.35258,472.17993 126.57678,473.20524 z "
 />    <path
       id="083"       style="opacity:1;color:#000000;fill:#e8e2b7;fill-opacity:1;fill-rule:evenodd;stroke:#000000;stroke-width:2;stroke-linecap:butt;stroke-linejoin:miter;marker:none;marker-start:none;marker-mid:none;marker-end:none;stroke-miterlimit:4;stroke-dasharray:none;stroke-dashoffset:0;stroke-opacity:1;visibility:visible;display:inline;overflow:visible;enable-background:accumulate"
       d="M 821.06658,504.12964 C 830.21608,504.6561 841.82559,501.28828 848.77269,505.01673 C 849.75224,508.71846 843.85242,515.50263 851.14519,516.01255 C 850.02502,521.8818 861.4484,519.84417 857.14849,526.74024 C 857.37609,531.20025 857.58029,534.80205 857.12786,539.11823 C 853.08133,541.54473 849.16465,537.76651 850.4644,543.51243 C 852.41824,546.51947 856.91792,547.09225 852.73369,551.64063 C 856.16679,553.87029 860.60364,553.12702 864.92595,553.06415 C 866.63844,559.4954 865.44582,566.42431 870.7437,570.97104 C 865.66606,574.49931 871.38033,579.09084 865.13225,577.96467 C 845.85502,578.68601 826.58597,579.49939 807.30626,580.11011 C 806.42026,554.99511 805.36572,529.84393 804.60381,504.74854 C 810.09425,504.61762 815.57915,504.32758 821.06658,504.12964 z "
 />    <path
       id="125"       style="opacity:1;color:#000000;fill:#e8e2b7;fill-opacity:1;fill-rule:evenodd;stroke:#000000;stroke-width:2;stroke-linecap:butt;stroke-linejoin:miter;marker:none;marker-start:none;marker-mid:none;marker-end:none;stroke-miterlimit:4;stroke-dasharray:none;stroke-dashoffset:0;stroke-opacity:1;visibility:visible;display:inline;overflow:visible;enable-background:accumulate"
       d="M 804.60381,504.74854 C 805.36755,529.8444 806.41947,554.99487 807.30626,580.11011 C 797.70975,579.43532 784.44309,582.76786 776.40245,580.31641 C 778.96116,567.10205 773.72079,562.33167 760.45549,566.08164 C 743.79216,571.3571 743.22284,559.62547 743.99695,546.18485 C 744.16122,533.40521 741.64225,517.90648 743.72447,506.85285 C 764.01622,506.16253 784.3247,505.74687 804.60381,504.74854 z "
 />    <path
       id="023"       style="opacity:1;color:#000000;fill:#e8e2b7;fill-opacity:1;fill-rule:evenodd;stroke:#000000;stroke-width:2;stroke-linecap:butt;stroke-linejoin:miter;marker:none;marker-start:none;marker-mid:none;marker-end:none;stroke-miterlimit:4;stroke-dasharray:none;stroke-dashoffset:0;stroke-opacity:1;visibility:visible;display:inline;overflow:visible;enable-background:accumulate"
       d="M 496.20531,511.76273 C 521.85767,511.58457 547.50517,511.23557 573.15538,510.85505 C 574.76159,518.43602 568.76371,535.01756 578.14775,534.16703 C 604.49826,544.80979 630.69947,555.76831 657.18151,566.10233 C 653.40105,575.62783 650.8202,585.66585 654.08696,594.88123 C 649.36791,598.97889 657.49366,605.29192 653.34429,610.41565 C 652.88887,611.75659 652.87677,615.07914 651.59081,616.83155 C 655.40429,621.89304 648.04686,625.55305 646.74266,627.12592 C 647.56326,632.9341 636.66258,625.10848 633.68389,622.83497 C 624.05326,623.60483 618.02017,612.00429 608.88658,613.15943 C 600.86865,604.98725 600.97942,588.09514 585.82219,587.57813 C 571.25829,593.54812 570.58434,570.51333 556.81639,573.77674 C 546.07692,573.05393 557.61192,552.06756 542.9323,556.73624 C 532.69673,552.77763 525.77185,542.509 519.99169,533.89884 C 516.00114,528.98609 514.95583,519.52603 505.77757,523.21244 C 499.64202,524.16927 491.0861,518.38407 496.20531,511.76273 z "
 />    <path
       id="067"       style="opacity:1;color:#000000;fill:#e8e2b7;fill-opacity:1;fill-rule:evenodd;stroke:#000000;stroke-width:2;stroke-linecap:butt;stroke-linejoin:miter;marker:none;marker-start:none;marker-mid:none;marker-end:none;stroke-miterlimit:4;stroke-dasharray:none;stroke-dashoffset:0;stroke-opacity:1;visibility:visible;display:inline;overflow:visible;enable-background:accumulate"
       d="M 728.8709,507.28605 C 744.34105,502.34565 743.75204,514.62384 743.29431,526.59408 C 743.34033,539.8097 745.10975,554.29525 744.15776,566.65934 C 714.7239,567.66119 685.28072,568.23938 655.84056,569.13495 C 651.41238,563.2515 650.88198,549.3017 651.09569,538.04545 C 653.67842,530.01384 644.38048,510.72924 654.0457,509.39032 C 678.98424,508.61977 703.92949,508.00498 728.8709,507.28605 z "
 />    <path
       id="053"       style="opacity:1;color:#000000;fill:#e8e2b7;fill-opacity:1;fill-rule:evenodd;stroke:#000000;stroke-width:2;stroke-linecap:butt;stroke-linejoin:miter;marker:none;marker-start:none;marker-mid:none;marker-end:none;stroke-miterlimit:4;stroke-dasharray:none;stroke-dashoffset:0;stroke-opacity:1;visibility:visible;display:inline;overflow:visible;enable-background:accumulate"
       d="M 466.72496,512.05164 C 474.69378,514.35059 496.8395,506.6356 494.63738,516.07444 C 496.68431,529.47594 517.39806,516.06182 517.49547,530.90745 C 523.59607,538.42818 528.42813,547.29136 536.61955,553.53864 C 543.18133,558.60603 556.13362,554.67674 551.6176,568.26844 C 552.81024,578.80354 569.70094,569.83337 570.98918,582.21436 C 577.37096,592.94349 594.32689,583.0588 600.01567,596.18091 C 604.84947,606.69724 581.85526,598.74673 575.16322,601.47293 C 539.05712,601.6649 501.20711,603.40281 466.16796,602.18427 C 465.99236,572.14684 465.69052,542.10876 465.56969,512.07224 L 466.72496,512.05164 z "
 />    <path
       id="043"       style="opacity:1;color:#000000;fill:#e8e2b7;fill-opacity:1;fill-rule:evenodd;stroke:#000000;stroke-width:2;stroke-linecap:butt;stroke-linejoin:miter;marker:none;marker-start:none;marker-mid:none;marker-end:none;stroke-miterlimit:4;stroke-dasharray:none;stroke-dashoffset:0;stroke-opacity:1;visibility:visible;display:inline;overflow:visible;enable-background:accumulate"
       d="M 575.56908,510.81385 C 600.38244,510.4947 625.19304,510.02846 650.00231,509.53473 C 650.7871,527.66406 651.41148,545.81234 651.87956,563.95685 C 626.82766,554.57085 601.12818,542.82273 576.80687,534.00193 C 570.73063,536.15441 572.03776,511.35219 575.56908,510.81385 z "
 />    <path
       id="047"       style="opacity:1;color:#000000;fill:#e8e2b7;fill-opacity:1;fill-rule:evenodd;stroke:#000000;stroke-width:2;stroke-linecap:butt;stroke-linejoin:miter;marker:none;marker-start:none;marker-mid:none;marker-end:none;stroke-miterlimit:4;stroke-dasharray:none;stroke-dashoffset:0;stroke-opacity:1;visibility:visible;display:inline;overflow:visible;enable-background:accumulate"
       d="M -106.76962,506.87345 C -66.252636,508.7949 -25.682738,509.96383 14.823889,511.35013 C 13.962769,540.07359 13.147779,568.7977 12.306979,597.52186 C -33.601396,596.18572 -79.486153,594.35036 -125.37782,592.75635 C -124.22861,563.99337 -123.25804,535.22465 -122.13892,506.46085 C -117.017,506.64286 -111.89318,506.75049 -106.76962,506.87345 z "
 />    <path
       id="121"       style="opacity:1;color:#000000;fill:#e8e2b7;fill-opacity:1;fill-rule:evenodd;stroke:#000000;stroke-width:2;stroke-linecap:butt;stroke-linejoin:miter;marker:none;marker-start:none;marker-mid:none;marker-end:none;stroke-miterlimit:4;stroke-dasharray:none;stroke-dashoffset:0;stroke-opacity:1;visibility:visible;display:inline;overflow:visible;enable-background:accumulate"
       d="M 376.71608,532.16593 C 377.57818,547.24459 376.94861,563.83434 377.16997,579.55317 C 380.10986,584.86963 384.28879,609.51325 368.79418,603.07136 C 327.32534,602.8803 285.8642,603.13237 244.39498,602.55567 C 244.60387,578.94808 244.91501,555.33911 245.07579,531.73264 C 288.95293,532.1827 332.83867,532.21997 376.71608,532.16593 z "
 />    <path
       id="007"       style="opacity:1;color:#000000;fill:#e8e2b7;fill-opacity:1;fill-rule:evenodd;stroke:#000000;stroke-width:2;stroke-linecap:butt;stroke-linejoin:miter;marker:none;marker-start:none;marker-mid:none;marker-end:none;stroke-miterlimit:4;stroke-dasharray:none;stroke-dashoffset:0;stroke-opacity:1;visibility:visible;display:inline;overflow:visible;enable-background:accumulate"
       d="M 132.47698,529.93784 C 169.99308,530.85437 207.519,531.38091 245.07579,531.73264 C 244.72893,555.25527 244.97486,579.53177 244.08559,602.55567 C 207.20555,602.20768 168.14711,602.38824 132.55959,599.91492 C 130.13673,593.67053 137.84461,577.7242 129.52687,577.05683 C 129.72033,561.33674 130.08931,545.61753 130.18708,529.89664 L 132.39449,529.91724 L 132.47698,529.93784 z "
 />    <path
       id="135"       style="opacity:1;color:#000000;fill:#e8e2b7;fill-opacity:1;fill-rule:evenodd;stroke:#000000;stroke-width:2;stroke-linecap:butt;stroke-linejoin:miter;marker:none;marker-start:none;marker-mid:none;marker-end:none;stroke-miterlimit:4;stroke-dasharray:none;stroke-dashoffset:0;stroke-opacity:1;visibility:visible;display:inline;overflow:visible;enable-background:accumulate"
       d="M 774.91716,565.54535 C 777.91469,583.83723 776.45719,606.74683 777.91253,626.78917 C 781.54036,636.57079 767.47673,631.45701 770.00719,624.34095 C 766.10229,622.16117 761.01449,623.71918 757.93859,621.18451 C 752.1016,626.80875 744.7329,616.45287 740.83629,625.24866 C 733.16248,622.10841 726.48707,627.28741 718.53527,623.68073 C 712.30327,625.27334 716.59726,610.35673 714.89808,604.68816 C 714.59919,592.33241 713.92582,579.99955 713.58397,567.62894 C 734.03423,567.01084 754.46855,566.25669 774.91716,565.54535 z "
 />    <path
       id="path6435"       style="opacity:1;color:#000000;fill:#e4744f;fill-opacity:1;fill-rule:evenodd;stroke:#000000;stroke-width:2;stroke-linecap:butt;stroke-linejoin:miter;marker:none;marker-start:none;marker-mid:none;marker-end:none;stroke-miterlimit:4;stroke-dasharray:none;stroke-dashoffset:0;stroke-opacity:1;visibility:visible;display:inline;overflow:visible;enable-background:accumulate"
       d="M 708.98351,567.69083 C 718.60973,567.13605 711.74217,583.77117 714.41193,590.5606 C 714.05034,602.04899 716.98854,615.70884 714.01726,625.76447 C 704.86239,629.19838 695.41664,623.29414 686.99187,623.08252 C 680.7951,626.43583 683.05688,638.41979 674.11876,641.01001 C 665.60129,644.61089 658.88166,640.71903 653.69499,633.95453 C 650.20627,630.71743 643.57364,626.9008 649.38341,625.20734 C 651.03815,623.24745 654.51258,619.55839 651.26067,615.86194 C 654.76618,613.1155 651.76279,610.37171 654.47899,605.95954 C 655.46346,602.21683 649.14234,597.05009 654.47899,594.13855 C 650.00313,585.92768 654.03802,577.62436 655.84056,569.13495 C 673.56378,568.78787 691.26322,567.96907 708.98351,567.69083 z "
 />    <path
       id="027"       style="opacity:1;color:#000000;fill:#e8e2b7;fill-opacity:1;fill-rule:evenodd;stroke:#000000;stroke-width:2;stroke-linecap:butt;stroke-linejoin:miter;marker:none;marker-start:none;marker-mid:none;marker-end:none;stroke-miterlimit:4;stroke-dasharray:none;stroke-dashoffset:0;stroke-opacity:1;visibility:visible;display:inline;overflow:visible;enable-background:accumulate"
       d="M 822.77886,579.59437 C 823.73284,602.4595 824.18519,625.3509 825.19255,648.20984 C 818.25948,646.86549 811.83703,640.3897 805.429,646.18812 C 803.53019,644.64566 804.94763,636.66176 798.99236,638.94703 C 793.25154,637.09779 787.29251,637.803 781.64257,636.96656 C 773.83758,624.2166 779.01471,606.04192 776.72182,590.92809 C 771.01436,576.98333 784.88722,581.46266 793.19536,580.64655 C 803.04169,580.26801 812.9176,579.9036 822.77886,579.59437 z "
 />    <path
       id="127"       style="opacity:1;color:#000000;fill:#e8e2b7;fill-opacity:1;fill-rule:evenodd;stroke:#000000;stroke-width:2;stroke-linecap:butt;stroke-linejoin:miter;marker:none;marker-start:none;marker-mid:none;marker-end:none;stroke-miterlimit:4;stroke-dasharray:none;stroke-dashoffset:0;stroke-opacity:1;visibility:visible;display:inline;overflow:visible;enable-background:accumulate"
       d="M 846.23516,578.68665 C 851.97927,580.82496 868.46286,573.32459 868.30937,580.72907 C 865.40773,583.54593 859.73951,583.88559 861.41887,587.80512 C 866.83629,591.08535 862.20336,594.04237 860.8413,597.31556 C 865.36279,598.00114 862.02641,606.39801 860.4287,604.94861 C 855.66151,608.04922 858.28296,614.12189 859.6035,613.11817 C 856.34805,616.13465 860.17215,619.183 857.33415,621.72095 C 859.03623,625.18281 852.32569,620.99859 854.32219,624.73292 C 850.76933,626.12306 854.55689,633.4655 849.18529,632.84052 C 845.77107,637.12175 851.52336,637.60115 846.97789,641.75263 C 848.86904,643.47382 847.99941,649.89651 852.23857,648.37494 C 853.50737,650.12107 856.23864,651.8542 856.36455,652.87226 C 857.94619,653.20888 858.13885,655.26672 860.79997,655.69855 C 860.89521,658.77122 866.4952,661.00852 861.95531,663.12543 C 864.27155,662.81681 866.07317,664.84348 866.989,668.40674 C 869.50969,670.81816 865.37158,670.39846 867.17467,673.33722 C 871.95826,676.25222 866.85026,680.84398 870.3311,684.97266 C 878.43273,687.32301 862.64622,688.15794 861.74901,680.55774 C 857.30701,679.84046 850.43013,688.09181 849.10277,678.53602 C 848.43401,671.4281 831.75152,667.44433 840.99517,658.52497 C 840.63015,649.58123 822.29027,661.62753 825.83208,649.15882 C 823.88401,626.63368 823.1063,601.29335 823.45958,579.57374 C 831.04796,579.25594 838.64302,578.9776 846.23516,578.68665 z "
 />  </g>
<circle cx="75.38253" cy="173.45843" r="12.5" fill="none" stroke="red" stroke-width="2" /></svg>
