<?xml version="1.0" encoding="UTF-8" standalone="no"?>
<!-- Created with Inkscape (http://www.inkscape.org/) -->
<svg
   xmlns:dc="http://purl.org/dc/elements/1.1/"
   xmlns:cc="http://creativecommons.org/ns#"
   xmlns:rdf="http://www.w3.org/1999/02/22-rdf-syntax-ns#"
   xmlns:svg="http://www.w3.org/2000/svg"
   xmlns="http://www.w3.org/2000/svg"
   xmlns:sodipodi="http://sodipodi.sourceforge.net/DTD/sodipodi-0.dtd"
   xmlns:inkscape="http://www.inkscape.org/namespaces/inkscape"
   width="757.27026"
   height="527.66791"
   id="svg3284"
   sodipodi:version="0.32"
   inkscape:version="0.46"
   sodipodi:docname="Bridge T topology.svg"
   inkscape:output_extension="org.inkscape.output.svg.inkscape"
   version="1.0">
  <defs
     id="defs3286">
    <inkscape:perspective
       sodipodi:type="inkscape:persp3d"
       inkscape:vp_x="0 : 526.18109 : 1"
       inkscape:vp_y="0 : 1000 : 0"
       inkscape:vp_z="744.09448 : 526.18109 : 1"
       inkscape:persp3d-origin="372.04724 : 350.78739 : 1"
       id="perspective3292" />
  </defs>
  <sodipodi:namedview
     id="base"
     pagecolor="#ffffff"
     bordercolor="#666666"
     borderopacity="1.0"
     gridtolerance="10000"
     guidetolerance="10"
     objecttolerance="10"
     inkscape:pageopacity="0.0"
     inkscape:pageshadow="2"
     inkscape:zoom="0.35"
     inkscape:cx="518.6953"
     inkscape:cy="1006.3944"
     inkscape:document-units="px"
     inkscape:current-layer="layer1"
     showgrid="false"
     inkscape:window-width="1272"
     inkscape:window-height="960"
     inkscape:window-x="0"
     inkscape:window-y="0"
     showguides="true"
     inkscape:guide-bbox="true" />
  <metadata
     id="metadata3289">
    <rdf:RDF>
      <cc:Work
         rdf:about="">
        <dc:format>image/svg+xml</dc:format>
        <dc:type
           rdf:resource="http://purl.org/dc/dcmitype/StillImage" />
      </cc:Work>
    </rdf:RDF>
  </metadata>
  <g
     inkscape:label="Layer 1"
     inkscape:groupmode="layer"
     id="layer1"
     transform="translate(91.96627,529.32233)">
    <rect
       style="fill:#dbdbe3;fill-opacity:1;stroke:none;stroke-width:1.5;stroke-miterlimit:4;stroke-dasharray:none;stroke-opacity:1"
       id="rect6350"
       y="-529.32233"
       x="-91.96627"
       ry="14.370351"
       rx="0"
       height="527.66791"
       width="757.27026" />
    <path
       style="opacity:1;fill:none;fill-opacity:1;fill-rule:nonzero;stroke:#000000;stroke-width:2;stroke-linejoin:round;stroke-miterlimit:4;stroke-dasharray:none;stroke-dashoffset:0;stroke-opacity:1"
       d="M 188.89853,-484.53467 C 188.89853,-488.57528 188.89853,-575.44841 188.89853,-575.44841 L 631.34535,-575.44841 L 631.34535,-484.53467"
       id="path3753"
       transform="translate(-132.28999,125.24636)" />
    <path
       style="fill:#ffffff;fill-opacity:1;fill-rule:nonzero;stroke:#000000;stroke-width:2;stroke-linejoin:round;stroke-miterlimit:4;stroke-dasharray:none;stroke-dashoffset:0;stroke-opacity:1"
       d="M -17.101691,-358.75314 L 587.08155,-358.75314"
       id="path3333" />
    <path
       style="fill:#000000;fill-opacity:1;stroke:#000000;stroke-width:1.5;stroke-miterlimit:4;stroke-dasharray:none;stroke-opacity:1"
       id="path10687"
       d="M 280.09856,-357.55481 C 280.09996,-354.2065 277.38596,-351.49143 274.03766,-351.49143 C 270.68936,-351.49143 267.97536,-354.2065 267.97676,-357.55481 C 267.97536,-360.90312 270.68936,-363.61819 274.03766,-363.61819 C 277.38596,-363.61819 280.09996,-360.90312 280.09856,-357.55481 L 280.09856,-357.55481 z" />
    <rect
       style="fill:#ffffff;fill-opacity:1;stroke:#000000;stroke-width:1.70000005;stroke-miterlimit:4.0999999;stroke-dasharray:none;stroke-opacity:1"
       id="rect3897"
       width="33.255173"
       height="98.06012"
       x="257.41006"
       y="-280.23843"
       ry="9.8391476"
       rx="0" />
    <rect
       style="fill:#ffffff;fill-opacity:1;stroke:#000000;stroke-width:1.70000005;stroke-miterlimit:4.0999999;stroke-dasharray:none;stroke-opacity:1"
       id="rect2913"
       width="33.255173"
       height="98.06012"
       x="340.92722"
       y="342.3945"
       ry="9.8391476"
       rx="0"
       transform="matrix(0,-1,1,0,0,0)" />
    <path
       style="fill:#ffffff;fill-opacity:1;stroke:#000000;stroke-width:1.5;stroke-miterlimit:4;stroke-dasharray:none;stroke-opacity:1"
       id="path3282"
       d="M 594.55773,-357.55481 C 594.55903,-354.2065 591.84513,-351.49143 588.49683,-351.49143 C 585.14843,-351.49143 582.43453,-354.2065 582.43583,-357.55481 C 582.43453,-360.90312 585.14843,-363.61819 588.49683,-363.61819 C 591.84513,-363.61819 594.55903,-360.90312 594.55773,-357.55481 L 594.55773,-357.55481 z" />
    <rect
       style="fill:#ffffff;fill-opacity:1;stroke:#000000;stroke-width:1.70000005;stroke-miterlimit:4.0999999;stroke-dasharray:none;stroke-opacity:1"
       id="rect3319"
       width="33.255173"
       height="98.06012"
       x="340.92722"
       y="113.44926"
       ry="9.8391476"
       rx="0"
       transform="matrix(0,-1,1,0,0,0)" />
    <path
       style="fill:#000000;fill-opacity:1;stroke:#000000;stroke-width:1.5;stroke-miterlimit:4;stroke-dasharray:none;stroke-opacity:1"
       id="path3321"
       d="M 280.09856,-80.276816 C 280.09996,-76.928506 277.38596,-74.213436 274.03766,-74.213436 C 270.68936,-74.213436 267.97536,-76.928506 267.97676,-80.276816 C 267.97536,-83.625126 270.68936,-86.340196 274.03766,-86.340196 C 277.38596,-86.340196 280.09996,-83.625126 280.09856,-80.276816 L 280.09856,-80.276816 z" />
    <path
       style="fill:#ffffff;fill-opacity:1;stroke:#000000;stroke-width:1.5;stroke-miterlimit:4;stroke-dasharray:none;stroke-opacity:1"
       id="path3323"
       d="M 594.55773,-80.276816 C 594.55903,-76.928506 591.84513,-74.213436 588.49683,-74.213436 C 585.14843,-74.213436 582.43453,-76.928506 582.43583,-80.276816 C 582.43453,-83.625126 585.14843,-86.340196 588.49683,-86.340196 C 591.84513,-86.340196 594.55903,-83.625126 594.55773,-80.276816 L 594.55773,-80.276816 z" />
    <path
       style="fill:#ffffff;fill-opacity:1;stroke:#000000;stroke-width:1.5;stroke-miterlimit:4;stroke-dasharray:none;stroke-opacity:1"
       id="path3327"
       d="M -12.602573,-357.55481 C -12.601273,-354.2065 -15.315177,-351.49143 -18.663477,-351.49143 C -22.011877,-351.49143 -24.725777,-354.2065 -24.724477,-357.55481 C -24.725777,-360.90312 -22.011877,-363.61819 -18.663477,-363.61819 C -15.315177,-363.61819 -12.601273,-360.90312 -12.602573,-357.55481 L -12.602573,-357.55481 z" />
    <path
       style="fill:#ffffff;fill-opacity:1;stroke:#000000;stroke-width:1.5;stroke-miterlimit:4;stroke-dasharray:none;stroke-opacity:1"
       id="path3329"
       d="M -12.602575,-80.276816 C -12.601275,-76.928506 -15.315177,-74.213436 -18.663477,-74.213436 C -22.011877,-74.213436 -24.725777,-76.928506 -24.724477,-80.276816 C -24.725777,-83.625126 -22.011877,-86.340196 -18.663477,-86.340196 C -15.315177,-86.340196 -12.601275,-83.625126 -12.602575,-80.276816 L -12.602575,-80.276816 z" />
    <path
       style="fill:#ffffff;fill-opacity:1;fill-rule:nonzero;stroke:#000000;stroke-width:2;stroke-linejoin:round;stroke-miterlimit:4;stroke-dasharray:none;stroke-dashoffset:0;stroke-opacity:1"
       d="M -11.884697,-81.610276 L 583.82959,-81.610276"
       id="path3852" />
    <path
       style="fill:#ffffff;fill-opacity:1;fill-rule:nonzero;stroke:#000000;stroke-width:2;stroke-linejoin:round;stroke-miterlimit:4;stroke-dasharray:none;stroke-dashoffset:0;stroke-opacity:1"
       d="M 273.82959,-357.32457 L 273.82959,-281.61028"
       id="path3854" />
    <path
       style="fill:#ffffff;fill-opacity:1;fill-rule:nonzero;stroke:#000000;stroke-width:2;stroke-linejoin:round;stroke-miterlimit:4;stroke-dasharray:none;stroke-dashoffset:0;stroke-opacity:1"
       d="M 273.82959,-181.61028 L 273.82959,-78.753136"
       id="path3856" />
    <rect
       style="fill:#ffffff;fill-opacity:1;stroke:#000000;stroke-width:1.70000005;stroke-miterlimit:4.0999999;stroke-dasharray:none;stroke-opacity:1"
       id="rect3741"
       width="33.255173"
       height="98.06012"
       x="432.5592"
       y="231.83235"
       ry="9.8391476"
       rx="0"
       transform="matrix(0,-1,1,0,0,0)" />
    <path
       style="fill:#000000;fill-opacity:1;stroke:#000000;stroke-width:1.5;stroke-miterlimit:4;stroke-dasharray:none;stroke-opacity:1"
       id="path3743"
       d="M 506.12641,-358.27815 C 506.12781,-354.92984 503.41381,-352.21477 500.06551,-352.21477 C 496.71721,-352.21477 494.00321,-354.92984 494.00461,-358.27815 C 494.00321,-361.62646 496.71721,-364.34153 500.06551,-364.34153 C 503.41381,-364.34153 506.12781,-361.62646 506.12641,-358.27815 L 506.12641,-358.27815 z" />
    <path
       style="fill:#000000;fill-opacity:1;stroke:#000000;stroke-width:1.5;stroke-miterlimit:4;stroke-dasharray:none;stroke-opacity:1"
       id="path3745"
       d="M 62.669439,-358.27815 C 62.670839,-354.92984 59.956839,-352.21477 56.608539,-352.21477 C 53.260239,-352.21477 50.546239,-354.92984 50.547639,-358.27815 C 50.546239,-361.62646 53.260239,-364.34153 56.608539,-364.34153 C 59.956839,-364.34153 62.670839,-361.62646 62.669439,-358.27815 L 62.669439,-358.27815 z" />
  </g>
</svg>
