<?xml version="1.0" encoding="UTF-8" standalone="no"?>
<!-- Created with Inkscape (http://www.inkscape.org/) -->

<svg
   xmlns:dc="http://purl.org/dc/elements/1.1/"
   xmlns:cc="http://creativecommons.org/ns#"
   xmlns:rdf="http://www.w3.org/1999/02/22-rdf-syntax-ns#"
   xmlns:svg="http://www.w3.org/2000/svg"
   xmlns="http://www.w3.org/2000/svg"
   xmlns:sodipodi="http://sodipodi.sourceforge.net/DTD/sodipodi-0.dtd"
   xmlns:inkscape="http://www.inkscape.org/namespaces/inkscape"
   id="svg4348"
   version="1.1"
   inkscape:version="0.48.2 r9819"
   width="1000"
   height="670.36047"
   xml:space="preserve"
   sodipodi:docname="Brack.svg"><metadata
     id="metadata4354"><rdf:RDF><cc:Work
         rdf:about=""><dc:format>image/svg+xml</dc:format><dc:type
           rdf:resource="http://purl.org/dc/dcmitype/StillImage" /><dc:title></dc:title></cc:Work></rdf:RDF></metadata><defs
     id="defs4352"><linearGradient
       id="linearGradient13089"><stop
         style="stop-color:#802f71;stop-opacity:1"
         offset="0"
         id="stop13091" /><stop
         id="stop13103"
         offset="0.2"
         style="stop-color:#882a76;stop-opacity:1" /><stop
         id="stop13101"
         offset="0.40000001"
         style="stop-color:#8e2c7f;stop-opacity:1" /><stop
         id="stop13099"
         offset="0.60312504"
         style="stop-color:#a890b4;stop-opacity:1" /><stop
         id="stop13097"
         offset="0.80000001"
         style="stop-color:#aec0ce;stop-opacity:1" /><stop
         style="stop-color:#afc0ca;stop-opacity:1"
         offset="1"
         id="stop13093" /></linearGradient><clipPath
       clipPathUnits="userSpaceOnUse"
       id="clipPath4462"><path
         d="m 300.45,209.53 278.11,0 0,318.95 -278.11,0 0,-318.95 z"
         clip-rule="evenodd"
         id="path4464"
         inkscape:connector-curvature="0" /></clipPath><clipPath
       clipPathUnits="userSpaceOnUse"
       id="clipPath4616"><path
         d="m 14.661,99.052 277.8,0 0,297.54 -277.8,0 0,-297.54 z"
         clip-rule="evenodd"
         id="path4618"
         inkscape:connector-curvature="0" /></clipPath><clipPath
       clipPathUnits="userSpaceOnUse"
       id="clipPath4730"><path
         d="m -9.0009,-8.9992 612.96,0 0,860.04 -612.96,0 0,-860.04 z"
         clip-rule="evenodd"
         id="path4732"
         inkscape:connector-curvature="0" /></clipPath><clipPath
       clipPathUnits="userSpaceOnUse"
       id="clipPath4740"><path
         d="m 0,0 11692.92,0 0,4431.78 L 0,4431.78 0,0 z"
         id="path4742"
         inkscape:connector-curvature="0" /></clipPath><clipPath
       clipPathUnits="userSpaceOnUse"
       id="clipPath4828"><path
         d="m -9.0009,-8.9992 612.96,0 0,860.04 -612.96,0 0,-860.04 z"
         clip-rule="evenodd"
         id="path4830"
         inkscape:connector-curvature="0" /></clipPath><clipPath
       clipPathUnits="userSpaceOnUse"
       id="clipPath4838"><path
         d="m 0,0 224.26,0 0,117.75 L 0,117.75 0,0 z"
         id="path4840"
         inkscape:connector-curvature="0" /></clipPath><clipPath
       clipPathUnits="userSpaceOnUse"
       id="clipPath4850"><path
         d="m -9.0009,-8.9992 612.96,0 0,860.04 -612.96,0 0,-860.04 z"
         clip-rule="evenodd"
         id="path4852"
         inkscape:connector-curvature="0" /></clipPath><clipPath
       clipPathUnits="userSpaceOnUse"
       id="clipPath4860"><path
         d="m 0,0 67.33,0 0,67.33 L 0,67.33 0,0 z"
         id="path4862"
         inkscape:connector-curvature="0" /></clipPath><clipPath
       clipPathUnits="userSpaceOnUse"
       id="clipPath4872"><path
         d="m 299.41,99.083 279.14,0 0,101.13 -279.14,0 0,-101.13 z"
         clip-rule="evenodd"
         id="path4874"
         inkscape:connector-curvature="0" /></clipPath><clipPath
       clipPathUnits="userSpaceOnUse"
       id="clipPath4922"><path
         d="m 13.894,578.26 278.07,0 0,63.31 -278.07,0 0,-63.31 z"
         clip-rule="evenodd"
         id="path4924"
         inkscape:connector-curvature="0" /></clipPath><clipPath
       clipPathUnits="userSpaceOnUse"
       id="clipPath4956"><path
         d="m 13.895,516.19 278.07,0 0,54.621 -278.07,0 0,-54.621 z"
         clip-rule="evenodd"
         id="path4958"
         inkscape:connector-curvature="0" /></clipPath><clipPath
       clipPathUnits="userSpaceOnUse"
       id="clipPath4990"><path
         d="m 13.895,403.07 278.07,0 0,105.67 -278.07,0 0,-105.67 z"
         clip-rule="evenodd"
         id="path4992"
         inkscape:connector-curvature="0" /></clipPath><clipPath
       clipPathUnits="userSpaceOnUse"
       id="clipPath6196"><path
         inkscape:connector-curvature="0"
         d="m 0,0 595.276,0 0,841.89 L 0,841.89 0,0 z"
         id="path6198" /></clipPath><clipPath
       clipPathUnits="userSpaceOnUse"
       id="clipPath6580"><path
         inkscape:connector-curvature="0"
         d="m 0,0 595.276,0 0,841.89 L 0,841.89 0,0 z"
         id="path6582" /></clipPath><clipPath
       clipPathUnits="userSpaceOnUse"
       id="clipPath6822"><path
         inkscape:connector-curvature="0"
         d="m 0,0 595.276,0 0,841.89 L 0,841.89 0,0 z"
         id="path6824" /></clipPath><clipPath
       clipPathUnits="userSpaceOnUse"
       id="clipPath6914"><path
         inkscape:connector-curvature="0"
         d="m 0,0 595.276,0 0,841.89 L 0,841.89 0,0 z"
         id="path6916" /></clipPath><clipPath
       clipPathUnits="userSpaceOnUse"
       id="clipPath6936"><path
         inkscape:connector-curvature="0"
         d="m 0,0 595.276,0 0,841.89 L 0,841.89 0,0 z"
         id="path6938" /></clipPath><clipPath
       clipPathUnits="userSpaceOnUse"
       id="clipPath7320"><path
         inkscape:connector-curvature="0"
         d="m 0,0 595.276,0 0,841.89 L 0,841.89 0,0 z"
         id="path7322" /></clipPath><clipPath
       clipPathUnits="userSpaceOnUse"
       id="clipPath13227"><path
         inkscape:connector-curvature="0"
         d="m 120.975,97.97 129.84,0 0,-30.12 -129.84,0 0,30.12 z"
         id="path13229" /></clipPath><clipPath
       clipPathUnits="userSpaceOnUse"
       id="clipPath13566"><path
         inkscape:connector-curvature="0"
         d="m 312.622,28.346 78.3,0 0,62.681 -78.3,0 0,-62.681 z"
         id="path13568" /></clipPath><clipPath
       clipPathUnits="userSpaceOnUse"
       id="clipPath13602"><path
         inkscape:connector-curvature="0"
         d="m 312.622,28.346 78.3,0 0,62.681 -78.3,0 0,-62.681 z"
         id="path13604" /></clipPath><clipPath
       clipPathUnits="userSpaceOnUse"
       id="clipPath15506"><path
         inkscape:connector-curvature="0"
         d="m 470.052,147.441 78.646,0 0,74.975 -78.646,0 0,-74.975 z"
         id="path15508" /></clipPath><clipPath
       clipPathUnits="userSpaceOnUse"
       id="clipPath15516"><path
         inkscape:connector-curvature="0"
         d="m 0,0 841.89,0 0,595.276 L 0,595.276 0,0 z"
         id="path15518" /></clipPath><clipPath
       clipPathUnits="userSpaceOnUse"
       id="clipPath15526"><path
         inkscape:connector-curvature="0"
         d="m -6.81498,-2.16842 12.09295,0 0,8.55056 -12.09295,0 0,-8.55056 z"
         id="path15528" /></clipPath><clipPath
       clipPathUnits="userSpaceOnUse"
       id="clipPath16570"><path
         inkscape:connector-curvature="0"
         d="m 1637.427,37.897 113.462,0 0,76.023 -113.462,0 0,-76.023 z"
         id="path16572" /></clipPath></defs><sodipodi:namedview
     pagecolor="#ffffff"
     bordercolor="#666666"
     borderopacity="1"
     objecttolerance="10"
     gridtolerance="10"
     guidetolerance="10"
     inkscape:pageopacity="0"
     inkscape:pageshadow="2"
     inkscape:window-width="1920"
     inkscape:window-height="1028"
     id="namedview4350"
     showgrid="false"
     fit-margin-left="0.5"
     fit-margin-bottom="0.5"
     fit-margin-top="0.5"
     fit-margin-right="0.5"
     inkscape:zoom="0.44843473"
     inkscape:cx="931.19964"
     inkscape:cy="162.85538"
     inkscape:window-x="-8"
     inkscape:window-y="-8"
     inkscape:window-maximized="1"
     inkscape:current-layer="g4356" /><g
     id="g4356"
     inkscape:groupmode="layer"
     inkscape:label="link_newsletter_spring_2013"
     transform="matrix(1.25,0,0,-1.25,-466.81488,1706.1667)"><g
       style="fill:#ff0000"
       transform="matrix(6.4777631,0,0,-6.4777631,-1122.5556,2904.7426)"
       id="g12724" /><g
       id="g16566"
       style="fill:#000000"
       transform="matrix(7.043768,0,0,7.043768,-11159.804,562.10731)"><g
         id="g16568"
         clip-path="url(#clipPath16570)"
         style="fill:#000000"><g
           id="g16574"
           transform="translate(1684.2822,76.219)"
           style="fill:#000000"><path
             d="m 0,0 c 0,0.213 0.148,0.388 0.347,0.43 0,0 0.052,0 0.052,0.146 0,0.104 -0.046,0.127 -0.046,0.127 l -0.749,0 c -0.227,0 -0.47,-0.417 -0.47,-0.734 0,-0.161 0.057,-0.332 0.176,-0.423 l -0.696,-1.585 0.047,-0.075 0.832,0 0.697,1.61 c 0,0 0.023,0.043 0.02,0.072 C 0.209,-0.397 0.195,-0.365 0.175,-0.349 0.068,-0.27 0,-0.142 0,0 m 7.36,0 c 0,0.213 0.149,0.388 0.348,0.43 0,0 0.052,0 0.052,0.146 0,0.104 -0.046,0.127 -0.046,0.127 l -0.757,0 C 6.774,1.27 6.611,1.849 6.451,2.435 6.26,3.135 6.117,3.752 6.016,4.339 5.357,5.329 4.54,6.019 4.523,7.343 4.499,8.386 5.126,9.072 5.737,9.801 c 0.313,0.372 0.26,0.399 0.404,0.938 0,0 0.237,0.891 0.389,1.49 0.601,2.363 1.614,3.473 2.31,5.811 0.581,1.95 0.969,3.067 1.114,5.095 0.084,1.185 0.08,1.922 -0.032,3.003 l -0.04,0.116 C 9.38,26.276 9.339,25.758 9.316,25.381 9.145,22.561 8.088,21.579 6.339,19.728 5.835,19.198 4.753,18.706 4.101,18.373 1.225,16.903 -0.863,15.232 -2.097,12.832 -2.313,12.381 -2.465,11.8 -2.586,11.192 -2.678,10.73 -2.723,10.348 -2.741,9.975 -3.022,9.385 -1.819,8.703 -1.665,7.383 -1.519,6.153 -1.824,5.586 -2.056,5.123 -2.013,5.044 -0.55,2.554 0.958,1.162 1.206,0.931 1.452,0.729 1.699,0.549 1.577,0.399 1.483,0.166 1.483,-0.031 c 0,-0.161 0.056,-0.332 0.177,-0.423 l -0.696,-1.585 0.046,-0.075 0.833,0 0.698,1.61 c 0,0 0.021,0.043 0.019,0.072 0,0.035 -0.015,0.067 -0.035,0.083 C 2.418,-0.27 2.349,-0.142 2.349,0 2.349,0.187 2.465,0.345 2.627,0.41 2.755,0.337 2.84,0.203 2.84,0.045 2.84,-0.01 2.828,-0.065 2.815,-0.117 l 1.179,0 C 4.01,-0.251 4.066,-0.38 4.165,-0.454 L 4.023,-0.776 3.312,-2.1 l 0.204,-0.014 0.832,0 0.698,1.61 c 0,0 0.021,0.043 0.02,0.072 C 5.064,-0.397 5.05,-0.365 5.029,-0.349 4.923,-0.27 4.855,-0.142 4.855,0 c 0,0.196 0.127,0.362 0.304,0.418 0.135,-0.069 0.228,-0.21 0.228,-0.373 0,-0.058 -0.012,-0.112 -0.032,-0.162 l 1.144,0 C 6.516,-0.251 6.572,-0.38 6.671,-0.454 L 6.531,-0.771 5.818,-2.1 l 0.203,-0.014 0.832,0 0.699,1.61 c 0,0 0.02,0.043 0.019,0.072 C 7.569,-0.397 7.555,-0.365 7.534,-0.349 7.428,-0.27 7.36,-0.142 7.36,0 M -6.688,0 c 0,0.213 0.148,0.388 0.348,0.43 0,0 0.052,0 0.052,0.146 0,0.104 -0.046,0.127 -0.046,0.127 l -0.75,0 c -0.228,0 -0.47,-0.417 -0.47,-0.734 0,-0.161 0.056,-0.332 0.177,-0.423 l -0.698,-1.585 0.048,-0.075 0.833,0 0.697,1.61 c 0,0 0.021,0.043 0.02,0.072 -10e-4,0.035 -0.015,0.067 -0.037,0.083 C -6.62,-0.27 -6.688,-0.142 -6.688,0 M 9.866,0 c 0,0.213 0.148,0.388 0.347,0.43 0,0 0.054,0 0.054,0.146 0,0.104 -0.047,0.127 -0.047,0.127 l -0.749,0 c -0.229,0 -0.472,-0.417 -0.472,-0.734 0,-0.161 0.056,-0.332 0.177,-0.423 l -0.697,-1.585 0.048,-0.075 0.831,0 0.698,1.61 c 0,0 0.021,0.043 0.021,0.072 -0.002,0.035 -0.016,0.067 -0.039,0.083 C 9.935,-0.27 9.866,-0.142 9.866,0 m 2.505,0 c 0,0.213 0.149,0.388 0.348,0.43 0,0 0.051,0 0.051,0.146 0,0.104 -0.046,0.127 -0.046,0.127 l -0.749,0 c -0.227,0 -0.471,-0.417 -0.471,-0.734 0,-0.161 0.057,-0.332 0.178,-0.423 l -0.699,-1.585 0.048,-0.075 0.832,0 0.698,1.61 c 0,0 0.021,0.043 0.02,0.072 -0.002,0.035 -0.016,0.067 -0.036,0.083 C 12.44,-0.27 12.371,-0.142 12.371,0 m 2.505,0 c 0,0.213 0.148,0.388 0.347,0.43 0,0 0.052,0 0.052,0.146 0,0.104 -0.046,0.127 -0.046,0.127 l -0.749,0 c -0.228,0 -0.469,-0.417 -0.469,-0.734 0,-0.161 0.055,-0.332 0.174,-0.423 l -0.697,-1.585 0.049,-0.075 0.831,0 0.698,1.61 c 0,0 0.023,0.043 0.022,0.072 -0.004,0.035 -0.017,0.067 -0.037,0.083 C 14.943,-0.27 14.876,-0.142 14.876,0 m 2.504,0 c 0,0.213 0.15,0.388 0.348,0.43 0,0 0.052,0 0.052,0.146 0,0.104 -0.045,0.127 -0.045,0.127 l -0.751,0 c -0.227,0 -0.47,-0.417 -0.47,-0.734 0,-0.161 0.057,-0.332 0.178,-0.423 l -0.696,-1.585 0.045,-0.075 0.833,0 0.698,1.61 c 0,0 0.02,0.043 0.02,0.072 -0.002,0.035 -0.016,0.067 -0.037,0.083 C 17.45,-0.27 17.38,-0.142 17.38,0 m 2.505,0 c 0,0.213 0.151,0.388 0.349,0.43 0,0 0.052,0 0.052,0.146 0,0.104 -0.047,0.127 -0.047,0.127 l -0.75,0 c -0.226,0 -0.47,-0.417 -0.47,-0.734 0,-0.161 0.058,-0.332 0.177,-0.423 l -0.698,-1.585 0.05,-0.075 0.83,0 0.698,1.61 c 0,0 0.022,0.043 0.021,0.072 -0.001,0.035 -0.014,0.067 -0.037,0.083 C 19.954,-0.27 19.885,-0.142 19.885,0 m -42.764,-2.033 c -0.175,0.379 -0.402,0.742 -0.557,1.233 -0.387,1.225 -0.603,1.993 -0.43,3.267 0.223,1.651 1.242,2.289 1.977,3.784 0.704,1.426 1.263,2.174 1.721,3.697 0.388,1.293 0.548,2.239 0.591,3.439 -0.086,-0.019 -0.238,-0.004 -0.516,-0.283 -0.29,-0.289 -0.756,-2.269 -1.433,-3.542 -0.523,-0.986 -0.936,-1.514 -1.791,-2.23 -1.474,-1.234 -3.265,-1.592 -3.902,-2.668 -0.568,-0.958 -0.78,-1.681 -0.637,-2.786 0.191,-1.461 1.018,-2.162 2.15,-3.105 0.461,-0.382 0.935,-0.59 1.359,-0.806 l 1.468,0 z m 4.054,17.4 c 0,-0.369 -0.446,-0.551 -0.81,-0.551 -0.364,0 -0.81,0.182 -0.81,0.551 0,0.371 0.446,0.553 0.81,0.553 0.364,0 0.81,-0.182 0.81,-0.553 m -1.412,1.172 c 0.009,0.235 0.185,1.381 0.61,1.381 0.422,0 0.584,-1.099 0.593,-1.346 0,-0.843 -1.203,-0.857 -1.203,-0.035 m 0.92,5.196 c -0.059,0.16 -0.114,0.261 -0.162,0.407 l -0.156,0.464 c -0.116,-0.351 -0.226,-0.688 -0.392,-1.017 -0.159,-0.315 0.042,-0.668 0.392,-0.737 0.258,0.05 0.411,0.218 0.443,0.475 0.024,0.195 -0.069,0.258 -0.125,0.408 m 0.645,-3.015 c -0.103,-0.31 -0.44,-0.724 -0.946,-0.739 -0.533,-0.018 -0.877,0.429 -0.98,0.739 -0.045,0.133 -0.19,0.155 -0.379,0.172 l 0,0.241 0.396,0 c 0.104,0.461 0.475,0.757 0.946,0.757 0.472,0 0.842,-0.296 0.946,-0.757 l 0.395,0 0,-0.241 c -0.189,-0.017 -0.333,-0.039 -0.378,-0.172 m -0.963,2.143 c 0.254,0 0.46,-0.205 0.46,-0.459 0,-0.255 -0.206,-0.46 -0.46,-0.46 -0.254,0 -0.461,0.205 -0.461,0.46 0,0.254 0.207,0.459 0.461,0.459 m 0.33,-6.995 c -0.19,-0.018 -0.341,-0.025 -0.341,-0.025 0,0 -0.149,0.007 -0.334,0.027 -0.239,0.023 -0.467,0.06 -0.7,0.121 l -0.069,0.393 c 0.381,0.308 0.646,0.435 1.144,0.424 0.48,-0.012 0.726,-0.144 1.089,-0.446 L -18.6,13.989 c -0.235,-0.061 -0.465,-0.098 -0.705,-0.121 m 59.539,1.499 c 0,-0.369 -0.447,-0.551 -0.81,-0.551 -0.363,0 -0.81,0.182 -0.81,0.551 0,0.371 0.447,0.553 0.81,0.553 0.363,0 0.81,-0.182 0.81,-0.553 m -1.412,1.172 c 0.01,0.235 0.186,1.381 0.611,1.381 0.421,0 0.582,-1.099 0.592,-1.346 0,-0.843 -1.203,-0.857 -1.203,-0.035 m 0.921,5.196 c -0.06,0.16 -0.117,0.261 -0.164,0.407 l -0.155,0.464 c -0.117,-0.351 -0.226,-0.688 -0.392,-1.017 -0.161,-0.315 0.043,-0.668 0.392,-0.737 0.258,0.05 0.411,0.218 0.442,0.475 0.025,0.195 -0.068,0.258 -0.123,0.408 m 0.644,-3.015 c -0.102,-0.31 -0.44,-0.724 -0.945,-0.739 -0.535,-0.018 -0.877,0.429 -0.982,0.739 -0.044,0.133 -0.189,0.155 -0.378,0.172 l 0,0.241 0.395,0 c 0.105,0.461 0.474,0.757 0.947,0.757 0.473,0 0.842,-0.296 0.945,-0.757 l 0.396,0 0,-0.241 C 40.576,18.875 40.43,18.853 40.387,18.72 m -0.963,2.143 c 0.253,0 0.459,-0.205 0.459,-0.459 0,-0.255 -0.206,-0.46 -0.459,-0.46 -0.254,0 -0.46,0.205 -0.46,0.46 0,0.254 0.206,0.459 0.46,0.459 m 0.329,-6.995 c -0.189,-0.018 -0.341,-0.025 -0.341,-0.025 0,0 -0.148,0.007 -0.335,0.027 -0.237,0.023 -0.465,0.06 -0.697,0.121 l -0.07,0.393 c 0.38,0.308 0.645,0.435 1.143,0.424 0.481,-0.012 0.725,-0.144 1.088,-0.446 L 40.457,13.989 C 40.225,13.928 39.994,13.891 39.753,13.868 M 26.85,28.678 c 0.041,-0.111 0.115,-0.163 0.096,-0.306 -0.021,-0.18 -0.125,-0.304 -0.308,-0.341 -0.245,0.05 -0.383,0.305 -0.272,0.524 0.112,0.222 0.193,0.451 0.272,0.687 0.066,-0.194 0.14,-0.374 0.212,-0.564 m -2.952,-31.473 -0.283,0.352 0.223,0.316 0,2.599 0.239,0 c 0.223,0 0.409,-0.18 0.409,-0.406 0,-0.201 -0.133,-0.36 -0.327,-0.402 l 0.577,-1.26 0,4.379 0.362,0.432 0,1.01 c 0,0.751 0.571,1.089 0.546,1.345 -0.03,0.353 -0.221,0.597 -0.38,0.896 l 0,11.808 c 0.149,0.38 0.387,0.713 0.709,0.966 l 0,0.389 c -0.484,0.11 -0.754,0.308 -0.953,0.735 -0.192,0.411 -0.527,0.453 -0.945,0.39 l 0,0.475 0.942,0 0,2.593 -0.86,0 0,0.428 0.871,0 0.121,0.282 0.17,0 c -0.051,0.172 -0.085,0.366 -0.072,0.583 0.042,0.666 0.557,0.929 0.909,1.398 0.193,0.25 0.288,0.407 0.407,0.657 -0.136,0.024 -0.264,0.119 -0.317,0.284 -0.025,0.009 -0.118,0.014 -0.134,0.016 l 0,0.235 0.152,0 c 0.06,0.152 0.201,0.248 0.37,0.248 0.172,0 0.312,-0.096 0.37,-0.248 l 0.152,0 0,-0.235 c -0.015,-0.002 -0.108,-0.007 -0.131,-0.016 -0.056,-0.165 -0.181,-0.26 -0.32,-0.284 0.12,-0.25 0.215,-0.407 0.408,-0.657 0.351,-0.469 0.866,-0.732 0.909,-1.398 C 28.036,24.898 28,24.704 27.949,24.532 l 0.172,0 0.122,-0.282 0.868,0 0,-0.428 -0.858,0 0,-2.593 0.941,0 0,-0.475 c -0.419,0.063 -0.754,0.021 -0.944,-0.39 -0.197,-0.427 -0.469,-0.625 -0.955,-0.735 l 0,-0.389 c 0.325,-0.253 0.561,-0.586 0.71,-0.966 l 0,-11.808 C 27.847,6.167 27.656,5.923 27.626,5.57 27.6,5.314 28.169,4.976 28.169,4.225 l 0,-1.01 0.363,-0.432 0,-4.379 0.579,1.26 c -0.194,0.042 -0.329,0.201 -0.329,0.402 0,0.226 0.186,0.406 0.41,0.406 l 0.238,0 0,-2.599 0.225,-0.316 -0.283,-0.352 -5.474,0 z m 1.539,26.481 0,-2.408 0.451,0 0,2.408 c -0.059,0.081 -0.129,0.116 -0.228,0.115 -0.1,-0.002 -0.166,-0.035 -0.223,-0.115 M 26.685,0 c 0,0.213 0.149,0.388 0.348,0.43 0,0 0.052,0 0.052,0.146 0,0.104 -0.046,0.127 -0.046,0.127 l -0.748,0 c -0.229,0 -0.473,-0.417 -0.473,-0.734 0,-0.161 0.057,-0.332 0.178,-0.423 l -0.698,-1.585 0.048,-0.075 0.831,0 0.7,1.61 c 0,0 0.021,0.043 0.019,0.072 -0.002,0.035 -0.017,0.067 -0.036,0.083 C 26.753,-0.27 26.685,-0.142 26.685,0 m -0.631,18.299 -0.356,-0.042 0,-11.464 0.357,0 -0.001,11.506 z m 0.448,5.412 0,-2.433 0.45,0 0,2.433 c -0.061,0.086 -0.138,0.123 -0.242,0.116 -0.093,-0.006 -0.154,-0.04 -0.208,-0.116 m 1.1,0 0,-2.433 0.231,0 0,2.433 c 0,0 -0.043,0.108 -0.099,0.116 -0.068,0.008 -0.132,-0.116 -0.132,-0.116 M -6.67,28.678 c 0.042,-0.111 0.117,-0.163 0.098,-0.306 -0.021,-0.18 -0.126,-0.304 -0.308,-0.341 -0.245,0.05 -0.384,0.305 -0.273,0.524 0.112,0.222 0.194,0.451 0.273,0.687 0.065,-0.194 0.14,-0.374 0.21,-0.564 m -2.953,-31.473 -0.281,0.352 0.224,0.316 0,2.599 0.237,0 c 0.225,0 0.41,-0.18 0.41,-0.406 0,-0.201 -0.133,-0.36 -0.327,-0.402 l 0.577,-1.26 0,4.379 0.362,0.432 0,1.01 c 0,0.751 0.572,1.089 0.546,1.345 -0.031,0.353 -0.221,0.597 -0.38,0.896 l 0,11.808 c 0.15,0.38 0.386,0.713 0.71,0.966 l 0,0.389 c -0.485,0.11 -0.756,0.308 -0.954,0.735 -0.191,0.411 -0.527,0.453 -0.945,0.39 l 0,0.475 0.941,0 0,2.593 -0.858,0 0,0.428 0.87,0 0.12,0.282 0.172,0 c -0.052,0.172 -0.086,0.366 -0.072,0.583 0.043,0.666 0.557,0.929 0.908,1.398 0.192,0.25 0.288,0.407 0.407,0.657 -0.137,0.024 -0.263,0.119 -0.318,0.284 -0.023,0.009 -0.118,0.014 -0.132,0.016 l 0,0.235 0.15,0 c 0.06,0.152 0.202,0.248 0.371,0.248 0.172,0 0.312,-0.096 0.372,-0.248 l 0.151,0 0,-0.235 c -0.015,-0.002 -0.109,-0.007 -0.133,-0.016 -0.054,-0.165 -0.181,-0.26 -0.319,-0.284 0.121,-0.25 0.216,-0.407 0.409,-0.657 0.351,-0.469 0.865,-0.732 0.908,-1.398 0.014,-0.217 -0.021,-0.411 -0.072,-0.583 l 0.171,0 0.121,-0.282 0.869,0 0,-0.428 -0.858,0 0,-2.593 0.941,0 0,-0.475 c -0.418,0.063 -0.754,0.021 -0.944,-0.39 -0.198,-0.427 -0.469,-0.625 -0.954,-0.735 l 0,-0.389 c 0.323,-0.253 0.56,-0.586 0.71,-0.966 l 0,-11.808 C -5.672,6.167 -5.863,5.923 -5.894,5.57 -5.919,5.314 -5.349,4.976 -5.349,4.225 l 0,-1.01 0.364,-0.432 0,-4.379 0.577,1.26 c -0.195,0.042 -0.328,0.201 -0.328,0.402 0,0.226 0.185,0.406 0.41,0.406 l 0.239,0 0,-2.599 0.223,-0.316 -0.282,-0.352 -5.477,0 z m 1.542,26.481 0,-2.408 0.449,0 0,2.408 c -0.058,0.081 -0.128,0.116 -0.228,0.115 -0.098,-0.002 -0.165,-0.035 -0.221,-0.115 m 0.616,-5.387 -0.358,-0.042 0,-11.464 0.361,0 -0.003,11.506 z m 0.449,5.412 0,-2.433 0.449,0 0,2.433 c -0.06,0.086 -0.138,0.123 -0.242,0.116 -0.092,-0.006 -0.153,-0.04 -0.207,-0.116 m 1.1,0 0,-2.433 0.229,0 0,2.433 c 0,0 -0.041,0.108 -0.099,0.116 -0.067,0.008 -0.13,-0.116 -0.13,-0.116 m -21.322,-27.269 74.225,0 c 0.655,0 0.655,-0.98 0,-0.98 l -74.225,0 c -0.653,0 -0.653,0.98 0,0.98 m 67.664,16.831 c 0.141,-0.214 0.202,-0.455 0.266,-0.699 0.353,-1.326 0.729,-2.022 1.345,-3.202 1.617,-3.063 7.006,-1.769 7.179,-7.156 0.073,-2.127 -0.703,-3.249 -2.106,-4.346 l 0.184,-0.316 -0.228,-0.349 -15.275,0 -0.284,0.393 0.214,0.267 c -1.411,1.098 -2.201,2.217 -2.128,4.351 0.172,5.387 5.562,4.093 7.179,7.156 0.615,1.18 0.993,1.876 1.345,3.202 0.175,0.667 0.489,1.216 1.312,1.199 0.493,0.007 0.807,-0.215 0.997,-0.5 M 36.18,-2.104 c -0.174,0.377 -0.401,0.813 -0.557,1.304 -0.389,1.225 -0.603,1.993 -0.43,3.267 0.222,1.651 1.242,2.289 1.978,3.784 0.702,1.426 1.262,2.174 1.719,3.697 0.388,1.293 0.548,2.239 0.592,3.439 C 39.396,13.368 39.245,13.383 38.965,13.104 38.676,12.815 38.21,10.835 37.533,9.562 37.01,8.576 36.597,8.048 35.742,7.332 34.268,6.098 32.478,5.74 31.84,4.664 31.272,3.706 31.059,2.983 31.202,1.878 c 0.192,-1.461 1.017,-2.162 2.151,-3.105 0.46,-0.382 0.907,-0.661 1.331,-0.877 l 1.496,0 z m -26.302,-0.694 -12.869,0 -0.361,0.355 0.33,0.288 0,2.627 0.327,0 c 0.23,0 0.404,-0.208 0.392,-0.435 -0.01,-0.199 -0.162,-0.318 -0.333,-0.384 l 0.82,-1.432 0,1.662 0.403,0 0,0.067 c -1.538,2.244 -2.722,4.189 -2.631,7.299 0.2,6.033 2.932,9.187 7.85,11.702 0.539,0.275 1.648,0.789 2.062,1.225 1.639,1.732 2.642,2.607 2.801,5.243 0.041,0.744 0.462,1.483 1.207,1.483 0.747,0 1.164,-0.739 1.205,-1.483 0.16,-2.636 1.161,-3.511 2.802,-5.243 0.413,-0.436 1.521,-0.95 2.063,-1.225 4.917,-2.515 7.647,-5.669 7.849,-11.702 0.09,-3.11 -1.094,-5.055 -2.633,-7.299 l 0,-0.067 0.405,0 0,-1.662 0.819,1.432 c -0.171,0.066 -0.323,0.185 -0.333,0.384 -0.013,0.227 0.164,0.435 0.392,0.435 l 0.327,0 0,-2.627 0.329,-0.288 -0.36,-0.355 -12.863,0 z m 0.133,38.534 c 0.048,-0.281 0.148,-0.462 0.37,-0.65 0.107,-0.09 0.177,-0.131 0.306,-0.182 l 0.248,0 0.023,-0.155 c -0.175,-0.027 -0.291,-0.122 -0.329,-0.209 -0.165,-0.366 -0.231,-1.062 -0.735,-1.062 -0.505,0 -0.572,0.696 -0.737,1.062 -0.036,0.087 -0.152,0.182 -0.328,0.209 l 0.023,0.155 0.247,0 c 0.129,0.051 0.2,0.092 0.307,0.182 0.223,0.186 0.338,0.362 0.384,0.642 C 9.656,35.77 9.558,35.89 9.528,35.981 9.51,36.028 9.455,36.037 9.383,36.044 l 0,0.087 0.151,0 c 0.047,0.17 0.184,0.274 0.36,0.274 0.175,0 0.312,-0.104 0.359,-0.274 l 0.151,0 0,-0.087 c -0.072,-0.007 -0.128,-0.016 -0.146,-0.063 -0.029,-0.086 -0.12,-0.197 -0.247,-0.245 M -0.169,10.038 C -0.069,9.558 1.127,8.639 1.11,7.252 1.077,5.964 0.111,5.118 -0.12,4.638 c -0.214,0.48 -1.063,1.446 -1.079,2.734 -0.032,1.387 0.931,2.186 1.03,2.666 m 9.737,0.231 C 9.403,9.774 7.867,8.882 7.899,7.446 7.932,6.108 9.138,5.184 9.485,4.688 c 0.347,0.496 1.551,1.42 1.585,2.758 0.033,1.436 -1.354,2.328 -1.502,2.823 m 3.6,-0.132 C 13.019,9.641 11.575,8.791 11.592,7.372 c 0.033,-1.305 1.197,-2.254 1.494,-2.734 0.314,0.48 1.594,1.35 1.61,2.655 0.034,1.418 -1.396,2.348 -1.528,2.844 m 3.633,-0.05 c -0.147,-0.495 -1.672,-1.455 -1.64,-2.875 0.035,-1.338 1.261,-2.16 1.559,-2.656 0.314,0.496 1.356,1.318 1.388,2.656 0.033,1.42 -1.174,2.38 -1.307,2.875 M 6.101,9.59 C 5.549,8.931 4.943,8.291 4.964,7.35 4.977,6.348 5.552,5.651 6.123,4.911 6.732,5.66 7.42,6.336 7.445,7.351 7.457,8.436 6.804,9.003 6.265,9.796 6.215,9.728 6.158,9.658 6.101,9.59 m 16.405,0.316 c -0.091,-0.459 -1.017,-1.28 -1.002,-2.625 0.03,-1.232 0.744,-2.102 0.955,-2.56 0.197,0.458 0.926,1.328 0.941,2.56 0.029,1.345 -0.803,2.166 -0.894,2.625 m -2.608,0.132 c -0.099,-0.48 -1.343,-1.359 -1.327,-2.745 0.034,-1.289 1.046,-2.175 1.276,-2.655 0.216,0.48 1.178,1.446 1.194,2.734 0.032,1.387 -1.043,2.186 -1.143,2.666 M 2.948,10.097 C 3.096,9.601 4.254,8.718 4.221,7.297 4.188,5.96 3.165,5.052 2.868,4.556 2.554,5.052 1.608,5.874 1.575,7.212 1.541,8.632 2.816,9.601 2.948,10.097 m 6.9,18.219 c -0.353,0.017 -0.541,0.306 -0.65,0.632 -0.046,0.138 -0.451,0.071 -0.65,0.091 l 0,0.288 0.578,0 c 0.132,0.336 0.415,0.52 0.776,0.505 0.352,-0.015 0.61,-0.207 0.722,-0.541 l 0.615,-0.009 0,-0.253 C 11.04,29.011 10.617,29.105 10.57,28.965 10.464,28.641 10.226,28.296 9.848,28.316 m 0.036,-1.205 c -0.269,0.004 -0.485,0.246 -0.544,0.424 -0.026,0.077 -0.109,0.09 -0.218,0.098 l 0,0.139 0.228,0 c 0.059,0.265 0.272,0.435 0.544,0.435 0.273,0 0.483,-0.17 0.543,-0.435 l 0.226,0 0,-0.139 C 10.555,27.625 10.471,27.612 10.447,27.535 10.389,27.357 10.159,27.106 9.884,27.111 m 0.01,10.591 c 0.053,-0.157 0.109,-0.264 0.173,-0.434 0.051,-0.134 0.139,-0.205 0.122,-0.346 -0.021,-0.177 -0.122,-0.313 -0.295,-0.347 -0.173,0.034 -0.273,0.17 -0.294,0.347 -0.019,0.141 0.072,0.212 0.121,0.346 0.063,0.17 0.121,0.277 0.173,0.434 M 9.859,30.022 C 9.234,30.201 8.68,30.68 8.68,31.201 c 0.035,0.849 0.572,2.218 1.179,2.131 0.555,0.036 1.213,-1.317 1.248,-2.166 0,-0.521 -0.603,-1.001 -1.248,-1.144 M -18.633,13.273 c 0.141,-0.214 0.202,-0.455 0.266,-0.699 0.353,-1.326 0.73,-2.022 1.345,-3.202 1.618,-3.063 7.006,-1.769 7.18,-7.156 0.072,-2.127 -0.704,-3.249 -2.106,-4.346 l 0.183,-0.316 -0.229,-0.349 -15.274,0 -0.284,0.393 0.215,0.267 c -1.412,1.098 -2.201,2.217 -2.129,4.351 0.172,5.387 5.562,4.093 7.18,7.156 0.613,1.18 0.992,1.876 1.344,3.202 0.175,0.667 0.489,1.216 1.314,1.199 0.491,0.007 0.807,-0.215 0.995,-0.5"
             style="fill:#000000;fill-opacity:1;fill-rule:nonzero;stroke:none"
             id="path16576"
             inkscape:connector-curvature="0" /></g><g
           id="g16578"
           transform="translate(1641.053,58.7589)"
           style="fill:#000000"><path
             d="m 0,0 c 0,-0.954 0.144,-1.78 1.094,-1.78 1.165,0 1.655,1.057 1.655,2.274 0,0.892 -0.331,1.816 -1.022,2.261 C 1.31,3.036 0.864,3.052 0.389,3.052 0.014,3.052 0,2.821 0,2.375 L 0,0 z M 0,4.405 C 0,3.696 0,3.728 0.533,3.728 1.641,3.744 2.374,4.337 2.374,5.739 2.374,6.794 1.742,7.605 0.82,7.605 0.59,7.605 0.245,7.553 0.072,7.356 -0.058,7.207 0,6.794 0,6.563 L 0,4.405 z m -2.375,1.548 c 0,0.66 0.058,1.157 -0.589,1.157 -0.231,0 -0.634,-0.084 -0.634,0.311 0,0.264 0.231,0.312 0.403,0.38 1.022,0.395 2.965,0.429 4.073,0.429 0.705,0 1.713,-0.1 2.36,-0.346 C 4.087,7.553 4.778,6.729 4.778,5.656 4.778,3.975 3.339,3.531 2.159,3.432 3.728,3.349 5.153,2.639 5.153,0.561 c 0,-1.022 -0.389,-1.83 -1.137,-2.374 -0.749,-0.529 -1.54,-0.56 -2.375,-0.56 -1.382,0 -2.735,0.065 -4.087,0.065 -0.288,0 -0.547,-0.065 -0.835,-0.065 -0.202,0 -0.346,0.099 -0.346,0.346 0,0.264 0.217,0.314 0.389,0.346 0.936,0.182 0.863,0.528 0.863,1.599 l 0,6.035 z"
             style="fill:#000000;fill-opacity:1;fill-rule:nonzero;stroke:none"
             id="path16580"
             inkscape:connector-curvature="0" /></g><g
           id="g16582"
           transform="translate(1649.9617,62.9159)"
           style="fill:#000000"><path
             d="m 0,0 c 0.245,0 0.849,1.252 2.029,1.252 0.605,0 1.223,-0.51 1.223,-1.252 0,-0.742 -0.546,-1.336 -1.194,-1.336 -0.921,0 -1.022,0.955 -1.453,0.955 C -0.116,-0.381 0,-2.094 0,-2.606 L 0,-4.239 C 0,-4.618 -0.044,-5.21 0.058,-5.557 0.13,-5.805 0.575,-5.789 0.834,-5.838 0.993,-5.87 1.18,-5.969 1.18,-6.184 c 0,-0.281 -0.259,-0.315 -0.446,-0.315 -0.604,0 -1.208,0.034 -1.813,0.034 -0.605,0 -1.18,-0.034 -1.785,-0.034 -0.187,0 -0.431,0.034 -0.431,0.315 0,0.215 0.172,0.314 0.345,0.346 0.201,0.033 0.647,0.049 0.719,0.281 0.101,0.347 0.101,0.939 0.101,1.318 l 0,2.425 c 0,0.693 0.043,1.072 -0.633,1.17 -0.202,0.018 -0.432,0 -0.432,0.281 0,0.297 0.461,0.346 0.619,0.396 0.619,0.181 1.41,0.577 1.856,1.12 0.087,0.115 0.217,0.297 0.519,0.297 C 0.029,1.45 0,1.021 0,0.856 L 0,0 z"
             style="fill:#000000;fill-opacity:1;fill-rule:nonzero;stroke:none"
             id="path16584"
             inkscape:connector-curvature="0" /></g><g
           id="g16586"
           transform="translate(1654.2212,66.196)"
           style="fill:#000000"><path
             d="m 0,0 c 0,0.793 0.647,1.269 1.281,1.269 0.648,0 1.266,-0.443 1.266,-1.251 0,-0.842 -0.604,-1.353 -1.295,-1.353 C 0.561,-1.335 0,-0.824 0,0 M 2.36,-7.519 C 2.36,-7.898 2.318,-8.491 2.418,-8.837 2.49,-9.085 2.936,-9.069 3.195,-9.118 3.354,-9.15 3.54,-9.25 3.54,-9.464 c 0,-0.281 -0.259,-0.315 -0.446,-0.315 -0.604,0 -1.208,0.034 -1.813,0.034 -0.605,0 -1.18,-0.034 -1.784,-0.034 -0.188,0 -0.433,0.034 -0.433,0.315 0,0.214 0.173,0.314 0.346,0.346 0.202,0.033 0.648,0.049 0.72,0.281 0.101,0.346 0.101,0.939 0.101,1.318 l 0,2.425 c 0,0.693 0.043,1.072 -0.634,1.17 -0.201,0.018 -0.432,0 -0.432,0.281 0,0.297 0.461,0.346 0.619,0.396 0.619,0.181 1.41,0.577 1.856,1.12 0.087,0.115 0.216,0.297 0.519,0.297 0.23,0 0.201,-0.429 0.201,-0.594 l 0,-5.095 z"
             style="fill:#000000;fill-opacity:1;fill-rule:nonzero;stroke:none"
             id="path16588"
             inkscape:connector-curvature="0" /></g><g
           id="g16590"
           transform="translate(1662.4531,61.2175)"
           style="fill:#000000"><path
             d="m 0,0 c 0,0.905 -0.129,2.406 -1.18,2.406 -0.979,0 -1.122,-1.054 -1.122,-1.962 0,-0.906 0.171,-2.358 1.223,-2.358 C -0.101,-1.914 0,-0.858 0,0 m 1.036,-6.448 c 0,0.989 -1.151,0.873 -1.741,0.873 -0.634,0 -1.454,0.183 -1.858,0.412 -0.056,0 -0.229,-0.099 -0.272,-0.149 -0.158,-0.18 -0.259,-0.461 -0.259,-0.724 0,-1.401 1.223,-1.765 2.216,-1.765 0.705,0 1.914,0.313 1.914,1.353 M -4,-3.793 c -0.102,0.116 -0.345,0.33 -0.345,0.512 0,0.312 0.473,0.444 0.66,0.526 l 0.577,0.264 c 0.043,0 0.417,0.149 0.417,0.23 0,0.034 -0.158,0.116 -0.187,0.116 -0.92,0.363 -1.612,1.205 -1.612,2.31 0,0.889 0.432,1.599 1.065,2.109 0.661,0.511 1.482,0.676 2.274,0.676 0.633,0 1.237,-0.098 1.813,-0.379 C 0.964,2.424 1.094,2.357 1.425,2.357 l 0.849,0 C 2.706,2.406 2.85,2.406 2.85,1.848 2.85,1.4 2.749,1.499 2.375,1.499 l -0.504,0 C 1.856,1.483 1.798,1.483 1.798,1.435 c 0,0 0.361,-0.496 0.361,-1.238 0,-1.699 -1.525,-2.638 -2.864,-2.673 l -0.748,-0.015 c -0.159,0 -0.807,0 -0.807,-0.329 0,-0.165 0.245,-0.346 0.375,-0.396 0.244,-0.099 0.59,-0.082 0.848,-0.082 l 1.094,0 c 0.562,0 1.238,-0.017 1.756,-0.264 0.663,-0.314 1.079,-0.99 1.079,-1.799 0,-1.056 -0.69,-1.862 -1.467,-2.357 -0.806,-0.527 -1.77,-0.692 -2.691,-0.692 -1.094,0 -3.469,0.28 -3.469,1.977 0,1.32 1.612,1.353 1.612,1.667 0,0.099 -0.245,0.296 -0.287,0.346 L -4,-3.793 z"
             style="fill:#000000;fill-opacity:1;fill-rule:nonzero;stroke:none"
             id="path16592"
             inkscape:connector-curvature="0" /></g><g
           id="g16594"
           transform="translate(1673.7078,58.6284)"
           style="fill:#000000"><path
             d="m 0,0 c 0,-0.28 -0.043,-0.973 0.1,-1.204 0.173,-0.279 0.461,-0.298 0.72,-0.346 0.173,-0.033 0.345,-0.132 0.345,-0.364 0,-0.281 -0.244,-0.298 -0.431,-0.298 -0.692,0 -1.353,0.035 -2.044,0.035 -0.518,0 -1.065,-0.035 -1.597,-0.035 -0.174,0 -0.346,0.051 -0.346,0.298 0,0.215 0.129,0.314 0.288,0.364 0.172,0.048 0.432,0.099 0.562,0.281 0.215,0.312 0.157,0.939 0.157,1.269 l 0,2.374 c 0,1.022 0,2.063 -1.18,2.063 -0.389,0 -0.877,-0.198 -1.165,-0.496 -0.26,-0.279 -0.232,-0.512 -0.232,-0.89 l 0,-3.051 c 0,-0.231 -0.041,-0.89 0.073,-1.139 0.101,-0.214 0.259,-0.344 0.46,-0.411 0.202,-0.067 0.475,-0.05 0.475,-0.364 0,-0.229 -0.172,-0.298 -0.345,-0.298 -0.288,0 -0.547,0.035 -0.835,0.035 -0.949,0 -1.87,-0.035 -2.806,-0.035 -0.187,0 -0.446,0.017 -0.446,0.298 0,0.232 0.187,0.331 0.345,0.364 0.216,0.048 0.519,0.067 0.676,0.281 0.231,0.312 0.159,0.922 0.159,1.269 l 0,6.859 c 0,0.907 0.044,1.073 -0.763,1.203 -0.115,0.018 -0.287,0.067 -0.287,0.249 0,0.313 0.417,0.346 0.619,0.378 0.662,0.1 1.266,0.331 1.899,0.595 0.144,0.065 0.374,0.182 0.533,0.182 0.316,0 0.243,-0.562 0.243,-0.792 l 0,-3.958 c 0,-0.082 0.016,-0.165 0.088,-0.165 0.201,0 1.094,0.988 2.346,0.988 0.662,0 1.425,-0.28 1.885,-0.84 C 0,4.106 0,3.266 0,2.523 L 0,0 z"
             style="fill:#000000;fill-opacity:1;fill-rule:nonzero;stroke:none"
             id="path16596"
             inkscape:connector-curvature="0" /></g><g
           id="g16598"
           transform="translate(1677.8373,59.7977)"
           style="fill:#000000"><path
             d="m 0,0 c 0,-0.61 -0.058,-2.226 0.705,-2.226 0.475,0 0.792,0.48 1.007,0.48 0.101,0 0.173,-0.099 0.173,-0.232 0,-0.214 -0.288,-0.544 -0.403,-0.674 -0.488,-0.53 -1.208,-0.844 -1.87,-0.844 -0.475,0 -1.036,0.249 -1.324,0.694 -0.332,0.511 -0.418,1.222 -0.418,1.83 l 0,3.446 c 0,0.132 -0.014,0.562 -0.042,0.694 -0.03,0.165 -0.203,0.214 -0.347,0.214 -0.187,0 -0.647,-0.084 -0.647,0.182 0,0.245 0.302,0.379 0.46,0.444 0.778,0.362 1.497,0.956 1.914,1.797 0.102,0.214 0.245,0.545 0.489,0.545 0.303,0 0.245,-0.379 0.245,-0.612 l 0,-1.137 c 0,-0.462 0.086,-0.444 0.461,-0.444 l 0.749,0 c 0.301,0 0.517,0.082 0.517,-0.331 0,-0.46 -0.1,-0.444 -0.489,-0.444 l -0.705,0 C 0,3.382 0,3.398 0,2.737 L 0,0 z"
             style="fill:#000000;fill-opacity:1;fill-rule:nonzero;stroke:none"
             id="path16600"
             inkscape:connector-curvature="0" /></g><g
           id="g16602"
           transform="translate(1685.494,59.9636)"
           style="fill:#000000"><path
             d="m 0,0 c 0,0.759 -0.144,1.731 -0.446,2.408 -0.259,0.594 -0.762,1.235 -1.396,1.235 -1.238,0 -1.612,-1.828 -1.612,-2.935 0,-1.22 0.46,-3.808 1.9,-3.808 C -0.288,-3.1 0,-1.088 0,0 m -5.772,0.263 c 0,2.408 2.088,3.941 4.074,3.941 0.964,0 1.914,-0.297 2.677,-0.955 0.791,-0.677 1.323,-1.731 1.323,-2.853 0,-2.49 -2.028,-4.058 -4.115,-4.058 -2.073,0 -3.959,1.453 -3.959,3.925"
             style="fill:#000000;fill-opacity:1;fill-rule:nonzero;stroke:none"
             id="path16604"
             inkscape:connector-curvature="0" /></g><g
           id="g16606"
           transform="translate(1691.6528,63.0476)"
           style="fill:#000000"><path
             d="m 0,0 c 0.23,0 0.95,1.12 2.361,1.12 0.649,0 1.295,-0.197 1.812,-0.676 0.606,-0.56 0.592,-1.252 0.592,-2.06 l 0,-2.755 c 0,-0.395 -0.059,-1.005 0.144,-1.317 0.144,-0.214 0.46,-0.233 0.676,-0.281 0.159,-0.033 0.346,-0.132 0.346,-0.364 0,-0.281 -0.261,-0.298 -0.447,-0.298 -0.519,0 -1.007,0.035 -1.526,0.035 -0.662,0 -1.324,-0.035 -1.986,-0.035 -0.158,0 -0.331,0.051 -0.331,0.298 0,0.215 0.129,0.314 0.288,0.364 0.216,0.067 0.46,0.115 0.604,0.363 0.144,0.245 0.101,0.922 0.101,1.235 l 0,2.425 c 0,0.43 -0.043,1.055 -0.245,1.434 -0.201,0.38 -0.59,0.595 -0.978,0.595 -0.374,0 -0.791,-0.199 -1.08,-0.478 C -0.057,-0.776 0,-1.122 0,-1.682 l 0,-2.689 c 0,-0.313 -0.042,-0.99 0.101,-1.235 0.144,-0.248 0.389,-0.296 0.605,-0.363 0.158,-0.05 0.287,-0.149 0.287,-0.364 0,-0.247 -0.173,-0.298 -0.331,-0.298 -0.662,0 -1.324,0.035 -1.986,0.035 -0.518,0 -1.007,-0.035 -1.525,-0.035 -0.187,0 -0.446,0.017 -0.446,0.298 0,0.232 0.187,0.331 0.345,0.364 0.216,0.048 0.532,0.067 0.677,0.281 0.201,0.312 0.143,0.922 0.143,1.317 l 0,2.425 c 0,0.694 0.044,1.072 -0.633,1.17 -0.201,0.019 -0.432,0 -0.432,0.281 0,0.298 0.461,0.346 0.619,0.396 0.619,0.182 1.411,0.578 1.857,1.121 0.086,0.115 0.217,0.296 0.517,0.296 C 0.029,1.318 0,0.89 0,0.724 L 0,0 z"
             style="fill:#000000;fill-opacity:1;fill-rule:nonzero;stroke:none"
             id="path16608"
             inkscape:connector-curvature="0" /></g><g
           id="g16610"
           transform="translate(1707.2108,63.5914)"
           style="fill:#000000"><path
             d="m 0,0 c 0.286,0.312 0.374,0.709 0.374,1.137 0,0.743 -0.431,1.683 -1.151,1.683 -0.489,0 -0.806,-0.396 -0.806,-0.956 0,-0.694 0.546,-1.403 0.936,-1.929 0.043,-0.052 0.128,-0.199 0.2,-0.199 0.145,0 0.36,0.165 0.447,0.264 m -2.216,-2.077 c -0.044,0.065 -0.074,0.115 -0.145,0.115 -0.115,0 -0.403,-0.297 -0.489,-0.396 -0.272,-0.296 -0.431,-0.775 -0.431,-1.221 0,-1.236 0.876,-2.307 1.97,-2.307 0.433,0 0.765,0.149 1.124,0.413 0.071,0.065 0.288,0.23 0.288,0.361 0,0.083 -0.158,0.247 -0.188,0.297 l -2.129,2.738 z M 3.368,-5.49 C 3.771,-6.035 4.001,-6.381 4.619,-6.496 4.821,-6.529 5.08,-6.563 5.08,-6.86 c 0,-0.33 -0.318,-0.346 -0.533,-0.346 -0.502,0 -1.035,0.1 -1.554,0.1 -0.316,0 -0.634,-0.018 -0.964,-0.034 -0.389,-0.018 -0.46,0.116 -0.69,0.445 l -0.505,0.693 c -0.03,0.049 -0.23,0.347 -0.302,0.347 -0.057,0 -0.115,-0.082 -0.158,-0.116 -0.935,-1.023 -1.669,-1.616 -3.008,-1.616 -1.482,0 -2.879,1.021 -2.879,2.851 0,1.716 1.281,2.408 2.489,2.937 0.088,0.032 0.289,0.115 0.289,0.23 0,0.216 -0.978,1.222 -0.978,2.423 0,0.776 0.373,1.37 0.935,1.783 0.59,0.429 1.396,0.56 2.073,0.56 1.136,0 2.965,-0.28 2.965,-2.013 C 2.26,0.675 1.957,0.248 1.424,-0.117 1.064,-0.362 0.532,-0.593 0.115,-0.693 0.057,-0.708 -0.057,-0.758 -0.057,-0.84 c 0,-0.067 0.186,-0.297 0.214,-0.331 l 1.412,-1.847 c 0.043,-0.049 0.113,-0.149 0.172,-0.149 0.13,0 0.662,0.941 0.662,1.238 0,0.296 -0.36,0.33 -0.546,0.362 -0.189,0.033 -0.49,0.018 -0.49,0.331 0,0.345 0.36,0.312 0.576,0.312 l 2.561,0 c 0.173,0 0.417,-0.033 0.417,-0.296 0,-0.297 -0.258,-0.329 -0.459,-0.347 C 4.001,-1.649 3.856,-1.682 3.483,-2.029 3.308,-2.194 2.202,-3.545 2.202,-3.794 c 0,-0.132 0.187,-0.346 0.245,-0.428 L 3.368,-5.49 z"
             style="fill:#000000;fill-opacity:1;fill-rule:nonzero;stroke:none"
             id="path16612"
             inkscape:connector-curvature="0" /></g><g
           id="g16614"
           transform="translate(1723.1125,62.2718)"
           style="fill:#000000"><path
             d="m 0,0 c 0.49,0 0.475,-0.016 0.475,0.596 l 0,1.596 c 0,1.007 0.087,1.435 -0.835,1.618 -0.172,0.033 -0.46,0.049 -0.46,0.33 0,0.264 0.143,0.313 0.345,0.313 0.749,0 1.469,-0.067 2.217,-0.067 0.691,0 1.382,0.067 2.058,0.067 0.201,0 0.36,-0.049 0.36,-0.313 C 4.16,3.876 3.93,3.843 3.757,3.81 2.778,3.627 2.851,3.298 2.851,2.192 l 0,-5.852 c 0,-0.973 -0.059,-1.367 0.848,-1.534 0.187,-0.032 0.461,-0.082 0.461,-0.38 0,-0.247 -0.159,-0.312 -0.345,-0.312 -0.749,0 -1.468,0.065 -2.216,0.065 -0.691,0 -1.383,-0.065 -2.074,-0.065 -0.202,0 -0.345,0.065 -0.345,0.312 0,0.265 0.217,0.348 0.388,0.38 0.95,0.182 0.907,0.463 0.907,1.534 l 0,2.522 C 0.46,-0.692 0.432,-0.74 0.044,-0.74 l -2.562,0 c -0.603,0 -0.562,0.065 -0.562,-0.61 l 0,-2.31 c 0,-0.973 -0.056,-1.367 0.85,-1.534 0.188,-0.032 0.46,-0.082 0.46,-0.38 0,-0.247 -0.158,-0.312 -0.345,-0.312 -0.748,0 -1.467,0.065 -2.216,0.065 -0.691,0 -1.383,-0.065 -2.073,-0.065 -0.201,0 -0.346,0.065 -0.346,0.312 0,0.265 0.217,0.348 0.389,0.38 0.95,0.182 0.908,0.463 0.908,1.534 l 0,5.852 c 0,1.007 0.085,1.435 -0.836,1.618 -0.173,0.033 -0.461,0.049 -0.461,0.33 0,0.264 0.145,0.313 0.346,0.313 0.748,0 1.47,-0.067 2.216,-0.067 0.691,0 1.382,0.067 2.059,0.067 0.201,0 0.359,-0.049 0.359,-0.313 C -1.77,3.876 -2,3.843 -2.173,3.81 -3.15,3.627 -3.08,3.298 -3.08,2.192 l 0,-1.596 C -3.08,0 -3.066,0 -2.562,0 L 0,0 z"
             style="fill:#000000;fill-opacity:1;fill-rule:nonzero;stroke:none"
             id="path16616"
             inkscape:connector-curvature="0" /></g><g
           id="g16618"
           transform="translate(1733.4183,59.9636)"
           style="fill:#000000"><path
             d="m 0,0 c 0,0.759 -0.144,1.731 -0.447,2.408 -0.259,0.594 -0.762,1.235 -1.396,1.235 -1.237,0 -1.612,-1.828 -1.612,-2.935 0,-1.22 0.461,-3.808 1.9,-3.808 C -0.289,-3.1 0,-1.088 0,0 m -5.773,0.263 c 0,2.408 2.088,3.941 4.074,3.941 0.964,0 1.913,-0.297 2.677,-0.955 0.791,-0.677 1.326,-1.731 1.326,-2.853 0,-2.49 -2.032,-4.058 -4.118,-4.058 -2.074,0 -3.959,1.453 -3.959,3.925"
             style="fill:#000000;fill-opacity:1;fill-rule:nonzero;stroke:none"
             id="path16620"
             inkscape:connector-curvature="0" /></g><g
           id="g16622"
           transform="translate(1741.564,61.6122)"
           style="fill:#000000"><path
             d="m 0,0 c 0.129,0.331 0.315,0.808 0.315,1.156 0,0.427 -0.345,0.527 -0.647,0.577 -0.186,0.032 -0.475,0 -0.475,0.313 0,0.229 0.174,0.329 0.359,0.329 0.432,0 0.851,-0.033 1.281,-0.033 0.42,0 0.849,0.033 1.267,0.033 0.186,0 0.404,-0.033 0.404,-0.296 C 2.504,1.863 2.331,1.765 2.173,1.733 1.596,1.617 1.481,1.683 1.193,0.99 l -2.361,-5.639 c -0.186,-0.447 -0.23,-0.661 -0.689,-0.661 -0.417,0 -0.431,0.232 -0.591,0.627 l -2.144,5.228 c -0.087,0.181 -0.288,0.726 -0.417,0.89 -0.144,0.198 -0.303,0.248 -0.506,0.298 -0.199,0.049 -0.457,0.016 -0.457,0.313 0,0.312 0.272,0.329 0.488,0.329 0.545,0 1.123,-0.033 1.699,-0.033 0.633,0 1.267,0.033 1.885,0.033 0.186,0 0.46,0 0.46,-0.296 0,-0.314 -0.316,-0.33 -0.518,-0.346 -0.201,-0.018 -0.461,-0.1 -0.461,-0.38 0,-0.164 0.115,-0.447 0.173,-0.594 l 0.993,-2.639 c 0.028,-0.082 0.159,-0.479 0.274,-0.479 0.087,0 0.2,0.363 0.214,0.43 L 0,0 z"
             style="fill:#000000;fill-opacity:1;fill-rule:nonzero;stroke:none"
             id="path16624"
             inkscape:connector-curvature="0" /></g><g
           id="g16626"
           transform="translate(1748.3411,61.7443)"
           style="fill:#000000"><path
             d="m 0,0 c 0.389,0.099 0.532,0.413 0.532,0.825 0,0.61 -0.387,1.038 -0.935,1.038 -0.431,0 -0.892,-0.23 -1.179,-0.594 -0.189,-0.262 -0.403,-0.757 -0.403,-1.104 0,-0.297 0.258,-0.264 0.474,-0.264 0.388,0 1.152,0 1.511,0.099 m -1.626,-0.708 c -0.359,0 -0.502,0.048 -0.502,-0.413 0,-1.6 0.933,-3.182 2.488,-3.182 1.094,0 1.553,0.857 1.9,0.857 0.115,0 0.217,-0.099 0.217,-0.247 0,-0.33 -0.534,-0.776 -0.75,-0.925 -0.704,-0.542 -1.526,-0.824 -2.388,-0.824 -2.029,0 -3.771,1.699 -3.771,4.04 0,2.358 1.942,3.825 3.914,3.825 0.747,0 1.569,-0.246 2.174,-0.773 0.489,-0.413 0.892,-1.023 0.892,-1.732 0,-0.61 -0.317,-0.626 -0.806,-0.626 l -3.368,0 z"
             style="fill:#000000;fill-opacity:1;fill-rule:nonzero;stroke:none"
             id="path16628"
             inkscape:connector-curvature="0" /></g><g
           id="g16630"
           transform="translate(1661.87,43.0259)"
           style="fill:#000000"><path
             d="m 0,0 c -0.027,-0.543 -0.013,-0.759 -0.46,-1.055 -0.806,-0.56 -1.828,-0.758 -2.763,-0.758 -1.267,0 -2.75,0.329 -3.785,1.22 -1.094,0.939 -1.828,2.505 -1.828,4.089 0,1.632 0.72,3.118 1.856,4.09 1.123,0.941 2.663,1.385 4.045,1.385 0.676,0 1.496,-0.131 2.158,-0.347 0.389,-0.131 0.389,-0.197 0.461,-0.658 l 0.115,-0.842 c 0.029,-0.166 0.058,-0.313 0.058,-0.477 0,-0.182 -0.116,-0.281 -0.274,-0.281 -0.662,0 -0.705,1.962 -2.648,1.962 -0.95,0 -1.827,-0.61 -2.375,-1.484 -0.561,-0.905 -0.79,-2.111 -0.79,-3.2 0,-1.072 0.215,-2.258 0.719,-3.165 0.546,-0.972 1.411,-1.651 2.446,-1.651 0.561,0 1.079,0.233 1.512,0.629 0.431,0.411 0.69,0.956 0.949,1.517 0.072,0.181 0.173,0.346 0.36,0.346 0.317,0 0.302,-0.38 0.288,-0.627 L 0,0 z"
             style="fill:#000000;fill-opacity:1;fill-rule:nonzero;stroke:none"
             id="path16632"
             inkscape:connector-curvature="0" /></g><g
           id="g16634"
           transform="translate(1663.3956,51.2049)"
           style="fill:#000000"><path
             d="m 0,0 c 0,0.792 0.648,1.269 1.28,1.269 0.649,0 1.267,-0.443 1.267,-1.252 0,-0.841 -0.604,-1.352 -1.295,-1.352 C 0.561,-1.335 0,-0.824 0,0 m 2.36,-7.519 c 0,-0.379 -0.043,-0.973 0.058,-1.32 0.072,-0.247 0.518,-0.231 0.777,-0.279 0.159,-0.035 0.346,-0.133 0.346,-0.348 0,-0.281 -0.259,-0.312 -0.447,-0.312 -0.604,0 -1.209,0.031 -1.814,0.031 -0.604,0 -1.179,-0.031 -1.783,-0.031 -0.188,0 -0.432,0.031 -0.432,0.312 0,0.215 0.172,0.313 0.345,0.348 0.201,0.032 0.648,0.048 0.72,0.279 0.1,0.347 0.1,0.941 0.1,1.32 l 0,2.424 c 0,0.692 0.044,1.072 -0.633,1.17 -0.201,0.018 -0.432,0 -0.432,0.28 0,0.298 0.461,0.347 0.62,0.397 0.618,0.182 1.41,0.577 1.856,1.121 0.086,0.115 0.215,0.298 0.518,0.298 0.23,0 0.201,-0.43 0.201,-0.595 l 0,-5.095 z"
             style="fill:#000000;fill-opacity:1;fill-rule:nonzero;stroke:none"
             id="path16636"
             inkscape:connector-curvature="0" /></g><g
           id="g16638"
           transform="translate(1669.8859,44.8078)"
           style="fill:#000000"><path
             d="m 0,0 c 0,-0.61 -0.058,-2.225 0.705,-2.225 0.476,0 0.792,0.477 1.008,0.477 0.101,0 0.173,-0.099 0.173,-0.233 0,-0.213 -0.287,-0.541 -0.403,-0.675 -0.489,-0.527 -1.209,-0.84 -1.871,-0.84 -0.475,0 -1.037,0.246 -1.324,0.693 -0.331,0.511 -0.417,1.219 -0.417,1.83 l 0,3.446 c 0,0.132 -0.015,0.562 -0.044,0.692 -0.028,0.166 -0.202,0.216 -0.346,0.216 -0.186,0 -0.646,-0.084 -0.646,0.182 0,0.246 0.301,0.378 0.46,0.445 0.778,0.362 1.497,0.955 1.914,1.796 0.1,0.214 0.244,0.545 0.49,0.545 0.301,0 0.243,-0.38 0.243,-0.611 l 0,-1.137 c 0,-0.463 0.087,-0.444 0.461,-0.444 l 0.749,0 c 0.302,0 0.518,0.081 0.518,-0.333 0,-0.46 -0.101,-0.443 -0.489,-0.443 l -0.706,0 C 0,3.381 0,3.396 0,2.737 L 0,0 z"
             style="fill:#000000;fill-opacity:1;fill-rule:nonzero;stroke:none"
             id="path16640"
             inkscape:connector-curvature="0" /></g><g
           id="g16642"
           transform="translate(1677.6869,47.1816)"
           style="fill:#000000"><path
             d="m 0,0 c 0.072,0.198 0.172,0.43 0.172,0.661 0,0.377 -0.373,0.494 -0.647,0.511 -0.216,0.017 -0.547,0.032 -0.547,0.378 0,0.264 0.288,0.264 0.46,0.264 0.418,0 0.821,-0.031 1.238,-0.031 0.417,0 0.821,0.031 1.238,0.031 0.187,0 0.374,0 0.374,-0.264 C 2.288,1.27 2.086,1.204 1.885,1.172 1.525,1.106 1.41,1.137 1.166,0.791 0.92,0.462 0.647,-0.246 0.489,-0.643 L -1.684,-5.92 -2.461,-8.064 c -0.288,-0.974 -0.231,-1.221 -1.18,-1.221 -0.634,0 -1.266,0.05 -1.266,0.925 0,0.265 0.056,0.593 0.186,0.808 0.217,0.33 0.548,0.28 0.849,0.263 0.432,-0.016 0.778,-0.115 1.079,0.297 0.13,0.18 0.302,0.544 0.302,0.791 0,0.264 -0.172,0.659 -0.273,0.908 l -2.129,4.931 C -5.067,0 -5.297,0.545 -5.527,0.859 c -0.186,0.263 -0.316,0.263 -0.59,0.313 -0.173,0.032 -0.417,0.082 -0.417,0.362 0,0.28 0.273,0.28 0.489,0.28 0.633,0 1.295,-0.031 1.928,-0.031 0.548,0 1.123,0.031 1.685,0.031 0.187,0 0.517,0 0.517,-0.28 0,-0.247 -0.201,-0.313 -0.374,-0.362 -0.187,-0.05 -0.561,-0.066 -0.561,-0.397 0,-0.198 0.158,-0.56 0.23,-0.726 l 1.066,-2.538 c 0.043,-0.082 0.186,-0.512 0.301,-0.512 0.145,0 0.274,0.413 0.302,0.528 L 0,0 z"
             style="fill:#000000;fill-opacity:1;fill-rule:nonzero;stroke:none"
             id="path16644"
             inkscape:connector-curvature="0" /></g><g
           id="g16646"
           transform="translate(1692.5961,43.0259)"
           style="fill:#000000"><path
             d="m 0,0 c -0.029,-0.543 -0.014,-0.759 -0.461,-1.055 -0.806,-0.56 -1.828,-0.758 -2.763,-0.758 -1.266,0 -2.748,0.329 -3.785,1.22 -1.094,0.939 -1.828,2.505 -1.828,4.089 0,1.632 0.72,3.118 1.857,4.09 1.123,0.941 2.663,1.385 4.044,1.385 0.676,0 1.497,-0.131 2.159,-0.347 0.389,-0.131 0.389,-0.197 0.461,-0.658 l 0.114,-0.842 c 0.029,-0.166 0.058,-0.313 0.058,-0.477 0,-0.182 -0.115,-0.281 -0.273,-0.281 -0.662,0 -0.706,1.962 -2.649,1.962 -0.949,0 -1.827,-0.61 -2.374,-1.484 -0.561,-0.905 -0.792,-2.111 -0.792,-3.2 0,-1.072 0.216,-2.258 0.72,-3.165 0.547,-0.972 1.411,-1.651 2.446,-1.651 0.562,0 1.08,0.233 1.512,0.629 0.431,0.411 0.69,0.956 0.949,1.517 0.073,0.181 0.174,0.346 0.36,0.346 0.317,0 0.303,-0.38 0.289,-0.627 L 0,0 z"
             style="fill:#000000;fill-opacity:1;fill-rule:nonzero;stroke:none"
             id="path16648"
             inkscape:connector-curvature="0" /></g><g
           id="g16650"
           transform="translate(1698.9144,44.9725)"
           style="fill:#000000"><path
             d="M 0,0 C 0,0.757 -0.145,1.731 -0.447,2.407 -0.705,3 -1.209,3.644 -1.843,3.644 c -1.239,0 -1.611,-1.831 -1.611,-2.936 0,-1.219 0.461,-3.808 1.899,-3.808 C -0.288,-3.1 0,-1.088 0,0 m -5.772,0.262 c 0,2.409 2.088,3.943 4.074,3.943 0.963,0 1.913,-0.298 2.675,-0.958 0.792,-0.675 1.324,-1.73 1.324,-2.852 0,-2.489 -2.029,-4.055 -4.114,-4.055 -2.074,0 -3.959,1.45 -3.959,3.922"
             style="fill:#000000;fill-opacity:1;fill-rule:nonzero;stroke:none"
             id="path16652"
             inkscape:connector-curvature="0" /></g><g
           id="g16654"
           transform="translate(1709.1602,43.1735)"
           style="fill:#000000"><path
             d="m 0,0 c -0.014,-0.427 0.245,-0.526 0.648,-0.576 0.143,-0.015 0.273,-0.065 0.273,-0.264 0,-0.281 -0.489,-0.363 -0.663,-0.396 l -1.495,-0.495 c -0.145,-0.05 -0.447,-0.198 -0.605,-0.198 -0.258,0 -0.173,0.43 -0.173,0.61 0,0.099 0.058,0.596 -0.129,0.596 -0.086,0 -0.215,-0.117 -0.272,-0.165 -0.648,-0.546 -1.297,-0.973 -2.116,-0.973 -0.577,0 -1.253,0.264 -1.626,0.79 -0.403,0.577 -0.462,1.336 -0.462,2.044 l 0,2.639 c 0,0.297 0.029,0.958 -0.129,1.236 -0.159,0.282 -0.447,0.298 -0.719,0.364 -0.16,0.033 -0.332,0.115 -0.332,0.346 0,0.281 0.244,0.264 0.431,0.264 0.447,0 0.88,-0.031 1.326,-0.031 0.445,0 0.876,0.031 1.323,0.031 0.188,0 0.23,-0.031 0.23,-0.264 l 0,-4.434 c 0,-0.38 0.043,-0.959 0.217,-1.287 0.171,-0.331 0.518,-0.512 0.848,-0.512 0.374,0 0.82,0.264 1.08,0.562 0.26,0.296 0.217,0.608 0.217,1.005 l 0,2.704 c 0,0.313 0.043,0.974 -0.116,1.252 -0.158,0.267 -0.447,0.315 -0.72,0.364 -0.159,0.033 -0.33,0.115 -0.33,0.331 0,0.296 0.243,0.279 0.43,0.279 0.448,0 0.893,-0.031 1.34,-0.031 0.444,0 0.891,0.031 1.338,0.031 C 0.072,5.822 0,5.493 0,5.262 L 0,0 z"
             style="fill:#000000;fill-opacity:1;fill-rule:nonzero;stroke:none"
             id="path16656"
             inkscape:connector-curvature="0" /></g><g
           id="g16658"
           transform="translate(1713.6362,48.0557)"
           style="fill:#000000"><path
             d="m 0,0 c 0.231,0 0.95,1.122 2.361,1.122 0.647,0 1.293,-0.199 1.812,-0.677 0.605,-0.56 0.591,-1.254 0.591,-2.061 l 0,-2.754 c 0,-0.396 -0.057,-1.006 0.143,-1.319 0.145,-0.215 0.461,-0.232 0.676,-0.28 0.16,-0.034 0.347,-0.133 0.347,-0.363 0,-0.281 -0.258,-0.297 -0.448,-0.297 -0.517,0 -1.006,0.031 -1.524,0.031 -0.663,0 -1.324,-0.031 -1.985,-0.031 -0.159,0 -0.333,0.05 -0.333,0.297 0,0.214 0.129,0.313 0.288,0.363 0.217,0.065 0.461,0.115 0.605,0.364 0.143,0.244 0.101,0.921 0.101,1.235 l 0,2.424 c 0,0.429 -0.044,1.055 -0.245,1.435 C 2.187,-0.133 1.799,0.083 1.41,0.083 1.037,0.083 0.618,-0.115 0.332,-0.396 -0.057,-0.775 0,-1.12 0,-1.682 L 0,-4.37 c 0,-0.314 -0.041,-0.991 0.101,-1.235 0.144,-0.249 0.388,-0.299 0.604,-0.364 0.16,-0.05 0.288,-0.149 0.288,-0.363 0,-0.247 -0.173,-0.297 -0.331,-0.297 -0.662,0 -1.324,0.031 -1.986,0.031 -0.518,0 -1.007,-0.031 -1.525,-0.031 -0.187,0 -0.447,0.016 -0.447,0.297 0,0.23 0.188,0.329 0.346,0.363 0.216,0.048 0.532,0.065 0.677,0.28 0.2,0.313 0.143,0.923 0.143,1.319 l 0,2.424 c 0,0.692 0.043,1.072 -0.634,1.171 -0.201,0.018 -0.43,0 -0.43,0.279 0,0.299 0.46,0.348 0.618,0.397 0.619,0.182 1.411,0.577 1.857,1.121 C -0.633,1.137 -0.504,1.32 -0.2,1.32 0.028,1.32 0,0.89 0,0.726 L 0,0 z"
             style="fill:#000000;fill-opacity:1;fill-rule:nonzero;stroke:none"
             id="path16660"
             inkscape:connector-curvature="0" /></g><g
           id="g16662"
           transform="translate(1723.6958,48.5669)"
           style="fill:#000000"><path
             d="M 0,0 C -0.431,0 -0.891,-0.378 -1.152,-0.724 -1.568,-1.269 -1.77,-2.061 -1.77,-2.77 c 0,-1.681 1.022,-3.364 2.634,-3.364 1.05,0 1.366,0.61 1.64,0.61 0.099,0 0.173,-0.116 0.173,-0.197 0,-0.38 -0.417,-0.677 -0.647,-0.859 -0.664,-0.462 -1.44,-0.675 -2.203,-0.675 -2.116,0 -3.843,1.5 -3.843,3.957 0,2.524 2.376,3.909 4.377,3.909 0.56,0 1.264,-0.132 1.754,-0.446 C 2.418,0 2.534,-0.164 2.534,-0.527 c 0,-0.396 -0.131,-1.501 -0.606,-1.501 -0.459,0 -0.677,0.56 -0.863,0.923 C 0.806,-0.61 0.59,0 0,0"
             style="fill:#000000;fill-opacity:1;fill-rule:nonzero;stroke:none"
             id="path16664"
             inkscape:connector-curvature="0" /></g><g
           id="g16666"
           transform="translate(1727.7974,51.2049)"
           style="fill:#000000"><path
             d="m 0,0 c 0,0.792 0.646,1.269 1.281,1.269 0.648,0 1.267,-0.443 1.267,-1.252 0,-0.841 -0.605,-1.352 -1.296,-1.352 C 0.561,-1.335 0,-0.824 0,0 m 2.36,-7.519 c 0,-0.379 -0.042,-0.973 0.057,-1.32 0.074,-0.247 0.519,-0.231 0.777,-0.279 0.16,-0.035 0.346,-0.133 0.346,-0.348 0,-0.281 -0.259,-0.312 -0.446,-0.312 -0.603,0 -1.209,0.031 -1.813,0.031 -0.606,0 -1.18,-0.031 -1.785,-0.031 -0.187,0 -0.431,0.031 -0.431,0.312 0,0.215 0.173,0.313 0.344,0.348 0.202,0.032 0.649,0.048 0.72,0.279 0.102,0.347 0.102,0.941 0.102,1.32 l 0,2.424 c 0,0.692 0.042,1.072 -0.634,1.17 -0.202,0.018 -0.432,0 -0.432,0.28 0,0.298 0.461,0.347 0.619,0.397 0.619,0.182 1.41,0.577 1.856,1.121 0.088,0.115 0.217,0.298 0.519,0.298 0.23,0 0.201,-0.43 0.201,-0.595 l 0,-5.095 z"
             style="fill:#000000;fill-opacity:1;fill-rule:nonzero;stroke:none"
             id="path16668"
             inkscape:connector-curvature="0" /></g><g
           id="g16670"
           transform="translate(1734.7646,42.8115)"
           style="fill:#000000"><path
             d="m 0,0 c 0,-0.049 0,-0.61 0.79,-0.725 0.188,-0.034 0.461,-0.081 0.461,-0.38 0,-0.248 -0.145,-0.279 -0.332,-0.279 -0.691,0 -1.353,0.031 -2.013,0.031 -0.693,0 -1.384,-0.031 -2.074,-0.031 -0.2,0 -0.345,0.031 -0.345,0.279 0,0.299 0.215,0.346 0.389,0.38 0.878,0.115 0.878,0.676 0.878,0.725 l 0,7.686 c 0,0.906 0.042,1.072 -0.764,1.202 -0.114,0.017 -0.288,0.067 -0.288,0.247 0,0.315 0.418,0.346 0.619,0.38 0.663,0.1 1.265,0.329 1.9,0.595 0.144,0.065 0.374,0.181 0.533,0.181 C 0.07,10.291 0,9.73 0,9.499 L 0,0 z"
             style="fill:#000000;fill-opacity:1;fill-rule:nonzero;stroke:none"
             id="path16672"
             inkscape:connector-curvature="0" /></g></g></g></g></svg>