<svg version="1.2" baseProfile="tiny-ps" xmlns="http://www.w3.org/2000/svg" viewBox="0 0 621 733" width="621" height="733">
	<title>California_Presidential_Election_Results_2020-svg</title>
	<style>
		tspan { white-space:pre }
		.shp0 { fill: #e27f90;stroke: #ffffff;stroke-width: 1.138 } 
		.shp1 { fill: #4389e3;stroke: #ffffff;stroke-width: 1.138 } 
		.shp2 { fill: #86b6f2;stroke: #ffffff;stroke-width: 1.138 } 
		.shp3 { fill: #e27f90;stroke: #ffffff } 
		.shp4 { fill: #b9d7ff;stroke: #ffffff;stroke-width: 1.138 } 
		.shp5 { fill: #cc2f4a;stroke: #ffffff } 
		.shp6 { fill: #1666cb;stroke: #ffffff;stroke-width: 1.138 } 
	</style>
	<g id="_x30_95_Solano">
	</g>
	<path id="Del_Norte_x2C__CA" class="shp0" d="M26.02 13.88L47.27 15.26L63.92 15.46L62.97 18.35L61.25 22.09L57.57 23.33L53.72 29.26L54.3 49.04L55.32 50.45L57.1 54.99L57.02 56.01L55.05 60.14L54.03 61.39L51.07 61.45L48.18 59.18L48.51 55.11L32.02 54.21L31.71 47.65L31.02 43.51L29.01 35.38L28.86 34.75L28.62 33.81L28.08 32.95L26.39 20.75L26.02 13.88Z" />
	<path id="Siskiyou_x2C__CA" class="shp1" d="M63.92 15.46L62.97 18.35L61.25 22.09L57.57 23.33L53.72 29.26L54.3 49.04L55.31 50.45L57.1 54.99L57.02 56L55.05 60.14L54.03 61.39L62.78 61.87L64.11 63.21L67.43 76.66L70.48 78.23L73.6 80.12L79.14 85.05L88.19 90.78L92.8 91.97L93.82 92.05L94.83 90.8L95.15 89.4L93.67 86.11L99.48 76.04L109.66 68.87L116.93 71.39L117.22 79.29L117.23 79.29L129.56 79.55L145.66 80.22L175.99 80.69L175.99 80.69L176.43 62.32L176.34 36.45L175.94 36.22L175.87 35.9L176.13 24.89L176.29 22.85L176.85 19.73L130.82 17.5L127.77 17.26L126.05 17.02L119.41 17L112.14 17.14L93.38 16.47L92.05 16.46L89.71 16.38L83.61 15.9L79.63 15.89L63.92 15.46Z" />
	<path id="Imperial_x2C__CA" class="shp2" d="M491.46 658.28L529.6 656.81L560.79 655.4L568.92 654.72L581.43 654.28L575.87 657.32L577.85 680.06L577.85 680.06L579.95 683.2L583.23 684.38L584.24 684.46L589.8 684.08L590.19 684.32L590.58 684.55L593.46 688.16L594 693.01L593.84 695.04L593.84 695.04L592.26 699.41L585.14 706.82L578.72 707.74L578.4 707.81L532.67 713.49L531.73 713.72L526.58 714.33L507.26 716.78L498.9 717.86L491.38 718.38L491.25 705.8L491.94 684.39L491.8 675.79L491.46 658.28Z" />
	<path id="Riverside_x2C__CA" class="shp3" d="M590.77 604.84L548.72 606.61L537.23 607.13L537.38 610.41L506.42 611.43L461.95 612.81L446.63 613.93L439.04 615.48L420.91 615.98L412.39 615.1L411.46 614L409.11 613.92L400.2 614.13L394.24 622.25L392.9 627.55L401.78 639.3L405.54 639.7L409.35 643.06L403.39 652.5L403.54 654.46L411.38 654.28L412.45 654.26L420.1 658.34L420.1 659.67L444.95 659.5L458.47 659.13L477.94 658.64L491.46 658.28L529.6 656.81L560.79 655.4L568.92 654.72L581.43 654.28L586.38 643.43L586.55 634.75L586.03 625.92L585.8 623.66L585.97 617.63L586.84 614.44L590.77 604.84Z" />
	<path id="San_Diego_x2C__CA" class="shp2" d="M412.45 654.26L411.38 654.28L403.54 654.46L397.89 663.83L399.37 664.46L400.93 665.4L403.5 667.74L405.45 670.25L405.84 670.48L407.32 672.45L412.46 679.81L412.54 680.12L414.64 683.25L415.5 685.37L417.67 691.47L418.06 693.03L418.99 696.78L419.14 697.41L422.3 715.55L428.05 726.73L428.37 726.66L444.78 724.59L461.83 722.37L473.71 720.76L485.6 719.15L491.38 718.38L491.26 705.8L491.94 684.39L491.8 675.79L491.46 658.28L477.94 658.64L458.47 659.13L444.95 659.5L420.1 659.67L420.1 658.34L412.45 654.26L412.45 654.26Z" />
	<path id="Orange_x2C__CA" class="shp0" d="M386.19 621.9L392.9 627.55L401.78 639.3L405.53 639.69L409.35 643.06L403.39 652.5L403.54 654.46L397.89 663.83L397.24 661.71L396.33 660.22L395.47 659.44L381.12 648.38L369.65 639.6L367.16 637.57L368.03 634.37L370.15 629.52L375.09 622.66L377.98 622.28L378.61 622.12L386.19 621.9Z" />
	<path id="Los_Angeles_x2C__CA" class="shp2" d="M392.24 556.2L318.75 557.25L319.6 559.36L333.49 596.76L333.8 599.34L331.76 605.83L324.49 605.97L315.25 612.91L315.09 614.95L326.65 617.39L329.07 616.45L333.61 615.99L339.55 615.85L341.27 616.09L342.44 616.79L342.75 616.72L342.83 617.03L343.61 617.5L344.54 618.6L344.62 618.91L346.1 620.87L347.27 622.9L348.04 624.7L348.27 625.63L348.97 627.12L350.13 630.48L350.29 632.44L350.13 633.14L349.5 633.3L348.48 634.54L348.25 634.93L349.18 637.37L349.96 637.83L354.73 639.64L355.82 640.04L358.24 640.43L362.93 639.27L367.16 637.57L368.03 634.37L370.15 629.52L375.09 622.66L377.98 622.28L378.61 622.12L386.37 622.06L386.19 621.91L385.41 621.44L384.79 620.27L384.63 619.64L385.74 617.37L389.34 614.49L390.37 610.6L392.41 604.11L394.08 594.74L393.85 591.14L393.09 582.69L392.57 572.53L392.24 556.2ZM336.55 657.42L336.24 657.5L336.71 658.05L344.73 669L345.43 669.16L353.48 670.83L354.11 670.67L354.89 669.81L355.05 669.12L354.74 667.86L354.27 667.32L350.06 662.38L347.41 661.04L344.05 659.55L339.92 657.59L336.55 657.42ZM337.79 691.97L340.98 699.48L343.31 703.55L343.78 704.09L347.45 706.85L351.91 706.08L351.21 704.59L339.51 692.21L337.79 691.97Z" />
	<path id="Ventura_x2C__CA" class="shp2" d="M285.08 551.31L288.83 551.7L295.16 553.13L296.25 554.85L297.02 556.66L313.04 559.67L319.6 559.36L333.5 596.77L333.81 599.35L331.76 605.83L324.49 605.97L315.25 612.91L315.09 614.94L305.8 610.94L293.33 598.09L285.53 592.05L283.81 590.48L282.72 590.07L283.97 588.44L284.52 587.97L285.31 584.46L285.08 551.31Z" />
	<path id="Santa_Barbara_x2C__CA" class="shp2" d="M235.52 618.01L246.39 616.32L252.16 619.53L252.78 622.03L252.86 622.35L252.55 622.43L244.33 625.46L243.71 625.61L240.97 623.96L240.51 623.41L235.52 618.01ZM265.77 614.18L268.35 615.2L274.76 615.61L275.07 615.53L275.07 615.53L275.07 615.53L275.38 615.45L275.62 615.06L275.93 614.99L277.5 614.6L279.76 615.7L280.23 616.25L280.23 616.25L280.23 616.25L280.23 616.25L278.74 618.27L278.19 618.74L277.88 618.82L267.94 621.6L265.6 621.52L263.17 621.12L263.17 621.12L262.47 620.96L260.36 620.49L258.49 619.63L258.41 619.32L255.54 613.05L255.7 612.35L256.01 612.28L259.44 612.75L265.77 614.18ZM212.8 544.96L222.1 543.64L225.54 544.12L229.13 546.55L232.73 545L235.94 541.88L246.67 535.58L247.92 536.6L252.14 538.88L279.45 551.37L282.11 551.37L283.36 551.08L285.08 551.31L285.31 584.46L284.52 587.97L283.97 588.44L282.72 590.07L277.72 587.33L274.29 586.85L271.08 587.31L270.14 587.54L270.14 587.54L266.7 588.39L258.97 587.98L255.84 586.1L250.69 584.05L248.97 583.82L244.21 583.34L240.22 583.32L235.61 583.47L230.45 584.08L224.27 584.61L214.36 576.76L213.6 570.98L212.63 550.97L212.8 544.96Z" />
	<path id="San_Luis_Obispo_x2C__CA" class="shp2" d="M171.93 483.03L239.44 484.91L241.4 484.76L241.29 497.73L249.1 498.46L249.48 505.34L254.39 510.43L260.17 510.99L259.84 517.71L264.61 518.19L264.12 524.29L270.76 524.3L272.79 525.79L273.49 531.28L276.22 530.26L279.27 530.51L279.72 537.69L284.17 538.25L283.36 551.08L282.11 551.37L279.45 551.37L252.13 538.88L247.92 536.61L246.67 535.58L235.94 541.89L232.73 545.01L229.13 546.55L225.54 544.12L222.11 543.65L212.8 544.96L213.28 542.85L213.28 542.85L213.75 540.73L213.91 538.7L213.92 537.38L213.92 536.05L213.84 535.74L213.84 535.74L213.45 534.17L213.45 534.17L212.83 533L212.36 532.45L211.58 531.98L209.24 530.56L208.85 530.33L208.15 530.16L199.35 517.4L185.24 501.98L176.59 493.83L175.42 493.12L174.64 492.65L172.92 489.75L171.93 483.03Z" />
	<path id="Kern_x2C__CA" class="shp1" d="M393.5 483.67L370.83 484.62L367.47 484.46L341.36 484.94L308.54 485.09L279.62 484.94L241.4 484.76L241.29 497.73L249.1 498.46L249.48 505.34L254.39 510.43L260.17 510.99L259.84 517.71L264.6 518.19L264.12 524.29L270.76 524.3L272.79 525.79L273.49 531.28L276.22 530.26L279.27 530.51L279.72 537.69L284.17 538.25L283.36 551.08L285.08 551.31L288.83 551.7L295.15 553.13L296.24 554.85L297.02 556.66L313.04 559.67L319.6 559.36L318.75 557.25L392.24 556.2L392.22 555.02L394.26 555.18L393.53 499.92L392.07 491.32L392.16 488.98L393.5 483.67Z" />
	<path id="San_Bernardino_x2C__CA" class="shp2" d="M393.5 483.67L408.74 483.55L506.12 481.36L511.44 480.05L527.9 494.24L533.44 499.18L535.54 500.99L564.71 527.63L575.39 537.26L575.53 545.87L575.76 546.81L575.84 547.12L580.98 554.49L586.59 559.74L587.6 562.47L595.22 577.18L600.06 580.63L604.04 583.3L608.01 587.3L608.47 590.5L608.47 590.5L602.05 596.74L597.58 600.17L590.77 604.84L548.72 606.61L537.23 607.13L537.38 610.41L506.42 611.43L461.95 612.81L446.63 613.93L439.04 615.48L420.91 615.98L412.39 615.1L411.46 614L409.11 613.92L400.2 614.13L394.24 622.25L392.9 627.55L386.19 621.91L385.41 621.44L384.79 620.27L384.63 619.64L385.74 617.37L389.34 614.49L390.37 610.6L392.41 604.11L394.08 594.74L393.85 591.14L393.09 582.69L392.57 572.53L392.22 555.02L394.26 555.18L393.53 499.92L392.07 491.32L392.16 488.98L393.5 483.67Z" />
	<path id="Inyo_x2C__CA" class="shp2" d="M380.05 359.52L324.72 359.93L324.39 365.32L325.47 369.7L331.77 383.08L332.63 383.86L332.94 383.78L338.1 385.83L338.41 385.75L338.41 385.75L339.35 385.52L344.89 389.13L345.9 390.54L349 399.06L349.7 401.88L350 405.79L350.22 413.37C350.22 413.37 352.83 422.13 353.48 423.85L363.42 446.62L370.79 469.69L372.26 474.31L372.17 477.98L370.83 484.62L393.5 483.67L408.11 483.7L506.12 481.36L511.44 480.05L496 465.95L495.15 465.16L483.92 454.66L481.35 452.31L460.29 432.95L434.17 409.21L429.41 404.74L420.91 397.22L419.59 395.88L380.05 359.52Z" />
	<path id="Tulare_x2C__CA" class="shp2" d="M313.41 413.51L313.31 419.84L301.98 419.66L294.32 419.56L293.76 425.34L284.69 426.1L278.58 432.41L278.26 432.73L279.99 432.73L280 432.89L280.69 432.89L281.22 439.07L283.96 439.39L284.09 449.32L282.44 449.39L280.72 450.48L280.23 460.56L279.31 484.95L279.31 485.02L308.23 485.17L341.05 485.02L367.16 484.54L370.83 484.62L372.17 477.98L372.26 474.31L370.79 469.69L363.42 446.62L353.48 423.85L350.26 413.24L313.41 413.51Z" />
	<path id="Kings_x2C__CA" class="shp1" d="M278.03 432.88L280.69 432.89L281.22 439.07L283.96 439.39L284.09 449.32L282.44 449.39L280.72 450.48L280.23 460.56L279.31 485.02L241.4 484.76L239.44 484.91L233.61 476.07L255.15 455.8L255.11 439.54L264.1 439.64L272.47 438.57L278.03 432.88Z" />
	<path id="Fresno_x2C__CA" class="shp1" d="M324.72 359.93L324.39 365.32L325.47 369.7L331.77 383.08L332.63 383.86L332.94 383.78L338.1 385.83L339.35 385.52L344.89 389.13L345.9 390.54L349 399.06L349.7 401.88L350 405.79L350.22 413.37L313.41 413.51L313.31 419.84L301.98 419.65L294.32 419.55L293.76 425.34L284.92 425.86L278.58 432.41L272.47 438.57L264.1 439.64L255.11 439.54L255.15 455.8L233.61 476.07L218.86 464.78L214.18 460.62L212.87 456.63L212.57 448.74L214.54 444.59L217.9 444.76L217.62 431.55L198.44 413.07L222.02 390.3L226.6 402.11L227.23 403.29L227.77 404.15L228.71 405.24L231.75 408.14L236.59 410.26L240.18 410.04L264.5 405.02L264.81 404.94L266.07 403.3L266.62 401.51L269.6 396.12L270.08 395.34L272.19 393.16L279.87 385.28L282.3 384.35L290.58 382.96L291.92 381.64L293.09 379.69L293.8 378.52L294.36 375.39L294.2 374.77L293.89 373.52L293.74 370.23L294.06 368.83L294.77 367.65L296.88 365.47L310.28 351.21L324.72 359.93Z" />
	<path id="Monterey_x2C__CA" class="shp2" d="M156.42 400.22L145.71 403.87L145.79 404.18L146.72 406.6L146.95 407.54L145.6 414.18L145.21 416.61L144.66 418.4L144.18 419.18L143.48 420.36L142.46 421.6L141.91 422.07L140.97 422.3L137.29 424.87L139.9 443.48L140.21 444.73L141.15 445.83L143.49 448.57L144.03 449.43L144.81 449.9L145.2 450.13L145.83 449.98L146.92 450.37L150.51 452.81L152.69 454.92L162.82 467.69L162.9 468L163.75 470.11L164.29 472.3L164.6 473.55L165.3 476.37L169.51 481.3L172 483.34L239.45 484.92L233.61 476.07L218.86 464.78L214.18 460.62L212.87 456.63L212.57 448.74L210.76 453.5L210.53 453.89L210.21 453.97L208.5 453.73L208.5 453.73L208.49 453.73L195.62 447.29L191.71 447.6L191.17 444.08L179.79 430.29L176.98 430.99L176.06 421.92L171.7 419.02L163.98 410.63L157.44 404.29L156.26 402.25L156.42 400.22Z" />
	<path id="San_Benito_x2C__CA" class="shp4" d="M156.42 400.22L159.78 400.38L163 395.94L168.24 395.64L181.05 396.45L180.42 397.94L180.27 398.64L180.34 398.95L180.89 399.81L185.64 405.61L197.58 412.28L198.44 413.07L217.62 431.55L217.9 444.76L214.54 444.6L212.57 448.74L210.76 453.5L210.52 453.89L210.21 453.97L208.49 453.73L195.62 447.29L191.71 447.6L191.17 444.08L179.79 430.29L176.98 430.99L176.06 421.92L171.7 419.02L163.98 410.63L157.44 404.29L156.26 402.25L156.42 400.22Z" />
	<path id="Santa_Cruz_x2C__CA" class="shp0" d="M127.39 372.62L127.42 374.19L127.34 375.21L122.03 375.19L117.48 376.99L117.87 380.11L118.17 382.46L118.64 383.01L120.81 387.79L123.31 391.16L126.27 393.74L129.08 395.7L129.78 395.86L130.8 395.94L131.11 395.86L131.5 396.1L132.52 396.18L133.85 396.18L136.35 395.56L139.01 394.24L139.64 394.09L141.12 394.72L141.9 395.19L142.76 395.97L143.77 397.38L145.01 400.05L145.71 403.87L156.42 400.22L158.7 400.33L158.69 398.67L158.23 398.12L148.95 388.79L142.71 385.03L139.74 383.77L135.13 381.25L133.03 379.45L128.74 374.2L127.39 372.62Z" />
	<path id="San_Mateo_x2C__CA" class="shp2" d="M108.2 338.12L107.87 346.17L107.85 354.14L111.55 373.14L112.4 376.58L112.87 377.13L115.99 380.35L118.17 382.46L118.64 383.01L117.87 380.11L117.48 376.99L122.02 375.2L127.34 375.21L127.42 374.2L127.39 372.62L126.41 371.46L126.33 371.15L126.1 370.21L131.84 355.84L130.28 353.57L129.42 354.12L127.7 353.88L127 353.72L116 346.82L115.06 345.72L114.53 338.21L108.2 338.12Z" />
	<path id="Alameda_x2C__CA" class="shp2" d="M121.91 323.77L119.41 324.39L119.87 330.25L127.34 341.68L130.28 353.57L131.84 355.84L133.16 357.18L140.67 357.98L141.6 357.75L143.41 356.97L143.65 356.58L144.2 356.11L144.82 355.96L167.24 356.71L163.03 353.11L162.49 352.25L162.83 340.21L163.01 331.54L163.01 331.54L159.02 332.86L139.15 338.43L126.98 330.82L126.28 329.33L124.49 326.12L124.49 326.12L122.31 324.01L121.91 323.77Z" />
	<path id="Santa_Clara_x2C__CA" class="shp4" d="M131.84 355.84L126.1 370.21L126.33 371.15L126.41 371.46L127.39 372.62L128.74 374.2L128.74 374.2L133.03 379.45L135.13 381.25L139.74 383.77L142.71 385.03L148.95 388.79L158.22 398.12L158.23 398.12L158.69 398.67L158.69 398.69L158.7 400.33L159.78 400.38L163 395.94L168.24 395.64L181.05 396.45L180.2 395.67L179.65 394.81L179.57 394.5L179.82 391.45L181.23 390.44L182.01 388.25L182.02 384.27L181.48 383.41L173.13 379.16L167 361.09L166.38 357.26L167.24 356.71L144.81 355.96L144.19 356.11L143.64 356.58L143.4 356.97L141.6 357.75L140.67 357.98L133.16 357.18L131.84 355.84Z" />
	<path id="Stanislaus_x2C__CA" class="shp2" d="M200.26 313.03L200.28 335.93L197.38 337.64L194.17 338.1L191.2 338.17L189.8 337.86L183.93 340.97L182.83 341.9L180.72 344.09L167.24 356.71L167.24 356.72L166.38 357.26L167 361.09L173.13 379.16L181.48 383.41L197.23 367.89L196.61 365.39L196.14 364.84L195.75 364.6L203.27 360.09L230.88 346.95L230.88 346.95L230.88 346.95L215.84 331.75L200.26 313.03Z" />
	<path id="Mariposa_x2C__CA" class="shp1" d="M230.88 346.95L230.5 344.06L230.97 343.28L233.79 339.92L249.21 332.46L250.3 332.85L256.23 336.7L256.7 337.25L257.09 337.48L258.81 337.72L264.51 337.97L266.39 337.5L273.04 334.86L273.82 334L277.9 329.01L280.88 327.61L287.12 330.05L291.49 332.95L294.06 336.64L277.29 353.39L277.2 358.4L273.28 364.02L266.95 363.93L250.26 381L244.87 376.68L242.77 374.88L237.18 361.66L237.41 361.27L237.33 360.95L237.1 360.01L230.88 346.95Z" />
	<path id="Tuolumne_x2C__CA" class="shp1" d="M253 287.37L246.35 290.01L245.17 290.63L244.08 291.57L236.94 301.63L231.92 309.51L226.81 318.41L223.75 323.48L215.84 331.75L230.88 346.95L230.5 344.06L230.97 343.28L233.79 339.92L249.21 332.46L250.3 332.85L256.23 336.7L256.7 337.25L257.09 337.48L258.81 337.72L264.51 337.97L266.39 337.5L273.04 334.86L273.82 334L277.9 329.01L280.88 327.61L287.12 330.05L291.49 332.95L294.06 336.64L293.47 337.24L293.59 337.42L296.09 339.45L296.8 338.29L299.38 335.32L299.71 328.6L297.92 325.39L293.47 323.5L293.64 316.15L291.23 313.1L288.5 311.45L287.02 310.82L284.75 309.72L281.94 309.09L280.46 308.46L278.51 307.28L275.39 304.07L274.62 298.29L274.7 295.95L274.94 295.56L271.44 289.45L270.97 288.9L270.58 288.67L268.24 288.58L265.19 289.67L261.19 292.31L260.33 292.86L253 287.37Z" />
	<path id="Mono_x2C__CA" class="shp2" d="M278.06 266.57L292.64 279.89L302.47 288.75L344.58 327.46L380.05 359.52L324.72 359.93L310.28 351.21L307.72 343.55L304.14 339.79L296.09 339.45L296.8 338.29L299.38 335.32L299.71 328.6L297.92 325.39L293.47 323.5L293.65 316.16L291.23 313.1L288.5 311.46L287.02 310.83L284.75 309.73L281.94 309.09L280.46 308.47L278.51 307.29L275.39 304.08L274.62 298.29L274.7 295.95L274.94 295.56L279.41 289.47L280.52 281.89L276.24 273.99L276.09 273.36L276.41 270.63L278.06 266.57Z" />
	<path id="Alpine_x2C__CA" class="shp5" d="M260.91 250.89L261.22 252.14L261.37 254.1L257.76 259.64L256.74 260.88L256.74 260.88L250.31 267.12L250.31 267.12L250.2 281.42L253 287.37L260.33 292.86L261.19 292.32L265.18 289.67L268.24 288.58L270.58 288.67L270.97 288.9L271.44 289.45L274.94 295.56L279.41 289.47L280.52 281.89L276.24 273.99L276.09 273.37L276.41 270.63L278.06 266.57L260.91 250.89Z" />
	<path id="Calaveras_x2C__CA" class="shp2" d="M253 287.37L246.35 290.01L245.17 290.63L244.08 291.57L237.41 300.86L232.39 308.74L227.28 317.63L224.22 322.71L215.84 331.75L200.26 313.03L196.84 301.93L197.23 302.16L197.94 302.32L202.55 302.17L223.84 287.61L226.04 285.74L228.62 285.44L250.2 281.42L253 287.37Z" />
	<path id="Amador_x2C__CA" class="shp1" d="M250.31 267.12L238.8 276.94L235.83 278.34L224.72 280.42L220.58 281.12L217.92 281.11L206.37 276L200.26 279.5L194.94 280.82L195.06 296.06L196.84 301.93L197.23 302.16L197.94 302.32L202.55 302.17L223.84 287.61L226.04 285.74L228.62 285.44L250.2 281.42L250.31 267.12Z" />
	<path id="San_Joaquin_x2C__CA" class="shp2" d="M195.06 296.06L190.13 297.61L186.69 299.79L186.37 299.87L176.06 301.09L173.09 301.15L171.92 300.45L170.91 299.04L169.89 298.96L168.64 299.27L162.59 311.06L163.01 331.54L162.48 352.25L163.03 353.11L167.24 356.71L180.72 344.09L182.83 341.9L183.93 340.97L189.8 337.86L191.2 338.17L194.17 338.1L197.38 337.64L200.28 335.93L200.26 313.03L196.85 301.92L195.06 296.06L195.06 296.06Z" />
	<path id="Contra_Costa_x2C__CA" class="shp1" d="M161.11 310.43L157.82 310.58L157.2 310.74L156.73 311.52L156.96 312.46L156.8 313.16L155.78 314.41L153.43 315.65L151.24 316.19L150.54 316.03L148.82 315.8L148.04 315.32L145.86 313.2L145.7 313.91L145.15 314.38L144.53 314.53L143.59 314.76L131 314.89L127.96 314.64L123.14 313.32L122.02 314.79L120.92 315.72L114.11 319.07L117.46 323.22L119.41 324.39L121.91 323.77L122.31 324.01L124.49 326.12L124.49 326.12L126.28 329.33L126.98 330.82L139.15 338.43L159.02 332.86L163.01 331.54L163.01 331.54L162.59 311.06L162.2 310.83L161.11 310.43Z" />
	<path id="El_Dorado_x2C__CA" class="shp1" d="M254.6 240.17L246.63 240.15L246.16 240.93L246.08 241.94L245.53 242.41L244.36 243.03L241.15 243.5L229.19 246.12L226.99 249.32L225.89 250.26L223.23 251.58L222.92 251.66L222.22 251.5L217.92 248.91L217.07 248.12L216.6 247.58L215.66 246.48L213.32 245.07L211.92 244.75L211.52 244.51L209.02 245.13L201.83 248.24L196.27 251.28L195.25 252.52L194.53 256.35L189.66 266.19L189.1 266.13L194.94 280.82L200.26 279.5L206.37 276L217.92 281.11L220.58 281.12L224.72 280.42L235.83 278.34L238.8 276.94L250.31 267.12L256.74 260.88L257.76 259.64L261.37 254.1L261.22 252.14L260.91 250.89L259.97 249.8L254.6 240.17Z" />
	<path id="Sacramento_x2C__CA" class="shp1" d="M162.24 262.69L164.34 269.8L167.45 273.02L167.53 273.33L167.68 273.96L167.74 284.89L166.32 291.22L165.53 292.08L162.16 294.57L159.17 303.94L154.46 311.74L149.3 313.68L145.86 313.2L148.04 315.32L148.82 315.8L150.54 316.03L151.24 316.19L153.43 315.65L155.78 314.41L156.8 313.16L156.96 312.45L156.73 311.52L157.2 310.74L157.82 310.58L161.11 310.43L162.2 310.83L162.59 311.06L168.64 299.27L169.89 298.96L170.9 299.05L171.92 300.46L173.09 301.16L176.06 301.09L186.38 299.87L186.69 299.79L190.13 297.61L195.06 296.06L194.94 280.82L188.81 265.4L169.04 263.32L162.24 262.69Z" />
	<path id="Solano_x2C__CA" class="shp6" d="M133.44 279.1L133.2 279.49L131.86 284.8L132.01 285.43L132.09 285.74L134.27 289.18L134.97 290.67L135.13 291.3L135.44 292.55L135.59 293.17L135.43 293.88L127.38 293.54L126.42 303.08L126.58 303.7L127.04 304.25L127.43 304.49L127.75 304.41L127.82 304.72L127.67 305.42C126.76 304.95 116.49 304.53 116.49 304.53L114.23 304.76L114.54 306.01L122.25 313.07L127.96 314.64L131 314.89L143.59 314.76L144.53 314.53L145.15 314.38L145.7 313.91L145.86 313.2L149.3 313.68L154.46 311.74L159.17 303.94L162.16 294.57L155.91 294.79L156.26 278.76L155.4 277.98L135.63 278.56L133.44 279.1Z" />
	<path id="San_Franciso_x2C__CA" class="shp2" d="M114.53 338.21L108.2 338.12L108.2 338.12L107.89 336.87L107.51 332.65L108.06 332.18L110.41 330.93L112.68 330.7L113.69 330.79L114.16 331.33L114.78 332.51L115.55 336.97L115.47 337.98L114.53 338.21Z" />
	<path id="Marin_x2C__CA" class="shp2" d="M80.8 293.11L81.35 292.64L85.34 291.32L85.65 291.25L101.02 302.38L105.63 303.57L109.06 308.03L109.2 313.97L108.64 321.08L108.79 321.71L109.26 322.26L110.5 323.28L111.83 324.61L112.37 325.47L112.45 325.78L109.78 329.76L108.14 329.84L107.05 329.44L106.27 328.97L83.41 313.05L82.36 296.71L81.74 295.54L80.65 293.81L80.8 293.11Z" />
	<path id="Sonoma_x2C__CA" class="shp0" d="M51.82 256.46L60.18 256.72L60.82 253.9L74.26 254.56L74.74 251.13L92.87 251.95L103.3 265.97L103.14 269.33L103.99 274.1L107.65 279.5L114.8 292.34L116.9 298.12L117.29 299.69L117.67 301.25L116.49 304.53L114.23 304.76L114.3 305.07L109.06 308.03L105.63 303.57L101.02 302.38L85.65 291.25L85.34 291.32L81.35 292.64L80.8 293.11L80.65 293.81L73.49 280.98L56.42 261.63L51.82 256.46Z" />
	<path id="Yolo_x2C__CA" class="shp2" d="M120.7 247.72L149.15 248.66L162.24 262.69L164.34 269.8L167.45 273.02L167.53 273.33L167.68 273.96L167.74 284.89L166.31 291.22L165.53 292.08L162.16 294.57L155.91 294.79L156.26 278.76L155.4 277.98L135.63 278.56L133.44 279.1L132.13 273.78L131.74 272.22L130.11 268.31L123.26 254.06L117.09 251.94L120.7 247.72Z" />
	<path id="Placer_x2C__CA" class="shp1" d="M218.07 221.32L215.88 221.86L213.22 223.18L206.56 228.48L202.96 231.36L200.77 233.23L198.73 235.73L198.26 236.51L198.26 237.84L195.19 242.91L193.4 243.69L185.27 243.04L184.57 242.88L181.21 241.39L173.46 243.63L173.45 248.95L170.41 248.71L169.92 263.41L188.81 265.4L189.1 266.13L189.66 266.19L194.53 256.35L195.25 252.52L196.27 251.28L201.83 248.24L209.02 245.13L211.52 244.51L211.92 244.75L213.32 245.07L215.66 246.48L216.6 247.58L217.07 248.12L217.92 248.91L222.22 251.5L222.92 251.66L223.23 251.58L225.89 250.26L226.99 249.32L229.19 246.12L241.15 243.5L244.36 243.03L245.53 242.41L246.08 241.94L246.16 240.93L246.63 240.15L254.6 240.17L254.45 236.89L254.46 232.9L254.65 221.57L218.07 221.32Z" />
	<path id="Nevada_x2C__CA" class="shp1" d="M254.91 211.88L254.65 221.57L218.07 221.32L215.88 221.86L213.22 223.18L206.56 228.48L202.96 231.36L200.77 233.23L198.73 235.73L198.26 236.51L198.26 237.84L195.19 242.91L193.4 243.69L185.27 243.04L184.57 242.88L181.21 241.39L181.56 226.7L182.58 224.12L186.74 219.44L190.81 215.78L193.86 214.69L195.19 214.69L196.91 214.93L197.3 213.84L198.47 213.22L207.7 211.6L214.43 207.94L214.67 207.55L215.45 206.7L217.1 205.29L218.03 205.06L222.41 205.31L224.05 206.56L225.21 209.92L226.77 210.87L227.48 211.02L254.91 211.88Z" />
	<path id="Sierra_x2C__CA" class="shp1" d="M205.1 186.35L202.75 187.6L201.42 188.92L201.41 191.58L197.19 195.94L196.85 214.92L196.91 214.93L197.3 213.84L198.47 213.22L207.7 211.6L214.43 207.94L214.67 207.55L215.45 206.7L217.1 205.29L218.03 205.06L222.41 205.31L224.05 206.56L225.21 209.92L226.77 210.87L227.48 211.02L254.91 211.88C254.91 211.88 255.29 195.33 255.35 190.85L246.12 192.47L229.87 192.51L217.44 191.93L205.1 186.35Z" />
	<path id="Yuba_x2C__CA" class="shp1" d="M197.19 195.94L193.27 198.91L189.36 203.19L180.05 205.83L175.65 216.21L173.77 218L162.27 221.18L162.03 221.57L161.56 223.68L161.48 224.7L162.69 240.33L164.54 247.83L164.94 246.74L165.96 245.49L169.56 243.94L170.81 243.63L173.46 243.63L181.21 241.39L181.55 227.04L181.56 226.7L181.56 226.7L182.58 224.12L182.58 224.12L186.74 219.44L186.74 219.44L190.81 215.78L193.86 214.69L194.13 214.69L195.19 214.69L196.91 214.93L197.19 195.94Z" />
	<path id="Sutter_x2C__CA" class="shp2" d="M146.09 220.18L143.72 229.42L143.95 233.01L146.36 236.07L150.33 244.05L149.15 248.66L162.24 262.69L169.04 263.32L169.92 263.41L170.41 248.71L173.45 248.95L173.47 243.64L170.81 243.63L169.56 243.94L165.96 245.49L164.94 246.74L164.55 247.83L162.69 240.33L161.48 224.69L161.56 223.68L162.03 221.57L162.27 221.18L146.09 220.18Z" />
	<path id="Colusa_x2C__CA" class="shp2" d="M147.28 214.26L146.09 220.2L143.73 229.42L143.95 233.01L146.37 236.07L150.33 244.05L149.15 248.66L120.7 247.72L116.72 245.06L116.25 244.51L112.6 237.78L111.67 232.7L112.39 226.21L104.11 224.94L101.77 223.53L97.56 219.93L96.7 217.81L97.49 215.63L99.06 212.58L133.29 214.07L133.61 211.33L141.04 211.83L140.56 213.94L147.28 214.26Z" />
	<path id="Butte_x2C__CA" class="shp2" d="M176.03 157.36L175.08 157.65L174.85 159.31L174.3 159.78L171.02 161.26L168.05 161.33L159.82 169.67L158.02 171.77L157.31 172.94L157.23 173.96L157.22 175.29L155.89 176.61L154.33 177L140.97 176.65L139.4 179.7L139.62 181.97L140.56 183.06L139.23 183.06L143.67 188.93L142.46 202.84L149.42 202.78L147.28 214.26L146.09 220.18L162.27 221.18L173.77 218L175.65 216.21L180.05 205.83L189.36 203.19L193.27 198.91L186.81 191.54L175.43 179.09L176.86 164.82L177.58 163.62L177.58 163.61L177.81 163.23L177.89 162.21L177.5 160.65L176.03 157.36Z" />
	<path id="Glenn_x2C__CA" class="shp2" d="M88.98 181.21L139.23 183.06L143.67 188.93L142.46 202.84L149.42 202.78L147.28 214.26L140.56 213.94L141.04 211.83L133.61 211.33L133.29 214.07L99.06 212.58L99.46 207.5L99.63 205.47L99.72 197.81L91.36 197.56L88.98 181.21Z" />
	<path id="Plumas_x2C__CA" class="shp6" d="M171.63 135.54L171.55 136.56L172.4 141.33L172.55 141.95L173.02 142.5L173.41 142.74L177.62 143.69L178.25 143.53L179.73 146.82L179.4 152.21L179.24 152.91L179.01 153.3L175.08 157.65L176.03 157.36L177.5 160.65L177.89 162.21L177.81 163.23L177.58 163.61L177.58 163.62L176.86 164.82L175.43 179.09L186.81 191.54L193.27 198.91L197.19 195.94L201.41 191.58L201.42 188.92L202.75 187.6L205.1 186.35L205.11 186.35L205.11 186.35L217.44 191.93L229.87 192.51L246.13 192.48L248.4 188.26L249.28 179.74L249.44 177.71L248.9 175.52L243.22 164.64L241.12 162.84L225.36 151.47L214.28 146.91L212.24 146.74L210.52 147.83L206.28 153.53L206.36 155.17L205.18 155.79L203.15 155.63L196.99 152.18L195.9 150.45L196.01 136.15L181.4 136.11L171.63 135.54Z" />
	<path id="Tehama_x2C__CA" class="shp2" d="M171.63 135.54L171.55 136.56L172.4 141.33L172.55 141.95L173.02 142.5L173.41 142.74L177.63 143.69L178.25 143.53L179.73 146.82L179.4 152.21L179.24 152.91L179.01 153.3L175.08 157.65L174.85 159.31L174.3 159.78L171.02 161.26L168.05 161.33L159.82 169.67L158.02 171.77L157.31 172.94L157.23 173.96L157.22 175.29L155.89 176.61L154.33 177L140.97 176.65L139.4 179.7L139.62 181.97L140.56 183.06L139.23 183.06L88.98 181.21L88.9 180.9L88.51 180.66L87.74 177.53L88.45 173.7L90.02 171.99L90.33 170.58L90.1 168.31L89.64 167.77L89.18 165.89L88.04 155.88L88.04 151.9L88.28 151.51L88.13 148.23L87.98 147.6L87.51 147.05L83.13 144.15L88.92 143.38L96.35 141.21L102.29 139.74L115.19 138.21L119.18 139.55L124.88 139.8L126.91 139.96L133.87 138.57L139.11 136.94L143.88 136.1L152.95 135.18L160.85 134.89L171.63 135.54Z" />
	<path id="Mendocino_x2C__CA" class="shp2" d="M28.61 163.94L55.34 164.64L55.1 166.35L89.64 167.77L90.1 168.31L90.33 170.58L90.02 171.99L88.45 173.7L87.74 177.53L88.51 180.66L88.9 180.9L88.98 181.21L91.36 197.56L91.28 198.57L90.88 200.99L88.14 202L83.07 201.6L81.03 202.76L80.32 206.59L80.24 207.61L80.07 209.64L82.86 219.57L83.01 222.86L81.44 225.9L79.09 227.14L78.38 229.64L77.83 232.77L77.75 233.79L77.9 234.41L79.85 238.24L84.99 245.61L86.78 247.48L92.87 251.95L74.74 251.13L74.26 254.56L60.82 253.9L60.18 256.72L51.82 256.46L48.08 252.08L42.23 244.56L37.55 212.19L37.55 210.86L37.4 210.24L37.72 207.5L38.35 204.69L39.14 202.5L39.53 201.41L40.24 200.24L40.4 199.54L40.63 199.15L40.63 199.15L41.42 196.96L41.26 196.33L40.42 188.91L40.27 186.95L37.49 175.69L37.41 175.38L33.28 169.43L31.18 166.3L28.61 163.94Z" />
	<path id="Humboldt_x2C__CA" class="shp2" d="M32.02 54.21L29.95 67.35L27.01 85L27.71 86.49L27.08 89.3L26.13 94.85L24.71 98.52L23.61 100.78L21.96 103.51L19.21 108.51L16.55 112.49L14.98 115.53L14.03 117.09L11.91 121.93L8.84 129.66L8.61 130.05L10.61 143.5L11.15 144.36L26.82 162.07L28.61 163.94L55.34 164.64L57.94 111.53L57.45 102.05L57.45 102.04L57.45 102.04L58.19 101.08L62.23 95.87L63.72 93.85L66.78 88.77L66.24 85.25L65.78 84.71L65.24 82.52L65.95 78.69L66.58 77.21L67.43 76.66L64.11 63.21L62.78 61.87L54.03 61.39L51.07 61.45L48.18 59.18L48.51 55.11L32.02 54.21Z" />
	<path id="Shasta_x2C__CA" class="shp1" d="M175.99 80.69L182.32 80.78L181.88 100.48L182.5 102.98L181.96 129L181.4 136.11L171.63 135.54L160.22 135.04L152.32 135.34L143.25 136.25L138.48 137.1L133.24 138.73L126.28 140.12L124.25 139.96L118.55 139.71L114.57 138.37L102.3 139.74L96.35 141.21L88.92 143.38L83.13 144.15L83.14 141.49L88.39 134.55L95.83 128.39L112.41 93.42L112.73 93.34L114.45 92.26L119.08 85.47L119.55 84.69L119.71 83.98L119.64 81.01L119.48 80.39L118.31 79.68L117.22 79.29L129.56 79.55L145.66 80.22L175.99 80.69Z" />
	<path id="Lassen_x2C__CA" class="shp1" d="M182.79 80L182.31 81.19L181.88 100.48L182.5 102.98L181.96 129L181.4 136.11L196.01 136.15L195.9 150.46L196.99 152.18L203.15 155.63L205.19 155.8L206.36 155.17L206.29 153.53L210.52 147.84L212.24 146.75L214.28 146.91L225.36 151.47L241.12 162.84L243.22 164.64L248.9 175.52L249.44 177.71L249.28 179.75L248.4 188.26L246.13 192.48L255.35 190.85L255.6 186.48L255.89 164.83L256 150.53L255.93 146.23L255.97 132.94L256.19 105.66L256.33 82.06L182.79 80Z" />
	<path id="Modoc_x2C__CA_2_" class="shp1" d="M256.95 21.49L256.33 82.06L182.32 80.78L175.99 80.69L176.42 62.32L176.34 36.45L175.94 36.22L175.12 35.87L176.13 24.88L176.29 22.85L176.85 19.73" />
	<path id="Napa_x2C__CA-2" class="shp2" d="M117.09 251.94L118.33 255.61L117.94 256.7L112.69 263.65L103.3 265.97L103.14 269.33L103.98 274.1L107.65 279.5L114.8 292.34L116.9 298.12L117.28 299.69L117.67 301.25L116.49 304.53L127.67 305.42L127.82 304.72L127.75 304.41L127.43 304.49L127.04 304.25L126.58 303.7L126.42 303.08L127.38 293.54L135.43 293.88L135.59 293.17L135.44 292.55L135.13 291.3L134.97 290.67L134.27 289.18L132.09 285.74L132.01 285.43L131.86 284.8L133.2 279.49L133.44 279.1L133.44 279.1L133.44 279.1L132.13 273.78L131.74 272.22L130.11 268.31L123.26 254.06L117.09 251.94Z" />
	<path id="Trinity_x2C__CA-2" class="shp1" d="M109.66 68.87L99.48 76.04L93.67 86.11L95.15 89.4L94.83 90.8L93.82 92.05L92.8 91.97L88.19 90.78L79.14 85.05L73.6 80.12L70.48 78.23L67.43 76.66L66.58 77.21L65.95 78.69L65.24 82.52L65.78 84.71L66.24 85.25L66.78 88.77L63.72 93.85L62.23 95.87L57.45 102.04L57.97 110.87L55.34 164.64L55.1 166.35L89.64 167.77L89.18 165.89L88.04 155.88L88.04 151.9L88.28 151.51L88.13 148.23L87.98 147.6L87.51 147.05L83.13 144.15L83.13 144.15L83.14 141.49L88.39 134.55L95.83 128.39L112.41 93.42L112.73 93.34L114.45 92.26L119.08 85.47L119.55 84.69L119.71 83.98L119.64 81.01L119.48 80.39L118.31 79.68L117.22 79.29L117.22 79.29L116.93 71.39L109.66 68.87Z" />
	<path id="Madera_x2C__CA-8" class="shp1" d="M293.47 337.24L277.76 352.92L277.29 353.4L277.2 358.4L273.28 364.02L266.95 363.93L250.26 381L244.63 382.39L235.8 382.91L224.61 387.34L222.02 390.3L226.6 402.11L227.23 403.29L227.77 404.15L228.71 405.24L231.75 408.14L236.59 410.26L240.18 410.04L264.16 405.09L264.5 405.01L264.82 404.93L266.07 403.3L266.62 401.5L269.6 396.11L270.08 395.33L272.19 393.15L279.87 385.27L282.3 384.34L286.44 383.66L290.58 382.96L291.92 381.64L293.09 379.69L293.8 378.52L294.36 375.39L294.2 374.77L293.89 373.52L293.74 370.23L294.06 368.83L294.77 367.65L296.88 365.47L310.28 351.21L307.72 343.55L304.14 339.79L296.09 339.45L293.59 337.42L293.47 337.24Z" />
	<path id="Merced_x2C__CA-6" class="shp1" d="M230.88 346.95L237.1 360.02L237.34 360.95L237.41 361.27L237.18 361.66L242.77 374.88L244.88 376.68L250.26 381L244.63 382.39L235.8 382.91L225.16 386.87L222.02 390.3L198.44 413.07L197.58 412.28L185.64 405.61L180.89 399.81L180.34 398.95L180.26 398.64L180.42 397.94L181.05 396.45L180.2 395.67L179.65 394.81L179.57 394.5L179.82 391.45L181.23 390.44L182.01 388.25L182.02 384.27L181.48 383.41L197.23 367.89L196.61 365.39L196.14 364.84L195.75 364.6L203.27 360.09L230.88 346.95Z" />
	<path id="Lake_x2C__CA-6" class="shp0" d="M99.06 212.58L97.49 215.62L96.7 217.81L97.56 219.92L101.77 223.53L104.11 224.94L112.39 226.21L111.67 232.7L112.6 237.78L116.25 244.51L116.72 245.06L120.7 247.72L117.09 251.94L118.33 255.61L117.94 256.7L112.69 263.65L103.3 265.97L92.87 251.95L86.86 247.8L85.07 245.92L79.93 238.56L77.9 234.4L77.75 233.78L77.83 232.76L78.38 229.64L79.09 227.14L81.44 225.89L83.01 222.85L82.86 219.56L80.07 209.64L80.24 207.61L80.32 206.59L81.03 202.77L83.07 201.6L88.14 202L90.88 200.99L91.28 198.57L91.36 197.56L99.73 197.81L99.63 205.47L99.47 207.5L99.06 212.58Z" />
</svg>