<?xml version="1.0" encoding="UTF-8" standalone="no"?>
<svg xmlns="http://www.w3.org/2000/svg" xmlns:xlink="http://www.w3.org/1999/xlink" height="400" width="640">
 <rect height="400" width="640" y="0" x="0" fill="#FFF"/>
 <circle id="c" cx="38.5" cy="21.5" r="16" stroke="#000" stroke-width="1" fill="#10c3fd"/>
 <use xlink:href="#c" y="72" x="195"/>
 <use xlink:href="#c" y="15" x="465"/>
 <use xlink:href="#c" y="82" x="575"/>
 <use xlink:href="#c" y="232" x="515"/>
 <use xlink:href="#c" y="282" x="565"/>
 <use xlink:href="#c" y="315" x="518"/>
 <use xlink:href="#c" y="335" x="448"/>
 <use xlink:href="#c" y="305" x="408"/>
 <use xlink:href="#c" y="275" x="325"/>
 <use xlink:href="#c" y="325" x="288"/>
 <use xlink:href="#c" y="215" x="285"/>
 <use xlink:href="#c" y="275" x="198"/>
 <use xlink:href="#c" y="295" x="245"/>
 <use xlink:href="#c" y="205" x="165"/>
 <use xlink:href="#c" y="245" x="128"/>
 <use xlink:href="#c" y="305" x="145"/>
 <use xlink:href="#c" y="295" x="48"/>
 <use xlink:href="#c" y="205" x="75"/>
 <use xlink:href="#c" y="215" x="18"/>
 <use xlink:href="#c" y="262" x="-12"/>
 <path d="m0,180,640,0" stroke="#8a8a8a" stroke-width="10"/>
 <rect height="145" width="80" stroke="#000" y="125" x="420" stroke-width="1" fill="#fd1018"/>
 <path stroke="#000" d="m460,290,0-210" stroke-width="6"/>
 <path d="M445,110,460,70,475,110s-9-10-15-10-15,10-15,10z" fill="#000"/>
 <g font-style="oblique" font-family="Liberation Sans" fill="#000" font-size="28px">
  <switch allowReorder="yes">
   <text id="trsvg13" systemLanguage="es"><tspan y="30" x="70" id="trsvg1">Baja concentratión de iones</tspan>
	<tspan y="390" x="10" id="trsvg2">Alta concentratión de iones</tspan>
   </text>
   <text id="trsvg14" systemLanguage="ms"><tspan y="30" x="70" id="trsvg3">Kepekatan ion rendah</tspan>
	<tspan y="390" x="10" id="trsvg4">Kepekatan ion tinggi</tspan>
   </text>
   <text id="trsvg15" systemLanguage="tr"><tspan y="30" x="70" id="trsvg5">Düşük iyon konsantrasyonu</tspan>
	<tspan y="390" x="10" id="trsvg6">Yüksek iyon konsantrasyonu</tspan>
   </text>
   
  <text id="trsvg16-ca" systemLanguage="ca"><tspan y="30" x="70" id="trsvg7-ca">baixa concentració d'ions</tspan>
	<tspan y="390" x="10" id="trsvg8-ca">alta concentració d'ions</tspan>
   </text><text id="trsvg16"><tspan y="30" x="70" id="trsvg7">Low ion concentration</tspan>
	<tspan y="390" x="10" id="trsvg8">High ion concentration</tspan>
   </text></switch>
 </g>
 <g font-family="Liberation Sans" fill="#000" font-size="20px">
  <switch allowReorder="yes">
   <text systemLanguage="es" id="trsvg17"><tspan x="20" y="170" id="trsvg9">Membrana</tspan></text>
   <text systemLanguage="ms" id="trsvg18"><tspan x="20" y="170" id="trsvg10">Membran</tspan></text>
   <text systemLanguage="tr" id="trsvg19"><tspan x="20" y="170" id="trsvg11">Zar</tspan></text>
   
  <text id="trsvg20-ca" systemLanguage="ca"><tspan x="20" y="170" id="trsvg12-ca">membrana</tspan></text><text id="trsvg20"><tspan x="20" y="170" id="trsvg12">Membrane</tspan></text></switch>
 </g>
</svg>
