<svg width="380" height="452" version="1.1" xmlns:xlink="http://www.w3.org/1999/xlink" xmlns="http://www.w3.org/2000/svg">
  <title>埼玉県さいたま市中央区位置図</title>
  <desc>Author: Lincun</desc>
  <g>
    <defs>
      <path d="M382 384l-10-13-6-2-11 10h-7l-1 3h-5l-1 2z" id="13000" />
      <path d="M-4 234l5-3 3 3-4 8 6 9 22 7 1-5 6-1-6-4h3l-1-4 4-5 4 2 4-3 7 2 2-3-11-12 5-10v-10l-9-10 3-10-6-9 1-8 5 1 2-6-6-9-5 3-5-4 4-6 4-9-11-5-3-5-3-5-5 3-8-3v5l-8-3z" id="11201" />
      <path d="M384 340h-2l2-2zM339 384l-4-7h-5l-2 3-4-3-2 3-1-3-9 1-1-4-2 3-5-7 1-24-4-11 1-10 3-2 5 5 10 3-1-5 14-3 1 7-4 1 7 8-4 17 15 23h7l11-10v-2l6 1 12-7v-24h-2l-2-5 3-2v-5l-12-13 5-6-14-11-2-10 9-6-13-8-6-12-7-5-8-6-6-5-3-1 5 7-10 3 5 9-4 1v4l2-2-1 6 3-1-6 5-4-5-2-10-4 3-4-5-8 4-5-5-8 4 10 12-5 6 2 9-10 1-2 3h5l-1 2-6 4-1-5-2 1-4-6-3 1-6 8-7 6h6l-3 4v6l-11 3-17-8-3 2 5 5h-3l2 7-3 3 5 3-5 3 2 12 18 7 31 5-4 13h-8l1 4-4 3-1 10z" id="11203" />
      <path d="M30 384l3-4-6-7 1-5-3-2-4 7-4-4-1-2-3-11-14 7-3-2v23z" id="11208" />
      <path d="M384 11h-1l1 3zM384 24h-1l-8-8-1 3-2-2-4 2-1 4h-13l-4 10-20-2 1 7-3-3-13 1-11-3-3 3-12-9-4-4-9 18 17 7-1 3 11 9 1 6-3 17-4 7-10 2-6-6 3 3-3 4 3-2v3v-3l2 1v4l-4-1 8 5 1 5h11l-7 4-2 12 20-5 4-5-1 6 4 3 13 1 9 18-4 2 4 1 3-3 9-4v7l10 10 5-5h14l1-1zM384 137l-5-5 4-14-2-9 3 1z" id="11214" />
      <path d="M118 106l17-11 7 2 11 23 17-5 7 4v3l5 1 6-13v-8l-6-3-4-11-6-3-7 1-4-4-5-1-10-7-12-21-12-11-2-6 2-9-21-11-3 4-7-6h-17l1 7-7 2 8 13-5 9 9 9-4 3-6-3-7 2-1-5v-6l-5-4-3 2-1 6-30-3-2 13 5 5 3 8-12 15v18l7-3 2 11 7 8-13 7 3 5 11 5-4 9 6 7h5l1 2v-4l3 2 5-2 6 17h2l-2-6 1-7 5-4v-7l15-9 7 2 12-5 15 16 2-13-11-21 1-3-6-7 6-2 10 1 2 3z" id="11219" />
      <path d="M384 384v-23l-12 7-6-1v2l6 2 10 13zM384 293h-3l-6-3-6-11-9 6 2 10 14 11-5 6 12 13v5l-3 2 2 5h2zM384 338l-2 2h2z" id="11221" />
      <path d="M384 110l-3-1 2 9-4 14 5 5zM384 146l-1 1h-14l-5 5-10-10v-7l-9 4-3 3 4 5h4l-12 19-5 1 2 9h2l-5 9 6 12 8 1 1 11-5 9 3 3-1 5-12 3 5 5-1 7 7 13 7 5 6 12 13 8 6 11 6 3h3z" id="11222" />
      <path d="M264 374l4-3-1-4h8l4-13-31-5-18-7-13-6v5l-8 8 4 4v4l9 4 8 1 5 6 7-2v7l8 4 5-4z" id="11223" />
      <path d="M263 384l1-10-9-1-5 4-8-4v-7l-7 2-5-6-8-1-9-4v-4l-4-4-7-2-9-10-3 5-8 1 1 4-6-1-1-3-15 5-10-10-8 10 5 10 2 26zM152 384l6-2v2zM166 384v-4l2-2 4 4v2z" id="11224" />
      <path d="M341 384l1-2h5l1-3-15-23 4-17-7-8 4-1-1-7-14 3 1 5-10-3-5-5-3 2-1 10 4 11-1 24 5 7 2-3 1 4 9-1 1 3 2-3 4 3 2-3h5l4 7z" id="11226" />
      <path d="M150 384l-2-26-5-10-4-9-5-1-4 6-4-6-14 10-5-1 1 5-5-1v-5l-1 4-8-6-8 4 3 9-3 3h-5l-5 14 2 6-2 4z" id="11227" />
      <path d="M47 355l8 6 2 7 17-8h7h5l3-3-3-9 8-4 8 6 1-4v5l5 1-1-5 5 1 14-10-3-8 1-8-9-3-23-29-3 5 5 12-8-10-6 24-8 3 7 3 3-2 5 5-1 3-2 3-4-5-7 1-6 7-20 11v1z" id="11228" />
      <path d="M172 384v-2l-4-4-2 2v4zM158 384v-2l-6 2z" id="11229" />
      <path d="M76 384l2-4-2-6 5-14h-7l-17 8-2-7-8-6-4 10-3-1-2 3-9-4-13 4 1 2 4 4 4-7 3 2-1 5 6 7-3 4z" id="11230" />
      <path d="M54-4v3l-10 6 5 8-7 10-8-11-8-3-25 1-5 7v56l2-1 2 2-3 5 9 5v5l-6 2v2l9 9 5-1 3 4v-18l12-15-3-8-5-5 2-13 30 3 1-6 3-2 5 4v6l1 5 7-2 6 3 4-3-9-9 5-9-8-13 7-2-1-7h17l7 6 3-4 2-16 3-4z" id="11231" />
      <path d="M-4-4v21l5-7 25-1 8 3 8 11 7-10-5-8 10-6v-3z" id="11233" />
      <path d="M-4 295l19-11 2 1-3 8-6 5-2 2v11l5 1-3 6 3 3-3 3 4-3 5 5 3-1-1 5 5-1-2 1 3 6 4 2 2-3 4 5-1 3 4-1v7l9 1 20-11 6-7 7-1 4 5 2-3 1-3-5-5-3 2-7-3 8-3 6-24 8 10-5-12 3-5-9-5-3-13-1-2-19-1-7-4 2-11-13-6-3-7-4-2-4 5 1 4h-3l6 4 4 7v15l-25 3-18 6z" id="11235" />
      <path d="M134-4l14 19 19 5 3 16 13 10-4 14 1 19-2 9 4 11 6 3 1-3 6 4 6-4v-4l-5 2v-8h4l6-8 6 1 2-5 8 3 3-4 3 4 15-3 12 3-10-6 8-18 5-8-6-14-7-9-8 7-5-2-4 4-16-15-4-9-10 4-3-4-5 3v-17z" id="11238" />
      <path d="M-4 283l18-6 25-3v-15l-4-7-6 1-1 5-22-7-6-9 4-8-3-3-5 3zM-4 321l2 1 8-11v-11l2-2 6-5 3-8-2-1-19 11z" id="11245" />
      <path d="M106-4l-3 4-2 16 21 11-2 9 2 6 12 11 12 21 10 7 5 1 4 4 7-1 6 3 2-9-1-19 4-14-13-10-3-16-19-5-14-19z" id="11301" />
      <path d="M-4 361l3 2 14-7 3 11 13-4 9 4 2-3 3 1 4-10v-4v-1l-9-1v-7l-4 1 1-3-4-5-2 3-4-2-3-6 2-1-5 1 1-5-3 1-5-5-4 3 3-3-3-3 3-6-5-1-8 11-2-1z" id="11324" />
      <path d="M-4 125l8 3v-5l8 3 5-3 3 5 13-7-7-8-2-11-7 3-3-4-5 1-9-9v-2l6-2v-5l-9-5 3-5-2-2-2 1z" id="11346" />
      <path d="M278-4l1 1-2 6-7 2 8 8 3 9 4 1 4 4 12 9 3-3 11 3 13-1 3 3-1-7 6-10 7-7-1-7-14-11z" id="11442" />
      <path d="M190-4v17l5-3 3 4 10-4 4 9 16 15 4-4 5 2 8-7 7 9-1-5 7-2 5 9 13 5 9-18-4-1-3-9-8-8 7-2 2-6-1-1z" id="11445" />
      <path d="M384 14l-1-3h1zM328-4l14 11 1 7-7 7-6 10 20 2 4-10h13l1-4 4-2 2 2 1-3 8 8h1v-28z" id="11464" />
      <path d="M46 205v10l-5 10 11 12-2 3-7-2-4 3 3 7 13 6-2 11 7 4 19 1-11-17 10-2 2 3 7-3 1 3 23-1 6 4 3-17-1-3-7-1-4-10 4-1-4-5 4-4 1-8 1-12-3-6-4-11 6-16-2-14-15-16-12 5-7-2-15 9v7l-5 4-1 7 2 6h-2l-6-17-5 2-3-2v4l-1-2h-5l6 9-2 6-5-1-1 8 6 9-3 10zM30 147l-4 6 5 4 5-3z" id="11101" />
      <path d="M111 190l21-3v-6l10-4 3 9 7-4 5-6 21-10v-21l-8-3-17-22-11-23-7-2-17 11-3 1-2-3-10-1-6 2 6 7-1 3 11 21-2 13 2 14-6 16z" id="11102" />
      <path d="M187 215h2l-4-18h3l-8-11-2-20-21 10-5 6-7 4-3-9-10 4v6l-21 3 3 6-1 12-1 8-4 4 4 5-4 1 4 10 7 1 1 3 1-2 3-2 2-11 7 3 15 2-4-15 4-2 4 1 5 10 1-3 7 7 3 9 10-3 3 4 4-2-1-13-5-3 4-6z" id="11103" />
      <path d="M187 215l6 13 13 1v-7l8-2v-3l5 6 13 1v5l12 1 4-5 17 6 1-11-11-15-2-10 5-4-5-5 4-3 5 6 2-2-13-25-12-9-1-27-3-3-5-3 1-2-7-13-5-1v-4h-5l2-2-7-1-8 2-6 4-6-4-1 3v8l-6 13-5-1v-3l-7-4-17 5 17 22 8 3v21l2 20 8 11h-3l4 18z" id="11104" />
      <path d="M168 237l-3-9-7-7-1 3-5-10-4-1-4 2 4 15-15-2-7-3-2 11-3 2 10 8-3 4-7 1v7l14 1 8 16h3l-2-1 2-7 5 3 2 10 8 1 1 5 4-1 3 6 4 10 2-6v-13l3-2v-4l-6-5-2-20 6-2-4-1-3-6h-4l-1-6 4 5z" id="11105" />
      <path d="M126 338l4 6 4-6 5 1 19-9 6 1-2-3 6-2-4-19 7-6-2-10-3-6-4 1-1-5-8-1-2-10-5-3-2 7 2 1h-3l-8-16-14-1v-7l7-1 3-4-10-8-1 2-3 17-6-4-23 1-1-3-7 3-2-3-10 2 11 17 1 2 3 13 9 5 23 29 9 3-1 8z" id="11106" />
      <path d="M214 289l-3-13 5-6 1-22-9-13 4-8-6 2-13-1-6-13-4-1-4 6 5 3 1 13-4 2-3-4-10 3v4l-4-5 1 6h4l3 6 4 1-6 2 2 20 6 5v4l-3 2v13l5-1 2 7 4-2 3 2v8h9l3 7h8l7-14-4-7 4-3z" id="11107" />
      <path d="M230 342l-2-12 5-3-5-3 3-3-2-7h3l-5-5 3-2 17 8 11-3v-6l3-4h-6l7-6-6-11-10-1v-6l-1 6h-4l-2-5-12 1 2 8-2 3-6-6-7 4 2 3-4 3 4 7-7 14h-8l-3-7h-9v-8l-3-2-4 2-2-7-5 1-2 6-4-10 2 10-7 6 4 19-6 2 2 3-6-1-19 9 4 9 8-10 10 10 15-5 1 3 6 1-1-4 8-1 3-5 9 10 7 2 8-8v-5z" id="11108" />
      <path d="M214 289l7-4 6 6 2-3-2-8 12-1 2 5h4l1-6v6l10 1 6 11 6-8 3-1 4 6 2-1 1 5 6-4 1-2h-5l2-3 10-1-2-9 5-6-10-12 8-4 5 5 8-4 4 5 4-3 2 10 4 5 6-5-3 1 1-6-2 2v-4l4-1-5-9 10-3-5-7 3 1-33-40-16-3 2-4h-8l-6-8-4-1-2 2-5-6-4 3 5 5-5 4 2 10 11 15-1 11-17-6-4 5-12-1v-5l-13-1-5-6v3l-8 2v7l6-2-4 8 9 13-1 22-5 6z" id="11109" />
      <path d="M329 243l6 5 8 6-7-13 1-7-5-5 12-3 1-5-3-3 5-9-1-11-8-1-6-12 5-9h-2l-2-9 5-1 12-19h-4l-4-5-4-1 4-2-9-18-13-1-4-3 1-6-4 5-20 5 2-12 7-4h-11l-1-5-8-5 4 1v-4l-2-1v3v-3l-3 2 3-4-3-3 6 6 10-2 4-7 3-17-1-6-11-9 1-3-17-7-13-5-5-9-7 2 1 5 6 14-5 8-8 18 10 6-12-3-15 3-3-4-3 4-8-3-2 5-6-1-6 8h-4v8l5-2v4l8-2 7 1-2 2h5v4l5 1 7 13-1 2 5 3 3 3 1 27 12 9 13 25 4 1 6 8h8l-2 4 16 3z" id="11110" />
    </defs>
    <rect x="-10" y="-10" width="400" height="400" fill="white" />
    <rect x="0" y="0" width="380" height="380" fill="#deecf9" />
    <g stroke="black" stroke-width="0.5" stroke-linejoin="round">
      <a xlink:href="http://ja.wikipedia.org/wiki/東京都">
        <use xlink:href="#13000" fill="#e0fbe8" />
      </a>
      <a xlink:href="http://ja.wikipedia.org/wiki/川越市">
        <use xlink:href="#11201" fill="#d9aec0" />
      </a>
      <a xlink:href="http://ja.wikipedia.org/wiki/川口市">
        <use xlink:href="#11203" fill="#d9aec0" />
      </a>
      <a xlink:href="http://ja.wikipedia.org/wiki/所沢市">
        <use xlink:href="#11208" fill="#d9aec0" />
      </a>
      <a xlink:href="http://ja.wikipedia.org/wiki/春日部市">
        <use xlink:href="#11214" fill="#d9aec0" />
      </a>
      <a xlink:href="http://ja.wikipedia.org/wiki/上尾市">
        <use xlink:href="#11219" fill="#d9aec0" />
      </a>
      <a xlink:href="http://ja.wikipedia.org/wiki/草加市">
        <use xlink:href="#11221" fill="#d9aec0" />
      </a>
      <a xlink:href="http://ja.wikipedia.org/wiki/越谷市">
        <use xlink:href="#11222" fill="#d9aec0" />
      </a>
      <a xlink:href="http://ja.wikipedia.org/wiki/蕨市">
        <use xlink:href="#11223" fill="#d9aec0" />
      </a>
      <a xlink:href="http://ja.wikipedia.org/wiki/戸田市">
        <use xlink:href="#11224" fill="#d9aec0" />
      </a>
      <a xlink:href="http://ja.wikipedia.org/wiki/鳩ヶ谷市">
        <use xlink:href="#11226" fill="#d9aec0" />
      </a>
      <a xlink:href="http://ja.wikipedia.org/wiki/朝霞市">
        <use xlink:href="#11227" fill="#d9aec0" />
      </a>
      <a xlink:href="http://ja.wikipedia.org/wiki/志木市">
        <use xlink:href="#11228" fill="#d9aec0" />
      </a>
      <a xlink:href="http://ja.wikipedia.org/wiki/和光市">
        <use xlink:href="#11229" fill="#d9aec0" />
      </a>
      <a xlink:href="http://ja.wikipedia.org/wiki/新座市">
        <use xlink:href="#11230" fill="#d9aec0" />
      </a>
      <a xlink:href="http://ja.wikipedia.org/wiki/桶川市">
        <use xlink:href="#11231" fill="#d9aec0" />
      </a>
      <a xlink:href="http://ja.wikipedia.org/wiki/北本市">
        <use xlink:href="#11233" fill="#d9aec0" />
      </a>
      <a xlink:href="http://ja.wikipedia.org/wiki/富士見市">
        <use xlink:href="#11235" fill="#d9aec0" />
      </a>
      <a xlink:href="http://ja.wikipedia.org/wiki/蓮田市">
        <use xlink:href="#11238" fill="#d9aec0" />
      </a>
      <a xlink:href="http://ja.wikipedia.org/wiki/ふじみ野市">
        <use xlink:href="#11245" fill="#d9aec0" />
      </a>
      <a xlink:href="http://ja.wikipedia.org/wiki/伊奈町">
        <use xlink:href="#11301" fill="#d2ccaa" />
      </a>
      <a xlink:href="http://ja.wikipedia.org/wiki/三芳町">
        <use xlink:href="#11324" fill="#d2ccaa" />
      </a>
      <a xlink:href="http://ja.wikipedia.org/wiki/川島町">
        <use xlink:href="#11346" fill="#d2ccaa" />
      </a>
      <a xlink:href="http://ja.wikipedia.org/wiki/宮代町">
        <use xlink:href="#11442" fill="#d2ccaa" />
      </a>
      <a xlink:href="http://ja.wikipedia.org/wiki/白岡市">
        <use xlink:href="#11445" fill="#d9aec0" />
      </a>
      <a xlink:href="http://ja.wikipedia.org/wiki/杉戸町">
        <use xlink:href="#11464" fill="#d2ccaa" />
      </a>
      <a xlink:href="http://ja.wikipedia.org/wiki/西区">
        <use xlink:href="#11101" fill="#b2bbdb" />
      </a>
      <a xlink:href="http://ja.wikipedia.org/wiki/北区">
        <use xlink:href="#11102" fill="#b2bbdb" />
      </a>
      <a xlink:href="http://ja.wikipedia.org/wiki/大宮区">
        <use xlink:href="#11103" fill="#b2bbdb" />
      </a>
      <a xlink:href="http://ja.wikipedia.org/wiki/見沼区">
        <use xlink:href="#11104" fill="#b2bbdb" />
      </a>
      <a xlink:href="http://ja.wikipedia.org/wiki/中央区">
        <use xlink:href="#11105" fill="#2e5bfc" />
      </a>
      <a xlink:href="http://ja.wikipedia.org/wiki/桜区">
        <use xlink:href="#11106" fill="#b2bbdb" />
      </a>
      <a xlink:href="http://ja.wikipedia.org/wiki/浦和区">
        <use xlink:href="#11107" fill="#b2bbdb" />
      </a>
      <a xlink:href="http://ja.wikipedia.org/wiki/南区">
        <use xlink:href="#11108" fill="#b2bbdb" />
      </a>
      <a xlink:href="http://ja.wikipedia.org/wiki/緑区">
        <use xlink:href="#11109" fill="#b2bbdb" />
      </a>
      <a xlink:href="http://ja.wikipedia.org/wiki/岩槻区">
        <use xlink:href="#11110" fill="#b2bbdb" />
      </a>
    </g>
  </g>
  <g>
    <rect x="0" y="380" width="380" height="72" fill="white" />
    <rect x="206" y="428" width="166" height="16" fill="black" />
    <text x="289" y="418" font-family="Helvetica" font-size="40" fill="black" text-anchor="middle">10km</text>
  </g>
</svg>