<?xml version="1.0" encoding="UTF-8" standalone="no"?>
<svg
   xmlns:dc="http://purl.org/dc/elements/1.1/"
   xmlns:cc="http://creativecommons.org/ns#"
   xmlns:rdf="http://www.w3.org/1999/02/22-rdf-syntax-ns#"
   xmlns:svg="http://www.w3.org/2000/svg"
   xmlns="http://www.w3.org/2000/svg"
   viewBox="0 0 587.15002 281.29999"
   height="281.29999"
   width="587.15002"
   xml:space="preserve"
   version="1.1"
   id="svg2"><metadata
     id="metadata8"><rdf:RDF><cc:Work
         rdf:about=""><dc:format>image/svg+xml</dc:format><dc:type
           rdf:resource="http://purl.org/dc/dcmitype/StillImage" /><dc:title></dc:title></cc:Work></rdf:RDF></metadata><defs
     id="defs6"><clipPath
       id="clipPath18"
       clipPathUnits="userSpaceOnUse"><path
         style="clip-rule:evenodd"
         id="path20"
         d="m 300,300 0,6000 4500,0 0,-6000 -4500,0 z" /></clipPath></defs><g
     transform="matrix(0,1.25,1.25,0,-64.85,-60.65)"
     id="g10"><rect
       transform="matrix(0,1,1,0,0,0)"
       y="40.170158"
       x="41.507118"
       height="256.72882"
       width="505.67798"
       id="rect4267"
       style="opacity:1;fill:#ffffff;fill-opacity:1;fill-rule:nonzero;stroke:none;stroke-width:5;stroke-linecap:square;stroke-linejoin:miter;stroke-miterlimit:4;stroke-dasharray:none;stroke-dashoffset:0;stroke-opacity:1" /><path
       d="m 127.92,62.76 -0.24,2.52 0,7.44 0.24,2.64 0.12,2.64 0.36,2.52 0.36,2.64 0.48,2.64 0.48,2.76 0.6,2.64 0.6,2.64 0.72,2.64 0.84,2.64 0.84,2.76 0.6,1.68 0.96,-0.36 -0.6,-1.68 0,0 -0.84,-2.64 0,0 -0.84,-2.64 0,0 -0.72,-2.64 0,0 -0.6,-2.64 0,0 -0.6,-2.64 0,0 -0.48,-2.64 0,0 -0.48,-2.64 0,0 -0.36,-2.64 0,0 -0.24,-2.52 0,0 -0.24,-2.64 0,0 -0.12,-2.52 0,0 -0.12,-2.52 0,-2.52 0,0.12 0.12,-2.52 0,0 0.12,-2.4 -0.96,-0.12 z m 0.84,36.48 6,5.04 1.44,-7.68 c 0.12,-0.24 -0.12,-0.48 -0.36,-0.48 -0.24,-0.12 -0.48,0.12 -0.6,0.36 l -1.32,6.84 0.84,-0.36 -5.28,-4.44 c -0.24,-0.24 -0.6,-0.12 -0.72,0 -0.12,0.24 -0.12,0.6 0,0.72"
       style="fill:#000000;fill-opacity:1;fill-rule:nonzero;stroke:none"
       id="path24" /><path
       d="m 245.04,251.04 -0.84,-1.68 -0.84,-1.68 -0.96,-1.68 -0.96,-1.68 -1.08,-1.68 -1.08,-1.68 -1.2,-1.68 -1.2,-1.56 -0.84,0.6 1.2,1.56 0,0 1.2,1.68 0,0 1.08,1.56 0,0 1.08,1.68 0,0 0.96,1.68 0,0 0.96,1.68 0,-0.12 0.84,1.68 0,0 0.72,1.68"
       style="fill:#000000;fill-opacity:1;fill-rule:nonzero;stroke:none"
       id="path26" /><path
       d="m 133.92,103.44 0.6,2.52 0.6,2.52 0.72,2.52 0.84,2.64 0.84,2.64 0.84,2.64 0.96,2.64 0.96,2.64 2.16,5.52 2.28,5.52 2.52,5.4 2.64,5.52 0.96,-0.48 -2.64,-5.4 0,0 -2.52,-5.52 0,0 -2.28,-5.4 0,0 -2.16,-5.52 0,0.12 -0.96,-2.76 0,0 -0.96,-2.64 0,0 -0.84,-2.64 0,0 -0.84,-2.64 0,0 -0.84,-2.52 0,0 -0.6,-2.52 0,0 -0.72,-2.52 0,0 -0.6,-2.52"
       style="fill:#000000;fill-opacity:1;fill-rule:nonzero;stroke:none"
       id="path28" /><path
       d="m 160.68,67.8 -0.36,1.44 -0.24,1.44 -0.24,1.44 -0.24,1.56 -0.12,1.56 0,1.56 -0.12,1.56 0,1.68 0.12,1.56 0.12,1.68 0.36,3.36 0.48,3.36 0.72,3.48 0.96,3.48 1.08,3.6 1.2,3.48 1.56,3.6 1.56,3.6 1.8,3.6 1.92,3.6 1.68,2.64 0.84,-0.48 -1.68,-2.76 0.12,0 -2.04,-3.48 0,0 -1.8,-3.6 0.12,0.12 -1.68,-3.6 0,0 -1.44,-3.6 0,0 -1.2,-3.48 0,0 -1.08,-3.48 0,0 -0.96,-3.48 0,0 -0.72,-3.36 0,0 -0.48,-3.36 0,0 -0.36,-3.36 0,0 -0.12,-1.56 0,-4.8 0.12,-1.56 0,0.12 0.12,-1.56 0,0 0.12,-1.56 0,0 0.24,-1.44 0,0 0.36,-1.44 -0.12,0 0.36,-1.32 -0.96,-0.24 z m 6.36,50.16 6.84,3.72 -0.12,-7.8 c 0,-0.24 -0.24,-0.48 -0.48,-0.48 -0.36,0 -0.6,0.24 -0.6,0.48 l 0.12,6.96 0.72,-0.48 -6,-3.36 c -0.24,-0.12 -0.6,0 -0.72,0.24 -0.12,0.24 0,0.48 0.24,0.72"
       style="fill:#000000;fill-opacity:1;fill-rule:nonzero;stroke:none"
       id="path30" /><path
       d="m 172.92,120.48 1.92,4.2 2.04,4.08 2.16,4.2 2.4,4.2 2.52,4.2 2.52,4.2 2.76,4.2 2.88,4.2 3,4.08 3,4.08 3.12,3.96 3.24,3.96 3.36,3.96 3.48,3.84 3.48,3.72 2.88,3 0.72,-0.72 -2.88,-3 0,0 -3.48,-3.72 0,0 -3.48,-3.84 0,0 -3.24,-3.84 0,0 -3.24,-3.96 0,0 -3.12,-3.96 0,0 -3.12,-4.08 0,0 -2.88,-4.08 0,0 -2.88,-4.2 0,0 -2.76,-4.08 0,0 -2.52,-4.2 0,0 -2.52,-4.2 0,0 -2.28,-4.2 0,0 -2.28,-4.08 0,0 -2.04,-4.2 0,0 -1.92,-4.2 -0.84,0.48 z m 38.28,62.28 7.44,2.16 -1.8,-7.68 c -0.12,-0.24 -0.36,-0.36 -0.6,-0.36 -0.36,0.12 -0.48,0.36 -0.36,0.6 l 1.56,6.84 0.72,-0.6 -6.72,-1.92 c -0.24,0 -0.6,0.12 -0.6,0.36 -0.12,0.24 0,0.6 0.36,0.6"
       style="fill:#000000;fill-opacity:1;fill-rule:nonzero;stroke:none"
       id="path32" /><path
       d="m 136.68,124.56 c -1.68,-3.48 -5.76,-4.8 -9.12,-3.12 -3.48,1.68 -4.8,5.76 -3.12,9.12 1.68,3.48 5.76,4.8 9.12,3.12 3.48,-1.68 4.8,-5.76 3.12,-9.12"
       style="fill:#000000;fill-opacity:1;fill-rule:evenodd;stroke:none"
       id="path34" /><path
       d="m 137.16,124.32 -0.36,-0.72 -0.48,-0.6 -0.48,-0.48 -0.48,-0.6 -0.6,-0.36 -0.6,-0.36 -0.6,-0.36 -0.6,-0.24 -0.72,-0.24 -0.72,-0.12 -2.16,0 -0.72,0.24 -0.72,0.12 -0.6,0.36 -0.72,0.36 -0.6,0.48 -0.48,0.36 -0.6,0.6 -0.36,0.6 -0.36,0.6 -0.36,0.6 -0.24,0.6 -0.24,0.72 -0.12,0.72 0,2.16 0.12,0.72 0.24,0.6 0.36,0.72 0.36,0.72 0.36,0.6 0.48,0.48 0.6,0.6 0.6,0.36 0.6,0.36 0.6,0.36 0.6,0.24 0.72,0.24 0.72,0.12 2.16,0 0.72,-0.24 0.6,-0.12 0.72,-0.36 0.72,-0.36 0.6,-0.48 0.48,-0.36 0.6,-0.6 0.36,-0.6 0.36,-0.6 0.36,-0.6 0.24,-0.6 0.24,-0.72 0.12,-0.72 0,-2.16 -0.24,-0.72 -0.12,-0.6 -0.36,-0.72 z m -0.6,1.08 0,-0.12 0.12,0.72 0,-0.12 0.24,0.72 -0.12,-0.12 0.12,0.72 0,1.2 -0.12,0.6 0,0 -0.24,0.6 0,0 -0.24,0.6 0,0 -0.24,0.48 0,0 -0.36,0.6 0,-0.12 -0.36,0.6 0,0 -0.36,0.48 0,-0.12 -0.48,0.48 0,0 -0.6,0.36 0,0 -0.6,0.36 0.12,0 -0.72,0.24 0.12,0 -0.72,0.12 0.12,0 -0.72,0.24 0.12,-0.12 -0.72,0.12 -0.6,0 -0.6,0 0,0 -0.6,-0.12 0,0 -0.6,-0.24 0,0 -0.6,-0.24 0,0.12 -0.6,-0.36 0.12,0 -0.6,-0.36 0,0.12 -0.48,-0.48 0,0 -0.48,-0.36 0.12,0 -0.48,-0.48 0,0 -0.36,-0.6 0,0 -0.36,-0.6 0,0.12 -0.24,-0.72 0,0.12 -0.24,-0.72 0.12,0.12 -0.24,-0.72 0,0.12 0,-1.92 0.12,-0.6 0,0 0.24,-0.6 0,0 0.24,-0.6 -0.12,0 0.36,-0.48 0,0 0.36,-0.6 -0.12,0.12 0.48,-0.6 0,0 0.36,-0.48 0,0.12 0.48,-0.48 0,0 0.6,-0.36 -0.12,0 0.72,-0.36 -0.12,0 0.72,-0.24 -0.12,0 0.72,-0.12 -0.12,0 0.72,-0.24 -0.12,0.12 0.72,-0.12 0.6,0 0.6,0 0,0 0.6,0.12 0,0 0.6,0.24 0,0 0.6,0.24 0,-0.12 0.48,0.36 0,0 0.6,0.36 -0.12,-0.12 0.6,0.48 0,0 0.48,0.36 -0.12,0 0.48,0.48 0,0 0.36,0.6 0,-0.12 0.36,0.72 0,-0.12"
       style="fill:#000000;fill-opacity:1;fill-rule:nonzero;stroke:none"
       id="path36" /><path
       d="m 127.44,121.32 89.4,87.6 -3.24,3.24 -89.28,-87.6"
       style="fill:#000000;fill-opacity:1;fill-rule:nonzero;stroke:none"
       id="path38" /><path
       d="m 171.12,170.52 -66.12,64.56 -4.2,-4.32 66.12,-64.44 4.2,4.2 z m -59.76,66.84 -19.2,6.12 6.6,-19.08"
       style="fill:#ed7d31;fill-opacity:1;fill-rule:nonzero;stroke:none"
       id="path40" /><path
       d="m 116.28,100.8 0.12,0.6 0,1.08 -0.12,0.6 -0.24,1.2 -0.48,1.32 -0.6,1.44 -0.72,1.32 -0.96,1.56 -0.96,1.56 -1.2,1.56 -1.32,1.56 -1.44,1.68 -1.56,1.68 -1.68,1.68 -1.8,1.8 -1.92,1.8 -1.32,1.08 -0.6,-0.72 1.32,-1.2 0,0 1.92,-1.68 -0.12,0 1.8,-1.8 0,0 1.68,-1.68 0,0 1.56,-1.68 0,0 1.44,-1.56 0,0 1.32,-1.68 -0.12,0.12 1.2,-1.56 0,0 0.96,-1.56 0,0 0.96,-1.44 -0.12,0.12 0.72,-1.44 0,0 0.6,-1.32 0,0 0.48,-1.2 -0.12,0 0.36,-1.08 0,-0.6 0,0.12 0.12,-0.6 0,-0.48 -0.12,-0.48 0.96,-0.12 z m -9.6,22.32 -7.68,1.44 2.52,-7.32 c 0.12,-0.24 0.36,-0.48 0.6,-0.36 0.24,0.12 0.48,0.36 0.36,0.6 l -2.16,6.6 -0.6,-0.6 6.84,-1.32 c 0.24,-0.12 0.48,0.12 0.6,0.36 0,0.24 -0.24,0.6 -0.48,0.6"
       style="fill:#000000;fill-opacity:1;fill-rule:nonzero;stroke:none"
       id="path42" /><path
       d="m 123.84,125.64 -1.44,0 -0.72,0.12 -0.72,0.12 -0.72,0.24 -0.72,0.24 -1.32,0.6 -1.2,0.84 -1.32,0.84 -1.08,1.2 -1.08,1.2 -1.08,1.44 -0.84,1.44 -0.84,1.68 -0.72,1.68 -0.6,1.8 -0.48,1.92 -0.24,1.92 -0.24,2.04 -0.12,2.04 0.12,2.04 0.12,1.92 0.36,1.8 0.48,1.8 0.48,1.68 0.72,1.56 0.84,1.44 0.84,1.44 0.96,1.2 1.08,1.08 1.2,0.96 1.2,0.72 0.6,0.24 0.72,0.36 0.72,0.12 0.72,0.24 0.72,0.12 2.16,0 0.72,-0.12 0.72,-0.12 0.6,-0.24 0.72,-0.24 1.32,-0.6 1.32,-0.72 1.2,-0.96 1.2,-1.2 1.08,-1.2 0.96,-1.44 0.84,-1.44 0.84,-1.68 0.72,-1.68 0.6,-1.8 0.48,-1.92 0.36,-1.92 0.24,-2.04 0,-4.44 -0.12,-0.48 -0.96,0.12 0,0.36 0.12,1.44 0,1.44 -0.12,1.44 0,0 -0.12,2.04 0,0 -0.36,1.92 0,-0.12 -0.48,1.92 0,0 -0.6,1.68 0,0 -0.6,1.68 0,0 -0.84,1.56 0,0 -0.84,1.44 0,0 -0.96,1.32 0,0 -0.96,1.2 0,-0.12 -1.2,1.08 0.12,0 -1.2,0.96 0,0 -1.2,0.72 0.12,0 -1.32,0.6 0,0 -0.6,0.12 0,0 -0.72,0.24 0.12,0 -0.72,0.12 0,0 -0.6,0.12 -0.72,0 0.12,0 -0.72,0 -0.72,0 0.12,0 -0.72,-0.12 0,0 -0.6,-0.24 0,0 -0.6,-0.12 0,0 -0.6,-0.24 0,0 -0.6,-0.36 0,0.12 -1.2,-0.72 0.12,0 -1.2,-0.96 0.12,0.12 -1.08,-1.08 0,0 -0.84,-1.08 0,0 -0.84,-1.32 0,0 -0.84,-1.44 0.12,0.12 -0.72,-1.56 0,0 -0.48,-1.68 0,0.12 -0.48,-1.8 0,0.12 -0.36,-1.92 0,0.12 -0.12,-1.92 0,0 -0.12,-1.92 0,0 0.12,-1.92 0,0 0.24,-2.04 0,0 0.36,-1.92 0,0.12 0.36,-1.92 0,0 0.6,-1.68 0,0 0.72,-1.68 0,0 0.72,-1.56 0,0 0.96,-1.44 -0.12,0 0.96,-1.32 0,0 1.08,-1.2 0,0.12 1.08,-1.08 0,0 1.08,-0.96 0,0.12 1.2,-0.84 0,0 1.32,-0.6 -0.12,0.12 0.72,-0.24 -0.12,0 0.72,-0.24 0,0 0.6,-0.12 0,0 0.72,-0.12 -0.12,0 0.72,0 0.72,0 0,-0.96 z m 16.44,21.12 -4.68,-6.24 -3.12,7.08 c -0.12,0.24 0,0.6 0.24,0.72 0.24,0.12 0.48,0 0.6,-0.24 l 2.88,-6.36 -0.84,0.12 4.08,5.52 c 0.24,0.24 0.48,0.24 0.72,0.12 0.24,-0.12 0.24,-0.48 0.12,-0.72"
       style="fill:#000000;fill-opacity:1;fill-rule:nonzero;stroke:none"
       id="path44" /><path
       d="m 214.92,209.76 1.44,1.32 1.56,1.32 1.44,1.56 1.44,1.44 1.56,1.68 1.44,1.68 1.44,1.68 1.44,1.8 1.44,1.92 1.44,1.92 2.64,4.08 1.32,2.04 1.32,2.16 1.32,2.16 0.72,1.44 -0.84,0.48 -0.72,-1.44 0,0 -1.32,-2.16 0,0 -1.32,-2.16 0,0.12 -1.32,-2.16 0,0 -2.64,-3.96 0,0 -1.44,-1.92 0,0 -1.44,-1.92 0,0 -1.32,-1.8 0,0.12 -1.44,-1.8 0,0 -1.56,-1.68 0.12,0 -1.56,-1.56 0,0 -1.44,-1.56 0,0.12 -1.44,-1.56 0,0 -1.44,-1.32 0,0 -1.56,-1.32 0.72,-0.72 z m 22.2,21.48 -0.12,7.8 -6.72,-3.96 c -0.24,-0.12 -0.36,-0.48 -0.24,-0.72 0.12,-0.24 0.48,-0.36 0.72,-0.12 l 6,3.48 -0.72,0.48 0.12,-6.96 c 0,-0.36 0.24,-0.48 0.48,-0.48 0.24,0 0.48,0.24 0.48,0.48"
       style="fill:#000000;fill-opacity:1;fill-rule:nonzero;stroke:none"
       id="path46" /><path
       d="m 265.56,240.24 -2.64,-4.2 -2.64,-4.32 -2.76,-4.08 -2.88,-4.08 -2.88,-3.96 -2.88,-3.96 -3,-3.72 -3,-3.72 -3.12,-3.48 -3,-3.48 -3.12,-3.24 -3.12,-3.12 -3.12,-3 -3.12,-2.76 -3.12,-2.64 -3,-2.52 -0.6,0.72 3,2.52 0,0 3.12,2.64 0,0 3,2.76 0,0 3.12,3 0,0 3.12,3.12 0,0 3,3.24 0,0 3.12,3.36 0,0 3,3.6 0,0 3,3.6 0,0 3,3.72 0,0 2.88,3.96 0,0 2.88,3.96 0,0 2.88,4.08 0,-0.12 2.76,4.2 0,0 2.64,4.2 0,0 2.64,4.32"
       style="fill:#000000;fill-opacity:1;fill-rule:nonzero;stroke:none"
       id="path48" /><path
       d="m 114.6,59.88 -0.48,2.4 -0.36,2.4 -0.36,2.52 -0.24,2.52 -0.24,2.64 0,2.52 -0.12,2.64 0,2.64 0.12,2.76 0.24,2.64 0.24,2.76 0.24,2.76 0.48,2.76 0.36,2.64 0.6,2.76 0.36,1.8 0.96,-0.24 -0.36,-1.68 0,0 -0.48,-2.76 0,0 -0.48,-2.76 0,0 -0.36,-2.64 0,0 -0.36,-2.76 0,0 -0.24,-2.64 0,0 -0.12,-2.76 0,0 -0.12,-2.64 0,-5.28 0,0.12 0.12,-2.64 0,0 0.12,-2.52 0,0 0.24,-2.52 0,0 0.36,-2.52 0,0.12 0.36,-2.52 0,0 0.48,-2.4 -0.96,-0.12 z m -3.72,36.24 5.28,5.76 2.4,-7.44 c 0.12,-0.24 0,-0.48 -0.36,-0.6 -0.24,0 -0.48,0.12 -0.6,0.36 l -2.16,6.6 0.84,-0.24 -4.68,-5.04 c -0.12,-0.24 -0.48,-0.24 -0.72,-0.12 -0.12,0.24 -0.24,0.6 0,0.72"
       style="fill:#000000;fill-opacity:1;fill-rule:nonzero;stroke:none"
       id="path50" /><path
       d="m 99.6,123.12 -0.84,1.08 -0.96,1.08 -0.84,1.2 -0.84,1.2 -0.72,1.2 -0.72,1.32 -0.6,1.32 -0.6,1.44 -0.6,1.32 -0.48,1.44 -0.48,1.44 -0.48,1.44 -0.36,1.44 -0.24,1.56 -0.36,1.44 -0.12,1.56 -0.24,1.56 -0.12,1.56 0,4.56 0.12,1.56 0.12,1.56 0.24,1.44 0.24,1.56 0.24,1.44 0.36,1.44 0.48,1.44 0.48,1.44 0.48,1.32 0.6,1.44 0.6,1.32 0.96,1.68 1.08,1.68 1.2,1.44 1.2,1.44 1.32,1.2 1.32,1.08 1.32,0.96 1.44,0.84 1.56,0.72 1.56,0.48 1.56,0.36 1.56,0.24 1.56,0 1.68,-0.12 1.68,-0.24 0.6,-0.24 -0.24,-0.96 -0.6,0.12 0,0 -1.56,0.36 0,0 -1.56,0.12 0,0 -1.56,-0.12 0.12,0 -1.56,-0.12 0,0 -1.44,-0.36 0,0 -1.44,-0.48 0,0 -1.44,-0.6 0,0 -1.32,-0.84 0,0 -1.32,-0.84 0,0 -1.32,-1.08 0,0 -1.2,-1.2 0,0 -1.2,-1.32 0,0 -1.08,-1.44 0,0 -1.08,-1.56 0.12,0 -0.96,-1.68 0,0 -0.72,-1.32 0.12,0 -0.6,-1.32 0,0 -0.6,-1.32 0.12,0 -0.48,-1.32 0,0 -0.48,-1.44 0,0 -0.36,-1.44 0,0 -0.24,-1.44 0,0 -0.24,-1.44 0,0 -0.24,-1.44 0,0 -0.12,-1.56 0,0 -0.12,-1.44 0,-3 0.12,-1.56 0,0 0.12,-1.44 -0.12,0 0.24,-1.56 0,0 0.24,-1.44 0,0 0.24,-1.56 0,0.12 0.24,-1.56 0,0 0.36,-1.44 0,0 0.48,-1.44 0,0 0.48,-1.32 0,0 0.48,-1.44 0,0 0.48,-1.32 0,0 0.6,-1.32 0,0 0.72,-1.32 0,0 0.6,-1.32 0,0.12 0.84,-1.32 -0.12,0 0.84,-1.08 0,0 0.84,-1.2 0,0 0.84,-1.08 0,0 0.96,-1.08 -0.84,-0.6 z m 11.4,61.44 5.4,-5.52 -7.56,-2.04 c -0.24,0 -0.48,0.12 -0.6,0.36 -0.12,0.36 0.12,0.6 0.36,0.6 l 6.72,1.8 -0.24,-0.84 -4.8,5.04 c -0.24,0.12 -0.24,0.48 0,0.6 0.24,0.24 0.48,0.24 0.72,0"
       style="fill:#000000;fill-opacity:1;fill-rule:nonzero;stroke:none"
       id="path52" /><path
       d="m 115.56,179.76 3.24,-0.6 3.24,-0.84 3.24,-0.84 3.12,-0.96 3.12,-1.08 3,-1.2 3,-1.2 2.88,-1.44 2.76,-1.44 2.76,-1.44 2.64,-1.68 2.52,-1.68 2.4,-1.8 2.4,-1.8 2.16,-1.92 2.04,-1.92 -0.72,-0.72 -2.04,1.92 0,0 -2.16,1.92 0,0 -2.28,1.8 0,0 -2.4,1.68 0,0 -2.52,1.68 0,0 -2.52,1.56 0,0 -2.76,1.56 0,0 -2.76,1.44 0,0 -2.88,1.32 0,0 -2.88,1.32 0,-0.12 -3,1.2 0,0 -3.12,1.08 0,0 -3.12,0.96 0,0 -3.12,0.84 0,0 -3.24,0.72 0,0 -3.24,0.72"
       style="fill:#000000;fill-opacity:1;fill-rule:nonzero;stroke:none"
       id="path54" /><path
       d="m 63.96,86.16 -1.44,3.72 -1.2,3.72 -1.08,3.72 -0.96,3.84 -0.84,3.72 -0.72,3.84 -0.48,3.84 -0.36,3.84 -0.36,3.84 0,7.56 0.12,3.84 0.36,3.72 0.36,3.72 0.6,3.6 0.72,3.6 0.84,3.6 0.84,3.48 1.08,3.36 1.2,3.36 1.32,3.24 1.56,3.12 1.56,3.12 1.68,2.88 1.8,2.88 1.92,2.76 2.04,2.52 2.16,2.52 2.28,2.4 2.4,2.16 2.4,2.04 2.64,1.8 1.56,1.08 1.56,0.96 1.68,0.84 1.68,0.84 1.56,0.84 1.68,0.6 1.68,0.6 1.8,0.6 1.68,0.48 1.8,0.36 1.68,0.36 1.8,0.24 1.8,0.24 1.68,0 1.8,0.12 0.84,0 0,-1.08 -0.84,0 -1.68,0 0,0 -1.8,-0.12 0,0 -1.68,-0.12 0,0 -1.8,-0.24 0.12,0 -1.8,-0.36 0,0 -1.68,-0.36 0,0 -1.68,-0.48 0,0 -1.68,-0.6 0,0 -1.68,-0.6 0,0 -1.56,-0.6 0,0 -1.68,-0.72 0,0 -1.56,-0.84 0,0 -1.68,-0.84 0.12,0 -1.68,-0.96 0.12,0 -1.56,-0.96 0,0 -2.64,-1.92 0,0 -2.4,-2.04 0,0.12 -2.4,-2.16 0.12,0 -2.28,-2.4 0,0 -2.16,-2.4 0,0 -2.04,-2.52 0.12,0 -1.92,-2.76 0,0.12 -1.8,-2.88 0,0 -1.68,-2.88 0,0 -1.56,-3.12 0,0.12 -1.44,-3.24 0,0.12 -1.32,-3.24 0,0 -1.2,-3.36 0,0 -1.08,-3.36 0,0 -0.84,-3.48 0,0.12 -0.84,-3.6 0,0 -0.72,-3.48 0,0 -0.6,-3.72 0,0.12 -0.36,-3.72 0,0 -0.36,-3.72 0,0 -0.12,-3.72 0,-3.72 0.12,-3.84 0,0 0.24,-3.72 0,0 0.36,-3.84 0,0 0.48,-3.84 0,0.12 0.72,-3.84 0,0 0.84,-3.84 0,0.12 0.96,-3.84 0,0 1.08,-3.72 0,0 1.2,-3.72 0,0.12 1.44,-3.72 -0.96,-0.36 z m 42.96,117 6.72,-4.08 -6.84,-3.72 c -0.24,-0.24 -0.48,-0.12 -0.6,0.12 -0.12,0.24 -0.12,0.6 0.12,0.72 l 6.12,3.36 0,-0.84 -6,3.6 c -0.24,0.12 -0.24,0.48 -0.12,0.72 0.12,0.24 0.48,0.24 0.6,0.12"
       style="fill:#000000;fill-opacity:1;fill-rule:nonzero;stroke:none"
       id="path56" /><path
       d="m 112.2,198.96 2.76,-0.12 2.76,0 2.88,0.12 2.88,0.24 2.88,0.36 3,0.6 3,0.6 3,0.84 3.12,0.96 3.12,0.96 3.12,1.2 3.12,1.32 3.24,1.32 3.12,1.56 3.24,1.68 3.24,1.8 3.24,1.92 3.24,1.92 3.24,2.16 3.24,2.16 3.24,2.4 3.24,2.4 3.24,2.52 3.24,2.76 3.24,2.64 3.24,2.88 3.24,3 3.12,3 3.24,3.24 3.12,3.24 3.12,3.36 2.4,2.64 -0.72,0.72 -2.4,-2.76 0,0 -3.12,-3.24 0,0 -3.12,-3.24 0,0 -3.24,-3.24 0,0 -3.12,-3 0,0 -3.24,-3 0,0 -3.12,-2.76 0,0 -3.24,-2.76 0,0 -3.24,-2.64 0,0 -3.24,-2.52 0,0 -3.24,-2.4 0,0 -3.24,-2.4 0,0 -3.24,-2.16 0,0 -3.24,-2.16 0,0 -3.24,-1.92 0,0 -3.12,-1.92 0,0 -3.24,-1.8 0,0 -3.24,-1.56 0,0 -3.12,-1.56 0,0 -3.12,-1.44 0,0 -3.12,-1.2 0,0 -3.12,-1.2 0,0 -3.12,-1.08 0,0 -3,-0.84 0,0 -3,-0.84 0,0 -3,-0.6 0,0 -2.88,-0.48 0,0 -2.88,-0.48 0,0 -2.88,-0.24 0,0 -2.76,-0.12 -2.76,0 0,0 -2.76,0.12 0,-0.96 z m 97.8,49.2 1.56,7.56 -7.44,-2.4 c -0.24,0 -0.36,-0.36 -0.24,-0.6 0,-0.24 0.36,-0.36 0.6,-0.36 l 6.6,2.16 -0.6,0.6 -1.44,-6.84 c 0,-0.24 0.12,-0.48 0.36,-0.6 0.36,0 0.6,0.12 0.6,0.48"
       style="fill:#000000;fill-opacity:1;fill-rule:nonzero;stroke:none"
       id="path58" /><path
       d="m 219.24,267.48 -0.84,-1.68 -0.84,-1.68 -0.96,-1.68 -0.96,-1.68 -1.08,-1.68 -1.08,-1.68 -1.2,-1.56 -1.32,-1.56 -0.72,0.6 1.2,1.56 0,0 1.2,1.56 0,0 1.08,1.68 0,0 1.08,1.56 0,0 0.96,1.68 0,0 0.96,1.68 0,0 0.84,1.68 0,0 0.72,1.68"
       style="fill:#000000;fill-opacity:1;fill-rule:nonzero;stroke:none"
       id="path60" /><path
       d="m 127.92,510.72 -0.24,-2.52 0,-7.44 0.24,-2.64 0.12,-2.52 0.36,-2.64 0.36,-2.64 0.48,-2.64 0.48,-2.76 0.6,-2.64 0.6,-2.64 0.72,-2.64 0.84,-2.64 0.84,-2.76 0.6,-1.68 0.96,0.36 -0.6,1.68 0,0 -0.84,2.64 0,0 -0.84,2.64 0,0 -0.72,2.64 0,0 -0.6,2.64 0,0 -0.6,2.64 0,0 -0.48,2.64 0,0 -0.48,2.64 0,0 -0.36,2.64 0,0 -0.24,2.52 0,0 -0.24,2.64 0,0 -0.12,2.52 0,0 -0.12,2.52 0,2.52 0.12,2.4 0,0 0.12,2.4 -0.96,0.12 z m 0.84,-36.48 6,-5.04 1.44,7.68 c 0.12,0.24 -0.12,0.48 -0.36,0.6 -0.24,0 -0.48,-0.24 -0.6,-0.48 l -1.32,-6.84 0.84,0.36 -5.28,4.44 c -0.24,0.24 -0.6,0.12 -0.72,0 -0.12,-0.24 -0.12,-0.6 0,-0.72"
       style="fill:#000000;fill-opacity:1;fill-rule:nonzero;stroke:none"
       id="path62" /><path
       d="m 245.04,322.44 -0.84,1.68 -0.84,1.8 -0.96,1.68 -0.96,1.68 -1.08,1.56 -1.08,1.68 -1.2,1.68 -1.2,1.56 -0.84,-0.6 1.2,-1.56 0,0 1.2,-1.68 0,0 1.08,-1.56 0,0 1.08,-1.68 0,0 0.96,-1.68 0,0 0.96,-1.56 0,0 0.84,-1.68 0,0 0.72,-1.68"
       style="fill:#000000;fill-opacity:1;fill-rule:nonzero;stroke:none"
       id="path64" /><path
       d="m 133.92,470.04 0.6,-2.52 0.6,-2.52 0.72,-2.52 0.84,-2.64 0.84,-2.64 0.84,-2.64 0.96,-2.64 0.96,-2.64 2.16,-5.52 2.28,-5.4 2.52,-5.52 2.64,-5.52 0.96,0.48 -2.64,5.4 0,0 -2.52,5.52 0,0 -2.28,5.4 0,0 -2.16,5.52 0,-0.12 -0.96,2.76 0,0 -0.96,2.64 0,0 -0.84,2.64 0,0 -0.84,2.64 0,0 -0.84,2.52 0,0 -0.6,2.64 0,-0.12 -0.72,2.52 0,0 -0.6,2.52"
       style="fill:#000000;fill-opacity:1;fill-rule:nonzero;stroke:none"
       id="path66" /><path
       d="m 160.68,505.68 -0.36,-1.32 -0.24,-1.56 -0.24,-1.44 -0.24,-1.56 -0.12,-1.56 0,-1.56 -0.12,-1.56 0,-1.68 0.12,-1.56 0.12,-1.68 0.36,-3.36 0.48,-3.36 0.72,-3.48 0.96,-3.48 1.08,-3.6 1.2,-3.48 1.56,-3.6 1.56,-3.6 1.8,-3.6 1.92,-3.48 1.68,-2.76 0.84,0.48 -1.68,2.76 0.12,0 -2.04,3.48 0,0 -1.8,3.6 0.12,0 -1.68,3.48 0,0 -1.44,3.6 0,0 -1.2,3.48 0,0 -1.08,3.48 0,0 -0.96,3.48 0,0 -0.72,3.36 0,0 -0.48,3.36 0,0 -0.36,3.36 0,0 -0.12,1.56 0,4.8 0.12,1.56 0,0 0.12,1.44 0,0 0.12,1.56 0,0 0.24,1.44 0,0 0.36,1.44 -0.12,0 0.36,1.44 -0.96,0.12 z m 6.36,-50.16 6.84,-3.72 -0.12,7.8 c 0,0.24 -0.24,0.48 -0.48,0.48 -0.36,0 -0.6,-0.24 -0.6,-0.48 l 0.12,-6.96 0.72,0.48 -6,3.36 c -0.24,0.12 -0.6,0 -0.72,-0.24 -0.12,-0.24 0,-0.48 0.24,-0.72"
       style="fill:#000000;fill-opacity:1;fill-rule:nonzero;stroke:none"
       id="path68" /><path
       d="m 172.92,453 1.92,-4.2 2.04,-4.08 2.16,-4.2 2.4,-4.2 2.52,-4.2 2.52,-4.2 2.76,-4.2 2.88,-4.08 3,-4.2 3,-4.08 3.12,-3.96 3.24,-3.96 3.36,-3.96 3.48,-3.84 3.48,-3.72 2.88,-2.88 0.72,0.6 -2.88,3 0,0 -3.48,3.72 0,0 -3.48,3.84 0,0 -3.24,3.84 0,0 -3.24,3.96 0,0 -3.12,3.96 0,0 -3.12,4.08 0,0 -2.88,4.08 0,0 -2.88,4.2 0,0 -2.76,4.08 0,0 -2.52,4.2 0,0 -2.52,4.2 0,0 -2.28,4.2 0,0 -2.28,4.08 0,0 -2.04,4.2 0,0 -1.92,4.2 -0.84,-0.48 z m 38.28,-62.28 7.44,-2.16 -1.8,7.68 c -0.12,0.24 -0.36,0.36 -0.6,0.36 -0.36,-0.12 -0.48,-0.36 -0.36,-0.6 l 1.56,-6.84 0.72,0.6 -6.72,1.92 c -0.24,0.12 -0.6,-0.12 -0.6,-0.36 -0.12,-0.24 0,-0.48 0.36,-0.6"
       style="fill:#000000;fill-opacity:1;fill-rule:nonzero;stroke:none"
       id="path70" /><path
       d="m 136.68,448.8 c -1.68,3.48 -5.76,4.8 -9.12,3.12 -3.48,-1.68 -4.8,-5.76 -3.12,-9.12 1.68,-3.48 5.76,-4.8 9.12,-3.12 3.48,1.68 4.8,5.76 3.12,9.12"
       style="fill:#000000;fill-opacity:1;fill-rule:evenodd;stroke:none"
       id="path72" /><path
       d="m 137.16,449.04 -0.36,0.72 -0.48,0.6 -0.48,0.48 -0.48,0.6 -0.6,0.36 -0.6,0.36 -0.6,0.36 -0.6,0.24 -0.72,0.24 -0.72,0.12 -2.16,0 -0.72,-0.24 -0.72,-0.12 -0.6,-0.36 -0.72,-0.36 -0.6,-0.36 -0.48,-0.48 -0.6,-0.6 -0.36,-0.6 -0.36,-0.6 -0.36,-0.6 -0.24,-0.6 -0.24,-0.72 -0.12,-0.72 0,-2.16 0.12,-0.72 0.24,-0.6 0.36,-0.72 0.36,-0.72 0.36,-0.6 0.48,-0.48 0.6,-0.6 0.6,-0.36 0.6,-0.36 0.6,-0.36 0.6,-0.24 0.72,-0.24 0.72,-0.12 2.16,0 0.72,0.24 0.6,0.12 0.72,0.36 0.72,0.36 0.6,0.48 0.48,0.36 0.6,0.6 0.36,0.6 0.36,0.6 0.36,0.6 0.24,0.6 0.24,0.72 0.12,0.72 0,2.16 -0.24,0.72 -0.12,0.6 -0.36,0.72 z m -0.6,-1.08 0,0.12 0.12,-0.72 0,0.12 0.24,-0.72 -0.12,0.12 0.12,-0.72 0,-1.2 -0.12,-0.6 0,0 -0.24,-0.6 0,0 -0.24,-0.6 0,0 -0.24,-0.48 0,0 -0.36,-0.6 0,0.12 -0.36,-0.6 0,0 -0.36,-0.48 0,0.12 -0.48,-0.48 0,0 -0.6,-0.36 0,0 -0.6,-0.36 0.12,0 -0.72,-0.24 0.12,0 -0.72,-0.12 0.12,0 -0.72,-0.24 0.12,0.12 -0.72,-0.12 -0.6,0 -0.6,0 0,0 -0.6,0.12 0,0 -0.6,0.24 0,0 -0.6,0.24 0,-0.12 -0.6,0.36 0.12,0 -0.6,0.36 0,0 -0.48,0.36 0,0 -0.48,0.36 0.12,0 -0.48,0.48 0,0 -0.36,0.6 0,0 -0.36,0.6 0,-0.12 -0.24,0.72 0,-0.12 -0.24,0.72 0.12,-0.12 -0.24,0.72 0,-0.12 0,1.92 0.12,0.6 0,0 0.24,0.6 0,0 0.24,0.6 -0.12,0 0.36,0.6 0,-0.12 0.36,0.6 -0.12,0 0.48,0.48 0,0 0.36,0.48 0,-0.12 0.48,0.48 0,0 0.6,0.36 -0.12,0 0.72,0.36 -0.12,0 0.72,0.24 -0.12,0 0.72,0.12 -0.12,0 0.72,0.24 -0.12,0 0.72,0 0.6,0 0.6,0 0,0 0.6,-0.12 0,0 0.6,-0.24 0,0 0.6,-0.24 0,0.12 0.48,-0.36 0,0 0.6,-0.36 -0.12,0.12 0.6,-0.48 0,0 0.48,-0.36 -0.12,0 0.48,-0.48 0,0 0.36,-0.6 0,0.12 0.36,-0.72 0,0.12"
       style="fill:#000000;fill-opacity:1;fill-rule:nonzero;stroke:none"
       id="path74" /><path
       d="m 127.44,451.92 89.4,-87.6 -3.24,-3.24 -89.28,87.6"
       style="fill:#000000;fill-opacity:1;fill-rule:nonzero;stroke:none"
       id="path76" /><path
       d="M 171.12,402.96 105,338.4 l -4.2,4.32 66.12,64.44 4.2,-4.2 z m -59.76,-66.72 -19.2,-6.24 6.6,19.08"
       style="fill:#ed7d31;fill-opacity:1;fill-rule:nonzero;stroke:none"
       id="path78" /><path
       d="m 116.28,472.68 0.12,-0.6 0,-1.08 -0.12,-0.6 -0.24,-1.2 -0.48,-1.32 -0.6,-1.44 -0.72,-1.32 -0.96,-1.56 -0.96,-1.44 -1.2,-1.68 -1.32,-1.56 -1.44,-1.68 -1.56,-1.68 -1.68,-1.68 -1.8,-1.8 -1.92,-1.8 -1.32,-1.08 -0.6,0.72 1.32,1.2 0,0 1.92,1.68 -0.12,0 1.8,1.8 0,0 1.68,1.68 0,0 1.56,1.68 0,0 1.44,1.56 0,0 1.32,1.68 -0.12,-0.12 1.2,1.56 0,0 0.96,1.56 0,0 0.96,1.44 -0.12,0 0.72,1.32 0,0 0.6,1.32 0,0 0.48,1.2 -0.12,0 0.36,1.2 0,-0.12 0,0.6 0.12,0.48 0,0.48 -0.12,0.48 0.96,0.12 z m -9.6,-22.32 -7.68,-1.44 2.52,7.32 c 0.12,0.24 0.36,0.48 0.6,0.36 0.24,-0.12 0.48,-0.36 0.36,-0.6 l -2.16,-6.6 -0.6,0.6 6.84,1.32 c 0.24,0.12 0.48,-0.12 0.6,-0.36 0,-0.24 -0.24,-0.6 -0.48,-0.6"
       style="fill:#000000;fill-opacity:1;fill-rule:nonzero;stroke:none"
       id="path80" /><path
       d="m 123.84,447.84 -1.44,0 -0.72,-0.12 -0.72,-0.12 -0.72,-0.24 -0.72,-0.24 -1.32,-0.6 -1.2,-0.72 -1.32,-0.96 -1.08,-1.2 -1.08,-1.2 -1.08,-1.44 -0.84,-1.44 -0.84,-1.68 -0.72,-1.68 -0.6,-1.8 -0.48,-1.92 -0.24,-1.92 -0.24,-2.04 -0.12,-2.04 0.12,-2.04 0.12,-1.92 0.36,-1.8 0.48,-1.8 0.48,-1.68 0.72,-1.56 0.84,-1.44 0.84,-1.44 0.96,-1.2 1.08,-1.08 1.2,-0.84 1.2,-0.84 0.6,-0.24 0.72,-0.36 0.72,-0.12 0.72,-0.24 0.72,-0.12 2.16,0 0.72,0.12 0.72,0.12 0.6,0.24 0.72,0.24 1.32,0.6 1.32,0.84 1.2,0.84 1.2,1.2 1.08,1.2 0.96,1.44 0.84,1.44 0.84,1.68 0.72,1.68 0.6,1.8 0.48,1.92 0.36,1.92 0.24,2.04 0,4.44 -0.12,0.48 -0.96,-0.12 0,-0.36 0.12,-1.44 0,-1.44 -0.12,-1.44 0,0 -0.12,-2.04 0,0 -0.36,-1.92 0,0.12 -0.48,-1.92 0,0 -0.6,-1.68 0,0 -0.6,-1.68 0,0 -0.84,-1.56 0,0 -0.84,-1.44 0,0 -0.96,-1.32 0,0 -0.96,-1.2 0,0.12 -1.2,-1.08 0.12,0 -1.2,-0.96 0,0.12 -1.2,-0.84 0.12,0 -1.32,-0.6 0,0.12 -0.6,-0.24 0,0 -0.72,-0.24 0.12,0 -0.72,-0.12 0,0 -0.6,-0.12 -0.72,0 0.12,0 -0.72,0 0,0 -0.72,0.12 0.12,0 -0.72,0 0,0 -0.6,0.24 0,0 -0.6,0.12 0,0 -0.6,0.24 0,0 -0.6,0.36 0,0 -1.2,0.72 0.12,-0.12 -1.2,0.96 0.12,-0.12 -1.08,1.08 0,0 -0.84,1.08 0,0 -0.84,1.32 0,0 -0.84,1.44 0.12,-0.12 -0.72,1.56 0,0 -0.48,1.68 0,-0.12 -0.48,1.8 0,-0.12 -0.36,1.92 0,-0.12 -0.12,1.92 0,0 -0.12,1.92 0,0 0.12,2.04 0,-0.12 0.24,2.04 0,0 0.36,1.92 0,-0.12 0.36,1.92 0,0 0.6,1.68 0,0 0.72,1.68 0,0 0.72,1.56 0,0 0.96,1.44 -0.12,0 0.96,1.32 0,0 1.08,1.2 0,-0.12 1.08,1.08 0,0 1.08,0.96 0,0 1.2,0.72 0,0 1.32,0.6 -0.12,0 0.72,0.12 -0.12,0 0.72,0.24 0,0 0.6,0.12 0,0 0.72,0.12 -0.12,0 0.72,0 0.72,0 0,0.96 z m 16.44,-21.12 -4.68,6.24 -3.12,-7.08 c -0.12,-0.24 0,-0.6 0.24,-0.72 0.24,-0.12 0.48,0 0.6,0.24 l 2.88,6.36 -0.84,-0.12 4.08,-5.52 c 0.24,-0.24 0.48,-0.24 0.72,-0.12 0.24,0.12 0.24,0.48 0.12,0.72"
       style="fill:#000000;fill-opacity:1;fill-rule:nonzero;stroke:none"
       id="path82" /><path
       d="m 214.92,363.72 1.44,-1.32 1.56,-1.32 1.44,-1.56 1.44,-1.44 1.56,-1.68 1.44,-1.68 1.44,-1.68 1.44,-1.8 1.44,-1.92 1.44,-1.92 2.64,-4.08 1.32,-2.04 1.32,-2.16 1.32,-2.16 0.72,-1.44 -0.84,-0.48 -0.72,1.44 0,0 -1.32,2.16 0,0 -1.32,2.16 0,0 -1.32,2.04 0,0 -2.64,3.96 0,0 -1.44,1.92 0,0 -1.44,1.92 0,0 -1.32,1.8 0,0 -1.44,1.68 0,0 -1.56,1.68 0.12,0 -1.56,1.56 0,0 -1.44,1.56 0,0 -1.44,1.44 0,0 -1.44,1.32 0,0 -1.56,1.32 0.72,0.72 z m 22.2,-21.48 -0.12,-7.8 -6.72,3.96 c -0.24,0.12 -0.36,0.48 -0.24,0.72 0.12,0.24 0.48,0.36 0.72,0.12 l 6,-3.48 -0.72,-0.48 0.12,6.96 c 0,0.36 0.24,0.48 0.48,0.48 0.24,0 0.48,-0.24 0.48,-0.48"
       style="fill:#000000;fill-opacity:1;fill-rule:nonzero;stroke:none"
       id="path84" /><path
       d="m 265.56,333.24 -2.64,4.2 -2.64,4.32 -2.76,4.08 -2.88,4.08 -2.88,3.96 -2.88,3.96 -3,3.72 -3,3.72 -3.12,3.48 -3,3.48 -3.12,3.24 -3.12,3.12 -3.12,3 -3.12,2.88 -3.12,2.64 -3,2.4 -0.6,-0.72 3,-2.52 0,0 3.12,-2.64 0,0 3,-2.76 0,0 3.12,-3 0,0 3.12,-3.12 0,0 3,-3.24 0,0 3.12,-3.36 0,0 3,-3.6 0,0 3,-3.6 0,0 3,-3.72 0,0 2.88,-3.96 0,0 2.88,-3.96 0,0 2.88,-3.96 0,0 2.76,-4.2 0,0 2.64,-4.2 0,0 2.64,-4.32"
       style="fill:#000000;fill-opacity:1;fill-rule:nonzero;stroke:none"
       id="path86" /><path
       d="m 114.6,513.6 -0.48,-2.4 -0.36,-2.4 -0.36,-2.52 -0.24,-2.52 -0.24,-2.52 0,-2.64 -0.12,-2.64 0,-2.64 0.12,-2.76 0.24,-2.64 0.24,-2.76 0.24,-2.76 0.48,-2.64 0.36,-2.76 0.6,-2.76 0.36,-1.8 0.96,0.24 -0.36,1.68 0,0 -0.48,2.76 0,0 -0.48,2.76 0,0 -0.36,2.64 0,0 -0.36,2.76 0,0 -0.24,2.64 0,0 -0.12,2.76 0,0 -0.12,2.64 0,5.28 0.12,2.52 0,0 0.12,2.52 0,0 0.24,2.52 0,0 0.36,2.52 0,0 0.36,2.4 0,0 0.48,2.4 -0.96,0.12 z m -3.72,-36.24 5.28,-5.76 2.4,7.44 c 0.12,0.24 0,0.48 -0.36,0.6 -0.24,0.12 -0.48,-0.12 -0.6,-0.36 l -2.16,-6.6 0.84,0.24 -4.68,5.04 c -0.12,0.24 -0.48,0.24 -0.72,0.12 -0.12,-0.24 -0.24,-0.48 0,-0.72"
       style="fill:#000000;fill-opacity:1;fill-rule:nonzero;stroke:none"
       id="path88" /><path
       d="m 99.6,450.36 -0.84,-1.08 -0.96,-1.08 -0.84,-1.2 -0.84,-1.2 -0.72,-1.2 -0.72,-1.32 -0.6,-1.32 -0.6,-1.32 -0.6,-1.44 -0.48,-1.44 -0.48,-1.44 -0.48,-1.44 -0.36,-1.44 -0.24,-1.56 -0.36,-1.44 -0.12,-1.56 -0.24,-1.56 -0.12,-1.56 0,-4.56 0.12,-1.56 0.12,-1.56 0.24,-1.44 0.24,-1.56 0.24,-1.44 0.36,-1.44 0.48,-1.44 0.48,-1.44 0.48,-1.32 0.6,-1.44 0.6,-1.32 0.96,-1.68 1.08,-1.68 1.2,-1.44 1.2,-1.44 1.32,-1.2 1.32,-1.08 1.32,-0.96 1.44,-0.84 1.56,-0.72 1.56,-0.48 1.56,-0.36 1.56,-0.24 1.56,0 1.68,0.12 1.68,0.36 0.6,0.12 -0.24,0.96 -0.6,-0.12 0,0 -1.56,-0.36 0,0 -1.56,-0.12 0,0 -1.56,0.12 0.12,0 -1.56,0.12 0,0 -1.44,0.36 0,0 -1.44,0.48 0,0 -1.44,0.6 0,0 -1.32,0.84 0,0 -1.32,0.84 0,0 -1.32,1.08 0,0 -1.2,1.2 0,0 -1.2,1.32 0,0 -1.08,1.44 0,0 -1.08,1.56 0.12,0 -0.96,1.68 0,0 -0.72,1.32 0.12,0 -0.6,1.32 0,0 -0.6,1.32 0.12,0 -0.48,1.44 0,-0.12 -0.48,1.44 0,0 -0.36,1.44 0,0 -0.24,1.44 0,0 -0.24,1.44 0,0 -0.24,1.56 0,-0.12 -0.12,1.56 0,0 -0.12,1.44 0,3 0.12,1.56 0,0 0.12,1.44 -0.12,0 0.24,1.56 0,0 0.24,1.44 0,0 0.24,1.56 0,0 0.24,1.44 0,0 0.36,1.44 0,0 0.48,1.44 0,0 0.48,1.44 0,-0.12 0.48,1.44 0,0 0.48,1.32 0,0 0.6,1.32 0,0 0.72,1.32 0,0 0.6,1.32 0,-0.12 0.84,1.32 -0.12,0 0.84,1.2 0,-0.12 0.84,1.2 0,0 0.84,1.08 0,0 0.96,1.08 -0.84,0.6 z m 11.4,-61.44 5.4,5.52 -7.56,2.04 c -0.24,0 -0.48,-0.12 -0.6,-0.36 -0.12,-0.24 0.12,-0.6 0.36,-0.6 l 6.72,-1.8 -0.24,0.84 -4.8,-5.04 c -0.24,-0.12 -0.24,-0.48 0,-0.6 0.24,-0.24 0.48,-0.24 0.72,0"
       style="fill:#000000;fill-opacity:1;fill-rule:nonzero;stroke:none"
       id="path90" /><path
       d="m 115.56,393.72 3.24,0.6 3.24,0.84 3.24,0.84 3.12,0.96 3.12,1.08 3,1.2 3,1.2 2.88,1.44 2.76,1.44 2.76,1.44 2.64,1.68 2.52,1.68 2.4,1.8 2.4,1.8 2.16,1.92 2.04,1.92 -0.72,0.72 -2.04,-1.92 0,0 -2.16,-1.92 0,0 -2.28,-1.8 0,0 -2.4,-1.68 0,0 -2.52,-1.68 0,0 -2.52,-1.56 0,0 -2.76,-1.56 0,0 -2.76,-1.44 0,0 -2.88,-1.32 0,0 -2.88,-1.2 0,0 -3,-1.2 0,0 -3.12,-1.08 0,0 -3.12,-0.96 0,0 -3.12,-0.84 0,0 -3.24,-0.72 0,0 -3.24,-0.72"
       style="fill:#000000;fill-opacity:1;fill-rule:nonzero;stroke:none"
       id="path92" /><path
       d="m 63.96,487.32 -1.44,-3.72 -1.2,-3.72 -1.08,-3.72 -0.96,-3.84 -0.84,-3.72 -0.72,-3.84 -0.48,-3.84 -0.36,-3.84 -0.36,-3.84 0,-7.56 0.12,-3.84 0.36,-3.72 0.36,-3.72 0.6,-3.6 0.72,-3.6 0.84,-3.6 0.84,-3.48 1.08,-3.36 1.2,-3.36 1.32,-3.24 1.56,-3.12 1.56,-3.12 1.68,-2.88 1.8,-2.88 1.92,-2.76 2.04,-2.52 2.16,-2.52 2.28,-2.28 2.4,-2.28 2.4,-2.04 2.64,-1.8 1.56,-1.08 1.56,-0.96 1.68,-0.84 1.68,-0.84 1.56,-0.84 1.68,-0.6 1.68,-0.6 1.8,-0.6 1.68,-0.48 1.8,-0.36 1.68,-0.36 1.8,-0.24 1.8,-0.12 1.68,-0.12 1.8,-0.12 0.84,0 0,1.08 -0.84,0 -1.68,0 0,0 -1.8,0.12 0,0 -1.68,0.12 0,0 -1.8,0.24 0.12,0 -1.8,0.36 0,0 -1.68,0.36 0,0 -1.68,0.48 0,0 -1.68,0.6 0,0 -1.68,0.6 0,0 -1.56,0.6 0,0 -1.68,0.72 0,0 -1.56,0.84 0,0 -1.68,0.84 0.12,0 -1.68,0.96 0.12,0 -1.56,1.08 0,-0.12 -2.64,1.92 0,0 -2.4,2.04 0,-0.12 -2.4,2.28 0.12,-0.12 -2.28,2.4 0,0 -2.16,2.4 0,0 -2.04,2.52 0.12,0 -1.92,2.76 0,0 -1.8,2.76 0,0 -1.68,2.88 0,0 -1.56,3.12 0,-0.12 -1.44,3.24 0,-0.12 -1.32,3.24 0,0 -1.2,3.36 0,0 -1.08,3.36 0,0 -0.84,3.48 0,-0.12 -0.84,3.6 0,0 -0.72,3.6 0,-0.12 -0.6,3.72 0,0 -0.36,3.6 0,0 -0.36,3.72 0,0 -0.12,3.72 0,3.72 0.12,3.84 0,0 0.24,3.72 0,0 0.36,3.84 0,0 0.48,3.84 0,0 0.72,3.72 0,0 0.84,3.84 0,0 0.96,3.72 0,0 1.08,3.72 0,0 1.2,3.72 0,-0.12 1.44,3.72 -0.96,0.36 z m 42.96,-117 6.72,4.08 -6.84,3.84 c -0.24,0.12 -0.48,0 -0.6,-0.24 -0.12,-0.24 -0.12,-0.6 0.12,-0.72 l 6.12,-3.36 0,0.84 -6,-3.6 c -0.24,-0.12 -0.24,-0.48 -0.12,-0.72 0.12,-0.24 0.48,-0.24 0.6,-0.12"
       style="fill:#000000;fill-opacity:1;fill-rule:nonzero;stroke:none"
       id="path94" /><path
       d="m 112.2,374.52 2.76,0.12 2.76,0 2.88,-0.12 2.88,-0.24 2.88,-0.36 3,-0.6 3,-0.6 3,-0.84 3.12,-0.84 3.12,-1.08 3.12,-1.2 3.12,-1.32 3.24,-1.32 3.12,-1.56 3.24,-1.68 3.24,-1.8 3.24,-1.8 3.24,-2.04 3.24,-2.16 3.24,-2.16 3.24,-2.4 3.24,-2.4 3.24,-2.52 3.24,-2.64 3.24,-2.76 3.24,-2.88 3.24,-3 3.12,-3 3.24,-3.24 3.12,-3.24 3.12,-3.36 2.4,-2.64 -0.72,-0.72 -2.4,2.76 0,0 -3.12,3.24 0,0 -3.12,3.24 0,0 -3.24,3.24 0,0 -3.12,3 0,0 -3.24,3 0,0 -3.12,2.76 0,0 -3.24,2.76 0,0 -3.24,2.64 0,0 -3.24,2.52 0,0 -3.24,2.52 0,-0.12 -3.24,2.4 0,0 -3.24,2.16 0,0 -3.24,2.16 0,0 -3.24,1.92 0,0 -3.12,1.92 0,0 -3.24,1.8 0,0 -3.24,1.56 0,0 -3.12,1.56 0,0 -3.12,1.44 0,0 -3.12,1.2 0,0 -3.12,1.2 0,0 -3.12,1.08 0,0 -3,0.84 0,0 -3,0.84 0,0 -3,0.6 0,0 -2.88,0.6 0,0 -2.88,0.36 0,0 -2.88,0.24 0,0 -2.76,0.12 -2.76,0 0,0 -2.76,-0.12 0,0.96 z m 97.8,-49.08 1.56,-7.68 -7.44,2.4 c -0.24,0 -0.36,0.36 -0.24,0.6 0,0.24 0.36,0.36 0.6,0.36 l 6.6,-2.16 -0.6,-0.6 -1.44,6.84 c 0,0.24 0.12,0.48 0.36,0.6 0.36,0 0.6,-0.12 0.6,-0.36"
       style="fill:#000000;fill-opacity:1;fill-rule:nonzero;stroke:none"
       id="path96" /><path
       d="m 219.24,306 -0.84,1.68 -0.84,1.68 -0.96,1.68 -0.96,1.68 -1.08,1.68 -1.08,1.68 -1.2,1.56 -1.32,1.68 -0.72,-0.72 1.2,-1.56 0,0 1.2,-1.56 0,0 1.08,-1.68 0,0 1.08,-1.56 0,0 0.96,-1.68 0,0 0.96,-1.68 0,0 0.84,-1.68 0,0 0.72,-1.68"
       style="fill:#000000;fill-opacity:1;fill-rule:nonzero;stroke:none"
       id="path98" /></g></svg>