<?xml version="1.0" encoding="UTF-8" standalone="no"?>
<!-- Created with Inkscape (http://www.inkscape.org/) -->
<svg xmlns:dc="http://purl.org/dc/elements/1.1/" xmlns:cc="http://creativecommons.org/ns#" xmlns:rdf="http://www.w3.org/1999/02/22-rdf-syntax-ns#" xmlns:svg="http://www.w3.org/2000/svg" xmlns="http://www.w3.org/2000/svg" xmlns:sodipodi="http://sodipodi.sourceforge.net/DTD/sodipodi-0.dtd" xmlns:inkscape="http://www.inkscape.org/namespaces/inkscape" width="230.16574" height="231.01003" id="svg5045" version="1.1" inkscape:version="0.48.1 r9760" sodipodi:docname="New document 5">
  <defs id="defs5047">
    <clipPath id="clipPath5280" clipPathUnits="userSpaceOnUse">
      <path id="path5282" d="m 0,452.167 595.276,0 0,-284.922 -595.276,0 0,284.922 z" inkscape:connector-curvature="0"/>
    </clipPath>
    <clipPath id="clipPath5276" clipPathUnits="userSpaceOnUse">
      <path id="path5278" d="m -1,453.167 597.276,0 0,-286.923 -597.276,0 0,286.923 z" inkscape:connector-curvature="0"/>
    </clipPath>
    <clipPath id="clipPath5260" clipPathUnits="userSpaceOnUse">
      <path id="path5262" d="m 0,0 595.276,0 0,841.89 L 0,841.89 0,0 z" inkscape:connector-curvature="0"/>
    </clipPath>
    <clipPath id="clipPath5128" clipPathUnits="userSpaceOnUse">
      <path id="path5130" d="m 0,0 595.276,0 0,841.89 L 0,841.89 0,0 z" inkscape:connector-curvature="0"/>
    </clipPath>
    <clipPath id="clipPath5112" clipPathUnits="userSpaceOnUse">
      <path id="path5114" d="m 0,0 595.276,0 0,841.89 L 0,841.89 0,0 z" inkscape:connector-curvature="0"/>
    </clipPath>
  </defs>
  <sodipodi:namedview id="base" pagecolor="#ffffff" bordercolor="#666666" borderopacity="1.0" inkscape:pageopacity="0.0" inkscape:pageshadow="2" inkscape:zoom="0.93914296" inkscape:cx="216.90069" inkscape:cy="122.73462" inkscape:document-units="px" inkscape:current-layer="layer1" showgrid="false" fit-margin-top="0" fit-margin-left="0" fit-margin-right="0" fit-margin-bottom="0" inkscape:window-width="1280" inkscape:window-height="752" inkscape:window-x="0" inkscape:window-y="0" inkscape:window-maximized="0"/>
  <metadata id="metadata5050">
    <rdf:RDF>
      <cc:Work rdf:about="">
        <dc:format>image/svg+xml</dc:format>
        <dc:type rdf:resource="http://purl.org/dc/dcmitype/StillImage"/>
        <dc:title/>
      </cc:Work>
    </rdf:RDF>
  </metadata>
  <g inkscape:label="Layer 1" inkscape:groupmode="layer" id="layer1" transform="translate(-189.84247,-620.51032)">
    <g id="g7908" transform="matrix(3.44633,0,0,3.44633,-745.94806,-1800.5365)">
      <g transform="matrix(1.25,0,0,-1.25,205.09598,869.03573)" id="g5124">
        <g clip-path="url(#clipPath5128)" id="g5126">
          <g transform="translate(66.1062,127.3545)" id="g5140">
            <path id="path5142" style="fill:#004a8f;fill-opacity:1;fill-rule:nonzero;stroke:none" d="m 0,0 c 0.158,0 0.271,0.046 0.384,0.137 0.059,0.058 0.093,0.143 0.114,0.23 0.011,0.041 0.021,0.084 0.021,0.13 0,0.158 -0.044,0.271 -0.158,0.359 C 0.271,0.948 0.158,1.015 0,1.015 -0.136,1.015 -0.27,0.948 -0.36,0.856 -0.45,0.768 -0.518,0.655 -0.518,0.497 -0.518,0.361 -0.45,0.226 -0.36,0.137 -0.27,0.046 -0.136,0 0,0" inkscape:connector-curvature="0"/>
          </g>
          <g transform="translate(57.3179,117.3499)" id="g5144">
            <path id="path5146" style="fill:#004a8f;fill-opacity:1;fill-rule:nonzero;stroke:none" d="M 0,0 C 0.136,0 0.247,0.045 0.34,0.136 0.407,0.226 0.475,0.338 0.475,0.451 0.475,0.586 0.407,0.698 0.34,0.789 0.247,0.857 0.136,0.924 0,0.924 -0.134,0.924 -0.247,0.857 -0.337,0.789 -0.427,0.698 -0.471,0.586 -0.471,0.451 -0.471,0.338 -0.427,0.226 -0.337,0.136 -0.247,0.045 -0.134,0 0,0" inkscape:connector-curvature="0"/>
          </g>
          <g transform="translate(67.0081,124.4705)" id="g5148">
            <path id="path5150" style="fill:#004a8f;fill-opacity:1;fill-rule:nonzero;stroke:none" d="m 0,0 c 0.049,0 0.095,0.009 0.142,0.024 0.087,0.019 0.167,0.051 0.242,0.11 0.06,0.06 0.091,0.143 0.111,0.229 0.014,0.042 0.022,0.087 0.022,0.132 0,0.136 -0.043,0.271 -0.156,0.362 C 0.271,0.946 0.157,1.013 0,1.013 c -0.136,0 -0.27,-0.067 -0.361,-0.156 -0.09,-0.091 -0.157,-0.226 -0.157,-0.362 0,-0.134 0.067,-0.27 0.157,-0.361 C -0.304,0.078 -0.227,0.045 -0.145,0.025 -0.099,0.011 -0.051,0 0,0" inkscape:connector-curvature="0"/>
          </g>
          <g transform="translate(59.5264,116.0426)" id="g5152">
            <path id="path5154" style="fill:#004a8f;fill-opacity:1;fill-rule:nonzero;stroke:none" d="m 0,0 c -0.111,-0.09 -0.158,-0.225 -0.158,-0.361 0,-0.134 0.047,-0.27 0.158,-0.36 0.058,-0.056 0.133,-0.087 0.216,-0.11 0.046,-0.016 0.094,-0.025 0.144,-0.025 0.052,0 0.101,0.009 0.147,0.025 0.082,0.023 0.158,0.054 0.214,0.11 0.114,0.09 0.157,0.226 0.157,0.36 C 0.878,-0.225 0.835,-0.09 0.721,0 0.631,0.091 0.496,0.157 0.36,0.157 0.226,0.157 0.091,0.091 0,0" inkscape:connector-curvature="0"/>
          </g>
          <g transform="translate(53.6692,105.0699)" id="g5156">
            <path id="path5158" style="fill:#004a8f;fill-opacity:1;fill-rule:nonzero;stroke:none" d="m 0,0 c 0.134,0 0.27,0.066 0.359,0.157 l -0.01,0.011 c 0.089,0.089 0.146,0.214 0.146,0.349 l 0.022,0 C 0.517,0.651 0.472,0.788 0.359,0.878 0.302,0.934 0.226,0.967 0.145,0.988 0.097,1.003 0.05,1.013 0,1.013 -0.053,1.013 -0.1,1.003 -0.146,0.988 -0.228,0.967 -0.304,0.934 -0.361,0.878 -0.474,0.788 -0.52,0.651 -0.52,0.517 -0.52,0.382 -0.474,0.246 -0.361,0.157 -0.271,0.066 -0.137,0 0,0" inkscape:connector-curvature="0"/>
          </g>
          <g transform="translate(57.6902,92.3574)" id="g5160">
            <path id="path5162" style="fill:#004a8f;fill-opacity:1;fill-rule:nonzero;stroke:none" d="M 0,0 C -0.047,0.014 -0.095,0.025 -0.146,0.025 -0.198,0.025 -0.245,0.014 -0.292,0 -0.374,-0.021 -0.45,-0.052 -0.506,-0.109 -0.619,-0.2 -0.665,-0.336 -0.665,-0.47 c 0,-0.137 0.046,-0.271 0.159,-0.362 0.089,-0.089 0.224,-0.157 0.36,-0.157 0.135,0 0.271,0.068 0.361,0.157 0.111,0.091 0.158,0.225 0.158,0.362 0,0.134 -0.047,0.27 -0.158,0.361 C 0.157,-0.052 0.08,-0.021 0,0" inkscape:connector-curvature="0"/>
          </g>
          <g transform="translate(91.8181,125.2366)" id="g5164">
            <path id="path5166" style="fill:#004a8f;fill-opacity:1;fill-rule:nonzero;stroke:none" d="m 0,0 c 0.09,0.091 0.158,0.226 0.158,0.361 0,0.135 -0.068,0.27 -0.158,0.36 -0.091,0.091 -0.226,0.157 -0.383,0.157 -0.135,0 -0.271,-0.066 -0.361,-0.157 -0.09,-0.09 -0.157,-0.203 -0.157,-0.36 0,-0.135 0.067,-0.27 0.157,-0.361 0.09,-0.09 0.226,-0.135 0.361,-0.135 0.157,0 0.292,0.045 0.383,0.135" inkscape:connector-curvature="0"/>
          </g>
          <g transform="translate(92.1559,128.6172)" id="g5168">
            <path id="path5170" style="fill:#004a8f;fill-opacity:1;fill-rule:nonzero;stroke:none" d="m 0,0 c 0.158,0 0.294,0.045 0.383,0.134 0.091,0.09 0.159,0.226 0.159,0.361 0,0.16 -0.068,0.27 -0.159,0.361 C 0.294,0.945 0.158,1.015 0,1.015 -0.134,1.015 -0.27,0.945 -0.36,0.856 -0.45,0.765 -0.518,0.655 -0.518,0.495 -0.518,0.36 -0.45,0.224 -0.36,0.134 -0.27,0.045 -0.134,0 0,0" inkscape:connector-curvature="0"/>
          </g>
          <g transform="translate(100.8435,118.2755)" id="g5172">
            <path id="path5174" style="fill:#004a8f;fill-opacity:1;fill-rule:nonzero;stroke:none" d="m 0,0 c 0.046,-0.014 0.096,-0.024 0.146,-0.024 0.052,0 0.103,0.01 0.15,0.023 C 0.388,0.02 0.47,0.052 0.529,0.112 0.618,0.2 0.687,0.336 0.687,0.471 0.687,0.607 0.618,0.742 0.529,0.832 0.439,0.922 0.304,0.99 0.146,0.99 0.012,0.99 -0.125,0.922 -0.216,0.832 -0.305,0.742 -0.372,0.607 -0.372,0.471 -0.372,0.336 -0.305,0.2 -0.216,0.112 -0.159,0.053 -0.081,0.022 0,0" inkscape:connector-curvature="0"/>
          </g>
          <g transform="translate(99.0066,115.5475)" id="g5176">
            <path id="path5178" style="fill:#004a8f;fill-opacity:1;fill-rule:nonzero;stroke:none" d="m 0,0 c 0.054,0 0.102,0.009 0.151,0.023 0.09,0.021 0.173,0.054 0.231,0.111 0.091,0.092 0.16,0.226 0.16,0.361 0,0.136 -0.069,0.271 -0.16,0.361 C 0.294,0.947 0.158,1.013 0,1.013 -0.136,1.013 -0.27,0.947 -0.36,0.856 -0.45,0.766 -0.517,0.631 -0.517,0.495 -0.517,0.36 -0.45,0.226 -0.36,0.134 -0.304,0.078 -0.227,0.046 -0.146,0.024 -0.099,0.009 -0.052,0 0,0" inkscape:connector-curvature="0"/>
          </g>
          <g transform="translate(104.8868,107.0067)" id="g5180">
            <path id="path5182" style="fill:#004a8f;fill-opacity:1;fill-rule:nonzero;stroke:none" d="m 0,0 -0.022,0 c -0.135,0 -0.269,-0.067 -0.361,-0.158 -0.088,-0.089 -0.158,-0.225 -0.158,-0.36 0,-0.136 0.07,-0.27 0.158,-0.361 0.092,-0.09 0.226,-0.159 0.361,-0.159 l 0.022,0 c 0.136,0 0.271,0.069 0.361,0.159 0.091,0.091 0.157,0.225 0.157,0.361 0,0.135 -0.066,0.271 -0.157,0.36 C 0.271,-0.067 0.136,-0.022 0,0" inkscape:connector-curvature="0"/>
          </g>
          <g transform="translate(102.3004,92.9933)" id="g5184">
            <path id="path5186" style="fill:#004a8f;fill-opacity:1;fill-rule:nonzero;stroke:none" d="m 0,0 c -0.028,0.008 -0.058,0.013 -0.089,0.016 -0.008,0 -0.15,-0.007 -0.195,-0.022 -0.083,-0.019 -0.159,-0.053 -0.216,-0.11 -0.09,-0.089 -0.157,-0.225 -0.157,-0.361 0,-0.134 0.067,-0.268 0.157,-0.359 0.091,-0.09 0.224,-0.159 0.361,-0.159 0.157,0 0.293,0.069 0.383,0.159 0.09,0.091 0.158,0.225 0.158,0.359 0,0.136 -0.068,0.272 -0.158,0.361 C 0.18,-0.051 0.093,-0.02 0,0" inkscape:connector-curvature="0"/>
          </g>
          <g transform="translate(87.6038,83.2791)" id="g5188">
            <path id="path5190" style="fill:#004a8f;fill-opacity:1;fill-rule:nonzero;stroke:none" d="m 0,0 c -0.135,0 -0.247,-0.046 -0.337,-0.136 -0.068,-0.09 -0.135,-0.202 -0.135,-0.315 0,-0.135 0.067,-0.248 0.135,-0.338 0.057,-0.044 0.129,-0.072 0.207,-0.091 0.041,-0.013 0.084,-0.021 0.13,-0.021 0.052,0 0.101,0.011 0.147,0.025 0.036,0.013 0.069,0.029 0.1,0.05 0.003,0.001 0.007,0.002 0.009,0.004 0.027,0.019 0.057,0.03 0.081,0.057 0.092,0.066 0.136,0.179 0.136,0.314 0,0.113 -0.044,0.225 -0.136,0.315 C 0.249,-0.046 0.136,0 0,0" inkscape:connector-curvature="0"/>
          </g>
          <g transform="translate(72.3935,82.6926)" id="g5192">
            <path id="path5194" style="fill:#004a8f;fill-opacity:1;fill-rule:nonzero;stroke:none" d="m 0,0 c 0,0.136 -0.067,0.27 -0.157,0.361 -0.09,0.09 -0.226,0.136 -0.36,0.136 -0.136,0 -0.272,-0.046 -0.362,-0.136 C -0.969,0.27 -1.036,0.136 -1.036,0 c 0,-0.136 0.067,-0.271 0.157,-0.359 0.09,-0.092 0.226,-0.16 0.362,-0.16 0.134,0 0.27,0.068 0.36,0.16 C -0.067,-0.271 0,-0.136 0,0" inkscape:connector-curvature="0"/>
          </g>
          <g transform="translate(68.8332,127.3545)" id="g5196">
            <path id="path5198" style="fill:#004a8f;fill-opacity:1;fill-rule:nonzero;stroke:none" d="M 0,0 C 0.404,0.144 0.809,0.297 1.21,0.453 1.475,0.361 1.731,0.282 1.984,0.204 2.277,0.137 2.569,0.067 2.862,0.024 c 0.113,0 0.225,0.067 0.225,0.18 C 3.109,0.316 3.043,0.407 2.93,0.427 2.635,0.474 2.345,0.517 2.074,0.586 1.98,0.617 1.881,0.65 1.783,0.682 2.155,0.836 2.526,0.996 2.896,1.163 3.295,0.939 3.71,0.849 4.146,0.768 4.238,0.745 4.326,0.722 4.417,0.699 4.506,0.678 4.62,0.745 4.643,0.856 4.666,0.969 4.597,1.082 4.486,1.105 4.396,1.128 4.306,1.128 4.214,1.15 3.918,1.212 3.634,1.267 3.359,1.375 3.442,1.413 3.524,1.449 3.606,1.487 3.889,1.626 4.171,1.77 4.451,1.917 4.98,1.782 6.085,1.758 6.106,1.758 c 0.113,-0.022 0.203,0.067 0.203,0.18 0,0.113 -0.09,0.203 -0.18,0.203 -0.044,0 -0.771,0.032 -1.111,0.078 C 5.735,2.604 6.453,3.013 7.189,3.447 7.279,3.514 7.324,3.629 7.256,3.74 7.211,3.831 7.075,3.854 6.985,3.808 6.194,3.325 5.422,2.892 4.654,2.485 4.702,2.636 4.761,2.794 4.822,2.952 4.867,2.997 4.89,3.066 4.913,3.11 4.935,3.156 4.957,3.223 5.003,3.268 5.047,3.358 5.025,3.493 4.935,3.537 4.822,3.606 4.71,3.561 4.666,3.47 4.666,3.47 4.235,2.511 4.184,2.236 3.93,2.104 3.678,1.974 3.426,1.848 3.331,1.804 3.238,1.761 3.143,1.718 3.165,1.849 3.187,1.979 3.223,2.097 3.29,2.344 3.38,2.568 3.538,2.772 3.606,2.862 3.583,2.997 3.493,3.066 3.403,3.133 3.267,3.11 3.199,3.02 3.02,2.75 2.908,2.478 2.839,2.208 2.783,1.979 2.744,1.747 2.72,1.519 2.284,1.321 1.849,1.133 1.41,0.952 1.456,1.13 1.506,1.305 1.578,1.487 1.667,1.758 1.802,2.051 1.984,2.366 2.027,2.457 2.006,2.568 1.893,2.636 1.802,2.682 1.69,2.658 1.623,2.546 1.442,2.231 1.307,1.917 1.195,1.623 1.088,1.325 1.022,1.049 0.958,0.77 0.596,0.628 0.235,0.491 -0.135,0.361 -0.247,0.339 -0.292,0.226 -0.247,0.113 -0.225,0 -0.112,-0.044 0,0" inkscape:connector-curvature="0"/>
          </g>
          <g transform="translate(56.0563,106.375)" id="g5200">
            <path id="path5202" style="fill:#004a8f;fill-opacity:1;fill-rule:nonzero;stroke:none" d="m 0,0 c 0.046,0.5 0.058,1.049 0.051,1.623 0.368,0.279 0.599,0.715 0.829,1.173 0,0 0.226,0.452 0.337,0.63 C 1.285,3.516 1.262,3.652 1.172,3.718 1.082,3.765 0.948,3.741 0.901,3.652 0.744,3.448 0.631,3.202 0.519,2.974 0.369,2.677 0.219,2.39 0.036,2.164 0.019,2.701 -0.01,3.262 -0.043,3.834 0.302,4.026 0.49,4.356 0.676,4.687 0.79,4.868 0.88,5.071 1.014,5.229 1.082,5.295 1.082,5.432 0.991,5.499 0.901,5.566 0.79,5.566 0.721,5.476 0.564,5.295 0.45,5.094 0.339,4.891 0.211,4.666 0.091,4.456 -0.071,4.306 -0.101,4.784 -0.131,5.267 -0.153,5.75 0.181,6.02 0.496,6.942 0.61,7.121 0.676,7.212 0.654,7.323 0.586,7.392 0.496,7.461 0.36,7.437 0.293,7.346 0.136,7.144 -0.101,6.439 -0.176,6.314 -0.211,7.325 -0.206,8.315 -0.112,9.217 -0.089,9.33 -0.18,9.443 -0.293,9.443 -0.405,9.464 -0.495,9.374 -0.519,9.261 -0.604,8.409 -0.609,7.495 -0.581,6.559 -0.645,6.655 -0.923,7.144 -0.97,7.212 -1.013,7.302 -1.127,7.346 -1.238,7.302 -1.33,7.233 -1.373,7.121 -1.33,7.031 c 0.045,-0.069 0.578,-0.917 0.773,-1.13 0.021,-0.48 0.046,-0.963 0.072,-1.442 -0.316,0.276 -0.776,0.973 -0.776,0.973 -0.046,0.09 -0.158,0.134 -0.27,0.09 C -1.621,5.499 -1.689,5.365 -1.645,5.275 -1.423,4.721 -0.879,4.257 -0.454,3.92 -0.419,3.322 -0.386,2.736 -0.369,2.177 -0.513,2.331 -0.673,2.516 -0.81,2.705 -1.037,2.998 -1.194,3.448 -1.285,3.516 -1.373,3.584 -1.577,3.472 -1.577,3.448 -1.668,3.291 -1.441,2.885 -1.127,2.456 -0.873,2.119 -0.559,1.763 -0.355,1.608 -0.349,1.054 -0.359,0.527 -0.405,0.047 c 0,-0.113 0.067,-0.203 0.18,-0.227 0.113,0 0.203,0.068 0.225,0.18" inkscape:connector-curvature="0"/>
          </g>
          <g transform="translate(61.7126,119.6942)" id="g5204">
            <path id="path5206" style="fill:#004a8f;fill-opacity:1;fill-rule:nonzero;stroke:none" d="m 0,0 c 0.091,0.068 0.112,0.18 0.068,0.271 -0.046,0.111 -0.18,0.134 -0.271,0.09 -0.202,-0.114 -0.384,-0.227 -0.54,-0.34 -0.169,-0.116 -0.316,-0.209 -0.491,-0.267 0.205,0.369 0.417,0.771 0.636,1.201 0.399,-0.028 0.747,0.193 1.093,0.396 0.181,0.113 0.339,0.226 0.496,0.27 C 1.104,1.667 1.149,1.78 1.127,1.871 1.083,1.981 0.969,2.027 0.879,2.005 0.676,1.939 0.474,1.825 0.293,1.69 0.065,1.559 -0.159,1.421 -0.385,1.367 c 0.001,0.003 0.001,0.006 0.002,0.007 0.167,0.33 0.342,0.671 0.521,1.017 0.522,0.047 1.304,0.583 1.44,0.673 0.09,0.046 0.113,0.18 0.044,0.271 C 1.578,3.424 1.442,3.447 1.352,3.401 1.217,3.311 0.629,2.901 0.373,2.837 0.931,3.891 2.253,5.994 2.276,5.994 2.321,6.084 2.299,6.218 2.208,6.263 2.107,6.326 2.007,6.291 1.939,6.218 1.276,5.275 0.685,4.262 0.152,3.274 0.108,3.501 0.045,4.349 0.045,4.393 0.068,4.506 0,4.619 -0.112,4.641 c -0.114,0 -0.203,-0.068 -0.226,-0.18 -0.022,-0.068 0.121,-1.412 0.2,-1.734 -0.19,-0.358 -0.37,-0.71 -0.545,-1.054 -0.021,0.042 -0.041,0.086 -0.06,0.128 -0.159,0.34 -0.339,0.677 -0.248,0.992 0.023,0.113 -0.047,0.226 -0.157,0.248 -0.09,0.023 -0.203,-0.046 -0.226,-0.158 -0.135,-0.451 0.066,-0.856 0.27,-1.262 0.07,-0.141 0.134,-0.278 0.183,-0.407 -0.245,-0.477 -0.479,-0.926 -0.7,-1.33 -0.071,0.251 -0.137,0.575 -0.181,0.858 0,0.09 -0.024,0.181 -0.024,0.25 0,0.067 -0.021,0.11 -0.021,0.179 l 0,0.022 c 0,0.113 -0.09,0.203 -0.203,0.203 -0.113,0 -0.203,-0.09 -0.181,-0.203 l 0,-0.044 0,-0.203 c 0.023,-0.089 0.023,-0.18 0.045,-0.247 0.065,-0.437 0.193,-0.994 0.304,-1.277 -0.165,-0.281 -0.326,-0.536 -0.485,-0.752 -0.067,-0.069 -0.044,-0.203 0.046,-0.27 0.09,-0.068 0.225,-0.046 0.271,0.045 0.179,0.241 0.362,0.527 0.549,0.841 0.419,0.037 0.667,0.2 0.984,0.398 C -0.383,-0.203 -0.226,-0.113 0,0" inkscape:connector-curvature="0"/>
          </g>
          <g transform="translate(90.5119,127.9855)" id="g5208">
            <path id="path5210" style="fill:#004a8f;fill-opacity:1;fill-rule:nonzero;stroke:none" d="M 0,0 C -0.346,0.115 -0.686,0.243 -1.027,0.378 -1.043,0.397 -1.062,0.423 -1.082,0.451 -1.149,0.744 -1.242,1.036 -1.353,1.331 -1.466,1.646 -1.6,1.961 -1.78,2.275 -1.826,2.366 -1.96,2.389 -2.051,2.345 -2.141,2.299 -2.187,2.165 -2.12,2.074 -1.96,1.78 -1.826,1.488 -1.714,1.194 -1.648,0.997 -1.586,0.788 -1.539,0.581 -1.975,0.762 -2.412,0.955 -2.848,1.16 -2.888,1.411 -2.914,1.663 -2.999,1.915 -3.065,2.186 -3.179,2.456 -3.359,2.727 -3.426,2.816 -3.561,2.839 -3.651,2.773 -3.742,2.706 -3.742,2.57 -3.697,2.479 -3.54,2.275 -3.447,2.051 -3.38,1.804 -3.341,1.659 -3.312,1.513 -3.288,1.37 c -0.098,0.047 -0.197,0.092 -0.296,0.14 -0.39,0.195 -0.78,0.403 -1.17,0.617 0,0.13 0.021,0.219 0.021,0.329 0.044,0.226 0.09,0.427 -0.09,0.721 C -4.869,3.267 -4.98,3.29 -5.094,3.244 -5.184,3.177 -5.206,3.064 -5.16,2.975 -5.05,2.796 -5.094,2.682 -5.116,2.525 -5.125,2.464 -5.135,2.403 -5.141,2.339 -5.799,2.706 -6.464,3.09 -7.144,3.493 -7.235,3.538 -7.369,3.515 -7.415,3.424 -7.482,3.335 -7.436,3.2 -7.347,3.156 -6.732,2.781 -6.122,2.421 -5.519,2.082 -5.543,2.073 -5.567,2.06 -5.589,2.051 -5.792,1.938 -5.972,1.847 -6.266,1.847 c -0.113,0 -0.202,-0.112 -0.202,-0.201 0,-0.112 0.089,-0.203 0.202,-0.203 0.384,0.023 0.609,0.111 0.857,0.247 0.105,0.045 0.215,0.097 0.332,0.151 C -4.637,1.6 -4.198,1.367 -3.764,1.15 -3.7,1.116 -3.634,1.089 -3.57,1.058 -3.818,0.967 -4.078,0.914 -4.349,0.856 -4.44,0.834 -4.53,0.812 -4.643,0.788 -4.733,0.766 -4.8,0.677 -4.777,0.564 -4.756,0.451 -4.666,0.384 -4.553,0.406 l 0.271,0.068 c 0.411,0.077 0.803,0.163 1.181,0.36 0.349,-0.163 0.698,-0.322 1.05,-0.473 C -2.103,0.347 -2.158,0.329 -2.21,0.317 -2.502,0.226 -2.772,0.18 -3.065,0.137 -3.179,0.114 -3.246,0.024 -3.246,-0.091 -3.224,-0.204 -3.11,-0.27 -3.02,-0.27 c 0.315,0.046 0.608,0.113 0.9,0.204 0.21,0.046 0.422,0.114 0.64,0.194 0.442,-0.181 0.891,-0.354 1.344,-0.511 0.113,-0.044 0.225,0.022 0.247,0.113 C 0.157,-0.157 0.089,-0.045 0,0" inkscape:connector-curvature="0"/>
          </g>
          <g transform="translate(98.3152,121.0769)" id="g5212">
            <path id="path5214" style="fill:#004a8f;fill-opacity:1;fill-rule:nonzero;stroke:none" d="m 0,0 c 0.005,0.058 0.021,0.124 0.037,0.194 0.023,0.09 0.045,0.158 0.068,0.248 0.07,0.428 0.113,0.878 0.113,1.353 0,0.112 -0.089,0.201 -0.203,0.201 -0.114,0 -0.202,-0.089 -0.202,-0.201 0,-0.446 -0.047,-0.868 -0.112,-1.268 -0.175,0.307 -0.36,0.611 -0.55,0.915 0.011,0.029 0.052,0.239 0.076,0.307 0.067,0.382 0.09,0.81 0.067,1.262 0,0.089 -0.091,0.179 -0.202,0.179 -0.114,0 -0.204,-0.112 -0.181,-0.202 0.02,-0.369 -0.016,-0.737 -0.075,-1.056 -0.212,0.325 -0.434,0.651 -0.662,0.975 0.067,0.204 0.109,0.433 0.129,0.667 0.021,0.27 0.045,0.563 0.021,0.832 0,0.114 -0.09,0.205 -0.2,0.205 -0.114,0 -0.182,-0.091 -0.182,-0.205 0,-0.269 0,-0.54 -0.045,-0.788 C -2.111,3.527 -2.126,3.442 -2.139,3.356 -2.278,3.547 -2.422,3.736 -2.577,3.935 -2.802,4.25 -3.049,4.543 -3.297,4.835 -3.366,4.927 -3.5,4.927 -3.59,4.857 -3.658,4.791 -3.68,4.678 -3.613,4.587 -3.366,4.296 -3.115,3.98 -2.892,3.686 -2.763,3.519 -2.632,3.343 -2.504,3.169 -2.781,3.225 -3.052,3.302 -3.297,3.528 -3.387,3.597 -3.5,3.597 -3.59,3.506 -3.658,3.438 -3.658,3.304 -3.567,3.236 c 0.404,-0.36 0.811,-0.429 1.239,-0.519 0.049,0 0.112,-0.011 0.176,-0.028 0.254,-0.363 0.5,-0.728 0.733,-1.098 -0.107,0.011 -0.211,0.034 -0.3,0.068 -0.227,0.044 -0.407,0.136 -0.609,0.202 -0.09,0.067 -0.203,0.024 -0.249,-0.09 -0.068,-0.09 -0.021,-0.224 0.091,-0.27 0.201,-0.091 0.428,-0.181 0.653,-0.249 0.215,-0.04 0.433,-0.074 0.662,-0.07 0.2,-0.322 0.396,-0.647 0.58,-0.975 -0.115,0.024 -0.232,0.055 -0.34,0.1 -0.248,0.067 -0.497,0.181 -0.721,0.315 -0.114,0.043 -0.224,0.023 -0.271,-0.09 -0.067,-0.09 -0.023,-0.204 0.067,-0.27 0.27,-0.135 0.519,-0.248 0.788,-0.339 0.233,-0.076 0.467,-0.116 0.711,-0.141 0.342,-0.626 0.666,-1.253 0.958,-1.886 0.045,-0.09 0.158,-0.137 0.248,-0.09 0.113,0.044 0.158,0.157 0.113,0.27 C 0.668,-1.276 0.348,-0.635 0,0" inkscape:connector-curvature="0"/>
          </g>
          <g transform="translate(101.5302,111.5803)" id="g5216">
            <path id="path5218" style="fill:#004a8f;fill-opacity:1;fill-rule:nonzero;stroke:none" d="m 0,0 c -0.068,0.09 -0.204,0.09 -0.294,0.046 -0.089,-0.066 -0.089,-0.203 -0.02,-0.292 0.223,-0.316 0.494,-0.608 0.742,-0.856 0.243,-0.244 0.507,-0.447 0.787,-0.633 l 0.048,-1.148 c 0,-0.113 0.089,-0.204 0.202,-0.181 0.112,0 0.202,0.091 0.18,0.203 l -0.043,1.139 c 0.055,0.049 0.108,0.096 0.155,0.146 0.067,0.066 0.136,0.136 0.225,0.226 0.339,0.404 0.699,0.922 1.014,1.53 C 3.041,0.294 3.02,0.407 2.906,0.451 2.815,0.518 2.705,0.474 2.659,0.384 2.343,-0.224 1.608,-1.162 1.58,-1.197 L 1.513,0.538 C 1.746,0.755 1.962,1.031 2.141,1.33 2.343,1.67 2.524,2.051 2.681,2.434 2.727,2.548 2.659,2.66 2.569,2.704 2.456,2.75 2.343,2.683 2.298,2.592 2.163,2.208 1.982,1.848 1.803,1.534 1.71,1.37 1.603,1.225 1.491,1.095 L 1.439,2.451 c 0.432,0.411 0.624,1.042 0.814,1.696 l 0,0.022 C 2.276,4.259 2.231,4.372 2.117,4.417 2.005,4.439 1.893,4.372 1.871,4.283 l 0,-0.024 C 1.746,3.827 1.61,3.398 1.415,3.058 L 1.329,5.274 C 1.306,5.387 1.216,5.477 1.104,5.477 0.992,5.477 0.924,5.387 0.924,5.274 L 1.025,2.826 C 1.014,2.83 0.451,3.223 0.18,3.517 0.113,3.606 -0.024,3.606 -0.114,3.538 -0.18,3.448 -0.18,3.336 -0.114,3.246 0.18,2.929 0.494,2.66 0.788,2.502 0.856,2.458 1.019,2.372 1.045,2.365 L 1.105,0.876 C 1.066,0.891 1.024,0.908 0.992,0.924 0.676,1.082 0.361,1.376 0.046,1.757 -0.024,1.826 -0.158,1.848 -0.225,1.78 -0.314,1.713 -0.339,1.578 -0.271,1.489 0.09,1.082 0.428,0.745 0.811,0.565 0.878,0.541 0.945,0.497 1.036,0.474 1.065,0.465 1.095,0.456 1.124,0.445 l 0.07,-1.672 C 1.031,-1.098 0.872,-0.961 0.721,-0.809 0.451,-0.584 0.226,-0.292 0,0" inkscape:connector-curvature="0"/>
          </g>
          <g transform="translate(105.1581,101.5994)" id="g5220">
            <path id="path5222" style="fill:#004a8f;fill-opacity:1;fill-rule:nonzero;stroke:none" d="M 0,0 C -0.314,-0.294 -1.051,-0.773 -1.059,-0.775 -0.718,0.014 -0.368,0.827 0,1.69 c 0.023,0.09 -0.023,0.203 -0.113,0.247 -0.111,0.046 -0.225,0 -0.269,-0.09 -0.318,-0.743 -0.653,-1.53 -0.999,-2.34 -0.085,0.336 -0.144,0.685 -0.174,1.033 0,0.09 -0.022,0.653 -0.022,0.675 0,0.115 -0.09,0.204 -0.204,0.204 -0.09,0 -0.18,-0.089 -0.18,-0.204 0,-0.022 0,-0.585 0.023,-0.698 0.041,-0.538 0.127,-1.076 0.315,-1.58 -0.204,-0.472 -0.408,-0.951 -0.616,-1.434 -0.217,0.368 -0.376,0.756 -0.465,1.145 -0.023,0.089 -0.046,0.201 -0.068,0.292 0,0.09 -0.022,0.203 -0.022,0.293 0,0.113 -0.113,0.202 -0.226,0.202 -0.09,0 -0.18,-0.111 -0.18,-0.202 l 0,-0.023 c 0,-0.112 0.023,-0.223 0.046,-0.338 0,-0.089 0.021,-0.202 0.044,-0.316 0.127,-0.506 0.357,-1.014 0.684,-1.485 -0.107,-0.248 -0.516,-1.192 -0.613,-1.417 -0.08,0.234 -0.152,0.469 -0.205,0.694 -0.09,0.383 -0.158,0.79 -0.228,1.172 0,0.113 -0.11,0.181 -0.224,0.181 -0.09,-0.023 -0.18,-0.113 -0.157,-0.225 0.045,-0.406 0.135,-0.811 0.225,-1.217 0.083,-0.393 0.207,-0.764 0.366,-1.119 -0.157,-0.371 -0.315,-0.741 -0.479,-1.113 -0.045,-0.111 0,-0.225 0.113,-0.27 0.09,-0.045 0.204,0 0.248,0.113 0.16,0.362 0.319,0.724 0.476,1.086 0.277,0.149 0.555,0.3 0.853,0.49 0.316,0.204 0.631,0.407 0.968,0.678 0.091,0.044 0.114,0.181 0.047,0.269 -0.068,0.091 -0.18,0.113 -0.271,0.045 -0.338,-0.247 -0.654,-0.471 -0.946,-0.652 -0.137,-0.078 -0.267,-0.156 -0.395,-0.229 0.086,0.202 0.486,1.133 0.6,1.394 0.306,0.127 0.613,0.275 0.898,0.48 0.337,0.225 0.676,0.473 1.015,0.811 0.09,0.068 0.09,0.203 0,0.292 -0.067,0.068 -0.203,0.068 -0.271,0 -0.337,-0.315 -0.653,-0.563 -0.946,-0.766 -0.152,-0.098 -0.305,-0.185 -0.455,-0.265 0.173,0.398 0.347,0.799 0.522,1.203 0.061,0.021 0.338,0.143 0.429,0.189 0.382,0.203 0.788,0.496 1.127,0.811 0.089,0.069 0.089,0.203 0.022,0.27 C 0.225,0.066 0.09,0.066 0,0" inkscape:connector-curvature="0"/>
          </g>
          <g transform="translate(106.5548,105.767)" id="g5224">
            <path id="path5226" style="fill:#004a8f;fill-opacity:1;fill-rule:nonzero;stroke:none" d="m 0,0 c 0,0.134 -0.157,0.226 -0.27,0.181 -0.98,-0.46 -1.832,-0.997 -2.563,-1.6 -0.067,0.616 -0.167,1.231 -0.33,1.843 1.445,1.982 2.081,4.115 1.97,6.382 -0.114,2.32 -0.946,4.755 -2.479,7.322 -0.09,0.137 -0.294,0.137 -0.361,-0.02 L -5.43,10.861 c -0.121,-0.329 -0.22,-0.659 -0.31,-0.984 -0.279,0.709 -0.728,1.919 -0.728,2.202 0,0.135 0.024,0.269 0.024,0.405 0.022,1.082 0.022,1.961 -0.473,4.485 l -0.023,0.022 c -0.698,2.05 -2.749,3.764 -4.462,4.823 -0.316,0.225 -0.631,0.404 -0.923,0.563 -0.293,0.158 -0.563,0.293 -0.767,0.383 -0.135,0.067 -0.292,-0.023 -0.292,-0.158 -0.037,-0.601 -0.011,-1.171 0.055,-1.716 -0.073,0.05 -0.141,0.096 -0.214,0.139 -0.15,0.113 -0.306,0.242 -0.535,0.386 -0.003,0.003 -0.004,0.005 -0.008,0.007 -0.033,0.021 -0.803,0.708 -1.192,1.139 -0.331,0.391 -0.646,0.797 -0.827,1.164 -0.039,0.076 -0.062,0.163 -0.102,0.227 l 0.005,0.005 c -0.011,0.013 -0.023,0.025 -0.034,0.035 0,0.001 -0.002,0.001 -0.002,0.003 0,0 -0.001,0 -0.001,0.002 -0.482,0.503 -0.948,0.964 -1.584,1.403 -0.655,0.45 -1.444,0.834 -2.525,1.172 0,0 -1.214,0.248 -2.502,0.338 -1.126,0.089 -2.252,0.181 -3.198,0.541 l -0.002,-0.002 c -0.03,0.01 -0.06,0.019 -0.076,0.016 -0.108,-0.021 -0.159,-0.049 -0.179,-0.098 -0.02,-0.05 -0.032,-0.047 -0.015,-0.141 0.125,-0.712 0.407,-1.325 0.795,-1.895 -0.761,-0.392 -1.423,-0.815 -1.989,-1.238 -0.63,-0.494 -1.126,-0.992 -1.553,-1.532 -0.091,-0.114 -0.024,-0.292 0.134,-0.315 1.082,-0.203 2.141,-0.294 3.222,-0.248 1.026,0.043 2.055,0.189 3.156,0.416 0.038,-0.026 0.584,-0.371 0.833,-0.506 1.212,-0.639 2.568,-0.974 3.985,-0.972 l 0,-0.002 c 0,0 1.265,0.073 1.761,0.117 0.495,0.046 1.494,0.119 1.507,0.122 0.025,-0.009 1.005,-0.677 1.219,-0.805 0.413,-2.322 1.598,-4.064 2.412,-5.017 0.202,-0.248 0.382,-0.428 0.518,-0.563 0.135,-0.135 0.225,-0.226 0.27,-0.25 0.519,-0.406 1.037,-0.878 1.577,-1.442 0.536,-0.556 1.047,-1.201 1.604,-1.868 L -6.872,11.222 C -6.715,10.907 -6.558,10.57 -6.398,10.21 -6.222,9.853 -6.065,9.497 -5.91,9.206 -6.018,8.72 -6.097,8.242 -6.151,7.774 -6.24,7.003 -6.256,6.244 -6.218,5.51 -6.413,5.729 -6.608,5.948 -6.805,6.174 -7.232,6.648 -7.684,7.144 -8.089,7.639 -8.202,7.752 -8.383,7.729 -8.449,7.594 -9.148,5.567 -9.283,3.81 -9.013,2.275 c 0.27,-1.531 0.969,-2.861 1.916,-3.988 0,0 0.743,-0.631 1.126,-0.946 0.38,-0.316 0.779,-0.635 1.161,-0.969 -0.29,-0.452 -0.543,-0.923 -0.755,-1.42 -0.181,-0.406 -0.339,-0.855 -0.473,-1.305 -0.068,-0.277 -0.129,-0.549 -0.186,-0.824 -0.122,0.255 -0.261,0.506 -0.424,0.754 -0.269,0.475 -0.608,0.903 -1.013,1.354 -0.09,0.112 -0.293,0.067 -0.338,-0.069 -0.294,-1.014 -0.654,-1.96 -1.082,-2.862 -0.067,-0.179 -0.156,-0.337 -0.247,-0.518 -0.066,-0.153 -0.248,-0.473 -0.248,-0.473 -0.811,-1.149 -1.353,-2.253 -1.713,-3.267 -0.36,-1.035 -0.495,-2.026 -0.474,-2.949 -0.121,-0.045 -0.241,-0.09 -0.36,-0.138 -1.982,-0.833 -3.56,-2.072 -4.777,-3.741 -0.429,-0.676 -0.879,-1.216 -1.442,-1.6 -0.474,-0.293 -1.014,-0.49 -1.644,-0.58 1.186,1.297 1.995,2.912 2.545,4.681 0.045,0.158 -0.111,0.317 -0.27,0.247 -0.518,-0.224 -1.037,-0.382 -1.577,-0.517 -0.563,-0.111 -1.104,-0.181 -1.691,-0.225 l -0.022,0 0.031,-0.137 0.003,-0.056 -0.034,0.193 c -1.33,-0.203 -2.614,-0.563 -3.741,-1.149 -0.623,-0.324 -1.203,-0.722 -1.734,-1.2 -0.412,0.447 -1.039,0.804 -1.849,1.086 -0.879,0.315 -3.29,0.676 -3.29,0.676 -0.698,0.046 -1.396,0.113 -2.095,0.226 -0.699,0.09 -1.397,0.225 -2.097,0.405 -0.158,0.024 -0.292,-0.135 -0.225,-0.291 0.655,-1.33 1.691,-2.345 2.93,-3.2 0.457,-0.307 0.944,-0.593 1.451,-0.862 -0.138,0.039 -0.274,0.078 -0.415,0.117 -1.14,0.336 -2.28,0.715 -3.398,1.118 -2.015,1.83 -4.052,3.215 -6.134,4.066 -0.149,0.061 -0.301,0.115 -0.45,0.173 0.015,0.918 -0.074,1.838 -0.316,2.801 -0.27,0.991 -0.72,2.029 -1.442,3.086 0,0 -0.835,1.082 -1.215,1.691 -0.385,0.631 -0.745,1.307 -1.037,2.074 -0.068,0.134 -0.293,0.157 -0.36,0.021 -0.343,-0.603 -0.585,-1.248 -0.733,-1.944 -0.531,1.378 -1.317,2.67 -2.355,3.861 1.754,1.633 2.979,3.397 3.605,5.249 0.654,1.893 0.699,3.9 0.135,6.018 -0.023,0.134 -0.181,0.18 -0.271,0.134 -0.495,-0.225 -0.946,-0.541 -1.374,-0.923 -0.316,-0.284 -0.622,-0.618 -0.904,-0.991 -0.032,0.473 -0.092,0.952 -0.155,1.44 -0.045,0.316 -0.113,0.924 -0.113,0.924 -0.098,0.386 -0.197,0.744 -0.294,1.081 0.198,0.269 0.304,0.476 0.385,0.677 0.09,0.204 0.41,0.747 0.419,0.776 1.775,1.127 3.415,2.789 4.605,4.61 0.227,0.36 0.451,0.721 0.655,1.082 0.203,0.383 0.381,0.744 0.54,1.104 0,0 0.595,1.95 0.732,2.767 0.304,0.171 0.609,0.324 0.913,0.455 0.313,0.157 0.648,0.313 0.982,0.513 0.486,-0.034 0.937,-0.015 1.407,0.005 0.473,0.023 0.924,0.046 1.419,0.023 1.059,-0.044 2.073,0.045 3.019,0.317 0.947,0.247 1.827,0.675 2.637,1.35 0.788,0.699 1.419,1.399 1.892,2.118 0.452,0.745 0.746,1.533 0.812,2.435 0.021,0.134 -0.136,0.248 -0.27,0.202 -1.239,-0.496 -2.569,-0.789 -3.899,-1.081 -0.45,-0.091 -0.924,-0.203 -1.398,-0.317 l 0.002,-0.004 c -1.611,-0.317 -2.777,-0.967 -3.697,-1.797 -0.911,-0.845 -1.581,-1.845 -2.161,-2.932 -0.302,-0.169 -0.604,-0.321 -0.925,-0.47 -0.213,-0.092 -0.433,-0.197 -0.654,-0.308 0.031,0.214 0.062,0.429 0.091,0.644 0.044,0.362 0.112,0.768 0.157,1.128 0.045,0.157 -0.136,0.27 -0.27,0.201 -1.511,-0.651 -2.366,-1.373 -3.38,-2.229 -0.293,-0.249 -1.019,-0.853 -1.019,-0.853 l 0.003,-0.006 c -2.496,-2.385 -2.545,-5.842 -2.568,-8.289 l 0,-0.555 c -0.231,-0.289 -0.323,-0.521 -0.428,-0.732 -0.037,-0.109 -0.083,-0.219 -0.149,-0.34 -0.124,0.399 -0.246,0.771 -0.369,1.129 -0.294,0.766 -0.585,1.466 -0.969,2.21 -0.067,0.135 -0.271,0.158 -0.338,0.022 -0.811,-1.307 -1.194,-2.39 -1.623,-3.629 -0.157,-0.404 -0.494,-1.329 -0.494,-1.329 -0.902,-3.424 0.63,-6.716 1.69,-8.99 0.053,-0.146 0.119,-0.286 0.157,-0.36 l 0,-0.588 c 0,-0.105 0,-0.2 -0.011,-0.409 -0.233,0.204 -0.466,0.403 -0.71,0.59 -0.384,0.293 -0.789,0.587 -1.217,0.879 -0.135,0.09 -0.294,0 -0.316,-0.159 -0.114,-2.297 0.09,-4.325 0.654,-6.016 0.585,-1.69 1.554,-3.043 2.952,-4.011 1.104,-0.765 2.028,-1.621 2.771,-2.569 0.135,-0.202 0.27,-0.382 0.406,-0.585 0.024,-0.037 0.049,-0.078 0.074,-0.117 0.023,-0.065 0.043,-0.128 0.066,-0.192 -0.598,0.022 -1.2,0.009 -1.808,-0.051 -0.157,0 -0.248,-0.205 -0.134,-0.339 0.517,-0.541 1.012,-1.149 1.531,-1.824 0.519,-0.677 1.534,-2.164 1.534,-2.164 1.17,-1.374 2.569,-2.164 4.122,-2.524 1.539,-0.334 3.233,-0.27 5.015,0.036 l 5.627,-1.532 c -1.124,-0.606 -2.473,-1.078 -4.038,-1.434 -0.069,-0.023 -0.136,-0.135 -0.136,-0.202 0,-0.158 0,-0.337 0.067,-0.497 0.044,-0.178 0.158,-0.358 0.339,-0.539 0.022,-0.024 0.135,-0.07 0.156,-0.07 0.744,0.136 1.465,0.294 2.187,0.519 0.745,0.203 2.231,0.811 2.231,0.811 0.405,0.226 0.992,0.25 1.711,0.272 0.361,0.022 0.745,0.044 1.196,0.089 0.325,0.036 0.635,0.083 0.94,0.138 0.021,-0.022 2.171,-0.7 3.251,-0.927 1.059,-0.247 2.14,-0.403 3.268,-0.451 0.045,0 0.135,0.048 0.157,0.091 0.18,0.248 0.271,0.518 0.294,0.766 0.021,0.272 -0.023,0.519 -0.159,0.79 -0.021,0.044 -0.112,0.089 -0.157,0.11 -0.654,0.07 -1.331,0.138 -2.006,0.25 -0.567,0.094 -1.116,0.212 -1.662,0.351 0.782,0.39 1.476,0.862 2.09,1.407 0.34,0.002 0.622,0.022 0.901,0.044 0.305,0.024 0.61,0.044 0.917,0.066 1.82,-0.336 3.526,-0.358 5.101,0.024 1.577,0.384 3.018,1.149 4.325,2.345 1.24,1.149 2.186,2.141 2.84,2.996 0.675,0.856 1.06,1.554 1.239,2.141 0.024,0.135 -0.091,0.27 -0.248,0.248 -0.37,-0.079 -0.743,-0.14 -1.113,-0.196 0.296,0.476 0.546,0.981 0.738,1.505 0.966,0.383 1.91,0.835 2.832,1.846 0.901,0.991 2.515,4.684 2.658,5.137 0.144,0.453 0.428,2.795 0.496,4.236 0.023,0.292 0.023,0.563 0.023,0.834 0,0.248 0,0.496 -0.023,0.721 m -25.733,22.399 c -0.923,-0.04 -1.846,0.034 -2.787,0.192 0.354,0.409 0.757,0.797 1.254,1.181 0.558,0.415 1.218,0.828 1.982,1.223 0.031,-0.038 0.507,-0.6 0.74,-0.842 -0.884,-0.21 -2.496,-0.83 -2.496,-0.83 -0.113,-0.044 -0.157,-0.158 -0.113,-0.27 0.023,-0.091 0.158,-0.159 0.248,-0.114 0,0 2.046,0.792 2.698,0.872 0.324,-0.317 1.172,-1.046 1.225,-1.088 -0.941,-0.185 -1.856,-0.304 -2.751,-0.324 m 9.735,-0.945 c -0.519,-0.046 -1.037,-0.091 -1.487,-0.114 -1.466,-0.046 -2.817,0.271 -4.035,0.925 -0.248,0.112 -2.403,1.435 -3.38,2.86 -0.028,0.036 -0.112,0.129 -0.257,0.351 -0.145,0.225 -0.493,0.6 -0.7,1.492 0.926,-0.289 1.944,-0.388 2.963,-0.468 0.833,-0.069 1.573,-0.074 2.433,-0.316 0.86,-0.24 1.804,-0.698 2.412,-1.126 0.595,-0.397 1.061,-0.858 1.524,-1.343 0.166,-0.443 0.537,-0.968 0.954,-1.429 0.247,-0.274 0.51,-0.531 0.735,-0.747 -0.394,-0.035 -0.786,-0.067 -1.162,-0.085 m 7.819,-8.091 c -0.537,0.559 -1.623,1.487 -1.623,1.487 -0.023,0.023 -0.541,0.517 -0.743,0.744 -0.96,1.155 -2.528,3.518 -2.444,6.674 0.148,-0.075 0.307,-0.156 0.483,-0.254 0.271,-0.133 0.586,-0.314 0.902,-0.516 1.637,-1.032 3.609,-2.69 4.293,-4.617 l -0.012,-0.003 c 0.518,-2.479 0.495,-3.335 0.473,-4.394 l 0,-0.405 c 0,-0.073 0.022,-0.19 0.059,-0.334 -0.464,0.586 -0.926,1.136 -1.388,1.618 m -29.294,10.186 c 0.878,0.788 2.006,1.396 3.536,1.712 0.474,0.113 0.926,0.202 1.399,0.316 1.239,0.268 2.459,0.539 3.641,0.964 -0.114,-0.686 -0.342,-1.325 -0.712,-1.911 -0.45,-0.698 -1.06,-1.375 -1.825,-2.051 -0.744,-0.608 -1.577,-1.014 -2.48,-1.261 -0.901,-0.249 -1.868,-0.339 -2.884,-0.315 -0.517,0.044 -0.991,0.022 -1.463,0 -0.374,-0.019 -0.747,-0.036 -1.131,-0.021 0.538,0.958 1.128,1.835 1.919,2.567 M -48.042,10.728 c 0.021,2.41 0.045,5.812 2.523,8.088 0.34,0.271 0.632,0.518 0.925,0.744 0.912,0.788 1.698,1.443 2.94,2.033 -0.038,-0.271 -0.07,-0.523 -0.101,-0.772 -0.157,-1.149 -0.316,-2.275 -0.901,-3.808 -0.135,-0.361 -0.317,-0.698 -0.518,-1.058 -0.18,-0.361 -0.406,-0.722 -0.632,-1.06 -1.111,-1.687 -2.607,-3.247 -4.238,-4.325 0,0.051 0.002,0.106 0.002,0.158 m 15.166,-30.918 c -1.076,0.73 -1.985,1.593 -2.598,2.677 0.572,-0.13 1.139,-0.242 1.719,-0.334 0.691,-0.11 1.382,-0.177 2.095,-0.223 l 0,-0.001 c 1.263,-0.137 2.344,-0.338 3.2,-0.632 0.755,-0.266 1.324,-0.605 1.692,-1.003 -0.291,-0.292 -0.566,-0.613 -0.82,-0.968 -0.407,0.176 -0.816,0.346 -1.224,0.51 -0.147,0.286 -0.384,0.597 -0.662,0.876 -0.045,0.066 -0.333,0.391 -0.378,0.391 -0.087,0.054 -0.19,0.033 -0.277,-0.031 -0.058,-0.079 -0.046,-0.191 0.004,-0.263 l -0.001,-0.003 c 0.001,-0.001 0.569,-0.591 0.66,-0.705 -0.332,0.131 -0.664,0.265 -0.995,0.399 -0.239,0.495 -0.523,0.861 -0.793,1.067 -0.068,0.044 -0.135,0.09 -0.204,0.114 -0.067,0.044 -0.134,0.067 -0.202,0.067 -0.112,0.023 -0.203,-0.067 -0.225,-0.181 -0.022,-0.09 0.225,-0.224 0.27,-0.247 0.046,-0.023 0.415,-0.353 0.566,-0.58 -0.832,0.34 -1.682,0.689 -2.595,1.052 -0.111,0.047 -0.224,0 -0.27,-0.111 -0.045,-0.09 0.023,-0.226 0.113,-0.248 0.821,-0.342 1.703,-0.701 2.608,-1.067 -0.057,-0.004 -0.116,-0.011 -0.175,-0.014 -0.247,-0.024 -0.517,0 -0.81,0.022 -0.113,0 -0.203,-0.068 -0.203,-0.18 -0.022,-0.113 0.068,-0.203 0.18,-0.226 0.294,-0.023 0.586,-0.023 0.856,-0.023 0.287,0.023 0.573,0.068 0.819,0.154 0.365,-0.146 0.734,-0.294 1.105,-0.441 -0.133,-0.047 -0.271,-0.085 -0.414,-0.119 -0.294,-0.045 -0.608,-0.089 -0.902,-0.112 -0.111,0 -0.201,-0.091 -0.18,-0.202 0,-0.113 0.092,-0.204 0.203,-0.204 0.317,0.023 0.655,0.069 0.969,0.135 0.292,0.063 0.564,0.166 0.836,0.289 0.368,-0.156 0.739,-0.306 1.111,-0.454 -0.241,-0.431 -0.547,-0.828 -0.915,-1.188 -0.186,0.048 -0.373,0.099 -0.559,0.149 -1.307,0.53 -2.535,1.125 -3.604,1.858 M -48.29,4.508 c 0.007,0.009 0.016,0.013 0.023,0.022 0.339,0.542 0.72,0.969 1.104,1.329 0.341,0.303 0.699,0.54 1.071,0.743 0.473,-1.956 0.413,-3.791 -0.17,-5.542 -0.625,-1.807 -1.803,-3.503 -3.51,-5.09 -0.116,0.126 -0.234,0.251 -0.355,0.376 0.308,0.502 0.612,1.038 0.909,1.603 0.002,0.001 0.003,0.001 0.005,0.001 0.247,0.157 0.247,0.157 0.27,0.157 0.293,0.203 0.608,0.384 0.901,0.563 0.09,0.067 0.114,0.182 0.067,0.272 -0.067,0.088 -0.18,0.134 -0.269,0.066 -0.226,-0.134 -0.427,-0.257 -0.626,-0.379 0.204,0.409 0.402,0.833 0.596,1.27 0.198,0.154 0.394,0.285 0.57,0.396 0.203,0.09 0.383,0.18 0.564,0.223 0.112,0.024 0.18,0.137 0.157,0.226 -0.022,0.113 -0.135,0.18 -0.249,0.158 -0.224,-0.067 -0.427,-0.136 -0.652,-0.27 -0.033,-0.016 -0.067,-0.041 -0.1,-0.059 0.13,0.309 0.257,0.629 0.383,0.953 0.003,0.003 0.008,0.004 0.01,0.008 0.112,0.134 0.248,0.247 0.428,0.381 0.203,0.114 0.405,0.227 0.654,0.338 0.112,0.046 0.135,0.18 0.091,0.271 -0.046,0.113 -0.16,0.135 -0.25,0.09 -0.257,-0.108 -0.472,-0.234 -0.667,-0.364 0.109,0.321 0.212,0.643 0.311,0.96 0.015,0.01 0.028,0.019 0.041,0.036 0.112,0.135 0.225,0.269 0.338,0.36 0.136,0.114 0.248,0.204 0.405,0.293 0.09,0.044 0.114,0.157 0.069,0.27 -0.046,0.091 -0.159,0.114 -0.271,0.068 -0.111,-0.064 -0.218,-0.14 -0.322,-0.216 0.064,0.207 0.125,0.418 0.186,0.622 0.023,0.112 -0.044,0.224 -0.157,0.248 -0.09,0.044 -0.203,-0.024 -0.248,-0.136 -0.113,-0.472 -0.249,-0.924 -0.383,-1.353 -0.157,-0.45 -0.293,-0.878 -0.451,-1.306 -0.775,-2.123 -1.679,-3.941 -2.607,-5.457 -0.057,0.053 -0.108,0.108 -0.165,0.162 -0.015,0.015 0,0.991 0.023,1.369 0.33,0.557 0.639,1.261 0.947,1.964 0.2,0.469 0.632,1.376 0.632,1.376 0.54,1.046 0.701,2.02 0.697,2.998 m -4.151,2.886 0.005,-0.003 c 0.18,0.45 0.339,0.903 0.474,1.308 0.391,1.109 0.746,2.09 1.405,3.23 0.302,-0.606 0.551,-1.203 0.779,-1.833 0.271,-0.766 0.541,-1.623 0.812,-2.66 l 0.003,0 c 0.023,-0.305 0.066,-0.592 0.109,-0.878 0.204,-1.667 0.384,-3.2 -0.473,-4.844 0,0 -0.451,-0.948 -0.652,-1.419 -0.258,-0.59 -0.515,-1.157 -0.774,-1.642 -0.003,0.013 -2.554,5.458 -1.688,8.741 m 3.047,-18.615 c -1.33,0.902 -2.231,2.185 -2.794,3.809 -0.512,1.554 -0.716,3.393 -0.643,5.492 0.306,-0.212 0.602,-0.429 0.891,-0.648 0.383,-0.294 0.744,-0.609 1.082,-0.902 1.711,-1.623 2.883,-3.425 3.537,-5.408 0.007,-0.036 0.025,-0.064 0.048,-0.088 -0.043,-0.4 -0.061,-0.811 -0.048,-1.241 0.032,-1.057 0.238,-2.206 0.586,-3.446 -0.729,0.894 -1.607,1.71 -2.659,2.432 m 2.479,1.036 c -0.041,1.259 0.169,2.376 0.642,3.367 0.273,-0.627 0.577,-1.199 0.913,-1.722 0.382,-0.629 0.811,-1.194 1.239,-1.712 0.676,-1.015 1.104,-2.006 1.375,-2.952 0.228,-0.893 0.298,-1.729 0.292,-2.561 -0.366,0.127 -0.734,0.235 -1.104,0.329 -0.066,0.143 -0.125,0.29 -0.189,0.434 0.085,0.167 -0.013,-0.05 0.008,-0.006 0.226,0.541 0.451,1.105 0.655,1.6 0.045,0.113 -0.024,0.227 -0.114,0.271 -0.112,0.023 -0.226,-0.021 -0.27,-0.114 -0.171,-0.443 -0.329,-0.847 -0.494,-1.243 -0.16,0.39 -0.31,0.785 -0.455,1.181 0.092,0.194 0.182,0.381 0.274,0.582 0.134,0.271 0.247,0.562 0.36,0.81 0.044,0.092 0,0.226 -0.09,0.25 -0.113,0.043 -0.226,0 -0.27,-0.09 -0.114,-0.272 -0.248,-0.542 -0.36,-0.812 -0.032,-0.072 -0.067,-0.142 -0.1,-0.212 -0.042,0.122 -0.086,0.245 -0.125,0.369 -0.073,0.217 -0.139,0.431 -0.206,0.646 0.022,0.023 0.04,0.05 0.047,0.075 0.023,0.181 0.067,0.361 0.134,0.565 0.091,0.18 0.182,0.359 0.316,0.538 0.068,0.07 0.068,0.204 -0.022,0.273 -0.09,0.067 -0.203,0.067 -0.269,-0.023 -0.181,-0.204 -0.293,-0.429 -0.384,-0.654 -0.012,-0.026 -0.018,-0.055 -0.027,-0.082 -0.169,0.578 -0.32,1.153 -0.447,1.727 -0.023,0.112 -0.135,0.182 -0.225,0.135 -0.113,-0.023 -0.18,-0.112 -0.158,-0.224 0.134,-0.616 0.294,-1.233 0.471,-1.843 -0.231,0.126 -0.474,0.284 -0.719,0.49 -0.09,0.068 -0.201,0.045 -0.27,-0.047 -0.091,-0.067 -0.068,-0.2 0.023,-0.27 0.293,-0.247 0.63,-0.471 0.945,-0.608 0.063,-0.02 0.121,-0.041 0.167,-0.061 0.076,-0.25 0.157,-0.5 0.24,-0.75 0.052,-0.161 0.109,-0.321 0.163,-0.482 -0.085,0.043 -0.17,0.084 -0.253,0.122 -0.249,0.136 -0.474,0.248 -0.722,0.338 -0.113,0.045 -0.226,0 -0.27,-0.09 -0.023,-0.112 0.023,-0.226 0.111,-0.27 0.249,-0.09 0.474,-0.203 0.701,-0.316 0.19,-0.106 0.386,-0.211 0.615,-0.3 0.218,-0.599 0.458,-1.194 0.724,-1.787 -0.57,0.124 -1.145,0.21 -1.723,0.258 -0.078,0.141 -0.161,0.279 -0.247,0.42 -0.553,1.657 -0.861,3.131 -0.902,4.451 m 10.861,-11.29 c -1.758,-0.338 -3.426,-0.404 -4.912,-0.044 -1.478,0.335 -2.8,1.075 -3.9,2.365 l 0.002,0 c -0.518,0.745 -1.016,1.487 -1.533,2.164 -0.431,0.56 -0.859,1.087 -1.287,1.557 2.04,0.127 4.005,-0.214 5.929,-1.016 2.051,-0.857 4.079,-2.208 6.06,-4.033 0.024,0 2.369,-0.833 3.517,-1.173 0.899,-0.264 1.797,-0.51 2.697,-0.747 0.122,-0.053 0.247,-0.102 0.37,-0.152 -0.252,-0.21 -0.525,-0.405 -0.819,-0.587 l -6.124,1.666 z m 14.873,-2.613 c 0.618,-0.107 1.275,-0.192 1.916,-0.258 0.07,-0.162 0.089,-0.314 0.089,-0.463 -0.019,-0.166 -0.083,-0.316 -0.167,-0.49 -1.046,0.051 -2.073,0.203 -3.099,0.421 -0.87,0.189 -1.74,0.429 -2.61,0.699 0.625,0.152 1.208,0.344 1.753,0.576 0.024,-0.032 0.054,-0.062 0.089,-0.081 0.677,-0.157 1.352,-0.292 2.029,-0.404 m 0.361,2.569 c -1.421,-1.353 -3.359,-2.276 -5.928,-2.569 -0.405,-0.046 -0.811,-0.046 -1.171,-0.067 -0.767,-0.024 -1.376,-0.069 -1.893,-0.339 l 0.005,-0.006 c -0.715,-0.291 -1.431,-0.559 -2.146,-0.761 -0.664,-0.192 -1.345,-0.361 -2.03,-0.475 -0.079,0.106 -0.138,0.207 -0.155,0.295 -0.025,0.08 -0.043,0.152 -0.054,0.224 1.662,0.401 3.091,0.927 4.246,1.602 1.132,0.663 1.997,1.489 2.544,2.496 0.055,0.017 0.1,0.057 0.114,0.118 0.013,0.028 0.016,0.064 0.013,0.097 0.756,1.021 1.681,1.787 2.736,2.337 1.081,0.563 2.298,0.9 3.606,1.103 l -0.002,0.002 c 0.601,0.023 1.157,0.091 1.713,0.225 0.442,0.1 0.856,0.236 1.265,0.389 -0.611,-1.819 -1.52,-3.431 -2.863,-4.671 M -5.767,7.729 c 0.111,0.97 0.337,1.961 0.719,2.999 l 1.215,2.849 C -2.454,11.203 -1.685,8.931 -1.599,6.806 -1.493,4.702 -2.048,2.742 -3.302,0.901 -3.359,1.082 -3.421,1.263 -3.492,1.442 -3.897,2.52 -4.525,3.598 -5.49,4.656 l 0.014,0.008 c -0.097,0.113 -0.198,0.228 -0.299,0.342 -0.104,0.878 -0.102,1.78 0.008,2.723 m 0.043,-10.073 c -0.356,0.29 -0.711,0.58 -1.065,0.89 C -7.71,-0.374 -8.36,0.883 -8.63,2.344 -8.863,3.743 -8.751,5.326 -8.174,7.122 -7.831,6.715 -7.467,6.311 -7.097,5.903 -6.773,5.548 -6.462,5.19 -6.152,4.834 -6.136,4.799 -6.109,4.77 -6.08,4.75 -5.984,4.639 -5.887,4.528 -5.79,4.417 l 0,-0.022 c 0.922,-1.014 1.532,-2.051 1.938,-3.111 0.367,-0.996 0.566,-2.012 0.641,-3.03 -0.199,-0.179 -0.384,-0.366 -0.562,-0.557 -0.314,0.498 -0.616,0.999 -0.906,1.5 0.111,0.293 0.202,0.779 0.241,1.368 0,0.157 0.044,0.855 0.044,0.877 0,0.112 -0.09,0.203 -0.203,0.203 -0.111,0 -0.202,-0.091 -0.202,-0.203 0,0 -0.022,-0.72 -0.045,-0.834 -0.026,-0.359 -0.066,-0.671 -0.117,-0.918 -0.253,0.447 -0.856,1.581 -0.914,1.698 0.072,0.193 0.139,0.471 0.175,0.798 0.067,0.383 0.112,0.834 0.135,1.262 0,0.09 -0.068,0.204 -0.181,0.204 -0.113,0 -0.202,-0.07 -0.225,-0.181 C -5.993,3.044 -6.038,2.614 -6.084,2.232 -6.106,2.125 -6.123,2.025 -6.144,1.93 -6.576,2.827 -6.973,3.729 -7.346,4.643 -7.39,4.755 -7.504,4.801 -7.616,4.755 -7.707,4.711 -7.751,4.597 -7.707,4.507 -7.325,3.555 -6.917,2.617 -6.462,1.691 -6.602,1.75 -6.745,1.824 -6.895,1.915 -7.166,2.073 -7.458,2.299 -7.751,2.524 -7.841,2.592 -7.954,2.592 -8.021,2.502 -8.089,2.413 -8.089,2.299 -7.999,2.232 -7.707,1.984 -7.39,1.758 -7.097,1.554 -6.801,1.386 -6.504,1.258 -6.206,1.186 -6.149,1.077 -5.6,0.012 -5.37,-0.402 c -0.164,0.077 -1.165,0.628 -1.502,0.877 -0.09,0.043 -0.204,0.021 -0.271,-0.07 -0.067,-0.09 -0.046,-0.202 0.046,-0.271 0.361,-0.247 1.711,-0.978 2.059,-1.131 0.313,-0.539 0.643,-1.077 0.989,-1.613 -0.186,-0.219 -0.361,-0.442 -0.526,-0.673 -0.373,0.31 -0.761,0.634 -1.149,0.939 M -5.87,-14.529 c -0.184,-0.482 -0.532,-1.052 -1.047,-1.718 -0.654,-0.811 -1.556,-1.781 -2.795,-2.93 -1.239,-1.148 -2.636,-1.892 -4.145,-2.252 -1.534,-0.36 -3.178,-0.339 -4.958,0 0,0 0.427,0.24 0.676,0.406 0.63,0.428 1.127,1.014 1.576,1.712 l -0.013,0.01 c 1.17,1.594 2.7,2.786 4.61,3.572 0.362,0.158 0.745,0.293 1.149,0.43 0.384,0.111 0.811,0.225 1.241,0.315 0,0 2.595,0.248 3.706,0.455 m -1.34,0.243 c -0.014,-0.018 -0.022,-0.041 -0.029,-0.062 -0.57,-0.071 -1.139,-0.126 -1.702,-0.168 0.078,0.173 0.154,0.348 0.221,0.524 0.112,0.292 0.361,0.974 0.372,1.01 0.234,0.084 0.479,0.239 0.71,0.431 0.271,0.226 0.541,0.496 0.81,0.79 0.068,0.066 0.068,0.201 -0.022,0.27 -0.067,0.09 -0.203,0.067 -0.27,0 -0.247,-0.294 -0.518,-0.542 -0.767,-0.744 -0.1,-0.092 -0.202,-0.166 -0.303,-0.228 0.143,0.499 0.262,1.01 0.365,1.532 0.143,0.073 0.311,0.186 0.479,0.319 0.203,0.18 0.406,0.381 0.631,0.631 0.067,0.089 0.067,0.201 -0.021,0.293 -0.069,0.067 -0.204,0.067 -0.272,-0.023 -0.224,-0.226 -0.429,-0.429 -0.608,-0.587 -0.037,-0.036 -0.074,-0.068 -0.109,-0.098 0.133,0.773 0.227,1.566 0.288,2.375 0,0.112 -0.067,0.202 -0.179,0.202 -0.113,0.023 -0.202,-0.067 -0.225,-0.181 -0.054,-0.809 -0.146,-1.609 -0.283,-2.389 -0.056,0.064 -0.113,0.131 -0.169,0.204 -0.112,0.204 -0.224,0.428 -0.337,0.676 -0.023,0.112 -0.136,0.158 -0.247,0.136 -0.114,-0.046 -0.158,-0.158 -0.114,-0.271 0.114,-0.293 0.225,-0.541 0.383,-0.767 0.109,-0.181 0.251,-0.327 0.395,-0.451 -0.102,-0.521 -0.224,-1.035 -0.37,-1.534 -0.047,0.069 -0.095,0.142 -0.137,0.227 -0.136,0.248 -0.271,0.565 -0.428,0.992 -0.046,0.092 -0.159,0.158 -0.27,0.113 -0.09,-0.046 -0.158,-0.157 -0.113,-0.246 0.157,-0.451 0.315,-0.768 0.45,-1.039 0.115,-0.229 0.231,-0.392 0.345,-0.535 -0.01,-0.031 -0.366,-1.022 -0.377,-1.047 -0.17,0.229 -0.327,0.461 -0.463,0.68 -0.022,0.07 -0.136,0.294 -0.158,0.362 -0.045,0.09 -0.158,0.136 -0.248,0.112 -0.113,-0.044 -0.158,-0.157 -0.113,-0.27 0.022,-0.044 0.136,-0.314 0.179,-0.382 0.167,-0.311 0.377,-0.607 0.62,-0.914 -0.034,-0.072 -0.068,-0.141 -0.101,-0.209 -0.015,-0.001 -1.82,-0.461 -1.961,-0.509 -0.006,0.841 0.13,1.724 0.453,2.668 0.338,0.992 0.879,2.051 1.668,3.177 0,0 0.45,0.879 0.517,1.059 0.379,0.799 0.703,1.67 0.991,2.564 0.285,-0.33 0.53,-0.674 0.743,-1.032 0.271,-0.427 0.497,-0.877 0.654,-1.308 0.833,-2.252 0.339,-4.527 -0.878,-6.353 m 6.828,12.753 c -0.068,-1.419 -0.316,-3.086 -0.519,-4.19 0,0 -1.671,-3.991 -2.546,-4.936 -0.774,-0.832 -1.565,-1.264 -2.376,-1.616 0.403,1.386 0.411,2.895 -0.12,4.397 0.006,0.013 0.176,0.96 0.287,1.411 0.136,0.428 0.27,0.856 0.451,1.262 0.518,1.188 1.264,2.248 2.263,3.162 0.067,0.012 0.116,0.055 0.136,0.118 0.691,0.608 1.499,1.149 2.433,1.615 0.006,-0.133 0.012,-0.267 0.012,-0.411 0,-0.249 -0.021,-0.519 -0.021,-0.812" inkscape:connector-curvature="0"/>
          </g>
          <g transform="translate(96.4388,89.2052)" id="g5228">
            <path id="path5230" style="fill:#004a8f;fill-opacity:1;fill-rule:nonzero;stroke:none" d="M 0,0 C 0.066,0.294 0.201,0.564 0.337,0.833 0.404,0.924 0.36,1.036 0.27,1.105 0.18,1.148 0.043,1.126 0,1.013 -0.16,0.722 -0.294,0.428 -0.385,0.113 c -0.078,-0.262 -0.14,-0.54 -0.153,-0.822 -0.453,-0.283 -0.913,-0.561 -1.377,-0.83 0.034,0.363 0.097,0.72 0.201,1.065 0.023,0.114 0.135,0.451 0.181,0.564 0.044,0.113 -0.024,0.225 -0.114,0.248 -0.111,0.046 -0.224,0 -0.27,-0.114 -0.021,-0.09 -0.157,-0.494 -0.18,-0.584 -0.128,-0.475 -0.196,-0.948 -0.242,-1.422 -0.506,-0.283 -1.019,-0.555 -1.539,-0.82 0.012,0.228 0.05,0.452 0.113,0.687 0.114,0.316 0.271,0.652 0.497,0.969 0.067,0.091 0.044,0.225 -0.046,0.271 -0.09,0.066 -0.202,0.043 -0.27,-0.046 -0.248,-0.361 -0.428,-0.721 -0.565,-1.082 -0.1,-0.322 -0.143,-0.664 -0.135,-1.007 -0.834,-0.416 -1.687,-0.812 -2.567,-1.179 -0.091,-0.044 -0.137,-0.158 -0.091,-0.247 0.023,-0.113 0.158,-0.158 0.248,-0.113 0.327,0.134 0.645,0.276 0.962,0.416 0.018,-0.012 0.031,-0.025 0.052,-0.033 0.292,-0.136 0.586,-0.203 0.902,-0.248 0.292,-0.022 0.608,-0.022 0.9,0.022 0.113,0.023 0.203,0.114 0.18,0.226 -0.021,0.112 -0.111,0.181 -0.224,0.181 -0.27,-0.045 -0.564,-0.045 -0.835,-0.024 -0.153,0.014 -0.315,0.053 -0.475,0.099 0.405,0.187 0.804,0.381 1.197,0.575 0.322,-0.094 0.613,-0.156 0.879,-0.179 0.315,-0.043 0.586,-0.067 0.857,-0.043 0.112,0 0.202,0.09 0.202,0.201 -0.022,0.112 -0.111,0.203 -0.225,0.203 -0.248,-0.023 -0.497,-0.023 -0.766,0.023 -0.131,0.02 -0.263,0.046 -0.397,0.075 0.481,0.251 0.961,0.504 1.432,0.769 0.226,-0.064 0.45,-0.107 0.677,-0.145 0.271,-0.023 0.541,-0.045 0.811,-0.045 0.114,-0.023 0.204,0.068 0.204,0.18 0,0.112 -0.09,0.203 -0.204,0.203 -0.27,0 -0.912,0.091 -0.986,0.104 0.421,0.249 0.835,0.501 1.244,0.758 0.218,-0.057 0.422,-0.096 0.644,-0.096 0.225,-0.023 0.472,-0.023 0.722,0 0.111,0 0.18,0.113 0.18,0.224 -0.023,0.092 -0.114,0.182 -0.227,0.158 -0.224,-0.02 -0.762,0.018 -0.817,0.026 0.702,0.449 1.394,0.907 2.08,1.374 0.09,0.067 0.112,0.201 0.043,0.291 C 2.251,1.036 2.118,1.059 2.027,0.991 1.334,0.506 0.621,0.026 -0.104,-0.439 -0.083,-0.291 -0.05,-0.147 0,0" inkscape:connector-curvature="0"/>
          </g>
          <g transform="translate(58.2453,95.7674)" id="g5232">
            <path id="path5234" style="fill:#004a8f;fill-opacity:1;fill-rule:nonzero;stroke:none" d="m 0,0 c 0.065,0.328 0.086,0.656 0.065,0.964 0,0.338 -0.023,0.654 -0.068,0.992 0,0.111 -0.113,0.181 -0.224,0.181 C -0.318,2.114 -0.41,2.023 -0.386,1.91 -0.363,1.595 -0.34,1.279 -0.318,0.964 c 0,-0.106 -0.006,-0.208 -0.011,-0.311 -0.179,0.343 -0.367,0.689 -0.552,1.032 0.007,0.623 -0.116,1.45 -0.18,2.051 l 0,0.021 C -1.085,3.871 -1.198,3.938 -1.288,3.938 -1.4,3.916 -1.489,3.826 -1.468,3.713 l 0,-0.023 c 0.05,-0.352 0.107,-0.775 0.144,-1.18 -0.018,0.033 -0.036,0.066 -0.054,0.099 -0.142,0.269 -0.293,0.54 -0.439,0.809 0.003,0.017 -0.056,0.656 -0.101,0.97 -0.022,0.339 -0.068,0.654 -0.09,0.97 0,0.113 -0.091,0.202 -0.203,0.202 -0.113,0 -0.203,-0.112 -0.203,-0.202 l 0,-0.022 C -2.391,5.02 -2.347,4.681 -2.301,4.344 -2.301,4.331 -2.3,4.318 -2.298,4.305 -2.67,4.978 -3.049,5.652 -3.428,6.326 -3.496,6.44 -3.61,6.462 -3.697,6.416 -3.81,6.349 -3.834,6.237 -3.787,6.147 -3.349,5.378 -2.924,4.62 -2.506,3.869 -2.58,3.9 -2.654,3.93 -2.731,3.961 -3.023,4.074 -3.316,4.187 -3.586,4.277 -3.676,4.321 -3.787,4.277 -3.834,4.164 -3.88,4.051 -3.81,3.938 -3.721,3.916 -3.45,3.826 -3.159,3.69 -2.866,3.577 -2.637,3.482 -2.423,3.401 -2.201,3.312 -2.04,3.018 -1.872,2.72 -1.715,2.428 -1.636,2.281 -1.561,2.134 -1.482,1.986 -1.612,2.045 -1.741,2.11 -1.873,2.18 -2.211,2.36 -2.527,2.518 -2.819,2.609 -2.932,2.654 -3.045,2.587 -3.09,2.497 -3.113,2.383 -3.045,2.27 -2.956,2.247 -2.684,2.158 -2.369,2 -2.053,1.843 -1.772,1.67 -1.471,1.519 -1.187,1.427 -1.005,1.078 -0.822,0.732 -0.644,0.387 -0.655,0.391 -0.668,0.395 -0.678,0.4 -1.129,0.581 -1.581,0.831 -2.053,1.144 -2.145,1.21 -2.28,1.189 -2.324,1.099 -2.391,1.008 -2.369,0.898 -2.28,0.831 -1.784,0.49 -1.309,0.22 -0.815,0.019 c 0.091,-0.024 0.181,-0.069 0.271,-0.092 0.053,-0.024 0.105,-0.043 0.16,-0.059 0.182,-0.356 0.366,-0.713 0.539,-1.068 0.044,-0.111 0.157,-0.135 0.271,-0.089 0.09,0.045 0.135,0.159 0.09,0.269 C 0.35,-0.682 0.172,-0.341 0,0" inkscape:connector-curvature="0"/>
          </g>
          <g transform="translate(69.9151,85.1721)" id="g5236">
            <path id="path5238" style="fill:#004a8f;fill-opacity:1;fill-rule:nonzero;stroke:none" d="M 0,0 C -0.724,0.294 -1.449,0.604 -2.168,0.921 L -3.334,2.77 C -3.404,2.883 -3.515,2.906 -3.605,2.837 -3.695,2.794 -3.741,2.658 -3.672,2.567 L -2.84,1.225 C -3.241,1.406 -3.639,1.59 -4.034,1.776 -4.188,2.058 -4.382,2.357 -4.574,2.637 -4.778,2.952 -4.958,3.268 -5.115,3.559 -5.182,3.65 -5.296,3.695 -5.385,3.65 -5.498,3.583 -5.521,3.469 -5.476,3.379 l 0,-0.021 0.01,0.003 c 0.155,-0.309 0.354,-0.618 0.554,-0.927 0.076,-0.12 0.152,-0.236 0.224,-0.351 -0.415,0.205 -0.829,0.417 -1.243,0.628 -0.134,0.2 -0.291,0.425 -0.49,0.737 -0.18,0.247 -0.34,0.518 -0.497,0.72 C -6.964,4.28 -7.099,4.303 -7.189,4.236 -7.279,4.168 -7.3,4.056 -7.256,3.966 -7.075,3.717 -6.918,3.469 -6.761,3.222 -6.738,3.185 -6.709,3.142 -6.687,3.104 -7.501,3.535 -8.309,3.984 -9.104,4.462 -9.194,4.507 -9.329,4.483 -9.374,4.393 -9.441,4.303 -9.397,4.168 -9.307,4.123 -8.465,3.627 -7.617,3.153 -6.766,2.7 -6.839,2.692 -6.911,2.687 -6.985,2.681 -7.3,2.658 -7.593,2.637 -7.887,2.591 c -0.114,0 -0.181,-0.113 -0.181,-0.225 0.024,-0.114 0.136,-0.181 0.248,-0.16 0.271,0.046 0.564,0.07 0.856,0.092 C -6.7,2.319 -6.42,2.34 -6.154,2.377 -5.751,2.167 -5.346,1.96 -4.942,1.76 -5.083,1.752 -5.225,1.742 -5.362,1.734 -5.77,1.713 -6.174,1.69 -6.535,1.644 c -0.113,0 -0.18,-0.113 -0.18,-0.226 0.022,-0.111 0.114,-0.18 0.225,-0.156 0.36,0.045 0.766,0.068 1.149,0.09 0.376,0.02 0.748,0.044 1.087,0.082 0.44,-0.206 0.879,-0.41 1.318,-0.607 L -4.462,0.45 C -4.574,0.429 -4.641,0.315 -4.597,0.224 -4.574,0.113 -4.462,0.045 -4.372,0.068 l 2.018,0.498 C -2.03,0.422 -1.704,0.28 -1.377,0.139 -1.888,-0.067 -2.84,-0.203 -2.907,-0.203 -3.02,-0.226 -3.087,-0.34 -3.064,-0.45 c 0,-0.092 0.112,-0.181 0.224,-0.159 0.047,0 1.233,0.181 1.97,0.533 0.245,-0.102 0.488,-0.206 0.736,-0.308 0.089,-0.044 0.201,0 0.247,0.112 C 0.158,-0.159 0.113,-0.045 0,0" inkscape:connector-curvature="0"/>
          </g>
          <g transform="translate(87.0185,87.8987)" id="g5240">
            <path id="path5242" style="fill:#004a8f;fill-opacity:1;fill-rule:nonzero;stroke:none" d="m 0,0 c -0.87,-0.59 -1.739,-1.161 -2.61,-1.712 0.023,0.127 0.052,0.255 0.087,0.382 0.067,0.226 0.157,0.473 0.292,0.721 0.067,0.089 0.023,0.202 -0.068,0.269 -0.09,0.047 -0.224,0.023 -0.27,-0.088 -0.157,-0.271 -0.27,-0.542 -0.337,-0.811 -0.083,-0.249 -0.123,-0.495 -0.131,-0.742 -0.33,-0.209 -0.66,-0.412 -0.991,-0.613 0.042,0.242 0.131,0.533 0.266,0.857 0.021,0.091 0.067,0.18 0.134,0.294 0.044,0.113 0.09,0.225 0.158,0.315 0.045,0.114 0,0.226 -0.09,0.271 -0.091,0.068 -0.225,0.022 -0.271,-0.068 l 0,-0.022 c -0.067,-0.112 -0.112,-0.225 -0.158,-0.316 -0.045,-0.09 -0.089,-0.202 -0.157,-0.315 -0.197,-0.492 -0.301,-0.924 -0.295,-1.267 -0.39,-0.232 -0.778,-0.462 -1.166,-0.688 0.003,0.179 0.028,0.376 0.085,0.604 0.114,0.381 0.294,0.81 0.588,1.329 0.044,0.09 0,0.204 -0.091,0.27 -0.09,0.044 -0.203,0.021 -0.271,-0.089 -0.292,-0.542 -0.497,-0.992 -0.608,-1.399 -0.098,-0.354 -0.124,-0.672 -0.1,-0.943 -0.27,-0.157 -0.54,-0.31 -0.808,-0.458 0.039,0.223 0.083,0.448 0.141,0.682 0.09,0.337 0.226,0.674 0.361,1.035 0.046,0.091 0,0.204 -0.09,0.248 -0.112,0.046 -0.225,0 -0.271,-0.09 -0.157,-0.383 -0.292,-0.743 -0.382,-1.103 -0.082,-0.331 -0.143,-0.665 -0.188,-1.011 -0.511,-0.28 -1.019,-0.555 -1.525,-0.816 -0.114,-0.044 -0.136,-0.157 -0.09,-0.27 0.045,-0.09 0.158,-0.134 0.27,-0.068 0.528,0.269 1.056,0.549 1.585,0.835 0.327,-0.078 0.658,-0.139 1.007,-0.181 0.361,-0.068 0.743,-0.09 1.127,-0.068 0.113,0 0.203,0.09 0.203,0.202 0,0.091 -0.09,0.181 -0.203,0.181 -0.361,0 -0.721,0.023 -1.082,0.068 -0.177,0.022 -0.355,0.051 -0.53,0.084 0.246,0.136 0.49,0.276 0.735,0.417 0.316,-0.077 0.661,-0.119 1.011,-0.141 0.361,-0.022 0.744,0 1.149,0.023 0.114,0.023 0.181,0.114 0.181,0.225 0,0.113 -0.112,0.18 -0.202,0.18 -0.384,-0.044 -0.767,-0.044 -1.128,-0.022 -0.161,0 -0.328,0.011 -0.494,0.032 0.339,0.197 0.674,0.398 1.012,0.608 0.321,-0.077 0.677,-0.1 1.015,-0.12 0.384,-0.025 0.744,0 1.104,0 0.113,0 0.203,0.089 0.203,0.202 0,0.112 -0.09,0.202 -0.203,0.202 -0.36,-0.022 -0.72,-0.022 -1.081,0 -0.181,0 -0.353,0.012 -0.521,0.03 0.309,0.189 0.619,0.381 0.929,0.577 l 1.529,-0.043 c 0.113,0 0.203,0.089 0.203,0.202 0,0.112 -0.09,0.202 -0.18,0.202 l -0.938,0.026 c 0.788,0.506 1.582,1.031 2.38,1.574 0.089,0.068 0.113,0.181 0.045,0.271 C 0.225,0.043 0.09,0.068 0,0" inkscape:connector-curvature="0"/>
          </g>
          <g transform="translate(65.1608,121.8559)" id="g5244">
            <path id="path5246" style="fill:#004a8f;fill-opacity:1;fill-rule:nonzero;stroke:none" d="m 0,0 -0.992,-0.809 0,-23.166 c 0.249,-4.372 2.75,-5.926 6.535,-5.769 l 5.431,-0.157 c 1.96,-0.541 2.952,-1.668 3.515,-2.817 0.069,-0.157 0.136,-0.316 0.204,-0.474 0.607,1.555 1.689,2.952 3.761,3.291 1.917,0.043 3.923,0.112 5.836,0.157 3.133,0.046 4.958,1.487 5.094,4.822 l 0,0.857 0,0.09 L 29.384,0 14.489,0 0,0 z m 24.764,-28.618 c -2.118,0 -4.213,0 -6.31,-0.157 -1.711,-0.225 -2.927,-0.812 -3.785,-2.14 -0.067,0.089 -0.136,0.158 -0.18,0.246 -0.993,1.219 -2.186,1.803 -3.515,1.894 -2.209,0.157 -4.395,0.157 -6.604,0.157 -2.545,0.136 -4.145,1.444 -4.145,4.643 l 0,23.343 14.264,0 14.264,0 0,-23.343 c 0.114,-2.818 -1.126,-4.439 -3.989,-4.643" inkscape:connector-curvature="0"/>
          </g>
        </g>
      </g>
      <g transform="matrix(1.25,0,0,-1.25,299.95423,718.6876)" id="g5248">
        <path id="path5250" style="fill:#004a8f;fill-opacity:1;fill-rule:nonzero;stroke:none" d="m 0,0 -9.465,0 0,-0.945 8.675,0 0,-0.902 -8.562,0 0,-0.608 8.562,0 0,-1.015 -8.562,0 0,-0.63 8.562,0 0,-0.924 -8.562,0 0,-0.631 8.562,0 0,-0.745 -8.562,0 0,-0.629 8.562,0 0,-0.857 -8.562,0 0,-0.608 8.562,0 0,-0.856 -8.675,0 0,-0.655 9.465,0 L 0,0 z" inkscape:connector-curvature="0"/>
      </g>
      <g transform="matrix(1.25,0,0,-1.25,309.75598,719.86898)" id="g5252">
        <path id="path5254" style="fill:#004a8f;fill-opacity:1;fill-rule:nonzero;stroke:none" d="m 0,0 8.675,0 0,-0.902 -8.561,0 0,-0.608 8.561,0 0,-1.015 -8.561,0 0,-0.63 8.561,0 0,-0.923 -8.561,0 0,-0.632 8.561,0 0,-0.745 -8.561,0 0,-0.629 8.561,0 0,-0.857 -8.561,0 0,-0.608 8.561,0 0,-0.856 -8.675,0 0,-0.655 9.465,0 0,10.005 L 0,0.945 0,0 z" inkscape:connector-curvature="0"/>
      </g>
      <g transform="matrix(1.25,0,0,-1.25,309.75598,739.81123)" id="g5264">
        <path id="path5266" style="fill:#004a8f;fill-opacity:1;fill-rule:nonzero;stroke:none" d="m 0,0 8.586,0 0,-0.326 0,-0.44 0,-0.272 -8.586,0 0,-0.586 8.586,0 0,-1.103 -8.586,0 0,-0.541 8.586,0 -0.024,-1.105 -8.585,0 0,-0.541 8.585,0 0,-0.945 -8.585,-0.024 0,-0.54 8.585,0 c 0,-0.383 -0.134,-0.833 -0.157,-0.923 l -8.428,0 0,-0.541 8.091,-0.023 c 0,-0.451 -1.353,-1.037 -2.322,-0.969 l -5.769,0 0,-0.563 5.769,0 c 2.141,-0.18 3.651,1.104 3.719,2.929 l 0,7.528 L 0,1.015 0,0 z" inkscape:connector-curvature="0"/>
      </g>
      <g transform="matrix(1.25,0,0,-1.25,288.12448,739.81123)" id="g5268">
        <path id="path5270" style="fill:#004a8f;fill-opacity:1;fill-rule:nonzero;stroke:none" d="m 0,0 8.629,0 0,-1.038 -8.629,0 0,-0.586 8.629,0 0,-1.103 -8.629,0 0,-0.541 8.629,0 0,-1.105 -8.629,0 0,-0.541 8.629,0 0,-0.945 -8.629,0 c 0,-0.158 0.022,-0.406 0.088,-0.564 l 8.541,0 0,-0.923 -8.27,0 C 0.405,-7.504 0.54,-7.729 0.766,-7.91 l 7.863,0 0,-0.969 -7.254,0 C 1.758,-9.217 2.41,-9.465 2.997,-9.442 l 6.535,0 0,10.457 L 0,1.015 0,0 z" inkscape:connector-curvature="0"/>
      </g>
    </g>
  </g>
</svg>