<?xml version="1.0" encoding="UTF-8" standalone="no"?>
<!-- Created with Sodipodi ("http://www.sodipodi.com/") -->

<svg
   xmlns:dc="http://purl.org/dc/elements/1.1/"
   xmlns:cc="http://creativecommons.org/ns#"
   xmlns:rdf="http://www.w3.org/1999/02/22-rdf-syntax-ns#"
   xmlns:svg="http://www.w3.org/2000/svg"
   xmlns="http://www.w3.org/2000/svg"
   xmlns:sodipodi="http://sodipodi.sourceforge.net/DTD/sodipodi-0.dtd"
   xmlns:inkscape="http://www.inkscape.org/namespaces/inkscape"
   version="1"
   x="0.00000000"
   y="0.00000000"
   width="943.23608"
   height="841.64459"
   id="svg548"
   inkscape:version="0.48.2 r9819"
   sodipodi:docname="AJAX.svg">
  <metadata
     id="metadata43">
    <rdf:RDF>
      <cc:Work
         rdf:about="">
        <dc:format>image/svg+xml</dc:format>
        <dc:type
           rdf:resource="http://purl.org/dc/dcmitype/StillImage" />
      </cc:Work>
    </rdf:RDF>
  </metadata>
  <sodipodi:namedview
     pagecolor="#ffffff"
     bordercolor="#666666"
     borderopacity="1"
     objecttolerance="10"
     gridtolerance="10"
     guidetolerance="10"
     inkscape:pageopacity="0"
     inkscape:pageshadow="2"
     inkscape:window-width="1280"
     inkscape:window-height="1004"
     id="namedview41"
     showgrid="false"
     fit-margin-top="0"
     fit-margin-left="0"
     fit-margin-right="0"
     fit-margin-bottom="0"
     inkscape:zoom="0.72456085"
     inkscape:cx="632.19151"
     inkscape:cy="414.72888"
     inkscape:window-x="-8"
     inkscape:window-y="-8"
     inkscape:window-maximized="1"
     inkscape:current-layer="g699" />
  <defs
     id="defs550" />
  <g
     id="g699"
     transform="translate(-76.2539,-44.4604)">
    <g
       id="g563">
      <path
         d="m 85.8188,713.434 -1.0339,-20.68"
         style="fill:none;stroke:#000000;stroke-width:1pt"
         id="path552"
         inkscape:connector-curvature="0" />
      <path
         d="M 78.5811,685.517 77.5471,582.12"
         style="fill:none;stroke:#000000;stroke-width:1pt"
         id="path553"
         inkscape:connector-curvature="0" />
      <path
         d="m 94.0905,566.611 0,-89.955"
         style="fill:none;stroke:#000000;stroke-width:1pt"
         id="path554"
         inkscape:connector-curvature="0" />
      <path
         d="m 84.7849,712.4 -1.034,-20.68 -4.1359,-4.136 -2.0679,-105.464 16.5434,-15.509 1.034,-89.955 -6.2038,-8.271 -9.3057,0 1.034,-28.951 5.1698,-29.985 11.3736,-32.053 12.4076,-32.053 11.374,-23.781 -1.034,-37.223 -11.374,-5.169 6.204,-13.442 0,-7.238 -8.272,0 7.238,-15.509 0,-3.102 -5.17,-2.068 10.34,-19.645 16.543,-24.815 17.577,-20.679 4.136,-8.272 -5.17,-11.374 -5.169,-6.204 32.052,0 6.204,-9.305 -2.068,-14.476 -6.204,-6.203 -38.256,-4.136 -31.019,-1.034 -12.4075,-4.136 -8.2717,-7.238 -7.2378,-11.3733 -3.1018,-24.8151 -0.2593,-8.7766 0.7746,-7.0291 9.0531,10e-5 1.8051,12.7037 2.068,12.4075 7.2377,4.1359 7.2376,-4.1359 -1.034,-14.4754 0.003,-10.6358 9.576,0 0.761,7.5339 0,11.3736 5.17,11.3736 10.339,-4.1358 0,-14.4755 -0.768,-11.6698 9.067,0 -0.027,5.466 2.068,17.5773 4.136,12.4076 4.91,5.9445 7.243,-1.5442 4.131,-5.6936 -1.553,-13.1822 -0.249,-6.7122 -2.078,-14.2632 9.316,0 1.027,12.7037 1.034,10.3396 5.17,5.1698 8.271,0 2.587,-12.6668 -1.553,-15.5463 9.316,0 1.024,13.2327 0.249,10.5887 -2.317,11.6295 -5.17,9.3056 0,10.3395 5.17,8.272 12.407,7.238 14.476,-2.068 8.272,-9.306 3.102,-12.4076 -1.034,-8.2716 -9.306,-8.2717 -4.136,-9.3057 2.068,-11.3736 2.061,-9.6018 8.279,0 -2.068,14.7717 2.068,9.3056 4.135,5.1698 11.374,1.034 4.136,-7.2378 0,-13.4415 -0.519,-9.6018 8.532,0 1.293,15.8056 2.067,8.2717 5.17,5.1698 9.306,-3.1018 1.034,-10.3397 -4.402,-15.8056 8.279,0 4.395,14.7717 2.067,9.3056 6.204,5.1698 7.238,-2.0679 0,-14.4755 -3.365,-12.7037 8.794,0 3.877,18.9075 -1.034,19.6453 -6.204,10.3396 -14.476,11.3736 -20.679,5.17 -20.679,2.068 -11.374,6.203 -3.101,8.272 2.067,10.34 13.442,5.17 18.611,1.033 11.374,2.068 3.622,4.394 1.548,4.912 0,9.306 -5.17,4.136 -18.611,1.034 -3.102,4.135 2.068,6.204 16.543,2.068 -3.102,6.204 -29.985,1.034 -1.034,34.121 -31.019,-31.019 -6.203,11.373 0,9.306 6.203,12.408 14.476,12.407 22.747,17.577 4.136,14.476 4.136,16.543 2.068,29.985 -2.068,32.053 44.46,87.887 41.358,89.954 -21.713,-25.849 -27.917,-61.003 -57.902,-78.582 -75.479,69.276 -6.203,16.543 -2.068,14.476 -1.034,76.513 -54.8003,58.936 0,114.769 -5.1698,-2.067 z"
         style="fill:#000000;fill-rule:evenodd;stroke:none"
         id="path559"
         inkscape:connector-curvature="0" />
      <path
         d="m 173.706,425.992 -10.34,9.306 -6.204,11.373 -3.102,15.51 -2.068,23.781 45.495,62.038 -2.068,38.256 -6.204,5.17 68.241,120.974 4.136,-1.034 -50.664,-97.193 20.679,-97.192 -4.135,-10.34 -53.766,-80.649 z"
         style="fill:#000000;fill-rule:evenodd;stroke:none"
         id="path561"
         inkscape:connector-curvature="0" />
      <path
         d="m 259.524,335.004 -1.034,-27.917 80.649,-57.902 102.363,2.068 0,7.237 -95.125,0 -86.853,76.514 z"
         style="fill:#000000;fill-rule:evenodd;stroke:none"
         id="path562"
         inkscape:connector-curvature="0" />
    </g>
    <g
       id="g573">
      <path
         d="m 1000.87,716.535 1.04,-111.667 -55.835,-62.038 0,-83.751 -3.102,-13.442 -8.272,-12.407 -17.577,-15.51 -48.596,-47.562 -8.272,-4.136 -39.29,58.936 -16.544,17.578 -9.305,24.815 -13.442,29.985 -19.645,33.086 -5.17,1.034 40.324,-90.988 19.646,-36.189 24.815,-48.596 1.034,-65.14 4.136,-13.441 5.169,-1.034 0,-12.408 11.374,-4.136 -1.034,-11.373 14.475,-3.102 -1.033,-7.238 13.441,-3.102 17.577,-12.407 8.272,-14.476 -1.034,-11.373 -6.204,-10.34 -6.203,-1.034 -7.238,2.068 -6.204,4.136 -26.883,0 -2.325,-2.332 0.243,-7.481 10.354,0.507 3.102,-3.102 0,-5.169 -4.136,-2.068 -12.408,-2.068 -5.17,-2.068 -3.101,-7.238 0,-4.136 7.237,-2.068 33.087,1.034 5.17,-3.102 3.102,-6.203 -3.102,-7.238 -10.34,0 -7.237,-1.034 -3.102,-2.068 -4.136,-8.272 -2.068,-8.271 2.068,-5.17 5.17,-1.034 1.034,4.136 2.067,7.237 2.068,4.136 8.272,3.102 2.068,-6.204 -2.068,-7.237 2.068,-4.136 4.136,-1.034 0,6.204 2.068,7.237 7.238,4.136 9.305,0 5.17,-3.102 4.136,-10.339 -7.238,-10.34 -15.509,-9.3056 -23.781,-9.3057 -17.578,-7.2377 -8.271,-7.2378 -3.102,-9.3056 -4.136,-10.3396 1.034,-7.2378 5.17,-1.0339 4.135,4.1358 2.068,9.3057 2.068,7.2377 5.17,6.2038 10.34,0 2.068,-5.1698 0,-11.3736 1.034,-7.2377 5.169,-3.1019 3.102,4.1358 0,12.4075 -2.068,9.3057 2.068,9.3057 4.136,2.0679 7.238,-2.0679 4.136,-8.2717 6.203,-11.3736 3.102,-5.1698 4.136,2.0679 0,6.2038 -5.17,7.2377 -3.102,8.2717 -2.067,6.2038 5.169,6.2037 6.204,-1.0339 8.272,-6.2038 7.238,-8.2717 5.169,-3.1019 4.136,1.0341 0,4.1358 -5.17,5.1698 -4.135,4.1358 -6.204,7.2377 -1.034,6.2036 4.136,4.136 9.832,-2.054 9.536,-6.9742 5.447,-0.2774 2.068,6.2036 -6.204,5.17 -7.238,4.136 -6.204,6.204 -2.068,3.101 -1.033,7.238 4.135,4.136 9.306,-1.034 10.34,-7.238 10.339,-13.441 2.068,-10.34 1.034,-14.4752 -4.136,-10.3396 -6.203,-8.2717 -8.272,-8.2717 -7.238,-7.2377 1.027,-4.9063 5.177,-2.3314 8.272,9.3056 6.98,5.1698 8.793,-7.7445 5.433,-6.4673 6.711,5.9401 -10.34,12.4076 -4.136,6.2037 1.034,6.2038 9.306,2.0679 7.237,-7.2377 7.786,-5.4472 9.805,-7.2104 4.12,6.4538 -16.541,13.4415 -13.441,7.2377 -3.102,6.2038 2.068,8.2717 9.305,-1.034 13.442,-4.1358 16.539,-7.2377 3.11,6.2037 -9.31,6.2038 -29.984,9.3057 -6.204,3.102 -3.102,3.102 1.034,4.136 3.102,2.067 41.354,0 0,9.306 -55.83,0 -6.203,2.068 -11.374,7.238 -2.068,5.17 5.17,6.203 24.815,1.034 -11.374,16.544 0,25.849 -6.203,33.087 -9.306,31.018 -8.272,32.053 0,21.713 11.374,26.883 29.985,39.291 24.816,40.324 11.37,21.714 2.07,21.713 -2.07,10.339 -9.3,0 -5.173,8.272 -2.068,17.578 1.034,69.275 12.407,17.577 2.07,105.464 -6.21,3.102 -1.04,22.672 -4.13,0.075 z"
         style="fill:#000000;fill-rule:evenodd;stroke:none"
         id="path570"
         inkscape:connector-curvature="0" />
      <path
         d="m 833.373,338.105 0,-27.917 -76.513,-56.867 -107.532,-1.034 0,8.271 98.226,1.034 85.819,76.513 z"
         style="fill:#000000;fill-rule:evenodd;stroke:none"
         id="path571"
         inkscape:connector-curvature="0" />
      <path
         d="m 826.135,714.467 51.698,-98.226 0,-11.373 -9.305,-43.427 -9.306,-39.29 1.034,-10.34 24.815,-36.189 21.713,-32.052 8.272,-10.34 7.238,-2.068 7.238,5.17 6.203,12.407 3.102,14.476 0,25.849 -5.17,9.306 -19.645,27.916 -17.577,25.849 -2.068,10.34 1.034,25.849 5.17,2.068 -2.068,8.272 -48.596,93.056 -3.102,1.034 -15.51,23.781 -5.17,-2.068 z"
         style="fill:#000000;fill-rule:evenodd;stroke:none"
         id="path572"
         inkscape:connector-curvature="0" />
    </g>
    <g
       id="g585">
      <path
         d="m 434.264,164.4 1.034,-23.781 29.985,-22.747 19.645,17.577 2.068,6.204 -29.985,7.237 -3.102,27.917 -7.238,-1.034 -12.407,-11.373 z"
         style="fill:#000000;fill-rule:evenodd;stroke:none"
         id="path577"
         inkscape:connector-curvature="0" />
      <path
         d="m 551.102,191.283 c -1.034,0 8.271,-10.34 8.271,-10.34 l 8.272,-4.136 8.272,-10.339 2.068,-21.713 4.135,-4.136 17.578,0 7.238,5.17 4.135,5.169 -3.102,5.17 -7.237,8.272 -3.102,9.306 -16.544,17.577 -29.984,0 z"
         style="fill:#000000;fill-rule:evenodd;stroke:none"
         id="path578"
         inkscape:connector-curvature="0" />
      <path
         d="m 475.622,191.283 12.408,-14.476 6.204,-11.373 3.102,-19.645 -4.136,-9.306 -72.378,-69.2755 -2.068,-7.2377 6.204,-2.068 17.578,0 11.373,-3.1019 9.306,-4.1358 10.339,4.1358 36.189,2.068 12.408,3.1019 15.509,5.1697 23.781,-1.0339 11.374,-5.1698 27.917,0 14.475,6.2037 18.612,13.4416 12.407,15.5094 9.306,24.8155 2.068,38.256 -2.068,12.408 -7.238,15.509 -4.136,6.204 -26.883,0 13.442,-15.51 3.102,-14.475 -9.306,-11.374 -17.577,-12.407 -13.442,-4.136 -24.815,1.034 -34.121,2.068 -9.305,1.034 -3.102,20.679 -1.034,14.476 -14.476,18.611 -31.019,0 z"
         style="fill:#000000;fill-rule:evenodd;stroke:none"
         id="path579"
         inkscape:connector-curvature="0" />
    </g>
    <g
       id="g594">
      <path
         d="m 431.685,229.539 c 0,0 -7.597,0 -7.869,-11.836 -0.271,-12.979 7.326,-12.979 7.055,-12.979 l 229.002,0 c 0,0 7.326,0 7.597,12.436 -0.271,12.379 -7.054,12.379 -7.054,12.379 l -228.731,0 z"
         style="fill:#006634;fill-rule:evenodd;stroke-width:1pt"
         id="path589"
         inkscape:connector-curvature="0" />
      <path
         d="m 506.029,225.404 c 0,0 -8.682,-16.544 -8.682,-16.544 l 39.343,0 9.225,16.544 -39.886,0 z"
         style="fill:#ce9800;fill-rule:evenodd;stroke-width:1pt"
         id="path591"
         inkscape:connector-curvature="0" />
      <path
         d="m 431.413,225.404 c 0,0 -4.612,-0.486 -5.155,-8.515 0.272,-8.029 4.884,-8.029 4.884,-8.029 l 26.048,0 9.767,16.544 -35.544,0 z"
         transform="translate(1.62796,2.44141e-4)"
         style="fill:#ce9800;fill-rule:evenodd;stroke-width:1pt"
         id="path592"
         inkscape:connector-curvature="0" />
      <path
         d="m 506.029,225.404 c 0,0 -8.682,-16.544 -8.682,-16.544 l 39.343,0 9.225,16.544 -39.886,0 z"
         transform="translate(78.9568,2.44141e-4)"
         style="fill:#ce9800;fill-rule:evenodd;stroke-width:1pt"
         id="path593"
         inkscape:connector-curvature="0" />
    </g>
    <g
       id="g649">
      <path
         d="m 78.5811,793.049 0,-64.106 268.8299,0 63.072,64.106 -331.9019,0 z"
         style="fill:#996631;fill-opacity:1;fill-rule:evenodd;stroke:none"
         id="path643"
         inkscape:connector-curvature="0" />
      <path
         d="m 347.411,802.354 0,21.713 63.072,52.732 0,-74.445 -63.072,0 z"
         style="fill:#996631;fill-opacity:1;fill-rule:evenodd;stroke:none"
         id="path644"
         inkscape:connector-curvature="0" />
      <path
         d="m 420.822,824.067 0,62.038 248.151,0 0,-62.038 -248.151,0 z"
         style="fill:#996631;fill-opacity:1;fill-rule:evenodd;stroke:none"
         id="path645"
         inkscape:connector-curvature="0" />
      <path
         d="m 678.279,876.799 0,-74.445 63.072,0 0,21.713 -63.072,52.732 z"
         style="fill:#996631;fill-opacity:1;fill-rule:evenodd;stroke:none"
         id="path646"
         inkscape:connector-curvature="0" />
      <path
         d="m 678.279,793.049 c 0,0 63.072,-64.106 64.105,-64.106 l 269.866,0 0,64.106 -333.971,0 z"
         style="fill:#996631;fill-opacity:1;fill-rule:evenodd;stroke:none"
         id="path647"
         inkscape:connector-curvature="0" />
      <path
         d="m 294.877,742.696 0,7.593 -5.86,0 0,30.352 -9.867,0 0,-30.352 -5.836,0 0,-7.593 21.563,0 z m -23.836,0 0,37.945 -9.867,0 0,-37.945 9.867,0 z m -33.961,0 9.937,0 c 2.688,0 4.75,0.211 6.188,0.632 1.453,0.422 2.539,1.032 3.258,1.829 0.734,0.796 1.226,1.765 1.476,2.906 0.266,1.125 0.399,2.875 0.399,5.25 l 0,3.304 c 0,2.422 -0.25,4.188 -0.75,5.297 -0.5,1.11 -1.422,1.961 -2.766,2.555 -1.328,0.594 -3.07,0.891 -5.226,0.891 l -2.649,0 0,15.281 -9.867,0 0,-37.945 z m 9.867,6.492 0,9.656 c 0.281,0.016 0.524,0.023 0.727,0.023 0.906,0 1.531,-0.218 1.875,-0.656 0.359,-0.453 0.539,-1.383 0.539,-2.789 l 0,-3.117 c 0,-1.297 -0.203,-2.141 -0.61,-2.531 -0.406,-0.391 -1.25,-0.586 -2.531,-0.586 z m -29.812,-6.492 16.453,0 0,7.593 -6.586,0 0,7.196 6.164,0 0,7.218 -6.164,0 0,8.344 7.242,0 0,7.594 -17.109,0 0,-37.945 z m -3.539,16.546 -9.868,0 0,-6.609 c 0,-1.922 -0.109,-3.117 -0.328,-3.586 -0.203,-0.484 -0.664,-0.726 -1.383,-0.726 -0.812,0 -1.328,0.289 -1.546,0.867 -0.219,0.578 -0.329,1.828 -0.329,3.75 l 0,17.625 c 0,1.844 0.11,3.047 0.329,3.609 0.218,0.563 0.711,0.844 1.476,0.844 0.735,0 1.211,-0.281 1.43,-0.844 0.234,-0.562 0.351,-1.883 0.351,-3.961 l 0,-4.758 9.868,0 0,1.477 c 0,3.922 -0.282,6.703 -0.844,8.344 -0.547,1.64 -1.774,3.078 -3.68,4.312 -1.89,1.235 -4.226,1.852 -7.008,1.852 -2.89,0 -5.273,-0.524 -7.148,-1.571 -1.875,-1.046 -3.117,-2.492 -3.727,-4.335 -0.609,-1.86 -0.914,-4.649 -0.914,-8.368 l 0,-11.086 c 0,-2.734 0.094,-4.781 0.282,-6.14 0.187,-1.375 0.742,-2.696 1.664,-3.961 0.937,-1.266 2.226,-2.258 3.867,-2.977 1.656,-0.734 3.554,-1.101 5.695,-1.101 2.906,0 5.305,0.562 7.195,1.687 1.891,1.125 3.133,2.531 3.727,4.219 0.594,1.672 0.891,4.281 0.891,7.828 l 0,3.609 z m -27,-16.546 0,37.945 -8.649,0 -5.133,-17.25 0,17.25 -8.25,0 0,-37.945 8.25,0 5.532,17.086 0,-17.086 8.25,0 z m -25.993,0 0,37.945 -9.867,0 0,-37.945 9.867,0 z m -20.578,0 0,7.593 -5.859,0 0,30.352 -9.867,0 0,-30.352 -5.836,0 0,-7.593 21.562,0 z m -21.562,0 -5.016,37.945 -14.9764,0 -5.6953,-37.945 10.4067,0 c 1.203,10.453 2.062,19.289 2.578,26.507 0.515,-7.296 1.054,-13.781 1.617,-19.453 l 0.68,-7.054 10.406,0 z"
         transform="translate(0,-0.672546)"
         style="font-weight:normal;fill:#ffffff;stroke:none;font-family:Impact"
         id="path627"
         inkscape:connector-curvature="0" />
      <path
         d="m 599.65,846.203 -9.164,0 0,-2.813 c 0,-1.312 -0.117,-2.148 -0.352,-2.508 -0.234,-0.359 -0.625,-0.539 -1.172,-0.539 -0.593,0 -1.046,0.242 -1.359,0.727 -0.297,0.484 -0.445,1.219 -0.445,2.203 0,1.266 0.172,2.219 0.515,2.859 0.328,0.641 1.258,1.414 2.789,2.321 4.391,2.609 7.157,4.75 8.297,6.421 1.141,1.672 1.711,4.368 1.711,8.086 0,2.704 -0.32,4.696 -0.961,5.977 -0.625,1.281 -1.843,2.359 -3.656,3.234 -1.812,0.86 -3.922,1.289 -6.328,1.289 -2.641,0 -4.899,-0.5 -6.774,-1.5 -1.859,-1 -3.078,-2.273 -3.656,-3.82 -0.578,-1.547 -0.867,-3.742 -0.867,-6.586 l 0,-2.484 9.164,0 0,4.617 c 0,1.422 0.125,2.336 0.375,2.742 0.266,0.406 0.727,0.61 1.383,0.61 0.656,0 1.141,-0.258 1.453,-0.774 0.328,-0.516 0.492,-1.281 0.492,-2.297 0,-2.234 -0.304,-3.695 -0.914,-4.383 -0.625,-0.687 -2.164,-1.836 -4.617,-3.445 -2.453,-1.625 -4.078,-2.805 -4.875,-3.539 -0.797,-0.734 -1.461,-1.75 -1.992,-3.047 -0.516,-1.297 -0.774,-2.953 -0.774,-4.969 0,-2.906 0.368,-5.031 1.102,-6.375 0.75,-1.343 1.953,-2.39 3.609,-3.14 1.657,-0.766 3.657,-1.149 6,-1.149 2.563,0 4.742,0.414 6.539,1.243 1.813,0.828 3.008,1.875 3.586,3.14 0.594,1.25 0.891,3.383 0.891,6.399 l 0,1.5 z m -24.867,-11.485 0,37.946 -9.867,0 0,-37.946 9.867,0 z m -18.258,0 0,30.352 6,0 0,7.594 -15.867,0 0,-37.946 9.867,0 z m -29.813,0 16.454,0 0,7.594 -6.586,0 0,7.195 6.164,0 0,7.219 -6.164,0 0,8.344 7.242,0 0,7.594 -17.11,0 0,-37.946 z m -26.531,0 7.383,0 c 4.766,0 7.984,0.219 9.656,0.656 1.688,0.438 2.969,1.157 3.844,2.157 0.875,1 1.422,2.117 1.641,3.351 0.218,1.219 0.328,3.625 0.328,7.219 l 0,13.289 c 0,3.406 -0.164,5.688 -0.492,6.844 -0.313,1.14 -0.868,2.039 -1.665,2.695 -0.796,0.641 -1.781,1.094 -2.953,1.36 -1.172,0.25 -2.937,0.375 -5.297,0.375 l -12.445,0 0,-37.946 z m 9.867,6.492 0,24.961 c 1.422,0 2.297,-0.281 2.625,-0.843 0.328,-0.579 0.493,-2.133 0.493,-4.664 l 0,-14.743 c 0,-1.718 -0.055,-2.82 -0.165,-3.304 -0.109,-0.485 -0.359,-0.836 -0.75,-1.055 -0.39,-0.234 -1.125,-0.352 -2.203,-0.352 z m -13.828,-6.492 0,37.946 -9.867,0 0,-37.946 9.867,0 z m -28.969,0 16.711,0 0,7.594 -6.843,0 0,7.195 6.093,0 0,7.219 -6.093,0 0,15.938 -9.868,0 0,-37.946 z"
         transform="translate(11.0373,1.39581)"
         style="font-weight:normal;fill:#ffffff;stroke:none;font-family:Impact"
         id="path628"
         inkscape:connector-curvature="0" />
      <path
         d="m 1004.25,745.797 0,7.594 -5.856,0 0,30.352 -9.867,0 0,-30.352 -5.836,0 0,-7.594 21.559,0 z m -39.817,0 16.453,0 0,7.594 -6.586,0 0,7.196 6.164,0 0,7.218 -6.164,0 0,8.344 7.242,0 0,7.594 -17.109,0 0,-37.946 z m -3.961,0 0,37.946 -8.648,0 -5.133,-17.25 0,17.25 -8.25,0 0,-37.946 8.25,0 5.531,17.086 0,-17.086 8.25,0 z m -29.367,0 5.648,37.946 -10.101,0 -0.492,-6.821 -3.54,0 -0.585,6.821 -10.219,0 5.015,-37.946 14.274,0 z m -5.227,24.399 c -0.5,-4.297 -1,-9.602 -1.5,-15.914 -1,7.25 -1.625,12.555 -1.875,15.914 l 3.375,0 z m -15.773,-24.399 0,37.946 -8.625,0 0,-25.617 -3.445,25.617 -6.118,0 -3.632,-25.031 0,25.031 -8.625,0 0,-37.946 12.773,0 c 0.375,2.282 0.773,4.969 1.195,8.063 l 1.36,9.656 2.25,-17.719 12.867,0 z m -56.297,0 6.984,0 c 4.657,0 7.805,0.18 9.446,0.54 1.656,0.359 3,1.281 4.031,2.765 1.047,1.469 1.57,3.82 1.57,7.055 0,2.953 -0.367,4.937 -1.101,5.953 -0.735,1.016 -2.18,1.625 -4.336,1.828 1.953,0.484 3.265,1.133 3.937,1.945 0.672,0.813 1.086,1.563 1.242,2.25 0.172,0.672 0.258,2.539 0.258,5.602 l 0,10.008 -9.164,0 0,-12.61 c 0,-2.031 -0.164,-3.289 -0.492,-3.773 -0.313,-0.484 -1.148,-0.727 -2.508,-0.727 l 0,17.11 -9.867,0 0,-37.946 z m 9.867,6.493 0,8.437 c 1.11,0 1.883,-0.148 2.32,-0.445 0.454,-0.313 0.68,-1.305 0.68,-2.977 l 0,-2.086 c 0,-1.203 -0.219,-1.992 -0.656,-2.367 -0.422,-0.375 -1.203,-0.562 -2.344,-0.562 z m -29.812,-6.493 16.453,0 0,7.594 -6.586,0 0,7.196 6.164,0 0,7.218 -6.164,0 0,8.344 7.242,0 0,7.594 -17.109,0 0,-37.946 z m -24.094,0 9.937,0 c 2.688,0 4.75,0.211 6.188,0.633 1.453,0.422 2.539,1.032 3.258,1.828 0.734,0.797 1.226,1.766 1.476,2.907 0.266,1.125 0.399,2.875 0.399,5.25 l 0,3.304 c 0,2.422 -0.25,4.188 -0.75,5.297 -0.5,1.11 -1.422,1.961 -2.766,2.555 -1.328,0.594 -3.07,0.891 -5.226,0.891 l -2.649,0 0,15.281 -9.867,0 0,-37.946 z m 9.867,6.493 0,9.656 c 0.281,0.016 0.524,0.023 0.727,0.023 0.906,0 1.531,-0.218 1.875,-0.656 0.359,-0.453 0.539,-1.383 0.539,-2.789 l 0,-3.117 c 0,-1.297 -0.203,-2.141 -0.61,-2.531 -0.406,-0.391 -1.25,-0.586 -2.531,-0.586 z m -21.867,10.054 -9.867,0 0,-6.609 c 0,-1.922 -0.11,-3.117 -0.328,-3.586 -0.204,-0.484 -0.664,-0.727 -1.383,-0.727 -0.813,0 -1.328,0.29 -1.547,0.868 -0.219,0.578 -0.328,1.828 -0.328,3.75 l 0,17.625 c 0,1.843 0.109,3.047 0.328,3.609 0.219,0.563 0.711,0.844 1.476,0.844 0.735,0 1.211,-0.281 1.43,-0.844 0.235,-0.562 0.352,-1.883 0.352,-3.961 l 0,-4.758 9.867,0 0,1.477 c 0,3.922 -0.281,6.703 -0.844,8.344 -0.547,1.64 -1.773,3.078 -3.68,4.312 -1.89,1.234 -4.226,1.852 -7.007,1.852 -2.891,0 -5.274,-0.524 -7.149,-1.571 -1.875,-1.047 -3.117,-2.492 -3.726,-4.336 -0.61,-1.859 -0.914,-4.648 -0.914,-8.367 l 0,-11.086 c 0,-2.734 0.093,-4.781 0.281,-6.14 0.187,-1.375 0.742,-2.696 1.664,-3.961 0.937,-1.266 2.226,-2.258 3.867,-2.977 1.656,-0.734 3.555,-1.101 5.695,-1.101 2.907,0 5.305,0.562 7.196,1.687 1.89,1.125 3.133,2.531 3.726,4.219 0.594,1.672 0.891,4.281 0.891,7.828 l 0,3.609 z m -27,-16.547 0,37.946 -9.867,0 0,-37.946 9.867,0 z m -13.781,11.485 -9.164,0 0,-2.813 c 0,-1.312 -0.118,-2.148 -0.352,-2.507 -0.234,-0.36 -0.625,-0.54 -1.172,-0.54 -0.594,0 -1.047,0.243 -1.359,0.727 -0.297,0.484 -0.446,1.219 -0.446,2.203 0,1.266 0.172,2.219 0.516,2.86 0.328,0.64 1.258,1.414 2.789,2.32 4.391,2.609 7.156,4.75 8.297,6.422 1.141,1.672 1.711,4.367 1.711,8.086 0,2.703 -0.32,4.695 -0.961,5.976 -0.625,1.281 -1.844,2.36 -3.656,3.235 -1.813,0.859 -3.922,1.289 -6.328,1.289 -2.641,0 -4.899,-0.5 -6.774,-1.5 -1.859,-1 -3.078,-2.274 -3.656,-3.821 -0.578,-1.547 -0.867,-3.742 -0.867,-6.586 l 0,-2.484 9.164,0 0,4.617 c 0,1.422 0.125,2.336 0.375,2.742 0.265,0.407 0.726,0.61 1.383,0.61 0.656,0 1.14,-0.258 1.453,-0.774 0.328,-0.515 0.492,-1.281 0.492,-2.297 0,-2.234 -0.305,-3.695 -0.914,-4.382 -0.625,-0.688 -2.164,-1.836 -4.617,-3.446 -2.453,-1.625 -4.078,-2.804 -4.875,-3.539 -0.797,-0.734 -1.461,-1.75 -1.992,-3.047 -0.516,-1.296 -0.774,-2.953 -0.774,-4.968 0,-2.907 0.367,-5.032 1.102,-6.375 0.75,-1.344 1.953,-2.391 3.609,-3.141 1.656,-0.766 3.656,-1.148 6,-1.148 2.563,0 4.742,0.414 6.539,1.242 1.813,0.828 3.008,1.875 3.586,3.14 0.594,1.25 0.891,3.383 0.891,6.399 l 0,1.5 z"
         transform="translate(0,-3.77448)"
         style="font-weight:normal;fill:#ffffff;stroke:none;font-family:Impact"
         id="path629"
         inkscape:connector-curvature="0" />
    </g>
    <g
       transform="matrix(2.27142,0,0,2.27148,-247.622,-644.889)"
       id="g618">
      <path
         d="m 435.398,402.553 -173.428,0 -0.005,0 0.035,139.079 c 1.091,0 1.508,27.562 20.718,41.343 19.21,13.781 65.981,41.76 65.981,41.76 0,0 46.771,-27.979 65.981,-41.76 19.21,-13.781 19.627,-41.343 20.718,-41.343 l 0,-139.079 z"
         style="fill:#006634;fill-rule:evenodd;stroke-width:1pt"
         id="path564"
         inkscape:connector-curvature="0" />
      <rect
         width="0"
         height="10.720184"
         x="263.3692"
         y="403.93506"
         style="fill:#808080;fill-rule:evenodd;stroke-width:1pt"
         id="rect574" />
      <path
         d="m 351.739,600.037 0,-35.194 34.189,-19.489 0,11.688 2.531,-0.551 5.002,7.461 4.871,-7.389 2.372,0.41 0,-5.853 13.778,7.932 0.848,-2.699 9.399,-0.271 -4.437,-8.562 1.467,-2.278 -11.996,-7.085 12.144,-7.041 -1.789,-2.173 4.096,-7.584 -8.247,-0.489 -0.148,-3.249 -15.115,7.888 0,-16.066 -3.045,0.866 -4.198,-8.055 -4.39,7.888 -3.143,-0.586 0,15.833 -5.774,-3.165 -1.427,2.927 -8.08,0.22 4.266,7.182 -1.926,2.312 9.717,6.813 -30.965,18.116 0,-37.823 9.73,7.084 1.206,-3.072 7.607,-0.969 -2.577,-7.69 1.485,-2.97 -4.306,-1.93 12.919,-7.425 -2.524,-2.358 4.98,-7.356 -8.483,-0.978 -0.804,-2.97 -14.597,7.678 0,-14.955 -2.994,0.638 -4.25,-8.798 -4.25,8.798 -2.994,-0.638 0,14.955 -14.597,-7.678 -0.804,2.97 -8.483,0.978 4.98,7.356 -2.524,2.358 12.919,7.425 -4.306,1.93 1.485,2.97 -2.577,7.69 7.607,0.969 1.206,3.072 9.73,-7.084 0,37.823 -30.965,-18.116 9.717,-6.813 -1.926,-2.312 4.266,-7.182 -8.08,-0.22 -1.427,-2.927 -5.774,3.165 0,-15.833 -3.143,0.586 -4.39,-7.888 -4.198,8.055 -3.045,-0.866 0,16.066 -15.115,-7.888 -0.148,3.249 -8.247,0.489 4.096,7.584 -1.789,2.173 12.144,7.041 -11.996,7.085 1.467,2.278 -4.437,8.562 9.399,0.271 0.848,2.699 13.778,-7.932 0,5.853 2.372,-0.41 4.871,7.389 5.002,-7.461 2.531,0.551 0,-11.688 34.189,19.489 0,35.194 5.216,0 z"
         transform="translate(-0.449486,0)"
         style="fill:#ce9800;fill-rule:evenodd;stroke-width:1pt"
         id="path604"
         inkscape:connector-curvature="0" />
      <g
         transform="translate(-0.159492,0)"
         id="g605">
        <rect
           width="170.9437"
           height="58.526459"
           x="263.3692"
           y="403.93506"
           style="fill:#ffffff;fill-rule:evenodd;stroke-width:1pt"
           id="rect575" />
        <path
           d="m 263.369,440.643 77.92,0 0,21.819 15.039,0 0,-21.819 77.985,0 0,-15.039 -77.985,0 0,-21.669 -15.039,0 0,21.669 -77.92,0 0,15.039 z"
           style="fill:#ce1126;fill-opacity:1;fill-rule:evenodd;stroke-width:1pt"
           id="path590"
           inkscape:connector-curvature="0" />
      </g>
    </g>
  </g>
</svg>
