<?xml version="1.0" encoding="UTF-8" standalone="no"?>
<!-- Generator: Adobe Illustrator 12.0.1, SVG Export Plug-In . SVG Version: 6.00 Build 51448)  -->
<svg
   xmlns:dc="http://purl.org/dc/elements/1.1/"
   xmlns:cc="http://creativecommons.org/ns#"
   xmlns:rdf="http://www.w3.org/1999/02/22-rdf-syntax-ns#"
   xmlns:svg="http://www.w3.org/2000/svg"
   xmlns="http://www.w3.org/2000/svg"
   xmlns:sodipodi="http://sodipodi.sourceforge.net/DTD/sodipodi-0.dtd"
   xmlns:inkscape="http://www.inkscape.org/namespaces/inkscape"
   version="1.1"
   id="Layer_1"
   width="157.209"
   height="121.185"
   viewBox="0 0 157.209 121.185"
   style="overflow:visible;enable-background:new 0 0 157.209 121.185;"
   xml:space="preserve"
   sodipodi:version="0.32"
   inkscape:version="0.46"
   sodipodi:docname="Cycloleucin.svg"
   inkscape:output_extension="org.inkscape.output.svg.inkscape"><metadata
   id="metadata46"><rdf:RDF><cc:Work
       rdf:about=""><dc:format>image/svg+xml</dc:format><dc:type
         rdf:resource="http://purl.org/dc/dcmitype/StillImage" /></cc:Work></rdf:RDF></metadata><defs
   id="defs44"><inkscape:perspective
   sodipodi:type="inkscape:persp3d"
   inkscape:vp_x="0 : 60.592499 : 1"
   inkscape:vp_y="0 : 1000 : 0"
   inkscape:vp_z="157.209 : 60.592499 : 1"
   inkscape:persp3d-origin="78.6045 : 40.394999 : 1"
   id="perspective48" />
	
	

	

	
	

	
</defs><sodipodi:namedview
   inkscape:window-height="675"
   inkscape:window-width="661"
   inkscape:pageshadow="2"
   inkscape:pageopacity="0.0"
   guidetolerance="10.0"
   gridtolerance="10.0"
   objecttolerance="10.0"
   borderopacity="1.0"
   bordercolor="#666666"
   pagecolor="#ffffff"
   id="base"
   showgrid="false"
   inkscape:zoom="3.4603617"
   inkscape:cx="78.6045"
   inkscape:cy="60.592499"
   inkscape:window-x="110"
   inkscape:window-y="110"
   inkscape:current-layer="Layer_1" />
<path
   id="path5"
   d="M 58.154325,113.88038 L 58.154325,97.551775 L 60.377325,97.551775 L 68.931125,110.36633 L 68.931125,97.551775 L 71.009725,97.551775 L 71.009725,113.88038 L 68.786725,113.88038 L 60.232925,101.06582 L 60.232925,113.88038 L 58.154325,113.88038 z"
   style="fill:#231f20" /><path
   id="path7"
   d="M 74.724225,113.88038 L 74.724225,97.551775 L 76.891175,97.551775 L 76.891175,104.26162 L 85.337625,104.26162 L 85.337625,97.551775 L 87.504575,97.551775 L 87.504575,113.88038 L 85.337625,113.88038 L 85.337625,106.19107 L 76.891175,106.19107 L 76.891175,113.88038 L 74.724225,113.88038 z"
   style="fill:#231f20" />
<path
   id="path11"
   d="M 97.746525,116.71517 L 97.746525,118.15537 L 89.642075,118.15537 C 89.630675,117.79342 89.690525,117.44572 89.818775,117.11132 C 90.026825,116.56032 90.358375,116.01788 90.815325,115.48398 C 91.272275,114.95007 91.926825,114.33353 92.781825,113.63433 C 94.107075,112.53897 95.006725,111.67352 95.479825,111.03702 C 95.952925,110.40053 96.188525,109.79727 96.188525,109.22917 C 96.188525,108.63447 95.974775,108.13382 95.547275,107.72437 C 95.119775,107.31588 94.563075,107.11163 93.874325,107.11163 C 93.146625,107.11163 92.566175,107.32917 92.130125,107.76523 C 91.694075,108.20127 91.473675,108.80452 91.467975,109.57497 L 89.924225,109.41157 C 90.029675,108.25637 90.428675,107.37667 91.121225,106.77248 C 91.813775,106.16637 92.742875,105.86427 93.908525,105.86427 C 95.085575,105.86427 96.018475,106.19012 96.703425,106.84182 C 97.389325,107.49353 97.732275,108.30102 97.732275,109.26432 C 97.732275,109.75453 97.632525,110.23618 97.432075,110.70927 C 97.230675,111.18237 96.897225,111.68112 96.431725,112.20458 C 95.964325,112.72802 95.191975,113.44622 94.112775,114.35917 C 93.210275,115.11727 92.629825,115.63027 92.372375,115.90102 C 92.114925,116.16987 91.901175,116.44158 91.732075,116.71422 L 97.746525,116.71422 L 97.746525,116.71517 z"
   style="fill:#231f20" />
<path
   style="fill:#231f20"
   d="M 65.395225,95.355375 L 63.780225,95.355375 L 63.780225,68.421925 L 64.587725,67.187875 L 65.395225,67.662875 L 65.395225,95.355375 z"
   id="polygon13" />
<path
   style="fill:#231f20"
   d="M 97.220225,47.426925 L 97.220225,49.280375 L 65.395225,67.662875 L 64.587725,67.187875 L 65.300225,65.857875 L 97.220225,47.426925 z"
   id="polygon15" />
<path
   id="path19"
   d="M 122.02188,68.217675 C 122.02188,65.507325 122.74957,63.386925 124.20403,61.854575 C 125.66038,60.321275 127.53853,59.554625 129.84133,59.554625 C 131.34803,59.554625 132.70748,59.914675 133.91778,60.634775 C 135.12713,61.355825 136.04958,62.359025 136.68512,63.647225 C 137.32067,64.935425 137.63798,66.396525 137.63798,68.028625 C 137.63798,69.684475 137.30357,71.165525 136.63477,72.471775 C 135.96598,73.778025 135.01978,74.767925 133.79522,75.439575 C 132.56877,76.111225 131.24732,76.447525 129.82993,76.447525 C 128.29188,76.447525 126.91912,76.076075 125.70882,75.334125 C 124.49757,74.592175 123.58082,73.577575 122.95763,72.294125 C 122.33442,71.010675 122.02188,69.651225 122.02188,68.217675 z M 124.24773,68.245225 C 124.24773,70.211725 124.77687,71.761175 125.83422,72.893575 C 126.89348,74.025025 128.22062,74.591225 129.81758,74.591225 C 131.44303,74.591225 132.78252,74.019325 133.83322,72.876475 C 134.88393,71.733625 135.41022,70.111975 135.41022,68.011525 C 135.41022,66.683425 135.18603,65.523475 134.73573,64.532625 C 134.28543,63.541775 133.62897,62.773225 132.76448,62.227925 C 131.89903,61.682625 130.92718,61.409975 129.85178,61.409975 C 128.32133,61.409975 127.00557,61.935325 125.90167,62.985075 C 124.79873,64.035775 124.24773,65.789475 124.24773,68.245225 z"
   style="fill:#231f20" /><path
   id="path21"
   d="M 140.49842,76.164425 L 140.49842,59.836775 L 142.66538,59.836775 L 142.66538,66.546625 L 151.11183,66.546625 L 151.11183,59.836775 L 153.27877,59.836775 L 153.27877,76.165375 L 151.11183,76.165375 L 151.11183,68.476075 L 142.66538,68.476075 L 142.66538,76.165375 L 140.49842,76.165375 L 140.49842,76.164425 z"
   style="fill:#231f20" />
<path
   style="fill:#231f20"
   d="M 121.63523,61.487875 L 120.82773,62.912875 L 97.220225,49.280375 L 97.220225,47.426925 L 121.63523,61.487875 z"
   id="polygon23" />
<path
   id="path27"
   d="M 89.435925,11.692675 C 89.435925,8.982325 90.163625,6.861925 91.619975,5.329575 C 93.074425,3.796275 94.953525,3.029625 97.254425,3.029625 C 98.763025,3.029625 100.12153,3.389675 101.33088,4.109775 C 102.54118,4.830825 103.46457,5.834025 104.09918,7.122225 C 104.73377,8.410425 105.05107,9.871525 105.05107,11.503625 C 105.05107,13.159475 104.71667,14.640525 104.04883,15.946775 C 103.38098,17.253025 102.43383,18.242925 101.20833,18.914575 C 99.983775,19.586225 98.661375,19.922525 97.243025,19.922525 C 95.706875,19.922525 94.332225,19.551075 93.121925,18.809125 C 91.911625,18.067175 90.995825,17.052575 90.370725,15.769125 C 89.745625,14.485675 89.435925,13.126225 89.435925,11.692675 z M 91.662725,11.720225 C 91.662725,13.686725 92.191875,15.236175 93.251125,16.368575 C 94.308475,17.500025 95.637525,18.066225 97.232575,18.066225 C 98.859925,18.066225 100.19753,17.494325 101.25012,16.351475 C 102.29988,15.208625 102.82523,13.586975 102.82523,11.486525 C 102.82523,10.158425 102.60103,8.998475 102.15168,8.007625 C 101.70233,7.016775 101.04493,6.248225 100.17947,5.702925 C 99.314975,5.157625 98.344075,4.884975 97.266775,4.884975 C 95.738225,4.884975 94.420575,5.410325 93.318575,6.460075 C 92.213725,7.510775 91.662725,9.264475 91.662725,11.720225 z"
   style="fill:#231f20" />
<path
   style="fill:#231f20"
   d="M 93.610227,22.062875 L 95.225227,22.062875 L 95.225227,49.992874 L 93.610227,49.992874 L 93.610227,22.062875 z"
   id="rect29" />
<path
   style="fill:#231f20"
   d="M 99.263675,22.062875 L 100.87772,22.062875 L 100.87772,49.992874 L 99.263675,49.992874 L 99.263675,22.062875 z"
   id="rect31" />
<path
   style="fill:#231f20"
   d="M 59.932725,30.375375 L 61.405225,28.996925 L 65.300225,65.857875 L 64.587725,67.187875 L 63.732725,66.664425 L 59.932725,30.375375 z"
   id="polygon33" />
<path
   style="fill:#231f20"
   d="M 24.212725,22.775375 L 23.405225,20.921925 L 61.405225,28.996925 L 59.932725,30.375375 L 24.212725,22.775375 z"
   id="polygon35" />
<path
   style="fill:#231f20"
   d="M 5.925225,54.409425 L 3.930225,54.600375 L 23.405225,20.921925 L 24.212725,22.775375 L 5.925225,54.409425 z"
   id="polygon37" />
<path
   style="fill:#231f20"
   d="M 30.387725,81.532875 L 29.960225,83.480375 L 3.930225,54.600375 L 5.925225,54.409425 L 30.387725,81.532875 z"
   id="polygon39" />
<path
   style="fill:#231f20"
   d="M 63.732725,66.664425 L 64.587725,67.187875 L 63.780225,68.421925 L 29.960225,83.480375 L 30.387725,81.532875 L 63.732725,66.664425 z"
   id="polygon41" />
</svg>