<?xml version="1.0" encoding="UTF-8" standalone="no"?>
<svg
   xmlns:dc="http://purl.org/dc/elements/1.1/"
   xmlns:cc="http://creativecommons.org/ns#"
   xmlns:rdf="http://www.w3.org/1999/02/22-rdf-syntax-ns#"
   xmlns:svg="http://www.w3.org/2000/svg"
   xmlns="http://www.w3.org/2000/svg"
   xmlns:sodipodi="http://sodipodi.sourceforge.net/DTD/sodipodi-0.dtd"
   xmlns:inkscape="http://www.inkscape.org/namespaces/inkscape"
   version="1.1"
   width="330.66666"
   height="524"
   viewBox="-40 -90 82.666664 131"
   id="svg2"
   inkscape:version="0.48.5 r10040"
   sodipodi:docname="Deformation due to compression.svg">
  <metadata
     id="metadata21">
    <rdf:RDF>
      <cc:Work
         rdf:about="">
        <dc:format>image/svg+xml</dc:format>
        <dc:type
           rdf:resource="http://purl.org/dc/dcmitype/StillImage" />
      </cc:Work>
    </rdf:RDF>
  </metadata>
  <sodipodi:namedview
     pagecolor="#ffffff"
     bordercolor="#666666"
     borderopacity="1"
     objecttolerance="10"
     gridtolerance="10"
     guidetolerance="10"
     inkscape:pageopacity="0"
     inkscape:pageshadow="2"
     inkscape:window-width="1600"
     inkscape:window-height="861"
     id="namedview19"
     showgrid="false"
     fit-margin-top="10"
     fit-margin-left="10"
     fit-margin-right="10"
     fit-margin-bottom="10"
     inkscape:zoom="1.6857143"
     inkscape:cx="220.45647"
     inkscape:cy="177.25774"
     inkscape:window-x="1280"
     inkscape:window-y="0"
     inkscape:window-maximized="1"
     inkscape:current-layer="g11" />
  <defs
     id="defs4">
    <marker
       id="EA"
       viewBox="0 0 10 20"
       refX="10"
       refY="5"
       markerUnits="strokeWidth"
       orient="auto"
       markerWidth="15"
       markerHeight="15">
      <polyline
         points="10,5 0,10 4,5 0,0 10,5"
         id="polyline7"
         style="fill:#0000ff" />
    </marker>
  </defs>
  <title
     id="title9">Deformation due to compression</title>
  <g
     id="g11"
     style="fill:none;stroke:#000000;stroke-width:1"
     transform="translate(1.3333333,-7)">
    <path
       d="m -25,-40 a 25,5 0 0 0 50,0 13.333333,40 0 0 1 0,80 25,5 0 0 1 -50,0 13.333333,40 0 0 1 0,-80 25,5 0 0 1 50,0"
       id="path13"
       inkscape:connector-curvature="0" />
    <path
       d="m -25,-60 a 25,5 0 0 1 50,0 V 40 a 25,5 0 0 0 -50,0 V -60 a 25,5 0 0 0 50,0"
       id="path15"
       inkscape:connector-curvature="0"
       style="stroke-dasharray:3, 3" />
    <path
       d="m 0,-80 v 40"
       id="path17"
       style="stroke:#0000ff;marker-end:url(#EA)"
       inkscape:connector-curvature="0" />
  </g>
</svg>
