<?xml version="1.0" encoding="UTF-8" standalone="no"?>
<!-- Created with Inkscape (http://www.inkscape.org/) -->

<svg
   xmlns:dc="http://purl.org/dc/elements/1.1/"
   xmlns:cc="http://creativecommons.org/ns#"
   xmlns:rdf="http://www.w3.org/1999/02/22-rdf-syntax-ns#"
   xmlns:svg="http://www.w3.org/2000/svg"
   xmlns="http://www.w3.org/2000/svg"
   xmlns:sodipodi="http://sodipodi.sourceforge.net/DTD/sodipodi-0.dtd"
   xmlns:inkscape="http://www.inkscape.org/namespaces/inkscape"
   id="svg2"
   version="1.1"
   inkscape:version="0.91 r13725"
   xml:space="preserve"
   width="250"
   height="250"
   viewBox="0 0 250 250"
   sodipodi:docname="digitalteilchen.svg"><metadata
     id="metadata8"><rdf:RDF><cc:Work
         rdf:about=""><dc:format>image/svg+xml</dc:format><dc:type
           rdf:resource="http://purl.org/dc/dcmitype/StillImage" /><dc:title></dc:title></cc:Work></rdf:RDF></metadata><defs
     id="defs6"><marker
       inkscape:stockid="Arrow1Sstart"
       orient="auto"
       refY="0"
       refX="0"
       id="Arrow1Sstart"
       style="overflow:visible"
       inkscape:isstock="true"><path
         id="path6300"
         d="M 0,0 5,-5 -12.5,0 5,5 0,0 Z"
         style="fill:#000000;fill-opacity:1;fill-rule:evenodd;stroke:#000000;stroke-width:1pt;stroke-opacity:1"
         transform="matrix(0.2,0,0,0.2,1.2,0)"
         inkscape:connector-curvature="0" /></marker><clipPath
       clipPathUnits="userSpaceOnUse"
       id="clipPath16"><path
         d="m 0,0 595.276,0 0,793.701 L 0,793.701 0,0 Z"
         id="path18"
         inkscape:connector-curvature="0" /></clipPath><clipPath
       clipPathUnits="userSpaceOnUse"
       id="clipPath24"><path
         d="m 0,865.701 1785.827,0 0,-937.701 L 0,-72 0,865.701 Z"
         id="path26"
         inkscape:connector-curvature="0" /></clipPath><linearGradient
       x1="0"
       y1="0"
       x2="1"
       y2="0"
       gradientUnits="userSpaceOnUse"
       gradientTransform="matrix(0,157.14708,157.14708,0,45.103531,579.80078)"
       spreadMethod="pad"
       id="linearGradient48"><stop
         style="stop-opacity:1;stop-color:#8ba1b2"
         offset="0"
         id="stop50" /><stop
         style="stop-opacity:1;stop-color:#ffffff"
         offset="0.46"
         id="stop52" /><stop
         style="stop-opacity:1;stop-color:#8ba1b2"
         offset="1"
         id="stop54" /></linearGradient><linearGradient
       x1="0"
       y1="0"
       x2="1"
       y2="0"
       gradientUnits="userSpaceOnUse"
       gradientTransform="matrix(0,157.14708,157.14708,0,212.07857,579.80078)"
       spreadMethod="pad"
       id="linearGradient70"><stop
         style="stop-opacity:1;stop-color:#8ba1b2"
         offset="0"
         id="stop72" /><stop
         style="stop-opacity:1;stop-color:#ffffff"
         offset="0.46"
         id="stop74" /><stop
         style="stop-opacity:1;stop-color:#8ba1b2"
         offset="1"
         id="stop76" /></linearGradient><marker
       inkscape:stockid="Arrow1Sstart"
       orient="auto"
       refY="0"
       refX="0"
       id="Arrow1Sstart-7"
       style="overflow:visible"
       inkscape:isstock="true"><path
         inkscape:connector-curvature="0"
         id="path6300-7"
         d="M 0,0 5,-5 -12.5,0 5,5 0,0 Z"
         style="fill:#000000;fill-opacity:1;fill-rule:evenodd;stroke:#000000;stroke-width:1pt;stroke-opacity:1"
         transform="matrix(0.2,0,0,0.2,1.2,0)" /></marker><marker
       inkscape:stockid="Arrow1Sstart"
       orient="auto"
       refY="0"
       refX="0"
       id="Arrow1Sstart-6"
       style="overflow:visible"
       inkscape:isstock="true"><path
         inkscape:connector-curvature="0"
         id="path6300-9"
         d="M 0,0 5,-5 -12.5,0 5,5 0,0 Z"
         style="fill:#000000;fill-opacity:1;fill-rule:evenodd;stroke:#000000;stroke-width:1pt;stroke-opacity:1"
         transform="matrix(0.2,0,0,0.2,1.2,0)" /></marker><marker
       inkscape:stockid="Arrow1Sstart"
       orient="auto"
       refY="0"
       refX="0"
       id="Arrow1Sstart-6-6"
       style="overflow:visible"
       inkscape:isstock="true"><path
         inkscape:connector-curvature="0"
         id="path6300-9-1"
         d="M 0,0 5,-5 -12.5,0 5,5 0,0 Z"
         style="fill:#000000;fill-opacity:1;fill-rule:evenodd;stroke:#000000;stroke-width:1pt;stroke-opacity:1"
         transform="matrix(0.2,0,0,0.2,1.2,0)" /></marker><marker
       inkscape:stockid="Arrow1Sstart"
       orient="auto"
       refY="0"
       refX="0"
       id="Arrow1Sstart-7-2"
       style="overflow:visible"
       inkscape:isstock="true"><path
         inkscape:connector-curvature="0"
         id="path6300-7-8"
         d="M 0,0 5,-5 -12.5,0 5,5 0,0 Z"
         style="fill:#000000;fill-opacity:1;fill-rule:evenodd;stroke:#000000;stroke-width:1pt;stroke-opacity:1"
         transform="matrix(0.2,0,0,0.2,1.2,0)" /></marker></defs><sodipodi:namedview
     pagecolor="#ffffff"
     bordercolor="#666666"
     borderopacity="1"
     objecttolerance="10"
     gridtolerance="10"
     guidetolerance="10"
     inkscape:pageopacity="0"
     inkscape:pageshadow="2"
     inkscape:window-width="1815"
     inkscape:window-height="1133"
     id="namedview4"
     showgrid="false"
     inkscape:zoom="2.6912252"
     inkscape:cx="122.69981"
     inkscape:cy="131.40785"
     inkscape:window-x="0"
     inkscape:window-y="27"
     inkscape:window-maximized="0"
     inkscape:current-layer="g10" /><g
     id="g10"
     inkscape:groupmode="layer"
     inkscape:label="sdw_2007_3_sonderheft_ist-das-universum-ein-computer_S6"
     transform="matrix(1.25,0,0,-1.25,0,250.00002)"><path
       style="color:#000000;font-style:normal;font-variant:normal;font-weight:normal;font-stretch:normal;font-size:medium;line-height:normal;font-family:sans-serif;text-indent:0;text-align:start;text-decoration:none;text-decoration-line:none;text-decoration-style:solid;text-decoration-color:#000000;letter-spacing:normal;word-spacing:normal;text-transform:none;direction:ltr;block-progression:tb;writing-mode:lr-tb;baseline-shift:baseline;text-anchor:start;white-space:normal;clip-rule:nonzero;display:inline;overflow:visible;visibility:visible;opacity:1;isolation:auto;mix-blend-mode:normal;color-interpolation:sRGB;color-interpolation-filters:linearRGB;solid-color:#000000;solid-opacity:1;fill:#c8c8c8;fill-opacity:0.99607843;fill-rule:evenodd;stroke:none;stroke-width:16;stroke-linecap:butt;stroke-linejoin:miter;stroke-miterlimit:4;stroke-dasharray:none;stroke-dashoffset:0;stroke-opacity:1;color-rendering:auto;image-rendering:auto;shape-rendering:auto;text-rendering:auto;enable-background:accumulate"
       d="m 45.976979,112.34428 7.97188,-7.89688 -36.64688,-0.23594 0.05469,-15.999999 36.79688,0.237504 -8.028128,-8.103128 55.924999,16.259376 -56.073439,15.739067 z"
       id="path6282-8-5"
       inkscape:connector-curvature="0" /><g
       id="g4351"
       transform="translate(44.292095,16.646693)"><path
         style="color:#000000;font-style:normal;font-variant:normal;font-weight:normal;font-stretch:normal;font-size:medium;line-height:normal;font-family:sans-serif;text-indent:0;text-align:start;text-decoration:none;text-decoration-line:none;text-decoration-style:solid;text-decoration-color:#000000;letter-spacing:normal;word-spacing:normal;text-transform:none;direction:ltr;block-progression:tb;writing-mode:lr-tb;baseline-shift:baseline;text-anchor:start;white-space:normal;clip-rule:nonzero;display:inline;overflow:visible;visibility:visible;opacity:1;isolation:auto;mix-blend-mode:normal;color-interpolation:sRGB;color-interpolation-filters:linearRGB;solid-color:#000000;solid-opacity:1;fill:#c8c8c8;fill-opacity:0.99607843;fill-rule:evenodd;stroke:none;stroke-width:16;stroke-linecap:butt;stroke-linejoin:miter;stroke-miterlimit:4;stroke-dasharray:none;stroke-dashoffset:0;stroke-opacity:1;color-rendering:auto;image-rendering:auto;shape-rendering:auto;text-rendering:auto;enable-background:accumulate"
         d="M 62.194402,85.919902 50.763153,74.726158 95.097528,29.437094 83.785028,29.557406 C 102.05157,17.094254 116.57297,10.882174 134.39284,0.73240639 125.99445,19.727222 117.21903,32.436558 106.65222,51.941782 L 106.5319,40.629278 Z"
         id="path6282-86-0"
         inkscape:connector-curvature="0"
         sodipodi:nodetypes="cccccccc" /></g><g
       id="g4498"><path
         style="color:#000000;font-style:normal;font-variant:normal;font-weight:normal;font-stretch:normal;font-size:medium;line-height:normal;font-family:sans-serif;text-indent:0;text-align:start;text-decoration:none;text-decoration-line:none;text-decoration-style:solid;text-decoration-color:#000000;letter-spacing:normal;word-spacing:normal;text-transform:none;direction:ltr;block-progression:tb;writing-mode:lr-tb;baseline-shift:baseline;text-anchor:start;white-space:normal;clip-rule:nonzero;display:inline;overflow:visible;visibility:visible;opacity:1;isolation:auto;mix-blend-mode:normal;color-interpolation:sRGB;color-interpolation-filters:linearRGB;solid-color:#000000;solid-opacity:1;fill:#c8c8c8;fill-opacity:0.99607843;fill-rule:evenodd;stroke:none;stroke-width:16;stroke-linecap:butt;stroke-linejoin:miter;stroke-miterlimit:4;stroke-dasharray:none;stroke-dashoffset:0;stroke-opacity:1;color-rendering:auto;image-rendering:auto;shape-rendering:auto;text-rendering:auto;enable-background:accumulate"
         d="m 108.47108,180.96323 -16.000002,-0.0734 0.17032,-36.71094 -8.035944,7.9625 c 4.436016,-21.66439 10.534072,-36.23232 16.259376,-55.925 7.19522,19.48202 9.74483,34.71632 15.73906,56.07344 l -7.96249,-8.03594 z"
         id="path6282"
         inkscape:connector-curvature="0"
         sodipodi:nodetypes="cccccccc" /></g><g
       id="g44"
       transform="translate(-16.650572,-563.34571)"
       style="fill:none;fill-opacity:0"><g
         id="g46"
         style="fill:none;fill-opacity:0"><path
           d="m 45.354,580.024 155.906,0 0,156.7 -155.906,0 0,-156.7 z"
           style="fill:none;fill-opacity:0;stroke:none"
           id="path56"
           inkscape:connector-curvature="0" /></g></g><path
       inkscape:connector-curvature="0"
       id="path726"
       style="fill:none;stroke:#295064;stroke-width:1;stroke-linecap:butt;stroke-linejoin:miter;stroke-miterlimit:4;stroke-dasharray:none;stroke-opacity:1"
       d="m 56.524288,96.626108 -17.215,0" /><path
       inkscape:connector-curvature="0"
       id="path730"
       style="fill:#295064;fill-opacity:1;fill-rule:nonzero;stroke:none"
       d="m 61.986288,96.626108 -7.012,2.552005 1.55,-2.552005 -1.55,-2.552 7.012,2.552 z" /><path
       inkscape:connector-curvature="0"
       id="path734"
       style="fill:none;stroke:#295064;stroke-width:1;stroke-linecap:butt;stroke-linejoin:miter;stroke-miterlimit:4;stroke-dasharray:none;stroke-opacity:1"
       d="m 100.68029,142.74211 0,17.215" /><path
       inkscape:connector-curvature="0"
       id="path738"
       style="fill:#295064;fill-opacity:1;fill-rule:nonzero;stroke:none"
       d="m 100.68029,137.27911 -2.552002,7.013 2.552002,-1.55 2.552,1.55 -2.552,-7.013 z" /><path
       inkscape:connector-curvature="0"
       id="path742"
       style="fill:none;stroke:#295064;stroke-width:1;stroke-linecap:butt;stroke-linejoin:miter;stroke-miterlimit:4;stroke-dasharray:none;stroke-opacity:1"
       d="m 100.68029,113.68711 0,17.215" /><path
       inkscape:connector-curvature="0"
       id="path746"
       style="fill:#295064;fill-opacity:1;fill-rule:nonzero;stroke:none"
       d="m 100.68029,108.22411 -2.552002,7.013 2.552002,-1.55 2.552,1.55 -2.552,-7.013 z" /><path
       inkscape:connector-curvature="0"
       id="path750"
       style="fill:#af8344;fill-opacity:1;fill-rule:nonzero;stroke:none"
       d="m 100.55729,151.70611 c 1.566,0 2.835,1.27 2.835,2.835 0,1.566 -1.269,2.835 -2.835,2.835 -1.566002,0 -2.835002,-1.269 -2.835002,-2.835 0,-1.565 1.269,-2.835 2.835002,-2.835" /><path
       inkscape:connector-curvature="0"
       id="path754"
       style="fill:#af8344;fill-opacity:1;fill-rule:nonzero;stroke:none"
       d="m 128.71728,151.70611 c 1.565,0 2.834,1.27 2.834,2.835 0,1.566 -1.269,2.835 -2.834,2.835 -1.566,0 -2.835,-1.269 -2.835,-2.835 0,-1.565 1.269,-2.835 2.835,-2.835" /><path
       inkscape:connector-curvature="0"
       id="path758"
       style="fill:#af8344;fill-opacity:1;fill-rule:nonzero;stroke:none"
       d="m 156.87728,151.70611 c 1.565,0 2.834,1.27 2.834,2.835 0,1.566 -1.269,2.835 -2.834,2.835 -1.566,0 -2.835,-1.269 -2.835,-2.835 0,-1.565 1.269,-2.835 2.835,-2.835" /><path
       inkscape:connector-curvature="0"
       id="path762"
       style="fill:#af8344;fill-opacity:1;fill-rule:nonzero;stroke:none"
       d="m 128.71728,122.65111 c 1.565,0 2.834,1.269 2.834,2.835 0,1.565 -1.269,2.835 -2.834,2.835 -1.566,0 -2.835,-1.27 -2.835,-2.835 0,-1.566 1.269,-2.835 2.835,-2.835" /><path
       inkscape:connector-curvature="0"
       id="path766"
       style="fill:#af8344;fill-opacity:1;fill-rule:nonzero;stroke:none"
       d="m 156.87728,122.65111 c 1.565,0 2.834,1.269 2.834,2.835 0,1.565 -1.269,2.835 -2.834,2.835 -1.566,0 -2.835,-1.27 -2.835,-2.835 0,-1.566 1.269,-2.835 2.835,-2.835" /><path
       inkscape:connector-curvature="0"
       id="path770"
       style="fill:#af8344;fill-opacity:1;fill-rule:nonzero;stroke:none"
       d="m 156.87728,93.596108 c 1.565,0 2.834,1.269 2.834,2.835 0,1.565005 -1.269,2.834005 -2.834,2.834005 -1.566,0 -2.835,-1.269 -2.835,-2.834005 0,-1.566 1.269,-2.835 2.835,-2.835" /><path
       inkscape:connector-curvature="0"
       id="path774"
       style="fill:#af8344;fill-opacity:1;fill-rule:nonzero;stroke:none"
       d="m 100.55729,122.65111 c 1.566,0 2.835,1.269 2.835,2.835 0,1.565 -1.269,2.835 -2.835,2.835 -1.566002,0 -2.835002,-1.27 -2.835002,-2.835 0,-1.566 1.269,-2.835 2.835002,-2.835" /><path
       inkscape:connector-curvature="0"
       id="path778"
       style="fill:#af8344;fill-opacity:1;fill-rule:nonzero;stroke:none"
       d="m 72.397288,64.541108 c 1.566,0 2.835,1.269 2.835,2.835 0,1.565 -1.269,2.834 -2.835,2.834 -1.565,0 -2.835,-1.269 -2.835,-2.834 0,-1.566 1.27,-2.835 2.835,-2.835" /><path
       inkscape:connector-curvature="0"
       id="path782"
       style="fill:#af8344;fill-opacity:1;fill-rule:nonzero;stroke:none"
       d="m 72.397288,35.486108 c 1.566,0 2.835,1.269 2.835,2.835 0,1.565 -1.269,2.834 -2.835,2.834 -1.565,0 -2.835,-1.269 -2.835,-2.834 0,-1.566 1.27,-2.835 2.835,-2.835" /><path
       inkscape:connector-curvature="0"
       id="path786"
       style="fill:#af8344;fill-opacity:1;fill-rule:nonzero;stroke:none"
       d="m 100.55729,35.486108 c 1.566,0 2.835,1.269 2.835,2.835 0,1.565 -1.269,2.834 -2.835,2.834 -1.566002,0 -2.835002,-1.269 -2.835002,-2.834 0,-1.566 1.269,-2.835 2.835002,-2.835" /><path
       inkscape:connector-curvature="0"
       id="path790"
       style="fill:#af8344;fill-opacity:1;fill-rule:nonzero;stroke:none"
       d="m 44.237288,93.596108 c 1.566,0 2.835,1.269 2.835,2.835 0,1.565005 -1.269,2.834005 -2.835,2.834005 -1.565,0 -2.834,-1.269 -2.834,-2.834005 0,-1.566 1.269,-2.835 2.834,-2.835" /><path
       inkscape:connector-curvature="0"
       id="path794"
       style="fill:#af8344;fill-opacity:1;fill-rule:nonzero;stroke:none"
       d="m 44.237288,64.541108 c 1.566,0 2.835,1.269 2.835,2.835 0,1.565 -1.269,2.834 -2.835,2.834 -1.565,0 -2.834,-1.269 -2.834,-2.834 0,-1.566 1.269,-2.835 2.834,-2.835" /><path
       inkscape:connector-curvature="0"
       id="path798"
       style="fill:#af8344;fill-opacity:1;fill-rule:nonzero;stroke:none"
       d="m 44.237288,35.486108 c 1.566,0 2.835,1.269 2.835,2.835 0,1.565 -1.269,2.834 -2.835,2.834 -1.565,0 -2.834,-1.269 -2.834,-2.834 0,-1.566 1.269,-2.835 2.834,-2.835" /><path
       inkscape:connector-curvature="0"
       id="path802"
       style="fill:none;stroke:#295064;stroke-width:1;stroke-linecap:butt;stroke-linejoin:miter;stroke-miterlimit:4;stroke-dasharray:none;stroke-opacity:1"
       d="m 111.54128,96.626108 -17.214992,0" /><path
       inkscape:connector-curvature="0"
       id="path806"
       style="fill:#295064;fill-opacity:1;fill-rule:nonzero;stroke:none"
       d="m 117.00328,96.626108 -7.013,2.552005 1.551,-2.552005 -1.551,-2.552 7.013,2.552 z" /><path
       inkscape:connector-curvature="0"
       id="path810"
       style="fill:none;stroke:#295064;stroke-width:1;stroke-linecap:butt;stroke-linejoin:miter;stroke-miterlimit:4;stroke-dasharray:none;stroke-opacity:1"
       d="m 84.398288,96.626108 -17.215,0" /><path
       inkscape:connector-curvature="0"
       id="path814"
       style="fill:#295064;fill-opacity:1;fill-rule:nonzero;stroke:none"
       d="m 89.860288,96.626108 -7.012,2.552005 1.55,-2.552005 -1.55,-2.552 7.012,2.552 z" /><path
       inkscape:connector-curvature="0"
       id="path818"
       style="fill:none;stroke:#295064;stroke-width:1;stroke-linecap:butt;stroke-linejoin:miter;stroke-miterlimit:4;stroke-dasharray:none;stroke-opacity:1"
       d="m 139.88728,67.236108 -17.215,0" /><path
       inkscape:connector-curvature="0"
       id="path822"
       style="fill:#295064;fill-opacity:1;fill-rule:nonzero;stroke:none"
       d="m 145.34928,67.236108 -7.012,2.552 1.55,-2.552 -1.55,-2.552 7.012,2.552 z" /><path
       inkscape:connector-curvature="0"
       id="path826"
       style="fill:none;stroke:#295064;stroke-width:1;stroke-linecap:butt;stroke-linejoin:miter;stroke-miterlimit:4;stroke-dasharray:none;stroke-opacity:1"
       d="m 112.74528,67.236108 -17.214992,0" /><path
       inkscape:connector-curvature="0"
       id="path830"
       style="fill:#295064;fill-opacity:1;fill-rule:nonzero;stroke:none"
       d="m 118.20728,67.236108 -7.012,2.552 1.55,-2.552 -1.55,-2.552 7.012,2.552 z" /><path
       inkscape:connector-curvature="0"
       id="path834"
       style="fill:none;stroke:#295064;stroke-width:1;stroke-linecap:butt;stroke-linejoin:miter;stroke-miterlimit:4;stroke-dasharray:none;stroke-opacity:1"
       d="m 168.23328,38.319108 -17.215,0" /><path
       inkscape:connector-curvature="0"
       id="path838"
       style="fill:#295064;fill-opacity:1;fill-rule:nonzero;stroke:none"
       d="m 173.69628,38.319108 -7.013,2.552 1.55,-2.552 -1.55,-2.551 7.013,2.551 z" /><path
       inkscape:connector-curvature="0"
       id="path842"
       style="fill:none;stroke:#295064;stroke-width:1;stroke-linecap:butt;stroke-linejoin:miter;stroke-miterlimit:4;stroke-dasharray:none;stroke-opacity:1"
       d="m 141.09128,38.181108 -17.215,0" /><path
       inkscape:connector-curvature="0"
       id="path846"
       style="fill:#295064;fill-opacity:1;fill-rule:nonzero;stroke:none"
       d="m 146.55328,38.181108 -7.012,2.552 1.55,-2.552 -1.55,-2.552 7.012,2.552 z" /><path
       inkscape:connector-curvature="0"
       id="path850"
       style="fill:none;stroke:#295064;stroke-width:1;stroke-linecap:butt;stroke-linejoin:miter;stroke-miterlimit:4;stroke-dasharray:none;stroke-opacity:1"
       d="m 128.71728,85.340108 0,17.215002" /><path
       inkscape:connector-curvature="0"
       id="path854"
       style="fill:#295064;fill-opacity:1;fill-rule:nonzero;stroke:none"
       d="m 128.71728,79.878108 -2.552,7.012 2.552,-1.55 2.552,1.55 -2.552,-7.012 z" /><path
       inkscape:connector-curvature="0"
       id="path858"
       style="fill:none;stroke:#295064;stroke-width:1;stroke-linecap:butt;stroke-linejoin:miter;stroke-miterlimit:4;stroke-dasharray:none;stroke-opacity:1"
       d="m 100.39529,85.340108 0,17.215002" /><path
       inkscape:connector-curvature="0"
       id="path862"
       style="fill:#295064;fill-opacity:1;fill-rule:nonzero;stroke:none"
       d="m 100.39529,79.878108 -2.551002,7.012 2.551002,-1.55 2.552,1.55 -2.552,-7.012 z" /><path
       inkscape:connector-curvature="0"
       id="path866"
       style="fill:none;stroke:#295064;stroke-width:1;stroke-linecap:butt;stroke-linejoin:miter;stroke-miterlimit:4;stroke-dasharray:none;stroke-opacity:1"
       d="m 156.87628,55.576108 0,17.215" /><path
       inkscape:connector-curvature="0"
       id="path870"
       style="fill:#295064;fill-opacity:1;fill-rule:nonzero;stroke:none"
       d="m 156.87628,50.114108 -2.552,7.013 2.552,-1.551 2.552,1.551 -2.552,-7.013 z" /><path
       inkscape:connector-curvature="0"
       id="path874"
       style="fill:none;stroke:#295064;stroke-width:1;stroke-linecap:butt;stroke-linejoin:miter;stroke-miterlimit:4;stroke-dasharray:none;stroke-opacity:1"
       d="m 128.74228,55.576108 0,17.215" /><path
       inkscape:connector-curvature="0"
       id="path878"
       style="fill:#295064;fill-opacity:1;fill-rule:nonzero;stroke:none"
       d="m 128.74228,50.114108 -2.552,7.013 2.552,-1.551 2.552,1.551 -2.552,-7.013 z" /><path
       inkscape:connector-curvature="0"
       id="path882"
       style="fill:none;stroke:#295064;stroke-width:1;stroke-linecap:butt;stroke-linejoin:miter;stroke-miterlimit:4;stroke-dasharray:none;stroke-opacity:1"
       d="m 156.87628,26.446108 0,17.215" /><path
       inkscape:connector-curvature="0"
       id="path886"
       style="fill:#295064;fill-opacity:1;fill-rule:nonzero;stroke:none"
       d="m 156.87628,20.983108 -2.552,7.013 2.552,-1.55 2.552,1.55 -2.552,-7.013 z" /><path
       inkscape:connector-curvature="0"
       id="path904"
       style="fill:#af8344;fill-opacity:1;fill-rule:nonzero;stroke:none"
       d="m 72.397288,151.70611 c 1.566,0 2.835,1.27 2.835,2.835 0,1.566 -1.269,2.835 -2.835,2.835 -1.565,0 -2.835,-1.269 -2.835,-2.835 0,-1.565 1.27,-2.835 2.835,-2.835" /><path
       inkscape:connector-curvature="0"
       id="path908"
       style="fill:#af8344;fill-opacity:1;fill-rule:nonzero;stroke:none"
       d="m 72.397288,122.65111 c 1.566,0 2.835,1.269 2.835,2.835 0,1.565 -1.269,2.835 -2.835,2.835 -1.565,0 -2.835,-1.27 -2.835,-2.835 0,-1.566 1.27,-2.835 2.835,-2.835" /><path
       inkscape:connector-curvature="0"
       id="path912"
       style="fill:#af8344;fill-opacity:1;fill-rule:nonzero;stroke:none"
       d="m 44.237288,151.70611 c 1.566,0 2.835,1.27 2.835,2.835 0,1.566 -1.269,2.835 -2.835,2.835 -1.565,0 -2.834,-1.269 -2.834,-2.835 0,-1.565 1.269,-2.835 2.834,-2.835" /><path
       inkscape:connector-curvature="0"
       id="path916"
       style="fill:#af8344;fill-opacity:1;fill-rule:nonzero;stroke:none"
       d="m 44.237288,122.65111 c 1.566,0 2.835,1.269 2.835,2.835 0,1.565 -1.269,2.835 -2.835,2.835 -1.565,0 -2.834,-1.27 -2.834,-2.835 0,-1.566 1.269,-2.835 2.834,-2.835" /><path
       inkscape:connector-curvature="0"
       id="path920"
       style="fill:#af8344;fill-opacity:1;fill-rule:nonzero;stroke:none"
       d="m 72.397288,93.596108 c 1.566,0 2.835,1.269 2.835,2.835 0,1.565005 -1.269,2.834005 -2.835,2.834005 -1.565,0 -2.835,-1.269 -2.835,-2.834005 0,-1.566 1.27,-2.835 2.835,-2.835" /><path
       inkscape:connector-curvature="0"
       id="path924"
       style="fill:#af8344;fill-opacity:1;fill-rule:nonzero;stroke:none"
       d="m 100.55729,93.596108 c 1.566,0 2.835,1.269 2.835,2.835 0,1.565005 -1.269,2.834005 -2.835,2.834005 -1.566002,0 -2.835002,-1.269 -2.835002,-2.834005 0,-1.566 1.269,-2.835 2.835002,-2.835" /><path
       inkscape:connector-curvature="0"
       id="path928"
       style="fill:#af8344;fill-opacity:1;fill-rule:nonzero;stroke:none"
       d="m 128.71728,93.596108 c 1.565,0 2.834,1.269 2.834,2.835 0,1.565005 -1.269,2.834005 -2.834,2.834005 -1.566,0 -2.835,-1.269 -2.835,-2.834005 0,-1.566 1.269,-2.835 2.835,-2.835" /><path
       inkscape:connector-curvature="0"
       id="path932"
       style="fill:#af8344;fill-opacity:1;fill-rule:nonzero;stroke:none"
       d="m 128.71728,64.541108 c 1.565,0 2.834,1.269 2.834,2.835 0,1.565 -1.269,2.834 -2.834,2.834 -1.566,0 -2.835,-1.269 -2.835,-2.834 0,-1.566 1.269,-2.835 2.835,-2.835" /><path
       inkscape:connector-curvature="0"
       id="path936"
       style="fill:#af8344;fill-opacity:1;fill-rule:nonzero;stroke:none"
       d="m 156.87728,64.541108 c 1.565,0 2.834,1.269 2.834,2.835 0,1.565 -1.269,2.834 -2.834,2.834 -1.566,0 -2.835,-1.269 -2.835,-2.834 0,-1.566 1.269,-2.835 2.835,-2.835" /><path
       inkscape:connector-curvature="0"
       id="path940"
       style="fill:#af8344;fill-opacity:1;fill-rule:nonzero;stroke:none"
       d="m 128.71728,35.486108 c 1.565,0 2.834,1.269 2.834,2.835 0,1.565 -1.269,2.834 -2.834,2.834 -1.566,0 -2.835,-1.269 -2.835,-2.834 0,-1.566 1.269,-2.835 2.835,-2.835" /><path
       inkscape:connector-curvature="0"
       id="path944"
       style="fill:#af8344;fill-opacity:1;fill-rule:nonzero;stroke:none"
       d="m 156.87728,35.486108 c 1.565,0 2.834,1.269 2.834,2.835 0,1.565 -1.269,2.834 -2.834,2.834 -1.566,0 -2.835,-1.269 -2.835,-2.834 0,-1.566 1.269,-2.835 2.835,-2.835" /><path
       inkscape:connector-curvature="0"
       id="path948"
       style="fill:#af8344;fill-opacity:1;fill-rule:nonzero;stroke:none"
       d="m 100.55729,64.541108 c 1.566,0 2.835,1.269 2.835,2.835 0,1.565 -1.269,2.834 -2.835,2.834 -1.566002,0 -2.835002,-1.269 -2.835002,-2.834 0,-1.566 1.269,-2.835 2.835002,-2.835" /><text
       xml:space="preserve"
       style="font-style:normal;font-variant:normal;font-weight:normal;font-stretch:normal;font-size:8px;line-height:125%;font-family:'Liberation Sans';-inkscape-font-specification:'Liberation Sans';text-align:start;letter-spacing:0px;word-spacing:0px;writing-mode:lr-tb;text-anchor:start;fill:#000000;fill-opacity:1;stroke:none;stroke-width:1px;stroke-linecap:butt;stroke-linejoin:miter;stroke-opacity:1"
       x="39.763599"
       y="-99.46244"
       id="text6162"
       sodipodi:linespacing="125%"
       transform="scale(1,-1)"><tspan
         sodipodi:role="line"
         id="tspan6164"
         x="39.763599"
         y="-99.46244">1</tspan></text>
<text
       xml:space="preserve"
       style="font-style:normal;font-variant:normal;font-weight:normal;font-stretch:normal;font-size:8px;line-height:125%;font-family:'Liberation Sans';-inkscape-font-specification:'Liberation Sans';text-align:start;letter-spacing:0px;word-spacing:0px;writing-mode:lr-tb;text-anchor:start;fill:#000000;fill-opacity:1;stroke:none;stroke-width:1px;stroke-linecap:butt;stroke-linejoin:miter;stroke-opacity:1"
       x="66.947388"
       y="-99.380409"
       id="text6166"
       sodipodi:linespacing="125%"
       transform="scale(1,-1)"><tspan
         sodipodi:role="line"
         id="tspan6168"
         x="66.947388"
         y="-99.380409">2</tspan></text>
<text
       xml:space="preserve"
       style="font-style:normal;font-variant:normal;font-weight:normal;font-stretch:normal;font-size:8px;line-height:125%;font-family:'Liberation Sans';-inkscape-font-specification:'Liberation Sans';text-align:start;letter-spacing:0px;word-spacing:0px;writing-mode:lr-tb;text-anchor:start;fill:#000000;fill-opacity:1;stroke:none;stroke-width:1px;stroke-linecap:butt;stroke-linejoin:miter;stroke-opacity:1"
       x="93.967896"
       y="-99.569382"
       id="text6170"
       sodipodi:linespacing="125%"
       transform="scale(1,-1)"><tspan
         sodipodi:role="line"
         id="tspan6172"
         x="93.967896"
         y="-99.569382">3</tspan></text>
<text
       xml:space="preserve"
       style="font-style:normal;font-variant:normal;font-weight:normal;font-stretch:normal;font-size:8px;line-height:125%;font-family:'Liberation Sans';-inkscape-font-specification:'Liberation Sans';text-align:start;letter-spacing:0px;word-spacing:0px;writing-mode:lr-tb;text-anchor:start;fill:#000000;fill-opacity:1;stroke:none;stroke-width:1px;stroke-linecap:butt;stroke-linejoin:miter;stroke-opacity:1"
       x="122.36649"
       y="-99.651398"
       id="text6174"
       sodipodi:linespacing="125%"
       transform="scale(1,-1)"><tspan
         sodipodi:role="line"
         id="tspan6176"
         x="122.36649"
         y="-99.651398">4</tspan></text>
<text
       xml:space="preserve"
       style="font-style:normal;font-variant:normal;font-weight:normal;font-stretch:normal;font-size:8px;line-height:125%;font-family:'Liberation Sans';-inkscape-font-specification:'Liberation Sans';text-align:start;letter-spacing:0px;word-spacing:0px;writing-mode:lr-tb;text-anchor:start;fill:#000000;fill-opacity:1;stroke:none;stroke-width:1px;stroke-linecap:butt;stroke-linejoin:miter;stroke-opacity:1"
       x="93.870239"
       y="-128.96552"
       id="text6166-7"
       sodipodi:linespacing="125%"
       transform="scale(1,-1)"><tspan
         sodipodi:role="line"
         id="tspan6168-5"
         x="93.870239"
         y="-128.96552">2</tspan></text>
<text
       xml:space="preserve"
       style="font-style:normal;font-variant:normal;font-weight:normal;font-stretch:normal;font-size:8px;line-height:125%;font-family:'Liberation Sans';-inkscape-font-specification:'Liberation Sans';text-align:start;letter-spacing:0px;word-spacing:0px;writing-mode:lr-tb;text-anchor:start;fill:#000000;fill-opacity:1;stroke:none;stroke-width:1px;stroke-linecap:butt;stroke-linejoin:miter;stroke-opacity:1"
       x="93.663208"
       y="-158.23737"
       id="text6162-9"
       sodipodi:linespacing="125%"
       transform="scale(1,-1)"><tspan
         sodipodi:role="line"
         id="tspan6164-9"
         x="93.663208"
         y="-158.23737">1</tspan></text>
<text
       xml:space="preserve"
       style="font-style:normal;font-variant:normal;font-weight:normal;font-stretch:normal;font-size:8px;line-height:125%;font-family:'Liberation Sans';-inkscape-font-specification:'Liberation Sans';text-align:start;letter-spacing:0px;word-spacing:0px;writing-mode:lr-tb;text-anchor:start;fill:#000000;fill-opacity:1;stroke:none;stroke-width:1px;stroke-linecap:butt;stroke-linejoin:miter;stroke-opacity:1"
       x="94.088989"
       y="-70.544899"
       id="text6174-0"
       sodipodi:linespacing="125%"
       transform="scale(1,-1)"><tspan
         sodipodi:role="line"
         id="tspan6176-5"
         x="94.088989"
         y="-70.544899">4</tspan></text>
<text
       xml:space="preserve"
       style="font-style:normal;font-variant:normal;font-weight:normal;font-stretch:normal;font-size:8px;line-height:125%;font-family:'Liberation Sans';-inkscape-font-specification:'Liberation Sans';text-align:start;letter-spacing:0px;word-spacing:0px;writing-mode:lr-tb;text-anchor:start;fill:#000000;fill-opacity:1;stroke:none;stroke-width:1px;stroke-linecap:butt;stroke-linejoin:miter;stroke-opacity:1"
       x="122.46848"
       y="-70.976173"
       id="text6232"
       sodipodi:linespacing="125%"
       transform="scale(1,-1)"><tspan
         sodipodi:role="line"
         id="tspan6234"
         x="122.46848"
         y="-70.976173">5</tspan></text>
<text
       xml:space="preserve"
       style="font-style:normal;font-variant:normal;font-weight:normal;font-stretch:normal;font-size:8px;line-height:125%;font-family:'Liberation Sans';-inkscape-font-specification:'Liberation Sans';text-align:start;letter-spacing:0px;word-spacing:0px;writing-mode:lr-tb;text-anchor:start;fill:#000000;fill-opacity:1;stroke:none;stroke-width:1px;stroke-linecap:butt;stroke-linejoin:miter;stroke-opacity:1"
       x="123.33039"
       y="-41.249916"
       id="text6236"
       sodipodi:linespacing="125%"
       transform="scale(1,-1)"><tspan
         sodipodi:role="line"
         id="tspan6238"
         x="123.33039"
         y="-41.249916">6</tspan></text>
<text
       xml:space="preserve"
       style="font-style:normal;font-variant:normal;font-weight:normal;font-stretch:normal;font-size:8px;line-height:125%;font-family:'Liberation Sans';-inkscape-font-specification:'Liberation Sans';text-align:start;letter-spacing:0px;word-spacing:0px;writing-mode:lr-tb;text-anchor:start;fill:#000000;fill-opacity:1;stroke:none;stroke-width:1px;stroke-linecap:butt;stroke-linejoin:miter;stroke-opacity:1"
       x="149.69969"
       y="-40.496136"
       id="text6240"
       sodipodi:linespacing="125%"
       transform="scale(1,-1)"><tspan
         sodipodi:role="line"
         id="tspan6242"
         x="149.69969"
         y="-40.496136">7</tspan></text>
<text
       xml:space="preserve"
       style="font-style:normal;font-variant:normal;font-weight:normal;font-stretch:normal;font-size:8px;line-height:125%;font-family:'Liberation Sans';-inkscape-font-specification:'Liberation Sans';text-align:start;letter-spacing:0px;word-spacing:0px;writing-mode:lr-tb;text-anchor:start;fill:#000000;fill-opacity:1;stroke:none;stroke-width:1px;stroke-linecap:butt;stroke-linejoin:miter;stroke-opacity:1"
       x="149.82133"
       y="-71.049965"
       id="text6236-3"
       sodipodi:linespacing="125%"
       transform="scale(1,-1)"><tspan
         sodipodi:role="line"
         id="tspan6238-5"
         x="149.82133"
         y="-71.049965">6</tspan></text>
<text
       xml:space="preserve"
       style="font-style:normal;font-variant:normal;font-weight:normal;font-stretch:normal;font-size:10px;line-height:125%;font-family:'Liberation Sans';-inkscape-font-specification:'Liberation Sans';text-align:start;letter-spacing:0px;word-spacing:0px;writing-mode:lr-tb;text-anchor:start;fill:#000000;fill-opacity:1;stroke:none;stroke-width:1px;stroke-linecap:butt;stroke-linejoin:miter;stroke-opacity:1"
       x="96.679413"
       y="-170.57919"
       id="text6270"
       sodipodi:linespacing="125%"
       transform="scale(1,-1)"><tspan
         sodipodi:role="line"
         id="tspan6272"
         x="96.679413"
         y="-170.57919">A</tspan></text>
<text
       xml:space="preserve"
       style="font-style:normal;font-variant:normal;font-weight:normal;font-stretch:normal;font-size:10px;line-height:125%;font-family:'Liberation Sans';-inkscape-font-specification:'Liberation Sans';text-align:start;letter-spacing:0px;word-spacing:0px;writing-mode:lr-tb;text-anchor:start;fill:#000000;fill-opacity:1;stroke:none;stroke-width:1px;stroke-linecap:butt;stroke-linejoin:miter;stroke-opacity:1"
       x="20.152185"
       y="-93.595177"
       id="text6274"
       sodipodi:linespacing="125%"
       transform="scale(1,-1)"><tspan
         sodipodi:role="line"
         id="tspan6276"
         x="20.152185"
         y="-93.595177">B</tspan></text>
<text
       xml:space="preserve"
       style="font-style:normal;font-variant:normal;font-weight:normal;font-stretch:normal;font-size:10px;line-height:125%;font-family:'Liberation Sans';-inkscape-font-specification:'Liberation Sans';text-align:start;letter-spacing:0px;word-spacing:0px;writing-mode:lr-tb;text-anchor:start;fill:#000000;fill-opacity:1;stroke:none;stroke-width:1px;stroke-linecap:butt;stroke-linejoin:miter;stroke-opacity:1"
       x="178.49861"
       y="-9.7796526"
       id="text6278"
       sodipodi:linespacing="125%"
       transform="scale(1,-1)"><tspan
         sodipodi:role="line"
         id="tspan6280"
         x="178.49861"
         y="-9.7796526">C</tspan></text>
</g></svg>