<?xml version="1.0" encoding="UTF-8" standalone="no"?>
<!-- Created with Inkscape (http://www.inkscape.org/) -->
<!-- An example of the Dowker notation used in knots theory -->
<svg
   xmlns:svg="http://www.w3.org/2000/svg"
   xmlns="http://www.w3.org/2000/svg"
   xmlns:xlink="http://www.w3.org/1999/xlink"
   version="1.0"
   width="248"
   height="400"
   id="svg4196">
  <defs
     id="defs4199">
    <style
       type="text/css"
       id="styles">
		text {font-size:12px;font-style:normal;font-weight:normal;fill:#000000;fill-opacity:1;stroke:none;stroke-width:1px;stroke-linecap:butt;stroke-linejoin:miter;stroke-opacity:1;font-family:Bitstream Vera Sans}
		</style>
    <path
       d="M 0,0 L 0,-15 L 5,-7"
       id="arrow"
       style="fill:none;stroke:#000000;stroke-width:2;stroke-linecap:butt;stroke-linejoin:miter;stroke-miterlimit:4;stroke-dasharray:none;stroke-opacity:1" />
  </defs>
  <path
     d="M 17.926711,328.2893 C 10.706478,233.952 28.804338,172.94865 85.254059,109.35507 L 99.131262,95.154406 L 103.97012,104.67571 C 86.905798,119.36901 72.994981,136.71419 60.79776,155.56795 C -42.072995,389.48522 120.05857,419.51458 103.97675,235.85656 C 103.69449,232.63307 102.06518,229.75683 102.20559,228.11739 C 102.11738,227.56296 108.30216,221.47073 108.54308,221.27337 C 141.98242,322.41363 50.789666,439.70209 17.926711,328.2893 z"
     id="path4316"
     style="fill:#000000" />
  <path
     d="M 91.174194,362.73252 C 91.958056,357.81778 96.63547,354.40271 97.152007,354.39413 C 159.56986,391.57225 173.07397,252.39298 176.79254,219.73437 C 179.43881,186.89168 183.06155,175.50365 192.41057,170.63936 C 231.19299,169.87008 259.11466,266.73884 201.15196,264.36182 C 191.5248,262.77193 186.92114,260.78964 187.54911,258.50456 L 189.26118,249.44588 C 246.14308,268.44783 219.0109,189.40718 198.27059,180.23437 C 193.32169,180.23437 189.85853,193.00757 188.22951,217.26901 C 185.4754,262.21163 166.69063,417.6298 91.174194,362.73252 z"
     id="path4318"
     style="fill:#000000" />
  <path
     d="M 68.787719,337.9457 C 62.266836,324.35674 60.706877,316.75915 60.736735,298.73437 C 59.994116,268.97828 76.639763,241.86597 91.692152,217.23437 C 132.35325,159.68061 242.8863,41.935761 128.71023,21.90211 C 67.295008,11.126024 35.185023,78.089423 54.06577,137.54737 L 47.429958,147.69601 C 22.794511,76.242232 52.839776,3.3090944 129.71023,10.962345 C 240.25485,21.968208 181.47434,124.14791 134.09562,179.65403 C 97.248936,225.53043 59.577259,269.12008 77.666234,330.91923 L 80.156433,336.35855 L 77.600115,340.2214 C 73.589347,346.28208 72.674727,346.04589 68.787719,337.9457 z"
     id="path4308"
     style="fill:#000000" />
  <path
     d="M 164.87096,240.69827 C 159.69872,233.70089 147.513,209.06691 141.79229,194.04372 L 136.9598,181.35308 L 144.8168,171.00201 L 148.64091,181.36819 C 154.67609,197.72801 162.76274,215.88974 168.22948,225.36196 C 173.13133,233.85539 173.22058,234.1535 171.83411,237.40269 C 171.0522,239.23511 169.99118,241.84313 169.47629,243.19827 C 168.55205,245.63078 168.49337,245.59893 164.87096,240.69827 z"
     id="path4300"
     style="fill:#000000" />
  <path
     d="M 60.614071,164.6733 C 62.801284,162.41494 64.883038,160.06496 66.458555,157.33019 L 95.096499,204.31315 C 93.368063,206.93869 91.364486,209.43499 90.210231,212.37392 L 60.614071,164.6733 z"
     id="path4288"
     style="fill:#000000" />
  <path
     d="M 128.10646,156.66926 C 121.29186,130.5394 97.653175,95.714118 98.152088,70.771323 C 106.18074,-2.1495014 175.57934,67.735537 121.27113,93.606095 C 121.57849,93.190865 119.65415,90.097696 117.21698,83.968024 C 155.44102,62.31013 105.14881,20.460079 109.56545,73.234368 C 111.82457,100.22857 128.64215,124.39747 137.19897,150.31798 L 129.17608,159.60414 L 128.10646,156.66926 z"
     id="path4272"
     style="fill:#000000" />
  <text
     x="53.262589"
     y="116.54508"
     id="t12"
     xml:space="preserve">-12</text>
  <text
     x="97.341972"
     y="140.88057"
     id="t10"
     xml:space="preserve">-10</text>
  <text
     x="138.20723"
     y="94.046227"
     id="t11"
     xml:space="preserve">11</text>
  <text
     x="136.98282"
     y="126.03439"
     id="t4"
     xml:space="preserve">-4</text>
  <text
     x="159.02249"
     y="193.83704"
     id="t9"
     xml:space="preserve">9</text>
  <text
     x="121.67747"
     y="244.95689"
     id="t2"
     xml:space="preserve">2</text>
  <text
     x="46.237514"
     y="333.66711"
     id="t6"
     xml:space="preserve">6</text>
  <text
     x="60.911526"
     y="387.19604"
     id="t1"
     xml:space="preserve">1</text>
  <text
     x="188.33447"
     y="294.55707"
     id="t7"
     xml:space="preserve">7</text>
  <text
     x="208.93968"
     y="243.09399"
     id="t8"
     xml:space="preserve">8</text>
  <text
     x="84.791595"
     y="171.64432"
     id="t3"
     xml:space="preserve">3</text>
  <text
     x="106.06602"
     y="180.82751"
     id="t5"
     xml:space="preserve">5</text>
  <use
     transform="matrix(-0.7699411,-0.6381151,0.6381151,-0.7699411,70.238614,120.19237)"
     id="use5155"
     x="0"
     y="0"
     width="248"
     height="400"
     xlink:href="#arrow" />
  <use
     transform="matrix(-0.7699411,-0.6381151,0.6381151,-0.7699411,110.33861,183.86259)"
     id="use5157"
     x="0"
     y="0"
     width="248"
     height="400"
     xlink:href="#arrow" />
  <use
     transform="matrix(0.8585235,-0.5127743,0.5127743,0.8585235,81.533755,172.73795)"
     id="use5159"
     x="0"
     y="0"
     width="248"
     height="400"
     xlink:href="#arrow" />
  <use
     transform="matrix(0.9614806,-0.274873,0.274873,0.9614806,119.0228,238.9407)"
     id="use5163"
     x="0"
     y="0"
     width="248"
     height="400"
     xlink:href="#arrow" />
  <use
     transform="matrix(0.9614806,-0.274873,0.274873,0.9614806,155.75562,189.04529)"
     id="use5165"
     x="0"
     y="0"
     width="248"
     height="400"
     xlink:href="#arrow" />
  <use
     transform="matrix(0.1374282,-0.9905118,0.9905118,0.1374282,210.2466,249.18807)"
     id="use5167"
     x="0"
     y="0"
     width="248"
     height="400"
     xlink:href="#arrow" />
  <use
     transform="matrix(0.980761,0.1952125,-0.1952125,0.980761,184.74887,284.35352)"
     id="use5169"
     x="0"
     y="0"
     width="248"
     height="400"
     xlink:href="#arrow" />
  <use
     transform="matrix(0.5595694,0.8287835,-0.8287835,0.5595694,69.932513,375.94344)"
     id="use5171"
     x="0"
     y="0"
     width="248"
     height="400"
     xlink:href="#arrow" />
  <use
     transform="matrix(-0.885629,0.4643933,-0.4643933,-0.885629,57.99289,328.94443)"
     id="use5173"
     x="0"
     y="0"
     width="248"
     height="400"
     xlink:href="#arrow" />
  <use
     transform="matrix(-0.894092,0.4478834,0.4478834,0.894092,111.1348,126.53641)"
     id="use5175"
     x="0"
     y="0"
     width="248"
     height="400"
     xlink:href="#arrow" />
  <use
     transform="matrix(0.515341,0.8569853,0.8569853,-0.515341,136.74168,90.570501)"
     id="use5177"
     x="0"
     y="0"
     width="248"
     height="400"
     xlink:href="#arrow" />
  <use
     transform="matrix(-0.7699411,-0.6381151,0.6381151,-0.7699411,150.74471,127.53893)"
     id="use5179"
     x="0"
     y="0"
     width="248"
     height="400"
     xlink:href="#arrow" />
</svg>