<?xml version="1.0" encoding="UTF-8" standalone="no"?>
<!-- Created with Inkscape (http://www.inkscape.org/) -->

<svg
   xmlns:dc="http://purl.org/dc/elements/1.1/"
   xmlns:cc="http://creativecommons.org/ns#"
   xmlns:rdf="http://www.w3.org/1999/02/22-rdf-syntax-ns#"
   xmlns:svg="http://www.w3.org/2000/svg"
   xmlns="http://www.w3.org/2000/svg"
   xmlns:sodipodi="http://sodipodi.sourceforge.net/DTD/sodipodi-0.dtd"
   xmlns:inkscape="http://www.inkscape.org/namespaces/inkscape"
   width="158.75002mm"
   height="35.355789mm"
   viewBox="0 0 158.75002 35.355789"
   version="1.1"
   id="svg31294"
   inkscape:version="0.92.4 (5da689c313, 2019-01-14)"
   sodipodi:docname="El Paso Times (2020-01-15).svg">
  <defs
     id="defs31288" />
  <sodipodi:namedview
     id="base"
     pagecolor="#ffffff"
     bordercolor="#666666"
     borderopacity="1.0"
     inkscape:pageopacity="0.0"
     inkscape:pageshadow="2"
     inkscape:zoom="2.0066664"
     inkscape:cx="300.00004"
     inkscape:cy="66.814089"
     inkscape:document-units="mm"
     inkscape:current-layer="svg31294"
     showgrid="false"
     fit-margin-top="0"
     fit-margin-left="0"
     fit-margin-right="0"
     fit-margin-bottom="0"
     inkscape:window-width="1920"
     inkscape:window-height="1001"
     inkscape:window-x="-9"
     inkscape:window-y="-9"
     inkscape:window-maximized="1" />
  <metadata
     id="metadata31291">
    <rdf:RDF>
      <cc:Work
         rdf:about="">
        <dc:format>image/svg+xml</dc:format>
        <dc:type
           rdf:resource="http://purl.org/dc/dcmitype/StillImage" />
        <dc:title></dc:title>
      </cc:Work>
    </rdf:RDF>
  </metadata>
  <path
     inkscape:connector-curvature="0"
     id="path3016"
     d="m 39.161171,0.11001692 h 29.7566 l 3.219218,9.89670008 h -1.641063 c 0,0 -1.206077,-7.0729201 -7.585195,-7.0729201 h -5.38692 V 30.049957 c 0,0 -0.31096,3.47445 2.94061,3.47445 1.45592,0 1.45592,0 1.45592,0 v 1.31033 h -15.04816 v -1.24742 c 0,0 0.7118,0.0917 1.14498,0.061 0.43318,-0.0305 2.4463,-0.29837 2.4463,-3.59847 0,-3.2983 0,-13.87803 0,-13.87803 0,0 1.79566,-1.3301 2.16772,-5.84526 1.76508,-1.8244001 2.25939,-2.4121701 1.79564,-3.4798401 -0.32534,-0.80346 -1.34628,-0.86637 -2.22882,0.74234 -0.85199,-0.83581 -1.73454,-0.58776 -1.73454,-0.58776 v -4.08738 c 0,0 -5.66732,-0.25883 -7.27602,0.29837 -1.61051,0.5572 -5.2018,2.91905 -5.35637,6.7943301 -1.85855,0 -1.85855,0 -1.85855,0 l 3.18865,-9.89670008"
     style="fill:#198ccc;fill-opacity:1;fill-rule:nonzero;stroke:none;stroke-width:0.46014431" />
  <path
     inkscape:connector-curvature="0"
     id="path3018"
     d="M 70.001631,0.11001692 72.81821,8.9354469 c 0,0 4.644594,-1.11442 3.593095,-5.72305 -0.929281,-4.11433998 -6.409674,-3.10237998 -6.409674,-3.10237998"
     style="fill:#9c333f;fill-opacity:1;fill-rule:nonzero;stroke:none;stroke-width:0.46014431" />
  <path
     inkscape:connector-curvature="0"
     id="path3020"
     d="m 67.632612,10.831747 h 9.242427 v 21.22415 c 0,0 0.03052,1.66982 1.64825,1.64645 0.674034,0 0.674034,0 0.674034,0 v 1.13239 h -11.30229 v -1.24742 h 0.666847 c 0,0 1.810028,0.24805 1.810028,-1.71656 0,-1.96459 0,-18.00315 0,-18.00315 0,0 0.07004,-0.81064 -0.370277,-1.25281 -0.442174,-0.44037 -1.682398,-0.40082 -1.682398,-0.40082 h -0.686621 z m 12.844496,0 h 9.393414 v 3.58948 h 0.433179 c 0,0 0.990392,-4.12513 6.33597,-4.12513 4.315649,-0.10239 5.471409,3.64881 5.471409,3.64881 0,0 0.18513,0.61831 0.3505,0.61831 0.16536,0 0.57698,-0.76212 1.48648,-1.68958 0.9077,-0.92749 2.70335,-2.57934 5.46961,-2.57934 2.76446,0 4.58167,1.91968 4.58167,1.91968 0,0 1.73453,1.6069 1.73453,4.59784 0,2.98915 0,15.03198 0,15.03198 0,0 -0.18514,1.74352 1.42536,1.74352 1.07308,0 1.07308,0 1.07308,0 v 1.24742 h -9.33051 v -18.29074 c 0,0 0.1438,-2.55596 -2.02392,-2.55596 -2.1677,0 -4.00289,2.49305 -4.00289,2.49305 v 15.71321 c 0,0 -0.0629,1.39302 1.21687,1.39302 1.27977,0 1.27977,0 1.27977,0 v 1.24742 h -9.165139 v -18.27097 c 0,0 0.04132,-2.82377 -2.002345,-2.74289 -2.04369,0.0827 -4.067608,2.74289 -4.067608,2.74289 v 15.48674 c 0,0 -0.03952,1.53681 1.322917,1.53681 1.238435,0 1.238435,0 1.238435,0 v 1.24742 H 80.477108 v -1.24742 h 0.805252 c 0,0 1.754293,0.0504 1.754293,-2.25759 0,-2.31151 0,-17.30214 0,-17.30214 0,0 0.104217,-1.85496 -2.559545,-1.85496 0,-0.57877 0,-1.34088 0,-1.34088"
     style="fill:#198ccc;fill-opacity:1;fill-rule:nonzero;stroke:none;stroke-width:0.46014431" />
  <path
     inkscape:connector-curvature="0"
     id="path3022"
     d="m 128.95582,10.294297 c -9.97039,0 -10.35144,11.54855 -10.35144,11.54855 0,0 -0.568,13.27949 9.84637,13.27949 7.32636,-0.0413 9.84637,-6.22634 9.84637,-6.22634 l -0.87356,-0.73694 c 0,0 -2.52361,3.30907 -5.86685,3.30907 -3.34502,0 -5.97647,-4.01546 -5.97647,-9.45991 l 12.71688,-0.0198 c 0,0 0.47452,-11.69414 -9.3413,-11.69414 z m -3.53915,9.71517 c 0,0 0.0611,-2.1048 0.53563,-4.59965 0.47453,-2.49485 1.42358,-3.44389 3.17968,-3.44389 1.7525,0 3.09698,1.11261 3.07361,8.04354 z m 30.8027,-9.7601 h 1.269 v 7.56183 h -1.45593 c 0,0 -1.09823,-3.60207 -3.46725,-4.93218 -2.36903,-1.3301 -6.13106,-0.99039 -6.8123,1.23664 -0.35589,1.36067 -0.0935,2.67459 5.04721,5.21257 5.13887,2.53619 5.92975,2.7429 7.31378,5.23595 1.38223,2.49663 0.26602,5.60979 -1.01375,7.40365 -1.27799,1.79384 -4.9214,3.49421 -7.40905,3.38277 -2.1821,-0.0989 -4.04603,-0.82681 -4.66616,-1.0515 -0.61831,-0.22827 -2.22881,-1.27977 -2.95138,-0.16537 -0.72258,1.11263 -0.72258,1.11263 -0.72258,1.11263 h -1.31932 v -8.55581 h 1.52603 c 0,0 0.39184,2.59729 1.73452,3.93638 1.34089,1.3409 3.34864,2.59011 4.85129,2.72313 1.51704,0.133 4.27252,0.5554 5.01486,-2.47508 0.74415,-3.03048 -2.76625,-4.28869 -3.54994,-4.63919 -0.78368,-0.35049 -9.53721,-2.22703 -9.53721,-8.76431 0,-3.99929 4.05681,-7.22211 8.21609,-7.22211 4.15927,0 5.08316,1.1899 6.77095,1.1899 0.92748,0 1.16114,-1.1899 1.16114,-1.1899"
     style="fill:#198ccc;fill-opacity:1;fill-rule:nonzero;stroke:none;stroke-width:0.46014431" />
  <path
     inkscape:connector-curvature="0"
     id="path3024"
     d="m 9.354261,14.951467 c 0,0 0.44934,0.32355 0.0935,0.67944 -0.35589,0.35589 -1.14676,1.31572 -0.34151,2.11917 0.80525,0.80526 1.42717,0.0845 1.57994,-1.00477 0.151,-1.08386 0.26963,-2.04188 -0.96522,-2.72312 -1.23304,-0.67942 -3.55533,-0.64887 -5.49117,1.28337 -1.46313,1.46313 -2.8795,3.60567 -2.8795,5.49118 0,1.88731 1.57995,2.21264 1.57995,2.21264 l 0.83581,0.23188 c 0,0 -0.12404,0.1384 -0.9131,1.22046 -0.79088,1.08386 -2.61886996,3.99571 -2.80220996,5.58824 -0.15638,1.34089 -0.24805,4.78478 4.48819996,4.78478 0,0 2.81838,0.4224 5.43546,-3.7225 0.78908,-1.56198 1.34628,-2.52001 1.00657,-2.75187 -0.34152,-0.23187 -0.46554,0.0449 -0.99219,1.17552 -0.52665,1.12879 -2.15154,3.66498 -4.56729,3.66498 -2.41397,0 -2.64584,-3.15451 -2.64584,-3.80517 0,-0.64889 0.66506,-2.99993 1.51705,-4.29948 0.85018,-1.29955 1.81001,-2.44273 3.2965,-3.5104 0,-0.85019 0,-0.85019 0,-0.85019 0,0 -0.88255,0.57158 -1.67161,0.88075 -0.78908,0.30916 -2.25939,0.21749 -2.25939,-1.15935 0,-1.37685 0.6345,-3.04666 1.70217,-4.11434 1.06769,-1.06767 3.04307,-2.34386 3.99392,-1.39122"
     style="fill:#9c333f;fill-opacity:1;fill-rule:nonzero;stroke:none;stroke-width:0.46014431" />
  <path
     inkscape:connector-curvature="0"
     id="path3026"
     d="m 15.408031,19.143107 c 1.05329,-4.91961 1.49367,-8.16757 0.27859,-8.16757 -1.79204,0 -3.0862,5.58823 -3.0862,5.58823 0,0 -1.51883,6.20477 -1.51883,8.76431 0,1.42358 0.2085,4.36239 1.78665,4.36239 0.74414,0 1.39302,-0.52665 1.53322,-0.71179 0.14019,-0.18513 0.46554,-0.72796 0.17075,-0.92748 -0.29478,-0.20131 -0.52665,0.0144 -0.62011,0.27861 -0.0917,0.26242 -0.41701,0.61831 -0.97421,0.2768 -0.26423,-0.18513 -0.53743,-1.6788 -0.37747,-2.74289 0,0 1.75431,-1.80282 2.80761,-6.72061 z m -2.1066,1.3193 c 0.47632,-1.9592 0.9724,-3.0107 1.26,-3.0107 0.28939,0 -0.0827,1.60691 -0.26782,2.65841 -0.18693,1.0533 -1.07308,3.55174 -1.50625,4.16826 0,0 0.0395,-1.85675 0.51407,-3.81597 z m 5.8219,2.51463 c 0,0 -1.06768,-0.18514 -1.06768,0.0935 -0.0162,0.35589 0.12405,0.46373 0.92928,0.46373 -0.34151,1.37684 -0.92928,3.50501 -0.92928,5.01127 0,1.50445 0.12405,3.12395 1.73454,3.12395 1.6087,0 2.61526,-2.47507 1.19169,-3.27854 0,-2.69076 0.16896,-4.85668 0.16896,-4.85668 0,0 4.9088,-1.17551 8.68522,-8.04174 3.77821,-6.8680001 -0.71178,-8.5054701 -3.96334,-7.2077201 -3.24978,1.29955 -6.90397,4.3282401 -7.46118,5.3348001 -0.5572,1.00656 -0.92928,2.56853 -0.17075,2.59909 0.75852,0.0305 1.19169,-1.73273 2.36902,-2.93881 1.17733,-1.20609 1.91966,-1.88551 3.2965,-2.79861 1.37864,-0.9131001 3.19046,-2.1497401 4.25813,-1.4541301 1.06769,0.69561 1.17194,2.5775301 0.77829,3.7638401 -0.35948,1.08746 -1.3966,3.8609 -2.68177,5.43904 -1.28516,1.57816 -2.30791,3.21742 -4.96992,4.09817 0.51047,-3.72609 1.59433,-7.64092 1.59433,-7.64092 0,0 0.88254,-2.61348 0.15458,-2.61348 -0.72797,0 -1.23844,1.85677 -1.74891,3.47984 -0.51048,1.62489 -2.16771,7.42344 -2.16771,7.42344"
     style="fill:#9c333f;fill-opacity:1;fill-rule:nonzero;stroke:none;stroke-width:0.46014431" />
  <path
     inkscape:connector-curvature="0"
     id="path3028"
     d="m 53.508331,7.0319469 c -0.23187,-0.27859 -0.78907,0.72797 -0.78907,0.72797 0,0 -0.17076,0.32354 -0.55721,0.6327 -0.38824,0.31096 -0.66685,0.29478 -0.79087,-0.3541 -0.12221,-0.65066 -1.34628,-0.51047 -1.60871,0.1384 -1.27079,-0.0162 -1.88911,0.32534 -2.91185,1.9646101 -1.16114,1.9628 -1.34269,2.74468 -1.56378,4.23657 -0.77289,1.14496 -1.51703,2.01132 -2.39958,2.59909 0.0989,-0.98501 -0.39544,-2.44093 -0.68842,-2.98555 -0.40621,-0.75313 -0.66325,-2.30791 -0.07,-3.49422 0.59315,-1.1881101 0.3523,-1.3966101 0.23187,-1.4846901 -0.11857,-0.0899 -0.81604,-0.22647 -1.14497,1.2384401 -0.23367,0.83401 -0.61112,1.45234 -1.16114,2.20905 -0.60035,0.82862 -1.57996,2.33667 -2.245,3.43311 -0.66506,1.09823 -1.84238,2.73929 -2.30613,3.46546 -0.46553,0.72617 -0.85198,1.34628 -1.22225,1.14497 -0.37207,-0.20131 0.045,-1.45412 0.63449,-2.8777 0.58776,-1.42178 0.27861,-0.69561 0.7729,-1.53142 0.4961,-0.83401 0.83582,-1.37504 0.4188,-1.79384 -0.4188,-0.417 -1.21326,0.0575 -1.21326,0.0575 0,0 -0.57878,0.43319 -0.99039,0.10252 -0.41341,-0.32893 -2.04369,-0.76211 -3.94357,2.10301 -1.8981,2.86692 -2.78603,6.02141 -1.61052,6.92912 1.17733,0.90771 2.6638,0.53744 3.40614,-0.37026 0.74415,-0.90771 0.80527,-0.20672 1.23844,-0.20672 0.43499,0 1.59074,-0.53563 3.03588,-2.68177 1.44334,-2.14435 3.65239,-6.01244 3.65239,-6.01244 0,0 0.87536,-1.36245 0.74414,-0.46193 -0.11869,0.82502 0.39004,1.57635 0.68482,2.33667 0.19054,0.49429 0.0575,1.66442 -1.01555,2.13894 -1.07307,0.47453 -2.70514,0.94726 -2.662,1.42178 0.0395,0.47452 1.19709,0.98859 2.18748,0.8466 0.99039,-0.14559 2.37262,-1.03174 2.99273,-2.53798 1.52784,-1.09285 2.20906,-2.04011 2.20906,-2.04011 0,0 0.49429,-0.24803 0.47453,0.30916 -0.0215,0.55542 0.72256,1.50446 1.71296,1.50446 0.99038,0 2.21084,-0.82501 3.1581,-2.55596 0,0 1.42536,-1.85675 1.48648,-5.3204101 0.69201,-0.43319 0.81603,-0.57338 1.37324,-1.269 0.55721,-0.6956 0.81963,-1.15934 0.47991,-1.56197 z m -20.498,11.1495101 c -0.46013,0.9185 -0.57337,1.73454 -0.60393,2.13716 -0.0305,0.40084 0.0305,1.22047 -0.78907,1.71656 -0.81964,0.4943 -1.88911,0.18514 -1.64106,-1.37684 0.24805,-1.56198 0.61292,-2.38161 1.43615,-3.6506 0.82322,-1.26899 1.49007,-1.93404 2.09401,-1.50805 0.38645,0.50328 0.51767,0.65786 -0.4961,2.68177 z m 16.03317,-3.21021 c -0.68123,0.9077 -1.71296,1.44333 -2.27018,0.57697 -0.5572,-0.86637 0.26783,-3.03047 0.6381,-3.8555 0.84839,-1.7938501 1.83878,-2.5577601 1.83878,-2.5577601 0,0 0.0414,0.8663601 1.42536,1.0119501 -0.39364,2.78245 -0.95084,3.91663 -1.63206,4.82434 z m 1.63206,-5.5720701 c -0.2067,0 -0.37386,-0.16716 -0.37386,-0.37206 0,-0.20491 0.16716,-0.37028 0.37386,-0.37028 0.20492,0 0.37208,0.16537 0.37208,0.37028 0,0.2049 -0.16716,0.37206 -0.37208,0.37206"
     style="fill:#9c333f;fill-opacity:1;fill-rule:nonzero;stroke:none;stroke-width:0.46014431" />
</svg>
