<?xml version="1.0" encoding="UTF-8" standalone="no"?>
<!-- Created with Inkscape (http://www.inkscape.org/) -->
<svg
   xmlns:dc="http://purl.org/dc/elements/1.1/"
   xmlns:cc="http://web.resource.org/cc/"
   xmlns:rdf="http://www.w3.org/1999/02/22-rdf-syntax-ns#"
   xmlns:svg="http://www.w3.org/2000/svg"
   xmlns="http://www.w3.org/2000/svg"
   xmlns:sodipodi="http://sodipodi.sourceforge.net/DTD/sodipodi-0.dtd"
   xmlns:inkscape="http://www.inkscape.org/namespaces/inkscape"
   version="1.0"
   width="520"
   height="1129.03"
   id="svg2"
   sodipodi:version="0.32"
   inkscape:version="0.45.1"
   sodipodi:docname="Ethanol_fermentation fr.svg"
   inkscape:output_extension="org.inkscape.output.svg.inkscape"
   sodipodi:docbase="C:\Users\SOS\Desktop">
  <metadata
     id="metadata184">
    <rdf:RDF>
      <cc:Work
         rdf:about="">
        <dc:format>image/svg+xml</dc:format>
        <dc:type
           rdf:resource="http://purl.org/dc/dcmitype/StillImage" />
      </cc:Work>
    </rdf:RDF>
  </metadata>
  <sodipodi:namedview
     inkscape:window-height="575"
     inkscape:window-width="761"
     inkscape:pageshadow="2"
     inkscape:pageopacity="0.0"
     guidetolerance="10.0"
     gridtolerance="10.0"
     objecttolerance="10.0"
     borderopacity="1.0"
     bordercolor="#666666"
     pagecolor="#ffffff"
     id="base"
     inkscape:zoom="0.94445409"
     inkscape:cx="207.59684"
     inkscape:cy="1079.5642"
     inkscape:window-x="20"
     inkscape:window-y="107"
     inkscape:current-layer="svg2" />
  <defs
     id="defs4">
    <marker
       refX="0"
       refY="0"
       orient="auto"
       id="Arrow2Mend"
       style="overflow:visible">
      <path
         d="M 8.7185878,4.0337352 -2.2072895,0.01601326 8.7185884,-4.0017078 c -1.7454984,2.3720609 -1.7354408,5.6174519 -6e-7,8.035443 z"
         transform="matrix(-0.6,0,0,-0.6,3,0)"
         id="path10286"
         style="font-size:12px;fill-rule:evenodd;stroke-width:0.625;stroke-linejoin:round" />
    </marker>
  </defs>
  <g
     id="text1367"
     style="font-size:32px;font-style:normal;font-variant:normal;font-weight:normal;font-stretch:normal;text-align:start;line-height:100%;text-anchor:start;fill:#000000;fill-opacity:1;stroke:none;font-family:Bitstream Vera Sans"
     transform="matrix(1.0788455,0,0,1.0788455,3.7862793,-4.764239)">
    <path
       d="M 21.90427,36.980869 L 21.90427,16.937901 L 28.808567,16.937901 C 30.36715,16.937921 31.556602,17.033621 32.376926,17.22501 C 33.52535,17.489352 34.505167,17.967867 35.31638,18.660557 C 36.373655,19.553803 37.164344,20.695404 37.68845,22.085361 C 38.21252,23.475349 38.474564,25.063564 38.474583,26.85001 C 38.474564,28.372154 38.29683,29.721111 37.94138,30.896885 C 37.585893,32.072671 37.130164,33.045652 36.574192,33.81583 C 36.018186,34.586015 35.409788,35.192134 34.748997,35.63419 C 34.088175,36.076248 33.29065,36.411208 32.356419,36.639072 C 31.422162,36.866937 30.348921,36.980869 29.136692,36.980869 L 21.90427,36.980869 z M 24.556614,34.615635 L 28.835911,34.615635 C 30.157515,34.615637 31.194298,34.492591 31.946262,34.246494 C 32.698203,34.000404 33.297486,33.65405 33.744114,33.207432 C 34.373006,32.57853 34.862914,31.733153 35.21384,30.671299 C 35.564736,29.609457 35.740192,28.322024 35.740208,26.808994 C 35.740192,24.712652 35.396116,23.101651 34.707981,21.975986 C 34.019816,20.850352 33.183554,20.096121 32.199192,19.713291 C 31.488243,19.439871 30.344364,19.303153 28.767551,19.303135 L 24.556614,19.303135 L 24.556614,34.615635 z "
       id="path4461"
       style="font-size:28px;font-style:normal;font-variant:normal;font-weight:normal;font-stretch:normal;text-align:start;line-height:100%;writing-mode:lr-tb;text-anchor:start;font-family:Arial" />
    <path
       d="M 40.994114,30.105869 L 40.994114,27.277744 L 49.634739,27.277744 L 49.634739,30.105869 L 40.994114,30.105869 z "
       id="path4463" />
    <path
       d="M 63.853489,27.996494 L 63.853489,25.308994 L 73.556614,25.293364 L 73.556614,33.793364 C 72.067009,34.980866 70.530552,35.874095 68.947239,36.473052 C 67.363889,37.07201 65.738891,37.371489 64.072239,37.371489 C 61.822228,37.371489 59.777959,36.889719 57.939426,35.926177 C 56.100879,34.962637 54.71286,33.569409 53.775364,31.746489 C 52.837862,29.92358 52.369112,27.887123 52.369114,25.637114 C 52.369112,23.407961 52.835258,21.327234 53.767551,19.394927 C 54.699839,17.462655 56.040984,16.02776 57.790989,15.090239 C 59.54098,14.152762 61.556603,13.684013 63.837864,13.683989 C 65.494099,13.684013 66.991493,13.952241 68.330051,14.488677 C 69.668574,15.025157 70.718052,15.772552 71.478489,16.730864 C 72.238884,17.689217 72.817008,18.939216 73.212864,20.480864 L 70.478489,21.230864 C 70.134719,20.064215 69.707637,19.147549 69.197239,18.480864 C 68.686804,17.814217 67.957638,17.280363 67.009739,16.879302 C 66.061807,16.478281 65.009725,16.27776 63.853489,16.277739 C 62.46806,16.27776 61.270145,16.488697 60.259739,16.910552 C 59.249314,17.332446 58.43421,17.887133 57.814426,18.574614 C 57.194628,19.262132 56.712858,20.01734 56.369114,20.840239 C 55.785775,22.256921 55.494109,23.793377 55.494114,25.449614 C 55.494109,27.49129 55.845671,29.199622 56.548801,30.574614 C 57.25192,31.949619 58.275356,32.970452 59.619114,33.637114 C 60.962854,34.303784 62.389936,34.637117 63.900364,34.637114 C 65.212849,34.637117 66.494098,34.384513 67.744114,33.879302 C 68.994096,33.374097 69.942011,32.835035 70.587864,32.262114 L 70.587864,27.996489 L 63.853489,27.996494 z "
       id="path4465" />
    <path
       d="M 77.587864,36.980869 L 77.587864,14.074619 L 80.400364,14.074619 L 80.400364,36.980869 L 77.587864,36.980869 z "
       id="path4467" />
    <path
       d="M 95.650364,36.980869 L 95.650364,34.543369 C 94.358686,36.41837 92.603479,37.355869 90.384739,37.355869 C 89.405566,37.355869 88.491504,37.168369 87.642551,36.793369 C 86.793589,36.41837 86.163381,35.947016 85.751926,35.379307 C 85.340465,34.811601 85.051403,34.116289 84.884739,33.293369 C 84.770153,32.74129 84.712862,31.866291 84.712864,30.668369 L 84.712864,20.387119 L 87.525364,20.387119 L 87.525364,29.590244 C 87.525359,31.059 87.582654,32.048583 87.697239,32.558994 C 87.874317,33.298581 88.249317,33.87931 88.822239,34.301182 C 89.395149,34.723059 90.103481,34.933996 90.947239,34.933994 C 91.79098,34.933996 92.582646,34.717851 93.322239,34.285557 C 94.061811,33.853268 94.585248,33.264727 94.892551,32.519932 C 95.199831,31.775145 95.353476,30.694417 95.353489,29.277744 L 95.353489,20.387119 L 98.165989,20.387119 L 98.165989,36.980869 L 95.650364,36.980869 z "
       id="path4469" />
    <path
       d="M 113.41599,30.902744 L 116.18161,31.262119 C 115.87952,33.168373 115.10608,34.660559 113.8613,35.738682 C 112.6165,36.816807 111.08785,37.355869 109.27536,37.355869 C 107.00452,37.355869 105.17901,36.613682 103.7988,35.129307 C 102.41859,33.644935 101.72849,31.517333 101.72849,28.746494 C 101.72849,26.954838 102.02536,25.387131 102.61911,24.043369 C 103.21286,22.699634 104.11651,21.691822 105.33005,21.019932 C 106.54359,20.348073 107.8639,20.012136 109.29099,20.012119 C 111.09306,20.012136 112.56702,20.467865 113.71286,21.379307 C 114.85868,22.29078 115.59306,23.585049 115.91599,25.262119 L 113.18161,25.683994 C 112.92118,24.569423 112.46025,23.730883 111.7988,23.168369 C 111.13733,22.605884 110.33785,22.324634 109.40036,22.324619 C 107.98369,22.324634 106.83265,22.832446 105.94724,23.848057 C 105.06182,24.863694 104.61911,26.470463 104.61911,28.668369 C 104.61911,30.897542 105.04619,32.517332 105.90036,33.527744 C 106.75452,34.538163 107.86911,35.043371 109.24411,35.043369 C 110.34827,35.043371 111.27014,34.70483 112.00974,34.027744 C 112.74931,33.350665 113.21806,32.308999 113.41599,30.902744 L 113.41599,30.902744 z "
       id="path4471" />
    <path
       d="M 117.54099,28.683994 C 117.54099,25.611089 118.39515,23.33505 120.10349,21.855869 C 121.53057,20.626719 123.27015,20.012136 125.32224,20.012119 C 127.60348,20.012136 129.46806,20.759531 130.91599,22.254307 C 132.36389,23.749112 133.08785,25.814214 133.08786,28.449619 C 133.08785,30.585042 132.76754,32.264728 132.12693,33.488682 C 131.48629,34.712642 130.554,35.663162 129.33005,36.340244 C 128.10608,37.017328 126.77015,37.355869 125.32224,37.355869 C 122.99932,37.355869 121.12171,36.611078 119.68943,35.121494 C 118.25713,33.631914 117.54099,31.486083 117.54099,28.683994 L 117.54099,28.683994 z M 120.43161,28.683994 C 120.43161,30.809 120.89515,32.400145 121.82224,33.457432 C 122.74932,34.514726 123.91598,35.043371 125.32224,35.043369 C 126.71806,35.043371 127.87952,34.512122 128.80661,33.449619 C 129.73368,32.387124 130.19723,30.767334 130.19724,28.590244 C 130.19723,26.538171 129.73108,24.983485 128.7988,23.926182 C 127.8665,22.868904 126.70765,22.340259 125.32224,22.340244 C 123.91598,22.340259 122.74932,22.8663 121.82224,23.918369 C 120.89515,24.970465 120.43161,26.559005 120.43161,28.683994 z "
       id="path4473" />
    <path
       d="M 135.27536,32.027744 L 138.05661,31.590244 C 138.21286,32.704832 138.64776,33.558998 139.3613,34.152744 C 140.07484,34.746497 141.07223,35.043371 142.35349,35.043369 C 143.64515,35.043371 144.60348,34.780351 145.22849,34.254307 C 145.85348,33.728268 146.16598,33.111081 146.16599,32.402744 C 146.16598,31.767333 145.88994,31.267333 145.33786,30.902744 C 144.95244,30.652751 143.9941,30.335043 142.46286,29.949619 C 140.40036,29.428794 138.97067,28.978273 138.1738,28.598057 C 137.37692,28.217857 136.77276,27.691816 136.3613,27.019932 C 135.94984,26.348067 135.74411,25.605881 135.74411,24.793369 C 135.74411,24.053799 135.91338,23.368904 136.25193,22.738682 C 136.59047,22.108488 137.0514,21.585051 137.63474,21.168369 C 138.07224,20.845469 138.66859,20.572032 139.4238,20.348057 C 140.179,20.124115 140.9889,20.012136 141.85349,20.012119 C 143.15556,20.012136 144.29879,20.199636 145.28318,20.574619 C 146.26754,20.949635 146.9941,21.457447 147.46286,22.098057 C 147.9316,22.738696 148.25452,23.595466 148.43161,24.668369 L 145.68161,25.043369 C 145.5566,24.189215 145.19462,23.522549 144.59568,23.043369 C 143.99671,22.564217 143.15036,22.324634 142.05661,22.324619 C 140.76494,22.324634 139.84307,22.538175 139.29099,22.965244 C 138.7389,23.392341 138.46286,23.892341 138.46286,24.465244 C 138.46286,24.82984 138.57744,25.157964 138.80661,25.449619 C 139.03578,25.751714 139.39515,26.001714 139.88474,26.199619 C 140.16598,26.303797 140.99411,26.54338 142.36911,26.918369 C 144.35869,27.449629 145.74671,27.884524 146.53318,28.223057 C 147.31962,28.561607 147.93681,29.053794 148.38474,29.699619 C 148.83264,30.345459 149.0566,31.147542 149.05661,32.105869 C 149.0566,33.043373 148.78316,33.926185 148.2363,34.754307 C 147.68941,35.582433 146.90035,36.223058 145.86911,36.676182 C 144.83785,37.129307 143.67119,37.355869 142.36911,37.355869 C 140.21286,37.355869 138.56963,36.907953 137.43943,36.012119 C 136.30922,35.116288 135.58786,33.788164 135.27536,32.027744 L 135.27536,32.027744 z "
       id="path4475" />
    <path
       d="M 163.75974,31.637119 L 166.66599,31.996494 C 166.20764,33.694414 165.35868,35.012121 164.11911,35.949619 C 162.87952,36.887119 161.29619,37.355869 159.36911,37.355869 C 156.94202,37.355869 155.01755,36.608474 153.59568,35.113682 C 152.1738,33.618893 151.46286,31.522541 151.46286,28.824619 C 151.46286,26.032964 152.18161,23.866299 153.61911,22.324619 C 155.05661,20.782969 156.92119,20.012136 159.21286,20.012119 C 161.4316,20.012136 163.2441,20.767344 164.65036,22.277744 C 166.0566,23.788174 166.75972,25.913172 166.75974,28.652744 C 166.75972,28.819419 166.75474,29.069419 166.74414,29.402744 L 154.36914,29.402744 C 154.47331,31.225667 154.98893,32.621499 155.91602,33.590244 C 156.8431,34.558997 157.99934,35.043371 159.38477,35.043369 C 160.41601,35.043371 161.29622,34.772538 162.02539,34.230869 C 162.75455,33.689206 163.33267,32.824623 163.75977,31.637119 L 163.75974,31.637119 z M 154.52536,27.090244 L 163.79099,27.090244 C 163.66598,25.694422 163.31181,24.647548 162.72849,23.949619 C 161.83264,22.8663 160.67119,22.324634 159.24411,22.324619 C 157.95244,22.324634 156.8665,22.756925 155.9863,23.621494 C 155.10609,24.48609 154.61911,25.642339 154.52536,27.090244 z "
       id="path4477" />
  </g>
  <g
     id="text1379"
     style="font-size:28px;font-style:normal;font-variant:normal;font-weight:normal;font-stretch:normal;text-align:start;line-height:125%;text-anchor:start;fill:#000000;fill-opacity:1;stroke:none;font-family:Bitstream Vera Sans"
     transform="matrix(1.0788455,0,0,1.0788455,3.7862793,-4.764239)">
    <path
       d="M 124.01077,240.78009 C 124.01077,237.45328 124.904,234.84879 126.69046,232.96661 C 128.47691,231.08447 130.7829,230.14339 133.60843,230.14337 C 135.45868,230.14339 137.12664,230.58545 138.61234,231.46954 C 140.09799,232.35368 141.23048,233.58642 142.0098,235.16779 C 142.78907,236.74918 143.17872,238.54247 143.17874,240.54767 C 143.17872,242.58023 142.76857,244.39859 141.94827,246.00275 C 141.12794,247.60692 139.96583,248.82143 138.46194,249.6463 C 136.95802,250.47117 135.33563,250.88361 133.59476,250.88361 C 131.70803,250.88361 130.02183,250.42788 128.53616,249.51642 C 127.05048,248.60496 125.92483,247.36082 125.15921,245.784 C 124.39358,244.20718 124.01077,242.53921 124.01077,240.78009 L 124.01077,240.78009 z M 126.74515,240.82109 C 126.74514,243.23646 127.39456,245.13913 128.69339,246.52909 C 129.99221,247.91907 131.62144,248.61406 133.58109,248.61405 C 135.57717,248.61406 137.22007,247.91223 138.5098,246.50859 C 139.79949,245.10495 140.44435,243.11341 140.44437,240.53398 C 140.44435,238.90248 140.16863,237.47833 139.61722,236.26152 C 139.06577,235.04473 138.25913,234.10138 137.1973,233.43144 C 136.13543,232.76153 134.9437,232.42657 133.6221,232.42655 C 131.74449,232.42657 130.12893,233.07143 128.77542,234.36113 C 127.4219,235.65085 126.74514,237.80417 126.74515,240.82109 L 126.74515,240.82109 z "
       id="path4300" />
  </g>
  <g
     id="text2870"
     style="font-size:28px;font-style:normal;font-variant:normal;font-weight:normal;font-stretch:normal;text-align:start;line-height:125%;text-anchor:start;fill:#ff0000;fill-opacity:1;stroke:none;font-family:Bitstream Vera Sans"
     transform="matrix(1.0788455,0,0,1.0788455,3.7862793,-4.764239)">
    <path
       d="M 39.769943,190.45589 C 39.769942,187.12908 40.66317,184.52459 42.449631,182.64241 C 44.236083,180.76027 46.542071,179.81919 49.367599,179.81917 C 51.217847,179.81919 52.885814,180.26125 54.371506,181.14534 C 55.857165,182.02947 56.989651,183.26222 57.768967,184.84358 C 58.548243,186.42498 58.937891,188.21827 58.937912,190.22346 C 58.937891,192.25603 58.527736,194.07438 57.707443,195.67854 C 56.887112,197.28271 55.725004,198.49723 54.221115,199.3221 C 52.717195,200.14697 51.0948,200.5594 49.353928,200.5594 C 47.4672,200.5594 45.781004,200.10367 44.295334,199.19221 C 42.809652,198.28076 41.684002,197.03662 40.918381,195.45979 C 40.152754,193.88298 39.769942,192.21501 39.769943,190.45589 L 39.769943,190.45589 z M 42.504318,190.49689 C 42.504314,192.91226 43.153728,194.81493 44.45256,196.2049 C 45.751381,197.59488 47.380611,198.28986 49.340256,198.28986 C 51.336337,198.28986 52.979239,197.58804 54.268967,196.18439 C 55.558663,194.78075 56.203519,192.78922 56.203537,190.20978 C 56.203519,188.57828 55.927803,187.15413 55.376389,185.93732 C 54.82494,184.72054 54.0183,183.77718 52.956467,183.10724 C 51.894604,182.43734 50.702874,182.10238 49.381271,182.10236 C 47.503658,182.10238 45.8881,182.74724 44.534592,184.03693 C 43.181071,185.32666 42.504314,187.47998 42.504318,190.49689 L 42.504318,190.49689 z "
       id="path4297"
       style="fill:#ff0000" />
  </g>
  <g
     id="text3600"
     style="font-size:28px;font-style:normal;font-variant:normal;font-weight:normal;font-stretch:normal;text-align:start;line-height:125%;text-anchor:start;fill:#ff0000;fill-opacity:1;stroke:none;font-family:Bitstream Vera Sans"
     transform="matrix(1.0788455,0,0,1.0788455,3.7862793,-4.764239)">
    <path
       d="M 5.7596054,260.06827 C 5.7596041,256.74146 6.6528323,254.13697 8.4392929,252.25479 C 10.225745,250.37265 12.531733,249.43157 15.357262,249.43155 C 17.207509,249.43157 18.875476,249.87363 20.361168,250.75772 C 21.846828,251.64185 22.979313,252.8746 23.758629,254.45596 C 24.537906,256.03736 24.927554,257.83065 24.927574,259.83585 C 24.927554,261.86841 24.517398,263.68676 23.697105,265.29092 C 22.876774,266.89509 21.714666,268.10961 20.210777,268.93448 C 18.706857,269.75935 17.084463,270.17178 15.34359,270.17178 C 13.456862,270.17178 11.770666,269.71605 10.284996,268.8046 C 8.7993146,267.89314 7.6736646,266.649 6.9080429,265.07217 C 6.1424162,263.49536 5.7596041,261.82739 5.7596054,260.06827 L 5.7596054,260.06827 z M 8.4939804,260.10927 C 8.4939763,262.52465 9.1433897,264.42731 10.442223,265.81728 C 11.741043,267.20726 13.370274,267.90224 15.329918,267.90224 C 17.325999,267.90224 18.968901,267.20042 20.258629,265.79677 C 21.548325,264.39313 22.193181,262.4016 22.193199,259.82216 C 22.193181,258.19067 21.917466,256.76651 21.366051,255.5497 C 20.814602,254.33292 20.007962,253.38956 18.946129,252.71963 C 17.884266,252.04972 16.692536,251.71476 15.370934,251.71474 C 13.49332,251.71476 11.877762,252.35962 10.524254,253.64931 C 9.1707335,254.93904 8.4939763,257.09236 8.4939804,260.10927 L 8.4939804,260.10927 z "
       id="path4294"
       style="fill:#ff0000" />
  </g>
  <path
     d="M 59.910903,215.4528 L 60.183353,253.05086 L 35.662886,268.85293"
     id="path3616"
     style="fill:none;stroke:#ff0000;stroke-width:2.157691;stroke-linecap:butt;stroke-linejoin:miter;stroke-miterlimit:4;stroke-dasharray:none;stroke-opacity:1" />
  <path
     d="M 60.728253,253.59575 L 104.86509,281.65806 L 105.40999,318.43877"
     id="path5796"
     style="fill:none;stroke:#000000;stroke-width:2.157691;stroke-linecap:butt;stroke-linejoin:miter;stroke-miterlimit:4;stroke-dasharray:none;stroke-opacity:1" />
  <path
     d="M 100.5059,278.11623 L 131.29271,259.86209"
     id="path6524"
     style="fill:none;stroke:#000000;stroke-width:2.157691;stroke-linecap:butt;stroke-linejoin:miter;stroke-miterlimit:4;stroke-dasharray:none;stroke-opacity:1" />
  <path
     d="M 105.13754,285.47236 L 135.6519,267.76314"
     id="path6526"
     style="fill:none;stroke:#000000;stroke-width:2.157691;stroke-linecap:butt;stroke-linejoin:miter;stroke-miterlimit:4;stroke-dasharray:none;stroke-opacity:1" />
  <path
     d="M 32.93839,263.13149 L 54.46191,249.50901 L 54.46191,215.9977"
     id="path7254"
     style="fill:none;stroke:#ff0000;stroke-width:2.157691;stroke-linecap:butt;stroke-linejoin:miter;stroke-miterlimit:4;stroke-dasharray:6.473073, 2.157691;stroke-dashoffset:0;stroke-opacity:1" />
  <g
     id="text9434"
     style="font-size:28px;font-style:normal;font-variant:normal;font-weight:normal;font-stretch:normal;text-align:start;line-height:125%;text-anchor:start;fill:#000000;fill-opacity:1;stroke:none;font-family:Bitstream Vera Sans"
     transform="matrix(1.0788455,0,0,1.0788455,3.7862793,-4.764239)">
    <path
       d="M 99.798538,317.57666 L 102.45088,318.24658 C 101.89487,320.42497 100.89455,322.0861 99.449905,323.22998 C 98.005229,324.37386 96.239281,324.9458 94.152054,324.9458 C 91.991889,324.9458 90.235055,324.50602 88.881546,323.62646 C 87.528026,322.74691 86.498079,321.47315 85.791702,319.80518 C 85.08532,318.13721 84.732131,316.3462 84.732132,314.43213 C 84.732131,312.3449 85.130893,310.52427 85.928421,308.97021 C 86.725944,307.4162 87.860708,306.23586 89.332718,305.4292 C 90.804716,304.62258 92.424831,304.21926 94.193069,304.21924 C 96.198265,304.21926 97.884461,304.72967 99.251663,305.75049 C 100.61883,306.77134 101.57131,308.20688 102.10909,310.05713 L 99.497757,310.67236 C 99.032898,309.21405 98.358419,308.1522 97.474319,307.48682 C 96.590192,306.82147 95.478214,306.48879 94.138382,306.48877 C 92.598008,306.48879 91.310575,306.85793 90.276077,307.59619 C 89.241566,308.33449 88.514679,309.3257 88.095413,310.56982 C 87.676138,311.81398 87.466503,313.09685 87.466507,314.41846 C 87.466503,316.12289 87.714875,317.61085 88.211624,318.88232 C 88.708364,320.15381 89.480824,321.10401 90.529007,321.73291 C 91.577176,322.36182 92.71194,322.67627 93.933304,322.67627 C 95.418969,322.67627 96.67678,322.24789 97.706741,321.39111 C 98.736674,320.53435 99.433939,319.26286 99.798538,317.57666 L 99.798538,317.57666 z "
       id="path4504" />
    <path
       d="M 105.81416,324.604 L 105.81416,304.56104 L 108.46651,304.56104 L 108.46651,312.7915 L 118.88448,312.7915 L 118.88448,304.56104 L 121.53682,304.56104 L 121.53682,324.604 L 118.88448,324.604 L 118.88448,315.15674 L 108.46651,315.15674 L 108.46651,324.604 L 105.81416,324.604 z "
       id="path4506" />
  </g>
  <g
     id="text9442"
     style="font-size:20px;font-style:normal;font-variant:normal;font-weight:normal;font-stretch:normal;text-align:start;line-height:125%;text-anchor:start;fill:#000000;fill-opacity:1;stroke:none;font-family:Bitstream Vera Sans"
     transform="matrix(1.0788455,0,0,1.0788455,3.7862793,-4.764239)">
    <path
       d="M 124.07884,326.1077 L 125.83665,325.87332 C 126.03847,326.86942 126.3819,327.58719 126.86693,328.02664 C 127.35195,328.4661 127.94277,328.68582 128.63939,328.68582 C 129.46621,328.68582 130.16445,328.39936 130.73412,327.82645 C 131.30377,327.25353 131.5886,326.5439 131.58861,325.69754 C 131.5886,324.89025 131.32493,324.22456 130.79759,323.70047 C 130.27024,323.17639 129.59967,322.91434 128.78587,322.91434 C 128.45384,322.91434 128.04043,322.97944 127.54564,323.10965 L 127.74095,321.56668 C 127.85813,321.57968 127.95254,321.58618 128.02415,321.58618 C 128.77285,321.58619 129.44667,321.39088 130.04564,321.00024 C 130.64459,320.60963 130.94407,320.00742 130.94408,319.1936 C 130.94407,318.54908 130.72597,318.01523 130.28978,317.59204 C 129.85358,317.16888 129.29042,316.95729 128.60033,316.95728 C 127.91673,316.95729 127.34707,317.17213 126.89134,317.60181 C 126.43561,318.03151 126.14264,318.67604 126.01244,319.5354 L 124.25462,319.2229 C 124.46947,318.04453 124.95775,317.13144 125.71947,316.48364 C 126.48118,315.83587 127.42845,315.51198 128.56126,315.51196 C 129.34251,315.51198 130.06191,315.67962 130.71947,316.01489 C 131.37701,316.35019 131.87994,316.80755 132.22826,317.38696 C 132.57655,317.9664 132.75071,318.58164 132.75072,319.23267 C 132.75071,319.85117 132.58469,320.41432 132.25267,320.92212 C 131.92063,321.42994 131.42909,321.83359 130.77806,322.13306 C 131.62441,322.32838 132.28196,322.73365 132.75072,323.34888 C 133.21946,323.96412 133.45383,324.73397 133.45384,325.65845 C 133.45383,326.90845 132.9981,327.96802 132.08665,328.83716 C 131.17519,329.7063 130.02285,330.14087 128.62962,330.14087 C 127.37311,330.14087 126.32982,329.76652 125.49974,329.01782 C 124.66966,328.26913 124.19603,327.29908 124.07884,326.10767 L 124.07884,326.1077 z "
       id="path4509" />
  </g>
  <path
     d="M 36.611044,224.68303 C 36.611044,230.46945 31.92022,235.16028 26.133796,235.16028 C 20.34737,235.16028 15.656547,230.46945 15.656547,224.68303 C 15.656547,218.89661 20.34737,214.20577 26.133796,214.20577 C 31.92022,214.20577 36.611044,218.89661 36.611044,224.68303 z "
     id="path10316"
     style="fill:none;stroke:#ff0000;stroke-width:2.39479971;stroke-linecap:square;stroke-linejoin:round;stroke-miterlimit:4;stroke-dasharray:none;stroke-dashoffset:0;stroke-opacity:1" />
  <path
     d="M 20.983747,224.68308 L 31.669142,224.68308"
     id="path11056"
     style="fill:none;stroke:#ff0000;stroke-width:2.157691;stroke-linecap:butt;stroke-linejoin:miter;stroke-miterlimit:4;stroke-dasharray:none;stroke-opacity:1" />
  <path
     d="M 105.1207,424.82755 L 105.506,520.57636"
     id="path13273"
     style="fill:none;stroke:#000000;stroke-width:3.2365365;stroke-linecap:butt;stroke-linejoin:miter;marker-start:none;marker-end:url(#Arrow2Mend);stroke-miterlimit:4;stroke-dasharray:none;stroke-dashoffset:0;stroke-opacity:1" />
  <path
     d="M 119.37687,438.71832 C 103.52278,459.0251 102.73476,474.67227 124.7711,491.88999"
     id="path14751"
     style="fill:none;stroke:#000000;stroke-width:3.2365365;stroke-linecap:butt;stroke-linejoin:miter;marker-end:url(#Arrow2Mend);stroke-miterlimit:4;stroke-dasharray:none;stroke-opacity:1" />
  <g
     id="text16234"
     style="font-size:24px;font-style:normal;font-variant:normal;font-weight:normal;font-stretch:normal;text-align:start;line-height:125%;text-anchor:start;fill:#000000;fill-opacity:1;stroke:none;font-family:Bitstream Vera Sans"
     transform="matrix(1.0788455,0,0,1.0788455,3.7862793,-4.764239)">
    <path
       d="M 124.25488,417.729 L 124.25488,400.54932 L 126.52831,400.54932 L 126.52831,407.604 L 135.458,407.604 L 135.458,400.54932 L 137.73144,400.54932 L 137.73144,417.729 L 135.458,417.729 L 135.458,409.63135 L 126.52831,409.63135 L 126.52831,417.729 L 124.25488,417.729 z "
       id="path4291" />
  </g>
  <path
     d="M 154.62924,426.11698 L 165.86174,426.11698"
     id="path16240"
     style="fill:none;stroke:#000000;stroke-width:2.26816797;stroke-linecap:butt;stroke-linejoin:miter;stroke-miterlimit:4;stroke-dasharray:none;stroke-opacity:1" />
  <path
     d="M 160.24548,420.50073 L 160.24548,431.73322"
     id="path16980"
     style="fill:none;stroke:#000000;stroke-width:2.26816797;stroke-linecap:butt;stroke-linejoin:miter;stroke-miterlimit:4;stroke-dasharray:none;stroke-opacity:1" />
  <g
     id="text16230"
     style="font-size:24px;font-style:normal;font-variant:normal;font-weight:normal;font-stretch:normal;text-align:start;line-height:125%;text-anchor:start;fill:#ff0000;fill-opacity:1;stroke:none;font-family:Bitstream Vera Sans"
     transform="matrix(1.0788455,0,0,1.0788455,3.7862793,-4.764239)">
    <path
       d="M 138.99438,474.15256 L 141.26781,474.72678 C 140.79124,476.59397 139.93382,478.01779 138.69555,478.99826 C 137.45726,479.97873 135.94358,480.46896 134.15453,480.46896 C 132.30296,480.46896 130.79711,480.09201 129.63696,479.3381 C 128.4768,478.5842 127.59398,477.4924 126.98852,476.06271 C 126.38305,474.63303 126.08031,473.09788 126.08031,471.45724 C 126.08031,469.66819 126.42211,468.10765 127.10571,466.7756 C 127.7893,465.44359 128.76195,464.43187 130.02367,463.74045 C 131.28539,463.04906 132.67406,462.70336 134.18969,462.70334 C 135.90843,462.70336 137.35374,463.14086 138.52563,464.01584 C 139.69749,464.89085 140.51389,466.12132 140.97485,467.70724 L 138.73656,468.23459 C 138.33811,466.9846 137.75999,466.07445 137.00219,465.50412 C 136.24437,464.93382 135.29124,464.64867 134.14281,464.64865 C 132.82249,464.64867 131.71898,464.96507 130.83227,465.59787 C 129.94554,466.2307 129.3225,467.0803 128.96313,468.1467 C 128.60375,469.21312 128.42406,470.31272 128.42406,471.44553 C 128.42406,472.90647 128.63695,474.18186 129.06274,475.2717 C 129.48851,476.36155 130.15062,477.176 131.04906,477.71506 C 131.9475,478.25412 132.92015,478.52365 133.96703,478.52365 C 135.24046,478.52365 136.31858,478.15647 137.20141,477.42209 C 138.08421,476.68772 138.68186,475.59787 138.99438,474.15256 L 138.99438,474.15256 z "
       id="path4496"
       style="fill:#ff0000" />
    <path
       d="M 143.38891,471.80881 C 143.38891,468.95726 144.15453,466.72484 145.68578,465.11154 C 147.21703,463.49828 149.19359,462.69164 151.61547,462.69162 C 153.2014,462.69164 154.63108,463.07054 155.90453,463.82834 C 157.17796,464.58617 158.14866,465.64281 158.81664,466.99826 C 159.48459,468.35374 159.81858,469.89085 159.8186,471.60959 C 159.81858,473.35178 159.46702,474.91038 158.76391,476.28537 C 158.06077,477.66037 157.06467,478.70139 155.77563,479.40842 C 154.48655,480.11545 153.09593,480.46896 151.60375,480.46896 C 149.98656,480.46896 148.54125,480.07834 147.26781,479.29709 C 145.99437,478.51584 145.02953,477.44944 144.37328,476.09787 C 143.71703,474.74631 143.38891,473.31663 143.38891,471.80881 L 143.38891,471.80881 z M 145.73266,471.84391 C 145.73265,473.91423 146.28929,475.54509 147.40258,476.73649 C 148.51586,477.9279 149.91234,478.5236 151.59203,478.5236 C 153.30296,478.5236 154.71116,477.92204 155.81664,476.71891 C 156.9221,475.51579 157.47483,473.80876 157.47485,471.59782 C 157.47483,470.19939 157.2385,468.97869 156.76586,467.93571 C 156.29319,466.89276 155.60179,466.08416 154.69164,465.50993 C 153.78147,464.93573 152.75999,464.64862 151.62719,464.6486 C 150.01781,464.64862 148.63304,465.20135 147.47289,466.3068 C 146.31273,467.41229 145.73265,469.25799 145.73266,471.84391 L 145.73266,471.84391 z "
       id="path4498"
       style="fill:#ff0000" />
  </g>
  <g
     id="text17031"
     style="font-size:18px;font-style:normal;font-variant:normal;font-weight:normal;font-stretch:normal;text-align:start;line-height:125%;text-anchor:start;fill:#ff0000;fill-opacity:1;stroke:none;font-family:Bitstream Vera Sans"
     transform="matrix(1.0788455,0,0,1.0788455,3.7862793,-4.764239)">
    <path
       d="M 168.13252,484.3595 L 168.13252,485.88 L 159.61592,485.88 C 159.60422,485.49915 159.66572,485.13294 159.80049,484.78137 C 160.01729,484.2013 160.36445,483.63001 160.842,483.0675 C 161.31953,482.50501 162.00947,481.85462 162.91182,481.11633 C 164.3122,479.9679 165.25849,479.05823 165.75069,478.38733 C 166.24287,477.71644 166.48896,477.08216 166.48897,476.4845 C 166.48896,475.85755 166.26484,475.32875 165.8166,474.89807 C 165.36836,474.46742 164.78388,474.25209 164.06319,474.25208 C 163.30146,474.25209 162.69209,474.4806 162.23506,474.93762 C 161.77803,475.39466 161.54658,476.02748 161.54073,476.83606 L 159.91475,476.66907 C 160.02608,475.45619 160.44502,474.53187 161.17159,473.89612 C 161.89814,473.26039 162.87373,472.94252 164.09834,472.9425 C 165.33466,472.94252 166.31318,473.28529 167.03389,473.97083 C 167.75458,474.65638 168.11494,475.50599 168.11494,476.51965 C 168.11494,477.03529 168.00947,477.54212 167.79854,478.04016 C 167.58759,478.53822 167.23749,479.06263 166.74825,479.6134 C 166.25898,480.16419 165.44599,480.92005 164.30928,481.88098 C 163.36006,482.67786 162.75068,483.21839 162.48116,483.50256 C 162.21162,483.78675 161.98896,484.07239 161.81319,484.3595 L 168.13252,484.3595 z "
       id="path4501"
       style="fill:#ff0000" />
  </g>
  <g
     id="text3608"
     style="font-size:28px;font-style:normal;font-variant:normal;font-weight:normal;font-stretch:normal;text-align:start;line-height:125%;text-anchor:start;fill:#000000;fill-opacity:1;stroke:none;font-family:Bitstream Vera Sans"
     transform="matrix(1.0788455,0,0,1.0788455,3.7862793,-4.764239)">
    <path
       d="M 121.62317,541.17804 C 121.62317,537.85123 122.5164,535.24674 124.30286,533.36456 C 126.08931,531.48242 128.3953,530.54134 131.22083,530.54132 C 133.07107,530.54134 134.73904,530.9834 136.22473,531.86749 C 137.71039,532.75163 138.84288,533.98437 139.62219,535.56573 C 140.40147,537.14713 140.79112,538.94042 140.79114,540.94562 C 140.79112,542.97818 140.38096,544.79654 139.56067,546.4007 C 138.74034,548.00487 137.57823,549.21938 136.07434,550.04425 C 134.57042,550.86912 132.94803,551.28155 131.20715,551.28156 C 129.32043,551.28155 127.63423,550.82583 126.14856,549.91437 C 124.66288,549.00291 123.53723,547.75877 122.77161,546.18195 C 122.00598,544.60513 121.62317,542.93716 121.62317,541.17804 L 121.62317,541.17804 z M 124.35754,541.21904 C 124.35754,543.63441 125.00695,545.53707 126.30579,546.92704 C 127.60461,548.31702 129.23384,549.01201 131.19348,549.012 C 133.18956,549.01201 134.83246,548.31018 136.12219,546.90654 C 137.41189,545.50289 138.05674,543.51136 138.05676,540.93193 C 138.05674,539.30043 137.78103,537.87627 137.22961,536.65946 C 136.67817,535.44268 135.87153,534.49933 134.80969,533.82939 C 133.74783,533.15948 132.5561,532.82452 131.2345,532.8245 C 129.35688,532.82452 127.74133,533.46938 126.38782,534.75907 C 125.0343,536.0488 124.35754,538.20212 124.35754,541.21904 L 124.35754,541.21904 z "
       id="path4288" />
  </g>
  <g
     id="text17041"
     style="font-size:28px;font-style:normal;font-variant:normal;font-weight:normal;font-stretch:normal;text-align:start;line-height:125%;text-anchor:start;fill:#000000;fill-opacity:1;stroke:none;font-family:Bitstream Vera Sans"
     transform="matrix(1.0788455,0,0,1.0788455,3.7862793,-4.764239)">
    <path
       d="M 50.262657,546.96765 L 50.262657,526.92468 L 52.915001,526.92468 L 52.915001,535.15515 L 63.33297,535.15515 L 63.33297,526.92468 L 65.985313,526.92468 L 65.985313,546.96765 L 63.33297,546.96765 L 63.33297,537.52039 L 52.915001,537.52039 L 52.915001,546.96765 L 50.262657,546.96765 z "
       id="path4285" />
  </g>
  <g
     id="text17071"
     style="font-size:28px;font-style:normal;font-variant:normal;font-weight:normal;font-stretch:normal;text-align:start;line-height:125%;text-anchor:start;fill:#000000;fill-opacity:1;stroke:none;font-family:Bitstream Vera Sans"
     transform="matrix(1.0788455,0,0,1.0788455,3.7862793,-4.764239)">
    <path
       d="M 98.030769,617.57666 L 100.68311,618.24658 C 100.1271,620.42497 99.12678,622.0861 97.682137,623.22998 C 96.23746,624.37386 94.471512,624.9458 92.384285,624.9458 C 90.22412,624.9458 88.467286,624.50602 87.113777,623.62646 C 85.760257,622.74691 84.73031,621.47315 84.023933,619.80518 C 83.317551,618.13721 82.964362,616.3462 82.964363,614.43213 C 82.964362,612.3449 83.363124,610.52427 84.160652,608.97021 C 84.958175,607.4162 86.092939,606.23586 87.564949,605.4292 C 89.036947,604.62258 90.657062,604.21926 92.425301,604.21924 C 94.430496,604.21926 96.116692,604.72967 97.483894,605.75049 C 98.851065,606.77134 99.803538,608.20688 100.34132,610.05713 L 97.729988,610.67236 C 97.265129,609.21405 96.59065,608.1522 95.706551,607.48682 C 94.822423,606.82147 93.710445,606.48879 92.370613,606.48877 C 90.830239,606.48879 89.542806,606.85793 88.508308,607.59619 C 87.473797,608.33449 86.74691,609.3257 86.327644,610.56982 C 85.908369,611.81398 85.698734,613.09685 85.698738,614.41846 C 85.698734,616.12289 85.947106,617.61085 86.443855,618.88232 C 86.940595,620.15381 87.713055,621.10401 88.761238,621.73291 C 89.809407,622.36182 90.944171,622.67627 92.165535,622.67627 C 93.6512,622.67627 94.909011,622.24789 95.938972,621.39111 C 96.968905,620.53435 97.66617,619.26286 98.030769,617.57666 L 98.030769,617.57666 z "
       id="path4488" />
    <path
       d="M 104.04639,624.604 L 104.04639,604.56104 L 106.69874,604.56104 L 106.69874,612.7915 L 117.11671,612.7915 L 117.11671,604.56104 L 119.76905,604.56104 L 119.76905,624.604 L 117.11671,624.604 L 117.11671,615.15674 L 106.69874,615.15674 L 106.69874,624.604 L 104.04639,624.604 z "
       id="path4490" />
  </g>
  <g
     id="text17075"
     style="font-size:20px;font-style:normal;font-variant:normal;font-weight:normal;font-stretch:normal;text-align:start;line-height:125%;text-anchor:start;fill:#000000;fill-opacity:1;stroke:none;font-family:Bitstream Vera Sans"
     transform="matrix(1.0788455,0,0,1.0788455,3.7862793,-4.764239)">
    <path
       d="M 122.31107,626.10767 L 124.06889,625.87329 C 124.27071,626.86939 124.61413,627.58716 125.09916,628.02661 C 125.58418,628.46607 126.175,628.68579 126.87162,628.68579 C 127.69844,628.68579 128.39668,628.39933 128.96635,627.82642 C 129.536,627.2535 129.82083,626.54387 129.82084,625.69751 C 129.82083,624.89022 129.55716,624.22453 129.02982,623.70044 C 128.50247,623.17636 127.8319,622.91431 127.0181,622.91431 C 126.68607,622.91431 126.27266,622.97941 125.77787,623.10962 L 125.97318,621.56665 C 126.09037,621.57965 126.18477,621.58615 126.25639,621.58615 C 127.00508,621.58616 127.67891,621.39085 128.27787,621.00021 C 128.87682,620.6096 129.1763,620.00739 129.17631,619.19357 C 129.1763,618.54905 128.9582,618.0152 128.52201,617.59201 C 128.08581,617.16885 127.52266,616.95726 126.83256,616.95725 C 126.14896,616.95726 125.5793,617.1721 125.12357,617.60178 C 124.66784,618.03148 124.37487,618.67601 124.24467,619.53537 L 122.48685,619.22287 C 122.7017,618.0445 123.18998,617.13141 123.9517,616.48361 C 124.71341,615.83584 125.66068,615.51195 126.7935,615.51193 C 127.57474,615.51195 128.29414,615.67959 128.9517,616.01486 C 129.60924,616.35016 130.11217,616.80752 130.46049,617.38693 C 130.80879,617.96637 130.98294,618.58161 130.98295,619.23264 C 130.98294,619.85114 130.81692,620.41429 130.4849,620.92209 C 130.15286,621.42991 129.66133,621.83356 129.01029,622.13303 C 129.85664,622.32835 130.51419,622.73362 130.98295,623.34885 C 131.45169,623.96409 131.68606,624.73394 131.68607,625.65842 C 131.68606,626.90842 131.23033,627.96799 130.31889,628.83713 C 129.40742,629.70627 128.25508,630.14084 126.86185,630.14084 C 125.60534,630.14084 124.56205,629.76649 123.73197,629.01779 C 122.90189,628.2691 122.42826,627.29904 122.31107,626.10764 L 122.31107,626.10767 z "
       id="path4493" />
  </g>
  <path
     d="M 79.799727,581.35266 L 103.2304,605.05578 L 103.50284,642.10893"
     id="path17079"
     style="fill:none;stroke:#000000;stroke-width:2.157691;stroke-linecap:butt;stroke-linejoin:miter;stroke-miterlimit:4;stroke-dasharray:none;stroke-opacity:1" />
  <path
     d="M 100.09722,601.92261 L 127.88709,584.21338"
     id="path17081"
     style="fill:none;stroke:#000000;stroke-width:2.157691;stroke-linecap:butt;stroke-linejoin:miter;stroke-miterlimit:4;stroke-dasharray:none;stroke-opacity:1" />
  <path
     d="M 132.47713,591.87585 L 103.57949,609.59974"
     id="path17083"
     style="fill:none;stroke:#000000;stroke-width:2.157691;stroke-linecap:butt;stroke-linejoin:miter;stroke-miterlimit:4;stroke-dasharray:none;stroke-opacity:1" />
  <path
     d="M 109.16636,760.44546 L 109.16636,897.80561 L 117.64301,875.65075 L 111.86348,877.96257 L 111.47818,760.44546 L 109.16636,760.44546 z "
     id="path19311"
     style="fill:#000000;fill-opacity:1;fill-rule:evenodd;stroke:none" />
  <path
     d="M 98.223784,897.8056 L 98.223784,760.44546 L 89.747143,782.60032 L 95.52667,780.2885 L 95.911969,897.8056 L 98.223784,897.8056 z "
     id="path20053"
     style="fill:#000000;fill-opacity:1;fill-rule:evenodd;stroke:none" />
  <path
     d="M 123.69225,803.3681 C 107.83816,823.67488 107.05014,839.32205 129.08648,856.53977"
     id="path20056"
     style="fill:none;stroke:#000000;stroke-width:3.2365365;stroke-linecap:butt;stroke-linejoin:miter;marker-end:url(#Arrow2Mend);stroke-miterlimit:4;stroke-dasharray:none;stroke-opacity:1" />
  <g
     id="text20114"
     style="font-size:24px;font-style:normal;font-variant:normal;font-weight:normal;font-stretch:normal;text-align:start;line-height:125%;text-anchor:start;fill:#000000;fill-opacity:1;stroke:none;font-family:Bitstream Vera Sans"
     transform="matrix(1.0788455,0,0,1.0788455,3.7862793,-4.764239)">
    <path
       d="M 130.73213,816.729 L 130.73213,799.54932 L 133.06416,799.54932 L 142.0876,813.0376 L 142.0876,799.54932 L 144.26729,799.54932 L 144.26729,816.729 L 141.93526,816.729 L 132.91182,803.229 L 132.91182,816.729 L 130.73213,816.729 z "
       id="path4278" />
    <path
       d="M 146.2126,816.729 L 152.81026,799.54932 L 155.25948,799.54932 L 162.29073,816.729 L 159.70088,816.729 L 157.69698,811.52588 L 150.51338,811.52588 L 148.62666,816.729 L 146.2126,816.729 z M 151.16963,809.67432 L 156.99385,809.67432 L 155.20088,804.9165 C 154.654,803.4712 154.24775,802.28371 153.98213,801.354 C 153.76337,802.45558 153.45478,803.54933 153.05635,804.63525 L 151.16963,809.67432 z "
       id="path4280" />
    <path
       d="M 164.13057,816.729 L 164.13057,799.54932 L 170.04854,799.54932 C 171.38447,799.54933 172.404,799.63132 173.10713,799.79541 C 174.0915,800.02199 174.93134,800.43215 175.62666,801.02588 C 176.5329,801.79152 177.21063,802.77003 177.65987,803.96143 C 178.10907,805.15284 178.33368,806.51417 178.33369,808.04541 C 178.33368,809.35011 178.18133,810.50635 177.87666,811.51416 C 177.57196,812.52198 177.18134,813.35596 176.70479,814.01611 C 176.22821,814.67627 175.70673,815.1958 175.14034,815.57471 C 174.57392,815.95361 173.89032,816.24072 173.08955,816.43604 C 172.28876,816.63135 171.36884,816.729 170.32979,816.729 L 164.13057,816.729 z M 166.40401,814.70166 L 170.07198,814.70166 C 171.20478,814.70166 172.09345,814.59619 172.73799,814.38525 C 173.38251,814.17432 173.89618,813.87744 174.27901,813.49463 C 174.81806,812.95557 175.23798,812.23096 175.53877,811.3208 C 175.83954,810.41065 175.98993,809.30714 175.98994,808.01025 C 175.98993,806.21339 175.69501,804.83253 175.10518,803.86768 C 174.51532,802.90285 173.79853,802.25636 172.95479,801.92822 C 172.3454,801.69386 171.36494,801.57668 170.01338,801.57666 L 166.40401,801.57666 L 166.40401,814.70166 z "
       id="path4282" />
  </g>
  <g
     id="text20082"
     style="font-size:24px;font-style:normal;font-variant:normal;font-weight:normal;font-stretch:normal;text-align:start;line-height:125%;text-anchor:start;fill:#d45500;fill-opacity:1;stroke:none;font-family:Bitstream Vera Sans"
     transform="matrix(1.0788455,0,0,1.0788455,3.7862793,-4.764239)">
    <path
       d="M 206.61188,751.729 L 206.61188,734.54932 L 208.88531,734.54932 L 208.88531,741.604 L 217.815,741.604 L 217.815,734.54932 L 220.08844,734.54932 L 220.08844,751.729 L 217.815,751.729 L 217.815,743.63135 L 208.88531,743.63135 L 208.88531,751.729 L 206.61188,751.729 z "
       id="path4275"
       style="fill:#d45500" />
  </g>
  <g
     id="text20110"
     style="font-size:24px;font-style:normal;font-variant:normal;font-weight:normal;font-stretch:normal;text-align:start;line-height:125%;text-anchor:start;fill:#000000;fill-opacity:1;stroke:none;font-family:Bitstream Vera Sans"
     transform="matrix(1.0788455,0,0,1.0788455,3.7862793,-4.764239)">
    <path
       d="M 122.16113,751.729 L 122.16113,734.54932 L 124.49316,734.54932 L 133.51659,748.0376 L 133.51659,734.54932 L 135.69628,734.54932 L 135.69628,751.729 L 133.36425,751.729 L 124.34081,738.229 L 124.34081,751.729 L 122.16113,751.729 z "
       id="path4268" />
    <path
       d="M 137.64159,751.729 L 144.23925,734.54932 L 146.68847,734.54932 L 153.71972,751.729 L 151.12988,751.729 L 149.12597,746.52588 L 141.94238,746.52588 L 140.05566,751.729 L 137.64159,751.729 z M 142.59863,744.67432 L 148.42284,744.67432 L 146.62988,739.9165 C 146.08299,738.4712 145.67674,737.28371 145.41113,736.354 C 145.19237,737.45558 144.88377,738.54933 144.48534,739.63525 L 142.59863,744.67432 z "
       id="path4270" />
    <path
       d="M 155.55956,751.729 L 155.55956,734.54932 L 161.47753,734.54932 C 162.81346,734.54933 163.83299,734.63132 164.53613,734.79541 C 165.52049,735.02199 166.36033,735.43215 167.05566,736.02588 C 167.96189,736.79152 168.63963,737.77003 169.08886,738.96143 C 169.53806,740.15284 169.76267,741.51417 169.76269,743.04541 C 169.76267,744.35011 169.61033,745.50635 169.30566,746.51416 C 169.00095,747.52198 168.61033,748.35596 168.13378,749.01611 C 167.6572,749.67627 167.13572,750.1958 166.56933,750.57471 C 166.00291,750.95361 165.31932,751.24072 164.51855,751.43604 C 163.71776,751.63135 162.79783,751.729 161.75878,751.729 L 155.55956,751.729 z M 157.833,749.70166 L 161.50097,749.70166 C 162.63377,749.70166 163.52244,749.59619 164.16698,749.38525 C 164.8115,749.17432 165.32518,748.87744 165.708,748.49463 C 166.24705,747.95557 166.66697,747.23096 166.96777,746.3208 C 167.26853,745.41065 167.41892,744.30714 167.41894,743.01025 C 167.41892,741.21339 167.124,739.83253 166.53417,738.86768 C 165.94432,737.90285 165.22752,737.25636 164.38378,736.92822 C 163.7744,736.69386 162.79393,736.57668 161.44238,736.57666 L 157.833,736.57666 L 157.833,749.70166 z "
       id="path4272" />
  </g>
  <g
     id="text20126"
     style="font-size:24px;font-style:normal;font-variant:normal;font-weight:normal;font-stretch:normal;text-align:start;line-height:125%;text-anchor:start;fill:#217821;fill-opacity:1;stroke:none;font-family:Bitstream Vera Sans"
     transform="matrix(1.0788455,0,0,1.0788455,3.7862793,-4.764239)">
    <path
       d="M 175.18387,752.086 L 175.18387,734.90631 L 177.45731,734.90631 L 177.45731,741.961 L 186.38699,741.961 L 186.38699,734.90631 L 188.66043,734.90631 L 188.66043,752.086 L 186.38699,752.086 L 186.38699,743.98834 L 177.45731,743.98834 L 177.45731,752.086 L 175.18387,752.086 z "
       id="path4265"
       style="fill:#217821" />
  </g>
  <g
     id="text21606"
     style="font-size:20.76880074px;font-style:normal;font-variant:normal;font-weight:normal;font-stretch:normal;text-align:start;line-height:125%;text-anchor:start;fill:#000000;fill-opacity:1;stroke:none;font-family:Bitstream Vera Sans"
     transform="matrix(1.0788455,0,0,1.0788455,3.7862793,-4.764239)">
    <path
       d="M 194.38334,747.55257 L 194.38334,743.47588 L 190.33708,743.47588 L 190.33708,741.77219 L 194.38334,741.77219 L 194.38334,737.72593 L 196.10731,737.72593 L 196.10731,741.77219 L 200.15358,741.77219 L 200.15358,743.47588 L 196.10731,743.47588 L 196.10731,747.55257 L 194.38334,747.55257 z "
       id="path4262" />
  </g>
  <g
     id="text3612"
     style="font-size:28px;font-style:normal;font-variant:normal;font-weight:normal;font-stretch:normal;text-align:start;line-height:125%;text-anchor:start;fill:#000000;fill-opacity:1;stroke:none;font-family:Bitstream Vera Sans"
     transform="matrix(1.0788455,0,0,1.0788455,3.7862793,-4.764239)">
    <path
       d="M 122.81698,887.57599 C 122.81698,884.24918 123.71021,881.64469 125.49667,879.76251 C 127.28312,877.88037 129.58911,876.93929 132.41463,876.93927 C 134.26488,876.93929 135.93285,877.38135 137.41854,878.26544 C 138.9042,879.14957 140.03669,880.38232 140.816,881.96368 C 141.59528,883.54508 141.98493,885.33837 141.98495,887.34357 C 141.98493,889.37613 141.57477,891.19448 140.75448,892.79865 C 139.93415,894.40281 138.77204,895.61733 137.26815,896.4422 C 135.76423,897.26707 134.14184,897.6795 132.40096,897.6795 C 130.51424,897.6795 128.82804,897.22378 127.34237,896.31232 C 125.85669,895.40086 124.73104,894.15672 123.96542,892.5799 C 123.19979,891.00308 122.81698,889.33511 122.81698,887.57599 L 122.81698,887.57599 z M 125.55135,887.61699 C 125.55135,890.03237 126.20076,891.93503 127.4996,893.325 C 128.79842,894.71498 130.42765,895.40997 132.38729,895.40996 C 134.38337,895.40997 136.02627,894.70814 137.316,893.30449 C 138.6057,891.90085 139.25055,889.90932 139.25057,887.32989 C 139.25055,885.69839 138.97484,884.27423 138.42342,883.05742 C 137.87198,881.84064 137.06534,880.89728 136.0035,880.22735 C 134.94164,879.55744 133.74991,879.22248 132.42831,879.22246 C 130.55069,879.22248 128.93514,879.86734 127.58163,881.15703 C 126.22811,882.44676 125.55135,884.60008 125.55135,887.61699 L 125.55135,887.61699 z "
       id="path4259" />
  </g>
  <g
     id="text22354"
     style="font-size:28px;font-style:normal;font-variant:normal;font-weight:normal;font-stretch:normal;text-align:start;line-height:125%;text-anchor:start;fill:#217821;fill-opacity:1;stroke:none;font-family:Bitstream Vera Sans"
     transform="matrix(1.0788455,0,0,1.0788455,3.7862793,-4.764239)">
    <path
       d="M 39.075287,934.229 L 39.075287,914.18604 L 41.727631,914.18604 L 41.727631,922.4165 L 52.145599,922.4165 L 52.145599,914.18604 L 54.797943,914.18604 L 54.797943,934.229 L 52.145599,934.229 L 52.145599,924.78174 L 41.727631,924.78174 L 41.727631,934.229 L 39.075287,934.229 z "
       id="path4256"
       style="fill:#217821" />
  </g>
  <g
     id="text22358"
     style="font-size:28px;font-style:normal;font-variant:normal;font-weight:normal;font-stretch:normal;text-align:start;line-height:125%;text-anchor:start;fill:#000000;fill-opacity:1;stroke:none;font-family:Bitstream Vera Sans"
     transform="matrix(1.0788455,0,0,1.0788455,3.7862793,-4.764239)">
    <path
       d="M 51.466789,885.72302 L 51.466789,865.68005 L 54.119133,865.68005 L 54.119133,873.91052 L 64.537102,873.91052 L 64.537102,865.68005 L 67.189445,865.68005 L 67.189445,885.72302 L 64.537102,885.72302 L 64.537102,876.27576 L 54.119133,876.27576 L 54.119133,885.72302 L 51.466789,885.72302 z "
       id="path4253" />
  </g>
  <g
     id="text22372"
     style="font-size:28px;font-style:normal;font-variant:normal;font-weight:normal;font-stretch:normal;text-align:start;line-height:125%;text-anchor:start;fill:#000000;fill-opacity:1;stroke:none;font-family:Bitstream Vera Sans"
     transform="matrix(1.0788455,0,0,1.0788455,3.7862793,-4.764239)">
    <path
       d="M 100.03077,965.57666 L 102.68311,966.24658 C 102.1271,968.42497 101.12678,970.0861 99.682137,971.22998 C 98.23746,972.37386 96.471512,972.9458 94.384285,972.9458 C 92.22412,972.9458 90.467286,972.50602 89.113777,971.62646 C 87.760257,970.74691 86.73031,969.47315 86.023933,967.80518 C 85.317551,966.13721 84.964362,964.3462 84.964363,962.43213 C 84.964362,960.3449 85.363124,958.52427 86.160652,956.97021 C 86.958175,955.4162 88.092939,954.23586 89.564949,953.4292 C 91.036947,952.62258 92.657062,952.21926 94.425301,952.21924 C 96.430496,952.21926 98.116692,952.72967 99.483894,953.75049 C 100.85106,954.77134 101.80354,956.20688 102.34132,958.05713 L 99.729988,958.67236 C 99.265129,957.21405 98.59065,956.1522 97.706551,955.48682 C 96.822423,954.82147 95.710445,954.48879 94.370613,954.48877 C 92.830239,954.48879 91.542806,954.85793 90.508308,955.59619 C 89.473797,956.33449 88.74691,957.3257 88.327644,958.56982 C 87.908369,959.81398 87.698734,961.09685 87.698738,962.41846 C 87.698734,964.12289 87.947106,965.61085 88.443855,966.88232 C 88.940595,968.15381 89.713055,969.10401 90.761238,969.73291 C 91.809407,970.36182 92.944171,970.67627 94.165535,970.67627 C 95.6512,970.67627 96.909011,970.24789 97.938972,969.39111 C 98.968905,968.53435 99.66617,967.26286 100.03077,965.57666 L 100.03077,965.57666 z "
       id="path4480" />
    <path
       d="M 106.04639,972.604 L 106.04639,952.56104 L 108.69874,952.56104 L 108.69874,960.7915 L 119.11671,960.7915 L 119.11671,952.56104 L 121.76905,952.56104 L 121.76905,972.604 L 119.11671,972.604 L 119.11671,963.15674 L 108.69874,963.15674 L 108.69874,972.604 L 106.04639,972.604 z "
       id="path4482" />
  </g>
  <g
     id="text22376"
     style="font-size:20px;font-style:normal;font-variant:normal;font-weight:normal;font-stretch:normal;text-align:start;line-height:125%;text-anchor:start;fill:#000000;fill-opacity:1;stroke:none;font-family:Bitstream Vera Sans"
     transform="matrix(1.0788455,0,0,1.0788455,3.7862793,-4.764239)">
    <path
       d="M 124.31107,974.10767 L 126.06889,973.87329 C 126.27071,974.86939 126.61413,975.58716 127.09916,976.02661 C 127.58418,976.46607 128.175,976.68579 128.87162,976.68579 C 129.69844,976.68579 130.39668,976.39933 130.96635,975.82642 C 131.536,975.2535 131.82083,974.54387 131.82084,973.69751 C 131.82083,972.89022 131.55716,972.22453 131.02982,971.70044 C 130.50247,971.17636 129.8319,970.91431 129.0181,970.91431 C 128.68607,970.91431 128.27266,970.97941 127.77787,971.10962 L 127.97318,969.56665 C 128.09037,969.57965 128.18477,969.58615 128.25639,969.58615 C 129.00508,969.58616 129.67891,969.39085 130.27787,969.00021 C 130.87682,968.6096 131.1763,968.00739 131.17631,967.19357 C 131.1763,966.54905 130.9582,966.0152 130.52201,965.59201 C 130.08581,965.16885 129.52266,964.95726 128.83256,964.95725 C 128.14896,964.95726 127.5793,965.1721 127.12357,965.60178 C 126.66784,966.03148 126.37487,966.67601 126.24467,967.53537 L 124.48685,967.22287 C 124.7017,966.0445 125.18998,965.13141 125.9517,964.48361 C 126.71341,963.83584 127.66068,963.51195 128.7935,963.51193 C 129.57474,963.51195 130.29414,963.67959 130.9517,964.01486 C 131.60924,964.35016 132.11217,964.80752 132.46049,965.38693 C 132.80879,965.96637 132.98294,966.58161 132.98295,967.23264 C 132.98294,967.85114 132.81692,968.41429 132.4849,968.92209 C 132.15286,969.42991 131.66133,969.83356 131.01029,970.13303 C 131.85664,970.32835 132.51419,970.73362 132.98295,971.34885 C 133.45169,971.96409 133.68606,972.73394 133.68607,973.65842 C 133.68606,974.90842 133.23033,975.96799 132.31889,976.83713 C 131.40742,977.70627 130.25508,978.14084 128.86185,978.14084 C 127.60534,978.14084 126.56205,977.76649 125.73197,977.01779 C 124.90189,976.2691 124.42826,975.29904 124.31107,974.10764 L 124.31107,974.10767 z "
       id="path4485" />
  </g>
  <path
     d="M 81.161975,954.33621 L 104.86509,979.12912 L 104.86509,1015.6374"
     id="path22381"
     style="fill:none;stroke:#000000;stroke-width:2.157691;stroke-linecap:butt;stroke-linejoin:miter;stroke-miterlimit:4;stroke-dasharray:none;stroke-opacity:1" />
  <path
     d="M 71.081339,988.93731 L 104.86509,979.12912 L 132.11005,962.23725"
     id="path22383"
     style="fill:none;stroke:#000000;stroke-width:2.157691;stroke-linecap:butt;stroke-linejoin:miter;stroke-miterlimit:4;stroke-dasharray:none;stroke-opacity:1" />
  <path
     d="M 105.506,533.77231 L 97.799958,513.15866 C 102.80888,517.01168 107.43251,517.01168 113.01939,513.15866 L 105.506,533.77231 z "
     id="path26465"
     style="fill:#000000;fill-opacity:1;fill-rule:evenodd;stroke:#000000;stroke-width:1.0788455px;stroke-linecap:butt;stroke-linejoin:miter;stroke-opacity:1" />
  <path
     d="M 135.21589,500.25109 L 114.38358,493.15741 C 120.53778,491.72192 123.46642,488.14405 124.02361,481.3803 L 135.21589,500.25109 L 135.21589,500.25109 z "
     id="path26467"
     style="fill:#000000;fill-opacity:1;fill-rule:evenodd;stroke:#000000;stroke-width:1.0788455px;stroke-linecap:butt;stroke-linejoin:miter;stroke-opacity:1" />
  <path
     d="M 139.26156,864.55409 L 118.42925,857.46041 C 124.58346,856.02492 127.51209,852.44706 128.06928,845.6833 L 139.26156,864.55409 L 139.26156,864.55409 z "
     id="path26471"
     style="fill:#000000;fill-opacity:1;fill-rule:evenodd;stroke:#000000;stroke-width:1.0788455px;stroke-linecap:butt;stroke-linejoin:miter;stroke-opacity:1" />
  <g
     id="text22350"
     style="font-size:28px;font-style:normal;font-variant:normal;font-weight:normal;font-stretch:normal;text-align:start;line-height:125%;text-anchor:start;fill:#aa4400;fill-opacity:1;stroke:none;font-family:Bitstream Vera Sans"
     transform="matrix(1.0788455,0,0,1.0788455,3.7862793,-4.764239)">
    <path
       d="M 145.36066,897.29071 L 145.36066,877.24774 L 148.013,877.24774 L 148.013,885.47821 L 158.43097,885.47821 L 158.43097,877.24774 L 161.08331,877.24774 L 161.08331,897.29071 L 158.43097,897.29071 L 158.43097,887.84344 L 148.013,887.84344 L 148.013,897.29071 L 145.36066,897.29071 z "
       id="path4250"
       style="fill:#aa4400" />
  </g>
  <path
     d="M 244.59409,788.18682 L 255.82659,788.18682"
     id="path16240-9"
     style="fill:none;stroke:#000000;stroke-width:2.26816797;stroke-linecap:butt;stroke-linejoin:miter;stroke-miterlimit:4;stroke-dasharray:none;stroke-opacity:1" />
  <path
     d="M 250.21033,782.57057 L 250.21033,793.80306"
     id="path16980-4"
     style="fill:none;stroke:#000000;stroke-width:2.26816797;stroke-linecap:butt;stroke-linejoin:miter;stroke-miterlimit:4;stroke-dasharray:none;stroke-opacity:1" />
  <path
     d="M 198.65789,859.02299 L 209.89039,859.02299"
     id="path16240-2"
     style="fill:none;stroke:#000000;stroke-width:2.26816797;stroke-linecap:butt;stroke-linejoin:miter;stroke-miterlimit:4;stroke-dasharray:none;stroke-opacity:1" />
  <path
     d="M 204.27414,853.40675 L 204.27414,864.63923"
     id="path16980-45"
     style="fill:none;stroke:#000000;stroke-width:2.26816797;stroke-linecap:butt;stroke-linejoin:miter;stroke-miterlimit:4;stroke-dasharray:none;stroke-opacity:1" />
  <path
     d="M 103.29052,139.04185 L 103.72369,181.35445"
     id="path9448-4-7"
     style="fill:none;stroke:#000000;stroke-width:3.2365365;stroke-linecap:butt;stroke-linejoin:miter;marker-start:none;marker-end:url(#Arrow2Mend);stroke-miterlimit:4;stroke-dasharray:none;stroke-dashoffset:0;stroke-opacity:1" />
  <path
     d="M 102.82611,95.421718 L 103.25928,137.73432"
     id="path9448-4-7-8"
     style="fill:none;stroke:#000000;stroke-width:3.2365365;stroke-linecap:butt;stroke-linejoin:miter;marker-start:none;marker-end:url(#Arrow2Mend);stroke-miterlimit:4;stroke-dasharray:none;stroke-dashoffset:0;stroke-opacity:1" />
  <path
     d="M 102.41522,49.901988 L 102.84839,92.214591"
     id="path9448-4-7-1"
     style="fill:none;stroke:#000000;stroke-width:3.2365365;stroke-linecap:butt;stroke-linejoin:miter;marker-start:none;marker-end:url(#Arrow2Mend);stroke-miterlimit:4;stroke-dasharray:none;stroke-dashoffset:0;stroke-opacity:1" />
  <text
     xml:space="preserve"
     style="font-size:32px;font-style:normal;font-variant:normal;font-weight:normal;font-stretch:normal;text-align:center;line-height:100%;writing-mode:lr-tb;text-anchor:middle;fill:#0031ac;fill-opacity:1;stroke:none;stroke-width:1px;stroke-linecap:butt;stroke-linejoin:miter;stroke-opacity:1;font-family:Arial"
     x="351.52579"
     y="123.15794"
     id="text2687"
     sodipodi:linespacing="100%"><tspan
       sodipodi:role="line"
       id="tspan2689"
       x="351.52579"
       y="123.15794">Glycolyse</tspan></text>
  <text
     xml:space="preserve"
     style="font-size:32px;font-style:normal;font-variant:normal;font-weight:normal;font-stretch:normal;text-align:center;line-height:100%;writing-mode:lr-tb;text-anchor:middle;fill:#0030ac;fill-opacity:1;stroke:none;stroke-width:1px;stroke-linecap:butt;stroke-linejoin:miter;stroke-opacity:1;font-family:Arial"
     x="373.76089"
     y="467.27206"
     id="text3666"
     sodipodi:linespacing="100%"><tspan
       sodipodi:role="line"
       id="tspan3668"
       x="378.19839"
       y="467.27206">Dcarboxylase </tspan><tspan
       sodipodi:role="line"
       x="373.76089"
       y="499.27206"
       id="tspan3670">du pyruvate</tspan></text>
  <text
     xml:space="preserve"
     style="font-size:32px;font-style:normal;font-variant:normal;font-weight:normal;font-stretch:normal;text-align:center;line-height:100%;writing-mode:lr-tb;text-anchor:middle;fill:#000000;fill-opacity:1;stroke:none;stroke-width:1px;stroke-linecap:butt;stroke-linejoin:miter;stroke-opacity:1;font-family:Arial"
     x="104.82246"
     y="394.21399"
     id="text3672"
     sodipodi:linespacing="100%"><tspan
       sodipodi:role="line"
       id="tspan3674"
       x="104.82246"
       y="394.21399">Pyruvate</tspan></text>
  <text
     xml:space="preserve"
     style="font-size:32px;font-style:normal;font-variant:normal;font-weight:normal;font-stretch:normal;text-align:center;line-height:100%;writing-mode:lr-tb;text-anchor:middle;fill:#000000;fill-opacity:1;stroke:none;stroke-width:1px;stroke-linecap:butt;stroke-linejoin:miter;stroke-opacity:1;font-family:Arial"
     x="130.23396"
     y="724.5636"
     id="text3676"
     sodipodi:linespacing="100%"><tspan
       sodipodi:role="line"
       id="tspan3678"
       x="130.23396"
       y="724.5636">Actaldhyde</tspan></text>
  <text
     xml:space="preserve"
     style="font-size:32px;font-style:normal;font-variant:normal;font-weight:normal;font-stretch:normal;text-align:center;line-height:100%;writing-mode:lr-tb;text-anchor:middle;fill:#0030ac;fill-opacity:1;stroke:none;stroke-width:1px;stroke-linecap:butt;stroke-linejoin:miter;stroke-opacity:1;font-family:Arial"
     x="376.93732"
     y="794.44519"
     id="text3680"
     sodipodi:linespacing="100%"><tspan
       sodipodi:role="line"
       id="tspan3682"
       x="376.93732"
       y="794.44519" /><tspan
       sodipodi:role="line"
       x="381.37482"
       y="826.44519"
       id="tspan3684">Alcool </tspan><tspan
       sodipodi:role="line"
       x="376.93732"
       y="858.44519"
       id="tspan3686">dshydrognase</tspan></text>
  <text
     xml:space="preserve"
     style="font-size:32px;font-style:normal;font-variant:normal;font-weight:normal;font-stretch:normal;text-align:center;line-height:100%;writing-mode:lr-tb;text-anchor:middle;fill:#000000;fill-opacity:1;stroke:none;stroke-width:1px;stroke-linecap:butt;stroke-linejoin:miter;stroke-opacity:1;font-family:Arial"
     x="106.94008"
     y="1098.3245"
     id="text3688"
     sodipodi:linespacing="100%"><tspan
       sodipodi:role="line"
       id="tspan3690"
       x="106.94008"
       y="1098.3245">thanol</tspan></text>
</svg>
