<?xml version="1.0" encoding="UTF-8"?>
<svg viewBox="0,0,690.944882,566.929134" height="566.929134" width="690.944882" xmlns="http://www.w3.org/2000/svg">
 <path d="m79.1 531.6v1.25l248.77.0385v-1.25z"/>
 <path d="m79.096 532.23 2.5 2.5-8.75-2.5 8.75-2.5z" fill-rule="evenodd" stroke="#000" stroke-width=".4pt"/>
 <path d="m70.863 513.26v35.433" stroke="#000" stroke-linejoin="round" stroke-miterlimit="8.6" stroke-width="1.25"/>
 <path d="m495.17 157.76-.9639.7716c22.192 35.992 33.084 72.885 34.532 116.77l1.1907-.0643c-1.455-44.109-12.454-81.305-34.758-117.48z"/>
 <path d="m494.68 158.13 3.2692.6562-6.6324-6.1108 2.7845 9.1619zm34.674 117.16-2.4337-2.5609 2.6531 9.2119 2.0388-9.411z" fill-rule="evenodd" stroke="#000" stroke-width=".4pt"/>
 <path d="m619.62 283.46h-619.63m336.12-229.83v459.67" fill="none" stroke="#000" stroke-dasharray="4,2,1,2" stroke-linejoin="round" stroke-miterlimit="8.6"/>
 <path d="m673.22 0-337.11 283.46 337.11 283.46" fill="none" stroke="#000" stroke-dasharray="1,1" stroke-linejoin="round" stroke-miterlimit="8.6"/>
 <path d="m527.05 36.136-199.32 482.35" fill="none" stroke="#000" stroke-dasharray="6,1" stroke-linejoin="round" stroke-miterlimit="8.6"/>
 <path d="m472.16 169.05v338.12" fill="none" stroke="#000" stroke-dasharray="1,1" stroke-linejoin="round" stroke-miterlimit="8.6"/>
 <path d="m177.16 88.589-150.59 356.5m114.66-342.69-114.29 273.03" fill="none" stroke="#000" stroke-dasharray="6,1" stroke-linejoin="round" stroke-miterlimit="8.6"/>
 <path d="m70.863 70.886v442.37m265.75-442.39h283.46m-283.46 425.2h283.46m-496.06-212.56v-229.89" fill="none" stroke="#000" stroke-dasharray="1,1" stroke-linejoin="round" stroke-miterlimit="8.6"/>
 <path d="m531.05 290.74-1.2985-.0607c-1.7556 42.005-16.057 77.336-44.378 109.69l.9941.8102c28.479-32.538 42.917-68.204 44.682-110.44z"/>
 <path d="m530.39 290.74 2.4646 2.528-2.2105-8.6071-2.922 8.4144zm-44.505 110.04-.3374-3.4267-3.7614 8.1096 7.7152-5.0026z" fill-rule="evenodd" stroke="#000" stroke-width=".4pt"/>
 <path d="m124.01 53.775v-35.433m211.97 34.808v-35.433" fill="none" stroke="#000" stroke-linejoin="round" stroke-miterlimit="8.6" stroke-width="1.25"/>
 <path d="m132.87 34.812v1.25h196.91v-1.25z"/>
 <path d="m329.76 35.433-2.5 2.5 8.75-2.5-8.75-2.5zm-196.89 0 2.5-2.5-8.75 2.5 8.75 2.5z" fill-rule="evenodd" stroke="#000" stroke-width=".4pt"/>
 <path d="m336.11 513.3v35.433" fill="none" stroke="#000" stroke-linejoin="round" stroke-miterlimit="8.6" stroke-width="1.25"/>
 <path d="m327.88 532.26-2.5 2.5 8.75-2.5-8.75-2.5z" fill-rule="evenodd" stroke="#000" stroke-width=".4pt"/>
 <path d="m283.46 212.43v13.048" fill="none" stroke="#000" stroke-linejoin="round" stroke-miterlimit="8.6" stroke-width="1.25"/>
 <path d="m282.84 212.44v13.031h1.25v-13.031z"/>
 <path d="m283.46 225.48-2.5-2.5 2.5 8.75 2.5-8.75z" fill-rule="evenodd" stroke="#000" stroke-width=".4pt"/>
 <path d="m318.28 283.31v13.031h1.25v-13.031z"/>
 <path d="m318.89 296.35-2.5-2.5 2.5 8.75 2.5-8.75z" fill-rule="evenodd" stroke="#000" stroke-width=".4pt"/>
 <path d="m318.28 341.44v13.062h1.25v-13.062z"/>
 <path d="m318.89 341.45 2.5 2.5-2.5-8.75-2.5 8.75z" fill-rule="evenodd" stroke="#000" stroke-width=".4pt"/>
 <path d="m248.08 399.12-15.529 19.666 1.0059.7942 15.498-19.663-.9748-.7979z"/>
 <path d="m233.05 419.19-.4128-3.5114-3.4604 8.4166 7.3845-5.318z" fill-rule="evenodd" stroke="#000" stroke-width=".4pt"/>
 <path d="m204.62 458.22-15.529 19.666.9712.7669 15.529-19.666z"/>
 <path d="m205.12 458.6.4128 3.5114 3.4604-8.4166-7.3845 5.318z" fill-rule="evenodd" stroke="#000" stroke-width=".4pt"/>
 <path d="m655.51 496.06h-35.433m35.433-212.6h-35.433m35.433-212.6h-35.433" fill="none" stroke="#000" stroke-linejoin="round" stroke-miterlimit="8.6" stroke-width="1.25"/>
 <path d="m637.16 79.719v194.88h1.25v-194.88z"/>
 <path d="m637.79 79.724 2.5 2.5-2.5-8.75-2.5 8.75zm0 194.88-2.5-2.5 2.5 8.75 2.5-8.75z" fill-rule="evenodd" stroke="#000" stroke-width=".4pt"/>
 <path d="m637.16 292.31v194.91h1.25v-194.91z"/>
 <path d="m637.79 292.32 2.5 2.5-2.5-8.75-2.5 8.75zm0 194.88-2.5-2.5 2.5 8.75 2.5-8.75z" fill-rule="evenodd" stroke="#000" stroke-width=".4pt"/>
 <path d="m17.713 398.62v-20.043h2.6523v20.043zm2.6808 63.005v-2.3516l8.4902-.0137v7.4375c-1.3034 1.0391-2.6478 1.8206-4.0332 2.3447s-2.8073.7861-4.2656.7861c-1.9688 0-3.7575-.4216-5.3662-1.2646-1.6087-.8431-2.8232-2.0622-3.6436-3.6572-.8203-1.595-1.2305-3.3769-1.2305-5.3457 0-1.9505.4079-3.7712 1.2236-5.4619.8158-1.6907 1.9892-2.9463 3.5205-3.7666 1.5312-.8203 3.2949-1.2304 5.291-1.2305 1.4492 0 2.7594.2347 3.9307.7041 1.1712.4694 2.0895 1.1234 2.7549 1.9619.6654.8386 1.1712 1.9323 1.5176 3.2812l-2.3926.6563c-.3008-1.0208-.6745-1.8229-1.1211-2.4062s-1.0846-1.0504-1.9141-1.4014c-.8294-.3509-1.75-.5264-2.7617-.5264-1.2122 0-2.2604.1846-3.1445.5537-.8841.3692-1.5973.8545-2.1396 1.456-.5423.6016-.9639 1.2624-1.2646 1.9824-.5104 1.2396-.7656 2.584-.7656 4.0332 0 1.7865.3076 3.2812.9229 4.4844.6152 1.2031 1.5107 2.0964 2.6865 2.6797s2.4245.875 3.7461.875c1.1484 0 2.2695-.221 3.3633-.6631 1.0937-.4421 1.9232-.9137 2.4883-1.415v-3.7324h-5.8926zm97.567-367.87 2.3926-.3281c.0638 1.5313.3509 2.5794.8613 3.1445s1.2168.8477 2.1191.8477c.6654 0 1.2396-.1527 1.7226-.458.4831-.3053.8158-.7201.9981-1.2441.1823-.5241.2734-1.3604.2734-2.5088v-13.809h2.6523v13.658c0 1.6771-.2028 2.9759-.6084 3.8965s-1.0482 1.6224-1.9277 2.1055c-.8796.4831-1.9118.7246-3.0967.7246-1.7591 0-3.1058-.5059-4.04-1.5176-.9343-1.0117-1.3831-2.5156-1.3467-4.5117zm34.62-15.561v-20.043h2.6524v8.2305h10.418v-8.2305h2.6523v20.043h-2.6523v-9.4473h-10.418v9.4473zm367.97-49.291v-20.043h14.492v2.3652h-11.84v6.1387h11.088v2.3516h-11.088v6.8223h12.305v2.3652zm-166.27 263.42 7.6973-20.043h2.8574l8.2031 20.043h-3.0215l-2.3379-6.0703h-8.3809l-2.2012 6.0703zm5.7832-8.2305h6.7949l-2.0918-5.5508c-.638-1.6862-1.112-3.0716-1.4219-4.1562-.2552 1.2852-.6152 2.5612-1.0801 3.8281zm162.56-151.22v-20.043h13.522v2.3652h-10.869v6.207h9.4062v2.3652h-9.4062v9.1055h-2.6523zm-167.07 382.4 2.6523.6699c-.556 2.1784-1.5563 3.8395-3.001 4.9834s-3.2106 1.7158-5.2978 1.7158c-2.1602 0-3.917-.4398-5.2705-1.3193-1.3535-.8796-2.3835-2.1533-3.0898-3.8213-.7064-1.668-1.0596-3.459-1.0596-5.373 0-2.0872.3988-3.9079 1.1963-5.4619s1.9323-2.7344 3.4043-3.541 3.0921-1.2099 4.8604-1.21c2.0052 0 3.6914.5104 5.0586 1.5312 1.3672 1.0209 2.3196 2.4564 2.8574 4.3066l-2.6113.6152c-.4649-1.4583-1.1393-2.5202-2.0234-3.1856-.8841-.6653-1.9961-.998-3.3359-.998-1.5404 0-2.8278.3692-3.8623 1.1074-1.0345.7383-1.7614 1.7295-2.1807 2.9736-.4193 1.2442-.6289 2.527-.6289 3.8486 0 1.7044.2484 3.1924.7451 4.4639s1.2692 2.2217 2.3174 2.8506 2.1829.9434 3.4043.9434c1.4857 0 2.7435-.4284 3.7734-1.2852s1.7272-2.1282 2.0918-3.8144zm-48.095 9.695v-20.043h7.5195c1.5312 0 2.7594.2028 3.6846.6084.9251.4056 1.6497 1.03 2.1738 1.873.5241.8431.7861 1.725.7861 2.6455 0 .8568-.2324 1.6634-.6973 2.4199s-1.1667 1.3672-2.1055 1.832c1.2122.3555 2.1442.9616 2.7959 1.8184s.9775 1.8685.9775 3.0352c0 .9388-.1983 1.8115-.5947 2.6182-.3965.8066-.8864 1.4287-1.4697 1.8662s-1.3148.7679-2.1943.9912c-.8796.2233-1.9574.335-3.2334.335h-7.6426zm2.6523-11.621h4.334c1.1758 0 2.0189-.0775 2.5293-.2324.6745-.2005 1.1826-.5332 1.5244-.9981.3418-.4648.5127-1.0482.5127-1.75 0-.6654-.1595-1.251-.4785-1.7568s-.7748-.8522-1.3672-1.0391c-.5925-.1868-1.6087-.2803-3.0488-.2803h-4.0059zm0 9.2559h4.9902c.8568 0 1.4583-.0319 1.8047-.0957.6107-.1094 1.1211-.2917 1.5312-.5469s.7474-.6266 1.0117-1.1143c.2643-.4876.3965-1.0504.3965-1.6885 0-.7474-.1914-1.3968-.5742-1.9482s-.9138-.9388-1.5928-1.1621c-.6791-.2233-1.6566-.335-2.9326-.335h-4.6348zm129.09-343.11v-20.043h6.9043c1.5586 0 2.748.0957 3.5684.2871 1.1484.2643 2.1282.7429 2.9394 1.4356 1.0573.8932 1.848 2.0348 2.3721 3.4248s.7861 2.9782.7861 4.7646c0 1.5222-.1778 2.8711-.5332 4.0469-.3555 1.1758-.8112 2.1488-1.3672 2.9189-.556.7702-1.1644 1.3763-1.8252 1.8184s-1.4584.777-2.3926 1.0049c-.9343.2279-2.0075.3418-3.2197.3418zm2.6524-2.3652h4.2793c1.3216 0 2.3584-.1231 3.1104-.3691.7519-.2461 1.3512-.5925 1.7978-1.0391.6289-.6289 1.1188-1.4743 1.4697-2.5361s.5264-2.3493.5264-3.8623c0-2.0964-.3441-3.7074-1.0322-4.833-.6882-1.1256-1.5244-1.8799-2.5088-2.2627-.711-.2734-1.8548-.4101-3.4316-.4102h-4.2109z"/>
 <path d="m333.87 70.875c-97.792 1.2401-179.75 68.625-203.16 159.44h-43.627l-15.219 35.438h52.846c-.4827 5.8415-.7188 11.754-.7188 17.719 0 5.97.2353 11.873.7188 17.719h-38.877l-14.625 35.438h59.471c23.623 91.665 106.93 159.44 205.94 159.44 51.437 0 98.619-18.287 135.41-48.719v-49.688c-32.505 38.5-81.112 62.969-135.41 62.969-79.275 0-146.46-52.157-169.06-124h235.09l14.656-35.438h-257c-.58-5.8294-.875-11.738-.875-17.719 0-5.9801.2954-11.89.875-17.719h271.62l14.625-35.438h-279.03c22.286-70.887 87.992-122.62 165.88-124 .3054-.005.6005.004.9063 0 .7618-.01 1.5485 0 2.3125 0 54.19 0 102.72 24.377 135.22 62.75l14.906-36.125c-38.468-38.354-91.553-62.062-150.12-62.062-.9168 0-1.8359-.0116-2.75 0z" fill="#e6e6e6" stroke="#000" stroke-miterlimit="8.6" stroke-width="3.5"/>
 <path d="m282.84 270.59v13.031h1.25v-13.031z"/>
 <path d="m283.46 270.58 2.5 2.5-2.5-8.75-2.5 8.75z" fill-rule="evenodd" stroke="#000" stroke-width=".4pt"/>
 <path d="m229.69 247.88v13.031h1.25v-13.031z"/>
 <path d="m230.31 260.92-2.5-2.5 2.5 8.75 2.5-8.75z" fill-rule="evenodd" stroke="#000" stroke-width=".4pt"/>
 <path d="m229.69 306v13.062h1.25v-13.062z"/>
 <path d="m230.31 306.01 2.5 2.5-2.5-8.75-2.5 8.75z" fill-rule="evenodd" stroke="#000" stroke-width=".4pt"/>
 <rect fill="#fff" height="17.72" ry=".35" width="17.72" x="221.45" y="274.61"/>
 <rect fill="#fff" height="17.72" ry=".35" width="17.72" x="221.45" y="26.57"/>
 <rect fill="#fff" height="26.24" ry=".52" width="17.72" x="513.78" y="207.98"/>
 <rect fill="#fff" height="27.62" ry=".55" width="26.57" x="504.92" y="331.66"/>
 <rect fill="#fff" height="17.72" ry=".35" width="39.3" x="173.29" y="522.64"/>
 <rect fill="#fff" height="26.2" ry=".52" width="17.72" x="628.93" y="164.06"/>
 <rect fill="#fff" height="26.91" ry=".54" width="17.72" x="628.93" y="376.66"/>
 <rect fill="#fff" height="26.87" ry=".55" width="17.72" x="327.75" y="154.69"/>
 <text font-family="Liberation Sans,Arial" font-size="24" x="-17.72"><tspan x="223.7" y="291.86">1</tspan><tspan x="278.56" y="256.51">1</tspan><tspan x="312.62" y="328.63">1</tspan><tspan x="212.51" y="447.43">1</tspan><tspan x="223.99" y="42.96">6</tspan><tspan x="630.7" y="186.51">6</tspan><tspan x="629.99" y="398.64">6</tspan><tspan x="177.16" y="540.35">7,5</tspan><tspan x="509.44" y="229.64">40°</tspan><tspan x="509.78" y="353.86">40°</tspan><tspan x="318.89" y="176.7">3,5</tspan></text>
</svg>
