<?xml version="1.0" encoding="utf-8"?>
<svg version="1.1" id="Layer_1" xmlns="http://www.w3.org/2000/svg" xmlns:xlink="http://www.w3.org/1999/xlink" x="0px" y="0px"
	 width="511px" height="446px" viewBox="0 0 511 446" enable-background="new 0 0 511 446" xml:space="preserve">
<text transform="matrix(1 0 0 1 62.0815 41.2056)" fill="#231F20" font-family="'Arial'" font-size="10">Butter</text>
<polygon fill-rule="evenodd" clip-rule="evenodd" fill="#2EB517" points="76.832,93.2 76.832,56.45 74.582,56.533 72.332,56.7 
	70.082,57.033 67.916,57.533 65.749,58.116 63.582,58.866 61.499,59.783 59.499,60.783 57.582,61.866 55.666,63.116 53.832,64.45 
	52.166,65.95 50.499,67.533 48.999,69.2 47.582,70.95 46.249,72.783 45.082,74.7 43.999,76.7 42.999,78.7 42.249,80.783 
	41.499,82.95 40.916,85.116 40.499,87.366 40.249,89.616 40.082,91.866 40.082,94.116 40.166,96.366 40.499,98.616 40.832,100.783 
	41.416,103.033 42.082,105.116 76.832,93.2 "/>
<polyline fill="none" stroke="#000000" stroke-width="0.5" stroke-linejoin="round" stroke-miterlimit="10" points="76.832,93.2 
	76.832,56.45 74.582,56.533 72.332,56.7 70.082,57.033 67.916,57.533 65.749,58.116 63.582,58.866 61.499,59.783 59.499,60.783 
	57.582,61.866 55.666,63.116 53.832,64.45 52.166,65.95 50.499,67.533 48.999,69.2 47.582,70.95 46.249,72.783 45.082,74.7 
	43.999,76.7 42.999,78.7 42.249,80.783 41.499,82.95 40.916,85.116 40.499,87.366 40.249,89.616 40.082,91.866 40.082,94.116 
	40.166,96.366 40.499,98.616 40.832,100.783 41.416,103.033 42.082,105.116 76.832,93.2 76.832,93.2 "/>
<text transform="matrix(1 0 0 1 12.5015 70.6997)" fill="#231F20" font-family="'Arial'" font-size="10">30.3%</text>
<polygon fill-rule="evenodd" clip-rule="evenodd" fill="#3766F0" points="76.832,93.2 42.082,105.116 42.832,107.116 
	43.666,109.116 44.666,111.033 45.749,112.866 76.832,93.2 "/>
<polyline fill="none" stroke="#000000" stroke-width="0.5" stroke-linejoin="round" stroke-miterlimit="10" points="76.832,93.2 
	42.082,105.116 42.832,107.116 43.666,109.116 44.666,111.033 45.749,112.866 76.832,93.2 76.832,93.2 "/>
<text transform="matrix(1 0 0 1 17.4175 117.6978)" fill="#231F20" font-family="'Arial'" font-size="10">3.7%</text>
<polygon fill-rule="evenodd" clip-rule="evenodd" fill="#FC8B5D" points="76.832,93.2 45.749,112.866 46.999,114.7 48.416,116.533 
	49.916,118.2 51.499,119.866 53.166,121.366 54.999,122.783 56.832,124.116 58.832,125.283 60.832,126.283 62.916,127.2 
	65.082,128.033 67.249,128.7 69.416,129.2 71.666,129.616 73.916,129.866 76.249,129.95 78.499,129.95 80.749,129.783 
	82.999,129.45 85.249,129.033 87.416,128.366 89.582,127.7 91.749,126.783 93.749,125.866 95.749,124.7 97.666,123.533 
	99.499,122.116 101.249,120.7 102.916,119.116 104.499,117.45 105.916,115.7 107.249,113.866 108.499,111.95 109.582,109.95 
	110.582,107.866 111.416,105.783 112.082,103.616 112.666,101.366 113.082,99.2 113.416,96.95 113.582,94.616 113.582,92.366 
	113.499,90.116 113.249,87.866 112.832,85.616 112.249,83.366 111.582,81.2 110.749,79.116 109.832,77.033 108.749,74.95 
	107.582,73.033 106.249,71.2 104.832,69.366 103.332,67.7 101.749,66.116 99.999,64.616 98.166,63.283 96.249,62.033 94.332,60.866 
	92.249,59.866 90.166,58.95 87.999,58.2 85.832,57.533 83.666,57.033 81.416,56.7 79.082,56.533 76.832,56.45 76.832,93.2 "/>
<polyline fill="none" stroke="#000000" stroke-width="0.5" stroke-linejoin="round" stroke-miterlimit="10" points="76.832,93.2 
	45.749,112.866 46.999,114.7 48.416,116.533 49.916,118.2 51.499,119.866 53.166,121.366 54.999,122.783 56.832,124.116 
	58.832,125.283 60.832,126.283 62.916,127.2 65.082,128.033 67.249,128.7 69.416,129.2 71.666,129.616 73.916,129.866 
	76.249,129.95 78.499,129.95 80.749,129.783 82.999,129.45 85.249,129.033 87.416,128.366 89.582,127.7 91.749,126.783 
	93.749,125.866 95.749,124.7 97.666,123.533 99.499,122.116 101.249,120.7 102.916,119.116 104.499,117.45 105.916,115.7 
	107.249,113.866 108.499,111.95 109.582,109.95 110.582,107.866 111.416,105.783 112.082,103.616 112.666,101.366 113.082,99.2 
	113.416,96.95 113.582,94.616 113.582,92.366 113.499,90.116 113.249,87.866 112.832,85.616 112.249,83.366 111.582,81.2 
	110.749,79.116 109.832,77.033 108.749,74.95 107.582,73.033 106.249,71.2 104.832,69.366 103.332,67.7 101.749,66.116 
	99.999,64.616 98.166,63.283 96.249,62.033 94.332,60.866 92.249,59.866 90.166,58.95 87.999,58.2 85.832,57.533 83.666,57.033 
	81.416,56.7 79.082,56.533 76.832,56.45 76.832,93.2 76.832,93.2 "/>
<text transform="matrix(1 0 0 1 114.1655 122.6138)" fill="#231F20" font-family="'Arial'" font-size="10">66.1%</text>
<text transform="matrix(1 0 0 1 31.3315 140.9419)" fill="#231F20" font-family="'Arial'" font-size="10"> </text>
<text transform="matrix(1 0 0 1 119.6655 52.6138)" fill="#231F20" font-family="'Arial'" font-size="10"> </text>
<text transform="matrix(1 0 0 1 234.6655 41.2056)" fill="#231F20" font-family="'Arial'" font-size="10">Margarine</text>
<polygon fill-rule="evenodd" clip-rule="evenodd" fill="#2EB517" points="258.582,93.2 258.582,56.45 256.248,56.533 253.999,56.7 
	251.749,57.033 249.499,57.533 247.332,58.2 245.166,58.95 243.082,59.866 241.082,60.866 239.082,61.95 237.166,63.283 
	235.416,64.616 233.666,66.116 232.082,67.7 230.499,69.366 229.082,71.2 227.832,73.033 226.582,74.95 225.499,76.95 
	224.582,79.033 223.749,81.2 223.082,83.366 222.582,85.533 222.166,87.783 221.916,90.033 221.749,92.366 221.832,94.616 
	221.916,96.866 222.249,99.116 222.666,101.366 223.249,103.616 223.999,105.7 224.832,107.866 225.749,109.95 226.916,111.866 
	228.082,113.866 229.416,115.7 230.916,117.45 232.416,119.116 234.082,120.616 235.832,122.116 237.666,123.45 239.582,124.7 
	241.582,125.783 243.582,126.783 245.749,127.7 247.833,128.366 250.083,128.95 258.582,93.2 "/>
<polyline fill="none" stroke="#000000" stroke-width="0.5" stroke-linejoin="round" stroke-miterlimit="10" points="258.582,93.2 
	258.582,56.45 256.248,56.533 253.999,56.7 251.749,57.033 249.499,57.533 247.332,58.2 245.166,58.95 243.082,59.866 
	241.082,60.866 239.082,61.95 237.166,63.283 235.416,64.616 233.666,66.116 232.082,67.7 230.499,69.366 229.082,71.2 
	227.832,73.033 226.582,74.95 225.499,76.95 224.582,79.033 223.749,81.2 223.082,83.366 222.582,85.533 222.166,87.783 
	221.916,90.033 221.749,92.366 221.832,94.616 221.916,96.866 222.249,99.116 222.666,101.366 223.249,103.616 223.999,105.7 
	224.832,107.866 225.749,109.95 226.916,111.866 228.082,113.866 229.416,115.7 230.916,117.45 232.416,119.116 234.082,120.616 
	235.832,122.116 237.666,123.45 239.582,124.7 241.582,125.783 243.582,126.783 245.749,127.7 247.833,128.366 250.083,128.95 
	258.582,93.2 258.582,93.2 "/>
<text transform="matrix(1 0 0 1 186.3315 84.2856)" fill="#231F20" font-family="'Arial'" font-size="10">46.3%</text>
<polygon fill-rule="evenodd" clip-rule="evenodd" fill="#3766F0" points="258.582,93.2 250.083,128.95 252.249,129.45 
	254.499,129.783 256.748,129.95 259.082,129.95 261.332,129.866 263.582,129.616 265.748,129.283 267.998,128.7 270.166,128.116 
	272.248,127.283 274.332,126.366 276.332,125.366 278.332,124.2 280.166,122.95 281.998,121.533 283.666,120.033 285.248,118.45 
	286.748,116.783 288.166,114.95 289.416,113.116 290.582,111.2 291.666,109.2 292.582,107.116 293.332,104.95 293.998,102.783 
	294.582,100.616 294.916,98.366 295.166,96.116 295.332,93.866 295.248,91.616 295.082,89.366 294.832,87.116 294.332,84.866 
	293.748,82.7 258.582,93.2 "/>
<polyline fill="none" stroke="#000000" stroke-width="0.5" stroke-linejoin="round" stroke-miterlimit="10" points="258.582,93.2 
	250.083,128.95 252.249,129.45 254.499,129.783 256.748,129.95 259.082,129.95 261.332,129.866 263.582,129.616 265.748,129.283 
	267.998,128.7 270.166,128.116 272.248,127.283 274.332,126.366 276.332,125.366 278.332,124.2 280.166,122.95 281.998,121.533 
	283.666,120.033 285.248,118.45 286.748,116.783 288.166,114.95 289.416,113.116 290.582,111.2 291.666,109.2 292.582,107.116 
	293.332,104.95 293.998,102.783 294.582,100.616 294.916,98.366 295.166,96.116 295.332,93.866 295.248,91.616 295.082,89.366 
	294.832,87.116 294.332,84.866 293.748,82.7 258.582,93.2 258.582,93.2 "/>
<text transform="matrix(1 0 0 1 295.916 121.2056)" fill="#231F20" font-family="'Arial'" font-size="10">33.3%</text>
<polygon fill-rule="evenodd" clip-rule="evenodd" fill="#FC8B5D" points="258.582,93.2 293.748,82.7 293.082,80.616 292.248,78.533 
	291.248,76.45 290.248,74.533 288.998,72.616 287.666,70.783 286.248,69.033 284.748,67.45 283.166,65.866 281.416,64.45 
	279.582,63.033 277.748,61.866 275.748,60.7 273.748,59.7 271.748,58.866 269.582,58.116 267.416,57.533 265.248,57.033 
	262.998,56.7 260.748,56.533 258.582,56.45 258.582,93.2 "/>
<polyline fill="none" stroke="#000000" stroke-width="0.5" stroke-linejoin="round" stroke-miterlimit="10" points="258.582,93.2 
	293.748,82.7 293.082,80.616 292.248,78.533 291.248,76.45 290.248,74.533 288.998,72.616 287.666,70.783 286.248,69.033 
	284.748,67.45 283.166,65.866 281.416,64.45 279.582,63.033 277.748,61.866 275.748,60.7 273.748,59.7 271.748,58.866 
	269.582,58.116 267.416,57.533 265.248,57.033 262.998,56.7 260.748,56.533 258.582,56.45 258.582,93.2 258.582,93.2 "/>
<text transform="matrix(1 0 0 1 291.002 62.1919)" fill="#231F20" font-family="'Arial'" font-size="10">20.4%</text>
<text transform="matrix(1 0 0 1 411.832 41.2056)" fill="#231F20" font-family="'Arial'" font-size="10">Mayonnaise</text>
<polygon fill-rule="evenodd" clip-rule="evenodd" fill="#2EB517" points="440.248,93.2 440.248,56.45 437.916,56.533 435.666,56.7 
	433.416,57.033 431.166,57.533 428.998,58.2 426.832,58.95 424.666,59.866 422.666,60.95 420.666,62.116 418.748,63.366 
	416.916,64.783 415.248,66.283 413.582,67.866 412.082,69.616 410.666,71.366 409.332,73.283 408.166,75.283 407.082,77.283 
	406.166,79.366 405.416,81.533 404.748,83.783 404.166,85.95 403.832,88.2 403.582,90.533 403.498,92.783 403.498,95.116 
	403.748,97.366 404.082,99.7 404.498,101.95 405.166,104.116 440.248,93.2 "/>
<polyline fill="none" stroke="#000000" stroke-width="0.5" stroke-linejoin="round" stroke-miterlimit="10" points="440.248,93.2 
	440.248,56.45 437.916,56.533 435.666,56.7 433.416,57.033 431.166,57.533 428.998,58.2 426.832,58.95 424.666,59.866 
	422.666,60.95 420.666,62.116 418.748,63.366 416.916,64.783 415.248,66.283 413.582,67.866 412.082,69.616 410.666,71.366 
	409.332,73.283 408.166,75.283 407.082,77.283 406.166,79.366 405.416,81.533 404.748,83.783 404.166,85.95 403.832,88.2 
	403.582,90.533 403.498,92.783 403.498,95.116 403.748,97.366 404.082,99.7 404.498,101.95 405.166,104.116 440.248,93.2 
	440.248,93.2 "/>
<text transform="matrix(1 0 0 1 377.502 70.7837)" fill="#231F20" font-family="'Arial'" font-size="10">29.8%</text>
<polygon fill-rule="evenodd" clip-rule="evenodd" fill="#3766F0" points="440.248,93.2 405.166,104.116 405.916,106.283 
	406.748,108.45 407.832,110.45 408.916,112.45 410.166,114.366 411.582,116.2 413.082,117.95 414.666,119.616 416.416,121.2 
	418.166,122.616 420.082,123.95 422.082,125.116 424.082,126.2 426.166,127.2 428.332,127.95 430.498,128.7 432.748,129.2 
	434.998,129.616 437.332,129.866 439.582,129.95 441.916,129.95 444.248,129.783 446.498,129.45 448.748,128.95 450.998,128.366 
	453.166,127.616 455.248,126.783 457.332,125.783 459.332,124.616 461.248,123.366 463.166,121.95 464.916,120.533 466.582,118.866 
	468.082,117.2 469.582,115.45 470.916,113.533 472.082,111.616 473.166,109.533 474.166,107.45 474.998,105.283 475.666,103.116 
	476.166,100.866 476.582,98.616 476.916,96.366 476.998,94.033 476.998,91.7 476.832,89.45 476.498,87.2 476.082,84.866 
	475.498,82.7 474.748,80.533 473.916,78.366 472.916,76.283 471.748,74.283 470.498,72.366 440.248,93.2 "/>
<polyline fill="none" stroke="#000000" stroke-width="0.5" stroke-linejoin="round" stroke-miterlimit="10" points="440.248,93.2 
	405.166,104.116 405.916,106.283 406.748,108.45 407.832,110.45 408.916,112.45 410.166,114.366 411.582,116.2 413.082,117.95 
	414.666,119.616 416.416,121.2 418.166,122.616 420.082,123.95 422.082,125.116 424.082,126.2 426.166,127.2 428.332,127.95 
	430.498,128.7 432.748,129.2 434.998,129.616 437.332,129.866 439.582,129.95 441.916,129.95 444.248,129.783 446.498,129.45 
	448.748,128.95 450.998,128.366 453.166,127.616 455.248,126.783 457.332,125.783 459.332,124.616 461.248,123.366 463.166,121.95 
	464.916,120.533 466.582,118.866 468.082,117.2 469.582,115.45 470.916,113.533 472.082,111.616 473.166,109.533 474.166,107.45 
	474.998,105.283 475.666,103.116 476.166,100.866 476.582,98.616 476.916,96.366 476.998,94.033 476.998,91.7 476.832,89.45 
	476.498,87.2 476.082,84.866 475.498,82.7 474.748,80.533 473.916,78.366 472.916,76.283 471.748,74.283 470.498,72.366 
	440.248,93.2 440.248,93.2 "/>
<text transform="matrix(1 0 0 1 477.582 123.3638)" fill="#231F20" font-family="'Arial'" font-size="10">54.8%</text>
<polygon fill-rule="evenodd" clip-rule="evenodd" fill="#FC8B5D" points="440.248,93.2 470.498,72.366 469.248,70.533 
	467.832,68.866 466.248,67.2 464.666,65.7 462.916,64.283 461.166,62.95 459.248,61.783 457.332,60.616 455.332,59.7 
	453.332,58.783 451.166,58.116 449.082,57.533 446.916,57.033 444.666,56.7 442.498,56.533 440.248,56.45 440.248,93.2 "/>
<polyline fill="none" stroke="#000000" stroke-width="0.5" stroke-linejoin="round" stroke-miterlimit="10" points="440.248,93.2 
	470.498,72.366 469.248,70.533 467.832,68.866 466.248,67.2 464.666,65.7 462.916,64.283 461.166,62.95 459.248,61.783 
	457.332,60.616 455.332,59.7 453.332,58.783 451.166,58.116 449.082,57.533 446.916,57.033 444.666,56.7 442.498,56.533 
	440.248,56.45 440.248,93.2 440.248,93.2 "/>
<text transform="matrix(1 0 0 1 465.002 59.6138)" fill="#231F20" font-family="'Arial'" font-size="10">15.4%</text>
<text transform="matrix(1 0 0 1 52.0815 170.1138)" fill="#231F20" font-family="'Arial'" font-size="10">Canola Oil</text>
<polygon fill-rule="evenodd" clip-rule="evenodd" fill="#2EB517" points="76.832,222.116 76.832,185.366 74.499,185.45 
	72.249,185.616 69.999,185.95 67.749,186.45 65.499,187.116 63.332,187.866 61.249,188.783 59.166,189.866 57.249,191.033 
	55.332,192.283 53.499,193.7 51.749,195.2 50.166,196.866 48.582,198.533 47.166,200.366 45.916,202.283 44.666,204.2 
	43.666,206.283 42.749,208.366 41.916,210.533 41.249,212.783 40.749,214.95 40.416,217.283 40.166,219.533 40.082,221.866 
	40.082,224.116 40.332,226.449 40.666,228.699 41.166,230.949 41.749,233.199 42.499,235.367 43.416,237.449 44.416,239.533 
	45.582,241.533 46.832,243.449 48.249,245.283 49.749,246.949 51.332,248.617 53.082,250.199 54.832,251.617 56.749,252.949 
	58.749,254.117 60.749,255.199 62.832,256.117 64.999,256.949 67.166,257.617 69.416,258.117 71.666,258.533 73.999,258.783 
	76.249,258.867 78.582,258.867 80.832,258.699 83.166,258.367 85.416,257.867 87.582,257.283 89.749,256.533 91.916,255.617 
	93.999,254.617 95.999,253.533 97.916,252.283 99.749,250.867 101.499,249.367 76.832,222.116 "/>
<polyline fill="none" stroke="#000000" stroke-width="0.5" stroke-linejoin="round" stroke-miterlimit="10" points="76.832,222.116 
	76.832,185.366 74.499,185.45 72.249,185.616 69.999,185.95 67.749,186.45 65.499,187.116 63.332,187.866 61.249,188.783 
	59.166,189.866 57.249,191.033 55.332,192.283 53.499,193.7 51.749,195.2 50.166,196.866 48.582,198.533 47.166,200.366 
	45.916,202.283 44.666,204.2 43.666,206.283 42.749,208.366 41.916,210.533 41.249,212.783 40.749,214.95 40.416,217.283 
	40.166,219.533 40.082,221.866 40.082,224.116 40.332,226.449 40.666,228.699 41.166,230.949 41.749,233.199 42.499,235.367 
	43.416,237.449 44.416,239.533 45.582,241.533 46.832,243.449 48.249,245.283 49.749,246.949 51.332,248.617 53.082,250.199 
	54.832,251.617 56.749,252.949 58.749,254.117 60.749,255.199 62.832,256.117 64.999,256.949 67.166,257.617 69.416,258.117 
	71.666,258.533 73.999,258.783 76.249,258.867 78.582,258.867 80.832,258.699 83.166,258.367 85.416,257.867 87.582,257.283 
	89.749,256.533 91.916,255.617 93.999,254.617 95.999,253.533 97.916,252.283 99.749,250.867 101.499,249.367 76.832,222.116 
	76.832,222.116 "/>
<text transform="matrix(1 0 0 1 6.6655 239.1973)" fill="#231F20" font-family="'Arial'" font-size="10">61.7%</text>
<polygon fill-rule="evenodd" clip-rule="evenodd" fill="#3766F0" points="76.832,222.116 101.499,249.367 103.166,247.783 
	104.666,246.117 106.166,244.283 107.499,242.449 108.666,240.533 109.749,238.449 110.749,236.367 111.582,234.283 
	112.249,232.033 112.749,229.867 113.166,227.533 113.499,225.283 113.582,223.033 113.582,220.7 113.416,218.45 113.082,216.116 
	112.666,213.866 112.082,211.7 111.332,209.533 110.499,207.366 109.499,205.283 108.416,203.283 107.166,201.366 105.832,199.533 
	104.332,197.7 102.749,196.033 101.082,194.533 99.332,193.033 97.499,191.7 95.499,190.45 93.499,189.366 76.832,222.116 "/>
<polyline fill="none" stroke="#000000" stroke-width="0.5" stroke-linejoin="round" stroke-miterlimit="10" points="76.832,222.116 
	101.499,249.367 103.166,247.783 104.666,246.117 106.166,244.283 107.499,242.449 108.666,240.533 109.749,238.449 
	110.749,236.367 111.582,234.283 112.249,232.033 112.749,229.867 113.166,227.533 113.499,225.283 113.582,223.033 113.582,220.7 
	113.416,218.45 113.082,216.116 112.666,213.866 112.082,211.7 111.332,209.533 110.499,207.366 109.499,205.283 108.416,203.283 
	107.166,201.366 105.832,199.533 104.332,197.7 102.749,196.033 101.082,194.533 99.332,193.033 97.499,191.7 95.499,190.45 
	93.499,189.366 76.832,222.116 76.832,222.116 "/>
<text transform="matrix(1 0 0 1 121.4175 217.4556)" fill="#231F20" font-family="'Arial'" font-size="10">30.8%</text>
<polygon fill-rule="evenodd" clip-rule="evenodd" fill="#FC8B5D" points="76.832,222.116 93.499,189.366 91.582,188.45 
	89.582,187.616 87.499,186.95 85.416,186.366 83.332,185.95 81.166,185.616 78.999,185.45 76.832,185.366 76.832,222.116 "/>
<polyline fill="none" stroke="#000000" stroke-width="0.5" stroke-linejoin="round" stroke-miterlimit="10" points="76.832,222.116 
	93.499,189.366 91.582,188.45 89.582,187.616 87.499,186.95 85.416,186.366 83.332,185.95 81.166,185.616 78.999,185.45 
	76.832,185.366 76.832,222.116 76.832,222.116 "/>
<text transform="matrix(1 0 0 1 88.7515 182.6138)" fill="#231F20" font-family="'Arial'" font-size="10">7.5%</text>
<text transform="matrix(1 0 0 1 238.2456 170.1138)" fill="#231F20" font-family="'Arial'" font-size="10">Olive Oil</text>
<polygon fill-rule="evenodd" clip-rule="evenodd" fill="#2EB517" points="258.582,222.116 258.582,185.366 256.248,185.45 
	253.999,185.616 251.749,185.95 249.499,186.45 247.249,187.116 245.082,187.866 242.999,188.783 240.999,189.783 238.999,190.95 
	237.082,192.283 235.249,193.616 233.582,195.116 231.916,196.783 230.416,198.45 228.999,200.283 227.666,202.116 226.499,204.116 
	225.416,206.116 224.499,208.2 223.666,210.366 222.999,212.533 222.499,214.783 222.082,217.033 221.916,219.283 221.749,221.616 
	221.832,223.866 221.999,226.199 222.332,228.449 222.749,230.699 223.416,232.867 224.082,235.033 224.999,237.199 
	225.999,239.199 227.082,241.199 228.332,243.117 229.749,244.949 231.249,246.699 232.832,248.367 234.499,249.949 
	236.249,251.367 238.166,252.699 240.082,253.949 242.082,255.033 244.166,255.949 246.332,256.783 248.499,257.449 
	250.666,258.033 252.916,258.449 255.248,258.699 257.498,258.867 259.832,258.867 262.082,258.699 264.332,258.449 
	266.582,258.033 268.832,257.449 270.998,256.699 273.082,255.867 275.166,254.867 277.166,253.783 279.166,252.617 
	280.998,251.199 282.748,249.783 284.416,248.199 285.998,246.533 287.498,244.783 288.832,242.949 290.082,241.033 
	291.166,239.033 292.166,236.949 292.998,234.867 293.748,232.699 294.332,230.449 294.832,228.199 295.082,225.949 
	295.248,223.699 295.332,221.366 295.166,219.116 294.916,216.783 258.582,222.116 "/>
<polyline fill="none" stroke="#000000" stroke-width="0.5" stroke-linejoin="round" stroke-miterlimit="10" points="
	258.582,222.116 258.582,185.366 256.248,185.45 253.999,185.616 251.749,185.95 249.499,186.45 247.249,187.116 245.082,187.866 
	242.999,188.783 240.999,189.783 238.999,190.95 237.082,192.283 235.249,193.616 233.582,195.116 231.916,196.783 230.416,198.45 
	228.999,200.283 227.666,202.116 226.499,204.116 225.416,206.116 224.499,208.2 223.666,210.366 222.999,212.533 222.499,214.783 
	222.082,217.033 221.916,219.283 221.749,221.616 221.832,223.866 221.999,226.199 222.332,228.449 222.749,230.699 
	223.416,232.867 224.082,235.033 224.999,237.199 225.999,239.199 227.082,241.199 228.332,243.117 229.749,244.949 
	231.249,246.699 232.832,248.367 234.499,249.949 236.249,251.367 238.166,252.699 240.082,253.949 242.082,255.033 
	244.166,255.949 246.332,256.783 248.499,257.449 250.666,258.033 252.916,258.449 255.248,258.699 257.498,258.867 
	259.832,258.867 262.082,258.699 264.332,258.449 266.582,258.033 268.832,257.449 270.998,256.699 273.082,255.867 
	275.166,254.867 277.166,253.783 279.166,252.617 280.998,251.199 282.748,249.783 284.416,248.199 285.998,246.533 
	287.498,244.783 288.832,242.949 290.082,241.033 291.166,239.033 292.166,236.949 292.998,234.867 293.748,232.699 
	294.332,230.449 294.832,228.199 295.082,225.949 295.248,223.699 295.332,221.366 295.166,219.116 294.916,216.783 
	258.582,222.116 258.582,222.116 "/>
<text transform="matrix(1 0 0 1 192.0815 245.8633)" fill="#231F20" font-family="'Arial'" font-size="10">77.3%</text>
<polygon fill-rule="evenodd" clip-rule="evenodd" fill="#3766F0" points="258.582,222.116 294.916,216.783 294.582,214.616 
	293.998,212.533 293.416,210.366 292.666,208.283 291.748,206.283 290.748,204.366 289.582,202.45 288.332,200.616 286.998,198.866 
	258.582,222.116 "/>
<polyline fill="none" stroke="#000000" stroke-width="0.5" stroke-linejoin="round" stroke-miterlimit="10" points="
	258.582,222.116 294.916,216.783 294.582,214.616 293.998,212.533 293.416,210.366 292.666,208.283 291.748,206.283 
	290.748,204.366 289.582,202.45 288.332,200.616 286.998,198.866 258.582,222.116 258.582,222.116 "/>
<text transform="matrix(1 0 0 1 296.582 207.4556)" fill="#231F20" font-family="'Arial'" font-size="10">8.6%</text>
<polygon fill-rule="evenodd" clip-rule="evenodd" fill="#FC8B5D" points="258.582,222.116 286.998,198.866 285.582,197.2 
	284.082,195.7 282.498,194.2 280.748,192.866 278.998,191.533 277.166,190.45 275.248,189.366 273.332,188.45 271.332,187.616 
	269.248,186.95 267.166,186.366 264.998,185.95 262.916,185.616 260.748,185.45 258.498,185.366 258.582,222.116 "/>
<polyline fill="none" stroke="#000000" stroke-width="0.5" stroke-linejoin="round" stroke-miterlimit="10" points="
	258.582,222.116 286.998,198.866 285.582,197.2 284.082,195.7 282.498,194.2 280.748,192.866 278.998,191.533 277.166,190.45 
	275.248,189.366 273.332,188.45 271.332,187.616 269.248,186.95 267.166,186.366 264.998,185.95 262.916,185.616 260.748,185.45 
	258.498,185.366 258.582,222.116 258.582,222.116 "/>
<text transform="matrix(1 0 0 1 277.418 184.8716)" fill="#231F20" font-family="'Arial'" font-size="10">14.1%</text>
<text transform="matrix(1 0 0 1 415.7461 170.1138)" fill="#231F20" font-family="'Arial'" font-size="10">Peanut Oil</text>
<polygon fill-rule="evenodd" clip-rule="evenodd" fill="#2EB517" points="440.248,222.116 440.248,185.366 437.998,185.45 
	435.666,185.616 433.416,185.95 431.248,186.45 428.998,187.116 426.832,187.866 424.748,188.783 422.748,189.783 420.748,190.95 
	418.832,192.2 417.082,193.616 415.332,195.116 413.666,196.7 412.166,198.366 410.748,200.2 409.416,202.033 408.248,203.95 
	407.166,206.033 406.248,208.116 405.416,210.2 404.748,212.366 404.248,214.616 403.832,216.866 403.582,219.116 403.498,221.45 
	403.498,223.699 403.666,225.949 403.998,228.199 404.416,230.449 404.998,232.699 405.748,234.867 406.582,236.949 
	407.582,239.033 408.666,241.033 409.916,242.949 411.248,244.783 412.748,246.533 414.332,248.199 415.998,249.699 
	417.748,251.199 419.582,252.533 421.498,253.783 423.498,254.867 425.582,255.867 427.666,256.699 429.832,257.367 
	432.082,257.949 434.332,258.367 436.582,258.699 440.248,222.116 "/>
<polyline fill="none" stroke="#000000" stroke-width="0.5" stroke-linejoin="round" stroke-miterlimit="10" points="
	440.248,222.116 440.248,185.366 437.998,185.45 435.666,185.616 433.416,185.95 431.248,186.45 428.998,187.116 426.832,187.866 
	424.748,188.783 422.748,189.783 420.748,190.95 418.832,192.2 417.082,193.616 415.332,195.116 413.666,196.7 412.166,198.366 
	410.748,200.2 409.416,202.033 408.248,203.95 407.166,206.033 406.248,208.116 405.416,210.2 404.748,212.366 404.248,214.616 
	403.832,216.866 403.582,219.116 403.498,221.45 403.498,223.699 403.666,225.949 403.998,228.199 404.416,230.449 404.998,232.699 
	405.748,234.867 406.582,236.949 407.582,239.033 408.666,241.033 409.916,242.949 411.248,244.783 412.748,246.533 
	414.332,248.199 415.998,249.699 417.748,251.199 419.582,252.533 421.498,253.783 423.498,254.867 425.582,255.867 
	427.666,256.699 429.832,257.367 432.082,257.949 434.332,258.367 436.582,258.699 440.248,222.116 440.248,222.116 "/>
<text transform="matrix(1 0 0 1 371.666 229.5332)" fill="#231F20" font-family="'Arial'" font-size="10">48.4%</text>
<polygon fill-rule="evenodd" clip-rule="evenodd" fill="#3766F0" points="440.248,222.116 436.582,258.699 438.832,258.867 
	441.082,258.867 443.416,258.783 445.666,258.449 447.916,258.117 450.166,257.533 452.332,256.867 454.416,256.033 
	456.498,255.117 458.498,254.033 460.498,252.783 462.332,251.533 464.166,250.117 465.832,248.533 467.416,246.949 
	468.916,245.199 470.248,243.367 471.498,241.449 472.666,239.449 473.666,237.449 474.582,235.283 475.332,233.199 
	475.916,230.949 476.416,228.699 476.748,226.449 476.998,224.199 476.998,221.95 476.916,219.616 476.748,217.366 476.332,215.116 
	475.832,212.866 475.166,210.7 474.416,208.533 473.498,206.45 440.248,222.116 "/>
<polyline fill="none" stroke="#000000" stroke-width="0.5" stroke-linejoin="round" stroke-miterlimit="10" points="
	440.248,222.116 436.582,258.699 438.832,258.867 441.082,258.867 443.416,258.783 445.666,258.449 447.916,258.117 
	450.166,257.533 452.332,256.867 454.416,256.033 456.498,255.117 458.498,254.033 460.498,252.783 462.332,251.533 
	464.166,250.117 465.832,248.533 467.416,246.949 468.916,245.199 470.248,243.367 471.498,241.449 472.666,239.449 
	473.666,237.449 474.582,235.283 475.332,233.199 475.916,230.949 476.416,228.699 476.748,226.449 476.998,224.199 476.998,221.95 
	476.916,219.616 476.748,217.366 476.332,215.116 475.832,212.866 475.166,210.7 474.416,208.533 473.498,206.45 440.248,222.116 
	440.248,222.116 "/>
<text transform="matrix(1 0 0 1 476.252 253.7051)" fill="#231F20" font-family="'Arial'" font-size="10">33.6%</text>
<polygon fill-rule="evenodd" clip-rule="evenodd" fill="#FC8B5D" points="440.248,222.116 473.498,206.45 472.498,204.366 
	471.332,202.45 469.998,200.533 468.582,198.7 467.082,196.95 465.416,195.283 463.666,193.783 461.832,192.366 459.916,191.033 
	457.998,189.866 455.916,188.866 453.748,187.95 451.582,187.116 449.416,186.533 447.166,186.033 444.832,185.616 442.582,185.45 
	440.248,185.366 440.248,222.116 "/>
<polyline fill="none" stroke="#000000" stroke-width="0.5" stroke-linejoin="round" stroke-miterlimit="10" points="
	440.248,222.116 473.498,206.45 472.498,204.366 471.332,202.45 469.998,200.533 468.582,198.7 467.082,196.95 465.416,195.283 
	463.666,193.783 461.832,192.366 459.916,191.033 457.998,189.866 455.916,188.866 453.748,187.95 451.582,187.116 449.416,186.533 
	447.166,186.033 444.832,185.616 442.582,185.45 440.248,185.366 440.248,222.116 440.248,222.116 "/>
<text transform="matrix(1 0 0 1 462.832 186.2778)" fill="#231F20" font-family="'Arial'" font-size="10">18.0%</text>
<text transform="matrix(1 0 0 1 46.3315 299.1055)" fill="#231F20" font-family="'Arial'" font-size="10">Safflower Oil</text>
<polygon fill-rule="evenodd" clip-rule="evenodd" fill="#2EB517" points="76.832,351.117 76.832,314.367 74.499,314.449 
	72.249,314.617 69.999,314.949 67.749,315.449 65.582,316.117 63.416,316.867 61.249,317.783 59.249,318.867 57.249,319.949 
	55.332,321.283 53.499,322.699 51.832,324.199 50.166,325.783 48.666,327.533 47.249,329.283 45.916,331.199 44.749,333.117 
	43.666,335.199 42.749,337.283 41.999,339.449 41.332,341.617 40.749,343.867 40.416,346.117 40.166,348.367 40.082,350.699 
	40.082,352.949 40.332,355.283 40.666,357.533 41.082,359.783 41.749,362.033 42.416,364.199 43.332,366.283 44.332,368.367 
	45.499,370.367 46.749,372.283 48.082,374.117 49.582,375.867 51.166,377.449 52.916,379.033 54.666,380.449 56.582,381.783 
	58.499,382.949 60.499,384.033 62.582,385.033 64.749,385.867 66.916,386.533 69.166,387.117 71.416,387.449 73.666,387.783 
	75.999,387.867 78.249,387.867 80.582,387.699 82.832,387.367 85.082,386.949 87.332,386.367 89.499,385.617 91.582,384.783 
	93.666,383.783 95.666,382.699 97.582,381.449 99.499,380.117 101.249,378.617 102.916,377.033 104.499,375.367 105.916,373.617 
	107.249,371.783 108.499,369.783 109.582,367.783 110.582,365.699 111.416,363.617 112.166,361.449 112.666,359.199 
	113.166,356.949 113.416,354.699 113.582,352.367 113.582,350.117 113.416,347.783 113.166,345.533 112.749,343.283 76.832,351.117 
	"/>
<polyline fill="none" stroke="#000000" stroke-width="0.5" stroke-linejoin="round" stroke-miterlimit="10" points="76.832,351.117 
	76.832,314.367 74.499,314.449 72.249,314.617 69.999,314.949 67.749,315.449 65.582,316.117 63.416,316.867 61.249,317.783 
	59.249,318.867 57.249,319.949 55.332,321.283 53.499,322.699 51.832,324.199 50.166,325.783 48.666,327.533 47.249,329.283 
	45.916,331.199 44.749,333.117 43.666,335.199 42.749,337.283 41.999,339.449 41.332,341.617 40.749,343.867 40.416,346.117 
	40.166,348.367 40.082,350.699 40.082,352.949 40.332,355.283 40.666,357.533 41.082,359.783 41.749,362.033 42.416,364.199 
	43.332,366.283 44.332,368.367 45.499,370.367 46.749,372.283 48.082,374.117 49.582,375.867 51.166,377.449 52.916,379.033 
	54.666,380.449 56.582,381.783 58.499,382.949 60.499,384.033 62.582,385.033 64.749,385.867 66.916,386.533 69.166,387.117 
	71.416,387.449 73.666,387.783 75.999,387.867 78.249,387.867 80.582,387.699 82.832,387.367 85.082,386.949 87.332,386.367 
	89.499,385.617 91.582,384.783 93.666,383.783 95.666,382.699 97.582,381.449 99.499,380.117 101.249,378.617 102.916,377.033 
	104.499,375.367 105.916,373.617 107.249,371.783 108.499,369.783 109.582,367.783 110.582,365.699 111.416,363.617 
	112.166,361.449 112.666,359.199 113.166,356.949 113.416,354.699 113.582,352.367 113.582,350.117 113.416,347.783 
	113.166,345.533 112.749,343.283 76.832,351.117 76.832,351.117 "/>
<text transform="matrix(1 0 0 1 6.6655 351.6973)" fill="#231F20" font-family="'Arial'" font-size="10">78.5%</text>
<polygon fill-rule="evenodd" clip-rule="evenodd" fill="#3766F0" points="76.832,351.117 112.749,343.283 112.249,341.117 
	111.582,339.033 110.749,336.949 109.832,334.867 108.832,332.949 107.666,331.033 106.332,329.199 104.999,327.449 
	103.499,325.783 101.916,324.283 100.249,322.783 98.499,321.449 96.666,320.199 94.749,319.033 92.832,318.033 90.749,317.117 
	76.832,351.117 "/>
<polyline fill="none" stroke="#000000" stroke-width="0.5" stroke-linejoin="round" stroke-miterlimit="10" points="76.832,351.117 
	112.749,343.283 112.249,341.117 111.582,339.033 110.749,336.949 109.832,334.867 108.832,332.949 107.666,331.033 
	106.332,329.199 104.999,327.449 103.499,325.783 101.916,324.283 100.249,322.783 98.499,321.449 96.666,320.199 94.749,319.033 
	92.832,318.033 90.749,317.117 76.832,351.117 76.832,351.117 "/>
<text transform="matrix(1 0 0 1 109.2456 325.7832)" fill="#231F20" font-family="'Arial'" font-size="10">15.4%</text>
<polygon fill-rule="evenodd" clip-rule="evenodd" fill="#FC8B5D" points="76.832,351.117 90.749,317.117 88.832,316.367 
	86.916,315.783 84.916,315.283 82.916,314.867 80.916,314.533 78.916,314.367 76.832,314.367 76.832,351.117 "/>
<polyline fill="none" stroke="#000000" stroke-width="0.5" stroke-linejoin="round" stroke-miterlimit="10" points="76.832,351.117 
	90.749,317.117 88.832,316.367 86.916,315.783 84.916,315.283 82.916,314.867 80.916,314.533 78.916,314.367 76.832,314.367 
	76.832,351.117 76.832,351.117 "/>
<text transform="matrix(1 0 0 1 82.8315 310.8633)" fill="#231F20" font-family="'Arial'" font-size="10">6.2%</text>
<text transform="matrix(1 0 0 1 231.5015 299.1055)" fill="#231F20" font-family="'Arial'" font-size="10">Sesame Oil</text>
<polygon fill-rule="evenodd" clip-rule="evenodd" fill="#2EB517" points="258.582,351.117 258.582,314.367 256.248,314.449 
	253.999,314.617 251.749,314.949 249.499,315.449 247.332,316.117 245.166,316.867 243.082,317.783 240.999,318.783 
	238.999,319.949 237.166,321.199 235.332,322.617 233.582,324.117 231.999,325.699 230.416,327.367 228.999,329.199 
	227.749,331.033 226.499,333.033 225.499,335.033 224.499,337.117 223.749,339.283 223.082,341.449 222.499,343.699 
	222.166,345.949 221.916,348.199 221.749,350.449 221.832,352.783 221.999,355.033 222.332,357.283 222.749,359.533 
	223.332,361.783 224.082,363.949 224.916,366.033 225.916,368.117 227.082,370.117 228.249,372.033 229.666,373.867 
	231.082,375.617 232.666,377.283 234.332,378.783 236.082,380.283 237.999,381.617 239.916,382.783 258.582,351.117 "/>
<polyline fill="none" stroke="#000000" stroke-width="0.5" stroke-linejoin="round" stroke-miterlimit="10" points="
	258.582,351.117 258.582,314.367 256.248,314.449 253.999,314.617 251.749,314.949 249.499,315.449 247.332,316.117 
	245.166,316.867 243.082,317.783 240.999,318.783 238.999,319.949 237.166,321.199 235.332,322.617 233.582,324.117 
	231.999,325.699 230.416,327.367 228.999,329.199 227.749,331.033 226.499,333.033 225.499,335.033 224.499,337.117 
	223.749,339.283 223.082,341.449 222.499,343.699 222.166,345.949 221.916,348.199 221.749,350.449 221.832,352.783 
	221.999,355.033 222.332,357.283 222.749,359.533 223.332,361.783 224.082,363.949 224.916,366.033 225.916,368.117 
	227.082,370.117 228.249,372.033 229.666,373.867 231.082,375.617 232.666,377.283 234.332,378.783 236.082,380.283 
	237.999,381.617 239.916,382.783 258.582,351.117 258.582,351.117 "/>
<text transform="matrix(1 0 0 1 186.3315 354.3633)" fill="#231F20" font-family="'Arial'" font-size="10">41.5%</text>
<polygon fill-rule="evenodd" clip-rule="evenodd" fill="#3766F0" points="258.582,351.117 239.916,382.783 241.916,383.949 
	243.999,384.867 246.166,385.699 248.333,386.449 250.583,387.033 252.833,387.449 255.082,387.699 257.416,387.867 
	259.748,387.867 261.998,387.699 264.332,387.449 266.582,387.033 268.748,386.449 270.998,385.699 273.082,384.867 
	275.166,383.867 277.248,382.783 279.166,381.533 280.998,380.199 282.832,378.783 284.498,377.199 286.082,375.533 
	287.498,373.699 288.916,371.867 290.166,369.949 291.248,367.949 292.248,365.867 293.082,363.699 293.832,361.533 
	294.416,359.283 294.832,357.033 295.166,354.783 295.248,352.449 295.332,350.117 295.166,347.867 294.916,345.533 
	294.498,343.283 293.916,341.033 293.248,338.867 292.416,336.699 291.416,334.617 290.332,332.617 289.082,330.699 
	287.748,328.783 258.582,351.117 "/>
<polyline fill="none" stroke="#000000" stroke-width="0.5" stroke-linejoin="round" stroke-miterlimit="10" points="
	258.582,351.117 239.916,382.783 241.916,383.949 243.999,384.867 246.166,385.699 248.333,386.449 250.583,387.033 
	252.833,387.449 255.082,387.699 257.416,387.867 259.748,387.867 261.998,387.699 264.332,387.449 266.582,387.033 
	268.748,386.449 270.998,385.699 273.082,384.867 275.166,383.867 277.248,382.783 279.166,381.533 280.998,380.199 
	282.832,378.783 284.498,377.199 286.082,375.533 287.498,373.699 288.916,371.867 290.166,369.949 291.248,367.949 
	292.248,365.867 293.082,363.699 293.832,361.533 294.416,359.283 294.832,357.033 295.166,354.783 295.248,352.449 
	295.332,350.117 295.166,347.867 294.916,345.533 294.498,343.283 293.916,341.033 293.248,338.867 292.416,336.699 
	291.416,334.617 290.332,332.617 289.082,330.699 287.748,328.783 258.582,351.117 258.582,351.117 "/>
<text transform="matrix(1 0 0 1 294.916 382.7832)" fill="#231F20" font-family="'Arial'" font-size="10">43.8%</text>
<polygon fill-rule="evenodd" clip-rule="evenodd" fill="#FC8B5D" points="258.582,351.117 287.748,328.783 286.332,327.033 
	284.832,325.367 283.166,323.867 281.498,322.367 279.666,321.033 277.748,319.783 275.832,318.699 273.832,317.699 
	271.748,316.783 269.582,316.033 267.416,315.449 265.248,314.949 262.998,314.617 260.748,314.449 258.498,314.367 
	258.582,351.117 "/>
<polyline fill="none" stroke="#000000" stroke-width="0.5" stroke-linejoin="round" stroke-miterlimit="10" points="
	258.582,351.117 287.748,328.783 286.332,327.033 284.832,325.367 283.166,323.867 281.498,322.367 279.666,321.033 
	277.748,319.783 275.832,318.699 273.832,317.699 271.748,316.783 269.582,316.033 267.416,315.449 265.248,314.949 
	262.998,314.617 260.748,314.449 258.498,314.367 258.582,351.117 258.582,351.117 "/>
<text transform="matrix(1 0 0 1 278.832 314.5332)" fill="#231F20" font-family="'Arial'" font-size="10">14.6%</text>
<text transform="matrix(1 0 0 1 408.082 299.1055)" fill="#231F20" font-family="'Arial'" font-size="10">Sunflower Oil</text>
<polygon fill-rule="evenodd" clip-rule="evenodd" fill="#2EB517" points="440.248,351.117 440.248,314.367 437.998,314.449 
	435.666,314.617 433.416,314.949 431.166,315.449 428.998,316.117 426.832,316.867 424.748,317.783 422.666,318.783 
	420.748,319.949 418.832,321.199 416.998,322.617 415.332,324.117 413.666,325.699 412.166,327.449 410.748,329.199 
	409.416,331.117 408.248,333.033 407.166,335.033 406.248,337.117 405.416,339.283 404.748,341.449 440.248,351.117 "/>
<polyline fill="none" stroke="#000000" stroke-width="0.5" stroke-linejoin="round" stroke-miterlimit="10" points="
	440.248,351.117 440.248,314.367 437.998,314.449 435.666,314.617 433.416,314.949 431.166,315.449 428.998,316.117 
	426.832,316.867 424.748,317.783 422.666,318.783 420.748,319.949 418.832,321.199 416.998,322.617 415.332,324.117 
	413.666,325.699 412.166,327.449 410.748,329.199 409.416,331.117 408.248,333.033 407.166,335.033 406.248,337.117 
	405.416,339.283 404.748,341.449 440.248,351.117 440.248,351.117 "/>
<text transform="matrix(1 0 0 1 387.916 317.5273)" fill="#231F20" font-family="'Arial'" font-size="10">20.8%</text>
<polygon fill-rule="evenodd" clip-rule="evenodd" fill="#3766F0" points="440.248,351.117 404.748,341.449 404.248,343.699 
	403.832,345.949 403.582,348.283 403.498,350.533 403.498,352.783 403.666,355.117 403.998,357.367 404.498,359.617 
	405.082,361.867 405.832,364.033 406.666,366.117 407.666,368.199 408.832,370.199 410.082,372.117 411.416,373.949 
	412.916,375.699 414.498,377.367 416.166,378.867 417.916,380.367 419.832,381.699 421.748,382.867 423.748,383.949 
	425.832,384.949 427.998,385.783 430.166,386.449 432.416,387.033 434.666,387.449 436.916,387.699 439.166,387.867 
	441.498,387.867 443.748,387.699 445.998,387.449 448.248,387.033 450.498,386.449 452.666,385.699 454.832,384.867 
	456.916,383.867 458.916,382.783 460.832,381.617 462.666,380.283 464.498,378.783 466.166,377.199 467.748,375.533 
	469.166,373.783 470.582,371.949 471.748,370.033 472.916,368.033 473.916,365.949 474.748,363.867 475.498,361.699 
	476.082,359.449 476.498,357.199 476.832,354.949 476.998,352.617 476.998,350.367 476.916,348.117 476.666,345.783 
	476.248,343.533 475.666,341.283 474.998,339.117 474.166,336.949 473.248,334.867 472.166,332.867 470.998,330.949 
	469.666,329.033 468.248,327.283 466.666,325.533 465.082,323.949 463.332,322.449 440.248,351.117 "/>
<polyline fill="none" stroke="#000000" stroke-width="0.5" stroke-linejoin="round" stroke-miterlimit="10" points="
	440.248,351.117 404.748,341.449 404.248,343.699 403.832,345.949 403.582,348.283 403.498,350.533 403.498,352.783 
	403.666,355.117 403.998,357.367 404.498,359.617 405.082,361.867 405.832,364.033 406.666,366.117 407.666,368.199 
	408.832,370.199 410.082,372.117 411.416,373.949 412.916,375.699 414.498,377.367 416.166,378.867 417.916,380.367 
	419.832,381.699 421.748,382.867 423.748,383.949 425.832,384.949 427.998,385.783 430.166,386.449 432.416,387.033 
	434.666,387.449 436.916,387.699 439.166,387.867 441.498,387.867 443.748,387.699 445.998,387.449 448.248,387.033 
	450.498,386.449 452.666,385.699 454.832,384.867 456.916,383.867 458.916,382.783 460.832,381.617 462.666,380.283 
	464.498,378.783 466.166,377.199 467.748,375.533 469.166,373.783 470.582,371.949 471.748,370.033 472.916,368.033 
	473.916,365.949 474.748,363.867 475.498,361.699 476.082,359.449 476.498,357.199 476.832,354.949 476.998,352.617 
	476.998,350.367 476.916,348.117 476.666,345.783 476.248,343.533 475.666,341.283 474.998,339.117 474.166,336.949 
	473.248,334.867 472.166,332.867 470.998,330.949 469.666,329.033 468.248,327.283 466.666,325.533 465.082,323.949 
	463.332,322.449 440.248,351.117 440.248,351.117 "/>
<text transform="matrix(1 0 0 1 476.252 382.7832)" fill="#231F20" font-family="'Arial'" font-size="10">68.5%</text>
<polygon fill-rule="evenodd" clip-rule="evenodd" fill="#FC8B5D" points="440.248,351.117 463.332,322.449 461.498,321.117 
	459.582,319.867 457.666,318.699 455.666,317.699 453.498,316.867 451.416,316.117 449.248,315.449 446.998,314.949 
	444.748,314.617 442.498,314.449 440.248,314.367 440.248,351.117 "/>
<polyline fill="none" stroke="#000000" stroke-width="0.5" stroke-linejoin="round" stroke-miterlimit="10" points="
	440.248,351.117 463.332,322.449 461.498,321.117 459.582,319.867 457.666,318.699 455.666,317.699 453.498,316.867 
	451.416,316.117 449.248,315.449 446.998,314.949 444.748,314.617 442.498,314.449 440.248,314.367 440.248,351.117 
	440.248,351.117 "/>
<text transform="matrix(1 0 0 1 453.918 313.1191)" fill="#231F20" font-family="'Arial'" font-size="10">10.8%</text>
<text transform="matrix(1 0 0 1 394.7461 398.8633)" fill="#231F20" font-family="'Arial'" font-size="10"> </text>
<text transform="matrix(1 0 0 1 483.082 310.541)" fill="#231F20" font-family="'Arial'" font-size="10"> </text>
<rect x="390.166" y="399.5" fill-rule="evenodd" clip-rule="evenodd" fill="#FFFFFF" width="119.834" height="45.5"/>
<polyline fill="none" stroke="#FFFFFF" stroke-width="0.5" stroke-linejoin="round" stroke-miterlimit="10" points="390.166,445 
	390.166,399.5 510,399.5 510,445 390.166,445 "/>
<path fill="none" stroke="#000000" stroke-width="0.5" stroke-linejoin="round" stroke-miterlimit="10" d="M390.166,399.5H510
	 M390.166,445H510 M510,445v-45.5 M390.166,445v-45.5 M390.166,445H510 M390.166,445v-45.5 M390.166,399.5H510 M390.166,445H510
	 M510,445v-45.5 M390.166,445v-45.5"/>
<text transform="matrix(1 0 0 1 429.6641 411.7441)" fill="#231F20" font-family="'Arial'" font-size="10">Monounsaturated</text>
<rect x="396.166" y="403.084" fill-rule="evenodd" clip-rule="evenodd" fill="#2EB517" width="30.334" height="10.25"/>
<polyline fill="none" stroke="#000000" stroke-width="0.5" stroke-linejoin="round" stroke-miterlimit="10" points="
	396.166,413.334 396.166,403.084 426.5,403.084 426.5,413.334 396.166,413.334 "/>
<text transform="matrix(1 0 0 1 429.6641 425.8223)" fill="#231F20" font-family="'Arial'" font-size="10">Polyunsaturated</text>
<rect x="396.166" y="417.084" fill-rule="evenodd" clip-rule="evenodd" fill="#3766F0" width="30.334" height="10.25"/>
<polyline fill="none" stroke="#000000" stroke-width="0.5" stroke-linejoin="round" stroke-miterlimit="10" points="
	396.166,427.334 396.166,417.084 426.5,417.084 426.5,427.334 396.166,427.334 "/>
<text transform="matrix(1 0 0 1 429.6641 439.8359)" fill="#231F20" font-family="'Arial'" font-size="10">Saturated</text>
<rect x="396.166" y="431.084" fill-rule="evenodd" clip-rule="evenodd" fill="#FC8B5D" width="30.334" height="10.25"/>
<polyline fill="none" stroke="#000000" stroke-width="0.5" stroke-linejoin="round" stroke-miterlimit="10" points="
	396.166,441.334 396.166,431.084 426.5,431.084 426.5,441.334 396.166,441.334 "/>
<text transform="matrix(1 0 0 1 28.6382 17.6187)" font-family="'Arial'" font-size="21">Composition of Fat Acid Types in Selected Foods</text>
</svg>
