<?xml version="1.0" encoding="UTF-8" standalone="no"?>
<svg
   xmlns:dc="http://purl.org/dc/elements/1.1/"
   xmlns:cc="http://web.resource.org/cc/"
   xmlns:rdf="http://www.w3.org/1999/02/22-rdf-syntax-ns#"
   xmlns:svg="http://www.w3.org/2000/svg"
   xmlns="http://www.w3.org/2000/svg"
   xmlns:xlink="http://www.w3.org/1999/xlink"
   xmlns:sodipodi="http://sodipodi.sourceforge.net/DTD/sodipodi-0.dtd"
   xmlns:inkscape="http://www.inkscape.org/namespaces/inkscape"
   height="424.03012"
   width="756.63953"
   viewBox="0 0 600 600"
   id="svg2"
   sodipodi:version="0.32"
   inkscape:version="0.45.1"
   sodipodi:docname="Flag of the Hispanicity.svg"
   inkscape:output_extension="org.inkscape.output.svg.inkscape"
   sodipodi:docbase="C:\Documents and Settings\HP_Administrator\My Documents\My Pictures"
   version="1.0">
  <metadata
     id="metadata19">
    <rdf:RDF>
      <cc:Work
         rdf:about="">
        <dc:format>image/svg+xml</dc:format>
        <dc:type
           rdf:resource="http://purl.org/dc/dcmitype/StillImage" />
      </cc:Work>
    </rdf:RDF>
  </metadata>
  <defs
     id="defs17" />
  <sodipodi:namedview
     inkscape:window-height="712"
     inkscape:window-width="1024"
     inkscape:pageshadow="2"
     inkscape:pageopacity="0.0"
     guidetolerance="10.0"
     gridtolerance="10.0"
     objecttolerance="10.0"
     borderopacity="1.0"
     bordercolor="#666666"
     pagecolor="#ffffff"
     id="base"
     inkscape:zoom="0.62833332"
     inkscape:cx="547.38122"
     inkscape:cy="138.25113"
     inkscape:window-x="-4"
     inkscape:window-y="-4"
     inkscape:current-layer="svg2" />
  <title
     id="title4">Heraldic Cross Pattee (Patty, Formy)</title>
  <desc
     id="desc6">Heraldic Cross Pattee (Patty, Formy)</desc>
  <g
     id="g3079">
    <rect
       y="-0.13653223"
       x="-235.57784"
       height="598.73279"
       width="1071.0741"
       id="rect2386"
       style="fill:#ffffff;fill-opacity:1;stroke:#000000;stroke-width:0;stroke-linecap:butt;stroke-linejoin:round;stroke-miterlimit:4;stroke-dasharray:none;stroke-dashoffset:0;stroke-opacity:1" />
    <g
       id="g3037">
      <g
         id="g3005">
        <g
           transform="matrix(1.8086862,0,0,1.6737639,-2.4117839,-610.98582)"
           id="g2258">
          <g
             style="fill:#fcd116;stroke:#000000;stroke-width:0.08084301;stroke-miterlimit:20"
             id="4wavyrays"
             transform="matrix(4.5050561,0,0,4.0388689,169.49602,537.91361)">
            <g
               style="stroke-width:0.08084301"
               id="2wavyrays">
              <g
                 style="stroke-width:0.08084301"
                 id="wavyray"
                 transform="matrix(0.9238795,0.3826834,-0.3826834,0.9238795,0,0)">
                <path
                   style="stroke-width:0.08084301"
                   d="M 0,0 L 6,12 C -2,25 7,27 0,33 C 3,25 -4,28 -3,13"
                   id="path2566" />
                <path
                   style="fill:none;stroke-width:0.08084301"
                   d="M 0,11 C -2,24 4.5,28 0,33"
                   id="path2568" />
              </g>
              <use
                 style="stroke-width:0.08084301"
                 height="600"
                 width="600"
                 y="0"
                 x="0"
                 xlink:href="#wavyray"
                 transform="scale(-1,-1)"
                 id="use2570" />
            </g>
            <use
               style="stroke-width:0.08084301"
               height="600"
               width="600"
               y="0"
               x="0"
               xlink:href="#2wavyrays"
               transform="matrix(0,1,-1,0,0,0)"
               id="use2572" />
          </g>
          <use
             style="fill:#fcd116;stroke:#000000;stroke-width:0.08084301;stroke-miterlimit:20"
             height="600"
             width="600"
             y="0"
             x="0"
             xlink:href="#4wavyrays"
             transform="matrix(0.7071068,0.6339348,-0.7887247,0.7071068,473.91,50.10182)"
             id="use2574" />
          <g
             style="fill:#fcd116;stroke:#000000;stroke-width:0.08084301;stroke-miterlimit:20"
             id="4straightrays"
             transform="matrix(4.5050561,0,0,4.0388689,169.49602,537.91361)">
            <g
               style="stroke-width:0.08084301"
               id="2straightrays">
              <path
                 style="stroke-width:0.08084301"
                 id="straightray"
                 d="M 0,0 L 6,0 L 0,33 L -6,0 L 0,0 L 0,33" />
              <use
                 style="stroke-width:0.08084301"
                 height="600"
                 width="600"
                 y="0"
                 x="0"
                 xlink:href="#straightray"
                 transform="scale(-1,-1)"
                 id="use2579" />
            </g>
            <use
               style="stroke-width:0.08084301"
               height="600"
               width="600"
               y="0"
               x="0"
               xlink:href="#2straightrays"
               transform="matrix(0,1,-1,0,0,0)"
               id="use2581" />
          </g>
          <use
             style="fill:#fcd116;stroke:#000000;stroke-width:0.08084301;stroke-miterlimit:20"
             height="600"
             width="600"
             y="0"
             x="0"
             xlink:href="#4straightrays"
             transform="matrix(0.7071068,0.6339348,-0.7887247,0.7071068,473.91,50.10182)"
             id="use2583" />
          <circle
             style="fill:#fcd116;stroke:#000000;stroke-width:0.08084301;stroke-miterlimit:20"
             sodipodi:ry="11"
             sodipodi:rx="11"
             sodipodi:cy="0"
             sodipodi:cx="0"
             cy="0"
             cx="0"
             r="11"
             id="circle2585"
             transform="matrix(4.5050561,0,0,4.0388689,169.49602,537.91361)" />
          <g
             style="fill:#000000;stroke:none;stroke-width:0.14066021;stroke-miterlimit:20"
             id="face"
             transform="matrix(0.4505056,0,0,0.4038869,169.49602,537.91361)">
            <g
               id="right">
              <path
                 d="M 81,-44 C 74,-36 70,-50 45,-50 C 20,-50 16,-35 12,-38 C 8,-41 33,-59 41,-60 C 49,-61 72,-53 81,-44"
                 id="path2589" />
              <path
                 d="M 52,-35 C 59,-29 53,-16 46,-16 C 39,-16 26,-28 32,-36"
                 id="path2591" />
              <path
                 d="M 19,-26 C 20,-38 30,-40 46,-40 C 62,-40 69,-28 75,-25 C 68,-25 62,-35 46,-35 C 30,-35 30,-35 19,-25"
                 id="path2593" />
              <path
                 d="M 22,-23 C 26,-29 31,-17 42,-17 C 53,-17 59,-20 66,-25 C 73,-30 56,-13 45,-13 C 34,-13 19,-19 22,-23"
                 id="path2595" />
              <path
                 d="M 56,-17 C 69,-24 61,-34 56,-36 C 58,-34 66,-24 56,-17"
                 id="path2597" />
              <path
                 d="M 0,43 C 6,43 8,41 16,41 C 24,41 43,52 54,48 C 31,57 40,51 0,51 L -5,51"
                 id="path2599" />
              <path
                 d="M 58,57 C 54,50 55,52 47,41 C 55,47 57,50 58,57"
                 id="path2601" />
              <path
                 d="M 0,67 C 25,67 21,62 54,48 C 30,51 25,59 0,59 L -5,59"
                 id="path2603" />
              <path
                 d="M 0,30 C 7,30 9,25 17,25 C 25,25 36,28 41,32 C 42,33 38,24 30,23 C 22,22 25,9 16,7 C 16,11 19,10 20,16 C 20,21 11,21 9,16 C 11,24 5,24 0,24 L -2,24"
                 id="path2605" />
            </g>
            <use
               height="600"
               width="600"
               y="0"
               x="0"
               xlink:href="#right"
               transform="scale(-1,1)"
               id="use2607" />
            <path
               d="M 0,76 C -5,76 -18,79 0,79 C 18,79 5,76 0,76"
               id="path2609" />
          </g>
        </g>
        <rect
           y="287.79086"
           x="34.22612"
           height="225.4498"
           width="535.3205"
           id="rect2288"
           style="fill:#ffffff;fill-opacity:1;stroke:#000000;stroke-width:0;stroke-linecap:butt;stroke-linejoin:round;stroke-miterlimit:4;stroke-dasharray:none;stroke-dashoffset:0;stroke-opacity:1" />
      </g>
      <g
         style="fill:#800080;stroke:none"
         id="g2329"
         transform="matrix(0.48942,0,0,0.452911,-157.37955,153.80114)">
        <path
           d="M 30,144.097 C 96.9686,223.907 195.815,270 300,270 C 404.185,270 503.031,223.907 570,144.097 L 570,455.903 C 503.031,376.093 404.185,330 300,330 C 195.815,330 96.9686,376.093 30,455.903 L 30,144.097 z "
           id="path2331"
           style="fill:#800080" />
        <path
           d="M 455.903,30 C 376.093,96.9686 330,195.815 330,300 C 330,404.185 376.093,503.031 455.903,570 L 144.097,570 C 223.907,503.031 270,404.185 270,300 C 270,195.815 223.907,96.9686 144.097,30 L 455.903,30 z "
           id="path2333"
           style="fill:#800080" />
      </g>
      <g
         style="fill:#800080;stroke:none"
         id="g2480"
         transform="matrix(0.48942,0,0,0.4668635,495.42028,149.20987)">
        <path
           d="M 30,144.097 C 96.9686,223.907 195.815,270 300,270 C 404.185,270 503.031,223.907 570,144.097 L 570,455.903 C 503.031,376.093 404.185,330 300,330 C 195.815,330 96.9686,376.093 30,455.903 L 30,144.097 z "
           id="path2482"
           style="fill:#800080" />
        <path
           d="M 455.903,30 C 376.093,96.9686 330,195.815 330,300 C 330,404.185 376.093,503.031 455.903,570 L 144.097,570 C 223.907,503.031 270,404.185 270,300 C 270,195.815 223.907,96.9686 144.097,30 L 455.903,30 z "
           id="path2484"
           style="fill:#800080" />
      </g>
      <g
         style="fill:#800080;stroke:none"
         id="g2323"
         transform="matrix(0.48942,0,0,0.4598872,160.14897,146.05744)">
        <path
           d="M 30,144.097 C 96.9686,223.907 195.815,270 300,270 C 404.185,270 503.031,223.907 570,144.097 L 570,455.903 C 503.031,376.093 404.185,330 300,330 C 195.815,330 96.9686,376.093 30,455.903 L 30,144.097 z "
           id="path2325"
           style="fill:#800080" />
        <path
           d="M 455.903,30 C 376.093,96.9686 330,195.815 330,300 C 330,404.185 376.093,503.031 455.903,570 L 144.097,570 C 223.907,503.031 270,404.185 270,300 C 270,195.815 223.907,96.9686 144.097,30 L 455.903,30 z "
           id="path2327"
           style="fill:#800080" />
      </g>
    </g>
  </g>
</svg>
