<?xml version="1.0" encoding="utf-8"?>
<!-- Generator: Adobe Illustrator 15.1.0, SVG Export Plug-In  -->
<!DOCTYPE svg PUBLIC "-//W3C//DTD SVG 1.1 Basic//EN" "http://www.w3.org/Graphics/SVG/1.1/DTD/svg11-basic.dtd" [
	<!ENTITY ns_flows "http://ns.adobe.com/Flows/1.0/">
]>
<svg version="1.1" baseProfile="basic"
	 xmlns="http://www.w3.org/2000/svg" xmlns:xlink="http://www.w3.org/1999/xlink" xmlns:a="http://ns.adobe.com/AdobeSVGViewerExtensions/3.0/"
	 x="0px" y="0px" width="500px" height="501px" viewBox="0 -0.816 500 501"
	 overflow="visible" xml:space="preserve">
<defs>
</defs>
<rect fill="#FFFFFF" width="500" height="499.377"/>
<path fill="#5FC8FF" d="M326.669,343.425c17.824,12.006,11.659,26.073,29.183,36.065c8.79,5.011,22.834,6.66,34.015,0.237
	c8.116-4.661,18.068-10.18,25.051-16.053c5.683-4.779,17.818-15.304,22.655-20.25H326.669z"/>
<path fill="none" stroke="#222221" stroke-width="0.5" stroke-linecap="round" stroke-linejoin="round" stroke-miterlimit="10" d="
	M445.29,309.318c1.428-6.184,3.091-18.389,3.091-18.389H333.492l4.044,18.389H445.29z"/>
<line fill="none" stroke="#222221" stroke-width="0.5" stroke-linecap="round" stroke-linejoin="round" stroke-miterlimit="10" x1="280.923" y1="430.557" x2="413.193" y2="430.557"/>
<line fill="none" stroke="#222221" stroke-width="0.5" stroke-linecap="round" stroke-linejoin="round" stroke-miterlimit="10" x1="299.358" y1="290.93" x2="314.7" y2="290.93"/>
<line fill="none" stroke="#222221" stroke-width="0.5" stroke-linecap="round" stroke-linejoin="round" stroke-miterlimit="10" x1="299.358" y1="293.784" x2="314.7" y2="293.784"/>
<path fill="#5FC8FF" d="M368.772,144.606c-3.755,3.274-7.455,5.915-10.795,7.324c-4.848,2.036-9.15-3.83-11.201-7.323h-39.692
	c14.279-0.214,24.976,32.112,43.768,32.112c17.84,0,35.914-15.985,48.931-32.113H368.772z"/>
<path id="XMLID_1_" fill="#5FC8FF" d="M337.007,111.334c6.629,2.498,18.089,6.457,28.422,6.587
	c15.225,0.192,33.064-6.587,33.064-6.587H337.007z"/>
<line fill="none" stroke="#222221" stroke-width="0.5" stroke-linecap="round" stroke-linejoin="round" stroke-miterlimit="10" x1="285.744" y1="120.42" x2="285.744" y2="145.396"/>
<line fill="none" stroke="#222221" stroke-width="0.5" stroke-linecap="round" stroke-linejoin="round" stroke-miterlimit="10" x1="300.015" y1="55.48" x2="300.015" y2="71.655"/>
<path fill="none" stroke="#222221" stroke-width="0.5" stroke-linecap="round" stroke-linejoin="round" stroke-miterlimit="10" d="
	M437.978,72.441c1.667-5.827,3.332-18.388,3.332-18.388H326.419l3.806,18.388H437.978z"/>
<line fill="none" stroke="#222221" stroke-width="0.5" stroke-linecap="round" stroke-linejoin="round" stroke-miterlimit="10" x1="334.77" y1="193.681" x2="420.629" y2="193.681"/>
<path fill="#9C9B9B" stroke="#222221" stroke-width="0.5" stroke-miterlimit="10" d="M408.29,136.705
	c18.171-21.408,40.754-48.044,41.583-81.19c0.008-0.384-0.137-0.756-0.406-1.031c-0.269-0.276-0.637-0.431-1.021-0.431h-6.9
	c-0.689,0-1.284,0.497-1.403,1.179c-0.02,0.107-1.899,10.685-3.726,15.252c-0.293,0.732,0.062,1.562,0.795,1.854
	c0.733,0.293,1.562-0.063,1.854-0.793c1.579-3.946,3.115-11.676,3.671-14.638h4.232c-1.43,31.504-23.292,57.26-40.911,78.017
	c-3.062,3.607-5.955,7.015-8.671,10.357c-11.546,14.208-30.768,30.799-46.943,30.799c-9.346,0-16.701-8.748-23.813-17.206
	c-6.445-7.666-12.534-14.908-19.79-14.908c-0.055,0-0.11,0-0.165,0.001h-19.504c-0.789,0-1.428,0.639-1.428,1.428
	c0,0.788,0.639,1.427,1.428,1.427h19.526c0.04-0.001,0.079-0.001,0.118-0.001c5.951,0,11.625,6.749,17.63,13.89
	c3.64,4.329,7.529,8.947,11.867,12.454c-0.564,2.119-2.555,9.667-2.976,12.195c-0.504,3.024-0.029,6.908-0.008,7.07
	c0.09,0.722,0.704,1.251,1.414,1.251c0.059,0,0.118-0.005,0.178-0.012c0.783-0.097,1.337-0.811,1.24-1.593
	c-0.005-0.036-0.443-3.638-0.009-6.249c0.343-2.059,1.872-7.957,2.631-10.843c3.552,2.394,7.401,3.95,11.66,3.95
	c17.178,0,37.217-17.158,49.158-31.853c2.029-2.498,4.197-5.072,6.431-7.709c2.455,9.451,10.563,40.611,11.794,44.51
	c1.327,4.198,1.128,8.253,1.125,8.293c-0.042,0.787,0.561,1.46,1.348,1.502c0.027,0.001,0.053,0.001,0.08,0.001
	c0.751,0,1.381-0.587,1.423-1.346c0.011-0.186,0.236-4.597-1.253-9.309C419.249,178.904,409.726,142.243,408.29,136.705z"/>
<path fill="#9C9B9B" stroke="#222221" stroke-width="0.5" stroke-miterlimit="10" d="M287.171,121.847h21.874
	c26.506,0.159,33.513,20.522,33.799,21.389c0.016,0.049,0.048,0.087,0.068,0.133l-0.016,0.006
	c0.244,0.545,5.413,11.858,12.995,11.857c1.022,0,2.091-0.207,3.194-0.674c16.364-6.904,39.596-39.89,40.576-41.291
	c0.339-0.486,0.345-1.13,0.012-1.621c-0.332-0.49-0.936-0.72-1.511-0.586c-0.177,0.042-17.851,5.623-32.716,5.433
	c-13.767-0.172-27.956-1.811-32.081-12.213L322.783,71.22c-0.188-0.592-0.739-0.993-1.359-0.993h-19.981
	c-0.788,0-1.428,0.64-1.428,1.428s0.64,1.427,1.428,1.427h18.939l9.958,31.101l-0.069,0.022c0.117,0.368,0.274,0.689,0.409,1.038
	l8.569,26.763c-5.38-6.204-14.761-12.92-30.194-13.012h-21.883c-0.789,0-1.428,0.639-1.428,1.428
	C285.744,121.208,286.383,121.847,287.171,121.847z M335.944,112.327c6.973,5.289,18.349,6.881,29.468,7.021
	c11.074,0.141,23.669-3.498,29.742-4.723c-6.198,8.398-24.348,31.891-37.177,37.306c-6.489,2.726-12.002-8.709-12.445-9.657
	L335.944,112.327z"/>
<path fill="#9C9B9B" stroke="#222221" stroke-width="0.5" stroke-miterlimit="10" d="M301.443,56.907h24.061l3.088,14.406
	c0.144,0.67,0.735,1.128,1.394,1.128c0.099,0,0.2-0.01,0.3-0.032c0.771-0.166,1.263-0.924,1.097-1.694l-3.33-15.534
	c-0.141-0.659-0.722-1.128-1.396-1.128h-25.214c-0.788,0-1.428,0.639-1.428,1.427C300.015,56.269,300.655,56.907,301.443,56.907z"/>
<path fill="#5FC8FF" d="M107.057,343.365c13.134,11.273,37.253,33.997,40.898,36.065c8.801,4.995,22.835,6.66,34.015,0.237
	c8.116-4.662,8.801-21.409,16.275-26.642c4.341-3.039,8.683-6.276,12.892-9.661H107.057z"/>
<path fill="#5FC8FF" d="M128.072,392.183h-19.395c4.597,7.702,6.984,13.606,4.072,15.552c-3.83,2.562-8.826-5.14-15.516-15.552
	H64.521c13.084,0,23.502,34.582,42.294,34.582C121.58,426.765,138.468,420.747,128.072,392.183z"/>
<polygon fill="#222221" points="88.498,295.199 87.071,297.013 86.762,297.013 86.762,298.44 87.763,298.44 89.19,296.626 
	103.235,296.626 103.235,295.199 "/>
<polygon fill="#222221" points="86.347,297.013 85.86,297.013 84.433,295.199 72.075,295.199 72.075,296.626 83.74,296.626 
	85.167,298.44 86.347,298.44 "/>
<polygon fill="#222221" points="89.19,304.297 87.763,302.484 86.762,302.484 86.762,303.911 87.071,303.911 88.498,305.725 
	103.235,305.725 103.235,304.297 "/>
<polygon fill="#222221" points="86.347,302.484 85.167,302.484 83.74,304.297 72.075,304.297 72.075,305.725 84.433,305.725 
	85.86,303.911 86.347,303.911 "/>
<line fill="none" stroke="#222221" stroke-width="2" stroke-linecap="round" stroke-linejoin="round" stroke-miterlimit="10" x1="72.075" y1="292.498" x2="72.075" y2="294.879"/>
<path fill="none" stroke="#222221" stroke-width="0.5" stroke-linecap="round" stroke-linejoin="round" stroke-miterlimit="10" d="
	M237.244,309.257c1.576-6.184,3.241-18.388,3.241-18.388h-114.89l3.895,18.388H237.244z"/>
<line fill="none" stroke="#222221" stroke-width="0.5" stroke-linecap="round" stroke-linejoin="round" stroke-miterlimit="10" x1="78.735" y1="430.631" x2="223.836" y2="430.495"/>
<line fill="none" stroke="#222221" stroke-width="0.5" stroke-linecap="round" stroke-linejoin="round" stroke-miterlimit="10" x1="34.446" y1="421.533" x2="56.375" y2="421.533"/>
<line fill="none" stroke="#222221" stroke-width="2" stroke-linecap="round" stroke-linejoin="round" stroke-miterlimit="10" x1="71.599" y1="306.017" x2="71.599" y2="308.471"/>
<path fill="#9C9B9B" stroke="#222221" stroke-width="0.5" stroke-miterlimit="10" d="M249.048,292.332
	c0.01-0.385-0.137-0.757-0.406-1.032s-0.636-0.43-1.021-0.43h-6.898c-0.693,0-1.285,0.497-1.405,1.179
	c-0.02,0.107-1.898,10.685-3.726,15.252c-0.293,0.731,0.062,1.562,0.795,1.854c0.726,0.292,1.561-0.061,1.855-0.794
	c1.579-3.945,3.114-11.675,3.67-14.637h4.204c-1.901,22.998-34.522,48.215-48.689,58.133c-3.953,2.768-6.098,8.266-8.173,13.586
	c-2.075,5.318-4.223,10.82-7.994,12.986c-10.988,6.312-24.601,4.299-32.599-0.242c-1.839-1.043-9.3-7.97-17.197-15.307
	c-6.857-6.367-14.63-13.586-20.638-18.741c-4.873-4.184-7.622-2.928-8.825-1.808c-1.877,1.744-2.043,5.188-0.863,6.785
	c29.814,40.329,31.116,58.624,26.958,66.866c-3.9,7.733-13.724,9.355-21.279,9.355c-9.326,0-17.567-10.414-24.838-19.604
	c-6.667-8.428-12.963-16.386-19.85-16.386c-4.965,0-7.18,3.131-7.18,10.15v20.607c0,0.789,0.639,1.427,1.427,1.427
	c0.789,0,1.427-0.638,1.427-1.427v-20.607c0-7.296,2.5-7.296,4.325-7.296c4.783,0,9.85,5.611,15.18,12.246v24.755
	c0,0.789,0.639,1.428,1.428,1.428c0.788,0,1.427-0.639,1.427-1.428v-21.165c7.57,9.562,16.142,20.154,26.654,20.154
	c11.984,0,20.223-3.777,23.827-10.925c6.573-13.031-2.583-36.529-27.211-69.847c-0.301-0.409-0.319-2.228,0.511-2.999
	c0.851-0.792,2.728-0.089,5.023,1.882c5.965,5.12,13.716,12.318,20.554,18.67c9.674,8.982,15.706,14.548,17.731,15.696
	c8.682,4.93,23.473,7.105,35.43,0.235c4.644-2.668,6.977-8.646,9.232-14.427c1.549-3.97,3.153-8.022,5.414-10.644
	c3.117,8.353,22.663,60.761,23.958,64.865c1.326,4.196,1.128,8.25,1.126,8.291c-0.042,0.787,0.562,1.459,1.348,1.503
	c0.025,0,0.052,0,0.079,0c0.753,0,1.381-0.585,1.423-1.346c0.011-0.184,0.234-4.597-1.253-9.308
	c-1.41-4.466-23.096-62.567-24.391-66.034C214.719,343.167,248.438,316.72,249.048,292.332z"/>
<path fill="#9C9B9B" stroke="#222221" stroke-width="0.5" stroke-miterlimit="10" d="M97.084,396.412
	c6.788,9.113,11.692,15.702,16.459,12.51c0.718-0.481,1.623-1.418,1.852-3.16c1.491-11.316-30.082-48.075-35.233-53.983v-35.74
	h3.501c0.788,0,1.427-0.64,1.427-1.428c0-0.788-0.639-1.427-1.427-1.427h-3.501v-4.711c0-0.789-0.639-1.427-1.427-1.427h-6.661
	c-0.789,0-1.427,0.639-1.427,1.427c0,0.788,0.639,1.427,1.427,1.427h5.233v42.415v18.886c-5.699-3.771-12.118-6.06-19.387-5.441
	c-11.763,0.987-24.871,11.874-24.871,25.918c0,8.563-0.031,28.431-0.031,28.431s0,1.427,1.427,1.427
	c1.473,0,1.428-1.427,1.428-1.427s0.031-19.867,0.031-28.431c0-12.137,11.75-22.191,22.255-23.075
	C75.308,367.188,87.888,384.069,97.084,396.412z M112.566,405.387c-0.098,0.742-0.395,1.018-0.609,1.163
	c-2.51,1.675-7.404-4.889-12.583-11.842c-5.239-7.032-11.531-15.484-19.211-21.456v-17.104
	C91.472,369.395,113.634,397.283,112.566,405.387z"/>
<path fill="#9C9B9B" stroke="#222221" stroke-width="0.5" stroke-miterlimit="10" d="M72.075,293.724h20.933v1.156
	c0,0.788,0.639,1.427,1.427,1.427c0.788,0,1.427-0.639,1.427-1.427v-1.156h28.818l3.088,14.406c0.144,0.671,0.735,1.128,1.394,1.128
	c0.099,0,0.2-0.009,0.301-0.031c0.771-0.165,1.262-0.924,1.096-1.695l-3.33-15.534c-0.142-0.658-0.723-1.128-1.396-1.128H72.075
	c-0.789,0-1.427,0.639-1.427,1.427C70.647,293.085,71.286,293.724,72.075,293.724z"/>
<path fill="#9C9B9B" stroke="#222221" stroke-width="0.5" stroke-miterlimit="10" d="M118.741,324.965l-22.879-11.244v-7.213
	c0-0.789-0.639-1.427-1.427-1.427c-0.789,0-1.427,0.639-1.427,1.427v6.675h-5.233c-0.789,0-1.427,0.639-1.427,1.427
	c0,0.788,0.639,1.428,1.427,1.428h6.329l23.272,11.438l41.165,29.564c0.252,0.182,0.543,0.268,0.831,0.268
	c0.444,0,0.882-0.206,1.16-0.594c0.46-0.642,0.314-1.532-0.326-1.993l-41.261-29.633C118.88,325.041,118.812,325,118.741,324.965z"
	/>
<path fill="#9C9B9B" stroke="#222221" stroke-width="0.5" stroke-miterlimit="10" d="M119.648,324.007
	c0.604,0,1.166-0.386,1.359-0.993l4.519-14.107c0.241-0.75-0.173-1.554-0.923-1.794c-0.75-0.24-1.554,0.173-1.794,0.923
	l-4.52,14.107c-0.24,0.751,0.173,1.555,0.924,1.794C119.358,323.984,119.504,324.007,119.648,324.007z"/>
<line fill="none" stroke="#000000" stroke-width="0.5" stroke-miterlimit="10" x1="70.647" y1="292.296" x2="70.647" y2="308.471"/>
<rect x="102.521" y="296.017" width="0.714" height="8.972"/>
<path fill="#5FC8FF" d="M154.344,145.819c-0.831,1.845-1.465,3.685-1.87,5.521c-3.568,16.176-11.656,26.167-29.496,26.167
	c-18.792,0-29.49-32.327-43.768-32.113L154.344,145.819z"/>
<line fill="none" stroke="#222221" stroke-width="0.5" stroke-linecap="round" stroke-linejoin="round" stroke-miterlimit="10" x1="58.278" y1="120.42" x2="58.278" y2="145.396"/>
<line fill="none" stroke="#222221" stroke-width="0.5" stroke-linecap="round" stroke-linejoin="round" stroke-miterlimit="10" x1="72.55" y1="55.681" x2="72.55" y2="71.655"/>
<path fill="none" stroke="#222221" stroke-width="0.5" stroke-linecap="round" stroke-linejoin="round" stroke-miterlimit="10" d="
	M210.514,72.441c1.665-5.827,3.331-18.388,3.331-18.388H98.954l3.805,18.388H210.514z"/>
<line fill="none" stroke="#222221" stroke-width="0.5" stroke-linecap="round" stroke-linejoin="round" stroke-miterlimit="10" x1="107.066" y1="193.681" x2="192.926" y2="193.681"/>
<path fill="#9C9B9B" stroke="#222221" stroke-width="0.5" stroke-miterlimit="10" d="M222.407,55.515
	c0.01-0.384-0.136-0.756-0.405-1.031c-0.268-0.276-0.637-0.431-1.021-0.431h-6.898c-0.693,0-1.285,0.497-1.406,1.179
	c-0.019,0.107-1.897,10.685-3.725,15.252c-0.293,0.732,0.063,1.562,0.795,1.854c0.733,0.293,1.562-0.063,1.855-0.793
	c1.578-3.946,3.114-11.676,3.67-14.638h4.215c-1.346,20.197-19.878,37.812-37.815,54.862c-14.27,13.564-27.748,26.376-30.591,39.264
	c-3.82,17.323-12.487,25.047-28.102,25.047c-9.347,0-16.701-8.748-23.814-17.206c-6.445-7.666-12.533-14.908-19.79-14.908
	c-0.055,0-0.11,0-0.164,0.001H59.705c-0.788,0-1.427,0.639-1.427,1.428c0,0.788,0.639,1.427,1.427,1.427h19.527
	c0.039-0.001,0.079-0.001,0.117-0.001c5.952,0,11.625,6.749,17.63,13.89c3.641,4.329,7.529,8.947,11.867,12.454
	c-0.564,2.119-2.555,9.667-2.976,12.195c-0.504,3.024-0.029,6.908-0.008,7.07c0.09,0.722,0.705,1.251,1.414,1.251
	c0.059,0,0.118-0.005,0.178-0.012c0.782-0.097,1.337-0.811,1.24-1.593c-0.004-0.036-0.444-3.638-0.008-6.249
	c0.343-2.059,1.872-7.957,2.631-10.843c3.552,2.394,7.402,3.95,11.66,3.95c16.968,0,26.784-8.67,30.89-27.286
	c2.014-9.127,10.078-18.534,19.936-28.326c2.99,11.066,15.284,56.526,16.558,60.56c1.326,4.198,1.127,8.253,1.125,8.293
	c-0.042,0.787,0.561,1.46,1.347,1.502c0.027,0.001,0.053,0.001,0.079,0.001c0.753,0,1.382-0.587,1.424-1.346
	c0.011-0.186,0.235-4.597-1.253-9.309c-1.312-4.154-15.039-54.953-16.944-62c2.435-2.373,4.953-4.767,7.499-7.187
	C201.552,96.81,221.857,77.509,222.407,55.515z"/>
<path fill="#9C9B9B" stroke="#222221" stroke-width="0.5" stroke-miterlimit="10" d="M59.705,121.847h21.875
	c26.517,0.159,36.828,31.465,36.945,31.83c0,0,0,0,0,0.001c0.193,0.606,0.755,0.994,1.359,0.994c0.143,0,0.289-0.022,0.433-0.068
	c0.751-0.238,1.167-1.04,0.928-1.792l-25.927-81.59c-0.188-0.592-0.739-0.996-1.361-0.996H73.977c-0.788,0-1.427,0.64-1.427,1.428
	s0.639,1.427,1.427,1.427h18.938l20.525,64.587c-6.23-8.957-16.492-18.585-31.851-18.677H59.705c-0.788,0-1.427,0.639-1.427,1.428
	C58.278,121.208,58.917,121.847,59.705,121.847z"/>
<path fill="#9C9B9B" stroke="#222221" stroke-width="0.5" stroke-miterlimit="10" d="M73.977,56.907h24.061l3.089,14.406
	c0.143,0.67,0.735,1.128,1.394,1.128c0.099,0,0.2-0.01,0.3-0.032c0.771-0.166,1.262-0.924,1.096-1.694l-3.33-15.534
	c-0.141-0.659-0.723-1.128-1.395-1.128H73.977c-0.788,0-1.427,0.639-1.427,1.427C72.55,56.269,73.189,56.907,73.977,56.907z"/>
<g>
	<path d="M106.449,214.863v6.161h9.242v1.857h-9.242v6.714h-2.246v-16.567h11.77v1.834H106.449z"/>
	<path d="M118.547,214.169v-2.022h2.116v2.022H118.547z M118.547,229.595v-12.722h2.116v12.722H118.547z"/>
	<path d="M128.729,234.592c-1.388,0-2.493-0.272-3.316-0.817c-0.823-0.545-1.352-1.319-1.587-2.322l2.128-0.306
		c0.141,0.588,0.453,1.041,0.935,1.358c0.482,0.317,1.115,0.476,1.899,0.476c2.108,0,3.163-1.234,3.163-3.704v-2.046h-0.023
		c-0.4,0.815-0.949,1.429-1.646,1.84c-0.698,0.412-1.513,0.618-2.445,0.618c-1.56,0-2.707-0.518-3.439-1.552
		s-1.099-2.661-1.099-4.879c0-2.25,0.394-3.91,1.182-4.979s1.985-1.605,3.592-1.605c0.901,0,1.684,0.206,2.346,0.617
		c0.663,0.412,1.174,0.998,1.535,1.758h0.023c0-0.235,0.016-0.643,0.047-1.223s0.063-0.897,0.094-0.953h2.011
		c-0.047,0.423-0.071,1.301-0.071,2.634v9.724C134.056,232.805,132.28,234.592,128.729,234.592z M131.951,223.234
		c0-1.035-0.141-1.926-0.423-2.675s-0.68-1.321-1.193-1.717c-0.514-0.396-1.096-0.594-1.746-0.594c-1.082,0-1.87,0.392-2.363,1.176
		c-0.494,0.784-0.741,2.054-0.741,3.81c0,1.74,0.231,2.99,0.693,3.75c0.463,0.761,1.254,1.141,2.375,1.141
		c0.666,0,1.258-0.196,1.775-0.588c0.517-0.392,0.917-0.954,1.199-1.687S131.951,224.246,131.951,223.234z"/>
	<path d="M139.371,216.873v8.066c0,0.839,0.083,1.49,0.247,1.952s0.427,0.795,0.788,0.999c0.36,0.204,0.89,0.306,1.587,0.306
		c1.019,0,1.822-0.349,2.41-1.046c0.588-0.697,0.882-1.666,0.882-2.904v-7.373h2.117v10.006c0,1.481,0.023,2.387,0.07,2.716h-1.999
		c-0.008-0.039-0.016-0.145-0.024-0.317s-0.018-0.371-0.029-0.594c-0.012-0.224-0.025-0.645-0.041-1.264h-0.035
		c-0.486,0.878-1.048,1.499-1.688,1.864c-0.639,0.364-1.433,0.547-2.381,0.547c-1.396,0-2.416-0.347-3.063-1.041
		c-0.646-0.694-0.97-1.84-0.97-3.439v-8.478H139.371z"/>
	<path d="M150.74,229.595v-9.759c0-0.894-0.023-1.881-0.07-2.963h1.999c0.063,1.442,0.094,2.309,0.094,2.599h0.047
		c0.337-1.089,0.725-1.834,1.164-2.234s1.059-0.6,1.858-0.6c0.282,0,0.568,0.039,0.858,0.118v1.94
		c-0.282-0.078-0.659-0.118-1.129-0.118c-0.878,0-1.548,0.378-2.011,1.135c-0.462,0.756-0.693,1.84-0.693,3.251v6.631H150.74z"/>
	<path d="M160.334,223.681c0,1.458,0.302,2.583,0.905,3.375c0.604,0.792,1.485,1.188,2.646,1.188c0.917,0,1.652-0.184,2.205-0.553
		c0.553-0.368,0.927-0.835,1.123-1.399l1.858,0.529c-0.761,2.007-2.489,3.01-5.186,3.01c-1.881,0-3.314-0.561-4.297-1.682
		c-0.984-1.121-1.476-2.787-1.476-4.997c0-2.101,0.492-3.711,1.476-4.833c0.983-1.121,2.389-1.681,4.215-1.681
		c3.739,0,5.608,2.253,5.608,6.761v0.282H160.334z M167.225,222.059c-0.118-1.34-0.458-2.318-1.023-2.934s-1.375-0.923-2.434-0.923
		c-1.027,0-1.84,0.343-2.439,1.029c-0.6,0.686-0.923,1.629-0.97,2.828H167.225z"/>
	<path d="M179.006,229.595v-1.799h4.221v-12.746l-3.739,2.669v-1.999l3.915-2.693h1.952v14.768h4.033v1.799H179.006z"/>
</g>
<g>
	<path d="M326.727,214.863v6.161h9.242v1.857h-9.242v6.714h-2.246v-16.567h11.77v1.834H326.727z"/>
	<path d="M338.825,214.169v-2.022h2.117v2.022H338.825z M338.825,229.595v-12.722h2.117v12.722H338.825z"/>
	<path d="M349.008,234.592c-1.388,0-2.493-0.272-3.315-0.817c-0.823-0.545-1.353-1.319-1.588-2.322l2.128-0.306
		c0.142,0.588,0.453,1.041,0.936,1.358c0.481,0.317,1.114,0.476,1.898,0.476c2.108,0,3.163-1.234,3.163-3.704v-2.046h-0.023
		c-0.4,0.815-0.948,1.429-1.646,1.84c-0.697,0.412-1.513,0.618-2.445,0.618c-1.56,0-2.706-0.518-3.439-1.552
		c-0.732-1.035-1.1-2.661-1.1-4.879c0-2.25,0.395-3.91,1.182-4.979c0.788-1.07,1.985-1.605,3.593-1.605
		c0.901,0,1.683,0.206,2.346,0.617c0.662,0.412,1.174,0.998,1.534,1.758h0.023c0-0.235,0.016-0.643,0.047-1.223
		s0.062-0.897,0.094-0.953h2.011c-0.047,0.423-0.07,1.301-0.07,2.634v9.724C354.334,232.805,352.559,234.592,349.008,234.592z
		 M352.229,223.234c0-1.035-0.142-1.926-0.424-2.675s-0.68-1.321-1.193-1.717c-0.513-0.396-1.095-0.594-1.746-0.594
		c-1.081,0-1.869,0.392-2.363,1.176c-0.493,0.784-0.74,2.054-0.74,3.81c0,1.74,0.231,2.99,0.693,3.75
		c0.463,0.761,1.254,1.141,2.375,1.141c0.666,0,1.259-0.196,1.775-0.588c0.518-0.392,0.917-0.954,1.199-1.687
		S352.229,224.246,352.229,223.234z"/>
	<path d="M359.649,216.873v8.066c0,0.839,0.082,1.49,0.246,1.952c0.165,0.462,0.428,0.795,0.788,0.999
		c0.36,0.204,0.89,0.306,1.587,0.306c1.02,0,1.823-0.349,2.411-1.046c0.588-0.697,0.882-1.666,0.882-2.904v-7.373h2.116v10.006
		c0,1.481,0.023,2.387,0.07,2.716h-1.999c-0.008-0.039-0.016-0.145-0.023-0.317s-0.018-0.371-0.029-0.594
		c-0.012-0.224-0.025-0.645-0.041-1.264h-0.035c-0.486,0.878-1.049,1.499-1.688,1.864c-0.639,0.364-1.433,0.547-2.381,0.547
		c-1.396,0-2.416-0.347-3.062-1.041c-0.647-0.694-0.971-1.84-0.971-3.439v-8.478H359.649z"/>
	<path d="M371.019,229.595v-9.759c0-0.894-0.023-1.881-0.071-2.963h1.999c0.062,1.442,0.095,2.309,0.095,2.599h0.047
		c0.337-1.089,0.725-1.834,1.164-2.234c0.438-0.4,1.058-0.6,1.857-0.6c0.282,0,0.568,0.039,0.858,0.118v1.94
		c-0.282-0.078-0.658-0.118-1.129-0.118c-0.878,0-1.548,0.378-2.011,1.135c-0.462,0.756-0.693,1.84-0.693,3.251v6.631H371.019z"/>
	<path d="M380.613,223.681c0,1.458,0.302,2.583,0.905,3.375c0.604,0.792,1.485,1.188,2.646,1.188c0.917,0,1.652-0.184,2.205-0.553
		c0.553-0.368,0.927-0.835,1.122-1.399l1.858,0.529c-0.761,2.007-2.489,3.01-5.186,3.01c-1.881,0-3.313-0.561-4.297-1.682
		c-0.984-1.121-1.477-2.787-1.477-4.997c0-2.101,0.492-3.711,1.477-4.833c0.983-1.121,2.389-1.681,4.215-1.681
		c3.739,0,5.608,2.253,5.608,6.761v0.282H380.613z M387.503,222.059c-0.117-1.34-0.458-2.318-1.022-2.934s-1.376-0.923-2.434-0.923
		c-1.027,0-1.841,0.343-2.44,1.029c-0.6,0.686-0.923,1.629-0.97,2.828H387.503z"/>
	<path d="M398.661,229.595v-1.493c0.399-0.917,0.888-1.727,1.464-2.428c0.576-0.701,1.182-1.336,1.816-1.905
		c0.635-0.568,1.265-1.095,1.888-1.581c0.623-0.486,1.186-0.972,1.687-1.458c0.502-0.486,0.907-0.996,1.218-1.529
		c0.31-0.533,0.464-1.136,0.464-1.811c0-0.909-0.267-1.615-0.8-2.116c-0.532-0.502-1.273-0.753-2.222-0.753
		c-0.901,0-1.645,0.245-2.229,0.735c-0.584,0.49-0.927,1.178-1.028,2.063l-2.164-0.2c0.157-1.325,0.72-2.379,1.688-3.163
		c0.968-0.784,2.213-1.176,3.733-1.176c1.67,0,2.953,0.394,3.851,1.182c0.897,0.788,1.347,1.907,1.347,3.356
		c0,0.643-0.147,1.282-0.441,1.917c-0.294,0.635-0.73,1.27-1.311,1.904c-0.58,0.635-1.689,1.619-3.328,2.952
		c-0.901,0.737-1.618,1.401-2.151,1.993s-0.917,1.162-1.152,1.711h8.642v1.799H398.661z"/>
</g>
<g>
	<path d="M106.449,448.924v6.161h9.242v1.857h-9.242v6.714h-2.246V447.09h11.77v1.834H106.449z"/>
	<path d="M118.547,448.231v-2.022h2.116v2.022H118.547z M118.547,463.657v-12.722h2.116v12.722H118.547z"/>
	<path d="M128.729,468.654c-1.388,0-2.493-0.272-3.316-0.817c-0.823-0.545-1.352-1.318-1.587-2.322l2.128-0.306
		c0.141,0.588,0.453,1.041,0.935,1.358c0.482,0.317,1.115,0.477,1.899,0.477c2.108,0,3.163-1.235,3.163-3.704v-2.046h-0.023
		c-0.4,0.815-0.949,1.429-1.646,1.84c-0.698,0.412-1.513,0.617-2.445,0.617c-1.56,0-2.707-0.517-3.439-1.552
		c-0.733-1.034-1.099-2.661-1.099-4.88c0-2.249,0.394-3.909,1.182-4.979c0.788-1.069,1.985-1.604,3.592-1.604
		c0.901,0,1.684,0.206,2.346,0.617c0.663,0.412,1.174,0.998,1.535,1.758h0.023c0-0.235,0.016-0.643,0.047-1.223
		s0.063-0.897,0.094-0.952h2.011c-0.047,0.423-0.071,1.301-0.071,2.634v9.724C134.056,466.867,132.28,468.654,128.729,468.654z
		 M131.951,457.295c0-1.034-0.141-1.926-0.423-2.675c-0.282-0.748-0.68-1.32-1.193-1.717c-0.514-0.396-1.096-0.594-1.746-0.594
		c-1.082,0-1.87,0.393-2.363,1.176c-0.494,0.784-0.741,2.054-0.741,3.81c0,1.74,0.231,2.991,0.693,3.751
		c0.463,0.761,1.254,1.141,2.375,1.141c0.666,0,1.258-0.196,1.775-0.588c0.517-0.392,0.917-0.954,1.199-1.688
		C131.81,459.179,131.951,458.307,131.951,457.295z"/>
	<path d="M139.371,450.935V459c0,0.839,0.083,1.489,0.247,1.952c0.165,0.462,0.427,0.796,0.788,0.999
		c0.36,0.204,0.89,0.306,1.587,0.306c1.019,0,1.822-0.349,2.41-1.046c0.588-0.698,0.882-1.666,0.882-2.904v-7.372h2.117v10.006
		c0,1.481,0.023,2.387,0.07,2.716h-1.999c-0.008-0.039-0.016-0.145-0.024-0.317s-0.018-0.37-0.029-0.594s-0.025-0.645-0.041-1.264
		h-0.035c-0.486,0.878-1.048,1.499-1.688,1.863c-0.639,0.364-1.433,0.547-2.381,0.547c-1.396,0-2.416-0.347-3.063-1.041
		c-0.646-0.693-0.97-1.84-0.97-3.438v-8.478H139.371z"/>
	<path d="M150.74,463.657v-9.759c0-0.894-0.023-1.882-0.07-2.963h1.999c0.063,1.442,0.094,2.309,0.094,2.599h0.047
		c0.337-1.09,0.725-1.835,1.164-2.234s1.059-0.6,1.858-0.6c0.282,0,0.568,0.039,0.858,0.117v1.94
		c-0.282-0.078-0.659-0.117-1.129-0.117c-0.878,0-1.548,0.378-2.011,1.134c-0.462,0.757-0.693,1.841-0.693,3.251v6.632H150.74z"/>
	<path d="M160.334,457.743c0,1.458,0.302,2.583,0.905,3.374c0.604,0.792,1.485,1.188,2.646,1.188c0.917,0,1.652-0.184,2.205-0.552
		c0.553-0.369,0.927-0.835,1.123-1.399l1.858,0.529c-0.761,2.006-2.489,3.01-5.186,3.01c-1.881,0-3.314-0.561-4.297-1.682
		c-0.984-1.121-1.476-2.786-1.476-4.997c0-2.101,0.492-3.711,1.476-4.832c0.983-1.121,2.389-1.682,4.215-1.682
		c3.739,0,5.608,2.254,5.608,6.761v0.282H160.334z M167.225,456.12c-0.118-1.34-0.458-2.317-1.023-2.934
		c-0.564-0.615-1.375-0.923-2.434-0.923c-1.027,0-1.84,0.343-2.439,1.029c-0.6,0.686-0.923,1.628-0.97,2.827H167.225z"/>
	<path d="M189.506,459.083c0,1.529-0.486,2.713-1.458,3.552c-0.972,0.838-2.359,1.258-4.162,1.258c-1.678,0-3.016-0.378-4.016-1.135
		c-0.999-0.757-1.593-1.875-1.781-3.356l2.187-0.2c0.282,1.96,1.485,2.939,3.61,2.939c1.066,0,1.903-0.263,2.51-0.788
		s0.911-1.305,0.911-2.34c0-0.901-0.347-1.604-1.041-2.11s-1.695-0.759-3.004-0.759h-1.199v-1.834h1.152
		c1.16,0,2.06-0.253,2.698-0.758c0.639-0.506,0.958-1.205,0.958-2.1c0-0.885-0.261-1.585-0.782-2.099
		c-0.521-0.513-1.295-0.77-2.322-0.77c-0.933,0-1.688,0.239-2.264,0.717c-0.576,0.479-0.911,1.152-1.005,2.022l-2.128-0.165
		c0.157-1.355,0.719-2.414,1.688-3.174c0.968-0.761,2.212-1.141,3.733-1.141c1.662,0,2.953,0.386,3.874,1.158
		c0.921,0.771,1.382,1.848,1.382,3.228c0,1.058-0.296,1.918-0.888,2.58c-0.592,0.663-1.452,1.111-2.581,1.347v0.047
		c1.239,0.134,2.203,0.549,2.893,1.246C189.161,457.147,189.506,458.025,189.506,459.083z"/>
</g>
<g>
	<path d="M326.727,448.924v6.161h9.242v1.857h-9.242v6.714h-2.246V447.09h11.77v1.834H326.727z"/>
	<path d="M338.825,448.231v-2.022h2.117v2.022H338.825z M338.825,463.657v-12.722h2.117v12.722H338.825z"/>
	<path d="M349.008,468.654c-1.388,0-2.493-0.272-3.315-0.817c-0.823-0.545-1.353-1.318-1.588-2.322l2.128-0.306
		c0.142,0.588,0.453,1.041,0.936,1.358c0.481,0.317,1.114,0.477,1.898,0.477c2.108,0,3.163-1.235,3.163-3.704v-2.046h-0.023
		c-0.4,0.815-0.948,1.429-1.646,1.84c-0.697,0.412-1.513,0.617-2.445,0.617c-1.56,0-2.706-0.517-3.439-1.552
		c-0.732-1.034-1.1-2.661-1.1-4.88c0-2.249,0.395-3.909,1.182-4.979c0.788-1.069,1.985-1.604,3.593-1.604
		c0.901,0,1.683,0.206,2.346,0.617c0.662,0.412,1.174,0.998,1.534,1.758h0.023c0-0.235,0.016-0.643,0.047-1.223
		s0.062-0.897,0.094-0.952h2.011c-0.047,0.423-0.07,1.301-0.07,2.634v9.724C354.334,466.867,352.559,468.654,349.008,468.654z
		 M352.229,457.295c0-1.034-0.142-1.926-0.424-2.675c-0.282-0.748-0.68-1.32-1.193-1.717c-0.513-0.396-1.095-0.594-1.746-0.594
		c-1.081,0-1.869,0.393-2.363,1.176c-0.493,0.784-0.74,2.054-0.74,3.81c0,1.74,0.231,2.991,0.693,3.751
		c0.463,0.761,1.254,1.141,2.375,1.141c0.666,0,1.259-0.196,1.775-0.588c0.518-0.392,0.917-0.954,1.199-1.688
		C352.088,459.179,352.229,458.307,352.229,457.295z"/>
	<path d="M359.649,450.935V459c0,0.839,0.082,1.489,0.246,1.952c0.165,0.462,0.428,0.796,0.788,0.999
		c0.36,0.204,0.89,0.306,1.587,0.306c1.02,0,1.823-0.349,2.411-1.046c0.588-0.698,0.882-1.666,0.882-2.904v-7.372h2.116v10.006
		c0,1.481,0.023,2.387,0.07,2.716h-1.999c-0.008-0.039-0.016-0.145-0.023-0.317s-0.018-0.37-0.029-0.594s-0.025-0.645-0.041-1.264
		h-0.035c-0.486,0.878-1.049,1.499-1.688,1.863s-1.433,0.547-2.381,0.547c-1.396,0-2.416-0.347-3.062-1.041
		c-0.647-0.693-0.971-1.84-0.971-3.438v-8.478H359.649z"/>
	<path d="M371.019,463.657v-9.759c0-0.894-0.023-1.882-0.071-2.963h1.999c0.062,1.442,0.095,2.309,0.095,2.599h0.047
		c0.337-1.09,0.725-1.835,1.164-2.234c0.438-0.399,1.058-0.6,1.857-0.6c0.282,0,0.568,0.039,0.858,0.117v1.94
		c-0.282-0.078-0.658-0.117-1.129-0.117c-0.878,0-1.548,0.378-2.011,1.134c-0.462,0.757-0.693,1.841-0.693,3.251v6.632H371.019z"/>
	<path d="M380.613,457.743c0,1.458,0.302,2.583,0.905,3.374c0.604,0.792,1.485,1.188,2.646,1.188c0.917,0,1.652-0.184,2.205-0.552
		c0.553-0.369,0.927-0.835,1.122-1.399l1.858,0.529c-0.761,2.006-2.489,3.01-5.186,3.01c-1.881,0-3.313-0.561-4.297-1.682
		c-0.984-1.121-1.477-2.786-1.477-4.997c0-2.101,0.492-3.711,1.477-4.832c0.983-1.121,2.389-1.682,4.215-1.682
		c3.739,0,5.608,2.254,5.608,6.761v0.282H380.613z M387.503,456.12c-0.117-1.34-0.458-2.317-1.022-2.934
		c-0.564-0.615-1.376-0.923-2.434-0.923c-1.027,0-1.841,0.343-2.44,1.029c-0.6,0.686-0.923,1.628-0.97,2.827H387.503z"/>
	<path d="M407.809,459.906v3.751h-1.999v-3.751h-7.807v-1.646l7.584-11.17h2.222v11.146h2.328v1.669H407.809z M405.81,449.477
		c-0.016,0.047-0.125,0.255-0.329,0.623c-0.203,0.368-0.356,0.627-0.458,0.776l-4.245,6.255l-0.635,0.87l-0.188,0.235h5.854V449.477
		z"/>
</g>
<path fill="#9C9B9B" stroke="#222221" stroke-width="0.5" stroke-miterlimit="10" d="M471.217,292.393
	c0.01-0.384-0.136-0.757-0.405-1.032c-0.27-0.275-0.637-0.431-1.022-0.431H448.62c-0.693,0-1.284,0.497-1.405,1.18
	c-0.02,0.106-1.899,10.687-3.727,15.251c-0.293,0.731,0.062,1.562,0.796,1.855c0.725,0.292,1.561-0.062,1.855-0.795
	c1.579-3.945,3.113-11.675,3.669-14.637h18.461c-2.004,19.919-34.061,54.292-56.995,70.811c-8.463,6.094-12.777,8.559-19.309,12.287
	l-2.81,1.608c-10.802,6.205-23.966,3.921-32.685-0.285c-7.031-3.395-10.57-10.19-14.317-17.388
	c-3.979-7.642-8.094-15.545-16.75-19.045c-8.603-3.477-16.524-0.692-21.733,7.64c-8.702,13.918-7.6,40.203,6.863,53.234
	c6.202,5.589,13.503,5.369,19.943,5.169c1.297-0.04,2.577-0.069,3.838-0.07c4.861,0.026,8.68,1.545,11.35,4.513
	c5.534,6.152,4.557,16.624,4.545,16.729c-0.077,0.783,0.492,1.482,1.277,1.562c0.048,0.005,0.097,0.008,0.145,0.008
	c0.724,0,1.344-0.548,1.418-1.281c0.05-0.479,1.126-11.812-5.252-18.915c-3.23-3.598-7.762-5.439-13.466-5.471
	c-1.285,0-2.608,0.034-3.94,0.073c-6.191,0.196-12.597,0.384-17.946-4.438c-13.461-12.128-14.469-36.622-6.354-49.601
	c2.588-4.138,8.4-10.485,18.243-6.505c7.681,3.104,11.376,10.201,15.29,17.716c3.797,7.294,7.724,14.835,15.608,18.639
	c9.377,4.526,23.584,6.951,35.346,0.192l2.805-1.606c0.69-0.395,1.357-0.773,2.014-1.151c2.117,5.838,13.948,38.486,15.231,42.55
	c1.326,4.197,1.128,8.253,1.126,8.294c-0.042,0.786,0.562,1.459,1.349,1.501c0.025,0.002,0.053,0.002,0.078,0.002
	c0.752,0,1.382-0.587,1.424-1.347c0.011-0.185,0.233-4.597-1.255-9.309c-1.358-4.304-13.853-38.76-15.442-43.142
	c4.39-2.568,8.592-5.206,15.035-9.849C436.421,350,470.683,313.733,471.217,292.393z"/>
<path fill="#9C9B9B" stroke="#222221" stroke-width="0.5" stroke-miterlimit="10" d="M314.7,293.784h17.876l3.088,14.406
	c0.144,0.671,0.735,1.128,1.395,1.128c0.099,0,0.2-0.01,0.3-0.032c0.771-0.165,1.262-0.923,1.097-1.693l-3.332-15.535
	c-0.141-0.658-0.722-1.128-1.395-1.128H314.7c-0.788,0-1.427,0.639-1.427,1.427S313.912,293.784,314.7,293.784z"/>
<path fill="#9C9B9B" stroke="#222221" stroke-width="0.5" stroke-miterlimit="10" d="M386.238,375.28
	c0.221,0.129,0.468,0.192,0.714,0.192s0.492-0.062,0.712-0.189c1.181-0.679,29.064-16.772,42.439-31.217
	c20.543-22.187,21.118-34.963,21.132-35.496c0.022-0.784-0.595-1.435-1.379-1.46c-0.839-0.019-1.443,0.592-1.473,1.375
	c-0.006,0.122-0.703,12.396-20.375,33.643c-6.301,6.803-16.156,14.133-24.713,19.923c-0.917,0.407-5.771,2.546-10.033,3.918
	l-6.747,2.173c-0.59,0.19-0.99,0.738-0.99,1.357v4.546C385.525,374.553,385.797,375.025,386.238,375.28z M388.381,370.54
	l3.524-1.135c-1.403,0.864-2.599,1.588-3.524,2.141V370.54z"/>
<path fill="#9C9B9B" stroke="#222221" stroke-width="0.5" stroke-miterlimit="10" d="M330.838,418.028
	c-1.518-0.073-2.986-0.024-4.541,0.024c-5.349,0.172-10.881,0.343-18.89-4.462c-10.572-6.343-23.365-30.608-19.375-51.134
	c3.259-16.761,9.757-26.793,19.865-30.672c18.578-7.129,28.263,1.133,29.331,2.125c0.616,1.054,1.277,2.09,2.018,3.083
	c3.599,4.814,6.23,9.31,8.553,13.274c5.503,9.397,9.85,16.82,22.453,20.6c0.136,0.04,0.274,0.061,0.411,0.061
	c0.613,0,1.182-0.399,1.366-1.018c0.227-0.755-0.202-1.55-0.957-1.777c-11.528-3.458-15.421-10.106-20.81-19.308
	c-2.361-4.03-5.036-8.598-8.729-13.541c-7.917-10.592-7.807-26.573-7.805-26.733c0.004-0.382-0.144-0.75-0.412-1.021
	c-0.268-0.272-0.633-0.425-1.015-0.425h-49.952v-13.32h17.007c0.788,0,1.427-0.639,1.427-1.427s-0.639-1.427-1.427-1.427h-18.435
	c-0.789,0-1.427,0.639-1.427,1.427v136.772c0,0.789,0.639,1.428,1.427,1.428c0.788,0,1.427-0.639,1.427-1.428v-119.17h48.547
	c0.109,3.203,0.718,11.155,3.877,18.945c-5.083-2.542-14.391-4.968-27.9,0.215c-11.101,4.259-18.181,14.986-21.643,32.793
	c-4.212,21.662,9.445,47.368,20.707,54.124c8.729,5.238,14.953,5.044,20.449,4.867c1.497-0.047,2.91-0.089,4.317-0.024
	c1.552,0.072,2.706,0.585,3.526,1.567c1.939,2.318,1.421,6.452,1.415,6.493c-0.105,0.782,0.442,1.498,1.222,1.605
	c0.065,0.008,0.13,0.012,0.194,0.012c0.703,0,1.315-0.518,1.412-1.234c0.029-0.219,0.698-5.402-2.043-8.695
	C335.087,419.013,333.205,418.138,330.838,418.028z"/>
<g>
	<line fill="none" stroke="#5FC8FF" stroke-width="3" stroke-miterlimit="10" x1="307.083" y1="281.13" x2="307.083" y2="299.838"/>
	<g>
		<polygon fill="#5FC8FF" points="303.811,298.875 307.101,304.575 310.392,298.875 		"/>
	</g>
</g>
<g>
	<line fill="none" stroke="#5FC8FF" stroke-width="3" stroke-miterlimit="10" x1="343.73" y1="415.624" x2="343.73" y2="438.478"/>
	<g>
		<polygon fill="#5FC8FF" points="340.458,437.515 343.748,443.214 347.039,437.515 		"/>
	</g>
</g>
<polygon fill="#FFFFFF" points="398.414,367.848 395.581,371.192 399.706,369.713 399.293,369.115 401.524,367.568 401.006,366.823 
	398.774,368.37 "/>
<polygon fill="#FFFFFF" points="383.643,374.854 379.72,376.811 384.094,377.078 383.95,376.366 386.611,375.824 386.43,374.935 
	383.769,375.477 "/>
<g>
	<line fill="none" stroke="#5FC8FF" stroke-width="3" stroke-miterlimit="10" x1="49.945" y1="300.064" x2="68.653" y2="300.064"/>
	<g>
		<polygon fill="#5FC8FF" points="67.69,303.336 73.39,300.046 67.69,296.755 		"/>
	</g>
</g>
<g>
	<line fill="none" stroke="#5FC8FF" stroke-width="3" stroke-miterlimit="10" x1="45.411" y1="407.737" x2="45.411" y2="430.591"/>
	<g>
		<polygon fill="#5FC8FF" points="42.138,429.628 45.429,435.328 48.72,429.628 		"/>
	</g>
</g>
<g>
	<line fill="none" stroke="#5FC8FF" stroke-width="3" stroke-miterlimit="10" x1="62.731" y1="63.247" x2="81.439" y2="63.247"/>
	<g>
		<polygon fill="#5FC8FF" points="80.476,66.519 86.175,63.229 80.476,59.938 		"/>
	</g>
</g>
<g>
	<line fill="none" stroke="#5FC8FF" stroke-width="3" stroke-miterlimit="10" x1="72.245" y1="132.907" x2="49.39" y2="132.907"/>
	<g>
		<polygon fill="#5FC8FF" points="50.353,129.635 44.654,132.925 50.353,136.216 		"/>
	</g>
</g>
<g>
	<line fill="none" stroke="#5FC8FF" stroke-width="3" stroke-miterlimit="10" x1="288.944" y1="63.668" x2="307.652" y2="63.668"/>
	<g>
		<polygon fill="#5FC8FF" points="306.689,66.94 312.389,63.65 306.689,60.359 		"/>
	</g>
</g>
<g>
	
		<line fill="none" stroke="#5FC8FF" stroke-width="3" stroke-miterlimit="10" x1="298.458" y1="133.328" x2="275.603" y2="133.328"/>
	<g>
		<polygon fill="#5FC8FF" points="276.566,130.056 270.867,133.346 276.566,136.637 		"/>
	</g>
</g>
</svg>
