<?xml version="1.0" encoding="UTF-8" standalone="no"?>
<!DOCTYPE svg PUBLIC "-//W3C//DTD SVG 1.1//EN" "http://www.w3.org/Graphics/SVG/1.1/DTD/svg11.dtd">
<!-- Oona Räisänen (Wikipedia User:Mysid)
     Public Domain -->

<svg xmlns="http://www.w3.org/2000/svg" version="1.1" width="513" height="472">
  <g transform="translate(-77.635234,-128.42402)" id="layer1">
    <path d="m 346.36508,350.53696 0,-63.39574 -61.54927,0 c -6.15493,0 -9.23239,-1.43615 -9.23239,-4.30845 0,-1.64131 1.53873,-2.46197 4.61619,-2.46197 l 66.16547,0 0,-54.47111 c 0,-4.30845 1.43615,-6.46267 4.30845,-6.46267 2.87229,0 7.48849,1.02582 13.84858,3.07746 6.36009,1.84648 9.54014,3.79554 9.54014,5.84718 0,1.43615 -1.53873,2.97489 -4.6162,4.6162 -3.07746,1.43615 -4.61619,3.28262 -4.61619,5.53943 l 0,41.85351 51.70138,0 c 3.07747,0 5.84718,-1.84648 8.30915,-5.53944 2.66714,-3.69295 4.71878,-5.53943 6.15493,-5.53943 1.43615,0 4.92394,2.15422 10.46338,6.46267 5.53943,4.30845 8.30915,7.07816 8.30915,8.30915 0,2.05165 -2.35939,3.07747 -7.07817,3.07747 l -77.85982,0 L 364.82986,350.53696 Z" id="path851" style="fill:#519e46;stroke:none;" />
    <path d="m 345.44184,357.30738 -84.3225,0 c -5.12911,0 -7.69366,-1.23099 -7.69366,-3.69296 0,-2.05164 1.7439,-3.07746 5.23169,-3.07746 l 87.70771,0 18.46478,0 70.78165,0 c 3.07747,0 6.05235,-1.84648 8.92465,-5.53943 2.8723,-3.69296 4.92394,-5.53944 6.15493,-5.53944 2.05164,0 5.53943,2.05164 10.46337,6.15493 5.12911,3.89812 7.69366,6.873 7.69366,8.92464 0,1.64131 -1.1284,2.66714 -3.38521,3.07747 -2.05164,0.20516 -3.59037,0.10258 -4.6162,-0.30775 L 366.98408,357.61513 Z" id="path853" style="fill:#fcb100;stroke:none;" />
    <path d="m 366.98408,357.61513 c 4.92394,2.25681 7.38591,5.02652 7.38591,8.30915 0,2.66713 -3.38521,4.0007 -10.15563,4.0007 -0.20516,0 -0.5129,0.10258 -0.92323,0.30775 l -0.92324,0 -55.70209,78.47531 c 7.18075,-0.41033 24.92745,-1.1284 53.24012,-2.15422 28.31266,-1.23099 50.16265,-2.66714 65.54997,-4.30845 1.71088,1.45697 4.61203,0.93018 3.69295,6.77042 -15.18215,2.46197 -54.26594,7.69366 -117.25135,15.69506 -20.92675,2.05165 -32.1082,3.38521 -33.54435,4.0007 -0.82066,0.20517 -1.94906,2.76972 -3.38521,7.69366 -1.23099,4.92395 -2.97488,7.38592 -5.23169,7.38592 -2.05164,0 -5.1291,-4.10329 -9.23239,-12.30986 -4.10329,-8.00141 -6.15493,-13.23309 -6.15493,-15.69506 0,-1.84648 1.84648,-3.07747 5.53944,-3.69296 3.69295,-0.61549 6.36009,-0.82066 8.0014,-0.61549 l 28.00492,-2.15422 49.54716,-92.01616 C 350.77028,348.28161 356.55965,352.24577 366.98408,357.61513 Z" id="path823" style="fill:#000000;stroke:none;" />
    <path d="m 213.72641,219.74477 q 14.77182,4.61619 28.6204,13.84858 13.84859,8.92465 13.84859,20.31126 0,8.00141 -6.15493,8.00141 -1.84648,0 -5.23168,-3.38521 -3.07747,-3.38521 -5.84719,-7.07817 -2.46197,-4.0007 -5.53943,-8.6169 -3.07746,-4.61619 -3.38521,-5.23169 -2.46197,-3.3852 -8.30915,-8.92464 Q 215.88063,222.82223 213.72641,219.74477 Z" id="path821" style="fill:#ece200;stroke:#d1c100;" />
    <path d="m 285.73905,237.9018 0,1.23099 q 0,9.54013 -15.07957,53.24011 l -31.08238,93.86264 q -14.77183,41.8535 -14.77183,50.77814 0,6.77042 5.53944,20.00351 5.84718,13.2331 5.84718,21.2345 0,13.54084 -12.30986,13.54084 -10.46337,0 -10.46337,-20.92675 0,-3.69296 1.23098,-11.07887 1.23099,-7.07816 1.23099,-10.46337 0,-7.07817 -5.53943,-12.6176 -5.23169,-5.53944 -12.00211,-8.00141 -6.77042,-2.46197 -12.92535,-5.53943 23.69647,-1.53874 29.8514,-11.07887 1.23098,-2.15423 2.15422,-4.6162 1.23099,-2.46197 2.46197,-5.84718 1.23099,-3.38521 1.84648,-4.92394 l 12.6176,-31.39012 41.8535,-104.63376 q 0,-0.30775 4.30845,-9.23239 Q 284.81581,242.21025 285.73905,237.9018 Z" id="path819" style="fill:#ff0000;stroke:none;" />
    <path d="m 185.41374,300.37431 q 41.8535,16.92605 41.8535,33.8521 0,3.07746 -1.53873,5.84718 -1.23098,2.76971 -4.0007,2.76971 -2.46197,0 -6.77042,-5.23169 -4.30845,-5.23168 -8.92464,-12.30985 -4.30845,-7.07816 -5.23169,-8.0014 Q 195.87712,311.45318 185.41374,300.37431 Z" id="path815" style="fill:#000000;stroke:none;" />
    <g id="text825" style="font-size:93.33px;font-style:normal;font-variant:normal;font-weight:normal;font-stretch:normal;text-align:start;line-height:125%;letter-spacing:0px;word-spacing:0px;text-anchor:start;fill:#ece200;stroke:#d1c100;font-family:Bitstream Charter;">
      <path d="m 133.89393,189.72245 c 9.1462,-2.6132 13.90596,-7.93293 13.90596,-15.11923 0,-9.42619 -7.1863,-15.6792 -18.38574,-15.6792 -11.66607,0 -19.69233,6.25301 -19.69233,12.4127 0,2.98652 2.05323,5.03975 5.03974,5.03975 1.49326,0 2.70653,-0.37332 3.82648,-1.21328 l 0,-8.77288 c 2.70653,-1.86658 5.59971,-2.70653 8.86621,-2.70653 7.18631,0 11.85274,4.75975 11.85274,12.13271 0,7.55962 -5.03975,12.03939 -14.46594,12.03939 -0.6533,0 -1.3066,-0.0933 -1.9599,-0.0933 l 0,5.50639 c 1.77325,-0.27998 3.45316,-0.37331 4.94642,-0.37331 8.95954,0 13.81263,4.29311 13.81263,11.66607 0,8.30625 -6.15969,14.74592 -14.65259,14.74592 -2.79986,0 -5.41306,-0.74663 -7.93293,-2.23989 l -2.89319,-7.93293 c -1.02661,-0.37331 -1.9599,-0.46664 -2.79985,-0.46664 -2.98652,0 -5.22641,2.05323 -5.22641,4.75976 0,4.75976 7.37296,10.26614 18.47907,10.26614 14.3726,0 23.61213,-8.4929 23.61213,-18.9457 C 150.22643,196.25546 144.2534,190.46908 133.89393,189.72245 Z" id="path865" />
    </g>
    <g id="text829" style="font-size:93.33px;font-style:normal;font-variant:normal;font-weight:normal;font-stretch:normal;text-align:start;line-height:125%;letter-spacing:0px;word-spacing:0px;text-anchor:start;fill:#519e46;stroke:none;font-family:Bitstream Charter;">
      <path d="m 544.95192,159.48399 -31.82505,39.01135 0,6.06636 30.05181,0 0,21.55891 7.1863,0 0,-21.55891 10.54613,0 0,-6.06636 -10.54613,0 0,-39.01135 L 544.95192,159.48399 z m -1.77324,10.17282 0,28.83853 -23.05217,0 L 543.17868,169.65681 Z" id="path862" />
    </g>
    <g id="text833" style="font-size:93.33px;font-style:normal;font-variant:normal;font-weight:normal;font-stretch:normal;text-align:start;line-height:125%;letter-spacing:0px;word-spacing:0px;text-anchor:start;fill:#ff0000;stroke:none;font-family:Bitstream Charter;">
      <path d="m 132.33139,506.06687 -20.2523,6.06636 0,3.9198 14.65259,-2.6132 0,50.21079 -1.11995,1.58658 -10.73279,0.55997 0,4.01313 31.26508,0 0,-3.9198 -10.07948,-0.46664 -1.11995,-1.39993 0,-57.95706 L 132.33139,506.06687 Z" id="path856" />
    </g>
    <g id="text837" style="font-size:93.33px;font-style:normal;font-variant:normal;font-weight:normal;font-stretch:normal;text-align:start;line-height:125%;letter-spacing:0px;word-spacing:0px;text-anchor:start;fill:#061fee;stroke:none;font-family:Bitstream Charter;">
      <path d="m 541.73208,536.86531 c 9.1462,-2.6132 13.90596,-7.93293 13.90596,-15.11924 0,-9.42618 -7.1863,-15.6792 -18.38574,-15.6792 -11.66607,0 -19.69233,6.25302 -19.69233,12.4127 0,2.98652 2.05323,5.03975 5.03974,5.03975 1.49326,0 2.70653,-0.37332 3.82648,-1.21327 l 0,-8.77289 c 2.70653,-1.86657 5.59971,-2.70653 8.86621,-2.70653 7.18631,0 11.85274,4.75976 11.85274,12.13272 0,7.55961 -5.03975,12.03939 -14.46594,12.03939 -0.6533,0 -1.3066,-0.0933 -1.9599,-0.0933 l 0,5.50638 c 1.77325,-0.27998 3.45316,-0.37331 4.94642,-0.37331 8.95954,0 13.81263,4.29312 13.81263,11.66607 0,8.30625 -6.15969,14.74592 -14.65259,14.74592 -2.79986,0 -5.41306,-0.74663 -7.93293,-2.23988 l -2.89319,-7.93293 c -1.02661,-0.37332 -1.9599,-0.46665 -2.79985,-0.46665 -2.98652,0 -5.22641,2.05323 -5.22641,4.75976 0,4.75976 7.37296,10.26615 18.47907,10.26615 14.3726,0 23.61213,-8.49291 23.61213,-18.94571 C 558.06458,543.39831 552.09155,537.61194 541.73208,536.86531 Z" id="path859" />
    </g>
    <text x="522.13324" y="389.70102" id="text841" xml:space="preserve" style="font-size:53.84px;font-style:normal;font-variant:normal;font-weight:normal;font-stretch:normal;text-align:start;line-height:125%;letter-spacing:0px;word-spacing:0px;text-anchor:start;fill:#fcb100;stroke:none;font-family:Bitstream Charter;"><tspan
 x="522.13324" y="389.70102" id="tspan843">1</tspan></text>
    <path d="m 425.45589,442.24537 c -5.94977,-6.77042 -19.28544,-21.2345 -40.00703,-43.39223 6.97559,3.07746 11.4892,5.1291 13.54084,6.15492 2.05164,0.82066 6.56525,3.07747 13.54084,6.77042 7.18075,3.48779 12.30985,6.36009 15.38732,8.6169 3.07746,2.05164 7.28333,5.1291 12.6176,9.23239 5.53943,4.10329 9.54013,8.00141 12.0021,11.69436 2.46197,3.48779 4.71878,7.59108 6.77042,12.30985 2.25681,4.92395 3.38521,9.84789 3.38521,14.77183 0,3.48779 -0.82066,6.56526 -2.46197,9.23239 -1.43615,2.66713 -3.79553,4.0007 -7.07816,4.0007 -3.89812,0 -8.82206,-5.43685 -14.77183,-16.31056 L 429.14884,449.01579 Z" id="path849" style="fill:#061fee;stroke:none;" />
  </g>
</svg>
